<svg width="22" height="22" viewBox="0 0 22 22" fill="none" xmlns="http://www.w3.org/2000/svg">
<path fill-rule="evenodd" clip-rule="evenodd" d="M17.0118 6.12572H14.5838L14.2501 4.6004C14.0107 3.50625 13.0418 2.72638 11.9218 2.72638H10.17C9.03435 2.72638 8.05645 3.52765 7.83317 4.64113L7.53548 6.12572H5.12702C4.77264 6.12572 4.48535 6.413 4.48535 6.76738C4.48535 7.12176 4.77264 7.40905 5.12702 7.40905H17.0118C17.3661 7.40905 17.6534 7.12176 17.6534 6.76738C17.6534 6.413 17.3661 6.12572 17.0118 6.12572ZM8.88701 5.91302L9.09146 4.89344C9.19451 4.37953 9.64585 4.00971 10.17 4.00971H11.9218C12.4387 4.00971 12.8859 4.36965 12.9964 4.87464L13.2235 5.91302H8.88701ZM10.134 11.6318C10.134 11.2774 9.84671 10.9901 9.49232 10.9901C9.13794 10.9901 8.85066 11.2774 8.85066 11.6318V15.6642C8.85066 16.0186 9.13794 16.3059 9.49232 16.3059C9.84671 16.3059 10.134 16.0186 10.134 15.6642V11.6318ZM13.0917 11.6318C13.0917 11.2774 12.8044 10.9901 12.45 10.9901C12.0956 10.9901 11.8083 11.2774 11.8083 11.6318V15.6642C11.8083 16.0186 12.0956 16.3059 12.45 16.3059C12.8044 16.3059 13.0917 16.0186 13.0917 15.6642V11.6318ZM4.99665 9.3035C4.92306 8.75382 5.35063 8.2652 5.90521 8.2652H15.9939C16.5529 8.2652 16.9817 8.76121 16.901 9.31433L15.6925 17.5891C15.561 18.4897 14.7886 19.1575 13.8784 19.1575H7.92008C7.00158 19.1575 6.22483 18.4778 6.10296 17.5674L4.99665 9.3035ZM7.37494 17.3971L6.32424 9.54853H15.5698L14.4226 17.4036C14.3832 17.6738 14.1515 17.8741 13.8784 17.8741H7.92008C7.64453 17.8741 7.41151 17.6702 7.37494 17.3971Z" fill="#D0D0D0"/>
</svg>
