<svg width="24" height="24" viewBox="0 0 24 24" fill="none" xmlns="http://www.w3.org/2000/svg">
<path fill-rule="evenodd" clip-rule="evenodd" d="M18.0157 12.7432C19.396 12.7436 20.5157 13.8627 20.5157 15.2432V17.1123C20.5157 18.4928 19.396 19.6119 18.0157 19.6123H16.7168C16.6556 19.7207 16.5786 19.8256 16.4825 19.9219L15.5938 20.8096C14.7174 21.6857 13.2192 21.0653 13.2188 19.8262V19.4736C12.2386 19.1355 11.5333 18.2074 11.5333 17.1123V15.2432C11.5333 13.8626 12.6527 12.7434 14.0333 12.7432H18.0157ZM14.0333 14.1436C13.4256 14.1438 12.9336 14.6361 12.9336 15.2432V17.1123C12.9336 17.5891 13.2401 18 13.6758 18.1504L14.6192 18.4756V19.8047L15.4932 18.9307C15.4932 18.9307 15.496 18.9275 15.4981 18.9238L15.8995 18.2119H18.0157C18.5851 18.2115 19.0542 17.7789 19.1104 17.2246L19.1153 17.1123V15.2432C19.1153 14.674 18.6826 14.205 18.128 14.1484L18.0157 14.1436H14.0333Z" fill="#15C674"/>
<path d="M9.51372 12.9775C9.88897 12.8851 10.2687 13.1141 10.3614 13.4893C10.4539 13.8646 10.2241 14.2444 9.84868 14.3369C8.53684 14.6602 7.67642 15.2789 7.1231 15.998C6.61942 16.6528 6.34658 17.4241 6.24614 18.1992H9.68169C10.0681 18.1994 10.3809 18.5129 10.3809 18.8994C10.3808 19.2858 10.068 19.5994 9.68169 19.5996H6.00005C5.3543 19.5996 4.76425 19.0643 4.82232 18.3438L4.86724 17.9375C5.0027 16.9853 5.35328 16.003 6.01372 15.1445C6.7746 14.1556 7.91704 13.371 9.51372 12.9775Z" fill="#15C674"/>
<path fill-rule="evenodd" clip-rule="evenodd" d="M12.2295 3.40527C17.1234 3.66424 16.6543 11.9372 11.9922 11.9375L11.8096 11.9336C8.07885 11.76 7.19114 6.26456 9.78521 4.16113L9.91314 4.0625C10.377 3.72109 11.2687 3.39944 11.9922 3.39941L12.2295 3.40527ZM11.9922 4.7998C11.8193 4.79982 11.5675 4.84164 11.2959 4.93164C11.0197 5.02324 10.824 5.13095 10.7432 5.19043C9.91939 5.79699 9.498 7.1261 9.79302 8.4707C10.0769 9.76407 10.8819 10.5381 11.9922 10.5381C12.7033 10.538 13.2243 10.237 13.6094 9.74316C14.0198 9.21669 14.2783 8.45242 14.2979 7.63477C14.3175 6.81598 14.0951 6.07964 13.7159 5.58301C13.3695 5.12952 12.8418 4.79986 11.9922 4.7998Z" fill="#15C674"/>
</svg>
