<svg width="24" height="24" viewBox="0 0 24 24" fill="none" xmlns="http://www.w3.org/2000/svg">
<path d="M10.2319 5.91485C11.2082 4.93854 12.7918 4.93854 13.7681 5.91485L19.1528 11.2996H20.8267C21.213 11.2999 21.5258 11.6135 21.5259 11.9998C21.5259 12.3862 21.213 12.6997 20.8267 12.7H19.1528L13.7681 18.0848C12.7918 19.0611 11.2082 19.0611 10.2319 18.0848L4.84717 12.7H3.03271C2.64612 12.7 2.33252 12.3864 2.33252 11.9998C2.33253 11.6132 2.64612 11.2996 3.03271 11.2996H4.84717L10.2319 5.91485ZM12.7778 6.90508C12.3483 6.47551 11.6517 6.47551 11.2222 6.90508L6.12744 11.9998L11.2222 17.0945C11.6517 17.5241 12.3483 17.5241 12.7778 17.0945L17.8726 11.9998L12.7778 6.90508Z" fill="#15C674"/>
</svg>
