<svg width="24" height="24" viewBox="0 0 24 24" fill="none" xmlns="http://www.w3.org/2000/svg">
<path d="M7.07373 11.8453C7.58812 11.9624 8.10708 12.0919 8.55908 12.2271C9.02754 12.3672 9.54284 12.55 10.0464 12.7418C10.4077 12.8794 10.5892 13.2838 10.4517 13.6451C10.314 14.0061 9.90946 14.1877 9.54834 14.0504C9.06211 13.8652 8.58126 13.6956 8.15771 13.5689C7.74726 13.4462 7.26194 13.3241 6.76318 13.2105C6.38643 13.1247 6.15025 12.7494 6.23584 12.3726C6.32162 11.9958 6.6969 11.7597 7.07373 11.8453Z" fill="#15C674"/>
<path d="M7.07373 9.35212C7.58809 9.4692 8.1071 9.59878 8.55908 9.73396C9.0275 9.87407 9.54288 10.0569 10.0464 10.2486C10.4076 10.3862 10.5892 10.7907 10.4517 11.1519C10.3141 11.513 9.90952 11.6946 9.54834 11.5572C9.06215 11.3721 8.58123 11.2024 8.15771 11.0758C7.74728 10.953 7.2619 10.8309 6.76318 10.7174C6.38641 10.6315 6.15015 10.2563 6.23584 9.87947C6.32167 9.50274 6.69697 9.26661 7.07373 9.35212Z" fill="#15C674"/>
<path d="M16.9263 11.8453C17.3031 11.7597 17.6784 11.9958 17.7642 12.3726C17.8497 12.7494 17.6136 13.1247 17.2368 13.2105C16.7381 13.3241 16.2527 13.4462 15.8423 13.5689C15.4187 13.6956 14.9379 13.8652 14.4517 14.0504C14.0905 14.1877 13.686 14.0061 13.5483 13.6451C13.4108 13.2838 13.5923 12.8794 13.9536 12.7418C14.4572 12.55 14.9725 12.3672 15.4409 12.2271C15.8929 12.0919 16.4119 11.9624 16.9263 11.8453Z" fill="#15C674"/>
<path d="M16.9263 9.35212C17.303 9.26661 17.6783 9.50274 17.7642 9.87947C17.8499 10.2563 17.6136 10.6315 17.2368 10.7174C16.7381 10.8309 16.2527 10.953 15.8423 11.0758C15.4188 11.2024 14.9379 11.3721 14.4517 11.5572C14.0905 11.6946 13.6859 11.513 13.5483 11.1519C13.4108 10.7907 13.5924 10.3862 13.9536 10.2486C14.4571 10.0569 14.9725 9.87407 15.4409 9.73396C15.8929 9.59878 16.4119 9.4692 16.9263 9.35212Z" fill="#15C674"/>
<path fill-rule="evenodd" clip-rule="evenodd" d="M18.4897 5.08552C19.2773 4.93133 19.9964 5.53992 19.9966 6.34236V15.6793L19.9917 15.7984C19.9379 16.386 19.4911 16.8716 18.9009 16.9791L18.1353 17.1246C17.3173 17.2856 16.3774 17.4919 15.6411 17.7135L15.2935 17.8228C14.4624 18.0965 13.5071 18.4843 12.7397 18.8131C12.6938 18.8327 12.6466 18.8464 12.6001 18.859C12.5898 18.8621 12.5792 18.8639 12.5688 18.8668C12.5433 18.8728 12.5182 18.8793 12.4927 18.8834C12.3125 18.9239 12.1337 18.9376 12.0005 18.9371C11.853 18.9365 11.6754 18.9206 11.5015 18.8834C11.4978 18.8828 11.4944 18.8811 11.4907 18.8804C11.459 18.8735 11.4271 18.8677 11.396 18.859C11.3577 18.8484 11.3197 18.8352 11.2817 18.8199C11.2637 18.8132 11.2445 18.8097 11.2271 18.8023C11.218 18.7985 11.2104 18.7918 11.2017 18.7877C10.4446 18.4644 9.51655 18.0896 8.70654 17.8228L8.35889 17.7135C7.62261 17.4919 6.68268 17.2856 5.86475 17.1246L5.09912 16.9791C4.50886 16.8716 4.06208 16.386 4.0083 15.7984L4.00342 15.6793V6.34236C4.00364 5.53992 4.72273 4.93133 5.51025 5.08552C6.40058 5.25989 7.51522 5.49919 8.35889 5.75154C9.55067 6.10803 11.1119 6.76973 11.9995 7.16072C12.887 6.76977 14.449 6.10814 15.6411 5.75154C16.4848 5.49919 17.5994 5.25989 18.4897 5.08552ZM5.40283 15.6119C6.34029 15.7834 7.7186 16.0585 8.76221 16.3726C9.56342 16.6138 10.4984 16.9784 11.2964 17.3101V8.38044C10.4116 7.9938 9.01013 7.40819 7.95752 7.09333C7.2295 6.87558 6.25092 6.66046 5.40283 6.49177V15.6119ZM18.5972 6.49177C17.7491 6.66046 16.7705 6.87558 16.0425 7.09333C14.9899 7.40819 13.5884 7.9938 12.7036 8.38044V17.3101C13.5016 16.9784 14.4366 16.6138 15.2378 16.3726C16.2814 16.0585 17.6597 15.7834 18.5972 15.6119V6.49177Z" fill="#15C674"/>
</svg>
