<svg width="28" height="28" viewBox="0 0 28 28" fill="none" xmlns="http://www.w3.org/2000/svg">
	<path d="M20.516 12.2932C20.8989 12.0739 21.3191 12.1393 21.6088 12.3333C21.8502 12.4953 22.0253 12.7565 22.0756 13.0588L22.0892 13.1926L22.101 13.3254C22.1408 13.6348 22.2729 13.9361 22.4965 14.2678C22.7639 14.6644 23.1134 15.0392 23.5326 15.5081C24.3245 16.3937 25.3195 17.56 25.3197 19.2864C25.3196 20.7617 24.3899 21.7659 23.6136 22.3469C23.2162 22.6443 22.8226 22.8588 22.5316 22.9993C22.3854 23.0698 22.2614 23.1241 22.1722 23.1604C22.1283 23.1782 22.0921 23.1925 22.0658 23.2024C22.0528 23.2073 22.0408 23.2112 22.0326 23.2141C22.0287 23.2155 22.0246 23.217 22.0219 23.218L22.0189 23.219H22.016C22.0051 23.2228 21.9927 23.2254 21.9818 23.2288C21.9577 23.236 21.9331 23.2404 21.9086 23.2454C21.8792 23.2514 21.85 23.2573 21.8207 23.26C21.8003 23.2619 21.7796 23.2617 21.7592 23.262C21.727 23.2625 21.6951 23.2623 21.6635 23.259C21.6396 23.2566 21.6157 23.2528 21.5922 23.2483C21.5668 23.2434 21.5416 23.2379 21.517 23.2307C21.4923 23.2235 21.4687 23.2139 21.4447 23.2043C21.4176 23.1935 21.3904 23.1828 21.3646 23.1692C21.3474 23.1601 21.3314 23.1493 21.3148 23.1389C21.2852 23.1204 21.256 23.1006 21.2289 23.0784C21.2175 23.069 21.2067 23.0582 21.1957 23.0481C21.1661 23.0211 21.1382 22.9927 21.1127 22.9612C21.1094 22.9571 21.1052 22.9535 21.1019 22.9495C21.0955 22.9412 21.0904 22.9315 21.0844 22.9231C21.0641 22.8948 21.0454 22.8655 21.0287 22.8342C21.0161 22.8109 21.0056 22.787 20.9955 22.7629C20.9894 22.7483 20.9803 22.7342 20.975 22.719C20.9713 22.7084 20.9704 22.6964 20.9672 22.6858C20.9591 22.6593 20.9529 22.6327 20.9476 22.6057C20.9423 22.5783 20.9365 22.551 20.934 22.5237C20.9321 22.5037 20.9333 22.4832 20.933 22.4631C20.9324 22.4301 20.9315 22.397 20.9349 22.3645C20.937 22.3448 20.9412 22.3254 20.9447 22.3059C20.9504 22.2743 20.9569 22.2428 20.9662 22.2122C20.9717 22.194 20.979 22.1762 20.9857 22.1584C20.9979 22.1267 21.0108 22.0956 21.0267 22.0657C21.0361 22.0481 21.0463 22.0309 21.057 22.0139C21.0732 21.9883 21.0908 21.9635 21.1097 21.9397C21.1249 21.9208 21.1415 21.9028 21.1586 21.885C21.1805 21.8621 21.2032 21.84 21.2279 21.8196C21.234 21.8146 21.2402 21.8078 21.2465 21.803C21.2475 21.8022 21.2491 21.8011 21.2504 21.8C21.2619 21.7901 21.2825 21.771 21.308 21.7463C21.3605 21.6954 21.4323 21.618 21.5033 21.5217C21.6512 21.3208 21.7589 21.0872 21.7592 20.843C21.7591 20.578 21.6205 20.3362 21.2396 19.842C21.0185 19.5552 20.7123 19.1759 20.4808 18.6975C19.9212 19.2024 19.5376 19.7835 19.5375 20.5217C19.5377 20.8932 19.7271 21.3568 20.1898 21.9426C20.1924 21.946 20.1941 21.95 20.1967 21.9534C20.2082 21.9685 20.2175 21.9854 20.2279 22.0012C20.2469 22.0299 20.2667 22.0579 20.2816 22.0881C20.2847 22.0946 20.2864 22.1021 20.2894 22.1086C20.3537 22.2484 20.3769 22.4003 20.3588 22.5481C20.3567 22.565 20.3502 22.5819 20.347 22.5989C20.3403 22.6347 20.3341 22.6705 20.3226 22.7053C20.3217 22.7082 20.3217 22.7122 20.3207 22.7151C20.316 22.7283 20.3083 22.7403 20.3031 22.7532C20.2897 22.7866 20.2751 22.8202 20.2572 22.8518C20.2436 22.8757 20.227 22.898 20.2113 22.9202C20.1961 22.9416 20.181 22.9635 20.1635 22.9836C20.1468 23.0027 20.127 23.019 20.1088 23.0364C20.091 23.0534 20.0757 23.0734 20.056 23.0891C20.0528 23.0916 20.0476 23.0935 20.0443 23.0959C20.0214 23.1134 19.9956 23.1269 19.9711 23.1418C19.9504 23.1545 19.931 23.1693 19.9095 23.1799C19.8916 23.1888 19.8724 23.1948 19.8539 23.2024C19.773 23.2352 19.6899 23.2571 19.6049 23.2629C19.5985 23.2634 19.5917 23.2627 19.5853 23.2629C19.54 23.2649 19.4945 23.2645 19.4496 23.259C19.4289 23.2565 19.4088 23.2496 19.3881 23.2454C19.3556 23.2388 19.3229 23.2333 19.2914 23.2229C19.2891 23.2221 19.286 23.2226 19.2836 23.2219C17.385 22.5695 15.9761 20.9256 15.976 18.8352C15.976 17.4113 16.7266 16.0104 17.598 14.9016C18.4812 13.7782 19.5911 12.8236 20.516 12.2932ZM19.0404 5.22583C21.1019 5.22614 22.7736 6.8977 22.7738 8.95923V9.32446C22.7736 9.77505 22.4079 10.1404 21.9574 10.1409C21.5065 10.1409 21.1402 9.77535 21.14 9.32446V8.95923C21.1398 7.79977 20.1998 6.85993 19.0404 6.85962H8.9613C7.80161 6.85962 6.86089 7.79958 6.86072 8.95923V19.0393C6.86081 20.199 7.80156 21.1389 8.9613 21.1389H14.0013C14.4518 21.1396 14.8168 21.5057 14.8168 21.9563C14.8165 22.4067 14.4516 22.772 14.0013 22.7727H8.9613C6.89949 22.7727 5.22604 21.1011 5.22595 19.0393V8.95923C5.22613 6.89751 6.89955 5.22583 8.9613 5.22583H19.0404ZM20.6332 14.1799C20.0552 14.6212 19.4226 15.2229 18.8822 15.9104C18.1006 16.9048 17.6097 17.9494 17.6097 18.8352C17.6098 19.2964 17.7208 19.7331 17.9252 20.1252C18.0957 18.514 19.2812 17.4995 20.1361 16.8909L20.2728 16.8069C20.5962 16.6433 20.949 16.6773 21.2113 16.8049C21.5017 16.9467 21.7413 17.2268 21.8109 17.5881C21.8928 18.0132 22.1463 18.3435 22.5336 18.8459C22.805 19.1981 23.191 19.6913 23.3344 20.3342C23.5504 20.0249 23.6859 19.6777 23.6859 19.2864C23.6858 18.2391 23.113 17.4896 22.3148 16.5969C21.9393 16.177 21.4878 15.6944 21.141 15.1799C20.9386 14.8796 20.7586 14.5476 20.6332 14.1799ZM16.472 10.7483C16.7805 10.4193 17.2973 10.4029 17.6263 10.7112C17.955 11.0195 17.9723 11.5355 17.6644 11.8645L13.2894 16.5315C12.9868 16.8539 12.4814 16.8778 12.1508 16.5842L9.52576 14.2502C9.18919 13.9508 9.15868 13.4349 9.4574 13.0979C9.75696 12.7609 10.2736 12.7302 10.6107 13.0295L12.641 14.8342L16.472 10.7483Z" fill="#3592FF"/>
</svg>
