<svg width="24" height="24" viewBox="0 0 24 24" fill="none" xmlns="http://www.w3.org/2000/svg">
<path fill-rule="evenodd" clip-rule="evenodd" d="M14.2137 3.80664C14.8936 3.80671 15.3283 4.53139 15.0077 5.13086L12.7137 9.41797H16.452C16.7184 9.41802 16.962 9.56878 17.0799 9.80762C17.1978 10.0466 17.1699 10.3325 17.0077 10.5439L9.62387 20.168C9.01292 20.9641 7.75422 20.3144 8.04965 19.3555L9.61801 14.2695H4.86997C4.64174 14.2694 4.42767 14.1576 4.29672 13.9707C4.16584 13.7836 4.13458 13.5437 4.21274 13.3291L7.51547 4.2666L7.5604 4.16699C7.68214 3.9468 7.91551 3.80583 8.1727 3.80566L14.2137 3.80664ZM5.86997 12.8691H10.5663C10.7884 12.8692 10.9978 12.9746 11.1297 13.1533C11.2616 13.3321 11.3007 13.5631 11.2352 13.7754L10.2079 17.1055L15.0321 10.8174H11.5457C11.2999 10.8173 11.0716 10.6884 10.9452 10.4775C10.8188 10.2665 10.8126 10.004 10.9286 9.78711L13.3797 5.20605H8.66293L5.86997 12.8691Z" fill="#15C674"/>
<path d="M17.7811 13.1211C18.1676 13.1212 18.4813 13.4348 18.4813 13.8213V15.7266H20.3963C20.7829 15.7266 21.0965 16.0402 21.0965 16.4268C21.0965 16.8134 20.7829 17.127 20.3963 17.127H18.4813V19.043C18.4813 19.4295 18.1676 19.7431 17.7811 19.7432C17.3945 19.7432 17.0809 19.4296 17.0809 19.043V17.127H15.1747C14.7882 17.1268 14.4745 16.8133 14.4745 16.4268C14.4745 16.0403 14.7882 15.7267 15.1747 15.7266H17.0809V13.8213C17.0809 13.4347 17.3945 13.1211 17.7811 13.1211Z" fill="#15C674"/>
</svg>
