<svg width="24" height="24" viewBox="0 0 24 24" fill="none" xmlns="http://www.w3.org/2000/svg">
<path fill-rule="evenodd" clip-rule="evenodd" d="M12.3577 5.44868C11.0371 5.37911 9.72614 5.70851 8.5953 6.39404C7.46446 7.07957 6.56606 8.0895 6.01693 9.2925C5.4678 10.4955 5.29335 11.8359 5.51628 13.1394C5.7392 14.4429 6.34918 15.6491 7.26689 16.6012C8.1846 17.5534 9.36757 18.2073 10.662 18.4781C11.9563 18.7489 13.3023 18.6239 14.5246 18.1194C15.747 17.6149 16.7894 16.7543 17.5161 15.6495C18.2428 14.5446 18.6202 13.2467 18.5993 11.9245C18.5932 11.5379 18.9016 11.2196 19.2881 11.2135C19.6747 11.2074 19.993 11.5158 19.9991 11.9023C20.0245 13.5055 19.5668 15.0792 18.6857 16.4188C17.8046 17.7584 16.5408 18.8019 15.0587 19.4135C13.5766 20.0252 11.9447 20.1767 10.3753 19.8484C8.8059 19.5201 7.37158 18.7272 6.25888 17.5728C5.14619 16.4183 4.4066 14.9558 4.13631 13.3754C3.86602 11.7949 4.07753 10.1698 4.74334 8.71115C5.40914 7.25255 6.49843 6.02803 7.86955 5.19684C9.24066 4.36566 10.8302 3.96627 12.4313 4.05062C12.8174 4.07096 13.1139 4.40041 13.0935 4.78647C13.0732 5.17254 12.7437 5.46902 12.3577 5.44868Z" fill="#333333"/>
<path fill-rule="evenodd" clip-rule="evenodd" d="M12.3243 8.22783C11.5551 8.16444 10.7847 8.33594 10.115 8.71967C9.44532 9.1034 8.90783 9.68131 8.57356 10.377C8.2393 11.0727 8.12399 11.8535 8.24289 12.6161C8.36178 13.3787 8.70927 14.0873 9.23945 14.6482C9.76962 15.2092 10.4575 15.596 11.2122 15.7577C11.9669 15.9194 12.753 15.8482 13.4664 15.5537C14.1798 15.2592 14.7871 14.7551 15.2079 14.1081C15.6288 13.4611 15.8434 12.7016 15.8234 11.93C15.8135 11.5435 16.1186 11.2221 16.5051 11.2122C16.8916 11.2022 17.213 11.5073 17.223 11.8938C17.2503 12.9486 16.9568 13.9869 16.3815 14.8714C15.8061 15.756 14.976 16.4451 14.0006 16.8478C13.0253 17.2504 11.9508 17.3477 10.919 17.1266C9.88722 16.9056 8.94679 16.3767 8.22199 15.6099C7.49719 14.843 7.02213 13.8743 6.8596 12.8317C6.69706 11.7892 6.85469 10.7218 7.31166 9.7707C7.76864 8.81961 8.50344 8.02956 9.41897 7.50496C10.3345 6.98036 11.3877 6.7459 12.4393 6.83256C12.8246 6.86432 13.1112 7.2024 13.0794 7.58769C13.0477 7.97299 12.7096 8.25959 12.3243 8.22783Z" fill="#333333"/>
<path fill-rule="evenodd" clip-rule="evenodd" d="M16.3955 4.23789C16.8773 3.75135 17.7044 3.95973 17.8982 4.61648L18.2589 5.83877L19.4381 6.1695C20.0989 6.35481 20.3174 7.18176 19.8346 7.66936L18.1401 9.38044C17.8315 9.69207 17.3774 9.81051 16.9559 9.68935L15.7562 9.34451L13.5912 11.5095C13.6447 11.6727 13.6736 11.847 13.6736 12.0281C13.6736 12.9465 12.9291 13.691 12.0108 13.691C11.0924 13.691 10.3479 12.9465 10.3479 12.0281C10.3479 11.1097 11.0924 10.3652 12.0108 10.3652C12.2314 10.3652 12.442 10.4082 12.6346 10.4862L14.7612 8.35966L14.4006 7.13389C14.2772 6.7146 14.3916 6.2614 14.6992 5.95085L16.3955 4.23789ZM16.7949 5.82421L15.777 6.85207L16.1117 7.99002L17.2287 8.31109L18.2419 7.28803L17.508 7.08221C17.2761 7.01716 17.0938 6.83739 17.0257 6.60632L16.7949 5.82421Z" fill="#333333"/>
</svg>
