<svg width="24" height="24" viewBox="0 0 24 24" fill="none" xmlns="http://www.w3.org/2000/svg">
<path d="M20.0137 9.44629C20.0135 8.39722 19.1633 7.54709 18.1143 7.54688H17.79V8.51953C17.79 8.52247 17.7891 8.52539 17.7891 8.52832V11.3789C17.7891 11.3821 17.79 11.3855 17.79 11.3887V12.2021H18.1143C19.1633 12.2019 20.0135 11.3518 20.0137 10.3027V9.44629ZM8.56348 17.1367V9.73145C8.2452 10.3708 7.92539 11.0148 7.55859 11.793C7.274 12.3968 6.41122 12.4107 6.11523 11.8027L5.12402 9.76562V17.1367C5.12402 17.5233 4.81043 17.8369 4.42383 17.8369C4.03723 17.8369 3.72363 17.5233 3.72363 17.1367V6.82812C3.72363 6.44153 4.03723 6.12793 4.42383 6.12793C4.49859 6.12793 4.56917 6.14431 4.63672 6.16602C4.83597 6.21173 5.01489 6.33998 5.11133 6.53809L6.83105 10.0752C7.03566 9.65712 7.23059 9.26698 7.4248 8.87695C7.78129 8.16106 8.137 7.44431 8.55664 6.54785C8.66026 6.32662 8.86494 6.18626 9.08984 6.15332C9.14567 6.13898 9.20337 6.12793 9.26367 6.12793C9.65027 6.12793 9.96387 6.44153 9.96387 6.82812V17.1367C9.96387 17.5233 9.65027 17.8369 9.26367 17.8369C8.87707 17.8369 8.56348 17.5233 8.56348 17.1367ZM10.8848 14.6172V9.33398C10.8848 7.56667 12.3177 6.13379 14.085 6.13379H14.8154C15.202 6.13379 15.5156 6.44739 15.5156 6.83398C15.5156 7.22058 15.202 7.53418 14.8154 7.53418H14.085C13.0908 7.53418 12.2852 8.33987 12.2852 9.33398V14.6172C12.2852 15.6113 13.0908 16.418 14.085 16.418H14.8154C15.2019 16.418 15.5154 16.7308 15.5156 17.1172C15.5156 17.5038 15.202 17.8174 14.8154 17.8174H14.085C12.3176 17.8174 10.8848 16.3845 10.8848 14.6172ZM21.4141 10.3027C21.4139 12.125 19.9365 13.6023 18.1143 13.6025H17.7891V17.1406C17.7889 17.5271 17.4753 17.8398 17.0889 17.8398C16.7024 17.8398 16.3889 17.5271 16.3887 17.1406V7.03516C16.3887 7.03189 16.3896 7.02864 16.3896 7.02539V6.84668C16.3896 6.66108 16.4635 6.48283 16.5947 6.35156C16.726 6.22031 16.9042 6.14651 17.0898 6.14648H18.1143C19.9365 6.1467 21.4139 7.62402 21.4141 9.44629V10.3027Z" fill="#15C674"/>
</svg>
