<svg width="24" height="24" viewBox="0 0 24 24" fill="none" xmlns="http://www.w3.org/2000/svg">
<path fill-rule="evenodd" clip-rule="evenodd" d="M11.9914 11.814C9.7784 11.814 9.25839 8.52518 10.8252 7.36305C11.0854 7.17007 11.5855 6.98828 11.9914 6.98828C14.8777 6.98828 14.6483 11.814 11.9914 11.814ZM11.3588 9.72629C11.2285 9.12831 11.4411 8.6568 11.6517 8.49324C11.6559 8.49081 11.6645 8.48598 11.6781 8.47932C11.7082 8.46449 11.7493 8.4472 11.7972 8.43118C11.8451 8.4152 11.8909 8.40345 11.9301 8.39618C11.9493 8.39263 11.9646 8.39055 11.9759 8.3894C11.9874 8.38825 11.9914 8.38828 11.9914 8.38828C12.2723 8.38828 12.3872 8.48271 12.4669 8.58789C12.5798 8.73681 12.679 9.01064 12.6705 9.36786C12.662 9.72376 12.549 10.0247 12.4109 10.2032C12.298 10.3491 12.1786 10.414 11.9914 10.414C11.8153 10.414 11.7148 10.3595 11.6317 10.2786C11.5286 10.1784 11.4172 9.99461 11.3588 9.72629Z" fill="#333333"/>
<path fill-rule="evenodd" clip-rule="evenodd" d="M18.5222 16.3674L18.5126 16.3789C18.5019 16.3919 18.484 16.4142 18.4614 16.4449C18.4157 16.5067 18.3525 16.5998 18.289 16.7168C18.159 16.9566 18.0469 17.2613 18.0469 17.586C18.0469 17.9974 18.225 18.4202 18.392 18.716C18.566 19.024 18.533 19.3664 18.3977 19.617C18.2606 19.871 17.9777 20.1007 17.5955 20.1007H7.87549C7.20755 20.1007 6.55807 19.8535 6.07204 19.3999C5.58439 18.9447 5.30049 18.3167 5.30049 17.6507L5.30029 6.09782C5.30028 4.88262 6.28541 3.89809 7.50023 3.89799L9.65641 3.89776C11.9378 3.89748 14.2197 3.8972 16.5013 3.8979C17.7158 3.89827 18.7003 4.88252 18.7003 6.09731L18.7005 15.9007C18.7005 16.0725 18.6373 16.2382 18.5231 16.3664L18.5222 16.3674ZM7.50034 5.29799C7.0583 5.29803 6.70029 5.65614 6.70029 6.09779L6.70046 15.4704C6.99818 15.3253 7.32318 15.2366 7.65691 15.2096C7.83232 14.0297 8.4764 13.2445 9.32084 12.7787C10.1479 12.3224 11.1337 12.1875 12.0005 12.1875C12.8673 12.1875 13.8532 12.3224 14.6802 12.7787C15.5225 13.2433 16.1655 14.0258 16.3428 15.2007H17.3005L17.3003 6.09733C17.3003 5.65587 16.9426 5.29804 16.5008 5.2979C14.22 5.2972 11.9391 5.29748 9.65811 5.29776L7.50034 5.29799ZM16.8157 16.6007C16.7179 16.8869 16.6469 17.2202 16.6469 17.586C16.6469 17.9939 16.7356 18.3758 16.8506 18.7007H7.87549C7.54888 18.7007 7.24453 18.5792 7.02729 18.3764C6.81169 18.1752 6.70049 17.913 6.70049 17.6507C6.70049 17.3884 6.81169 17.1262 7.02729 16.925C7.24453 16.7223 7.54888 16.6007 7.87549 16.6007H16.8157ZM9.08828 15.1794H14.9128C14.7678 14.6 14.435 14.2423 14.004 14.0045C13.4689 13.7093 12.7516 13.5875 12.0005 13.5875C11.2494 13.5875 10.5322 13.7093 9.99707 14.0045C9.56609 14.2423 9.23324 14.6 9.08828 15.1794Z" fill="#333333"/>
</svg>
