<svg width="16" height="16" viewBox="0 0 16 16" fill="none" xmlns="http://www.w3.org/2000/svg">
<path fill-rule="evenodd" clip-rule="evenodd" d="M1 8C1 11.866 4.13401 15 8 15C11.866 15 15 11.866 15 8C15 4.13401 11.866 1 8 1C4.13401 1 1 4.13401 1 8ZM8 0C3.58172 0 0 3.58172 0 8C0 12.4183 3.58172 16 8 16C12.4183 16 16 12.4183 16 8C16 3.58172 12.4183 0 8 0Z" fill="white"/>
<path d="M11.234 4.94356C11.486 5.19558 11.486 5.60418 11.234 5.8562L9.00154 8.08866L11.2339 10.3211C11.486 10.5731 11.486 10.9817 11.2339 11.2337C10.9819 11.4857 10.5733 11.4857 10.3213 11.2337L8.0889 9.0013L5.85644 11.2338C5.60442 11.4858 5.19582 11.4858 4.9438 11.2338C4.69178 10.9817 4.69178 10.5731 4.9438 10.3211L7.17626 8.08866L4.9438 5.8562C4.69178 5.60418 4.69178 5.19558 4.9438 4.94356C5.19582 4.69154 5.60442 4.69154 5.85644 4.94356L8.0889 7.17602L10.3214 4.94356C10.5734 4.69154 10.982 4.69154 11.234 4.94356Z" fill="white"/>
</svg>
