<svg width="16" height="16" viewBox="0 0 16 16" fill="none" xmlns="http://www.w3.org/2000/svg">
<path fill-rule="evenodd" clip-rule="evenodd" d="M1 8C1 11.866 4.13401 15 8 15C11.866 15 15 11.866 15 8C15 4.13401 11.866 1 8 1C4.13401 1 1 4.13401 1 8ZM8 0C3.58172 0 0 3.58172 0 8C0 12.4183 3.58172 16 8 16C12.4183 16 16 12.4183 16 8C16 3.58172 12.4183 0 8 0Z" fill="white"/>
<path fill-rule="evenodd" clip-rule="evenodd" d="M11.5983 5.40726C11.8371 5.6262 11.8533 5.99731 11.6343 6.23615L7.72987 10.4956C7.51607 10.7288 7.15584 10.7505 6.91561 10.5446L4.43096 8.41486C4.18495 8.204 4.15646 7.83364 4.36732 7.58763C4.57818 7.34163 4.94855 7.31314 5.19455 7.524L7.24838 9.28442L10.7694 5.4433C10.9883 5.20446 11.3594 5.18832 11.5983 5.40726Z" fill="white"/>
</svg>
