<svg width="20" height="20" viewBox="0 0 20 20" fill="none" xmlns="http://www.w3.org/2000/svg">
<g clip-path="url(#clip0_24722_16332)">
<path d="M10.5793 6.88828C10.5793 6.5293 10.2883 6.23828 9.9293 6.23828C9.57031 6.23828 9.2793 6.5293 9.2793 6.88828V10.2384C9.2793 10.5974 9.57031 10.8884 9.9293 10.8884H12.7556C13.1146 10.8884 13.4056 10.5974 13.4056 10.2384C13.4056 9.87944 13.1146 9.58843 12.7556 9.58843H10.5793V6.88828Z" fill="#A7A7A7"/>
<path fill-rule="evenodd" clip-rule="evenodd" d="M10.0002 16.8138C13.6821 16.8138 16.6668 13.829 16.6668 10.1471C16.6668 6.46524 13.6821 3.48047 10.0002 3.48047C6.31827 3.48047 3.3335 6.46524 3.3335 10.1471C3.3335 13.829 6.31827 16.8138 10.0002 16.8138ZM15.3668 10.1471C15.3668 13.1111 12.9641 15.5138 10.0002 15.5138C7.03624 15.5138 4.6335 13.1111 4.6335 10.1471C4.6335 7.18321 7.03624 4.78047 10.0002 4.78047C12.9641 4.78047 15.3668 7.18321 15.3668 10.1471Z" fill="#A7A7A7"/>
</g>
<defs>
<clipPath id="clip0_24722_16332">
<rect width="20" height="20" fill="white"/>
</clipPath>
</defs>
</svg>
