<svg width="20" height="20" viewBox="0 0 20 20" fill="none" xmlns="http://www.w3.org/2000/svg">
<path d="M4.44758 7.04739C4.63649 5.10526 6.26592 3.58203 8.25604 3.58203H8.2631C9.62735 3.59684 10.8756 4.31394 11.5461 5.4516C11.7693 5.41041 11.9963 5.38959 12.2242 5.38962L10.2204 5.81676C9.75916 5.24974 9.0435 4.89166 8.25252 4.88203C7.09078 4.88363 6.10986 5.67533 5.81781 6.7553C5.7601 6.96868 5.72929 7.19331 5.72929 7.42533L5.72931 7.4367L5.72935 7.44075C5.74782 7.72635 5.5772 7.99075 5.30879 8.09133C3.98245 8.58836 3.13482 9.8148 3.15031 11.1528L3.1504 11.1604C3.1504 12.9608 4.60238 14.4154 6.38763 14.4154C6.40794 14.4154 6.42484 14.4148 6.4516 14.4138L6.49658 14.4123C6.52568 14.4114 6.55463 14.4124 6.58327 14.4154H14.5493C15.8725 14.376 16.8756 13.325 16.8496 12.1067C16.8494 12.0991 16.8494 12.0915 16.8495 12.0839C16.8633 11.0722 16.1784 10.1507 15.1347 9.84819C14.8568 9.76765 14.6656 9.51318 14.6656 9.22389C14.6656 9.19885 14.6665 9.17557 14.6669 9.16391L14.667 9.16176L14.6675 9.147C14.6673 7.78773 13.5703 6.68962 12.2242 6.68962C11.9474 6.68958 11.6732 6.73668 11.4143 6.82837C11.0837 6.94551 10.7197 6.77917 10.5919 6.45249C10.5012 6.2206 10.3751 6.00692 10.2204 5.81676L12.2242 5.38962C14.1641 5.38966 15.7557 6.87069 15.948 8.76191C17.2763 9.33696 18.1648 10.6297 18.1495 12.0903C18.1853 14.0661 16.5682 15.6621 14.5757 15.7151L14.5585 15.7154H6.51698C6.50204 15.7154 6.48721 15.7149 6.47252 15.7139C6.44596 15.7147 6.416 15.7154 6.38763 15.7154C3.88003 15.7154 1.85237 13.6751 1.85035 11.1641C1.83145 9.40179 2.86033 7.81535 4.44758 7.04739Z" fill="#A7A7A7"/>
<path d="M10.4558 9.24375C10.4558 8.88476 10.1647 8.59375 9.80576 8.59375C9.44678 8.59375 9.15576 8.88476 9.15576 9.24375V10.7411C9.15576 11.1001 9.44678 11.3911 9.80576 11.3911H11.0538C11.4128 11.3911 11.7038 11.1001 11.7038 10.7411C11.7038 10.3822 11.4128 10.0911 11.0538 10.0911H10.4558V9.24375Z" fill="#A7A7A7"/>
<path fill-rule="evenodd" clip-rule="evenodd" d="M6.45654 10.4271C6.45654 8.47016 8.04292 6.88379 9.99981 6.88379C11.9567 6.88379 13.5431 8.47016 13.5431 10.4271C13.5431 12.384 11.9567 13.9703 9.99981 13.9703C8.04292 13.9703 6.45654 12.384 6.45654 10.4271ZM9.99981 8.18379C8.76089 8.18379 7.75654 9.18814 7.75654 10.4271C7.75654 11.666 8.76089 12.6703 9.99981 12.6703C11.2387 12.6703 12.2431 11.666 12.2431 10.4271C12.2431 9.18814 11.2387 8.18379 9.99981 8.18379Z" fill="#A7A7A7"/>
</svg>
