<svg width="20" height="20" viewBox="0 0 20 20" fill="none" xmlns="http://www.w3.org/2000/svg">
<path d="M14.4181 6.64868C14.6719 6.39484 14.6719 5.98328 14.4181 5.72944C14.1643 5.4756 13.7527 5.4756 13.4989 5.72944L6.70154 12.5268L3.86255 9.68778C3.60871 9.43394 3.19715 9.43394 2.94331 9.68778C2.68947 9.94162 2.68947 10.3532 2.94331 10.607L6.24192 13.9056C6.49576 14.1595 6.90732 14.1595 7.16116 13.9056L14.4181 6.64868Z" fill="#A7A7A7"/>
<path d="M17.0574 9.28833C17.3112 9.03449 17.3112 8.62293 17.0574 8.36909C16.8035 8.11525 16.392 8.11525 16.1381 8.36909L11.6498 12.8574L11.1199 12.3274C10.866 12.0736 10.4545 12.0736 10.2006 12.3274C9.94679 12.5813 9.94679 12.9928 10.2006 13.2467L11.1902 14.2362C11.3121 14.3581 11.4774 14.4266 11.6498 14.4266C11.8222 14.4266 11.9876 14.3581 12.1095 14.2362L17.0574 9.28833Z" fill="#A7A7A7"/>
</svg>
