<svg width="20" height="20" viewBox="0 0 20 20" fill="none" xmlns="http://www.w3.org/2000/svg">
<path fill-rule="evenodd" clip-rule="evenodd" d="M10.0001 16.6654C7.04428 16.6653 4.53779 14.7417 3.66417 12.078C3.57196 11.9658 3.5166 11.8222 3.5166 11.6656C3.5166 11.6366 3.5185 11.6081 3.52218 11.5801C3.39886 11.0732 3.3335 10.5436 3.3335 9.9987C3.3335 9.45381 3.39887 8.9242 3.52219 8.41726C3.5185 8.38924 3.5166 8.36066 3.5166 8.33164C3.5166 8.17503 3.57199 8.03136 3.66424 7.91914C4.53793 5.2556 7.04436 3.33208 10.0001 3.33203C10 3.33203 10.0001 3.33203 10.0001 3.33203C12.9562 3.33203 15.463 5.25602 16.3364 7.92007C16.4282 8.03215 16.4833 8.17546 16.4833 8.33164C16.4833 8.36024 16.4814 8.38842 16.4778 8.41604C16.6014 8.92335 16.6668 9.45338 16.6668 9.9987C16.6668 10.544 16.6014 11.074 16.4778 11.5813C16.4814 11.6089 16.4833 11.6371 16.4833 11.6656C16.4833 11.8218 16.4282 11.965 16.3365 12.0771C15.4631 14.7413 12.9562 16.6654 10.0001 16.6654C10.0001 16.6654 10 16.6654 10.0001 16.6654ZM15.3668 9.9987C15.3668 10.3464 15.3338 10.6864 15.2706 11.0156H12.6762C12.7183 10.6794 12.7433 10.34 12.7506 9.9987C12.7433 9.65733 12.7183 9.31792 12.6762 8.98164H15.2706C15.3338 9.31095 15.3668 9.65096 15.3668 9.9987ZM11.3645 8.98164C11.413 9.31749 11.4418 9.65703 11.4503 9.9987C11.4418 10.3403 11.413 10.6798 11.3645 11.0156H8.63563C8.5871 10.6798 8.55831 10.3403 8.54986 9.9987C8.55831 9.65702 8.58711 9.31749 8.63565 8.98164H11.3645ZM12.4243 7.68164H14.8422C14.1326 6.20139 12.7642 5.09703 11.1169 4.74837C11.7095 5.65434 12.1504 6.64454 12.4243 7.68164ZM8.88323 4.74842C8.29063 5.65438 7.84971 6.64456 7.57586 7.68164H5.15809C5.86767 6.20146 7.23598 5.09713 8.88323 4.74842ZM8.92755 7.68164C9.17264 6.88376 9.53313 6.12079 10.0001 5.41612C10.467 6.12079 10.8275 6.88376 11.0726 7.68164H8.92755ZM7.32392 8.98164H4.72974C4.66657 9.31095 4.6335 9.65096 4.6335 9.9987C4.6335 10.3464 4.66656 10.6864 4.72971 11.0156H7.3239C7.2818 10.6794 7.25685 10.34 7.24951 9.9987C7.25685 9.65733 7.28181 9.31792 7.32392 8.98164ZM7.57582 12.3156H5.15802C5.86759 13.7959 7.23593 14.9003 8.88323 15.249C8.29061 14.343 7.84967 13.3528 7.57582 12.3156ZM11.1169 15.249C11.7095 14.343 12.1504 13.3528 12.4243 12.3156H14.8423C14.1327 13.7959 12.7643 14.9004 11.1169 15.249ZM11.0726 12.3156H8.92751C9.1726 13.1136 9.5331 13.8766 10.0001 14.5813C10.467 13.8766 10.8275 13.1136 11.0726 12.3156Z" fill="#A8ADB4"/>
</svg>
