<svg width="20" height="20" viewBox="0 0 20 20" fill="none" xmlns="http://www.w3.org/2000/svg">
<path fill-rule="evenodd" clip-rule="evenodd" d="M6.52637 9.99923C6.52637 8.08068 8.08166 6.52539 10.0002 6.52539C11.9188 6.52539 13.4741 8.08068 13.4741 9.99923C13.4741 11.9178 11.9188 13.4731 10.0002 13.4731C8.08166 13.4731 6.52637 11.9178 6.52637 9.99923ZM10.0002 7.82539C8.79963 7.82539 7.82637 8.79865 7.82637 9.99923C7.82637 11.1998 8.79963 12.1731 10.0002 12.1731C11.2008 12.1731 12.1741 11.1998 12.1741 9.99923C12.1741 8.79865 11.2008 7.82539 10.0002 7.82539Z" fill="#A8ADB4"/>
<path d="M13.3408 7.35543C13.727 7.35543 14.04 7.04239 14.04 6.65623C14.04 6.27007 13.727 5.95703 13.3408 5.95703C12.9546 5.95703 12.6416 6.27007 12.6416 6.65623C12.6416 7.04239 12.9546 7.35543 13.3408 7.35543Z" fill="#A8ADB4"/>
<path fill-rule="evenodd" clip-rule="evenodd" d="M3.646 6.81407C3.646 5.07437 5.0563 3.66406 6.796 3.66406H13.1672C14.9069 3.66406 16.3172 5.07436 16.3172 6.81406V13.1853C16.3172 14.925 14.9069 16.3353 13.1672 16.3353H6.796C5.0563 16.3353 3.646 14.925 3.646 13.1853V6.81407ZM6.796 4.96406C5.77427 4.96406 4.946 5.79234 4.946 6.81407V13.1853C4.946 14.207 5.77427 15.0353 6.796 15.0353H13.1672C14.189 15.0353 15.0172 14.207 15.0172 13.1853V6.81406C15.0172 5.79234 14.189 4.96406 13.1672 4.96406H6.796Z" fill="#A8ADB4"/>
</svg>
