<svg width="20" height="20" viewBox="0 0 20 20" fill="none" xmlns="http://www.w3.org/2000/svg">
<path fill-rule="evenodd" clip-rule="evenodd" d="M10 4.58906C7.01023 4.58906 4.62275 6.93022 4.62275 9.77419C4.62275 11.3012 5.30702 12.6778 6.40566 13.6307C6.62731 13.8229 6.77701 14.1089 6.78059 14.4315C6.78443 14.7782 6.77913 15.1117 6.76983 15.4088C7.01571 15.2603 7.2939 15.0861 7.59026 14.8896C7.86089 14.7102 8.18995 14.6676 8.48714 14.7514C8.96618 14.8866 9.47371 14.9593 10 14.9593C12.9898 14.9593 15.3773 12.6182 15.3773 9.77419C15.3773 6.93022 12.9898 4.58906 10 4.58906ZM3.32275 9.77419C3.32275 6.17286 6.33229 3.28906 10 3.28906C13.6678 3.28906 16.6773 6.17286 16.6773 9.77419C16.6773 13.3755 13.6678 16.2593 10 16.2593C9.38667 16.2593 8.79158 16.1788 8.22583 16.0278C7.77022 16.327 7.35941 16.5746 7.03992 16.7591C6.2759 17.2005 5.41607 16.5779 5.45425 15.7779C5.47056 15.4364 5.48413 15.0058 5.48153 14.5491C4.15825 13.3673 3.32275 11.6673 3.32275 9.77419Z" fill="#A8ADB4"/>
<path fill-rule="evenodd" clip-rule="evenodd" d="M10.9536 9.16813L9.8915 8.08365C9.64743 7.83445 9.24523 7.83678 9.00456 8.08999C8.69218 8.41863 8.22823 8.90755 8.15332 8.99132L8.15263 8.9921C7.9258 9.24843 7.68993 9.50745 7.45284 9.76781C7.15434 10.0956 6.8539 10.4255 6.56713 10.7549C6.35674 10.9965 6.64264 11.3363 6.9157 11.1843C7.43107 10.8974 8.35527 10.3809 9.07384 9.96854C9.28757 10.1796 9.84552 10.7217 10.1978 11.0636C10.4493 11.3077 10.8534 11.2931 11.0863 11.0309C11.1697 10.9371 11.2529 10.8433 11.3359 10.7497C11.5146 10.5483 11.693 10.3472 11.873 10.1459L11.8737 10.1452C11.9677 10.0388 12.0617 9.93254 12.1557 9.82626C12.5725 9.35491 12.9889 8.88401 13.4085 8.41604C13.6151 8.18558 13.348 7.81608 13.0589 7.97868C12.4668 8.31165 11.4352 8.89251 10.9536 9.16813Z" fill="#A8ADB4"/>
</svg>
