<svg width="20" height="20" viewBox="0 0 20 20" fill="none" xmlns="http://www.w3.org/2000/svg">
<path d="M6.25684 8.11484C6.25684 7.75586 6.54785 7.46484 6.90684 7.46484H12.8111C13.1701 7.46484 13.4611 7.75586 13.4611 8.11484C13.4611 8.47383 13.1701 8.76484 12.8111 8.76484H6.90684C6.54785 8.76484 6.25684 8.47383 6.25684 8.11484Z" fill="#A7A7A7"/>
<path d="M6.90684 9.71484C6.54785 9.71484 6.25684 10.0059 6.25684 10.3648C6.25684 10.7238 6.54785 11.0148 6.90684 11.0148H11.4053C11.7643 11.0148 12.0553 10.7238 12.0553 10.3648C12.0553 10.0059 11.7643 9.71484 11.4053 9.71484H6.90684Z" fill="#A7A7A7"/>
<path fill-rule="evenodd" clip-rule="evenodd" d="M9.03037 14.9892L7.59521 16.4244C6.71874 17.3009 5.2201 16.6801 5.2201 15.4406V14.5617C4.22134 14.0747 3.5332 13.0495 3.5332 11.8635V7.17969C3.5332 5.52284 4.87635 4.17969 6.5332 4.17969H13.4663C15.1231 4.17969 16.4663 5.52283 16.4663 7.17969V11.8635C16.4663 13.5204 15.1231 14.8635 13.4663 14.8635H9.14271C9.10842 14.9066 9.071 14.9486 9.03037 14.9892ZM6.5201 13.7492V15.4406C6.5201 15.4633 6.52333 15.4753 6.52477 15.4798C6.52632 15.4846 6.52815 15.4882 6.53061 15.4917C6.53633 15.4998 6.55077 15.5143 6.57647 15.525C6.60216 15.5356 6.62267 15.5355 6.63244 15.5338C6.63665 15.5331 6.64043 15.5319 6.64496 15.5296C6.64916 15.5274 6.65991 15.5212 6.67598 15.5052L8.11112 14.07C8.11737 14.0638 8.12199 14.0584 8.12536 14.0542L8.5157 13.5635H13.4663C14.4052 13.5635 15.1663 12.8024 15.1663 11.8635V7.17969C15.1663 6.2408 14.4052 5.47969 13.4663 5.47969H6.5332C5.59432 5.47969 4.8332 6.24081 4.8332 7.17969V11.8635C4.8332 12.5336 5.22078 13.1157 5.78984 13.3932L6.5201 13.7492Z" fill="#A7A7A7"/>
</svg>
