<svg width="20" height="20" viewBox="0 0 20 20" fill="none" xmlns="http://www.w3.org/2000/svg">
<path fill-rule="evenodd" clip-rule="evenodd" d="M3.1084 9.75837C3.1084 6.47728 6.35539 4.04297 10.0509 4.04297C13.7464 4.04297 16.9934 6.47728 16.9934 9.75837C16.9934 13.0395 13.7464 15.4738 10.0509 15.4738C9.52236 15.4738 9.00686 15.4253 8.51088 15.3331C7.47843 15.9123 6.47389 16.3734 5.79413 16.6656C4.90368 17.0484 4.11713 16.1479 4.40693 15.3405C4.57936 14.86 4.7828 14.2375 4.92872 13.621C3.81696 12.6221 3.1084 11.2708 3.1084 9.75837ZM10.0509 5.34297C6.79588 5.34297 4.4084 7.44437 4.4084 9.75837C4.4084 10.8779 4.94682 11.9259 5.88458 12.7304C6.15991 12.9666 6.32115 13.3508 6.23241 13.7518C6.11839 14.267 5.96611 14.7838 5.81817 15.234C6.43136 14.956 7.18656 14.5891 7.94899 14.1575C8.17298 14.0307 8.43141 13.9929 8.67542 14.041C9.11497 14.1276 9.57563 14.1738 10.0509 14.1738C13.3059 14.1738 15.6934 12.0724 15.6934 9.75837C15.6934 7.44437 13.3059 5.34297 10.0509 5.34297Z" fill="#A7A7A7"/>
</svg>
