<svg width="20" height="20" viewBox="0 0 20 20" fill="none" xmlns="http://www.w3.org/2000/svg">
<path fill-rule="evenodd" clip-rule="evenodd" d="M14.6259 8.33224C14.6259 6.76096 13.4859 4.59373 11.1919 4.02439C11.1404 3.41125 10.6264 2.92969 9.99992 2.92969C9.37855 2.92969 8.86784 3.40346 8.8093 4.00947C6.47227 4.55379 5.31143 6.74669 5.31143 8.33224C5.31143 9.10546 5.31528 9.76741 5.31913 10.324L5.32132 10.6346C5.32424 11.0413 5.32667 11.3812 5.32679 11.6607C5.32287 11.6713 5.31122 11.6995 5.28042 11.7472C5.22394 11.8348 5.13254 11.9424 5.00859 12.0629C4.76142 12.3034 4.45248 12.531 4.23308 12.681C3.90732 12.9037 3.68848 13.2787 3.68848 13.7014C3.68848 14.3682 4.22903 14.9088 4.89584 14.9088H15.0406C15.7075 14.9088 16.2481 14.3682 16.2481 13.7013C16.2481 13.2787 16.0294 12.9039 15.7039 12.6811C15.4847 12.5311 15.1761 12.3035 14.9292 12.0631C14.8054 11.9426 14.7141 11.8351 14.6577 11.7475C14.6269 11.6996 14.6153 11.6713 14.6114 11.6608C14.6115 11.3817 14.6138 11.0423 14.6165 10.6365L14.6186 10.3237C14.6223 9.76721 14.6259 9.10534 14.6259 8.33224ZM9.30698 5.23454L9.28791 5.23817C7.51897 5.54794 6.61143 7.1958 6.61143 8.33224C6.61143 9.10111 6.61526 9.75967 6.61909 10.315L6.62127 10.6229C6.62426 11.0399 6.62679 11.3926 6.62679 11.6808C6.62679 11.9919 6.49683 12.2597 6.37299 12.4517C6.24358 12.6524 6.07749 12.8368 5.91505 12.9948C5.6714 13.2318 5.3976 13.4462 5.17332 13.6088H14.7637C14.5395 13.4462 14.2658 13.2316 14.0223 12.9945C13.86 12.8365 13.6941 12.6521 13.5648 12.4514C13.4411 12.2594 13.3114 11.9917 13.3114 11.6808C13.3114 11.3927 13.3137 11.0403 13.3166 10.6233L13.3186 10.3152C13.3223 9.75987 13.3259 9.10122 13.3259 8.33224C13.3259 7.19443 12.4163 5.5445 10.6439 5.23671L10.6265 5.23345L10.6169 5.23162C10.6085 5.23002 10.5949 5.22752 10.5769 5.22441C10.5409 5.21817 10.4878 5.20959 10.4234 5.20096C10.292 5.18334 10.1257 5.16717 9.96551 5.16719C9.80606 5.16721 9.64024 5.18365 9.50911 5.20158C9.4449 5.21035 9.39198 5.21908 9.35604 5.22542C9.33813 5.22858 9.3246 5.23112 9.31619 5.23274L9.30698 5.23454Z" fill="#A7A7A7"/>
<path d="M8.8781 15.3905C8.6824 15.0895 8.27978 15.0042 7.97883 15.1999C7.67788 15.3956 7.59256 15.7982 7.78826 16.0992C8.02095 16.457 8.35389 16.742 8.74101 16.9356C9.12802 17.1291 9.5624 17.2281 9.99985 17.2281C10.4373 17.2281 10.8717 17.1291 11.2587 16.9356C11.6458 16.742 11.9788 16.457 12.2114 16.0992C12.4071 15.7982 12.3218 15.3956 12.0209 15.1999C11.7199 15.0042 11.3173 15.0895 11.1216 15.3905C11.0261 15.5373 10.8765 15.6732 10.6773 15.7728C10.478 15.8725 10.2436 15.9281 9.99985 15.9281C9.75608 15.9281 9.52174 15.8725 9.32239 15.7728C9.12315 15.6732 8.97362 15.5373 8.8781 15.3905Z" fill="#A7A7A7"/>
</svg>
