<svg width="20" height="20" viewBox="0 0 20 20" fill="none" xmlns="http://www.w3.org/2000/svg">
<path d="M8.79301 7.12743C9.04698 6.87371 9.04719 6.46216 8.79347 6.20819C8.53976 5.95422 8.1282 5.95402 7.87424 6.20773L6.62424 7.45648C6.37027 7.71019 6.37006 8.12175 6.62378 8.37572L7.87378 9.62697C8.12749 9.88094 8.53905 9.88114 8.79301 9.62743C9.04698 9.37371 9.04719 8.96216 8.79347 8.70819L8.65301 8.56758L12.5001 8.56758C12.8591 8.56758 13.1501 8.27656 13.1501 7.91758C13.1501 7.55859 12.8591 7.26758 12.5001 7.26758L8.65272 7.26758L8.79301 7.12743Z" fill="#A7A7A7"/>
<path d="M12.127 10.3742C11.8733 10.1202 11.4617 10.12 11.2077 10.3737C10.9538 10.6275 10.9536 11.039 11.2073 11.293L11.3477 11.4336L7.50013 11.4336C7.14114 11.4336 6.85013 11.7246 6.85013 12.0836C6.85013 12.4426 7.14114 12.7336 7.50013 12.7336H11.348L11.2077 12.8737C10.9538 13.1275 10.9536 13.539 11.2073 13.793C11.461 14.047 11.8725 14.0472 12.1265 13.7934L13.3765 12.5447C13.4985 12.4229 13.567 12.2576 13.5671 12.0852C13.5672 11.9128 13.4988 11.7474 13.377 11.6255L12.127 10.3742Z" fill="#A7A7A7"/>
<path fill-rule="evenodd" clip-rule="evenodd" d="M10.0003 2.68359C14.0398 2.68359 17.3169 5.96184 17.3169 10.0091C17.3169 11.2406 17.0085 12.408 16.4643 13.4278L16.4646 13.4372C16.4674 13.5041 16.4816 13.6061 16.512 13.7468C16.5729 14.0278 16.6784 14.3732 16.7947 14.743L16.8321 14.8615C16.9328 15.1807 17.0384 15.5152 17.1057 15.7907C17.1431 15.9439 17.1773 16.1119 17.1868 16.2669C17.1915 16.3442 17.192 16.4447 17.1717 16.5513C17.1525 16.6524 17.1029 16.8213 16.9577 16.9665C16.7183 17.2059 16.4095 17.2201 16.2663 17.2175C16.0937 17.2144 15.9144 17.1792 15.7569 17.1401C15.4611 17.0665 15.1094 16.9436 14.7859 16.8306L14.7161 16.8062C14.3545 16.68 14.0248 16.5674 13.7529 16.5034C13.6175 16.4715 13.5211 16.4579 13.4586 16.4557L13.4445 16.4554C12.4203 17.0053 11.2467 17.3169 10.0003 17.3169C5.96127 17.3169 2.68359 14.0392 2.68359 10.0003C2.68359 5.96128 5.96127 2.68359 10.0003 2.68359ZM16.0169 10.0091C16.0169 6.67868 13.3207 3.98359 10.0003 3.98359C6.67924 3.98359 3.98359 6.67925 3.98359 10.0003C3.98359 13.3213 6.67924 16.0169 10.0003 16.0169C11.0442 16.0169 12.0214 15.7523 12.8697 15.2883C13.0942 15.1648 13.3342 15.1505 13.5041 15.1565C13.6863 15.1629 13.8751 15.1966 14.0507 15.238C14.4007 15.3204 14.7961 15.4572 15.1444 15.5788L15.1884 15.5941C15.3973 15.667 15.5879 15.7336 15.7576 15.7878C15.7096 15.6248 15.6526 15.444 15.5913 15.2493L15.5547 15.1331C15.441 14.7717 15.317 14.3705 15.2415 14.0221C15.2038 13.848 15.173 13.6646 15.1658 13.492C15.1593 13.3401 15.165 13.097 15.2867 12.8726L15.2878 12.8705C15.7523 12.0216 16.0169 11.0441 16.0169 10.0091Z" fill="#A7A7A7"/>
</svg>
