<svg width="20" height="20" viewBox="0 0 20 20" fill="none" xmlns="http://www.w3.org/2000/svg">
<path fill-rule="evenodd" clip-rule="evenodd" d="M8.22581 4.02493C8.19649 4.04432 8.16916 4.06578 8.14391 4.08901C6.9947 4.94104 6.61455 6.50382 6.93039 7.85265C7.09072 8.53295 7.42348 9.15849 7.91483 9.62122C7.19564 9.79284 6.49366 10.0734 5.86794 10.5053C4.60203 11.3791 3.7315 12.8152 3.60704 14.9699C3.60632 14.9824 3.60596 14.9949 3.60596 15.0074V15.028C3.60596 15.6632 4.12083 16.178 4.75596 16.178H15.2455C15.8806 16.178 16.3955 15.6632 16.3955 15.028V15.0074C16.3955 14.9949 16.3951 14.9824 16.3944 14.9699C16.27 12.8159 15.4022 11.3797 14.1384 10.5056C13.5094 10.0706 12.803 9.78904 12.0793 9.61772C12.1693 9.53266 12.2541 9.44199 12.3336 9.34628C12.8835 8.69606 13.1686 7.82807 13.1877 6.969C13.2068 6.10944 12.9605 5.23903 12.4297 4.58573L12.4276 4.58313C11.892 3.93093 11.0847 3.50391 9.99747 3.50391C9.69205 3.50391 9.34947 3.56333 9.03034 3.66272C8.70419 3.76181 8.42521 3.89307 8.22581 4.02493ZM9.41521 4.90445C9.63445 4.83598 9.8463 4.80391 9.99747 4.80391C10.7064 4.80391 11.1405 5.06492 11.4218 5.40685C11.7235 5.7789 11.9016 6.33119 11.888 6.9401C11.8745 7.54899 11.6703 8.11831 11.3396 8.50847L11.3348 8.51409C11.0297 8.88236 10.5985 9.1205 9.99747 9.1205C9.0589 9.1205 8.42125 8.51073 8.19604 7.55579C7.96373 6.56292 8.29422 5.56424 8.96251 5.10152C8.97361 5.09384 8.9844 5.08586 8.99489 5.07759C9.08301 5.02753 9.22431 4.96233 9.41 4.90605L9.41521 4.90445ZM15.0851 14.878H4.91637C5.05286 13.1778 5.73571 12.1762 6.60642 11.5752C7.53766 10.9324 8.76813 10.6906 10.0051 10.6906C11.2421 10.6906 12.4701 10.9324 13.3989 11.5748C14.2674 12.1755 14.9487 13.1771 15.0851 14.878Z" fill="#A7A7A7"/>
</svg>
