<svg width="20" height="20" viewBox="0 0 20 20" fill="none" xmlns="http://www.w3.org/2000/svg">
<path d="M9.05225 10.3792C9.05225 10.8151 8.69886 11.1685 8.26294 11.1685C7.82702 11.1685 7.47363 10.8151 7.47363 10.3792C7.47363 9.94323 7.82702 9.58984 8.26294 9.58984C8.69886 9.58984 9.05225 9.94323 9.05225 10.3792Z" fill="#A7A7A7"/>
<path d="M11.6707 11.1685C12.1066 11.1685 12.46 10.8151 12.46 10.3792C12.46 9.94323 12.1066 9.58984 11.6707 9.58984C11.2347 9.58984 10.8813 9.94323 10.8813 10.3792C10.8813 10.8151 11.2347 11.1685 11.6707 11.1685Z" fill="#A7A7A7"/>
<path fill-rule="evenodd" clip-rule="evenodd" d="M10.0592 7.66602C8.80171 7.66602 7.63211 7.98011 6.75588 8.52182C5.88991 9.05719 5.2207 9.88197 5.2207 10.905C5.2207 11.4241 5.40199 11.8732 5.79597 12.1857C6.14987 12.4665 6.60199 12.5756 7.02002 12.6259C7.44899 12.6775 7.94103 12.677 8.44263 12.6665C8.60496 12.6632 8.76841 12.6587 8.9339 12.6543C9.29611 12.6445 9.66813 12.6344 10.0592 12.6344C10.4515 12.6344 10.8246 12.6445 11.1878 12.6544C11.3527 12.6589 11.5156 12.6633 11.6773 12.6667C12.1792 12.6773 12.6715 12.6779 13.1006 12.6264C13.5188 12.5761 13.9711 12.4671 14.3251 12.1862C14.7193 11.8735 14.9004 11.4242 14.9004 10.905C14.9004 9.88108 14.2302 9.05631 13.3636 8.5212C12.4868 7.97975 11.3166 7.66602 10.0592 7.66602ZM6.5207 10.905C6.5207 10.4992 6.78938 10.0295 7.43949 9.62757C8.07934 9.23199 9.004 8.96602 10.0592 8.96602C11.1146 8.96602 12.04 9.23177 12.6806 9.62731C13.3314 10.0292 13.6004 10.499 13.6004 10.905C13.6004 11.1009 13.5471 11.144 13.5172 11.1678C13.4471 11.2234 13.2858 11.2948 12.9456 11.3356C12.6164 11.3752 12.2056 11.3775 11.7046 11.367C11.5585 11.3639 11.4044 11.3597 11.2444 11.3554C10.8732 11.3453 10.4696 11.3344 10.0592 11.3344C9.65019 11.3344 9.24793 11.3453 8.8776 11.3553C8.71688 11.3596 8.56217 11.3638 8.41554 11.3668C7.91496 11.3773 7.50442 11.3748 7.17535 11.3352C6.83534 11.2943 6.67397 11.2229 6.60389 11.1673C6.57388 11.1435 6.5207 11.1004 6.5207 10.905Z" fill="#A7A7A7"/>
<path fill-rule="evenodd" clip-rule="evenodd" d="M13.9434 4.20252C14.0892 3.87449 14.4734 3.72679 14.8014 3.87262C15.1294 4.01844 15.2771 4.40258 15.1313 4.73061L14.2641 6.68134C15.738 7.95028 16.9699 9.98175 17.0154 12.4893C17.0333 13.4765 16.8589 14.2644 16.414 14.8343C15.9564 15.4204 15.3064 15.658 14.6456 15.7451C13.999 15.8303 13.2555 15.7823 12.516 15.723C12.4029 15.714 12.2894 15.7046 12.1752 15.6951C11.5197 15.6409 10.8456 15.5851 10.1465 15.5824C9.44409 15.5798 8.76535 15.6254 8.10545 15.6698C7.97402 15.6786 7.84334 15.6874 7.71337 15.6957C6.95236 15.7446 6.19329 15.7804 5.53363 15.6893C4.86472 15.597 4.20578 15.3623 3.7367 14.7927C3.27395 14.2308 3.08916 13.4555 3.10659 12.4894C3.15006 10.0797 4.10541 8.03366 5.85256 6.64272L4.88831 4.88456C4.71569 4.56981 4.83091 4.17471 5.14566 4.00208C5.46042 3.82946 5.85552 3.94468 6.02814 4.25943L6.9395 5.92115C7.76152 5.4852 8.87351 5.2112 10.017 5.1942C11.0643 5.17863 12.1909 5.37807 13.1812 5.91693L13.9434 4.20252ZM10.0363 6.49406C9.00409 6.5094 8.05187 6.77495 7.44312 7.12812C5.52354 8.24177 4.4495 10.1227 4.40638 12.5128C4.39173 13.3249 4.55458 13.7409 4.74018 13.9662C4.91946 14.1839 5.20958 14.3323 5.71143 14.4016C6.22253 14.4721 6.85592 14.4481 7.63007 14.3984C7.75249 14.3906 7.878 14.3821 8.00624 14.3734C8.66634 14.3289 9.39852 14.2796 10.1514 14.2824C10.9062 14.2853 11.6373 14.346 12.2914 14.4002C12.4032 14.4095 12.5128 14.4186 12.6199 14.4272C13.376 14.4878 13.9861 14.5208 14.4757 14.4562C14.9513 14.3936 15.2203 14.2507 15.3893 14.0342C15.5711 13.8014 15.731 13.3644 15.7156 12.5129C15.6727 10.1484 14.3552 8.2779 12.9124 7.27593C12.1011 6.71253 11.0646 6.47877 10.0363 6.49406Z" fill="#A7A7A7"/>
</svg>
