<svg width="20" height="20" viewBox="0 0 20 20" fill="none" xmlns="http://www.w3.org/2000/svg">
<path fill-rule="evenodd" clip-rule="evenodd" d="M9.28281 4.42386C10.3115 3.71994 11.7081 4.45656 11.7081 5.70305V14.3151C11.7081 15.5552 10.3243 16.2932 9.29451 15.6023L6.10546 13.4625C5.47784 13.463 4.9303 13.4628 4.3545 13.4626L4.20996 13.4625C3.35423 13.4622 2.66015 12.7684 2.66016 11.9123L2.66018 8.15048C2.66019 7.29434 3.35426 6.60062 4.20998 6.60026L4.35351 6.6002C4.92862 6.59995 5.47565 6.59971 6.10223 6.60028L9.28281 4.42386ZM10.4081 5.70305C10.4081 5.502 10.1829 5.38319 10.0169 5.49673L6.6701 7.78692C6.56177 7.86105 6.43354 7.90064 6.30228 7.90049C5.59068 7.89966 4.99033 7.89992 4.35443 7.9002L4.21053 7.90026C4.07214 7.90032 3.96018 8.01252 3.96018 8.15049L3.96016 11.9123C3.96016 12.0503 4.07211 12.1624 4.21049 12.1625L4.35338 12.1626C4.98966 12.1628 5.5903 12.1631 6.3023 12.1623C6.43154 12.1621 6.55788 12.2005 6.66519 12.2725L10.0188 14.5227C10.1849 14.6342 10.4081 14.5152 10.4081 14.3151V5.70305Z" fill="#A7A7A7"/>
<path d="M12.6816 7.90913C12.9354 7.65529 13.347 7.65529 13.6008 7.90913L14.8079 9.11618L16.0149 7.90913C16.2688 7.65529 16.6803 7.65529 16.9342 7.90913C17.188 8.16297 17.188 8.57453 16.9342 8.82837L15.7271 10.0354L16.9342 11.2425C17.188 11.4963 17.188 11.9079 16.9342 12.1617C16.6803 12.4155 16.2688 12.4155 16.0149 12.1617L14.8079 10.9547L13.6008 12.1617C13.347 12.4155 12.9354 12.4155 12.6816 12.1617C12.4278 11.9079 12.4278 11.4963 12.6816 11.2425L13.8886 10.0354L12.6816 8.82837C12.4278 8.57453 12.4278 8.16297 12.6816 7.90913Z" fill="#A7A7A7"/>
</svg>
