<svg width="20" height="20" viewBox="0 0 20 20" fill="none" xmlns="http://www.w3.org/2000/svg">
<path fill-rule="evenodd" clip-rule="evenodd" d="M10.0002 15.3654C12.9641 15.3654 15.3668 12.9626 15.3668 9.9987C15.3668 7.03477 12.9641 4.63203 10.0002 4.63203C7.03623 4.63203 4.6335 7.03477 4.6335 9.9987C4.6335 12.9626 7.03623 15.3654 10.0002 15.3654ZM10.0002 16.6654C13.6821 16.6654 16.6668 13.6806 16.6668 9.9987C16.6668 6.3168 13.6821 3.33203 10.0002 3.33203C6.31826 3.33203 3.3335 6.3168 3.3335 9.9987C3.3335 13.6806 6.31826 16.6654 10.0002 16.6654Z" fill="#A7A7A7"/>
<path fill-rule="evenodd" clip-rule="evenodd" d="M14.3795 6.13609C14.6333 6.38993 14.6333 6.80149 14.3795 7.05533L6.54018 14.8945C6.28634 15.1483 5.87478 15.1483 5.62094 14.8945C5.3671 14.6407 5.36711 14.2291 5.62095 13.9753L13.4603 6.13608C13.7141 5.88224 14.1257 5.88224 14.3795 6.13609Z" fill="#A7A7A7"/>
</svg>
