<svg width="20" height="20" viewBox="0 0 20 20" fill="none" xmlns="http://www.w3.org/2000/svg">
<path d="M8.63535 1.84375C8.27637 1.84375 7.98535 2.13476 7.98535 2.49375C7.98535 2.85274 8.27637 3.14375 8.63535 3.14375H11.3641C11.7231 3.14375 12.0141 2.85274 12.0141 2.49375C12.0141 2.13476 11.7231 1.84375 11.3641 1.84375H8.63535Z" fill="#A8ADB4"/>
<path d="M10.5559 6.87266C10.5559 6.51367 10.2648 6.22266 9.90586 6.22266C9.54687 6.22266 9.25586 6.51367 9.25586 6.87266V10.2922C9.25586 10.4646 9.32434 10.6299 9.44624 10.7518C9.56814 10.8737 9.73347 10.9422 9.90586 10.9422L12.7834 10.9422C13.1423 10.9422 13.4334 10.6511 13.4334 10.2922C13.4333 9.93317 13.1423 9.64216 12.7833 9.64216L10.5559 9.64217V6.87266Z" fill="#A8ADB4"/>
<path d="M16.3428 8.53956C16.4856 9.07781 16.5617 9.64322 16.5617 10.2264C16.5617 13.8507 13.6236 16.7887 9.99934 16.7887C6.37507 16.7887 3.43701 13.8507 3.43701 10.2264C3.43701 6.60212 6.37507 3.66406 9.99934 3.66406C10.7936 3.66406 11.5549 3.80516 12.2595 4.06366C12.0707 4.44944 11.9559 4.87804 11.9337 5.33096C11.3349 5.09417 10.6823 4.96406 9.99934 4.96406C7.09304 4.96406 4.73701 7.32009 4.73701 10.2264C4.73701 13.1327 7.09304 15.4887 9.99934 15.4887C12.9056 15.4887 15.2617 13.1327 15.2617 10.2264C15.2617 9.71307 15.1882 9.21691 15.0511 8.74787C15.0961 8.74972 15.1414 8.75065 15.1868 8.75065C15.5939 8.75065 15.9836 8.67597 16.3428 8.53956Z" fill="#A8ADB4"/>
<path fill-rule="evenodd" clip-rule="evenodd" d="M17.3989 5.49388C17.3989 6.71534 16.4087 7.70553 15.1872 7.70553C13.9658 7.70553 12.9756 6.71534 12.9756 5.49388C12.9756 4.27242 13.9658 3.28223 15.1872 3.28223C16.4087 3.28223 17.3989 4.27242 17.3989 5.49388ZM16.0989 5.49388C16.0989 5.99737 15.6907 6.40553 15.1872 6.40553C14.6837 6.40553 14.2756 5.99737 14.2756 5.49388C14.2756 4.99039 14.6837 4.58223 15.1872 4.58223C15.6907 4.58223 16.0989 4.99039 16.0989 5.49388Z" fill="#A8ADB4"/>
</svg>
