<svg width="20" height="20" viewBox="0 0 20 20" fill="none" xmlns="http://www.w3.org/2000/svg">
<path d="M7.93104 10.1912L5.59458 7.85469H11.764C13.7208 7.85469 15.3071 9.441 15.3071 11.3978C15.3071 13.3546 13.7208 14.9409 11.764 14.9409H9.74607C9.38709 14.9409 9.09607 15.232 9.09607 15.5909C9.09607 15.9499 9.38709 16.2409 9.74607 16.2409H11.764C14.4387 16.2409 16.6071 14.0726 16.6071 11.3978C16.6071 8.72303 14.4387 6.55469 11.764 6.55469H5.59502L7.95025 4.19946C8.20409 3.94562 8.20409 3.53407 7.95025 3.28022C7.69641 3.02638 7.28485 3.02638 7.03101 3.28022L3.56636 6.74488C3.43933 6.8719 3.37587 7.03842 3.37598 7.2049C3.37587 7.37139 3.43933 7.53791 3.56635 7.66493L7.01179 11.1104C7.26563 11.3642 7.67719 11.3642 7.93103 11.1104C8.18487 10.8566 8.18488 10.445 7.93104 10.1912Z" fill="#A7A7A7"/>
</svg>
