<svg width="20" height="20" viewBox="0 0 20 20" fill="none" xmlns="http://www.w3.org/2000/svg">
<path d="M11.3491 5.68512C11.0926 5.58282 10.8017 5.70783 10.6994 5.96432C10.5971 6.22082 10.7221 6.51167 10.9786 6.61397C11.8805 6.97366 12.3916 7.54941 12.7695 8.41367C12.8802 8.66668 13.1749 8.78209 13.428 8.67145C13.681 8.56081 13.7964 8.26602 13.6857 8.01301C13.2218 6.95216 12.5368 6.15883 11.3491 5.68512Z" fill="#A8ADB4"/>
<path d="M10.8422 7.02692C10.5857 6.92462 10.2949 7.04962 10.1926 7.30612C10.0903 7.56261 10.2153 7.85347 10.4718 7.95577C10.9293 8.13826 11.1861 8.42291 11.3851 8.87785C11.4957 9.13086 11.7905 9.24627 12.0435 9.13563C12.2965 9.025 12.4119 8.7302 12.3013 8.47719C12.0164 7.82566 11.5857 7.32343 10.8422 7.02692Z" fill="#A8ADB4"/>
<path d="M8.00794 11.1043C6.88488 9.95826 6.49852 8.99476 6.5 8.22405C6.50151 7.44309 6.90107 6.90483 7.24139 6.62051C7.45245 6.44419 7.73856 6.48631 7.92408 6.63563C7.93117 6.64134 7.93785 6.64752 7.9441 6.65413C8.33241 7.06537 8.67989 7.44756 8.84414 7.62944C8.92116 7.71474 9.00497 7.83197 9.03249 7.98167C9.04003 8.02267 9.04622 8.07275 9.04432 8.12457C9.04249 8.17427 9.03271 8.24232 8.99406 8.30625C8.89673 8.46728 8.71928 8.6992 8.41957 8.91076C8.40152 8.9235 8.39185 8.93237 8.38692 8.93801C8.38543 8.94457 8.38418 8.95164 8.38321 8.95922C8.37717 9.00598 8.38145 9.07212 8.40443 9.1584C8.43152 9.26008 8.48004 9.3754 8.54465 9.49569C8.67424 9.73696 8.85658 9.97631 9.01574 10.1355L9.05766 10.1774C9.20044 10.3202 9.40859 10.4824 9.62554 10.6083C9.84875 10.7378 10.0518 10.8116 10.1906 10.8127C10.2169 10.8129 10.2485 10.8022 10.2772 10.7772C10.2793 10.7753 10.2824 10.7724 10.2824 10.7724L10.2847 10.7702C10.4957 10.4725 10.7264 10.296 10.8869 10.1991C11.0696 10.0886 11.2856 10.1218 11.4394 10.2381C11.4451 10.2424 11.4505 10.247 11.4557 10.2519C11.6918 10.4738 12.0157 10.7794 12.5584 11.2947C12.5649 11.3008 12.5709 11.3074 12.5765 11.3143C12.7258 11.4999 12.7679 11.786 12.5916 11.997C11.2965 13.5472 9.19272 12.2672 8.08875 11.1851C8.0852 11.182 8.08173 11.1788 8.07835 11.1754L8.01769 11.1148C8.01535 11.1124 8.01307 11.11 8.01086 11.1076L8.00794 11.1043Z" fill="#A8ADB4"/>
<path fill-rule="evenodd" clip-rule="evenodd" d="M10.0296 3.17985C10.0199 3.17963 10.0101 3.17963 10.0003 3.17985L7.7484 3.23058C5.22172 3.28751 3.20312 5.35208 3.20312 7.8794V11.0528C3.20312 12.9922 4.41159 14.648 6.11578 15.3105V16.218C6.11578 17.2877 7.41609 17.8157 8.16183 17.0487L9.55148 15.6195H12.2308C14.7529 15.6195 16.7975 13.5749 16.7975 11.0528V7.87898C16.7975 5.35186 14.7792 3.28736 12.2527 3.23017L10.0296 3.17985ZM7.77767 4.53025L10.0149 4.47985L12.2233 4.52984C14.0434 4.57104 15.4975 6.05837 15.4975 7.87898V11.0528C15.4975 12.857 14.0349 14.3195 12.2308 14.3195H9.27688C9.10133 14.3195 8.93324 14.3905 8.81086 14.5164L7.41578 15.9512V14.8396C7.41578 14.5446 7.21714 14.2866 6.93196 14.2112C5.53335 13.8414 4.50312 12.5666 4.50312 11.0528V7.8794C4.50312 6.05865 5.95738 4.57126 7.77767 4.53025Z" fill="#A8ADB4"/>
</svg>
