<svg width="82" height="82" viewBox="0 0 82 82" fill="none" xmlns="http://www.w3.org/2000/svg">
<path d="M38.5861 11.4283C41.4086 10 44.8258 10.2624 47.5505 12.0798L64.4292 23.3304C66.8565 24.9481 68.3337 27.7924 68.3337 30.8105V50.6202C68.3337 53.6383 66.8565 56.514 64.4292 58.1855L47.5505 69.8062C44.8258 71.6827 41.4086 72.0215 38.5861 70.6541L18.8642 61.1046C15.6653 59.5564 13.667 56.4167 13.667 52.8895V29.7402C13.667 26.213 15.6653 23.0298 18.8642 21.4104L38.5861 11.4265V11.4283Z" fill="#19CC45" fill-opacity="0.78"/>
<path d="M38.8115 11.8741C41.381 10.5739 44.4886 10.7591 47.0293 12.339L47.2734 12.4962L64.1514 23.7462H64.1523C66.4336 25.2666 67.834 27.9515 67.834 30.8107V50.6202C67.834 53.3906 66.5189 56.0292 64.3574 57.6232L64.1455 57.7736L47.2666 69.3947C44.7583 71.122 41.6521 71.4658 39.0537 70.3195L38.8037 70.2042L19.082 60.6544C16.0524 59.1882 14.1671 56.2214 14.167 52.8898V29.7404C14.167 26.5117 15.9379 23.5823 18.8086 22.005L19.0898 21.8566L38.0859 12.2394V12.2413L38.8115 11.8741Z" stroke="white" stroke-opacity="0.18"/>
<path fill-rule="evenodd" clip-rule="evenodd" d="M34.6541 35.7695C34.1786 33.4475 34.2923 30.8211 35.1314 28.5096C35.1143 28.509 35.0973 28.5082 35.0802 28.5074C35.0462 28.5058 35.0121 28.5043 34.978 28.5043C33.9722 28.4796 32.7258 28.9388 32.0743 29.4437C28.0966 32.5204 29.4263 41.4533 34.978 41.3882C35.317 41.3847 35.639 41.346 35.944 41.2774C35.7167 40.3626 34.9742 37.3334 34.6541 35.7695ZM32.6516 44.4843C32.8012 44.2944 32.9452 44.1096 33.0834 43.932C29.8767 44.4773 26.8366 46.4212 26.6074 51.403L28.8235 51.3978C29.4689 48.5415 31.2811 46.2314 32.6483 44.4885L32.6516 44.4843ZM50.7826 28.8842C57.0597 29.1797 56.5313 41.1331 50.6652 41.2017C50.3526 41.2052 50.0534 41.1753 49.7693 41.1173C49.8347 40.7747 49.989 40.1893 50.177 39.476L50.2011 39.3845L50.2075 39.3605C50.694 37.5145 51.387 34.8849 51.4209 33.3208C51.4531 31.8413 51.2524 30.3126 50.7826 28.8842ZM52.4558 44.0884C53.7318 45.757 55.4117 47.9537 55.8808 50.7592V50.7574H57.5457C57.8052 50.7469 58.0173 50.49 58.0041 50.1857C57.8052 45.4395 54.9905 43.8247 52.0243 43.5221C52.1209 43.651 52.2224 43.7835 52.3266 43.9196C52.3675 43.973 52.4089 44.027 52.4505 44.0815L52.4558 44.0884Z" fill="white" fill-opacity="0.4"/>
<path fill-rule="evenodd" clip-rule="evenodd" d="M39.3616 26.0572C34.2266 29.9871 35.9484 41.5447 43.0892 41.4567C51.2964 41.3564 51.9878 25.1952 43.0892 24.8856C41.8012 24.8416 40.2007 25.4151 39.3616 26.0572ZM43.0084 44.1113C48.2608 44.0058 53.928 45.8634 53.928 53.7444L31.3652 54.8438C31.3652 46.4422 37.595 44.2186 43.0084 44.1113Z" fill="white" fill-opacity="0.9"/>
</svg>
