<svg width="38" height="38" viewBox="0 0 38 38" fill="none" xmlns="http://www.w3.org/2000/svg">
<path d="M9.99367 35.8337L16.5384 31.0988C16.6626 31.0089 16.7047 30.8428 16.6291 30.7095C15.3111 28.3836 10.4451 23.6892 8.25881 23.3511C8.20929 23.3435 8.16146 23.3567 8.12009 23.385L2.36594 27.3166C1.72553 27.7542 1.63075 28.6618 2.16695 29.2223L8.34963 35.6844C8.78343 36.1378 9.48527 36.2016 9.99367 35.8337Z" fill="#62A9F3"/>
<path d="M9.99367 35.8337L16.5384 31.0988C16.6626 31.0089 16.7047 30.8428 16.6291 30.7095C15.3111 28.3836 10.4451 23.6892 8.25881 23.3511C8.20929 23.3435 8.16146 23.3567 8.12009 23.385L2.36594 27.3166C1.72553 27.7542 1.63075 28.6618 2.16695 29.2223L8.34963 35.6844C8.78343 36.1378 9.48527 36.2016 9.99367 35.8337Z" fill="url(#paint0_radial_5652_33813)"/>
<path d="M13.2607 12.5738C11.6372 17.2068 10.2226 21.7469 9.5048 23.4C7.49418 25.1076 4.91157 26.8352 3.28412 27.8748C2.48767 28.3836 2.34382 29.502 3.00103 30.1811L7.53605 34.8675C8.30854 35.6658 9.56903 35.7222 10.4061 34.9919C12.0966 33.5169 14.8666 31.0843 16.8014 29.3042C18.0846 28.1237 18.7703 26.8432 18.7703 25.9818C18.7703 24.8572 18.6259 21.0502 18.7703 16.534C18.9517 10.859 18.8274 2.86862 18.7289 2.24584C18.5953 1.40099 17.4455 0.997474 16.8376 0.977335C16.1986 0.956165 15.0621 1.52277 14.9553 2.24584C14.8484 2.9689 14.6846 3.99593 14.4735 5.43626C14.2625 6.87659 13.8598 9.42617 13.2607 12.5738Z" fill="#FFE560"/>
<path d="M13.2607 12.5738C11.6372 17.2068 10.2226 21.7469 9.5048 23.4C7.49418 25.1076 4.91157 26.8352 3.28412 27.8748C2.48767 28.3836 2.34382 29.502 3.00103 30.1811L7.53605 34.8675C8.30854 35.6658 9.56903 35.7222 10.4061 34.9919C12.0966 33.5169 14.8666 31.0843 16.8014 29.3042C18.0846 28.1237 18.7703 26.8432 18.7703 25.9818C18.7703 24.8572 18.6259 21.0502 18.7703 16.534C18.9517 10.859 18.8274 2.86862 18.7289 2.24584C18.5953 1.40099 17.4455 0.997474 16.8376 0.977335C16.1986 0.956165 15.0621 1.52277 14.9553 2.24584C14.8484 2.9689 14.6846 3.99593 14.4735 5.43626C14.2625 6.87659 13.8598 9.42617 13.2607 12.5738Z" fill="url(#paint1_radial_5652_33813)"/>
<path d="M8.10476 31.8546C7.74641 32.1379 7.53601 32.5666 7.53601 33.0234L7.53601 34.0203C7.53601 34.5637 7.72931 35.1327 8.23049 35.3427C8.94247 35.641 9.78922 35.53 10.406 34.9919C12.0966 33.5169 14.8665 31.0843 16.8014 29.3042C18.0845 28.1237 18.7703 26.8431 18.7703 25.9818C18.7703 24.8572 18.7703 17.1675 18.7703 12.649C18.7703 12.649 17.4882 22.198 14.8372 25.5921C13.0952 27.8225 9.49813 30.7531 8.10476 31.8546Z" fill="url(#paint2_linear_5652_33813)"/>
<path fill-rule="evenodd" clip-rule="evenodd" d="M15.9687 1.77974C15.6356 1.98225 15.492 2.19432 15.473 2.32232C15.4296 2.61615 15.3788 2.94746 15.3201 3.33002C15.2297 3.91909 15.1207 4.62969 14.9914 5.51212C14.7794 6.9587 14.3756 9.5157 13.7749 12.6716L13.7676 12.71L13.7546 12.7468C13.113 14.578 12.5042 16.394 11.9572 18.0259C11.8134 18.4548 11.6739 18.8709 11.5392 19.2712C10.8959 21.1831 10.3548 22.7566 9.9849 23.6084L9.93641 23.7201L9.84362 23.7989C7.80494 25.5304 5.19782 27.2734 3.56587 28.3159C3.04149 28.6509 2.95572 29.3816 3.37715 29.8171L7.91217 34.5035C8.49194 35.1026 9.43592 35.1436 10.0619 34.5974C11.7525 33.1224 14.5178 30.6939 16.447 28.919C17.0549 28.3598 17.5117 27.7853 17.8136 27.2618C18.1204 26.7299 18.2468 26.2864 18.2468 25.9818C18.2468 25.7276 18.2391 25.3255 18.229 24.8014C18.1954 23.066 18.136 19.9924 18.2471 16.5172C18.3375 13.6893 18.3518 10.2805 18.3311 7.49918C18.3208 6.10895 18.3017 4.8775 18.2791 3.95584C18.2678 3.49477 18.2557 3.11297 18.2434 2.82835C18.2305 2.52886 18.2185 2.36953 18.2119 2.32759C18.1814 2.13488 18.0237 1.93403 17.7089 1.76096C17.4002 1.59123 17.0411 1.50777 16.8203 1.50045C16.6323 1.49422 16.2887 1.58526 15.9687 1.77974ZM15.425 0.885201C15.8598 0.620911 16.4039 0.439231 16.8549 0.454174C17.2419 0.466995 17.7617 0.595356 18.2133 0.843629C18.6587 1.08857 19.1427 1.5119 19.2459 2.16404C19.2638 2.27779 19.2773 2.50439 19.2893 2.78324C19.302 3.07697 19.3143 3.46592 19.3257 3.9302C19.3484 4.85923 19.3676 6.09683 19.3779 7.4914C19.3987 10.2797 19.3844 13.7036 19.2934 16.5507C19.1835 19.9909 19.2415 23.0014 19.2752 24.747C19.2856 25.2887 19.2937 25.7086 19.2937 25.9818C19.2937 26.5384 19.0773 27.166 18.7205 27.7848C18.3587 28.4121 17.8311 29.0681 17.1558 29.6894C15.2153 31.4747 12.4406 33.9114 10.7502 35.3863C9.70209 36.3007 8.12509 36.2289 7.15988 35.2315L2.62487 30.5451C1.73187 29.6223 1.9338 28.1163 3.00231 27.4337C4.59979 26.4133 7.10325 24.7384 9.07211 23.0804C9.4195 22.254 9.92655 20.7813 10.547 18.9374C10.681 18.5391 10.82 18.1244 10.9635 17.6964C11.5071 16.0749 12.1142 14.2637 12.7538 12.4375C13.3473 9.31592 13.7463 6.7886 13.9556 5.36035C14.0834 4.48847 14.1964 3.75099 14.2887 3.14954C14.3472 2.76789 14.3973 2.44101 14.4374 2.16931C14.5254 1.57424 15.0034 1.14147 15.425 0.885201Z" fill="url(#paint3_linear_5652_33813)"/>
<path d="M8.81453 37.379L16.5718 31.0853C16.6534 31.019 16.5965 30.8802 16.4914 30.8837C12.7366 31.0067 8.17309 26.1545 8.30695 23.4816C8.31154 23.39 8.20766 23.3246 8.1313 23.3754L0.850281 28.2145C0.850281 28.2145 1.72916 30.8097 4.00916 33.3609C6.28916 35.9121 8.81453 37.379 8.81453 37.379Z" fill="#62A9F3"/>
<path d="M8.81453 37.379L16.5718 31.0853C16.6534 31.019 16.5965 30.8802 16.4914 30.8837C12.7366 31.0067 8.17309 26.1545 8.30695 23.4816C8.31154 23.39 8.20766 23.3246 8.1313 23.3754L0.850281 28.2145C0.850281 28.2145 1.72916 30.8097 4.00916 33.3609C6.28916 35.9121 8.81453 37.379 8.81453 37.379Z" fill="url(#paint4_radial_5652_33813)"/>
<path fill-rule="evenodd" clip-rule="evenodd" d="M15.5816 30.822C15.488 30.8068 15.3943 30.789 15.3003 30.7688C12.2647 30.1134 9.08312 26.8456 8.42672 24.436C8.42152 24.4169 8.41648 24.3979 8.4116 24.3789C8.34483 24.1193 8.30795 23.8701 8.30437 23.6358C8.30357 23.5836 8.30442 23.5322 8.30695 23.4816C8.31154 23.39 8.20766 23.3246 8.1313 23.3754L0.850281 28.2145C0.850281 28.2145 1.72916 30.8097 4.00916 33.3609C6.28916 35.9121 8.81453 37.379 8.81453 37.379L16.5718 31.0853C16.6534 31.019 16.5965 30.8802 16.4914 30.8837C16.4642 30.8846 16.437 30.8852 16.4097 30.8856C16.137 30.8893 15.8603 30.8672 15.5816 30.822ZM14.3027 31.5782C12.7836 31.0697 11.3476 30.0741 10.2155 28.9858C9.3563 28.1599 8.6143 27.2275 8.08956 26.2975C7.86177 25.8938 7.66339 25.4701 7.5175 25.0403L2.14401 28.6117C2.23939 28.8218 2.35844 29.07 2.50291 29.3469C2.97791 30.2577 3.72092 31.4674 4.78971 32.6633C5.87085 33.8731 7.01594 34.8315 7.89399 35.4884C8.22118 35.7333 8.50943 35.9348 8.74099 36.0906L14.3027 31.5782Z" fill="#3287E1" fill-opacity="0.4"/>
<mask id="mask0_5652_33813" style="mask-type:alpha" maskUnits="userSpaceOnUse" x="0" y="23" width="17" height="15">
<path d="M8.81453 37.379L16.5718 31.0853C16.6534 31.019 16.5965 30.8802 16.4914 30.8837C12.7366 31.0067 8.17309 26.1545 8.30695 23.4816C8.31154 23.39 8.20766 23.3246 8.1313 23.3754L0.850281 28.2145C0.850281 28.2145 1.72916 30.8097 4.00916 33.3609C6.28916 35.9121 8.81453 37.379 8.81453 37.379Z" fill="url(#paint5_radial_5652_33813)"/>
</mask>
<g mask="url(#mask0_5652_33813)">
<path d="M4.86505 34.5407L8.51503 37.7402C10.2055 36.2652 15.1376 32.4413 17.0725 30.6612C18.3557 29.4807 18.7703 26.8431 18.7703 25.9818L14.8372 25.5921C12.7484 28.4062 4.86505 34.5407 4.86505 34.5407Z" fill="black" fill-opacity="0.1"/>
</g>
<path fill-rule="evenodd" clip-rule="evenodd" d="M17.9418 4.7662C17.7939 4.65548 17.6283 4.65548 17.4017 4.65548C17.0424 4.65548 16.7765 4.87631 16.7091 5.30501C16.6594 5.62163 16.5853 6.17758 16.4926 6.87307C16.3952 7.60389 16.2773 8.4888 16.1455 9.41199C16.0203 10.2892 15.8306 11.513 15.6726 12.5155C15.5935 13.0172 15.5222 13.4643 15.4707 13.7859L15.3875 14.3034L15.3812 14.3426L14.8504 16.0041C14.7624 16.2794 14.4679 16.4314 14.1925 16.3434C13.9171 16.2554 13.7652 15.9609 13.8532 15.6855L14.3602 14.0984L14.437 13.6203C14.4885 13.2993 14.5596 12.8532 14.6385 12.3525C14.7965 11.3503 14.9851 10.133 15.1092 9.26404C15.2366 8.37122 15.3542 7.49006 15.4524 6.75377C15.5476 6.04022 15.6246 5.46272 15.675 5.1425C15.8119 4.2712 16.4624 3.60863 17.4017 3.60863C17.8034 3.60863 18.2229 3.71394 18.5693 3.97336C18.9252 4.23983 19.1652 4.6408 19.2375 5.15024C19.2522 5.25427 19.2615 5.48175 19.2694 5.75071C19.2778 6.03722 19.2856 6.41464 19.2927 6.84989C19.3121 8.04023 19.2994 6.0916 19.3486 7.2811C19.3509 7.68178 19.3526 8.01428 19.3537 8.24663L19.3554 8.61088C19.3566 8.89996 19.1232 9.13569 18.8342 9.13691C18.5451 9.13813 18.3355 8.89969 18.3343 8.61062L18.3326 8.24663C18.3315 8.01453 18.3349 7.68145 18.3326 7.2811C18.3417 6.60433 18.2976 5.93811 18.2484 5.26332C18.236 5.09187 18.1218 4.90102 17.9418 4.7662Z" fill="#CD942F" fill-opacity="0.8"/>
<path d="M28.457 35.8337L21.9123 31.0988C21.7881 31.0089 21.746 30.8428 21.8216 30.7095C23.1396 28.3836 28.0056 23.6892 30.1919 23.3511C30.2414 23.3435 30.2892 23.3567 30.3306 23.385L36.0847 27.3166C36.7252 27.7542 36.8199 28.6618 36.2837 29.2223L30.101 35.6844C29.6673 36.1378 28.9654 36.2016 28.457 35.8337Z" fill="#62A9F3"/>
<path d="M28.457 35.8337L21.9123 31.0988C21.7881 31.0089 21.746 30.8428 21.8216 30.7095C23.1396 28.3836 28.0056 23.6892 30.1919 23.3511C30.2414 23.3435 30.2892 23.3567 30.3306 23.385L36.0847 27.3166C36.7252 27.7542 36.8199 28.6618 36.2837 29.2223L30.101 35.6844C29.6673 36.1378 28.9654 36.2016 28.457 35.8337Z" fill="url(#paint6_radial_5652_33813)"/>
<path d="M25.19 12.5738C26.8135 17.2068 28.2281 21.7469 28.9459 23.4C30.9565 25.1076 33.5391 26.8352 35.1666 27.8748C35.963 28.3836 36.1069 29.502 35.4497 30.1811L30.9146 34.8675C30.1421 35.6658 28.8817 35.7222 28.0446 34.9919C26.3541 33.5169 23.5841 31.0843 21.6492 29.3042C20.3661 28.1237 19.6804 26.8432 19.6804 25.9818C19.6804 24.8572 19.8247 21.0502 19.6804 16.534C19.499 10.859 19.6233 2.86862 19.7218 2.24584C19.8554 1.40099 21.0052 0.997474 21.6131 0.977335C22.252 0.956165 23.3886 1.52277 23.4954 2.24584C23.6023 2.9689 23.7661 3.99593 23.9771 5.43626C24.1882 6.87659 24.5909 9.42617 25.19 12.5738Z" fill="#FFE560"/>
<path d="M25.19 12.5738C26.8135 17.2068 28.2281 21.7469 28.9459 23.4C30.9565 25.1076 33.5391 26.8352 35.1666 27.8748C35.963 28.3836 36.1069 29.502 35.4497 30.1811L30.9146 34.8675C30.1421 35.6658 28.8817 35.7222 28.0446 34.9919C26.3541 33.5169 23.5841 31.0843 21.6492 29.3042C20.3661 28.1237 19.6804 26.8432 19.6804 25.9818C19.6804 24.8572 19.8247 21.0502 19.6804 16.534C19.499 10.859 19.6233 2.86862 19.7218 2.24584C19.8554 1.40099 21.0052 0.997474 21.6131 0.977335C22.252 0.956165 23.3886 1.52277 23.4954 2.24584C23.6023 2.9689 23.7661 3.99593 23.9771 5.43626C24.1882 6.87659 24.5909 9.42617 25.19 12.5738Z" fill="url(#paint7_radial_5652_33813)"/>
<path d="M30.3459 31.8546C30.7043 32.1379 30.9147 32.5666 30.9147 33.0234L30.9147 34.0203C30.9147 34.5637 30.7214 35.1327 30.2202 35.3427C29.5082 35.641 28.6615 35.53 28.0446 34.9919C26.3541 33.5169 23.5842 31.0843 21.6493 29.3042C20.3661 28.1237 19.6804 26.8431 19.6804 25.9818C19.6804 24.8572 19.6804 17.1675 19.6804 12.649C19.6804 12.649 20.9625 22.198 23.6135 25.5921C25.3555 27.8225 28.9526 30.7531 30.3459 31.8546Z" fill="url(#paint8_linear_5652_33813)"/>
<path fill-rule="evenodd" clip-rule="evenodd" d="M22.4819 1.77974C22.8151 1.98225 22.9587 2.19432 22.9776 2.32232C23.0211 2.61615 23.0719 2.94746 23.1306 3.33002C23.2209 3.91909 23.33 4.62969 23.4593 5.51212C23.6712 6.9587 24.0751 9.5157 24.6758 12.6716L24.6831 12.71L24.696 12.7468C25.3377 14.578 25.9465 16.394 26.4935 18.0259C26.6373 18.4548 26.7768 18.8709 26.9115 19.2712C27.5548 21.1831 28.0959 22.7566 28.4658 23.6084L28.5143 23.7201L28.6071 23.7989C30.6457 25.5304 33.2529 27.2734 34.8848 28.3159C35.4092 28.6509 35.495 29.3816 35.0735 29.8171L30.5385 34.5035C29.9587 35.1026 29.0148 35.1436 28.3887 34.5974C26.6981 33.1224 23.9329 30.6939 22.0037 28.919C21.3958 28.3598 20.939 27.7853 20.6371 27.2618C20.3303 26.7299 20.2038 26.2864 20.2038 25.9818C20.2038 25.7276 20.2116 25.3255 20.2217 24.8014C20.2553 23.066 20.3146 19.9924 20.2036 16.5172C20.1132 13.6893 20.0989 10.2805 20.1196 7.49918C20.1299 6.10895 20.149 4.8775 20.1716 3.95584C20.1829 3.49477 20.195 3.11297 20.2073 2.82835C20.2202 2.52886 20.2322 2.36953 20.2388 2.32759C20.2693 2.13488 20.427 1.93403 20.7418 1.76096C21.0505 1.59123 21.4095 1.50777 21.6304 1.50045C21.8184 1.49422 22.162 1.58526 22.4819 1.77974ZM23.0257 0.885201C22.5909 0.620911 22.0468 0.439231 21.5958 0.454174C21.2088 0.466995 20.689 0.595356 20.2374 0.843629C19.7919 1.08857 19.308 1.5119 19.2048 2.16404C19.1868 2.27779 19.1734 2.50439 19.1614 2.78324C19.1487 3.07697 19.1364 3.46592 19.125 3.9302C19.1023 4.85923 19.0831 6.09683 19.0728 7.4914C19.052 10.2797 19.0663 13.7036 19.1573 16.5507C19.2672 19.9909 19.2092 23.0014 19.1755 24.747C19.1651 25.2887 19.157 25.7086 19.157 25.9818C19.157 26.5384 19.3734 27.166 19.7302 27.7848C20.092 28.4121 20.6196 29.0681 21.2949 29.6894C23.2354 31.4747 26.0101 33.9114 27.7005 35.3863C28.7486 36.3007 30.3256 36.2289 31.2908 35.2315L35.8258 30.5451C36.7188 29.6223 36.5169 28.1163 35.4484 27.4337C33.8509 26.4133 31.3474 24.7384 29.3786 23.0804C29.0312 22.254 28.5241 20.7813 27.9037 18.9374C27.7697 18.5391 27.6306 18.1244 27.4872 17.6964C26.9436 16.0749 26.3364 14.2637 25.6969 12.4375C25.1034 9.31592 24.7043 6.7886 24.4951 5.36035C24.3673 4.48847 24.2542 3.75099 24.162 3.14954C24.1035 2.76789 24.0534 2.44101 24.0132 2.16931C23.9253 1.57424 23.4473 1.14147 23.0257 0.885201Z" fill="url(#paint9_linear_5652_33813)"/>
<path d="M29.6362 37.379L21.8789 31.0853C21.7973 31.019 21.8542 30.8802 21.9592 30.8837C25.7141 31.0067 30.2776 26.1545 30.1437 23.4816C30.1391 23.39 30.243 23.3246 30.3194 23.3754L37.6004 28.2145C37.6004 28.2145 36.7215 30.8097 34.4415 33.3609C32.1615 35.9121 29.6362 37.379 29.6362 37.379Z" fill="#62A9F3"/>
<path d="M29.6362 37.379L21.8789 31.0853C21.7973 31.019 21.8542 30.8802 21.9592 30.8837C25.7141 31.0067 30.2776 26.1545 30.1437 23.4816C30.1391 23.39 30.243 23.3246 30.3194 23.3754L37.6004 28.2145C37.6004 28.2145 36.7215 30.8097 34.4415 33.3609C32.1615 35.9121 29.6362 37.379 29.6362 37.379Z" fill="url(#paint10_radial_5652_33813)"/>
<path fill-rule="evenodd" clip-rule="evenodd" d="M22.8691 30.822C22.9627 30.8068 23.0564 30.789 23.1503 30.7688C26.186 30.1134 29.3676 26.8456 30.024 24.436C30.0292 24.4169 30.0342 24.3979 30.0391 24.3789C30.1059 24.1193 30.1427 23.8701 30.1463 23.6358C30.1471 23.5836 30.1463 23.5322 30.1437 23.4816C30.1391 23.39 30.243 23.3246 30.3194 23.3754L37.6004 28.2145C37.6004 28.2145 36.7215 30.8097 34.4415 33.3609C32.1615 35.9121 29.6362 37.379 29.6362 37.379L21.8789 31.0853C21.7973 31.019 21.8542 30.8802 21.9592 30.8837C21.9864 30.8846 22.0137 30.8852 22.041 30.8856C22.3137 30.8893 22.5904 30.8672 22.8691 30.822ZM24.1479 31.5782C25.6671 31.0697 27.1031 30.0741 28.2352 28.9858C29.0944 28.1599 29.8364 27.2275 30.3611 26.2975C30.5889 25.8938 30.7873 25.4701 30.9332 25.0403L36.3067 28.6117C36.2113 28.8218 36.0922 29.07 35.9478 29.3469C35.4728 30.2577 34.7298 31.4674 33.661 32.6633C32.5798 33.8731 31.4347 34.8315 30.5567 35.4884C30.2295 35.7333 29.9413 35.9348 29.7097 36.0906L24.1479 31.5782Z" fill="#3287E1" fill-opacity="0.4"/>
<mask id="mask1_5652_33813" style="mask-type:alpha" maskUnits="userSpaceOnUse" x="21" y="23" width="17" height="15">
<path d="M29.6362 37.379L21.8789 31.0853C21.7973 31.019 21.8542 30.8802 21.9592 30.8837C25.7141 31.0067 30.2776 26.1545 30.1437 23.4816C30.1391 23.39 30.243 23.3246 30.3194 23.3754L37.6004 28.2145C37.6004 28.2145 36.7215 30.8097 34.4415 33.3609C32.1615 35.9121 29.6362 37.379 29.6362 37.379Z" fill="url(#paint11_radial_5652_33813)"/>
</mask>
<g mask="url(#mask1_5652_33813)">
<path d="M33.5856 34.5407L29.9357 37.7402C28.2451 36.2652 23.3131 32.4413 21.3782 30.6612C20.095 29.4807 19.6804 26.8431 19.6804 25.9818L23.6135 25.5921C25.7022 28.4062 33.5856 34.5407 33.5856 34.5407Z" fill="black" fill-opacity="0.1"/>
</g>
<path fill-rule="evenodd" clip-rule="evenodd" d="M20.5089 4.7662C20.6568 4.65548 20.8223 4.65548 21.0489 4.65548C21.4083 4.65548 21.6742 4.87631 21.7416 5.30501C21.7913 5.62163 21.8654 6.17758 21.9581 6.87307C22.0555 7.60389 22.1734 8.4888 22.3052 9.41199C22.4304 10.2892 22.6201 11.513 22.7781 12.5155C22.8572 13.0172 22.9285 13.4643 22.98 13.7859L23.0632 14.3034L23.0695 14.3426L23.6003 16.0041C23.6883 16.2794 23.9828 16.4314 24.2582 16.3434C24.5336 16.2554 24.6855 15.9609 24.5975 15.6855L24.0905 14.0984L24.0136 13.6203C23.9622 13.2993 23.8911 12.8532 23.8122 12.3525C23.6542 11.3503 23.4656 10.133 23.3415 9.26404C23.2141 8.37122 23.0965 7.49006 22.9983 6.75377C22.9031 6.04022 22.826 5.46272 22.7757 5.1425C22.6388 4.2712 21.9883 3.60863 21.0489 3.60863C20.6473 3.60863 20.2278 3.71394 19.8813 3.97336C19.5255 4.23983 19.2855 4.6408 19.2132 5.15024C19.1984 5.25427 19.1892 5.48175 19.1813 5.75071C19.1728 6.03722 19.1651 6.41464 19.158 6.84989C19.1386 8.04023 19.1513 6.0916 19.1021 7.2811C19.0998 7.68178 19.0981 8.01428 19.097 8.24663L19.0953 8.61088C19.0941 8.89996 19.3274 9.13569 19.6165 9.13691C19.9056 9.13813 20.1151 8.89969 20.1164 8.61062L20.118 8.24663C20.1192 8.01453 20.1158 7.68145 20.118 7.2811C20.109 6.60433 20.1531 5.93811 20.2022 5.26332C20.2147 5.09187 20.3289 4.90102 20.5089 4.7662Z" fill="#CD942F" fill-opacity="0.8"/>
<defs>
<radialGradient id="paint0_radial_5652_33813" cx="0" cy="0" r="1" gradientTransform="matrix(3.99003 -0.557746 0.217351 4.64575 8.23666 26.7581)" gradientUnits="userSpaceOnUse">
<stop stop-color="#70B6FF"/>
<stop offset="0.34375" stop-color="#62A9F3"/>
<stop offset="0.96875" stop-color="#3D93EC"/>
</radialGradient>
<radialGradient id="paint1_radial_5652_33813" cx="0" cy="0" r="1" gradientTransform="matrix(-10.0782 35.9979 -22.6213 6.22845 17.6622 0.976762)" gradientUnits="userSpaceOnUse">
<stop stop-color="#FBEB9D"/>
<stop offset="0.450094" stop-color="#F6E071"/>
<stop offset="1" stop-color="#ECC91A"/>
</radialGradient>
<linearGradient id="paint2_linear_5652_33813" x1="18.7964" y1="26.1244" x2="13.1531" y2="26.0611" gradientUnits="userSpaceOnUse">
<stop stop-color="#783E11" stop-opacity="0.22"/>
<stop offset="1" stop-color="#783E11" stop-opacity="0.1"/>
</linearGradient>
<linearGradient id="paint3_linear_5652_33813" x1="14.9903" y1="21.2577" x2="19.3863" y2="22.8017" gradientUnits="userSpaceOnUse">
<stop stop-color="#CD942F"/>
<stop offset="1" stop-color="#C18B2C"/>
</linearGradient>
<radialGradient id="paint4_radial_5652_33813" cx="0" cy="0" r="1" gradientTransform="matrix(3.77727 10.9017 -12.9327 3.1841 8.11531 26.2308)" gradientUnits="userSpaceOnUse">
<stop stop-color="#70B6FF"/>
<stop offset="0.34375" stop-color="#3D8BDC"/>
<stop offset="0.96875" stop-color="#1A7ADE"/>
</radialGradient>
<radialGradient id="paint5_radial_5652_33813" cx="0" cy="0" r="1" gradientTransform="matrix(3.77727 10.9017 -12.9327 3.1841 8.11531 26.2308)" gradientUnits="userSpaceOnUse">
<stop stop-color="#70B6FF"/>
<stop offset="0.34375" stop-color="#62A9F3"/>
<stop offset="0.96875" stop-color="#0361C4"/>
</radialGradient>
<radialGradient id="paint6_radial_5652_33813" cx="0" cy="0" r="1" gradientTransform="matrix(-3.99003 -0.557746 -0.217351 4.64575 30.214 26.7581)" gradientUnits="userSpaceOnUse">
<stop stop-color="#70B6FF"/>
<stop offset="0.34375" stop-color="#62A9F3"/>
<stop offset="0.96875" stop-color="#3D93EC"/>
</radialGradient>
<radialGradient id="paint7_radial_5652_33813" cx="0" cy="0" r="1" gradientTransform="matrix(10.0782 35.9979 22.6213 6.22845 20.7885 0.976762)" gradientUnits="userSpaceOnUse">
<stop stop-color="#FBEB9D"/>
<stop offset="0.450094" stop-color="#F6E071"/>
<stop offset="1" stop-color="#ECC91A"/>
</radialGradient>
<linearGradient id="paint8_linear_5652_33813" x1="19.6543" y1="26.1244" x2="25.2976" y2="26.0611" gradientUnits="userSpaceOnUse">
<stop stop-color="#783E11" stop-opacity="0.22"/>
<stop offset="1" stop-color="#783E11" stop-opacity="0.1"/>
</linearGradient>
<linearGradient id="paint9_linear_5652_33813" x1="23.4604" y1="21.2577" x2="19.0644" y2="22.8017" gradientUnits="userSpaceOnUse">
<stop stop-color="#CD942F"/>
<stop offset="1" stop-color="#C18B2C"/>
</linearGradient>
<radialGradient id="paint10_radial_5652_33813" cx="0" cy="0" r="1" gradientTransform="matrix(-3.77727 10.9017 12.9327 3.1841 30.3354 26.2308)" gradientUnits="userSpaceOnUse">
<stop stop-color="#70B6FF"/>
<stop offset="0.34375" stop-color="#3D8BDC"/>
<stop offset="0.96875" stop-color="#1A7ADE"/>
</radialGradient>
<radialGradient id="paint11_radial_5652_33813" cx="0" cy="0" r="1" gradientTransform="matrix(-3.77727 10.9017 12.9327 3.1841 30.3354 26.2308)" gradientUnits="userSpaceOnUse">
<stop stop-color="#70B6FF"/>
<stop offset="0.34375" stop-color="#62A9F3"/>
<stop offset="0.96875" stop-color="#0361C4"/>
</radialGradient>
</defs>
</svg>
