<svg width="23" height="23" viewBox="0 0 23 23" fill="none" xmlns="http://www.w3.org/2000/svg">
	<path d="M11.438 3.95703C15.6378 3.95703 19.0424 7.36167 19.0425 11.5615C19.0425 15.7614 15.6379 19.166 11.438 19.166C7.23814 19.166 3.8335 15.7614 3.8335 11.5615C3.83354 7.3617 7.23816 3.95707 11.438 3.95703ZM10.5933 10.7197H9.74854V11.5244H10.5933V14.9414H9.74854V15.7861H13.1284V14.9414H12.563V10.7188H10.5933V10.7197ZM11.438 7.00391C10.7816 7.00395 10.2495 7.53698 10.2495 8.19336C10.2498 8.84953 10.7818 9.38179 11.438 9.38184C12.0942 9.38184 12.6262 8.84955 12.6265 8.19336C12.6265 7.53695 12.0944 7.00391 11.438 7.00391Z" fill="#11A9D9"/>
</svg>
