<svg width="24" height="24" viewBox="0 0 24 24" fill="none" xmlns="http://www.w3.org/2000/svg">
    <path fill-rule="evenodd" clip-rule="evenodd" d="M6.99591 6.20001H9.40376C9.84342 6.20001 10.1998 6.55642 10.1998 6.99608V9.40393C10.1998 9.84359 9.84342 10.2 9.40377 10.2H6.99591C6.55625 10.2 6.19984 9.84359 6.19984 9.40393V6.99608C6.19984 6.55642 6.55625 6.20001 6.99591 6.20001ZM4.99984 6.99608C4.99984 5.89368 5.89351 5.00001 6.99591 5.00001H9.40376C10.5062 5.00001 11.3998 5.89368 11.3998 6.99608V9.40393C11.3998 10.5063 10.5062 11.4 9.40377 11.4H6.99591C5.89351 11.4 4.99984 10.5063 4.99984 9.40393V6.99608ZM14.596 6.20001H17.0038C17.4435 6.20001 17.7999 6.55642 17.7999 6.99608V9.40393C17.7999 9.84359 17.4435 10.2 17.0038 10.2H14.596C14.1563 10.2 13.7999 9.84359 13.7999 9.40393V6.99608C13.7999 6.55642 14.1563 6.20001 14.596 6.20001ZM12.5999 6.99608C12.5999 5.89368 13.4936 5.00001 14.596 5.00001H17.0038C18.1062 5.00001 18.9999 5.89368 18.9999 6.99608V9.40393C18.9999 10.5063 18.1062 11.4 17.0038 11.4H14.596C13.4936 11.4 12.5999 10.5063 12.5999 9.40393V6.99608ZM17.0039 13.7996H14.596C14.1564 13.7996 13.7999 14.156 13.7999 14.5957V17.0035C13.7999 17.4432 14.1563 17.7996 14.596 17.7996H17.0039C17.4435 17.7996 17.7999 17.4432 17.7999 17.0035V14.5957C17.7999 14.156 17.4435 13.7996 17.0039 13.7996ZM14.596 12.5996C13.4936 12.5996 12.5999 13.4933 12.5999 14.5957V17.0035C12.5999 18.1059 13.4936 18.9996 14.596 18.9996H17.0039C18.1063 18.9996 18.9999 18.1059 18.9999 17.0035V14.5957C18.9999 13.4933 18.1063 12.5996 17.0039 12.5996H14.596ZM6.99591 13.7996H9.40376C9.84342 13.7996 10.1998 14.156 10.1998 14.5957V17.0035C10.1998 17.4432 9.84342 17.7996 9.40377 17.7996H6.99591C6.55625 17.7996 6.19984 17.4432 6.19984 17.0035V14.5957C6.19984 14.156 6.55625 13.7996 6.99591 13.7996ZM4.99984 14.5957C4.99984 13.4933 5.89351 12.5996 6.99591 12.5996H9.40376C10.5062 12.5996 11.3998 13.4933 11.3998 14.5957V17.0035C11.3998 18.1059 10.5062 18.9996 9.40377 18.9996H6.99591C5.89351 18.9996 4.99984 18.1059 4.99984 17.0035V14.5957Z" fill="#FFF"/>
</svg>
