<svg xmlns="http://www.w3.org/2000/svg" width="20" height="20" viewBox="0 0 20 20" fill="none">
	<path d="M6.4834 12.6218C6.80554 12.6218 7.06734 12.8827 7.06738 13.2048C7.06729 13.5269 6.80551 13.7888 6.4834 13.7888H5.94434C6.06094 13.915 6.18219 14.0379 6.31055 14.155L6.49121 14.3142C7.33673 15.0257 8.25549 15.4414 9.26465 15.5602C10.2788 15.6796 11.4234 15.504 12.7197 14.9733C13.0178 14.8516 13.3575 14.9947 13.4795 15.2927C13.6012 15.5905 13.4587 15.9302 13.1611 16.0524C11.7268 16.6395 10.3814 16.866 9.12793 16.7185C7.86973 16.5702 6.74115 16.049 5.73926 15.2058L5.52441 15.0183C5.36299 14.8711 5.2113 14.7147 5.06543 14.5554V15.2097L5.05273 15.3269C4.99836 15.5927 4.76331 15.7936 4.48145 15.7936C4.19961 15.7936 3.96454 15.5926 3.91016 15.3269L3.89844 15.2097V13.2048C3.89848 12.8827 4.15937 12.6218 4.48145 12.6218H6.4834ZM12.458 4.3913C12.6094 4.10718 12.9628 3.99902 13.2471 4.15009L13.4834 4.28388C14.6454 4.97555 15.5636 6.07361 16.1309 7.2956C16.7353 8.59795 16.9644 10.0916 16.6172 11.4499L16.54 11.7272C16.4661 11.975 16.378 12.2164 16.2793 12.4519L16.7939 12.2546L16.9072 12.2233C17.1747 12.1787 17.4456 12.3266 17.5469 12.5895C17.6478 12.8524 17.5465 13.1435 17.3184 13.2897L17.2129 13.3435L15.3467 14.0622C15.0461 14.1778 14.7076 14.0268 14.5918 13.7263L13.875 11.863C13.7593 11.5623 13.9093 11.2238 14.21 11.1081C14.5106 10.9926 14.8482 11.1435 14.9639 11.444L15.1904 12.0319C15.2786 11.8248 15.3566 11.612 15.4219 11.3933L15.4863 11.1618C15.754 10.1152 15.5887 8.89872 15.0732 7.78779C14.5581 6.67786 13.7155 5.7223 12.6982 5.18037L12.6006 5.11494C12.3915 4.94199 12.3255 4.64012 12.458 4.3913ZM8.27441 2.27021C8.45561 2.05467 8.76062 2.00352 8.99902 2.13252L9.09668 2.1999L10.626 3.48212C10.8555 3.67472 10.8959 4.00473 10.7344 4.24873C10.6933 4.34201 10.6292 4.42221 10.5488 4.48212L9.41602 5.83173C9.20892 6.07816 8.8414 6.10987 8.59473 5.90302C8.3481 5.696 8.31564 5.3285 8.52246 5.08173L8.8457 4.69404C8.74432 4.71272 8.64296 4.7335 8.54199 4.75751L8.30957 4.81806C7.59502 5.01829 6.9494 5.37496 6.40039 5.84834C5.41813 6.71963 4.80605 7.98611 4.55566 9.44404L4.49023 9.89814C4.48416 9.94934 4.46926 9.99783 4.45117 10.0436C4.44939 10.1032 4.44825 10.1634 4.44824 10.2233C4.44802 10.5453 4.18621 10.8063 3.86426 10.8063C3.54244 10.8061 3.28147 10.5452 3.28125 10.2233C3.28133 8.23827 4.11276 6.34803 5.51465 5.07392C6.18032 4.45169 7.00203 3.97207 7.99023 3.69501L8.26855 3.62275C8.4601 3.57719 8.65303 3.54096 8.8457 3.51142L8.34668 3.09248L8.26367 3.00752C8.09546 2.795 8.09338 2.48596 8.27441 2.27021Z" fill="#535C69"/>
</svg>