<svg xmlns="http://www.w3.org/2000/svg" width="20" height="20" fill="none">
	<path d="M6.39844 12.6216C6.72036 12.6218 6.98131 12.8837 6.98145 13.2056C6.98124 13.5275 6.72031 13.7884 6.39844 13.7886H5.94336C6.06024 13.9152 6.18185 14.0395 6.31055 14.1568L6.49121 14.315C7.33674 15.0266 8.25549 15.4422 9.26465 15.5611C10.2788 15.6804 11.4234 15.5038 12.7197 14.9732C13.0175 14.8518 13.3574 14.9949 13.4795 15.2925C13.6015 15.5905 13.459 15.9311 13.1611 16.0533C11.7267 16.6404 10.3814 16.8668 9.12793 16.7193C7.86983 16.571 6.74109 16.0507 5.73926 15.2076L5.52441 15.0191C5.36298 14.8719 5.21131 14.7156 5.06543 14.5562V15.1246L5.05273 15.2418C4.99837 15.5076 4.76332 15.7075 4.48145 15.7076C4.1996 15.7075 3.96453 15.5075 3.91016 15.2418L3.89844 15.1246V13.2056C3.89857 12.8836 4.15942 12.6217 4.48145 12.6216H6.39844ZM12.459 4.39214C12.6105 4.1081 12.9639 3.99978 13.248 4.15093L13.4834 4.28472C14.6454 4.97641 15.5646 6.07442 16.1318 7.29644C16.7363 8.59891 16.9645 10.0933 16.6172 11.4517L16.541 11.7271C16.467 11.9751 16.378 12.2171 16.2793 12.4527L16.7188 12.2837L16.833 12.2525C17.1004 12.2081 17.3715 12.3568 17.4727 12.6197C17.5734 12.8825 17.4713 13.1737 17.2432 13.3199L17.1377 13.3726L15.3457 14.0621C15.0452 14.1776 14.7077 14.0284 14.5918 13.7281L13.9033 11.938C13.7879 11.6375 13.9379 11.2999 14.2383 11.1841C14.5388 11.0686 14.8764 11.2187 14.9922 11.5191L15.1904 12.0337C15.2787 11.8264 15.3575 11.6131 15.4229 11.3941L15.4873 11.1627C15.755 10.1158 15.5899 8.89874 15.0742 7.78765C14.5591 6.67777 13.7155 5.72312 12.6982 5.18121L12.6016 5.1148C12.3926 4.94183 12.3265 4.64091 12.459 4.39214ZM11.2246 7.35992C12.0067 7.36014 12.6415 7.99476 12.6416 8.77691V11.2252C12.6416 12.0074 12.0068 12.6419 11.2246 12.6421H8.77637C7.99396 12.6421 7.35938 12.0076 7.35938 11.2252V8.77691C7.35951 7.99462 7.99405 7.35992 8.77637 7.35992H11.2246ZM8.77637 8.52691C8.63838 8.52691 8.5265 8.63895 8.52637 8.77691V11.2252C8.52637 11.3632 8.6383 11.4752 8.77637 11.4752H11.2246C11.3625 11.4749 11.4746 11.3631 11.4746 11.2252V8.77691C11.4745 8.63909 11.3624 8.52713 11.2246 8.52691H8.77637ZM8.33203 2.32183C8.51321 2.10592 8.81807 2.05403 9.05664 2.18316L9.1543 2.24859L10.626 3.48394C10.8547 3.67613 10.8955 4.00482 10.7354 4.24859C10.694 4.34321 10.6286 4.42361 10.5469 4.48394L9.46484 5.77398C9.25782 6.0207 8.89035 6.05312 8.64355 5.84624C8.39681 5.63915 8.36422 5.27075 8.57129 5.02398L8.84668 4.69488C8.74497 4.7136 8.64328 4.73426 8.54199 4.75835L8.30957 4.81792C7.57329 5.02421 6.91125 5.39815 6.35156 5.89312C5.39785 6.7628 4.80187 8.01126 4.55566 9.44488L4.49023 9.89898C4.48414 9.95029 4.46933 9.99858 4.45117 10.0445C4.4494 10.1039 4.44825 10.1635 4.44824 10.2232C4.44824 10.5453 4.18635 10.8071 3.86426 10.8072C3.5423 10.8069 3.28125 10.5452 3.28125 10.2232C3.28148 8.24074 4.11109 6.35359 5.50977 5.07964C6.17634 4.45516 6.99954 3.97259 7.99023 3.69488L8.26855 3.62261C8.4596 3.57717 8.65256 3.54274 8.84473 3.51324L8.4043 3.14312L8.32227 3.05913C8.15372 2.84685 8.15144 2.53777 8.33203 2.32183Z" fill="#fff"/>
</svg>