<svg width="54" height="54" viewBox="0 0 54 54" fill="none" xmlns="http://www.w3.org/2000/svg">
<circle cx="27" cy="27" r="17" fill="url(#paint0_radial_37963_15625)"/>
<path fill-rule="evenodd" clip-rule="evenodd" d="M27 44C36.3888 44 44 36.3888 44 27C44 17.6112 36.3888 10 27 10C17.6112 10 10 17.6112 10 27C10 36.3888 17.6112 44 27 44ZM27.0001 42.5141C35.5683 42.5141 42.5141 35.5683 42.5141 27.0001C42.5141 18.4319 35.5683 11.4861 27.0001 11.4861C18.4319 11.4861 11.4861 18.4319 11.4861 27.0001C11.4861 35.5683 18.4319 42.5141 27.0001 42.5141Z" fill="url(#paint1_radial_37963_15625)"/>
<path fill-rule="evenodd" clip-rule="evenodd" d="M27 44C36.3888 44 44 36.3888 44 27C44 17.6112 36.3888 10 27 10C17.6112 10 10 17.6112 10 27C10 36.3888 17.6112 44 27 44ZM27.0001 42.5141C35.5683 42.5141 42.5141 35.5683 42.5141 27.0001C42.5141 18.4319 35.5683 11.4861 27.0001 11.4861C18.4319 11.4861 11.4861 18.4319 11.4861 27.0001C11.4861 35.5683 18.4319 42.5141 27.0001 42.5141Z" fill="#EC6460" fill-opacity="0.3"/>
<ellipse opacity="0.3" cx="36.4883" cy="27.3955" rx="7.51163" ry="11.0698" fill="url(#paint2_radial_37963_15625)"/>
<ellipse opacity="0.3" cx="15.9302" cy="27.7909" rx="5.93023" ry="10.6744" fill="url(#paint3_radial_37963_15625)"/>
<path fill-rule="evenodd" clip-rule="evenodd" d="M21.4474 37.3198C21.4474 37.6284 21.7207 37.7987 21.9028 37.6035C23.3938 36.0075 25.1915 35.3301 27.1272 35.3306C29.0634 35.3311 30.8603 36.01 32.3505 37.6067C32.5326 37.8018 32.806 37.6315 32.806 37.3235V36.3272C32.806 36.2222 32.7721 36.1202 32.7128 36.0503C31.1553 34.2062 29.223 33.3594 27.1276 33.3589C25.0322 33.3584 23.0991 34.2036 21.5409 36.0467C21.4816 36.1171 21.4478 36.2185 21.4478 36.3236L21.4474 37.3198Z" fill="#783E11"/>
<path fill-rule="evenodd" clip-rule="evenodd" d="M33.8865 28.0015C33.8865 28.9212 33.1498 29.6667 32.2414 29.6667C31.3331 29.6667 30.5964 28.9212 30.5964 28.0015C30.5964 27.0814 31.3331 26.3359 32.2414 26.3359C33.1498 26.3359 33.8865 27.0814 33.8865 28.0015Z" fill="#783E11"/>
<path fill-rule="evenodd" clip-rule="evenodd" d="M19.1274 28.0015C19.1274 28.9212 19.8637 29.6667 20.772 29.6667C21.6808 29.6667 22.417 28.9212 22.417 28.0015C22.417 27.0814 21.6808 26.3359 20.772 26.3359C19.8637 26.3359 19.1274 27.0814 19.1274 28.0015Z" fill="#783E11"/>
<path fill-rule="evenodd" clip-rule="evenodd" d="M29.9799 27.8828C31.4628 27.8364 32.8566 27.3997 33.8891 26.5544C34.4231 26.1175 35.4363 25.2711 35.6883 24.7216C35.7517 24.582 35.7401 24.4277 35.6688 24.2954L35.6474 24.2558C35.4279 23.8502 34.7439 23.8281 34.4756 24.2268C34.2489 24.563 33.3364 25.2147 32.9893 25.4986C32.1405 26.1929 31.0479 26.6112 29.8628 26.7648C29.4256 26.8214 29.1752 27.2336 29.3564 27.5684C29.466 27.7719 29.7119 27.8913 29.9799 27.8828Z" fill="#783E11"/>
<path fill-rule="evenodd" clip-rule="evenodd" d="M23.3092 27.8677C21.8263 27.8212 20.4325 27.3846 19.3999 26.5393C18.8659 26.1024 17.8528 25.256 17.6008 24.7064C17.5373 24.5669 17.5489 24.4125 17.6202 24.2803L17.6417 24.2406C17.8612 23.8351 18.5451 23.813 18.8134 24.2117C19.0402 24.5479 19.9527 25.1996 20.2997 25.4835C21.1485 26.1778 22.2412 26.5961 23.4263 26.7497C23.8635 26.8063 24.1139 27.2185 23.9327 27.5533C23.8231 27.7567 23.5771 27.8762 23.3092 27.8677Z" fill="#783E11"/>
<defs>
<radialGradient id="paint0_radial_37963_15625" cx="0" cy="0" r="1" gradientUnits="userSpaceOnUse" gradientTransform="translate(25.4754 17.0096) rotate(73.7184) scale(27.5504)">
<stop stop-color="#FFCAC9"/>
<stop offset="0.34375" stop-color="#FFB9B7"/>
<stop offset="0.96875" stop-color="#FF6D69"/>
</radialGradient>
<radialGradient id="paint1_radial_37963_15625" cx="0" cy="0" r="1" gradientUnits="userSpaceOnUse" gradientTransform="translate(25.4754 17.0096) rotate(73.7184) scale(27.5504)">
<stop stop-color="#FFCAC9"/>
<stop offset="0.34375" stop-color="#FFB9B7"/>
<stop offset="0.96875" stop-color="#FF635F"/>
</radialGradient>
<radialGradient id="paint2_radial_37963_15625" cx="0" cy="0" r="1" gradientUnits="userSpaceOnUse" gradientTransform="translate(39.1848 27.3955) rotate(90) scale(8.75113 3.2221)">
<stop stop-color="#FF2727"/>
<stop offset="0.5" stop-color="#FF2727" stop-opacity="0.5"/>
<stop offset="1" stop-color="#FFB9B7" stop-opacity="0"/>
</radialGradient>
<radialGradient id="paint3_radial_37963_15625" cx="0" cy="0" r="1" gradientUnits="userSpaceOnUse" gradientTransform="translate(14.5175 27.7909) rotate(90) scale(8.43859 2.54376)">
<stop stop-color="#FF2727"/>
<stop offset="0.465" stop-color="#FF2727" stop-opacity="0.5"/>
<stop offset="1" stop-color="#FFB9B7" stop-opacity="0"/>
</radialGradient>
</defs>
</svg>
