<svg width="54" height="54" viewBox="0 0 54 54" fill="none" xmlns="http://www.w3.org/2000/svg">
<path fill-rule="evenodd" clip-rule="evenodd" d="M30.6623 13.5166C30.6695 13.5032 30.677 13.4887 30.6849 13.4732C30.8447 13.1595 31.0318 12.6459 31.1594 12.0401C31.2867 11.4362 31.3422 10.7996 31.2816 10.2331C31.2205 9.66267 31.0517 9.24313 30.8065 8.96766C30.3983 8.50908 30.4391 7.80642 30.8977 7.39824C31.3563 6.99005 32.0589 7.03091 32.4671 7.48949C33.1203 8.22333 33.4006 9.14066 33.4922 9.99655C33.5842 10.8563 33.4957 11.7354 33.3349 12.4985C33.1746 13.2597 32.9297 13.9644 32.6661 14.4821C32.541 14.7278 32.3757 15.0036 32.1654 15.2186C32.0652 15.321 31.8821 15.4859 31.6161 15.5819C31.2989 15.6964 30.8671 15.7029 30.4852 15.4311C29.985 15.0752 29.868 14.3811 30.224 13.8809C30.3402 13.7176 30.4925 13.5951 30.6623 13.5166Z" fill="url(#paint0_linear_37963_15619)"/>
<path d="M27.0549 13.7876L27.7993 10.9441C27.9859 10.2314 28.7149 9.80489 29.4276 9.99148L36.0078 11.7142C36.7205 11.9008 37.147 12.6298 36.9604 13.3425L36.216 16.186L27.0549 13.7876Z" fill="url(#paint1_linear_37963_15619)"/>
<path d="M27.0549 13.7876L27.7993 10.9441C27.9859 10.2314 28.7149 9.80489 29.4276 9.99148L36.0078 11.7142C36.7205 11.9008 37.147 12.6298 36.9604 13.3425L36.216 16.186L27.0549 13.7876Z" fill="white" fill-opacity="0.2"/>
<path d="M43.6769 28.3549C43.6769 36.95 36.7093 43.9177 28.1142 43.9177C19.5192 43.9177 12.5515 36.95 12.5515 28.3549C12.5515 19.7599 19.5192 12.7922 28.1142 12.7922C36.7093 12.7922 43.6769 19.7599 43.6769 28.3549Z" fill="url(#paint2_radial_37963_15619)"/>
<path fill-rule="evenodd" clip-rule="evenodd" d="M26.0199 7.53073C27.7743 5.55953 30.8205 5.71636 32.4851 7.51467C32.9021 7.96522 32.875 8.66853 32.4244 9.08557C31.9739 9.5026 31.2705 9.47544 30.8535 9.02489C30.0125 8.11628 28.4969 8.09168 27.6806 9.00883C27.5268 9.18161 27.376 9.36409 27.2214 9.5513C26.5379 10.3785 25.7783 11.2979 24.3464 11.8802C23.5913 12.1872 22.7218 12.3362 22.0901 12.4121C21.7645 12.4512 21.4813 12.4733 21.2782 12.4856C21.1764 12.4918 21.0941 12.4956 21.0357 12.4979C21.0065 12.499 20.9833 12.4998 20.9666 12.5003L20.9465 12.5008L20.9403 12.501L20.9381 12.501L20.9369 12.501C20.9368 12.501 20.9366 12.501 20.9136 11.3897L20.9369 12.501C20.3231 12.5138 19.8149 12.0265 19.8022 11.4127C19.7895 10.7992 20.2762 10.2916 20.8895 10.2783M20.8895 10.2783C20.8895 10.2783 20.8896 10.2783 20.8895 10.2783L20.8909 10.2783L20.9011 10.278L20.9491 10.2763C20.9929 10.2746 21.0591 10.2716 21.1434 10.2665C21.3125 10.2562 21.5512 10.2376 21.8247 10.2047C22.3913 10.1367 23.0287 10.016 23.5089 9.82073C24.3844 9.46468 24.7474 9.03161 25.3767 8.28072C25.5615 8.06017 25.7693 7.81221 26.0199 7.53073" fill="url(#paint3_linear_37963_15619)"/>
<path d="M13.9355 6.17568L14.7142 6.77779C16.8999 8.46784 19.9478 8.48065 22.1476 6.80903L21.7363 7.93601C20.8483 10.3687 22.2055 13.0447 24.6929 13.7654C22.0111 14.9494 20.4553 17.7836 20.8962 20.6818L20.9698 21.1655L20.1838 20.2204C18.305 17.9614 15.2151 17.1166 12.4483 18.1054C13.6196 16.0927 12.6543 13.5116 10.4498 12.7614L10.1779 12.6689C12.8769 12.2086 14.6534 9.59832 14.0914 6.91866L13.9355 6.17568Z" fill="#FF5752"/>
<path d="M15.5116 9.04312L15.984 9.40841C17.31 10.4337 19.1591 10.4415 20.4937 9.42736L20.2778 10.0187C19.7149 11.5607 20.542 13.2624 22.1023 13.7725C20.4541 14.4106 19.4704 16.108 19.7363 17.8553L19.7791 18.1371L19.3023 17.5637C18.1624 16.1932 16.2879 15.6807 14.6093 16.2806C15.3199 15.0595 14.7343 13.4937 13.3968 13.0385L13.2319 12.9824C14.8693 12.7031 15.9471 11.1196 15.6061 9.49387L15.5116 9.04312Z" fill="#F8D701"/>
<path d="M16.5291 11.008L16.794 11.2127C17.5373 11.7875 18.5738 11.7918 19.322 11.2233L19.201 11.5548C18.8854 12.4193 19.349 13.3731 20.2237 13.6591C19.2998 14.0168 18.7484 14.9683 18.8974 15.9478L18.9214 16.1058L18.6541 15.7844C18.0151 15.0161 16.9643 14.7288 16.0233 15.0651C16.4217 14.3806 16.0934 13.5028 15.3437 13.2476L15.2512 13.2162C16.1691 13.0596 16.7733 12.1719 16.5821 11.2606L16.5291 11.008Z" fill="white"/>
<defs>
<linearGradient id="paint0_linear_37963_15619" x1="32.1702" y1="9.17075" x2="33.0655" y2="11.3206" gradientUnits="userSpaceOnUse">
<stop stop-color="#BCBFC4"/>
<stop offset="1" stop-color="#92979C"/>
</linearGradient>
<linearGradient id="paint1_linear_37963_15619" x1="27.6857" y1="12.0403" x2="38.7403" y2="12.5736" gradientUnits="userSpaceOnUse">
<stop stop-color="#414141"/>
<stop offset="1" stop-color="#222222"/>
</linearGradient>
<radialGradient id="paint2_radial_37963_15619" cx="0" cy="0" r="1" gradientUnits="userSpaceOnUse" gradientTransform="translate(24.1144 18.703) rotate(56.492) scale(25.3873)">
<stop stop-color="#868686"/>
<stop offset="0.325867" stop-color="#5A5A5A"/>
<stop offset="1" stop-color="#222222"/>
</radialGradient>
<linearGradient id="paint3_linear_37963_15619" x1="31.3634" y1="8.94101" x2="21.1257" y2="12.0544" gradientUnits="userSpaceOnUse">
<stop stop-color="#BBBFC4"/>
<stop offset="1" stop-color="#CACDD1"/>
</linearGradient>
</defs>
</svg>
