<svg width="54" height="54" viewBox="0 0 54 54" fill="none" xmlns="http://www.w3.org/2000/svg">
<circle cx="27" cy="27" r="17" fill="url(#paint0_radial_37963_15613)"/>
<path fill-rule="evenodd" clip-rule="evenodd" d="M27 44C36.3888 44 44 36.3888 44 27C44 17.6112 36.3888 10 27 10C17.6112 10 10 17.6112 10 27C10 36.3888 17.6112 44 27 44ZM27.0001 42.5141C35.5683 42.5141 42.5141 35.5683 42.5141 27.0001C42.5141 18.4319 35.5683 11.4861 27.0001 11.4861C18.4319 11.4861 11.4861 18.4319 11.4861 27.0001C11.4861 35.5683 18.4319 42.5141 27.0001 42.5141Z" fill="url(#paint1_radial_37963_15613)"/>
<path fill-rule="evenodd" clip-rule="evenodd" d="M27 44C36.3888 44 44 36.3888 44 27C44 17.6112 36.3888 10 27 10C17.6112 10 10 17.6112 10 27C10 36.3888 17.6112 44 27 44ZM27.0001 42.5141C35.5683 42.5141 42.5141 35.5683 42.5141 27.0001C42.5141 18.4319 35.5683 11.4861 27.0001 11.4861C18.4319 11.4861 11.4861 18.4319 11.4861 27.0001C11.4861 35.5683 18.4319 42.5141 27.0001 42.5141Z" fill="#878E96" fill-opacity="0.2"/>
<path fill-rule="evenodd" clip-rule="evenodd" d="M19.8798 30.9521L24.141 30.9512C24.2636 30.9512 24.3822 31.0222 24.4281 31.1348C24.62 31.6147 24.6125 32.1555 24.4022 32.632C24.0492 33.6593 24.0091 34.7693 24.2862 35.8199C24.5758 36.5427 24.6525 37.8629 25.9886 37.9238C26.4068 37.8621 26.7714 37.6109 26.9817 37.2445C27.0193 37.1794 27.0352 37.1026 27.0352 37.0284C27.0352 37.0284 26.9738 35.7464 27.0352 34.8552C27.0966 33.964 28.8019 31.694 29.886 30.2527C29.9544 30.1609 30.0504 30.1008 30.1639 30.0833C30.5703 30.0224 31.3455 29.9194 31.625 29.8825C31.6904 29.8738 31.7286 29.7917 31.7286 29.7531C31.7286 27.9515 31.7286 25.2564 31.7286 21.668C31.7286 21.6382 31.6927 21.5734 31.629 21.5629C31.4101 21.5267 30.8625 21.4266 30.3099 21.2489C29.6156 21.026 29.0372 20.4986 27.8797 20.108C27.8188 20.0872 27.7512 20.0763 27.6869 20.0763L22.2516 20.0763C21.5497 20.2015 21.0273 20.8015 20.9914 21.5218C20.9814 21.9232 21.0615 22.3204 21.2259 22.6851C21.2493 22.7377 21.2184 22.7928 21.1617 22.8036C20.4648 22.9305 19.5936 24.2532 20.6668 25.3189C20.6951 25.3465 20.6901 25.384 20.6518 25.394C20.0601 25.5451 19.6069 26.0174 19.4684 26.6066C19.415 26.8319 19.4342 27.0648 19.5009 27.2859C19.5794 27.5496 19.7046 27.7967 19.8706 28.017C19.9124 28.0721 19.889 28.1438 19.8222 28.1655C19.233 28.365 18.8274 28.9283 18.8316 29.5692C18.764 30.1976 19.2689 30.9512 19.8798 30.9521ZM33.3969 30.6116L36.4772 30.6116C36.6374 30.6116 36.7592 30.4697 36.7317 30.3153L34.9424 20.2633C34.9149 20.1089 34.7789 19.9962 34.6195 19.9962L33.4803 19.9962C33.3042 19.9962 33.1615 20.1356 33.1615 20.3075L33.1365 30.3562C33.1365 30.4972 33.2525 30.6116 33.3969 30.6116Z" fill="white"/>
<defs>
<radialGradient id="paint0_radial_37963_15613" cx="0" cy="0" r="1" gradientUnits="userSpaceOnUse" gradientTransform="translate(25.4754 17.0096) rotate(73.7184) scale(27.5504)">
<stop stop-color="#C9D0D9"/>
<stop offset="0.34375" stop-color="#BAC0C7"/>
<stop offset="0.96875" stop-color="#A3A9B1"/>
</radialGradient>
<radialGradient id="paint1_radial_37963_15613" cx="0" cy="0" r="1" gradientUnits="userSpaceOnUse" gradientTransform="translate(25.4754 17.0096) rotate(73.7184) scale(27.5504)">
<stop stop-color="#D2D7DD"/>
<stop offset="0.34375" stop-color="#BAC0C7"/>
<stop offset="0.96875" stop-color="#A3A9B1"/>
</radialGradient>
</defs>
</svg>
