<svg width="54" height="54" viewBox="0 0 54 54" fill="none" xmlns="http://www.w3.org/2000/svg">
<circle cx="27" cy="27" r="17" fill="url(#paint0_radial_37963_15600)"/>
<circle cx="27" cy="27" r="17" fill="#E35753" fill-opacity="0.3"/>
<path fill-rule="evenodd" clip-rule="evenodd" d="M27 44C36.3888 44 44 36.3888 44 27C44 17.6112 36.3888 10 27 10C17.6112 10 10 17.6112 10 27C10 36.3888 17.6112 44 27 44ZM27.0001 42.5141C35.5683 42.5141 42.5141 35.5683 42.5141 27.0001C42.5141 18.4319 35.5683 11.4861 27.0001 11.4861C18.4319 11.4861 11.4861 18.4319 11.4861 27.0001C11.4861 35.5683 18.4319 42.5141 27.0001 42.5141Z" fill="url(#paint1_radial_37963_15600)"/>
<path fill-rule="evenodd" clip-rule="evenodd" d="M27 44C36.3888 44 44 36.3888 44 27C44 17.6112 36.3888 10 27 10C17.6112 10 10 17.6112 10 27C10 36.3888 17.6112 44 27 44ZM27.0001 42.5141C35.5683 42.5141 42.5141 35.5683 42.5141 27.0001C42.5141 18.4319 35.5683 11.4861 27.0001 11.4861C18.4319 11.4861 11.4861 18.4319 11.4861 27.0001C11.4861 35.5683 18.4319 42.5141 27.0001 42.5141Z" fill="#B04441" fill-opacity="0.3"/>
<path d="M28.0057 17.6594C28.569 17.6594 29.0211 18.1244 29.0054 18.6874L28.7039 29.4736C28.6888 30.0148 28.2457 30.4457 27.7043 30.4457H26.2953C25.7541 30.4457 25.3112 30.0152 25.2957 29.4743L24.9865 18.6881C24.9704 18.1248 25.4226 17.6594 25.9861 17.6594H28.0057ZM27.0001 36.6613C26.3954 36.6613 25.8763 36.4475 25.4426 36.0199C25.0089 35.5863 24.7952 35.0671 24.8013 34.4624C24.7952 33.8638 25.0089 33.3507 25.4426 32.9232C25.8763 32.4956 26.3954 32.2819 27.0001 32.2819C27.5804 32.2819 28.0904 32.4956 28.5302 32.9232C28.9699 33.3507 29.1929 33.8638 29.199 34.4624C29.1929 34.8655 29.086 35.235 28.8783 35.571C28.6768 35.9008 28.4111 36.1665 28.0812 36.3681C27.7514 36.5635 27.391 36.6613 27.0001 36.6613Z" fill="white"/>
<path d="M27.0004 31.7815C27.7186 31.7816 28.3512 32.0523 28.8783 32.5647C29.411 33.0826 29.6911 33.7218 29.6986 34.4573L29.6996 34.47H29.6986C29.6912 34.9614 29.5603 35.4198 29.3041 35.8342L29.3031 35.8333C29.0603 36.2299 28.739 36.5526 28.3422 36.7952L28.3363 36.7981C27.9278 37.0402 27.479 37.1613 27.0004 37.1614C26.2633 37.1614 25.6177 36.8953 25.0912 36.3762L25.0892 36.3733C24.5621 35.8461 24.2937 35.1984 24.3011 34.4573C24.2962 33.7249 24.5656 33.086 25.0912 32.5676C25.6177 32.0486 26.2633 31.7815 27.0004 31.7815ZM28.0062 17.1594C28.8508 17.1597 29.5288 17.8571 29.5052 18.7014L29.2035 29.4875C29.1808 30.2993 28.5165 30.9455 27.7045 30.9456H26.2953C25.4836 30.9456 24.8195 30.2999 24.7963 29.4885L24.4867 18.7024C24.4625 17.8576 25.1406 17.1596 25.9857 17.1594H28.0062Z" stroke="black" stroke-opacity="0.1"/>
<defs>
<radialGradient id="paint0_radial_37963_15600" cx="0" cy="0" r="1" gradientUnits="userSpaceOnUse" gradientTransform="translate(25.4754 17.0096) rotate(73.7184) scale(27.5504)">
<stop stop-color="#FFCAC9"/>
<stop offset="0.34375" stop-color="#FFB9B7"/>
<stop offset="0.96875" stop-color="#FF6D69"/>
</radialGradient>
<radialGradient id="paint1_radial_37963_15600" cx="0" cy="0" r="1" gradientUnits="userSpaceOnUse" gradientTransform="translate(25.4754 17.0096) rotate(73.7184) scale(27.5504)">
<stop stop-color="#FFCAC9"/>
<stop offset="0.34375" stop-color="#FFB9B7"/>
<stop offset="0.96875" stop-color="#FF635F"/>
</radialGradient>
</defs>
</svg>
