<svg width="54" height="54" viewBox="0 0 54 54" fill="none" xmlns="http://www.w3.org/2000/svg">
<circle cx="27" cy="27" r="17" fill="url(#paint0_radial_37963_15623)"/>
<g opacity="0.5">
<path fill-rule="evenodd" clip-rule="evenodd" d="M27 44C36.3888 44 44 36.3888 44 27C44 17.6112 36.3888 10 27 10C17.6112 10 10 17.6112 10 27C10 36.3888 17.6112 44 27 44ZM27.0001 42.5141C35.5683 42.5141 42.5141 35.5683 42.5141 27.0001C42.5141 18.4319 35.5683 11.4861 27.0001 11.4861C18.4319 11.4861 11.4861 18.4319 11.4861 27.0001C11.4861 35.5683 18.4319 42.5141 27.0001 42.5141Z" fill="url(#paint1_radial_37963_15623)"/>
<path fill-rule="evenodd" clip-rule="evenodd" d="M27 44C36.3888 44 44 36.3888 44 27C44 17.6112 36.3888 10 27 10C17.6112 10 10 17.6112 10 27C10 36.3888 17.6112 44 27 44ZM27.0001 42.5141C35.5683 42.5141 42.5141 35.5683 42.5141 27.0001C42.5141 18.4319 35.5683 11.4861 27.0001 11.4861C18.4319 11.4861 11.4861 18.4319 11.4861 27.0001C11.4861 35.5683 18.4319 42.5141 27.0001 42.5141Z" fill="#C08200" fill-opacity="0.28"/>
</g>
<ellipse opacity="0.3" cx="17.2794" cy="27.896" rx="7.03968" ry="12.6714" fill="url(#paint2_radial_37963_15623)"/>
<ellipse opacity="0.3" cx="7.03968" cy="12.6714" rx="7.03968" ry="12.6714" transform="matrix(-1 0 0 1 44.1366 15.2246)" fill="url(#paint3_radial_37963_15623)"/>
<path opacity="0.5" fill-rule="evenodd" clip-rule="evenodd" d="M36.3233 21.7537C36.3732 21.5759 36.2981 21.3706 36.1393 21.2267C35.2608 20.43 34.2169 19.9072 33.1538 19.8198C32.6042 19.7745 32.0994 19.8527 31.6493 20.0287C31.5354 20.0738 31.4563 20.169 31.4239 20.2846L31.4142 20.3193C31.3152 20.6744 31.6962 21.0669 32.0719 20.9866C32.389 20.9192 32.7277 20.8971 33.0849 20.9266C33.9586 20.9987 34.8191 21.3649 35.5858 21.9346C35.8687 22.1448 36.2416 22.0469 36.3233 21.7537Z" fill="#783E11"/>
<path opacity="0.5" fill-rule="evenodd" clip-rule="evenodd" d="M17.7274 21.7537C17.6774 21.5759 17.7525 21.3706 17.9113 21.2267C18.7898 20.43 19.8337 19.9072 20.8968 19.8198C21.4465 19.7745 21.9512 19.8527 22.4013 20.0287C22.5153 20.0738 22.5943 20.169 22.6268 20.2846L22.6364 20.3193C22.7354 20.6744 22.3544 21.0669 21.9788 20.9866C21.6617 20.9192 21.3229 20.8971 20.9657 20.9266C20.0921 20.9987 19.2316 21.3649 18.4648 21.9346C18.182 22.1448 17.8091 22.0469 17.7274 21.7537Z" fill="#783E11"/>
<ellipse cx="21.9978" cy="25.2137" rx="1.65651" ry="2.42712" fill="#783E11"/>
<ellipse cx="32.0022" cy="25.2137" rx="1.65651" ry="2.42712" fill="#783E11"/>
<g filter="url(#filter0_d_37963_15623)">
<path d="M40.378 19.9375C40.591 19.6836 40.9695 19.6505 41.2233 19.8635L44.0737 22.2553C44.3275 22.4683 44.3607 22.8467 44.1477 23.1006L34.0994 35.0757C33.8864 35.3295 33.5079 35.3626 33.2541 35.1496L30.4037 32.7579C30.1498 32.5449 30.1167 32.1664 30.3297 31.9126L40.378 19.9375Z" fill="#C3C6CA"/>
</g>
<path d="M40.7315 20.8071C40.838 20.6802 41.0273 20.6636 41.1542 20.7701L43.0889 22.3935C43.2158 22.5 43.2323 22.6893 43.1258 22.8162L33.3912 34.4175C33.2847 34.5444 33.0955 34.5609 32.9685 34.4544L31.0339 32.8311C30.9069 32.7246 30.8904 32.5353 30.9969 32.4084L40.7315 20.8071Z" fill="white"/>
<path d="M38.0889 23.9565L40.4838 25.9661L33.3917 34.4181C33.2852 34.545 33.096 34.5616 32.9691 34.4551L31.0338 32.8312C30.9069 32.7247 30.8904 32.5355 30.9969 32.4085L38.0889 23.9565Z" fill="#F03D37"/>
<path opacity="0.15" d="M38.0889 23.9565L39.0836 24.7912L31.7987 33.473L31.0338 32.8312C30.9069 32.7247 30.8904 32.5355 30.9969 32.4085L38.0889 23.9565Z" fill="white"/>
<path opacity="0.3" d="M39.1814 21.3635L40.557 22.5178C40.6977 22.6359 40.7161 22.8457 40.598 22.9864C40.4799 23.1272 40.2701 23.1455 40.1294 23.0274L38.7537 21.8732L39.1814 21.3635Z" fill="#222222"/>
<path opacity="0.4" d="M37.4532 23.4231L38.8288 24.5774C38.9696 24.6955 38.9879 24.9053 38.8698 25.046C38.7517 25.1867 38.5419 25.2051 38.4012 25.087L37.0256 23.9327L37.4532 23.4231Z" fill="#222222"/>
<path opacity="0.4" d="M35.7251 25.4827L37.1007 26.637C37.2415 26.755 37.2598 26.9649 37.1417 27.1056C37.0237 27.2463 36.8138 27.2647 36.6731 27.1466L35.2975 25.9923L35.7251 25.4827Z" fill="#222222"/>
<path opacity="0.4" d="M33.9969 27.542L35.3726 28.6963C35.5133 28.8144 35.5317 29.0242 35.4136 29.1649C35.2955 29.3056 35.0857 29.324 34.945 29.2059L33.5693 28.0516L33.9969 27.542Z" fill="#222222"/>
<path opacity="0.4" d="M32.2689 29.6016L33.6445 30.7559C33.7852 30.8739 33.8036 31.0838 33.6855 31.2245C33.5674 31.3652 33.3576 31.3836 33.2169 31.2655L31.8412 30.1112L32.2689 29.6016Z" fill="#222222"/>
<path fill-rule="evenodd" clip-rule="evenodd" d="M20.4045 35.4779C20.4045 35.7461 20.7463 35.8941 20.9739 35.7245C22.8379 34.3371 25.0854 33.4763 27.5054 33.4768C29.9259 33.4772 32.1724 34.3393 34.0354 35.7272C34.2631 35.8968 34.6048 35.7488 34.6048 35.481V34.6151C34.6048 34.5237 34.5625 34.435 34.4883 34.3743C32.5412 32.7714 30.1255 31.5976 27.5058 31.5972C24.8862 31.5967 22.4695 32.7691 20.5215 34.3711C20.4473 34.4323 20.405 34.5206 20.405 34.6119L20.4045 35.4779Z" fill="#783E11"/>
<defs>
<filter id="filter0_d_37963_15623" x="28.1893" y="19.7231" width="18.0987" height="19.5669" filterUnits="userSpaceOnUse" color-interpolation-filters="sRGB">
<feFlood flood-opacity="0" result="BackgroundImageFix"/>
<feColorMatrix in="SourceAlpha" type="matrix" values="0 0 0 0 0 0 0 0 0 0 0 0 0 0 0 0 0 0 127 0" result="hardAlpha"/>
<feOffset dy="2"/>
<feGaussianBlur stdDeviation="1"/>
<feComposite in2="hardAlpha" operator="out"/>
<feColorMatrix type="matrix" values="0 0 0 0 0.807843 0 0 0 0 0.588235 0 0 0 0 0.207843 0 0 0 0.5 0"/>
<feBlend mode="normal" in2="BackgroundImageFix" result="effect1_dropShadow_37963_15623"/>
<feBlend mode="normal" in="SourceGraphic" in2="effect1_dropShadow_37963_15623" result="shape"/>
</filter>
<radialGradient id="paint0_radial_37963_15623" cx="0" cy="0" r="1" gradientUnits="userSpaceOnUse" gradientTransform="translate(25.4754 17.0096) rotate(73.7184) scale(27.5504)">
<stop stop-color="#FFF1AA"/>
<stop offset="0.34375" stop-color="#FFE564"/>
<stop offset="0.760417" stop-color="#F4CC00"/>
<stop offset="1" stop-color="#F29E0B"/>
</radialGradient>
<radialGradient id="paint1_radial_37963_15623" cx="0" cy="0" r="1" gradientUnits="userSpaceOnUse" gradientTransform="translate(25.4754 17.0096) rotate(73.7184) scale(27.5504)">
<stop stop-color="#FBEB9D"/>
<stop offset="0.34375" stop-color="#F6E071"/>
<stop offset="0.786458" stop-color="#ECC91A"/>
<stop offset="1" stop-color="#E3BE00"/>
</radialGradient>
<radialGradient id="paint2_radial_37963_15623" cx="0" cy="0" r="1" gradientUnits="userSpaceOnUse" gradientTransform="translate(15.6024 27.896) rotate(90) scale(11.7938 7.08711)">
<stop stop-color="#FF2727"/>
<stop offset="1" stop-color="#F6E071" stop-opacity="0.07"/>
</radialGradient>
<radialGradient id="paint3_radial_37963_15623" cx="0" cy="0" r="1" gradientUnits="userSpaceOnUse" gradientTransform="translate(5.36263 12.6714) rotate(89.7087) scale(11.503 6.91237)">
<stop stop-color="#FF2727"/>
<stop offset="1" stop-color="#F6E071" stop-opacity="0.07"/>
</radialGradient>
</defs>
</svg>
