<svg width="54" height="54" viewBox="0 0 54 54" fill="none" xmlns="http://www.w3.org/2000/svg">
<circle cx="27" cy="27" r="17" fill="url(#paint0_radial_37963_15630)"/>
<g opacity="0.5">
<path fill-rule="evenodd" clip-rule="evenodd" d="M27 44C36.3888 44 44 36.3888 44 27C44 17.6112 36.3888 10 27 10C17.6112 10 10 17.6112 10 27C10 36.3888 17.6112 44 27 44ZM27.0001 42.5141C35.5683 42.5141 42.5141 35.5683 42.5141 27.0001C42.5141 18.4319 35.5683 11.4861 27.0001 11.4861C18.4319 11.4861 11.4861 18.4319 11.4861 27.0001C11.4861 35.5683 18.4319 42.5141 27.0001 42.5141Z" fill="url(#paint1_radial_37963_15630)"/>
<path fill-rule="evenodd" clip-rule="evenodd" d="M27 44C36.3888 44 44 36.3888 44 27C44 17.6112 36.3888 10 27 10C17.6112 10 10 17.6112 10 27C10 36.3888 17.6112 44 27 44ZM27.0001 42.5141C35.5683 42.5141 42.5141 35.5683 42.5141 27.0001C42.5141 18.4319 35.5683 11.4861 27.0001 11.4861C18.4319 11.4861 11.4861 18.4319 11.4861 27.0001C11.4861 35.5683 18.4319 42.5141 27.0001 42.5141Z" fill="#C08200" fill-opacity="0.28"/>
</g>
<path fill-rule="evenodd" clip-rule="evenodd" d="M35.6587 31.7004C35.6587 34.8325 32.7602 39.3019 26.8884 39.3019C21.0167 39.3019 18.1177 34.8325 18.1177 31.7011C18.1177 29.8952 21.9267 31.3539 26.8884 31.3539C31.8508 31.3539 35.6587 29.9211 35.6587 31.7004Z" fill="#783E11"/>
<path d="M30.6309 36.7507C31.3612 40.7147 29.4749 42.8808 26.8902 42.8571C24.3055 42.8334 22.2536 40.4336 23.2386 36.6012C23.6024 35.1856 24.038 34.0177 24.5155 33.1093C24.6429 32.8671 24.9251 32.7564 25.1908 32.8217C25.6748 32.9405 26.4542 33.1066 27.0382 33.1088C27.6275 33.111 28.4121 32.9479 28.9084 32.8279C29.1875 32.7605 29.4825 32.8872 29.5984 33.15C30.0048 34.0715 30.3578 35.2683 30.6309 36.7507Z" fill="#FF4A45"/>
<path d="M30.6309 36.7507C31.3612 40.7147 29.4749 42.8808 26.8902 42.8571C24.3055 42.8334 22.2536 40.4336 23.2386 36.6012C23.6024 35.1856 24.038 34.0177 24.5155 33.1093C24.6429 32.8671 24.9251 32.7564 25.1908 32.8217C25.6748 32.9405 26.4542 33.1066 27.0382 33.1088C27.6275 33.111 28.4121 32.9479 28.9084 32.8279C29.1875 32.7605 29.4825 32.8872 29.5984 33.15C30.0048 34.0715 30.3578 35.2683 30.6309 36.7507Z" fill="url(#paint2_linear_37963_15630)"/>
<path opacity="0.3" d="M29.4358 37.0796C29.9329 39.7779 28.6489 41.2524 26.8895 41.2362C25.1301 41.2201 23.7334 39.5866 24.4039 36.9779C24.5545 36.3917 25.7181 37.1764 26.8895 37.1786C28.0978 37.1808 29.3142 36.4199 29.4358 37.0796Z" fill="white"/>
<ellipse cx="31.6109" cy="23.4271" rx="1.65651" ry="2.42712" fill="#783E11"/>
<path fill-rule="evenodd" clip-rule="evenodd" d="M21.9602 21.5622C20.8907 21.4684 19.8631 21.7669 18.9634 22.3514C18.9001 22.3929 18.8592 22.4633 18.8525 22.5395L18.7928 23.2426C18.7772 23.427 18.9634 23.5632 19.1295 23.4847C19.8734 23.1298 20.6841 22.9629 21.5201 23.0365C22.5994 23.1307 23.5695 23.6101 24.3615 24.3543C24.5071 24.4918 24.7441 24.3985 24.761 24.1973L24.8581 23.0599C24.8648 22.9832 24.8363 22.9066 24.7802 22.8552C23.9922 22.125 23.0288 21.6551 21.9602 21.5622Z" fill="#783E11"/>
<defs>
<radialGradient id="paint0_radial_37963_15630" cx="0" cy="0" r="1" gradientUnits="userSpaceOnUse" gradientTransform="translate(25.4754 17.0096) rotate(73.7184) scale(27.5504)">
<stop stop-color="#FFF1AA"/>
<stop offset="0.34375" stop-color="#FFE564"/>
<stop offset="0.760417" stop-color="#F4CC00"/>
<stop offset="1" stop-color="#F29E0B"/>
</radialGradient>
<radialGradient id="paint1_radial_37963_15630" cx="0" cy="0" r="1" gradientUnits="userSpaceOnUse" gradientTransform="translate(25.4754 17.0096) rotate(73.7184) scale(27.5504)">
<stop stop-color="#FBEB9D"/>
<stop offset="0.34375" stop-color="#F6E071"/>
<stop offset="0.786458" stop-color="#ECC91A"/>
<stop offset="1" stop-color="#E3BE00"/>
</radialGradient>
<linearGradient id="paint2_linear_37963_15630" x1="26.8882" y1="39.3915" x2="26.8882" y2="32.7035" gradientUnits="userSpaceOnUse">
<stop stop-color="#FF4A45"/>
<stop offset="1" stop-color="#FF7F7B"/>
</linearGradient>
</defs>
</svg>
