<svg width="54" height="54" viewBox="0 0 54 54" fill="none" xmlns="http://www.w3.org/2000/svg">
<path d="M34.0562 25.2347C31.1064 25.2347 28.8572 25.8216 26.0325 28.1696L23.7086 31.0329C24.713 27.1423 23.9015 21.1042 23.9015 21.1042L24.951 20.5923C26.0267 20.1972 27.1684 19.2108 27.9868 18.3925C28.7334 17.6458 28.9099 16.5293 28.5446 15.5386L28.3493 15.0091V14.5221C28.3493 13.359 27.677 12.3007 26.6241 11.8064L23.222 10.2095C22.1981 9.72882 20.985 9.86116 20.1756 10.6512C19.0581 11.7419 17.6095 13.4079 17.2394 15.0091V18.3889C17.2394 18.3889 14.1463 24.3306 13.0568 28.1696C12.0332 31.7764 11.8787 37.1166 11.8688 39.6954C11.8651 40.6659 12.2439 41.5899 12.903 42.3022L12.9319 42.3334C13.6014 43.0569 14.5131 43.5085 15.4959 43.5857C17.0854 43.7106 19.6024 43.8813 21.4804 43.8813C26.6869 43.8813 38.5705 43.2253 41.0339 41.1972C44.6762 38.1984 44.173 34.2666 42.4369 31.3086C40.3964 27.832 37.0061 25.2347 34.0562 25.2347Z" fill="url(#paint0_radial_37963_15620)"/>
<path fill-rule="evenodd" clip-rule="evenodd" d="M24.951 20.5923C26.0198 20.1997 27.1539 19.2233 27.9711 18.4081C28.7283 17.6527 28.9023 16.5089 28.5323 15.5053C28.4122 15.1796 28.3493 14.8314 28.3493 14.4842C28.3493 13.3442 27.6903 12.3069 26.6584 11.8225L23.0937 10.1492C22.1485 9.70551 21.0306 9.82758 20.2783 10.5516C19.1487 11.6387 17.6209 13.3584 17.2394 15.0091V18.3889C17.2394 18.3889 14.1462 24.3306 13.0568 28.1696C12.036 31.7666 11.8796 37.0876 11.8689 39.6743C11.8648 40.6584 12.2489 41.5954 12.9173 42.3176C13.5962 43.0513 14.521 43.5093 15.5175 43.5874C17.1081 43.7121 19.6108 43.8813 21.4804 43.8813C26.6869 43.8813 38.5705 43.2253 41.0339 41.1972C44.6761 38.1984 44.173 34.2666 42.4369 31.3086C40.3964 27.832 37.0061 25.2347 34.0562 25.2347C31.1064 25.2347 28.8572 25.8216 26.0325 28.1696L23.7085 31.0329C23.8713 30.4024 23.9864 29.7154 24.065 29.0069C24.4713 25.3437 23.9015 21.1042 23.9015 21.1042L24.951 20.5923ZM22.9104 21.2373C22.8531 20.8102 23.0758 20.3944 23.4631 20.2055L24.5584 19.6712L24.6062 19.6536C25.4537 19.3423 26.4557 18.5073 27.2649 17.7001C27.7053 17.2607 27.8498 16.5448 27.594 15.8513C27.4336 15.4161 27.3493 14.9508 27.3493 14.4842C27.3493 13.7319 26.9145 13.0474 26.2334 12.7277L22.6688 11.0544C22.052 10.7649 21.3901 10.8695 20.9717 11.2722C20.4307 11.7928 19.8086 12.4517 19.2824 13.1635C18.7765 13.8478 18.4022 14.5238 18.2394 15.1314V18.6336L18.1264 18.8507L18.1183 18.8661L18.0932 18.9149C18.0709 18.9581 18.0378 19.0225 17.9951 19.1062C17.9098 19.2735 17.7862 19.5175 17.6343 19.8228C17.3305 20.4335 16.914 21.2874 16.4642 22.2596C15.5574 24.2191 14.5406 26.6039 14.0188 28.4426C13.0402 31.8911 12.8796 37.0832 12.8689 39.6785C12.8659 40.396 13.1457 41.0921 13.6513 41.6384C14.1638 42.1923 14.8564 42.5325 15.5957 42.5905C17.1851 42.7151 19.6535 42.8813 21.4804 42.8813C24.0532 42.8813 28.2901 42.7187 32.1801 42.3054C34.1264 42.0986 35.9632 41.8314 37.4522 41.4966C38.1968 41.3291 38.8369 41.1486 39.3518 40.9574C39.8797 40.7613 40.2154 40.5757 40.3983 40.4252C42.0161 39.0932 42.6607 37.612 42.7544 36.1726C42.8503 34.6991 42.3728 33.1751 41.5744 31.8148C40.618 30.1852 39.3494 28.7712 37.9944 27.773C36.6289 26.7671 35.2482 26.2347 34.0562 26.2347C32.649 26.2347 31.4676 26.3748 30.3217 26.7676C29.1983 27.1527 28.0563 27.7991 26.7464 28.8769L24.485 31.6631C24.1886 32.0282 23.678 32.1375 23.2581 31.9257C22.8383 31.714 22.6227 31.2383 22.7403 30.783C23.2046 28.9846 23.2589 26.623 23.1824 24.6483C23.1447 23.6736 23.0762 22.8169 23.0172 22.2044C22.9877 21.8984 22.9607 21.6542 22.9412 21.4876C22.9314 21.4043 22.9236 21.3405 22.9182 21.2981L22.9122 21.2509L22.9107 21.2399L22.9104 21.2373Z" fill="#CD942F" fill-opacity="0.7"/>
<path opacity="0.8" d="M20.4735 34.0446C20.2875 33.8013 20.3719 33.4431 20.6393 33.2956C20.9054 33.1488 21.2192 32.9613 21.4484 32.7803C21.6866 32.592 21.9654 32.3062 22.1864 32.0654C22.3928 31.8405 22.7519 31.848 22.9368 32.09C23.0741 32.2697 23.0687 32.5227 22.9178 32.692C22.685 32.9533 22.3337 33.3285 22.0428 33.5583C21.7561 33.7849 21.3368 34.0215 21.0443 34.1759C20.8475 34.2797 20.6089 34.222 20.4735 34.0446Z" fill="#CD942F"/>
<path opacity="0.8" d="M24.6542 35.5247C24.9362 35.4131 25.0468 35.0671 24.8942 34.8057C24.7386 34.539 24.561 34.2096 24.4545 33.9312C24.3439 33.642 24.248 33.2457 24.1798 32.9216C24.1176 32.626 23.8077 32.45 23.5272 32.561C23.318 32.6437 23.1939 32.8622 23.2372 33.0835C23.305 33.4293 23.4174 33.9377 23.5516 34.2884C23.6838 34.6341 23.9257 35.0583 24.0989 35.3436C24.2139 35.5331 24.4477 35.6064 24.6542 35.5247Z" fill="#CD942F"/>
<path opacity="0.8" d="M21.9307 14.8197C21.9307 14.5922 22.1151 14.4077 22.3426 14.4077H24.0794C24.1391 14.4077 24.1959 14.4204 24.2471 14.4433C24.335 14.4825 24.4158 14.5423 24.4786 14.6152L25.6555 15.9802C25.8027 16.1509 25.7857 16.4108 25.6175 16.5609C25.5539 16.6176 25.477 16.6607 25.3959 16.6866C25.3728 16.694 25.3486 16.6995 25.3238 16.7029L22.4126 17.1014C22.4034 17.1026 22.3941 17.1036 22.3849 17.1042C22.3688 17.1062 22.3524 17.1072 22.3358 17.1072C22.1121 17.1072 21.9307 16.9258 21.9307 16.7021L21.9307 14.9079C21.9307 14.8789 21.9307 14.8498 21.9307 14.8207L21.9307 14.8197Z" fill="#CD942F"/>
<path opacity="0.8" d="M28.7326 37.7602C28.3713 37.453 28.6801 36.8236 29.1481 36.9022C30.5227 37.1332 32.3924 37.3565 33.7991 37.1809C35.1697 37.0097 36.8514 36.366 38.0979 35.8157C38.5204 35.6292 38.9575 36.1644 38.6769 36.5318C38.6546 36.5611 38.6299 36.5864 38.6005 36.6084C38.2856 36.8442 36.2758 38.2902 33.9678 38.5784C31.6867 38.8633 29.2812 37.9963 28.8541 37.8328C28.8096 37.8158 28.7689 37.791 28.7326 37.7602Z" fill="#CD942F"/>
<defs>
<radialGradient id="paint0_radial_37963_15620" cx="0" cy="0" r="1" gradientTransform="matrix(11.7167 22.9034 -20.3985 10.6201 22.0242 20.4258)" gradientUnits="userSpaceOnUse">
<stop stop-color="#FBEB9D"/>
<stop offset="0.34375" stop-color="#F6E071"/>
<stop offset="1" stop-color="#ECC91A"/>
</radialGradient>
</defs>
</svg>
