<svg width="54" height="54" viewBox="0 0 54 54" fill="none" xmlns="http://www.w3.org/2000/svg">
<path d="M17.9937 42.8339L24.5384 38.0989C24.6626 38.009 24.7047 37.8429 24.6291 37.7096C23.3111 35.3837 18.4451 30.6893 16.2588 30.3513C16.2093 30.3436 16.1615 30.3569 16.1201 30.3851L10.3659 34.3167C9.72553 34.7543 9.63075 35.6619 10.167 36.2224L16.3496 42.6845C16.7834 43.1379 17.4853 43.2017 17.9937 42.8339Z" fill="#62A9F3"/>
<path d="M17.9937 42.8339L24.5384 38.0989C24.6626 38.009 24.7047 37.8429 24.6291 37.7096C23.3111 35.3837 18.4451 30.6893 16.2588 30.3513C16.2093 30.3436 16.1615 30.3569 16.1201 30.3851L10.3659 34.3167C9.72553 34.7543 9.63075 35.6619 10.167 36.2224L16.3496 42.6845C16.7834 43.1379 17.4853 43.2017 17.9937 42.8339Z" fill="url(#paint0_radial_37963_15608)"/>
<path d="M21.2607 19.5738C19.6372 24.2068 18.2226 28.7469 17.5048 30.4C15.4942 32.1077 12.9116 33.8353 11.2841 34.8749C10.4877 35.3837 10.3438 36.502 11.001 37.1812L15.536 41.8676C16.3085 42.6658 17.569 42.7222 18.4061 41.9919C20.0966 40.517 22.8666 38.0843 24.8014 36.3043C26.0846 35.1238 26.7703 33.8432 26.7703 32.9818C26.7703 31.8572 26.6259 28.0502 26.7703 23.534C26.9517 17.859 26.8274 9.86866 26.7289 9.24588C26.5953 8.40104 25.4455 7.99752 24.8376 7.97738C24.1986 7.95621 23.0621 8.52281 22.9553 9.24588C22.8484 9.96895 22.6846 10.996 22.4735 12.4363C22.2625 13.8766 21.8598 16.4262 21.2607 19.5738Z" fill="#FFE560"/>
<path d="M21.2607 19.5738C19.6372 24.2068 18.2226 28.7469 17.5048 30.4C15.4942 32.1077 12.9116 33.8353 11.2841 34.8749C10.4877 35.3837 10.3438 36.502 11.001 37.1812L15.536 41.8676C16.3085 42.6658 17.569 42.7222 18.4061 41.9919C20.0966 40.517 22.8666 38.0843 24.8014 36.3043C26.0846 35.1238 26.7703 33.8432 26.7703 32.9818C26.7703 31.8572 26.6259 28.0502 26.7703 23.534C26.9517 17.859 26.8274 9.86866 26.7289 9.24588C26.5953 8.40104 25.4455 7.99752 24.8376 7.97738C24.1986 7.95621 23.0621 8.52281 22.9553 9.24588C22.8484 9.96895 22.6846 10.996 22.4735 12.4363C22.2625 13.8766 21.8598 16.4262 21.2607 19.5738Z" fill="url(#paint1_radial_37963_15608)"/>
<path d="M16.1048 38.8546C15.7464 39.1379 15.536 39.5665 15.536 40.0233L15.536 41.0203C15.536 41.5636 15.7293 42.1327 16.2305 42.3426C16.9425 42.6409 17.7892 42.5299 18.406 41.9918C20.0966 40.5169 22.8665 38.0842 24.8014 36.3041C26.0845 35.1237 26.7703 33.8431 26.7703 32.9817C26.7703 31.8571 26.7703 24.1675 26.7703 19.6489C26.7703 19.6489 25.4882 29.1979 22.8372 32.592C21.0952 34.8224 17.4981 37.753 16.1048 38.8546Z" fill="url(#paint2_linear_37963_15608)"/>
<path fill-rule="evenodd" clip-rule="evenodd" d="M23.9687 8.7798C23.6356 8.98231 23.492 9.19437 23.473 9.32237C23.4296 9.6162 23.3788 9.94751 23.3201 10.3301C23.2297 10.9191 23.1207 11.6297 22.9914 12.5122C22.7794 13.9588 22.3756 16.5158 21.7749 19.6717L21.7676 19.71L21.7546 19.7469C21.113 21.5781 20.5042 23.3941 19.9572 25.026C19.8134 25.4548 19.6739 25.8709 19.5392 26.2713C18.8959 28.1832 18.3548 29.7566 17.9849 30.6085L17.9364 30.7201L17.8436 30.799C15.8049 32.5304 13.1978 34.2735 11.5659 35.316C11.0415 35.651 10.9557 36.3817 11.3772 36.8172L15.9122 41.5035C16.4919 42.1027 17.4359 42.1437 18.0619 41.5975C19.7525 40.1225 22.5178 37.6939 24.447 35.919C25.0549 35.3598 25.5117 34.7853 25.8136 34.2619C26.1204 33.7299 26.2468 33.2865 26.2468 32.9818C26.2468 32.7276 26.2391 32.3256 26.229 31.8014C26.1954 30.0661 26.136 26.9924 26.2471 23.5173C26.3375 20.6893 26.3518 17.2805 26.3311 14.4992C26.3208 13.109 26.3017 11.8776 26.2791 10.9559C26.2678 10.4948 26.2557 10.113 26.2434 9.8284C26.2305 9.52892 26.2185 9.36958 26.2119 9.32764C26.1814 9.13493 26.0237 8.93408 25.7089 8.76102C25.4002 8.59129 25.0411 8.50782 24.8203 8.5005C24.6323 8.49428 24.2887 8.58531 23.9687 8.7798ZM23.425 7.88525C23.8598 7.62096 24.4039 7.43928 24.8549 7.45423C25.2419 7.46705 25.7617 7.59541 26.2133 7.84368C26.6587 8.08862 27.1427 8.51195 27.2459 9.16409C27.2638 9.27784 27.2773 9.50444 27.2893 9.7833C27.302 10.077 27.3143 10.466 27.3257 10.9303C27.3484 11.8593 27.3676 13.0969 27.3779 14.4915C27.3987 17.2798 27.3844 20.7036 27.2934 23.5507C27.1835 26.9909 27.2415 30.0014 27.2752 31.7471C27.2856 32.2888 27.2937 32.7086 27.2937 32.9818C27.2937 33.5385 27.0773 34.166 26.7205 34.7849C26.3587 35.4122 25.8311 36.0682 25.1558 36.6895C23.2153 38.4747 20.4406 40.9114 18.7502 42.3863C17.7021 43.3007 16.1251 43.229 15.1599 42.2315L10.6249 37.5452C9.73187 36.6224 9.9338 35.1163 11.0023 34.4338C12.5998 33.4133 15.1032 31.7385 17.0721 30.0804C17.4195 29.254 17.9265 27.7813 18.547 25.9374C18.681 25.5391 18.82 25.1244 18.9635 24.6965C19.5071 23.0749 20.1142 21.2637 20.7538 19.4376C21.3473 16.316 21.7463 13.7886 21.9556 12.3604C22.0834 11.4885 22.1964 10.751 22.2887 10.1496C22.3472 9.76794 22.3973 9.44106 22.4374 9.16936C22.5254 8.57429 23.0034 8.14152 23.425 7.88525Z" fill="url(#paint3_linear_37963_15608)"/>
<path d="M16.8145 44.379L24.5718 38.0853C24.6534 38.0191 24.5965 37.8802 24.4914 37.8837C20.7366 38.0067 16.1731 33.1545 16.307 30.4816C16.3115 30.39 16.2077 30.3246 16.1313 30.3754L8.85028 35.2146C8.85028 35.2146 9.72916 37.8098 12.0092 40.3609C14.2892 42.9121 16.8145 44.379 16.8145 44.379Z" fill="#62A9F3"/>
<path d="M16.8145 44.379L24.5718 38.0853C24.6534 38.0191 24.5965 37.8802 24.4914 37.8837C20.7366 38.0067 16.1731 33.1545 16.307 30.4816C16.3115 30.39 16.2077 30.3246 16.1313 30.3754L8.85028 35.2146C8.85028 35.2146 9.72916 37.8098 12.0092 40.3609C14.2892 42.9121 16.8145 44.379 16.8145 44.379Z" fill="url(#paint4_radial_37963_15608)"/>
<path fill-rule="evenodd" clip-rule="evenodd" d="M23.5816 37.822C23.488 37.8068 23.3943 37.7891 23.3003 37.7688C20.2647 37.1134 17.0831 33.8456 16.4267 31.436C16.4215 31.4169 16.4165 31.3979 16.4116 31.3789C16.3448 31.1193 16.3079 30.8701 16.3044 30.6358C16.3036 30.5836 16.3044 30.5322 16.307 30.4816C16.3115 30.39 16.2077 30.3246 16.1313 30.3754L8.85028 35.2146C8.85028 35.2146 9.72916 37.8098 12.0092 40.3609C14.2892 42.9121 16.8145 44.379 16.8145 44.379L24.5718 38.0853C24.6534 38.0191 24.5965 37.8802 24.4914 37.8837C24.4642 37.8846 24.437 37.8852 24.4097 37.8856C24.137 37.8893 23.8603 37.8672 23.5816 37.822ZM22.3027 38.5782C20.7836 38.0697 19.3476 37.0741 18.2155 35.9858C17.3563 35.1599 16.6143 34.2275 16.0896 33.2976C15.8618 32.8938 15.6634 32.4701 15.5175 32.0403L10.144 35.6117C10.2394 35.8218 10.3584 36.07 10.5029 36.3469C10.9779 37.2577 11.7209 38.4674 12.7897 39.6634C13.8709 40.8731 15.0159 41.8315 15.894 42.4885C16.2212 42.7333 16.5094 42.9348 16.741 43.0906L22.3027 38.5782Z" fill="#3287E1" fill-opacity="0.4"/>
<mask id="mask0_37963_15608" style="mask-type:alpha" maskUnits="userSpaceOnUse" x="8" y="30" width="17" height="15">
<path d="M16.8145 44.379L24.5718 38.0853C24.6534 38.019 24.5965 37.8802 24.4914 37.8837C20.7366 38.0067 16.1731 33.1545 16.307 30.4816C16.3115 30.39 16.2077 30.3246 16.1313 30.3754L8.85028 35.2145C8.85028 35.2145 9.72916 37.8097 12.0092 40.3609C14.2892 42.9121 16.8145 44.379 16.8145 44.379Z" fill="url(#paint5_radial_37963_15608)"/>
</mask>
<g mask="url(#mask0_37963_15608)">
<path d="M12.8651 41.5407L16.515 44.7401C18.2055 43.2652 23.1376 39.4412 25.0725 37.6611C26.3557 36.4807 26.7703 33.8431 26.7703 32.9817L22.8372 32.592C20.7484 35.4061 12.8651 41.5407 12.8651 41.5407Z" fill="black" fill-opacity="0.1"/>
</g>
<path fill-rule="evenodd" clip-rule="evenodd" d="M25.9418 11.7663C25.7939 11.6555 25.6283 11.6555 25.4017 11.6555C25.0424 11.6555 24.7765 11.8764 24.7091 12.3051C24.6594 12.6217 24.5853 13.1776 24.4926 13.8731C24.3952 14.604 24.2773 15.4889 24.1455 16.412C24.0203 17.2892 23.8306 18.5131 23.6726 19.5156C23.5935 20.0173 23.5222 20.4643 23.4707 20.7859L23.3875 21.3035L23.3812 21.3426L22.8504 23.0041C22.7624 23.2795 22.4679 23.4314 22.1925 23.3434C21.9171 23.2555 21.7652 22.9609 21.8532 22.6856L22.3602 21.0985L22.437 20.6204C22.4885 20.2994 22.5596 19.8532 22.6385 19.3526C22.7965 18.3504 22.9851 17.1331 23.1092 16.2641C23.2366 15.3713 23.3542 14.4901 23.4524 13.7538C23.5476 13.0403 23.6246 12.4628 23.675 12.1426C23.8119 11.2713 24.4624 10.6087 25.4017 10.6087C25.8034 10.6087 26.2229 10.714 26.5693 10.9734C26.9252 11.2399 27.1652 11.6409 27.2375 12.1503C27.2522 12.2543 27.2615 12.4818 27.2694 12.7508C27.2778 13.0373 27.2856 13.4147 27.2927 13.85C27.3121 15.0403 27.2994 13.0917 27.3486 14.2812C27.3509 14.6818 27.3526 15.0143 27.3537 15.2467L27.3554 15.6109C27.3566 15.9 27.1232 16.1357 26.8342 16.137C26.5451 16.1382 26.3355 15.8998 26.3343 15.6107L26.3326 15.2467C26.3315 15.0146 26.3349 14.6815 26.3326 14.2812C26.3417 13.6044 26.2976 12.9382 26.2484 12.2634C26.236 12.0919 26.1218 11.9011 25.9418 11.7663Z" fill="#CD942F" fill-opacity="0.8"/>
<path d="M36.457 42.8339L29.9123 38.0989C29.7881 38.009 29.746 37.8429 29.8216 37.7096C31.1396 35.3837 36.0056 30.6893 38.1919 30.3513C38.2414 30.3436 38.2892 30.3569 38.3306 30.3851L44.0847 34.3167C44.7252 34.7543 44.8199 35.6619 44.2837 36.2224L38.101 42.6845C37.6673 43.1379 36.9654 43.2017 36.457 42.8339Z" fill="#62A9F3"/>
<path d="M36.457 42.8339L29.9123 38.0989C29.7881 38.009 29.746 37.8429 29.8216 37.7096C31.1396 35.3837 36.0056 30.6893 38.1919 30.3513C38.2414 30.3436 38.2892 30.3569 38.3306 30.3851L44.0847 34.3167C44.7252 34.7543 44.8199 35.6619 44.2837 36.2224L38.101 42.6845C37.6673 43.1379 36.9654 43.2017 36.457 42.8339Z" fill="url(#paint6_radial_37963_15608)"/>
<path d="M33.19 19.5738C34.8135 24.2068 36.2281 28.7469 36.9459 30.4C38.9565 32.1077 41.5391 33.8353 43.1666 34.8749C43.963 35.3837 44.1069 36.502 43.4497 37.1812L38.9146 41.8676C38.1421 42.6658 36.8817 42.7222 36.0446 41.9919C34.3541 40.517 31.5841 38.0843 29.6492 36.3043C28.3661 35.1238 27.6804 33.8432 27.6804 32.9818C27.6804 31.8572 27.8247 28.0502 27.6804 23.534C27.499 17.859 27.6233 9.86866 27.7218 9.24588C27.8554 8.40104 29.0052 7.99752 29.6131 7.97738C30.252 7.95621 31.3886 8.52281 31.4954 9.24588C31.6023 9.96895 31.7661 10.996 31.9771 12.4363C32.1882 13.8766 32.5909 16.4262 33.19 19.5738Z" fill="#FFE560"/>
<path d="M33.19 19.5738C34.8135 24.2068 36.2281 28.7469 36.9459 30.4C38.9565 32.1077 41.5391 33.8353 43.1666 34.8749C43.963 35.3837 44.1069 36.502 43.4497 37.1812L38.9146 41.8676C38.1421 42.6658 36.8817 42.7222 36.0446 41.9919C34.3541 40.517 31.5841 38.0843 29.6492 36.3043C28.3661 35.1238 27.6804 33.8432 27.6804 32.9818C27.6804 31.8572 27.8247 28.0502 27.6804 23.534C27.499 17.859 27.6233 9.86866 27.7218 9.24588C27.8554 8.40104 29.0052 7.99752 29.6131 7.97738C30.252 7.95621 31.3886 8.52281 31.4954 9.24588C31.6023 9.96895 31.7661 10.996 31.9771 12.4363C32.1882 13.8766 32.5909 16.4262 33.19 19.5738Z" fill="url(#paint7_radial_37963_15608)"/>
<path d="M38.3459 38.8546C38.7043 39.1379 38.9147 39.5665 38.9147 40.0233L38.9147 41.0203C38.9147 41.5636 38.7214 42.1327 38.2202 42.3426C37.5082 42.6409 36.6615 42.5299 36.0446 41.9918C34.3541 40.5169 31.5842 38.0842 29.6493 36.3041C28.3661 35.1237 27.6804 33.8431 27.6804 32.9817C27.6804 31.8571 27.6804 24.1675 27.6804 19.6489C27.6804 19.6489 28.9625 29.1979 31.6135 32.592C33.3555 34.8224 36.9526 37.753 38.3459 38.8546Z" fill="url(#paint8_linear_37963_15608)"/>
<path fill-rule="evenodd" clip-rule="evenodd" d="M30.4819 8.7798C30.8151 8.98231 30.9587 9.19437 30.9776 9.32237C31.0211 9.6162 31.0719 9.94751 31.1306 10.3301C31.2209 10.9191 31.33 11.6297 31.4593 12.5122C31.6712 13.9588 32.0751 16.5158 32.6758 19.6717L32.6831 19.71L32.696 19.7469C33.3377 21.5781 33.9465 23.3941 34.4935 25.026C34.6373 25.4548 34.7768 25.8709 34.9115 26.2713C35.5548 28.1832 36.0959 29.7566 36.4658 30.6085L36.5143 30.7201L36.6071 30.799C38.6457 32.5304 41.2529 34.2735 42.8848 35.316C43.4092 35.651 43.495 36.3817 43.0735 36.8172L38.5385 41.5035C37.9587 42.1027 37.0148 42.1437 36.3887 41.5975C34.6981 40.1225 31.9329 37.6939 30.0037 35.919C29.3958 35.3598 28.939 34.7853 28.6371 34.2619C28.3303 33.7299 28.2038 33.2865 28.2038 32.9818C28.2038 32.7276 28.2116 32.3256 28.2217 31.8014C28.2553 30.0661 28.3146 26.9924 28.2036 23.5173C28.1132 20.6893 28.0989 17.2805 28.1196 14.4992C28.1299 13.109 28.149 11.8776 28.1716 10.9559C28.1829 10.4948 28.195 10.113 28.2073 9.8284C28.2202 9.52892 28.2322 9.36958 28.2388 9.32764C28.2693 9.13493 28.427 8.93408 28.7418 8.76102C29.0505 8.59129 29.4095 8.50782 29.6304 8.5005C29.8184 8.49428 30.162 8.58531 30.4819 8.7798ZM31.0257 7.88525C30.5909 7.62096 30.0468 7.43928 29.5958 7.45423C29.2088 7.46705 28.689 7.59541 28.2374 7.84368C27.7919 8.08862 27.308 8.51195 27.2048 9.16409C27.1868 9.27784 27.1734 9.50444 27.1614 9.7833C27.1487 10.077 27.1364 10.466 27.125 10.9303C27.1023 11.8593 27.0831 13.0969 27.0728 14.4915C27.052 17.2798 27.0663 20.7036 27.1573 23.5507C27.2672 26.9909 27.2092 30.0014 27.1755 31.7471C27.1651 32.2888 27.157 32.7086 27.157 32.9818C27.157 33.5385 27.3734 34.166 27.7302 34.7849C28.092 35.4122 28.6196 36.0682 29.2949 36.6895C31.2354 38.4747 34.0101 40.9114 35.7005 42.3863C36.7486 43.3007 38.3256 43.229 39.2908 42.2315L43.8258 37.5452C44.7188 36.6224 44.5169 35.1163 43.4484 34.4338C41.8509 33.4133 39.3474 31.7385 37.3786 30.0804C37.0312 29.254 36.5241 27.7813 35.9037 25.9374C35.7697 25.5391 35.6306 25.1244 35.4872 24.6965C34.9436 23.0749 34.3364 21.2637 33.6969 19.4376C33.1034 16.316 32.7043 13.7886 32.4951 12.3604C32.3673 11.4885 32.2542 10.751 32.162 10.1496C32.1035 9.76794 32.0534 9.44106 32.0132 9.16936C31.9253 8.57429 31.4473 8.14152 31.0257 7.88525Z" fill="url(#paint9_linear_37963_15608)"/>
<path d="M37.6362 44.379L29.8789 38.0853C29.7973 38.0191 29.8542 37.8802 29.9592 37.8837C33.7141 38.0067 38.2776 33.1545 38.1437 30.4816C38.1391 30.39 38.243 30.3246 38.3194 30.3754L45.6004 35.2146C45.6004 35.2146 44.7215 37.8098 42.4415 40.3609C40.1615 42.9121 37.6362 44.379 37.6362 44.379Z" fill="#62A9F3"/>
<path d="M37.6362 44.379L29.8789 38.0853C29.7973 38.0191 29.8542 37.8802 29.9592 37.8837C33.7141 38.0067 38.2776 33.1545 38.1437 30.4816C38.1391 30.39 38.243 30.3246 38.3194 30.3754L45.6004 35.2146C45.6004 35.2146 44.7215 37.8098 42.4415 40.3609C40.1615 42.9121 37.6362 44.379 37.6362 44.379Z" fill="url(#paint10_radial_37963_15608)"/>
<path fill-rule="evenodd" clip-rule="evenodd" d="M30.8691 37.822C30.9627 37.8068 31.0564 37.7891 31.1503 37.7688C34.186 37.1134 37.3676 33.8456 38.024 31.436C38.0292 31.4169 38.0342 31.3979 38.0391 31.3789C38.1059 31.1193 38.1427 30.8701 38.1463 30.6358C38.1471 30.5836 38.1463 30.5322 38.1437 30.4816C38.1391 30.39 38.243 30.3246 38.3194 30.3754L45.6004 35.2146C45.6004 35.2146 44.7215 37.8098 42.4415 40.3609C40.1615 42.9121 37.6362 44.379 37.6362 44.379L29.8789 38.0853C29.7973 38.0191 29.8542 37.8802 29.9592 37.8837C29.9864 37.8846 30.0137 37.8852 30.041 37.8856C30.3137 37.8893 30.5904 37.8672 30.8691 37.822ZM32.1479 38.5782C33.6671 38.0697 35.1031 37.0741 36.2352 35.9858C37.0944 35.1599 37.8364 34.2275 38.3611 33.2976C38.5889 32.8938 38.7873 32.4701 38.9332 32.0403L44.3067 35.6117C44.2113 35.8218 44.0922 36.07 43.9478 36.3469C43.4728 37.2577 42.7298 38.4674 41.661 39.6634C40.5798 40.8731 39.4347 41.8315 38.5567 42.4885C38.2295 42.7333 37.9413 42.9348 37.7097 43.0906L32.1479 38.5782Z" fill="#3287E1" fill-opacity="0.4"/>
<mask id="mask1_37963_15608" style="mask-type:alpha" maskUnits="userSpaceOnUse" x="29" y="30" width="17" height="15">
<path d="M37.6362 44.379L29.8789 38.0853C29.7973 38.019 29.8542 37.8802 29.9592 37.8837C33.7141 38.0067 38.2776 33.1545 38.1437 30.4816C38.1391 30.39 38.243 30.3246 38.3194 30.3754L45.6004 35.2145C45.6004 35.2145 44.7215 37.8097 42.4415 40.3609C40.1615 42.9121 37.6362 44.379 37.6362 44.379Z" fill="url(#paint11_radial_37963_15608)"/>
</mask>
<g mask="url(#mask1_37963_15608)">
<path d="M41.5856 41.5407L37.9357 44.7401C36.2451 43.2652 31.3131 39.4412 29.3782 37.6611C28.095 36.4807 27.6804 33.8431 27.6804 32.9817L31.6135 32.592C33.7022 35.4061 41.5856 41.5407 41.5856 41.5407Z" fill="black" fill-opacity="0.1"/>
</g>
<path fill-rule="evenodd" clip-rule="evenodd" d="M28.5089 11.7663C28.6568 11.6555 28.8223 11.6555 29.0489 11.6555C29.4083 11.6555 29.6742 11.8764 29.7416 12.3051C29.7913 12.6217 29.8654 13.1776 29.9581 13.8731C30.0555 14.604 30.1734 15.4889 30.3052 16.412C30.4304 17.2892 30.6201 18.5131 30.7781 19.5156C30.8572 20.0173 30.9285 20.4643 30.98 20.7859L31.0632 21.3035L31.0695 21.3426L31.6003 23.0041C31.6883 23.2795 31.9828 23.4314 32.2582 23.3434C32.5336 23.2555 32.6855 22.9609 32.5975 22.6856L32.0905 21.0985L32.0136 20.6204C31.9622 20.2994 31.8911 19.8532 31.8122 19.3526C31.6542 18.3504 31.4656 17.1331 31.3415 16.2641C31.2141 15.3713 31.0965 14.4901 30.9983 13.7538C30.9031 13.0403 30.826 12.4628 30.7757 12.1426C30.6388 11.2713 29.9883 10.6087 29.0489 10.6087C28.6473 10.6087 28.2278 10.714 27.8813 10.9734C27.5255 11.2399 27.2855 11.6409 27.2132 12.1503C27.1984 12.2543 27.1892 12.4818 27.1813 12.7508C27.1728 13.0373 27.1651 13.4147 27.158 13.85C27.1386 15.0403 27.1513 13.0917 27.1021 14.2812C27.0998 14.6818 27.0981 15.0143 27.097 15.2467L27.0953 15.6109C27.0941 15.9 27.3274 16.1357 27.6165 16.137C27.9056 16.1382 28.1151 15.8998 28.1164 15.6107L28.118 15.2467C28.1192 15.0146 28.1158 14.6815 28.118 14.2812C28.109 13.6044 28.1531 12.9382 28.2022 12.2634C28.2147 12.0919 28.3289 11.9011 28.5089 11.7663Z" fill="#CD942F" fill-opacity="0.8"/>
<defs>
<radialGradient id="paint0_radial_37963_15608" cx="0" cy="0" r="1" gradientTransform="matrix(3.99003 -0.557746 0.217351 4.64575 16.2367 33.7582)" gradientUnits="userSpaceOnUse">
<stop stop-color="#70B6FF"/>
<stop offset="0.34375" stop-color="#62A9F3"/>
<stop offset="0.96875" stop-color="#3D93EC"/>
</radialGradient>
<radialGradient id="paint1_radial_37963_15608" cx="0" cy="0" r="1" gradientTransform="matrix(-10.0782 35.9979 -22.6213 6.22845 25.6622 7.97681)" gradientUnits="userSpaceOnUse">
<stop stop-color="#FBEB9D"/>
<stop offset="0.450094" stop-color="#F6E071"/>
<stop offset="1" stop-color="#ECC91A"/>
</radialGradient>
<linearGradient id="paint2_linear_37963_15608" x1="26.7964" y1="33.1243" x2="21.1531" y2="33.061" gradientUnits="userSpaceOnUse">
<stop stop-color="#783E11" stop-opacity="0.22"/>
<stop offset="1" stop-color="#783E11" stop-opacity="0.1"/>
</linearGradient>
<linearGradient id="paint3_linear_37963_15608" x1="22.9903" y1="28.2578" x2="27.3863" y2="29.8018" gradientUnits="userSpaceOnUse">
<stop stop-color="#CD942F"/>
<stop offset="1" stop-color="#C18B2C"/>
</linearGradient>
<radialGradient id="paint4_radial_37963_15608" cx="0" cy="0" r="1" gradientTransform="matrix(3.77727 10.9017 -12.9327 3.1841 16.1153 33.2308)" gradientUnits="userSpaceOnUse">
<stop stop-color="#70B6FF"/>
<stop offset="0.34375" stop-color="#3D8BDC"/>
<stop offset="0.96875" stop-color="#1A7ADE"/>
</radialGradient>
<radialGradient id="paint5_radial_37963_15608" cx="0" cy="0" r="1" gradientTransform="matrix(3.77727 10.9017 -12.9327 3.1841 16.1153 33.2308)" gradientUnits="userSpaceOnUse">
<stop stop-color="#70B6FF"/>
<stop offset="0.34375" stop-color="#62A9F3"/>
<stop offset="0.96875" stop-color="#0361C4"/>
</radialGradient>
<radialGradient id="paint6_radial_37963_15608" cx="0" cy="0" r="1" gradientTransform="matrix(-3.99003 -0.557746 -0.217351 4.64575 38.214 33.7582)" gradientUnits="userSpaceOnUse">
<stop stop-color="#70B6FF"/>
<stop offset="0.34375" stop-color="#62A9F3"/>
<stop offset="0.96875" stop-color="#3D93EC"/>
</radialGradient>
<radialGradient id="paint7_radial_37963_15608" cx="0" cy="0" r="1" gradientTransform="matrix(10.0782 35.9979 22.6213 6.22845 28.7885 7.97681)" gradientUnits="userSpaceOnUse">
<stop stop-color="#FBEB9D"/>
<stop offset="0.450094" stop-color="#F6E071"/>
<stop offset="1" stop-color="#ECC91A"/>
</radialGradient>
<linearGradient id="paint8_linear_37963_15608" x1="27.6543" y1="33.1243" x2="33.2976" y2="33.061" gradientUnits="userSpaceOnUse">
<stop stop-color="#783E11" stop-opacity="0.22"/>
<stop offset="1" stop-color="#783E11" stop-opacity="0.1"/>
</linearGradient>
<linearGradient id="paint9_linear_37963_15608" x1="31.4604" y1="28.2578" x2="27.0644" y2="29.8018" gradientUnits="userSpaceOnUse">
<stop stop-color="#CD942F"/>
<stop offset="1" stop-color="#C18B2C"/>
</linearGradient>
<radialGradient id="paint10_radial_37963_15608" cx="0" cy="0" r="1" gradientTransform="matrix(-3.77727 10.9017 12.9327 3.1841 38.3354 33.2308)" gradientUnits="userSpaceOnUse">
<stop stop-color="#70B6FF"/>
<stop offset="0.34375" stop-color="#3D8BDC"/>
<stop offset="0.96875" stop-color="#1A7ADE"/>
</radialGradient>
<radialGradient id="paint11_radial_37963_15608" cx="0" cy="0" r="1" gradientTransform="matrix(-3.77727 10.9017 12.9327 3.1841 38.3354 33.2308)" gradientUnits="userSpaceOnUse">
<stop stop-color="#70B6FF"/>
<stop offset="0.34375" stop-color="#62A9F3"/>
<stop offset="0.96875" stop-color="#0361C4"/>
</radialGradient>
</defs>
</svg>
