<svg width="54" height="54" viewBox="0 0 54 54" fill="none" xmlns="http://www.w3.org/2000/svg">
<path fill-rule="evenodd" clip-rule="evenodd" d="M42.3641 21.8659C40.8164 26.629 37.3422 29.769 34.6041 28.8794C31.866 27.9897 30.9009 23.4072 32.4485 18.6442C33.9961 13.8811 37.4704 10.741 40.2085 11.6307C42.9466 12.5204 43.9117 17.1028 42.3641 21.8659ZM39.4578 20.9216C38.3929 24.1989 36.6112 26.5573 35.4781 26.1891C34.3451 25.821 34.2899 22.8658 35.3547 19.5885C36.4196 16.3112 38.2013 13.9528 39.3343 14.321C40.4674 14.6891 40.5226 17.6443 39.4578 20.9216ZM30.0099 22.8695C28.4623 27.6326 24.988 30.7726 22.2499 29.883C19.5118 28.9933 18.5468 24.4108 20.0944 19.6478C21.642 14.8847 25.1163 11.7446 27.8544 12.6343C30.5925 13.524 31.5575 18.1064 30.0099 22.8695ZM27.1989 21.9561C26.1214 25.2721 24.2869 27.648 23.1013 27.2628C21.9157 26.8775 21.828 23.8771 22.9054 20.5611C23.9828 17.2451 25.8174 14.8692 27.003 15.2545C28.1886 15.6397 28.2763 18.6401 27.1989 21.9561ZM39.9091 36.6562C39.9342 37.3461 39.3953 37.9258 38.7054 37.9509C28.7079 38.3149 23.2301 39.9281 16.2085 42.4461C15.5587 42.6791 14.8429 42.3413 14.6099 41.6914C14.3769 41.0416 14.7147 40.3259 15.3646 40.0928C22.5438 37.5183 28.2836 35.8287 38.6144 35.4525C39.3043 35.4274 39.8839 35.9663 39.9091 36.6562ZM37.4662 33.3859C38.1561 33.3614 38.6954 32.7821 38.6709 32.0922C38.6463 31.4023 38.0671 30.8629 37.3772 30.8875C28.3877 31.2077 24.4542 32.2593 17.4441 34.576C16.7886 34.7926 16.4328 35.4996 16.6494 36.1551C16.866 36.8106 17.573 37.1663 18.2285 36.9497C25.0775 34.6863 28.772 33.6956 37.4662 33.3859Z" fill="#FF4A45"/>
<path fill-rule="evenodd" clip-rule="evenodd" d="M19.6032 12.9758C20.0567 13.285 20.2555 13.854 20.0932 14.3783L13.8825 34.6573C13.6784 35.3167 12.7563 35.7793 12.0968 35.5752C11.4373 35.371 10.8544 34.6908 11.0586 34.0313L16.1753 17.5029L13.2423 19.847C12.7031 20.2781 11.9165 20.1903 11.4855 19.651C11.0545 19.1118 11.1422 18.3252 11.6815 17.8942L17.7918 13.0105C18.2206 12.6678 19.1496 12.6666 19.6032 12.9758Z" fill="#FF4A45"/>
</svg>
