<svg width="54" height="54" viewBox="0 0 54 54" fill="none" xmlns="http://www.w3.org/2000/svg">
<circle cx="27" cy="27" r="17" fill="url(#paint0_radial_37963_15639)"/>
<g opacity="0.5">
<path fill-rule="evenodd" clip-rule="evenodd" d="M27 44C36.3888 44 44 36.3888 44 27C44 17.6112 36.3888 10 27 10C17.6112 10 10 17.6112 10 27C10 36.3888 17.6112 44 27 44ZM27.0001 42.5141C35.5683 42.5141 42.5141 35.5683 42.5141 27.0001C42.5141 18.4319 35.5683 11.4861 27.0001 11.4861C18.4319 11.4861 11.4861 18.4319 11.4861 27.0001C11.4861 35.5683 18.4319 42.5141 27.0001 42.5141Z" fill="url(#paint1_radial_37963_15639)"/>
<path fill-rule="evenodd" clip-rule="evenodd" d="M27 44C36.3888 44 44 36.3888 44 27C44 17.6112 36.3888 10 27 10C17.6112 10 10 17.6112 10 27C10 36.3888 17.6112 44 27 44ZM27.0001 42.5141C35.5683 42.5141 42.5141 35.5683 42.5141 27.0001C42.5141 18.4319 35.5683 11.4861 27.0001 11.4861C18.4319 11.4861 11.4861 18.4319 11.4861 27.0001C11.4861 35.5683 18.4319 42.5141 27.0001 42.5141Z" fill="#C08200" fill-opacity="0.28"/>
</g>
<path fill-rule="evenodd" clip-rule="evenodd" d="M34.9166 20.8582C34.9086 20.766 34.8595 20.6806 34.7823 20.6309C33.9415 20.092 32.9832 19.8174 31.9859 19.905C30.9898 19.9917 30.0907 20.4256 29.3519 21.1013C29.2839 21.1634 29.2495 21.2565 29.2579 21.3487L29.3347 22.2569C29.3557 22.5 29.639 22.6092 29.8191 22.4477C30.5474 21.7971 31.4272 21.3793 32.4006 21.2939C33.1515 21.2284 33.8802 21.3678 34.5543 21.6704C34.7567 21.7614 34.98 21.602 34.9611 21.3784L34.9166 20.8582Z" fill="#783E11"/>
<path fill-rule="evenodd" clip-rule="evenodd" d="M20.3572 19.9049C19.3494 19.8165 18.3811 20.0979 17.5332 20.6487C17.4735 20.6878 17.4349 20.7541 17.4286 20.8259L17.3724 21.4885C17.3577 21.6623 17.5332 21.7907 17.6897 21.7167C18.3907 21.3822 19.1547 21.225 19.9425 21.2943C20.9596 21.3831 21.8738 21.8349 22.6201 22.5361C22.7574 22.6657 22.9807 22.5778 22.9967 22.3882L23.0882 21.3164C23.0945 21.2441 23.0676 21.1719 23.0147 21.1234C22.2722 20.4353 21.3642 19.9925 20.3572 19.9049Z" fill="#783E11"/>
<path fill-rule="evenodd" clip-rule="evenodd" d="M37.6445 28.092C37.6445 32.1975 34.0897 38.0561 26.8884 38.0561C19.6871 38.0561 16.1318 32.1975 16.1318 28.0928C16.1318 25.7256 20.8032 27.6377 26.8884 27.6377C32.9744 27.6377 37.6445 25.7596 37.6445 28.092Z" fill="#B26423"/>
<path fill-rule="evenodd" clip-rule="evenodd" d="M36.1615 29.0142C36.1615 32.0385 33.1808 36.8686 26.8883 36.8686C20.5958 36.8686 17.6147 32.0385 17.6147 29.015C17.6147 27.3851 21.7665 28.9368 26.8883 28.9368C32.0101 28.9368 36.1615 27.4179 36.1615 29.0142Z" fill="white"/>
<defs>
<radialGradient id="paint0_radial_37963_15639" cx="0" cy="0" r="1" gradientUnits="userSpaceOnUse" gradientTransform="translate(25.4754 17.0096) rotate(73.7184) scale(27.5504)">
<stop stop-color="#FFF1AA"/>
<stop offset="0.34375" stop-color="#FFE564"/>
<stop offset="0.760417" stop-color="#F4CC00"/>
<stop offset="1" stop-color="#F29E0B"/>
</radialGradient>
<radialGradient id="paint1_radial_37963_15639" cx="0" cy="0" r="1" gradientUnits="userSpaceOnUse" gradientTransform="translate(25.4754 17.0096) rotate(73.7184) scale(27.5504)">
<stop stop-color="#FBEB9D"/>
<stop offset="0.34375" stop-color="#F6E071"/>
<stop offset="0.786458" stop-color="#ECC91A"/>
<stop offset="1" stop-color="#E3BE00"/>
</radialGradient>
</defs>
</svg>
