<svg width="54" height="54" viewBox="0 0 54 54" fill="none" xmlns="http://www.w3.org/2000/svg">
<circle cx="27" cy="27" r="17" fill="url(#paint0_radial_37963_15599)"/>
<circle cx="27" cy="27" r="17" fill="#6FBA36" fill-opacity="0.3"/>
<path fill-rule="evenodd" clip-rule="evenodd" d="M27 44C36.3888 44 44 36.3888 44 27C44 17.6112 36.3888 10 27 10C17.6112 10 10 17.6112 10 27C10 36.3888 17.6112 44 27 44ZM27.0001 42.5141C35.5683 42.5141 42.5141 35.5683 42.5141 27.0001C42.5141 18.4319 35.5683 11.4861 27.0001 11.4861C18.4319 11.4861 11.4861 18.4319 11.4861 27.0001C11.4861 35.5683 18.4319 42.5141 27.0001 42.5141Z" fill="url(#paint1_radial_37963_15599)"/>
<path fill-rule="evenodd" clip-rule="evenodd" d="M27 44C36.3888 44 44 36.3888 44 27C44 17.6112 36.3888 10 27 10C17.6112 10 10 17.6112 10 27C10 36.3888 17.6112 44 27 44ZM27.0001 42.5141C35.5683 42.5141 42.5141 35.5683 42.5141 27.0001C42.5141 18.4319 35.5683 11.4861 27.0001 11.4861C18.4319 11.4861 11.4861 18.4319 11.4861 27.0001C11.4861 35.5683 18.4319 42.5141 27.0001 42.5141Z" fill="#86BF52" fill-opacity="0.3"/>
<mask id="path-3-outside-1_37963_15599" maskUnits="userSpaceOnUse" x="19.319" y="18.9351" width="16" height="21" fill="black">
<rect fill="white" x="19.319" y="18.9351" width="16" height="21"/>
<path fill-rule="evenodd" clip-rule="evenodd" d="M34.0242 26.7877C34.0242 28.558 32.7227 30.1716 31.6207 31.3877C31.2286 31.8203 31.2066 32.2637 31.1865 32.6689C31.1422 33.5595 31.1072 34.2653 27.1716 34.2653C23.2171 34.2653 23.1631 33.5527 23.0953 32.656C23.0649 32.2544 23.0317 31.8157 22.6438 31.3877C21.5418 30.1716 20.319 28.558 20.319 26.7877C20.319 23.0031 23.387 19.9351 27.1716 19.9351C30.9562 19.9351 34.0242 23.0031 34.0242 26.7877ZM24.1758 36.8336C24.1758 36.1203 24.754 35.5422 25.4672 35.5422H28.6631C29.3764 35.5422 29.9545 36.1203 29.9545 36.8336C29.9545 37.5468 29.3764 38.125 28.6631 38.125H25.4672C24.754 38.125 24.1758 37.5468 24.1758 36.8336ZM29.9751 29.567C30.6579 28.8134 31.4645 27.8135 31.4645 26.7165C31.4645 24.3712 29.5633 22.4701 27.218 22.4701C24.8728 22.4701 22.9716 24.3712 22.9716 26.7165C22.9716 27.8135 23.7294 28.8134 24.4123 29.567C24.6518 29.8314 24.7103 30.1669 24.7691 30.5045C24.9009 31.2617 25.0347 32.0295 27.218 32.0295C29.3928 32.0295 29.5109 31.2678 29.6279 30.5136C29.6807 30.1729 29.7333 29.8338 29.9751 29.567Z"/>
</mask>
<path fill-rule="evenodd" clip-rule="evenodd" d="M34.0242 26.7877C34.0242 28.558 32.7227 30.1716 31.6207 31.3877C31.2286 31.8203 31.2066 32.2637 31.1865 32.6689C31.1422 33.5595 31.1072 34.2653 27.1716 34.2653C23.2171 34.2653 23.1631 33.5527 23.0953 32.656C23.0649 32.2544 23.0317 31.8157 22.6438 31.3877C21.5418 30.1716 20.319 28.558 20.319 26.7877C20.319 23.0031 23.387 19.9351 27.1716 19.9351C30.9562 19.9351 34.0242 23.0031 34.0242 26.7877ZM24.1758 36.8336C24.1758 36.1203 24.754 35.5422 25.4672 35.5422H28.6631C29.3764 35.5422 29.9545 36.1203 29.9545 36.8336C29.9545 37.5468 29.3764 38.125 28.6631 38.125H25.4672C24.754 38.125 24.1758 37.5468 24.1758 36.8336ZM29.9751 29.567C30.6579 28.8134 31.4645 27.8135 31.4645 26.7165C31.4645 24.3712 29.5633 22.4701 27.218 22.4701C24.8728 22.4701 22.9716 24.3712 22.9716 26.7165C22.9716 27.8135 23.7294 28.8134 24.4123 29.567C24.6518 29.8314 24.7103 30.1669 24.7691 30.5045C24.9009 31.2617 25.0347 32.0295 27.218 32.0295C29.3928 32.0295 29.5109 31.2678 29.6279 30.5136C29.6807 30.1729 29.7333 29.8338 29.9751 29.567Z" fill="white"/>
<path d="M31.6207 31.3877L32.3617 32.0592L31.6207 31.3877ZM31.1865 32.6689L32.1852 32.7185V32.7185L31.1865 32.6689ZM23.0953 32.656L22.0981 32.7315H22.0981L23.0953 32.656ZM22.6438 31.3877L23.3848 30.7162H23.3848L22.6438 31.3877ZM29.9751 29.567L30.7161 30.2385H30.7161L29.9751 29.567ZM24.4123 29.567L25.1533 28.8955H25.1533L24.4123 29.567ZM24.7691 30.5045L25.7543 30.333V30.333L24.7691 30.5045ZM29.6279 30.5136L28.6397 30.3603L29.6279 30.5136ZM31.6207 31.3877L32.3617 32.0592C32.923 31.4397 33.5788 30.6726 34.0946 29.8077C34.6099 28.9434 35.0242 27.9181 35.0242 26.7877H34.0242H33.0242C33.0242 27.4276 32.7877 28.0943 32.3768 28.7834C31.9663 29.4718 31.4203 30.1196 30.8797 30.7162L31.6207 31.3877ZM31.1865 32.6689L32.1852 32.7185C32.1959 32.503 32.2047 32.3933 32.2308 32.2943C32.2509 32.2186 32.2829 32.1461 32.3617 32.0592L31.6207 31.3877L30.8797 30.7162C30.229 31.4342 30.2081 32.2083 30.1877 32.6193L31.1865 32.6689ZM27.1716 34.2653V35.2653C28.1798 35.2653 28.9722 35.2205 29.5952 35.131C30.2083 35.0429 30.7235 34.9029 31.1325 34.6704C31.5794 34.4164 31.8745 34.0652 32.0315 33.6418C32.1657 33.28 32.1758 32.9078 32.1852 32.7185L31.1865 32.6689L30.1877 32.6193C30.1818 32.7378 30.1778 32.809 30.1702 32.8709C30.1631 32.928 30.1561 32.9469 30.1564 32.9463C30.1714 32.9057 30.2034 32.898 30.1441 32.9317C30.0468 32.987 29.8126 33.0792 29.3108 33.1513C28.819 33.2219 28.1312 33.2653 27.1716 33.2653V34.2653ZM23.0953 32.656L22.0981 32.7315C22.1127 32.9237 22.1327 33.2946 22.275 33.654C22.4402 34.0712 22.7383 34.417 23.1859 34.6686C23.5975 34.9 24.1152 35.0409 24.7336 35.1298C25.3613 35.22 26.1584 35.2653 27.1716 35.2653V34.2653V33.2653C26.2075 33.2653 25.5149 33.2215 25.0182 33.1501C24.5122 33.0774 24.2706 32.984 24.166 32.9252C24.1205 32.8997 24.1126 32.8871 24.1198 32.8951C24.1228 32.8985 24.1265 32.9034 24.13 32.9092C24.1334 32.9147 24.1347 32.9182 24.1345 32.9176C24.124 32.8911 24.1118 32.8367 24.0924 32.5806L23.0953 32.656ZM22.6438 31.3877L21.9028 32.0592C21.9835 32.1482 22.0188 32.2246 22.0416 32.3049C22.0705 32.4067 22.082 32.5185 22.0981 32.7315L23.0953 32.656L24.0924 32.5806C24.0615 32.1725 24.0209 31.4181 23.3848 30.7162L22.6438 31.3877ZM20.319 26.7877H19.319C19.319 28.9788 20.8063 30.8492 21.9028 32.0592L22.6438 31.3877L23.3848 30.7162C22.2772 29.494 21.319 28.1373 21.319 26.7877H20.319ZM27.1716 19.9351V18.9351C22.8347 18.9351 19.319 22.4508 19.319 26.7877H20.319H21.319C21.319 23.5554 23.9393 20.9351 27.1716 20.9351V19.9351ZM34.0242 26.7877H35.0242C35.0242 22.4508 31.5085 18.9351 27.1716 18.9351V19.9351V20.9351C30.4039 20.9351 33.0242 23.5554 33.0242 26.7877H34.0242ZM25.4672 35.5422V34.5422C24.2017 34.5422 23.1758 35.5681 23.1758 36.8336H24.1758H25.1758C25.1758 36.6726 25.3062 36.5422 25.4672 36.5422V35.5422ZM28.6631 35.5422V34.5422H25.4672V35.5422V36.5422H28.6631V35.5422ZM29.9545 36.8336H30.9545C30.9545 35.5681 29.9286 34.5422 28.6631 34.5422V35.5422V36.5422C28.8241 36.5422 28.9545 36.6726 28.9545 36.8336H29.9545ZM28.6631 38.125V39.125C29.9286 39.125 30.9545 38.0991 30.9545 36.8336H29.9545H28.9545C28.9545 36.9945 28.8241 37.125 28.6631 37.125V38.125ZM25.4672 38.125V39.125H28.6631V38.125V37.125H25.4672V38.125ZM24.1758 36.8336H23.1758C23.1758 38.0991 24.2017 39.125 25.4672 39.125V38.125V37.125C25.3062 37.125 25.1758 36.9945 25.1758 36.8336H24.1758ZM31.4645 26.7165H30.4645C30.4645 27.0198 30.3517 27.3647 30.1169 27.7584C29.8826 28.1515 29.5651 28.5302 29.234 28.8955L29.9751 29.567L30.7161 30.2385C31.0679 29.8503 31.4951 29.3523 31.8347 28.7827C32.1739 28.2138 32.4645 27.5102 32.4645 26.7165H31.4645ZM27.218 22.4701V23.4701C29.011 23.4701 30.4645 24.9235 30.4645 26.7165H31.4645H32.4645C32.4645 23.819 30.1156 21.4701 27.218 21.4701V22.4701ZM22.9716 26.7165H23.9716C23.9716 24.9235 25.4251 23.4701 27.218 23.4701V22.4701V21.4701C24.3205 21.4701 21.9716 23.819 21.9716 26.7165H22.9716ZM24.4123 29.567L25.1533 28.8955C24.4648 28.1358 23.9716 27.3928 23.9716 26.7165H22.9716H21.9716C21.9716 28.2343 22.9939 29.491 23.6712 30.2385L24.4123 29.567ZM24.7691 30.5045L25.7543 30.333C25.7039 30.044 25.618 29.4084 25.1533 28.8955L24.4123 29.567L23.6712 30.2385C23.6719 30.2393 23.6865 30.2534 23.7078 30.3184C23.7337 30.3978 23.7522 30.4943 23.7839 30.6761L24.7691 30.5045ZM27.218 32.0295V31.0295C26.1953 31.0295 25.9293 30.8397 25.8881 30.8032C25.8632 30.7811 25.8283 30.7579 25.7543 30.333L24.7691 30.5045L23.7839 30.6761C23.8418 31.0084 23.9396 31.7477 24.5604 32.2988C25.1649 32.8355 26.0574 33.0295 27.218 33.0295V32.0295ZM29.6279 30.5136L28.6397 30.3603C28.5735 30.7872 28.5394 30.7987 28.5252 30.8115C28.4937 30.8399 28.2399 31.0295 27.218 31.0295V32.0295V33.0295C28.3709 33.0295 29.2635 32.8383 29.864 32.2973C30.4818 31.7406 30.5653 30.9942 30.6161 30.6668L29.6279 30.5136ZM29.9751 29.567L29.234 28.8955C28.7594 29.4193 28.6846 30.0705 28.6397 30.3603L29.6279 30.5136L30.6161 30.6668C30.6446 30.4829 30.6613 30.3874 30.6855 30.3095C30.6957 30.2767 30.7041 30.2586 30.7089 30.2497C30.7131 30.2417 30.7153 30.2393 30.7161 30.2385L29.9751 29.567Z" fill="black" fill-opacity="0.05" mask="url(#path-3-outside-1_37963_15599)"/>
<path opacity="0.7" fill-rule="evenodd" clip-rule="evenodd" d="M27.0863 13.9531C27.6386 13.9531 28.0863 14.4008 28.0863 14.9531V17.4531C28.0863 18.0054 27.6386 18.4531 27.0863 18.4531C26.534 18.4531 26.0863 18.0054 26.0863 17.4531V14.9531C26.0863 14.4008 26.534 13.9531 27.0863 13.9531Z" fill="white"/>
<path opacity="0.7" fill-rule="evenodd" clip-rule="evenodd" d="M35.504 16.3915C35.9249 16.749 35.9764 17.38 35.6189 17.801L34.0006 19.7066C33.6431 20.1275 33.012 20.179 32.5911 19.8215C32.1701 19.464 32.1187 18.8329 32.4762 18.4119L34.0944 16.5064C34.4519 16.0854 35.083 16.034 35.504 16.3915Z" fill="white"/>
<path opacity="0.7" fill-rule="evenodd" clip-rule="evenodd" d="M18.5909 16.3132C18.1507 16.6467 18.0643 17.274 18.3978 17.7142L19.9077 19.7067C20.2413 20.1469 20.8685 20.2333 21.3087 19.8998C21.7489 19.5662 21.8353 18.939 21.5017 18.4988L19.9918 16.5062C19.6583 16.0661 19.031 15.9796 18.5909 16.3132Z" fill="white"/>
<path opacity="0.7" fill-rule="evenodd" clip-rule="evenodd" d="M14.6791 23.646C14.5272 24.177 14.8346 24.7306 15.3656 24.8824L17.7693 25.5697C18.3003 25.7216 18.8538 25.4142 19.0057 24.8832C19.1575 24.3522 18.8501 23.7986 18.3191 23.6468L15.9154 22.9595C15.3844 22.8077 14.8309 23.115 14.6791 23.646Z" fill="white"/>
<path opacity="0.7" fill-rule="evenodd" clip-rule="evenodd" d="M39.7427 23.2876C39.8945 23.8186 39.5872 24.3722 39.0562 24.524L36.6525 25.2113C36.1215 25.3632 35.5679 25.0558 35.4161 24.5248C35.2643 23.9938 35.5716 23.4402 36.1026 23.2884L38.5063 22.6011C39.0373 22.4493 39.5909 22.7566 39.7427 23.2876Z" fill="white"/>
<defs>
<radialGradient id="paint0_radial_37963_15599" cx="0" cy="0" r="1" gradientUnits="userSpaceOnUse" gradientTransform="translate(25.4754 17.0096) rotate(73.7184) scale(27.5504)">
<stop stop-color="#C1F09B"/>
<stop offset="0.34375" stop-color="#ABEB78"/>
<stop offset="0.96875" stop-color="#7FCD31"/>
</radialGradient>
<radialGradient id="paint1_radial_37963_15599" cx="0" cy="0" r="1" gradientUnits="userSpaceOnUse" gradientTransform="translate(25.4754 17.0096) rotate(73.7184) scale(27.5504)">
<stop stop-color="#A1D27B"/>
<stop offset="0.34375" stop-color="#97CE6A"/>
<stop offset="0.96875" stop-color="#8BC555"/>
</radialGradient>
</defs>
</svg>
