<svg width="54" height="54" viewBox="0 0 54 54" fill="none" xmlns="http://www.w3.org/2000/svg">
<circle cx="27" cy="27" r="17" fill="url(#paint0_radial_37963_15632)"/>
<g opacity="0.5">
<path fill-rule="evenodd" clip-rule="evenodd" d="M27 44C36.3888 44 44 36.3888 44 27C44 17.6112 36.3888 10 27 10C17.6112 10 10 17.6112 10 27C10 36.3888 17.6112 44 27 44ZM27.0001 42.5141C35.5683 42.5141 42.5141 35.5683 42.5141 27.0001C42.5141 18.4319 35.5683 11.4861 27.0001 11.4861C18.4319 11.4861 11.4861 18.4319 11.4861 27.0001C11.4861 35.5683 18.4319 42.5141 27.0001 42.5141Z" fill="url(#paint1_radial_37963_15632)"/>
<path fill-rule="evenodd" clip-rule="evenodd" d="M27 44C36.3888 44 44 36.3888 44 27C44 17.6112 36.3888 10 27 10C17.6112 10 10 17.6112 10 27C10 36.3888 17.6112 44 27 44ZM27.0001 42.5141C35.5683 42.5141 42.5141 35.5683 42.5141 27.0001C42.5141 18.4319 35.5683 11.4861 27.0001 11.4861C18.4319 11.4861 11.4861 18.4319 11.4861 27.0001C11.4861 35.5683 18.4319 42.5141 27.0001 42.5141Z" fill="#C08200" fill-opacity="0.28"/>
</g>
<ellipse cx="27.1453" cy="35.5808" rx="3.25686" ry="4.59153" fill="#B26423"/>
<path d="M28.976 34.6545C28.9885 34.8751 28.8082 35.0548 28.5873 35.0548C28.2499 35.0548 27.7294 35.0548 27.1454 35.0548C26.5613 35.0548 26.0408 35.0548 25.7035 35.0548C25.4825 35.0548 25.3022 34.875 25.3147 34.6545C25.4151 32.8819 26.1964 32.2952 27.1454 32.2952C28.0945 32.2952 28.8759 32.8763 28.976 34.6545Z" fill="white"/>
<mask id="mask0_37963_15632" style="mask-type:alpha" maskUnits="userSpaceOnUse" x="10" y="10" width="34" height="34">
<circle cx="27" cy="27" r="17" fill="#F6E071"/>
</mask>
<g mask="url(#mask0_37963_15632)">
<rect x="17.6401" y="25.4666" width="5" height="18.0755" fill="#29B5E2"/>
<rect x="31.24" y="25.4666" width="5" height="18.0755" fill="#29B5E2"/>
<path opacity="0.2" d="M32.4301 25.488H35.4301V41.9098H32.4301L32.4301 25.488Z" fill="url(#paint2_linear_37963_15632)"/>
<path opacity="0.2" d="M18.4557 25.488H21.4571V41.9098H18.4557L18.4557 25.488Z" fill="url(#paint3_linear_37963_15632)"/>
</g>
<path fill-rule="evenodd" clip-rule="evenodd" d="M21.0741 23.9127C19.8535 23.9188 18.7167 24.3375 17.7512 25.0473C17.6834 25.0976 17.6435 25.1764 17.643 25.258L17.6405 26.0108C17.6399 26.2083 17.8635 26.3345 18.0445 26.2348C18.8545 25.7842 19.7577 25.5268 20.712 25.5223C21.9437 25.5158 23.0875 25.9291 24.0539 26.6414C24.2317 26.7731 24.4915 26.6505 24.4921 26.4351L24.4967 25.2173C24.4972 25.1352 24.4578 25.0566 24.3894 25.0075C23.4289 24.3098 22.2936 23.9058 21.0741 23.9127Z" fill="#783E11"/>
<path fill-rule="evenodd" clip-rule="evenodd" d="M14.9854 24.6348C15.6869 23.3276 16.7498 22.3422 17.9147 21.7253C19.0797 21.1083 19.7525 20.9109 20.3568 20.9298C20.51 20.9351 20.6431 21.0142 20.7298 21.1369L20.7557 21.1738C21.0212 21.5508 20.817 22.0824 20.2602 22.236C19.7033 22.3895 18.8685 22.8165 18.4598 23.001C17.4603 23.4521 16.5994 24.2444 15.9345 25.2373C15.6892 25.6036 15.2086 25.6444 14.9894 25.3331C14.856 25.1444 14.8585 24.871 14.9854 24.6348Z" fill="#783E11"/>
<path fill-rule="evenodd" clip-rule="evenodd" d="M32.8153 23.9128C34.0356 23.9188 35.1721 24.3375 36.1373 25.0473C36.2051 25.0976 36.245 25.1764 36.2455 25.258L36.248 26.0108C36.2485 26.2083 36.025 26.3345 35.844 26.2348C35.0342 25.7842 34.1313 25.5269 33.1773 25.5224C31.9459 25.5159 30.8024 25.9293 29.8363 26.6415C29.6585 26.7732 29.3987 26.6506 29.3982 26.4353L29.3935 25.2175C29.3931 25.1354 29.4325 25.0568 29.5008 25.0077C30.4611 24.3099 31.5961 23.9059 32.8153 23.9128Z" fill="#783E11"/>
<path fill-rule="evenodd" clip-rule="evenodd" d="M38.9031 24.6348C38.2015 23.3276 37.1387 22.3422 35.9737 21.7253C34.8087 21.1083 34.1359 20.9109 33.5316 20.9298C33.3784 20.9351 33.2454 21.0142 33.1587 21.1369L33.1327 21.1738C32.8672 21.5508 33.0714 22.0824 33.6283 22.236C34.1851 22.3895 35.0199 22.8165 35.4286 23.001C36.4282 23.4521 37.289 24.2444 37.954 25.2373C38.1993 25.6036 38.6799 25.6444 38.899 25.3331C39.0324 25.1444 39.0299 24.871 38.9031 24.6348Z" fill="#783E11"/>
<defs>
<radialGradient id="paint0_radial_37963_15632" cx="0" cy="0" r="1" gradientUnits="userSpaceOnUse" gradientTransform="translate(25.4754 17.0096) rotate(73.7184) scale(27.5504)">
<stop stop-color="#FFF1AA"/>
<stop offset="0.34375" stop-color="#FFE564"/>
<stop offset="0.760417" stop-color="#F4CC00"/>
<stop offset="1" stop-color="#F29E0B"/>
</radialGradient>
<radialGradient id="paint1_radial_37963_15632" cx="0" cy="0" r="1" gradientUnits="userSpaceOnUse" gradientTransform="translate(25.4754 17.0096) rotate(73.7184) scale(27.5504)">
<stop stop-color="#FBEB9D"/>
<stop offset="0.34375" stop-color="#F6E071"/>
<stop offset="0.786458" stop-color="#ECC91A"/>
<stop offset="1" stop-color="#E3BE00"/>
</radialGradient>
<linearGradient id="paint2_linear_37963_15632" x1="33.9301" y1="25.488" x2="33.9301" y2="41.9098" gradientUnits="userSpaceOnUse">
<stop stop-color="white"/>
<stop offset="1" stop-color="white" stop-opacity="0"/>
</linearGradient>
<linearGradient id="paint3_linear_37963_15632" x1="19.9564" y1="25.488" x2="19.9564" y2="41.9098" gradientUnits="userSpaceOnUse">
<stop stop-color="white"/>
<stop offset="1" stop-color="white" stop-opacity="0"/>
</linearGradient>
</defs>
</svg>
