<svg width="54" height="54" viewBox="0 0 54 54" fill="none" xmlns="http://www.w3.org/2000/svg">
<circle cx="27" cy="27" r="17" fill="url(#paint0_radial_37963_15610)"/>
<g opacity="0.5">
<path fill-rule="evenodd" clip-rule="evenodd" d="M27 44C36.3888 44 44 36.3888 44 27C44 17.6112 36.3888 10 27 10C17.6112 10 10 17.6112 10 27C10 36.3888 17.6112 44 27 44ZM27.0001 42.5141C35.5683 42.5141 42.5141 35.5683 42.5141 27.0001C42.5141 18.4319 35.5683 11.4861 27.0001 11.4861C18.4319 11.4861 11.4861 18.4319 11.4861 27.0001C11.4861 35.5683 18.4319 42.5141 27.0001 42.5141Z" fill="url(#paint1_radial_37963_15610)"/>
<path fill-rule="evenodd" clip-rule="evenodd" d="M27 44C36.3888 44 44 36.3888 44 27C44 17.6112 36.3888 10 27 10C17.6112 10 10 17.6112 10 27C10 36.3888 17.6112 44 27 44ZM27.0001 42.5141C35.5683 42.5141 42.5141 35.5683 42.5141 27.0001C42.5141 18.4319 35.5683 11.4861 27.0001 11.4861C18.4319 11.4861 11.4861 18.4319 11.4861 27.0001C11.4861 35.5683 18.4319 42.5141 27.0001 42.5141Z" fill="#C08200" fill-opacity="0.28"/>
</g>
<path fill-rule="evenodd" clip-rule="evenodd" d="M32.2435 36.4382C32.2435 36.7467 31.9208 36.8455 31.5615 36.7219C31.5615 36.7219 29.79 35.8226 27.0154 35.8226C24.2409 35.8226 22.4386 36.7219 22.4386 36.7219C22.0882 36.8429 21.7566 36.7467 21.7566 36.4387V35.3417C21.7566 35.2366 21.7566 35.1601 21.8961 35.0647C21.8961 35.0647 23.9336 33.9338 27.0154 33.9338C30.0973 33.9338 32.1035 35.0642 32.1035 35.0642C32.243 35.1484 32.243 35.2361 32.243 35.3412L32.2435 36.4382Z" fill="#783E11"/>
<path fill-rule="evenodd" clip-rule="evenodd" d="M29.1091 25.4818C29.1091 27.5116 30.734 29.1568 32.7387 29.1568C34.7443 29.1568 36.3692 27.5116 36.3692 25.4818C36.3692 23.4511 34.7443 21.8059 32.7387 21.8059C30.734 21.8059 29.1091 23.4511 29.1091 25.4818Z" fill="#222222"/>
<path fill-rule="evenodd" clip-rule="evenodd" d="M15.7471 20.5231C17.2231 20.3733 18.5394 19.7668 19.5542 18.9253C20.5689 18.0838 21.008 17.5372 21.2211 16.9714C21.2746 16.8277 21.2523 16.6746 21.1719 16.5476L21.1478 16.5096C20.9005 16.1203 20.3312 16.1063 19.9768 16.5624C19.6225 17.0185 18.9093 17.6274 18.5829 17.9348C17.7846 18.6866 16.7237 19.1801 15.5523 19.416C15.1201 19.503 14.899 19.9317 15.1032 20.253C15.2267 20.4483 15.4804 20.5503 15.7471 20.5231Z" fill="#783E11"/>
<path fill-rule="evenodd" clip-rule="evenodd" d="M38.5987 20.5231C37.1227 20.3733 35.8064 19.7668 34.7917 18.9253C33.7769 18.0838 33.3378 17.5372 33.1247 16.9714C33.0712 16.8277 33.0935 16.6746 33.1739 16.5476L33.1981 16.5096C33.4453 16.1203 34.0146 16.1063 34.369 16.5624C34.7234 17.0185 35.4365 17.6274 35.7629 17.9348C36.5613 18.6866 37.6221 19.1801 38.7935 19.416C39.2257 19.503 39.4468 19.9317 39.2427 20.253C39.1191 20.4483 38.8655 20.5503 38.5987 20.5231Z" fill="#783E11"/>
<path fill-rule="evenodd" clip-rule="evenodd" d="M16.0787 25.355C16.0787 27.9314 18.1975 30.0198 20.8115 30.0198C23.4267 30.0198 25.5454 27.9314 25.5454 25.355C25.5454 22.7773 23.4267 20.689 20.8115 20.689C18.1975 20.689 16.0787 22.7773 16.0787 25.355Z" fill="#222222"/>
<ellipse opacity="0.9" cx="2.50724" cy="1.74526" rx="2.50724" ry="1.74526" transform="matrix(0.716544 -0.697542 0.716544 0.697542 16.2324 24.2549)" fill="white"/>
<path fill-rule="evenodd" clip-rule="evenodd" d="M28.3476 25.355C28.3476 27.9314 30.4663 30.0198 33.0803 30.0198C35.6955 30.0198 37.8142 27.9314 37.8142 25.355C37.8142 22.7773 35.6955 20.689 33.0803 20.689C30.4663 20.689 28.3476 22.7773 28.3476 25.355Z" fill="#222222"/>
<ellipse opacity="0.9" cx="2.50724" cy="1.74526" rx="2.50724" ry="1.74526" transform="matrix(0.716544 -0.697542 0.716544 0.697542 28.5012 24.2549)" fill="white"/>
<defs>
<radialGradient id="paint0_radial_37963_15610" cx="0" cy="0" r="1" gradientUnits="userSpaceOnUse" gradientTransform="translate(25.4754 17.0096) rotate(73.7184) scale(27.5504)">
<stop stop-color="#FFF1AA"/>
<stop offset="0.34375" stop-color="#FFE564"/>
<stop offset="0.760417" stop-color="#F4CC00"/>
<stop offset="1" stop-color="#F29E0B"/>
</radialGradient>
<radialGradient id="paint1_radial_37963_15610" cx="0" cy="0" r="1" gradientUnits="userSpaceOnUse" gradientTransform="translate(25.4754 17.0096) rotate(73.7184) scale(27.5504)">
<stop stop-color="#FBEB9D"/>
<stop offset="0.34375" stop-color="#F6E071"/>
<stop offset="0.786458" stop-color="#ECC91A"/>
<stop offset="1" stop-color="#E3BE00"/>
</radialGradient>
</defs>
</svg>
