<svg width="54" height="54" viewBox="0 0 54 54" fill="none" xmlns="http://www.w3.org/2000/svg">
<path fill-rule="evenodd" clip-rule="evenodd" d="M28.0589 12.2007C28.0589 12.2007 28.7112 13.6765 29.4773 15.0587C30.2434 16.4408 30.829 17.7312 30.829 18.5855C30.829 18.6521 30.8273 18.7183 30.8239 18.7841C33.4753 19.0227 35.7703 21.0718 35.7703 23.8201C35.7703 23.9616 35.7628 24.1019 35.748 24.2403C35.7024 24.6684 35.5877 25.0792 35.4131 25.4574C35.9015 25.5918 36.3648 25.7942 36.7894 26.0546C38.2356 26.9414 39.2313 28.5005 39.2313 30.3343C39.2313 30.6146 39.2028 30.8894 39.1481 31.1554C39.0745 31.5133 38.9537 31.8552 38.7914 32.1728C39.2088 32.3191 39.602 32.521 39.9605 32.77C41.1814 33.6179 42 35.0131 42 36.6265C42 38.8444 40.423 40.7477 38.2314 41.0885C35.0135 41.5888 30.3698 42.2008 26.9067 42.2008C23.4611 42.2008 18.9116 41.595 15.7488 41.0961C13.566 40.7517 12 38.8537 12 36.6439C12 35.0291 12.8203 33.6334 14.043 32.7852C14.4004 32.5373 14.7922 32.3361 15.208 32.1899C15.0469 31.8748 14.9268 31.5358 14.8532 31.1809C14.7977 30.9131 14.7687 30.6364 14.7687 30.354C14.7687 28.5214 15.7645 26.9641 17.2103 26.0766C17.6347 25.8161 18.0979 25.6132 18.586 25.4781C18.4133 25.1042 18.2994 24.6984 18.2531 24.2755C18.2376 24.1339 18.2297 23.9903 18.2297 23.8454C18.2297 21.0995 20.5264 19.0573 23.1774 18.8068C23.1732 18.7336 23.171 18.6598 23.171 18.5855C23.171 17.7312 23.3026 16.6821 24.2981 15.0587C24.8783 14.1126 25.8908 13.3702 26.7192 12.8794C27.1146 12.6451 27.4681 12.4682 27.7126 12.3538C27.9281 12.253 28.0589 12.2007 28.0589 12.2007ZM21.7394 17.5568C19.0126 18.3281 16.7297 20.6667 16.7297 23.8454C16.7297 24.0984 16.7472 24.3489 16.7814 24.5953C14.7436 25.6863 13.2687 27.7951 13.2687 30.354C13.2687 30.7201 13.3044 31.0801 13.3732 31.4298C11.6746 32.5237 10.5 34.4156 10.5 36.6439C10.5 39.5646 12.5765 42.1142 15.5151 42.5778C18.6837 43.0776 23.3339 43.7008 26.9067 43.7008C30.496 43.7008 35.2399 43.0716 38.4619 42.5706C41.4093 42.1124 43.5 39.5582 43.5 36.6265C43.5 34.3987 42.326 32.5056 40.6265 31.412C40.6955 31.0617 40.7313 30.701 40.7313 30.3343C40.7313 27.7756 39.2577 25.664 37.2182 24.5734C37.2527 24.326 37.2703 24.0743 37.2703 23.8201C37.2703 20.6131 34.9484 18.2505 32.1817 17.5082C32.0901 17.1452 31.9648 16.7903 31.8321 16.4603C31.5569 15.7759 31.1857 15.0467 30.7893 14.3315C30.4263 13.6766 30.086 12.9916 29.8343 12.4647C29.709 12.2026 29.6072 11.9828 29.537 11.8292C29.5019 11.7525 29.4749 11.6926 29.4568 11.6524L29.4366 11.6073L29.4319 11.5967L28.846 10.2712L27.5026 10.8077L28.0589 12.2007C27.5026 10.8077 27.503 10.8076 27.5026 10.8077L27.4998 10.8088L27.4959 10.8104L27.4852 10.8147L27.4525 10.8282C27.4259 10.8393 27.3895 10.8547 27.3445 10.8742C27.2546 10.9133 27.1297 10.9694 26.9784 11.0418C26.6771 11.1861 26.2638 11.3988 25.8098 11.676C24.9404 12.2068 23.7567 13.0721 23.0194 14.2745C22.2037 15.6047 21.8663 16.6577 21.7394 17.5568Z" fill="#6D380F"/>
<path fill-rule="evenodd" clip-rule="evenodd" d="M28.0589 12.2007C28.0589 12.2007 28.7112 13.6765 29.4773 15.0587C30.2434 16.4408 30.829 17.7312 30.829 18.5855C30.829 18.6521 30.8273 18.7183 30.8239 18.7841C33.4753 19.0227 35.7703 21.0718 35.7703 23.8201C35.7703 23.9616 35.7628 24.1019 35.748 24.2403C35.7024 24.6684 35.5877 25.0792 35.4131 25.4574C35.9015 25.5918 36.3648 25.7942 36.7894 26.0546C38.2356 26.9414 39.2313 28.5005 39.2313 30.3343C39.2313 30.6146 39.2028 30.8894 39.1481 31.1554C39.0745 31.5133 38.9537 31.8552 38.7914 32.1728C39.2088 32.3191 39.602 32.521 39.9605 32.77C41.1814 33.6179 42 35.0131 42 36.6265C42 38.8444 40.423 40.7477 38.2314 41.0885C35.0135 41.5888 30.3698 42.2008 26.9067 42.2008C23.4611 42.2008 18.9116 41.595 15.7488 41.0961C13.566 40.7517 12 38.8537 12 36.6439C12 35.0291 12.8203 33.6334 14.043 32.7852C14.4004 32.5373 14.7922 32.3361 15.208 32.1899C15.0469 31.8748 14.9268 31.5358 14.8532 31.1809C14.7977 30.9131 14.7687 30.6364 14.7687 30.354C14.7687 28.5214 15.7645 26.9641 17.2103 26.0766C17.6347 25.8161 18.0979 25.6132 18.586 25.4781C18.4133 25.1042 18.2994 24.6984 18.2531 24.2755C18.2376 24.1339 18.2297 23.9903 18.2297 23.8454C18.2297 21.0995 20.5264 19.0573 23.1774 18.8068C23.1732 18.7336 23.171 18.6598 23.171 18.5855C23.171 17.7312 23.3026 16.6821 24.2981 15.0587C24.8783 14.1126 25.8908 13.3702 26.7192 12.8794C27.1146 12.6451 27.4681 12.4682 27.7126 12.3538C27.9281 12.253 28.0589 12.2007 28.0589 12.2007ZM21.7394 17.5568C19.0126 18.3281 16.7297 20.6667 16.7297 23.8454C16.7297 24.0984 16.7472 24.3489 16.7814 24.5953C14.7436 25.6863 13.2687 27.7951 13.2687 30.354C13.2687 30.7201 13.3044 31.0801 13.3732 31.4298C11.6746 32.5237 10.5 34.4156 10.5 36.6439C10.5 39.5646 12.5765 42.1142 15.5151 42.5778C18.6837 43.0776 23.3339 43.7008 26.9067 43.7008C30.496 43.7008 35.2399 43.0716 38.4619 42.5706C41.4093 42.1124 43.5 39.5582 43.5 36.6265C43.5 34.3987 42.326 32.5056 40.6265 31.412C40.6955 31.0617 40.7313 30.701 40.7313 30.3343C40.7313 27.7756 39.2577 25.664 37.2182 24.5734C37.2527 24.326 37.2703 24.0743 37.2703 23.8201C37.2703 20.6131 34.9484 18.2505 32.1817 17.5082C32.0901 17.1452 31.9648 16.7903 31.8321 16.4603C31.5569 15.7759 31.1857 15.0467 30.7893 14.3315C30.4263 13.6766 30.086 12.9916 29.8343 12.4647C29.709 12.2026 29.6072 11.9828 29.537 11.8292C29.5019 11.7525 29.4749 11.6926 29.4568 11.6524L29.4366 11.6073L29.4319 11.5967L28.846 10.2712L27.5026 10.8077L28.0589 12.2007C27.5026 10.8077 27.503 10.8076 27.5026 10.8077L27.4998 10.8088L27.4959 10.8104L27.4852 10.8147L27.4525 10.8282C27.4259 10.8393 27.3895 10.8547 27.3445 10.8742C27.2546 10.9133 27.1297 10.9694 26.9784 11.0418C26.6771 11.1861 26.2638 11.3988 25.8098 11.676C24.9404 12.2068 23.7567 13.0721 23.0194 14.2745C22.2037 15.6047 21.8663 16.6577 21.7394 17.5568Z" fill="#9A4E15" fill-opacity="0.6"/>
<path d="M12 36.6439C12 33.7447 14.6441 31.552 17.5137 31.9655C20.4623 32.3905 24.061 32.8037 26.9067 32.8037C29.7879 32.8037 33.4862 32.3801 36.5008 31.9496C39.366 31.5405 42 33.7323 42 36.6265C42 38.8444 40.423 40.7477 38.2314 41.0885C35.0135 41.5888 30.3698 42.2008 26.9067 42.2008C23.4611 42.2008 18.9116 41.595 15.7488 41.0961C13.566 40.7517 12 38.8537 12 36.6439Z" fill="url(#paint0_linear_37963_15621)"/>
<path d="M14.7687 30.354C14.7687 27.2003 17.7176 24.8622 20.8335 25.3489C22.8704 25.6672 25.0891 25.9255 26.9239 25.9255C28.7939 25.9255 31.086 25.6571 33.1831 25.3306C36.2948 24.846 39.2313 27.1851 39.2313 30.3342C39.2313 32.23 37.9259 33.875 36.0634 34.2283C33.4436 34.7252 29.714 35.3226 26.9239 35.3226C24.1466 35.3226 20.4895 34.7306 17.9147 34.2351C16.0627 33.8786 14.7687 32.2401 14.7687 30.354Z" fill="url(#paint1_linear_37963_15621)"/>
<path d="M18.2297 23.8453C18.2297 20.6204 21.3974 18.3663 24.5866 18.8449C25.4112 18.9687 26.2202 19.0472 26.9455 19.0472C27.7049 19.0472 28.5614 18.9611 29.4345 18.8272C32.6182 18.3387 35.7703 20.5991 35.7703 23.82C35.7703 25.5332 34.6674 27.0556 33.0071 27.4776C31.1738 27.9435 28.7772 28.4443 26.9455 28.4443C25.1209 28.4443 22.7669 27.9474 20.9654 27.4831C19.3191 27.0587 18.2297 25.5454 18.2297 23.8453Z" fill="url(#paint2_linear_37963_15621)"/>
<path d="M30.829 18.5855C30.829 20.6876 29.1147 22.3918 27 22.3918C24.8853 22.3918 23.171 20.6876 23.171 18.5855C23.171 17.7311 23.3026 16.6821 24.2981 15.0586C25.3994 13.2627 28.0589 12.2007 28.0589 12.2007C28.0589 12.2007 28.7112 13.6764 29.4773 15.0586C30.2434 16.4408 30.829 17.7311 30.829 18.5855Z" fill="url(#paint3_linear_37963_15621)"/>
<path fill-rule="evenodd" clip-rule="evenodd" d="M32.591 33.8209C32.591 33.5804 32.1454 33.5998 32.1454 33.5998L21.9226 33.5974C21.9226 33.5974 21.477 33.578 21.477 33.8181C21.477 35.3912 24.8742 36.5997 27.0346 36.6001C29.195 36.6005 32.591 35.3912 32.591 33.8209Z" fill="white"/>
<path d="M25.5993 27.7566C25.5993 29.8485 24.2427 31.5442 22.5691 31.5442C20.8956 31.5442 19.5389 29.8485 19.5389 27.7566C19.5389 25.6648 20.8956 23.969 22.5691 23.969C24.2427 23.969 25.5993 25.6648 25.5993 27.7566Z" fill="white"/>
<path d="M24.4357 27.7566C24.4357 29.226 23.6 30.4173 22.5691 30.4173C21.5382 30.4173 20.7025 29.226 20.7025 27.7566C20.7025 26.2872 21.5382 25.0959 22.5691 25.0959C23.6 25.0959 24.4357 26.2872 24.4357 27.7566Z" fill="#222222"/>
<path d="M34.4202 27.7566C34.4202 29.8485 33.0635 31.5442 31.39 31.5442C29.7165 31.5442 28.3598 29.8485 28.3598 27.7566C28.3598 25.6648 29.7165 23.969 31.39 23.969C33.0635 23.969 34.4202 25.6648 34.4202 27.7566Z" fill="white"/>
<path d="M33.2566 27.7566C33.2566 29.226 32.4209 30.4173 31.39 30.4173C30.3591 30.4173 29.5234 29.226 29.5234 27.7566C29.5234 26.2872 30.3591 25.0959 31.39 25.0959C32.4209 25.0959 33.2566 26.2872 33.2566 27.7566Z" fill="#222222"/>
<defs>
<linearGradient id="paint0_linear_37963_15621" x1="27" y1="31.0528" x2="27" y2="42.2008" gradientUnits="userSpaceOnUse">
<stop stop-color="#8C4E1E"/>
<stop offset="1" stop-color="#70370C"/>
</linearGradient>
<linearGradient id="paint1_linear_37963_15621" x1="27" y1="24.1746" x2="27" y2="35.3226" gradientUnits="userSpaceOnUse">
<stop stop-color="#B0703E"/>
<stop offset="1" stop-color="#804213"/>
</linearGradient>
<linearGradient id="paint2_linear_37963_15621" x1="27" y1="17.2963" x2="27" y2="28.4443" gradientUnits="userSpaceOnUse">
<stop stop-color="#B9723C"/>
<stop offset="1" stop-color="#894918"/>
</linearGradient>
<linearGradient id="paint3_linear_37963_15621" x1="27" y1="12.2007" x2="27" y2="22.3918" gradientUnits="userSpaceOnUse">
<stop stop-color="#B9723C"/>
<stop offset="1" stop-color="#975523"/>
</linearGradient>
</defs>
</svg>
