<svg width="54" height="54" viewBox="0 0 54 54" fill="none" xmlns="http://www.w3.org/2000/svg">
<circle cx="27" cy="27" r="17" fill="url(#paint0_radial_37963_15592)"/>
<g opacity="0.5">
<path fill-rule="evenodd" clip-rule="evenodd" d="M27 44C36.3888 44 44 36.3888 44 27C44 17.6112 36.3888 10 27 10C17.6112 10 10 17.6112 10 27C10 36.3888 17.6112 44 27 44ZM27.0001 42.5141C35.5683 42.5141 42.5141 35.5683 42.5141 27.0001C42.5141 18.4319 35.5683 11.4861 27.0001 11.4861C18.4319 11.4861 11.4861 18.4319 11.4861 27.0001C11.4861 35.5683 18.4319 42.5141 27.0001 42.5141Z" fill="url(#paint1_radial_37963_15592)"/>
<path fill-rule="evenodd" clip-rule="evenodd" d="M27 44C36.3888 44 44 36.3888 44 27C44 17.6112 36.3888 10 27 10C17.6112 10 10 17.6112 10 27C10 36.3888 17.6112 44 27 44ZM27.0001 42.5141C35.5683 42.5141 42.5141 35.5683 42.5141 27.0001C42.5141 18.4319 35.5683 11.4861 27.0001 11.4861C18.4319 11.4861 11.4861 18.4319 11.4861 27.0001C11.4861 35.5683 18.4319 42.5141 27.0001 42.5141Z" fill="#C08200" fill-opacity="0.28"/>
</g>
<path fill-rule="evenodd" clip-rule="evenodd" d="M20.1751 32.477C20.1751 32.1685 20.5099 31.9981 20.7329 32.1933C22.5592 33.7894 24.7612 34.4668 27.1322 34.4662C29.5037 34.4657 31.7047 33.7868 33.53 32.1902C33.7531 31.995 34.0879 32.1654 34.0879 32.4734V33.4696C34.0879 33.5747 34.0464 33.6767 33.9738 33.7466C32.0661 35.5907 29.6992 36.4375 27.1327 36.438C24.5661 36.4385 22.1983 35.5933 20.2897 33.7502C20.217 33.6798 20.1756 33.5783 20.1756 33.4732L20.1751 32.477Z" fill="#783E11"/>
<path opacity="0.5" fill-rule="evenodd" clip-rule="evenodd" d="M16.4056 20.8239C17.3749 19.7007 18.6268 18.9703 19.8981 18.6218C21.1695 18.2732 21.8691 18.227 22.4548 18.377C22.6031 18.4156 22.7158 18.5217 22.7737 18.6603L22.791 18.702C22.968 19.1277 22.653 19.6021 22.0761 19.6308C21.4992 19.6595 20.5914 19.8945 20.1524 19.9855C19.0786 20.2082 18.0659 20.7942 17.2008 21.6184C16.8816 21.9226 16.4036 21.8578 16.2575 21.5063C16.1684 21.2931 16.2303 21.0267 16.4056 20.8239Z" fill="#783E11"/>
<path opacity="0.5" fill-rule="evenodd" clip-rule="evenodd" d="M37.4828 20.8239C36.5135 19.7007 35.2617 18.9703 33.9903 18.6218C32.719 18.2732 32.0194 18.227 31.4337 18.377C31.2853 18.4156 31.1726 18.5217 31.1147 18.6603L31.0974 18.702C30.9204 19.1277 31.2354 19.6021 31.8123 19.6308C32.3892 19.6595 33.297 19.8945 33.7361 19.9855C34.8098 20.2082 35.8225 20.7942 36.6877 21.6184C37.0068 21.9226 37.4848 21.8578 37.6309 21.5063C37.72 21.2931 37.6581 21.0267 37.4828 20.8239Z" fill="#783E11"/>
<path fill-rule="evenodd" clip-rule="evenodd" d="M20.69 26.9872C19.5991 26.9924 18.5868 26.5846 17.7304 25.8843C17.6702 25.8346 17.6353 25.7563 17.6356 25.6747L17.6403 24.9226C17.6416 24.7252 17.8426 24.597 18.0035 24.695C18.7234 25.1377 19.5284 25.3865 20.3813 25.3822C21.4822 25.3773 22.5084 24.9537 23.3788 24.2331C23.539 24.0999 23.7701 24.22 23.7686 24.4351L23.7615 25.6519C23.7612 25.7339 23.7252 25.8129 23.6637 25.8625C22.7986 26.5686 21.7801 26.9828 20.69 26.9872Z" fill="#783E11"/>
<path fill-rule="evenodd" clip-rule="evenodd" d="M33.1984 26.9872C34.2894 26.9924 35.3016 26.5846 36.158 25.8843C36.2182 25.8346 36.2532 25.7563 36.2529 25.6747L36.2481 24.9226C36.2468 24.7252 36.0458 24.597 35.8849 24.695C35.165 25.1377 34.3601 25.3865 33.5072 25.3822C32.4062 25.3773 31.38 24.9537 30.5096 24.2331C30.3495 24.0999 30.1183 24.22 30.1198 24.4351L30.1269 25.6519C30.1273 25.7339 30.1632 25.8129 30.2248 25.8625C31.0898 26.5686 32.1084 26.9828 33.1984 26.9872Z" fill="#783E11"/>
<defs>
<radialGradient id="paint0_radial_37963_15592" cx="0" cy="0" r="1" gradientUnits="userSpaceOnUse" gradientTransform="translate(25.4754 17.0096) rotate(73.7184) scale(27.5504)">
<stop stop-color="#FFF1AA"/>
<stop offset="0.34375" stop-color="#FFE564"/>
<stop offset="0.760417" stop-color="#F4CC00"/>
<stop offset="1" stop-color="#F29E0B"/>
</radialGradient>
<radialGradient id="paint1_radial_37963_15592" cx="0" cy="0" r="1" gradientUnits="userSpaceOnUse" gradientTransform="translate(25.4754 17.0096) rotate(73.7184) scale(27.5504)">
<stop stop-color="#FBEB9D"/>
<stop offset="0.34375" stop-color="#F6E071"/>
<stop offset="0.786458" stop-color="#ECC91A"/>
<stop offset="1" stop-color="#E3BE00"/>
</radialGradient>
</defs>
</svg>
