<svg width="54" height="54" viewBox="0 0 54 54" fill="none" xmlns="http://www.w3.org/2000/svg">
<path fill-rule="evenodd" clip-rule="evenodd" d="M24.2314 25.6185L24.2317 25.632C24.239 25.8423 24.4181 26.0106 24.6378 26.0106L24.812 26.0106L24.826 26.0104C25.0439 26.0033 25.2183 25.8307 25.2184 25.6188V24.7957C25.2184 24.7445 25.2215 24.6937 25.2275 24.6442C25.3327 23.7748 26.3333 23.1721 27.2794 23.1721H27.3375C28.1584 23.1721 29.16 23.8325 29.2721 24.6454C29.2724 24.6478 29.2727 24.6502 29.2731 24.6526C29.2757 24.6728 29.2778 24.6932 29.2794 24.7136C29.2796 24.7165 29.2798 24.7194 29.28 24.7223C29.2803 24.7268 29.2806 24.7313 29.2808 24.7358C29.2819 24.7554 29.2824 24.7751 29.2824 24.7948V24.7223V24.7358C29.2831 24.7561 29.2857 24.776 29.2895 24.7954C29.325 24.9769 29.4903 25.1144 29.6888 25.1144L29.877 25.1142C30.0692 25.1079 30.2275 24.9729 30.2623 24.7957C30.2669 24.772 30.2694 24.7473 30.2694 24.7223L30.2711 24.705L30.2772 24.6452C30.2769 24.6416 30.2766 24.638 30.2764 24.6344C30.2767 24.6371 30.2771 24.6398 30.2774 24.6425L31.135 13.1269C31.2473 12.0916 32.0706 11.1435 33.2066 11.2315L33.2647 11.2315C34.5405 11.3431 35.1892 12.5905 35.087 13.6641L34.5944 28.657C41.0459 31.3218 36.6381 37.1524 33.7185 41.0143C33.5624 41.2209 33.4105 41.4218 33.2647 41.6163C33.1303 41.7812 32.316 41.7788 32.0274 41.778C32.0094 41.7779 31.9934 41.7779 31.9798 41.7779L20.3482 41.7779L20.3278 41.7776C20.0775 41.7711 19.8462 41.6451 19.7113 41.4404C17.0937 37.469 16.4016 32.9492 16.2135 31.2457C16.0254 29.5423 15.9614 26.8716 15.9614 26.8716L15.6445 17.0401C15.6445 16.0966 16.3155 14.9694 17.2935 14.9694C18.2714 14.9694 19.0642 15.7342 19.0642 16.6777L19.5802 26.2774L19.5804 26.2909C19.5807 26.2995 19.5813 26.3081 19.5822 26.3165C19.6025 26.5147 19.7758 26.6695 19.9866 26.6695L20.1607 26.6695L20.1747 26.6692C20.3927 26.6621 20.5671 26.4894 20.5671 26.2774L20.5082 24.7954C20.5082 23.8555 21.5482 23.2813 22.5186 23.2813C23.3142 23.2813 24.1342 23.7857 24.2236 24.6399C24.2289 24.6905 24.2317 24.7424 24.2317 24.7954L24.2314 25.6185ZM24.7464 23.3326C24.9054 23.1343 25.0891 22.9634 25.2813 22.822C25.8468 22.406 26.5706 22.1721 27.2794 22.1721H27.3375C28.0311 22.1721 28.7293 22.4558 29.2536 22.8667C29.3146 22.9146 29.3756 22.9661 29.4357 23.0211L30.1408 13.0191C30.2927 11.6185 31.443 10.1168 33.2416 10.2315L33.3084 10.2315L33.3518 10.2353C35.3509 10.4102 36.206 12.3097 36.0852 13.7293L35.6213 28.0247C37.118 28.7669 38.104 29.7487 38.5863 30.9566C39.1272 32.3109 38.9539 33.7504 38.5011 35.0759C37.7054 37.4058 35.8837 39.8119 34.5178 41.6159C34.36 41.8243 34.2083 42.0247 34.065 42.216L34.0527 42.2323L34.0398 42.2481C33.8705 42.4559 33.6651 42.5536 33.5654 42.5955C33.448 42.6448 33.334 42.6744 33.2458 42.6933C33.068 42.7314 32.8787 42.75 32.7228 42.7605C32.4419 42.7795 32.153 42.7784 32.0216 42.778C32.005 42.7779 31.991 42.7779 31.9798 42.7779H20.3352L20.3019 42.7774C19.7351 42.7627 19.1969 42.4771 18.8763 41.9908C16.127 37.8196 15.4132 33.1089 15.2195 31.3555C15.1217 30.4698 15.0576 29.3494 15.0179 28.4647C14.9979 28.0193 14.9839 27.6279 14.9748 27.3477C14.9703 27.2076 14.967 27.0951 14.9649 27.0174L14.9625 26.9277L14.962 26.9071L14.6445 17.0632V17.0401C14.6445 16.353 14.8816 15.6306 15.2928 15.0637C15.7059 14.4944 16.3874 13.9694 17.2935 13.9694C18.7754 13.9694 20.04 15.1262 20.0639 16.6343L20.3314 23.0562C20.4131 22.9852 20.498 22.92 20.5846 22.8607C21.1494 22.4741 21.8536 22.2813 22.5186 22.2813C23.2855 22.2813 24.1991 22.6274 24.7464 23.3326Z" fill="#CD942F"/>
<path fill-rule="evenodd" clip-rule="evenodd" d="M27.2795 23.1721C26.2793 23.1721 25.2184 23.8456 25.2184 24.7954L25.2184 25.6185C25.2184 25.8306 25.044 26.0033 24.826 26.0104L24.812 26.0106L24.6379 26.0106C24.4181 26.0106 24.2391 25.8423 24.2317 25.632L24.2315 25.6185L24.2317 24.7954C24.2315 23.8472 23.3614 23.2813 22.5186 23.2813C21.5483 23.2813 20.5082 23.8555 20.5082 24.7954L20.5672 26.2774C20.5672 26.4894 20.3927 26.6622 20.1747 26.6693L20.1608 26.6695L19.9866 26.6695C19.7668 26.6695 19.5878 26.5012 19.5804 26.2909L19.5802 26.2774L19.0643 16.6778C19.0643 15.7343 18.2715 14.9694 17.2935 14.9694C16.3156 14.9694 15.6446 16.0966 15.6446 17.0401L15.9614 26.8716C15.9614 26.8716 16.0254 29.5423 16.2135 31.2458C16.4016 32.9492 17.0937 37.4691 19.7113 41.4405C19.8462 41.6451 20.0775 41.7711 20.3278 41.7776L20.3482 41.7779L31.9798 41.7779C32.2116 41.7779 33.1219 41.7916 33.2647 41.6163C36.1355 37.7852 41.391 31.4644 34.5945 28.657L35.087 13.6641C35.1892 12.5906 34.5405 11.3431 33.2647 11.2316L33.2067 11.2316C32.0706 11.1435 31.2473 12.0916 31.135 13.127L30.2694 24.7223C30.2694 24.9344 30.095 25.1071 29.877 25.1142L29.6888 25.1144C29.4691 25.1144 29.29 24.9461 29.2827 24.7358L29.2824 24.7223V24.7954C29.2827 23.9155 28.2084 23.1721 27.3375 23.1721H27.2795Z" fill="url(#paint0_radial_37963_15606)"/>
<path fill-rule="evenodd" clip-rule="evenodd" d="M27.2795 23.1721C26.2793 23.1721 25.2184 23.8456 25.2184 24.7954L25.2184 25.6185C25.2184 25.8306 25.044 26.0033 24.826 26.0104L24.812 26.0106L24.6379 26.0106C24.4181 26.0106 24.2391 25.8423 24.2317 25.632L24.2315 25.6185L24.2317 24.7954C24.2315 23.8472 23.3614 23.2813 22.5186 23.2813C21.5483 23.2813 20.5082 23.8555 20.5082 24.7954L20.5672 26.2774C20.5672 26.4894 20.3927 26.6622 20.1747 26.6693L20.1608 26.6695L19.9866 26.6695C19.7668 26.6695 19.5878 26.5012 19.5804 26.2909L19.5802 26.2774L19.0643 16.6778C19.0643 15.7343 18.2715 14.9694 17.2935 14.9694C16.3156 14.9694 15.6446 16.0966 15.6446 17.0401L15.9614 26.8716C15.9614 26.8716 16.0254 29.5423 16.2135 31.2458C16.4016 32.9492 17.0937 37.4691 19.7113 41.4405C19.8462 41.6451 20.0775 41.7711 20.3278 41.7776L20.3482 41.7779L31.9798 41.7779C32.2116 41.7779 33.1219 41.7916 33.2647 41.6163C36.1355 37.7852 41.391 31.4644 34.5945 28.657L35.087 13.6641C35.1892 12.5906 34.5405 11.3431 33.2647 11.2316L33.2067 11.2316C32.0706 11.1435 31.2473 12.0916 31.135 13.127L30.2694 24.7223C30.2694 24.9344 30.095 25.1071 29.877 25.1142L29.6888 25.1144C29.4691 25.1144 29.29 24.9461 29.2827 24.7358L29.2824 24.7223V24.7954C29.2827 23.9155 28.2084 23.1721 27.3375 23.1721H27.2795Z" fill="#FFE45C" fill-opacity="0.23"/>
<path opacity="0.8" d="M20.3097 31.6404C19.7745 30.7901 19.6433 29.0984 19.6433 29.0984H34.2041L33.9326 32.899L30.6769 36.0507C29.4827 34.2788 28.0857 34.1073 26.0846 33.7381C24.1451 33.3802 21.5566 33.6216 20.3097 31.6404Z" fill="url(#paint1_linear_37963_15606)"/>
<path d="M24.3815 23.6602C24.3295 22.0822 25.4954 20.7584 26.9856 20.7033L27.4957 20.6844C28.9859 20.6293 30.2362 21.8638 30.2882 23.4418L30.4586 28.6059C30.5106 30.1839 29.3447 31.5078 27.8544 31.5629L27.3444 31.5818C25.8541 31.6369 24.6038 30.4023 24.5518 28.8243L24.3815 23.6602Z" fill="url(#paint2_radial_37963_15606)"/>
<path d="M24.3815 23.6602C24.3295 22.0822 25.4954 20.7584 26.9856 20.7033L27.4957 20.6844C28.9859 20.6293 30.2362 21.8638 30.2882 23.4418L30.4586 28.6059C30.5106 30.1839 29.3447 31.5078 27.8544 31.5629L27.3444 31.5818C25.8541 31.6369 24.6038 30.4023 24.5518 28.8243L24.3815 23.6602Z" fill="#FFE45C" fill-opacity="0.23"/>
<path d="M19.4799 23.7881C19.4279 22.2102 20.5938 20.8863 22.0841 20.8312L22.5938 20.8123C24.084 20.7572 25.3343 21.9918 25.3863 23.5697L25.5557 28.7051C25.6078 30.2831 24.4418 31.607 22.9516 31.6621L22.4419 31.681C20.9516 31.7361 19.7014 30.5015 19.6493 28.9235L19.4799 23.7881Z" fill="url(#paint3_radial_37963_15606)"/>
<path d="M19.4799 23.7881C19.4279 22.2102 20.5938 20.8863 22.0841 20.8312L22.5938 20.8123C24.084 20.7572 25.3343 21.9918 25.3863 23.5697L25.5557 28.7051C25.6078 30.2831 24.4418 31.607 22.9516 31.6621L22.4419 31.681C20.9516 31.7361 19.7014 30.5015 19.6493 28.9235L19.4799 23.7881Z" fill="#FFE45C" fill-opacity="0.23"/>
<path fill-rule="evenodd" clip-rule="evenodd" d="M27.5306 21.7426L27.0205 21.7615C26.0822 21.7962 25.3481 22.6297 25.3809 23.6233L25.5512 28.7874C25.584 29.7809 26.3712 30.5582 27.3095 30.5235L27.8195 30.5047C28.7578 30.47 29.4919 29.6364 29.4592 28.6429L29.2889 23.4788C29.2561 22.4852 28.4689 21.7079 27.5306 21.7426ZM26.9856 20.7033C25.4954 20.7584 24.3295 22.0822 24.3815 23.6602L24.5518 28.8243C24.6038 30.4023 25.8541 31.6369 27.3444 31.5818L27.8544 31.5629C29.3447 31.5078 30.5106 30.1839 30.4586 28.6059L30.2882 23.4418C30.2362 21.8638 28.9859 20.6293 27.4957 20.6844L26.9856 20.7033Z" fill="#CD942F"/>
<path fill-rule="evenodd" clip-rule="evenodd" d="M22.6287 21.8705L22.119 21.8894C21.1807 21.9241 20.4466 22.7576 20.4793 23.7512L20.6487 28.8866C20.6815 29.8801 21.4687 30.6574 22.407 30.6227L22.9167 30.6039C23.855 30.5692 24.5891 29.7356 24.5563 28.7421L24.387 23.6067C24.3542 22.6131 23.567 21.8358 22.6287 21.8705ZM22.0841 20.8312C20.5938 20.8863 19.4279 22.2102 19.4799 23.7881L19.6493 28.9235C19.7014 30.5015 20.9516 31.7361 22.4419 31.681L22.9516 31.6621C24.4418 31.607 25.6078 30.2831 25.5557 28.7051L25.3863 23.5697C25.3343 21.9918 24.084 20.7572 22.5938 20.8123L22.0841 20.8312Z" fill="#CD942F"/>
<path d="M38.0859 35.0497C38.5334 34.0071 38.8603 31.5748 38.619 29.926C38.5777 29.6437 30.2733 26.5524 29.7293 26.8503C28.8375 27.3386 28.8209 29.0074 29.0931 29.926C29.6496 31.8045 31.5284 32.3675 33.4145 33.0976C33.1711 33.706 32.3177 34.8671 31.093 35.7798L33.4973 42.0674C33.4973 42.0674 36.5906 38.533 38.0859 35.0497Z" fill="url(#paint4_radial_37963_15606)"/>
<path d="M38.0859 35.0497C38.5334 34.0071 38.8603 31.5748 38.619 29.926C38.5777 29.6437 30.2733 26.5524 29.7293 26.8503C28.8375 27.3386 28.8209 29.0074 29.0931 29.926C29.6496 31.8045 31.5284 32.3675 33.4145 33.0976C33.1711 33.706 32.3177 34.8671 31.093 35.7798L33.4973 42.0674C33.4973 42.0674 36.5906 38.533 38.0859 35.0497Z" fill="#FFE45C" fill-opacity="0.23"/>
<path fill-rule="evenodd" clip-rule="evenodd" d="M29.9015 27.3329C29.6995 27.4848 29.5375 27.8047 29.47 28.295C29.3983 28.8164 29.4562 29.3916 29.5724 29.784C29.7585 30.4119 30.2287 30.9449 30.9283 31.4231C31.6285 31.9018 32.5116 32.2937 33.4473 32.6559L33.9188 32.8384L33.731 33.3079C33.455 33.9979 32.6938 35.2104 31.3918 36.1807C31.1704 36.3457 30.8571 36.3 30.6921 36.0785C30.5271 35.8571 30.5728 35.5438 30.7942 35.3788C31.6717 34.725 32.2584 33.9508 32.5801 33.3872C31.7967 33.066 31.0218 32.6984 30.364 32.2487C29.5639 31.7017 28.8903 31.0017 28.6136 30.0681C28.4577 29.5419 28.3879 28.8234 28.4793 28.1586C28.5677 27.5166 28.8306 26.7723 29.4892 26.4117C29.5942 26.3542 29.6982 26.3395 29.7573 26.3341C29.8249 26.328 29.8925 26.3296 29.9533 26.3338C30.0751 26.3424 30.2162 26.3651 30.3651 26.3953C30.6653 26.4561 31.0506 26.5583 31.4834 26.6859C32.3521 26.9421 33.4524 27.3129 34.5315 27.6999C35.6112 28.0872 36.6773 28.4934 37.4786 28.8218C37.8781 28.9855 38.2183 29.1324 38.4632 29.2495C38.5839 29.3072 38.6924 29.3629 38.7763 29.4133C38.8166 29.4376 38.866 29.4695 38.9115 29.5074C38.934 29.5261 38.9679 29.5565 39.0011 29.5979C39.0279 29.6313 39.0942 29.7201 39.1137 29.8536C39.2427 30.7351 39.2179 31.8017 39.1075 32.7717C38.9978 33.7353 38.7973 34.66 38.5453 35.2469C37.7761 37.0388 36.6039 38.8281 35.635 40.159C35.1488 40.827 34.7098 41.3847 34.392 41.7759C34.2331 41.9716 34.1043 42.1259 34.0148 42.2316C33.9701 42.2845 33.9352 42.3253 33.9112 42.3531L33.8837 42.3849L33.8764 42.3934L33.8736 42.3965C33.8735 42.3966 33.8735 42.3967 33.4972 42.0674L33.8736 42.3965C33.6917 42.6043 33.3757 42.6255 33.1679 42.4436C32.9602 42.2618 32.9391 41.9459 33.121 41.7381L33.1226 41.7362L33.1286 41.7293L33.1534 41.7006C33.1756 41.6749 33.2086 41.6364 33.2513 41.5858C33.3369 41.4847 33.4614 41.3355 33.6158 41.1455C33.9248 40.7651 34.3526 40.2215 34.8266 39.5705C35.7782 38.2634 36.9003 36.5439 37.6264 34.8524C37.822 34.3968 38.0086 33.584 38.1139 32.6586C38.2091 31.8225 38.2326 30.9408 38.1515 30.2107C38.1177 30.1934 38.0779 30.1737 38.0318 30.1517C37.8125 30.0468 37.4928 29.9083 37.0995 29.7471C36.3151 29.4257 35.2634 29.0248 34.1939 28.6412C33.1236 28.2574 32.0433 27.8936 31.2006 27.6451C30.7777 27.5204 30.4247 27.4277 30.1665 27.3754C30.0486 27.3515 29.9612 27.3383 29.9015 27.3329Z" fill="#CD942F"/>
<defs>
<radialGradient id="paint0_radial_37963_15606" cx="0" cy="0" r="1" gradientTransform="matrix(-6.35384 21.1738 -19.2827 -6.51843 26.9109 20.47)" gradientUnits="userSpaceOnUse">
<stop stop-color="#FBEB9D"/>
<stop offset="0.34375" stop-color="#F6E071"/>
<stop offset="1" stop-color="#ECC91A"/>
</radialGradient>
<linearGradient id="paint1_linear_37963_15606" x1="32.4715" y1="33.9414" x2="24.4507" y2="33.9414" gradientUnits="userSpaceOnUse">
<stop stop-color="#783E11" stop-opacity="0.22"/>
<stop offset="1" stop-color="#783E11" stop-opacity="0.1"/>
</linearGradient>
<radialGradient id="paint2_radial_37963_15606" cx="0" cy="0" r="1" gradientTransform="matrix(2.4362 7.14995 -3.71559 3.49451 26.2303 24.2084)" gradientUnits="userSpaceOnUse">
<stop stop-color="#FBEB9D"/>
<stop offset="0.34375" stop-color="#F6E071"/>
<stop offset="1" stop-color="#ECC91A"/>
</radialGradient>
<radialGradient id="paint3_radial_37963_15606" cx="0" cy="0" r="1" gradientTransform="matrix(2.43544 7.13086 -3.71565 3.48565 21.3283 24.3271)" gradientUnits="userSpaceOnUse">
<stop stop-color="#FBEB9D"/>
<stop offset="0.34375" stop-color="#F6E071"/>
<stop offset="1" stop-color="#ECC91A"/>
</radialGradient>
<radialGradient id="paint4_radial_37963_15606" cx="0" cy="0" r="1" gradientTransform="matrix(3.2377 11.6176 -7.38619 4.7648 30.096 27.5307)" gradientUnits="userSpaceOnUse">
<stop stop-color="#FBEB9D"/>
<stop offset="0.43202" stop-color="#F6E071"/>
<stop offset="1" stop-color="#ECC91A"/>
</radialGradient>
</defs>
</svg>
