<svg width="54" height="54" viewBox="0 0 54 54" fill="none" xmlns="http://www.w3.org/2000/svg">
<circle cx="27" cy="27" r="17" fill="url(#paint0_radial_37963_15611)"/>
<g opacity="0.5">
<path fill-rule="evenodd" clip-rule="evenodd" d="M27 44C36.3888 44 44 36.3888 44 27C44 17.6112 36.3888 10 27 10C17.6112 10 10 17.6112 10 27C10 36.3888 17.6112 44 27 44ZM27.0001 42.5141C35.5683 42.5141 42.5141 35.5683 42.5141 27.0001C42.5141 18.4319 35.5683 11.4861 27.0001 11.4861C18.4319 11.4861 11.4861 18.4319 11.4861 27.0001C11.4861 35.5683 18.4319 42.5141 27.0001 42.5141Z" fill="url(#paint1_radial_37963_15611)"/>
<path fill-rule="evenodd" clip-rule="evenodd" d="M27 44C36.3888 44 44 36.3888 44 27C44 17.6112 36.3888 10 27 10C17.6112 10 10 17.6112 10 27C10 36.3888 17.6112 44 27 44ZM27.0001 42.5141C35.5683 42.5141 42.5141 35.5683 42.5141 27.0001C42.5141 18.4319 35.5683 11.4861 27.0001 11.4861C18.4319 11.4861 11.4861 18.4319 11.4861 27.0001C11.4861 35.5683 18.4319 42.5141 27.0001 42.5141Z" fill="#C08200" fill-opacity="0.28"/>
</g>
<ellipse opacity="0.3" cx="17.2794" cy="27.396" rx="7.03968" ry="12.6714" fill="url(#paint2_radial_37963_15611)"/>
<ellipse opacity="0.3" cx="7.03968" cy="12.6714" rx="7.03968" ry="12.6714" transform="matrix(-1 0 0 1 44.1366 14.7246)" fill="url(#paint3_radial_37963_15611)"/>
<path fill-rule="evenodd" clip-rule="evenodd" d="M21.6584 32.477C21.6584 32.1685 21.9318 31.9981 22.1139 32.1933C23.6048 33.7894 25.4026 34.4668 27.3383 34.4662C29.2744 34.4657 31.0714 33.7868 32.5616 32.1902C32.7437 31.995 33.017 32.1654 33.017 32.4734V33.4696C33.017 33.5747 32.9832 33.6767 32.9239 33.7466C31.3664 35.5907 29.4341 36.4375 27.3387 36.438C25.2433 36.4385 23.3102 35.5933 21.752 33.7502C21.6927 33.6798 21.6588 33.5783 21.6588 33.4732L21.6584 32.477Z" fill="#783E11"/>
<path fill-rule="evenodd" clip-rule="evenodd" d="M20.69 23.9462C19.5991 23.9409 18.5868 24.3488 17.7304 25.0491C17.6702 25.0987 17.6353 25.1771 17.6356 25.2586L17.6403 26.0108C17.6416 26.2081 17.8426 26.3363 18.0035 26.2383C18.7234 25.7956 19.5284 25.5468 20.3813 25.5511C21.4822 25.556 22.5084 25.9796 23.3788 26.7002C23.539 26.8335 23.7701 26.7134 23.7686 26.4982L23.7615 25.2814C23.7612 25.1994 23.7252 25.1205 23.6637 25.0708C22.7986 24.3647 21.7801 23.9506 20.69 23.9462Z" fill="#783E11"/>
<path opacity="0.5" fill-rule="evenodd" clip-rule="evenodd" d="M16.4056 20.8239C17.3749 19.7007 18.6268 18.9703 19.8981 18.6218C21.1695 18.2732 21.8691 18.227 22.4548 18.377C22.6031 18.4156 22.7158 18.5217 22.7737 18.6603L22.791 18.702C22.968 19.1277 22.653 19.6021 22.0761 19.6308C21.4992 19.6595 20.5914 19.8945 20.1524 19.9855C19.0786 20.2082 18.0659 20.7942 17.2008 21.6184C16.8816 21.9226 16.4036 21.8578 16.2575 21.5063C16.1684 21.2931 16.2303 21.0267 16.4056 20.8239Z" fill="#783E11"/>
<path opacity="0.5" fill-rule="evenodd" clip-rule="evenodd" d="M37.4828 20.8239C36.5135 19.7007 35.2617 18.9703 33.9903 18.6218C32.719 18.2732 32.0194 18.227 31.4337 18.377C31.2853 18.4156 31.1726 18.5217 31.1147 18.6603L31.0974 18.702C30.9204 19.1277 31.2354 19.6021 31.8123 19.6308C32.3892 19.6595 33.297 19.8945 33.7361 19.9855C34.8098 20.2082 35.8225 20.7942 36.6877 21.6184C37.0068 21.9226 37.4848 21.8578 37.6309 21.5063C37.72 21.2931 37.6581 21.0267 37.4828 20.8239Z" fill="#783E11"/>
<path fill-rule="evenodd" clip-rule="evenodd" d="M33.1984 23.9462C34.2894 23.9409 35.3016 24.3488 36.158 25.0491C36.2182 25.0987 36.2532 25.1771 36.2529 25.2586L36.2481 26.0108C36.2468 26.2081 36.0458 26.3363 35.8849 26.2383C35.165 25.7956 34.3601 25.5468 33.5072 25.5511C32.4062 25.556 31.38 25.9796 30.5096 26.7002C30.3495 26.8335 30.1183 26.7134 30.1198 26.4982L30.1269 25.2814C30.1273 25.1994 30.1632 25.1205 30.2248 25.0708C31.0898 24.3647 32.1084 23.9506 33.1984 23.9462Z" fill="#783E11"/>
<path fill-rule="evenodd" clip-rule="evenodd" d="M9.51495 30.026C8.69142 30.681 8.32876 31.7041 8.49147 32.7225C8.52823 32.952 8.58175 33.1778 8.63596 33.4042C8.69964 33.6714 8.79279 33.9291 8.90337 34.1804C9.90743 36.4527 12.8769 37.5707 15.1677 38.3214C16.7147 37.0022 18.3838 35.5519 19.2305 33.7177C19.5075 33.1144 19.626 32.4806 19.604 31.8181C19.596 31.5813 19.5728 31.3463 19.5401 31.1119C19.4927 30.7689 19.4182 30.4319 19.2713 30.116C18.9487 29.4237 18.4378 28.9288 17.728 28.6477C17.3321 28.4906 16.9203 28.4334 16.4961 28.4609C16.2294 28.4781 15.9683 28.5264 15.7154 28.6138C15.2265 28.7829 14.8128 29.0662 14.4674 29.4517C14.1753 29.7755 13.9568 30.1451 13.7969 30.5505C13.792 30.5617 13.7877 30.5728 13.7828 30.5836C13.7353 30.5362 13.6953 30.4909 13.6533 30.4472C13.2428 30.0193 12.7636 29.6998 12.195 29.5228C11.852 29.4161 11.5005 29.375 11.1424 29.4003C11.0406 29.4076 10.94 29.4203 10.8402 29.4379C10.7083 29.4612 10.5782 29.4929 10.4497 29.5335C10.1078 29.6408 9.79507 29.8032 9.51495 30.026Z" fill="url(#paint4_radial_37963_15611)"/>
<path fill-rule="evenodd" clip-rule="evenodd" d="M36.581 12.5264C35.602 12.912 34.956 13.7844 34.8139 14.8058C34.7819 15.0361 34.7671 15.2676 34.7527 15.5C34.7355 15.7741 34.7492 16.0478 34.7815 16.3204C35.0774 18.787 37.5902 20.7244 39.5614 22.112C41.4266 21.3028 43.4467 20.4038 44.7927 18.8973C45.234 18.4014 45.5326 17.8299 45.7053 17.19C45.7668 16.9611 45.8134 16.7297 45.8506 16.4959C45.9056 16.1541 45.9328 15.81 45.8848 15.465C45.7787 14.7086 45.4348 14.0859 44.8382 13.6095C44.5055 13.3436 44.1284 13.1685 43.7147 13.0707C43.4547 13.0093 43.1908 12.9791 42.9235 12.9887C42.4064 13.0075 41.9279 13.1575 41.4849 13.4251C41.111 13.6494 40.794 13.9389 40.5225 14.2799C40.5146 14.2892 40.5072 14.2985 40.4993 14.3074C40.4678 14.2482 40.4428 14.1932 40.4154 14.1391C40.1479 13.6099 39.7831 13.1643 39.2911 12.8288C38.9942 12.6264 38.6701 12.4843 38.3203 12.4038C38.2208 12.381 38.1209 12.3638 38.0203 12.3515C37.8874 12.3352 37.7537 12.3275 37.6189 12.3287C37.2606 12.3313 36.914 12.3952 36.581 12.5264Z" fill="url(#paint5_radial_37963_15611)"/>
<path fill-rule="evenodd" clip-rule="evenodd" d="M35.736 34.5511C34.7504 34.9196 34.0893 35.7806 33.9293 36.7994C33.8934 37.029 33.8745 37.2603 33.8561 37.4924C33.8341 37.7662 33.843 38.0401 33.8706 38.3132C34.1233 40.7845 36.6019 42.7655 38.5487 44.1874C40.4276 43.4107 42.4632 42.5472 43.8352 41.0644C44.2851 40.5763 44.5936 40.0101 44.7775 39.3733C44.843 39.1455 44.8936 38.9149 44.9349 38.6818C44.9958 38.341 45.0291 37.9975 44.987 37.6517C44.8941 36.8935 44.5612 36.265 43.973 35.7782C43.645 35.5066 43.271 35.3249 42.8591 35.2199C42.6002 35.1539 42.3368 35.1192 42.0694 35.1241C41.5521 35.1338 41.0711 35.2755 40.6235 35.5354C40.2457 35.753 39.9237 36.037 39.6463 36.3732C39.6382 36.3823 39.6306 36.3915 39.6226 36.4003C39.5921 36.3405 39.568 36.2851 39.5416 36.2305C39.2834 35.6968 38.9264 35.2448 38.4404 34.9008C38.1471 34.6933 37.8255 34.5455 37.4771 34.459C37.378 34.4344 37.2784 34.4155 37.1781 34.4014C37.0455 34.3827 36.912 34.3727 36.7772 34.3716C36.4189 34.368 36.0712 34.4258 35.736 34.5511Z" fill="url(#paint6_radial_37963_15611)"/>
<defs>
<radialGradient id="paint0_radial_37963_15611" cx="0" cy="0" r="1" gradientUnits="userSpaceOnUse" gradientTransform="translate(25.4754 17.0096) rotate(73.7184) scale(27.5504)">
<stop stop-color="#FFF1AA"/>
<stop offset="0.34375" stop-color="#FFE564"/>
<stop offset="0.760417" stop-color="#F4CC00"/>
<stop offset="1" stop-color="#F29E0B"/>
</radialGradient>
<radialGradient id="paint1_radial_37963_15611" cx="0" cy="0" r="1" gradientUnits="userSpaceOnUse" gradientTransform="translate(25.4754 17.0096) rotate(73.7184) scale(27.5504)">
<stop stop-color="#FBEB9D"/>
<stop offset="0.34375" stop-color="#F6E071"/>
<stop offset="0.786458" stop-color="#ECC91A"/>
<stop offset="1" stop-color="#E3BE00"/>
</radialGradient>
<radialGradient id="paint2_radial_37963_15611" cx="0" cy="0" r="1" gradientUnits="userSpaceOnUse" gradientTransform="translate(15.2747 26.7494) rotate(90) scale(9.12425 5.48291)">
<stop stop-color="#FF2727"/>
<stop offset="1" stop-color="#F6E071" stop-opacity="0.07"/>
</radialGradient>
<radialGradient id="paint3_radial_37963_15611" cx="0" cy="0" r="1" gradientUnits="userSpaceOnUse" gradientTransform="translate(5.03498 12.0772) rotate(90) scale(9.07188 5.45144)">
<stop stop-color="#FF2727"/>
<stop offset="1" stop-color="#F6E071" stop-opacity="0.07"/>
</radialGradient>
<radialGradient id="paint4_radial_37963_15611" cx="0" cy="0" r="1" gradientUnits="userSpaceOnUse" gradientTransform="translate(10.8393 31.0715) rotate(59.2929) scale(8.4364 9.91506)">
<stop stop-color="#FF5F5A"/>
<stop offset="0.253494" stop-color="#FF4A45"/>
<stop offset="1" stop-color="#F03D37"/>
</radialGradient>
<radialGradient id="paint5_radial_37963_15611" cx="0" cy="0" r="1" gradientUnits="userSpaceOnUse" gradientTransform="translate(37.5419 13.9134) rotate(76.2929) scale(8.4364 9.91506)">
<stop stop-color="#FF5F5A"/>
<stop offset="0.253494" stop-color="#FF4A45"/>
<stop offset="1" stop-color="#F03D37"/>
</radialGradient>
<radialGradient id="paint6_radial_37963_15611" cx="0" cy="0" r="1" gradientUnits="userSpaceOnUse" gradientTransform="translate(36.6725 35.9547) rotate(77.2929) scale(8.4364 9.91506)">
<stop stop-color="#FF5F5A"/>
<stop offset="0.253494" stop-color="#FF4A45"/>
<stop offset="1" stop-color="#F03D37"/>
</radialGradient>
</defs>
</svg>
