<svg width="54" height="54" viewBox="0 0 54 54" fill="none" xmlns="http://www.w3.org/2000/svg">
<circle cx="27" cy="27" r="17" fill="url(#paint0_radial_37963_15629)"/>
<g opacity="0.5">
<path fill-rule="evenodd" clip-rule="evenodd" d="M27 44C36.3888 44 44 36.3888 44 27C44 17.6112 36.3888 10 27 10C17.6112 10 10 17.6112 10 27C10 36.3888 17.6112 44 27 44ZM27.0001 42.5141C35.5683 42.5141 42.5141 35.5683 42.5141 27.0001C42.5141 18.4319 35.5683 11.4861 27.0001 11.4861C18.4319 11.4861 11.4861 18.4319 11.4861 27.0001C11.4861 35.5683 18.4319 42.5141 27.0001 42.5141Z" fill="url(#paint1_radial_37963_15629)"/>
<path fill-rule="evenodd" clip-rule="evenodd" d="M27 44C36.3888 44 44 36.3888 44 27C44 17.6112 36.3888 10 27 10C17.6112 10 10 17.6112 10 27C10 36.3888 17.6112 44 27 44ZM27.0001 42.5141C35.5683 42.5141 42.5141 35.5683 42.5141 27.0001C42.5141 18.4319 35.5683 11.4861 27.0001 11.4861C18.4319 11.4861 11.4861 18.4319 11.4861 27.0001C11.4861 35.5683 18.4319 42.5141 27.0001 42.5141Z" fill="#C08200" fill-opacity="0.28"/>
</g>
<ellipse cx="21.6106" cy="23.4271" rx="1.65651" ry="2.42712" fill="#783E11"/>
<ellipse cx="31.615" cy="23.4271" rx="1.65651" ry="2.42712" fill="#783E11"/>
<path fill-rule="evenodd" clip-rule="evenodd" d="M34.6247 32.9542C34.6247 32.6551 34.2577 32.49 34.0133 32.6792C32.0116 34.2263 29.598 35.378 26.9992 35.3775C24.3999 35.377 21.9874 34.2237 19.9867 32.6762C19.7422 32.487 19.3753 32.6521 19.3753 32.9507L19.3753 33.9163C19.3753 34.0182 19.4207 34.117 19.5003 34.1848C21.5913 35.9722 24.1855 37.281 26.9987 37.2815C29.8119 37.282 32.4071 35.9747 34.4991 34.1883C34.5788 34.12 34.6242 34.0217 34.6242 33.9198L34.6247 32.9542Z" fill="#783E11"/>
<path fill-rule="evenodd" clip-rule="evenodd" d="M18.8938 19.373C19.7484 19.3586 21.9008 19.5621 23.6224 19.8629C24.6782 20.0442 25.7431 20.1678 26.8123 20.2329C27.68 20.2242 28.5457 20.1503 29.4022 20.0118C31.1709 19.8087 32.9306 19.4884 34.7038 19.4026C36.1721 19.3765 37.6405 19.4519 39.0985 19.6282C39.8098 19.7162 40.4733 20.0329 40.989 20.5306C41.145 20.6478 41.2631 20.8081 41.3289 20.9918C41.3947 21.1754 41.4051 21.3744 41.359 21.5639C40.9439 23.1702 40.5649 24.7854 40.0776 26.3691C39.7515 27.5189 39.0453 28.5241 38.0742 29.2207C36.7849 30.0805 35.2173 30.4189 33.688 30.1677C32.1588 29.9164 30.7819 29.0942 29.8354 27.8671C29.3433 27.1404 28.8914 26.3873 28.4818 25.6111C28.1208 25.002 27.7869 24.3703 27.3899 23.8063C27.0741 23.3551 26.9161 23.3551 26.5958 23.8063C26.1866 24.4149 25.8173 25.0494 25.4903 25.7059C24.9796 26.8389 24.2689 27.8705 23.3923 28.7515C21.98 30.0599 20.3016 30.4119 18.4291 30.1772C16.119 29.893 14.6436 28.5935 13.9171 26.4503C13.5201 25.2953 13.2809 24.0861 12.9696 22.8994C12.8703 22.5249 12.7756 22.155 12.6673 21.785C12.5915 21.5467 12.5945 21.2903 12.6757 21.0538C12.757 20.8174 12.9123 20.6133 13.1185 20.472C13.7484 19.9564 14.5186 19.642 15.3294 19.5696C16.3265 19.4387 18.0392 19.3875 18.8938 19.373Z" fill="#222222"/>
<path opacity="0.1" fill-rule="evenodd" clip-rule="evenodd" d="M37.0184 22.0061C37.0184 22.2452 35.5655 22.4573 33.7743 22.4573C31.983 22.4573 30.5347 22.2633 30.5347 22.0061C30.5347 21.7489 30.8686 21.3022 32.6598 21.3022C34.4511 21.3022 37.0184 21.7489 37.0184 22.0061Z" fill="white"/>
<path opacity="0.1" fill-rule="evenodd" clip-rule="evenodd" d="M21.3755 21.6626C21.3755 21.9017 19.9587 22.213 18.1765 22.3619C16.3942 22.5108 14.9278 22.4341 14.9143 22.195C14.9008 21.9559 15.1986 21.4686 16.9808 21.3197C18.763 21.1708 21.3574 21.4235 21.3755 21.6626Z" fill="white"/>
<defs>
<radialGradient id="paint0_radial_37963_15629" cx="0" cy="0" r="1" gradientUnits="userSpaceOnUse" gradientTransform="translate(25.4754 17.0096) rotate(73.7184) scale(27.5504)">
<stop stop-color="#FFF1AA"/>
<stop offset="0.34375" stop-color="#FFE564"/>
<stop offset="0.760417" stop-color="#F4CC00"/>
<stop offset="1" stop-color="#F29E0B"/>
</radialGradient>
<radialGradient id="paint1_radial_37963_15629" cx="0" cy="0" r="1" gradientUnits="userSpaceOnUse" gradientTransform="translate(25.4754 17.0096) rotate(73.7184) scale(27.5504)">
<stop stop-color="#FBEB9D"/>
<stop offset="0.34375" stop-color="#F6E071"/>
<stop offset="0.786458" stop-color="#ECC91A"/>
<stop offset="1" stop-color="#E3BE00"/>
</radialGradient>
</defs>
</svg>
