<svg width="54" height="54" viewBox="0 0 54 54" fill="none" xmlns="http://www.w3.org/2000/svg">
<path d="M11.3612 18.0693C10.5496 16.1643 10.7317 12.864 10.8478 11.531C10.8723 11.25 11.175 11.0934 11.4254 11.2233C13.7776 12.4434 16.0708 13.2098 19.2427 13.4515L14.0035 21.7612C14.0035 21.7612 12.1558 19.9345 11.3612 18.0693Z" fill="url(#paint0_linear_37963_15624)"/>
<path d="M42.6388 18.0693C43.4504 16.1643 43.2682 12.864 43.1522 11.531C43.1277 11.25 42.825 11.0934 42.5746 11.2233C40.2224 12.4434 37.9291 13.2098 34.7573 13.4515L39.9965 21.7612C39.9965 21.7612 41.8442 19.9345 42.6388 18.0693Z" fill="url(#paint1_linear_37963_15624)"/>
<circle cx="27" cy="27" r="17" fill="url(#paint2_radial_37963_15624)"/>
<path fill-rule="evenodd" clip-rule="evenodd" d="M27 44C36.3888 44 44 36.3888 44 27C44 17.6112 36.3888 10 27 10C17.6112 10 10 17.6112 10 27C10 36.3888 17.6112 44 27 44ZM27.0001 42.5141C35.5683 42.5141 42.5141 35.5683 42.5141 27.0001C42.5141 18.4319 35.5683 11.4861 27.0001 11.4861C18.4319 11.4861 11.4861 18.4319 11.4861 27.0001C11.4861 35.5683 18.4319 42.5141 27.0001 42.5141Z" fill="url(#paint3_radial_37963_15624)"/>
<path fill-rule="evenodd" clip-rule="evenodd" d="M27 44C36.3888 44 44 36.3888 44 27C44 17.6112 36.3888 10 27 10C17.6112 10 10 17.6112 10 27C10 36.3888 17.6112 44 27 44ZM27.0001 42.5141C35.5683 42.5141 42.5141 35.5683 42.5141 27.0001C42.5141 18.4319 35.5683 11.4861 27.0001 11.4861C18.4319 11.4861 11.4861 18.4319 11.4861 27.0001C11.4861 35.5683 18.4319 42.5141 27.0001 42.5141Z" fill="#8E52EC" fill-opacity="0.3"/>
<path fill-rule="evenodd" clip-rule="evenodd" d="M21.4474 33.729C21.4474 33.4204 21.7207 33.2501 21.9028 33.4453C23.3938 35.0414 25.1915 35.7187 27.1272 35.7182C29.0634 35.7177 30.8603 35.0388 32.3505 33.4422C32.5326 33.247 32.806 33.4173 32.806 33.7254V34.7216C32.806 34.8267 32.7721 34.9287 32.7128 34.9986C31.1553 36.8426 29.223 37.6894 27.1276 37.6899C25.0322 37.6905 23.0991 36.8452 21.5409 35.0022C21.4816 34.9318 21.4478 34.8303 21.4478 34.7252L21.4474 33.729Z" fill="#222222"/>
<path fill-rule="evenodd" clip-rule="evenodd" d="M33.8866 28.0015C33.8866 28.9212 33.1499 29.6667 32.2416 29.6667C31.3332 29.6667 30.5966 28.9212 30.5966 28.0015C30.5966 27.0814 31.3332 26.3359 32.2416 26.3359C33.1499 26.3359 33.8866 27.0814 33.8866 28.0015Z" fill="#222222"/>
<path fill-rule="evenodd" clip-rule="evenodd" d="M19.1276 28.0015C19.1276 28.9212 19.8638 29.6667 20.7722 29.6667C21.6809 29.6667 22.4172 28.9212 22.4172 28.0015C22.4172 27.0814 21.6809 26.3359 20.7722 26.3359C19.8638 26.3359 19.1276 27.0814 19.1276 28.0015Z" fill="#222222"/>
<path fill-rule="evenodd" clip-rule="evenodd" d="M29.98 27.8828C31.4629 27.8364 32.8567 27.3997 33.8893 26.5544C34.4233 26.1175 35.4364 25.2711 35.6884 24.7216C35.7518 24.582 35.7403 24.4277 35.669 24.2954L35.6475 24.2558C35.428 23.8502 34.7441 23.8281 34.4757 24.2268C34.249 24.563 33.3365 25.2147 32.9894 25.4986C32.1406 26.1929 31.048 26.6112 29.8629 26.7648C29.4257 26.8214 29.1753 27.2336 29.3565 27.5684C29.4661 27.7719 29.712 27.8913 29.98 27.8828Z" fill="#222222"/>
<path fill-rule="evenodd" clip-rule="evenodd" d="M23.3092 27.8677C21.8263 27.8212 20.4326 27.3846 19.4 26.5393C18.866 26.1024 17.8529 25.256 17.6008 24.7064C17.5374 24.5669 17.549 24.4125 17.6203 24.2803L17.6418 24.2406C17.8612 23.8351 18.5452 23.813 18.8135 24.2117C19.0403 24.5479 19.9527 25.1996 20.2998 25.4835C21.1486 26.1778 22.2413 26.5961 23.4263 26.7497C23.8635 26.8063 24.114 27.2185 23.9327 27.5533C23.8232 27.7567 23.5772 27.8762 23.3092 27.8677Z" fill="#222222"/>
<defs>
<linearGradient id="paint0_linear_37963_15624" x1="14.9936" y1="10.9475" x2="14.9936" y2="21.7612" gradientUnits="userSpaceOnUse">
<stop stop-color="#B389F4"/>
<stop offset="1" stop-color="#8F53ED"/>
</linearGradient>
<linearGradient id="paint1_linear_37963_15624" x1="39.0063" y1="10.9475" x2="39.0063" y2="21.7612" gradientUnits="userSpaceOnUse">
<stop stop-color="#B389F4"/>
<stop offset="1" stop-color="#8F53ED"/>
</linearGradient>
<radialGradient id="paint2_radial_37963_15624" cx="0" cy="0" r="1" gradientUnits="userSpaceOnUse" gradientTransform="translate(25.4754 17.0096) rotate(73.7184) scale(27.5504)">
<stop stop-color="#CEAEFF"/>
<stop offset="0.34375" stop-color="#C19AFE"/>
<stop offset="0.96875" stop-color="#A16AF8"/>
</radialGradient>
<radialGradient id="paint3_radial_37963_15624" cx="0" cy="0" r="1" gradientUnits="userSpaceOnUse" gradientTransform="translate(25.4754 17.0096) rotate(73.7184) scale(27.5504)">
<stop stop-color="#D9C2FE"/>
<stop offset="0.34375" stop-color="#B791F4"/>
<stop offset="0.96875" stop-color="#8E52EC"/>
</radialGradient>
</defs>
</svg>
