<svg width="54" height="54" viewBox="0 0 54 54" fill="none" xmlns="http://www.w3.org/2000/svg">
<circle cx="27" cy="27" r="17" fill="url(#paint0_radial_37963_15636)"/>
<g opacity="0.5">
<path fill-rule="evenodd" clip-rule="evenodd" d="M27 44C36.3888 44 44 36.3888 44 27C44 17.6112 36.3888 10 27 10C17.6112 10 10 17.6112 10 27C10 36.3888 17.6112 44 27 44ZM27.0001 42.5141C35.5683 42.5141 42.5141 35.5683 42.5141 27.0001C42.5141 18.4319 35.5683 11.4861 27.0001 11.4861C18.4319 11.4861 11.4861 18.4319 11.4861 27.0001C11.4861 35.5683 18.4319 42.5141 27.0001 42.5141Z" fill="url(#paint1_radial_37963_15636)"/>
<path fill-rule="evenodd" clip-rule="evenodd" d="M27 44C36.3888 44 44 36.3888 44 27C44 17.6112 36.3888 10 27 10C17.6112 10 10 17.6112 10 27C10 36.3888 17.6112 44 27 44ZM27.0001 42.5141C35.5683 42.5141 42.5141 35.5683 42.5141 27.0001C42.5141 18.4319 35.5683 11.4861 27.0001 11.4861C18.4319 11.4861 11.4861 18.4319 11.4861 27.0001C11.4861 35.5683 18.4319 42.5141 27.0001 42.5141Z" fill="#C08200" fill-opacity="0.28"/>
</g>
<ellipse cx="32.1452" cy="22.8656" rx="1.65651" ry="2.42712" fill="#783E11"/>
<path d="M32.1704 35.0107C32.1894 34.8649 32.0495 34.7488 31.9081 34.7893C29.7949 35.3943 27.6553 35.1329 25.6216 34.1806C23.6602 33.2613 21.8525 31.8408 20.5886 29.937C20.4965 29.7982 20.2828 29.8189 20.2242 29.9748L19.8156 31.0601C19.7951 31.1145 19.7992 31.1749 19.8272 31.2258C20.9296 33.2231 22.6259 35.0149 24.6742 35.9768C26.7689 36.9539 29.6298 37.4263 31.8272 36.76C31.901 36.7376 31.9537 36.6735 31.9637 36.597L32.1704 35.0107Z" fill="#783E11"/>
<path fill-rule="evenodd" clip-rule="evenodd" d="M22.4945 21.0006C21.425 20.9068 20.3974 21.2054 19.4977 21.7899C19.4344 21.8314 19.3935 21.9017 19.3868 21.9779L19.3271 22.681C19.3115 22.8655 19.4977 23.0017 19.6638 22.9232C20.4077 22.5683 21.2184 22.4014 22.0544 22.4749C23.1337 22.5692 24.1038 23.0486 24.8958 23.7927C25.0414 23.9303 25.2784 23.8369 25.2953 23.6358L25.3924 22.4984C25.3991 22.4217 25.3706 22.3451 25.3145 22.2936C24.5265 21.5635 23.5631 21.0936 22.4945 21.0006Z" fill="#783E11"/>
<defs>
<radialGradient id="paint0_radial_37963_15636" cx="0" cy="0" r="1" gradientUnits="userSpaceOnUse" gradientTransform="translate(25.4754 17.0096) rotate(73.7184) scale(27.5504)">
<stop stop-color="#FFF1AA"/>
<stop offset="0.34375" stop-color="#FFE564"/>
<stop offset="0.760417" stop-color="#F4CC00"/>
<stop offset="1" stop-color="#F29E0B"/>
</radialGradient>
<radialGradient id="paint1_radial_37963_15636" cx="0" cy="0" r="1" gradientUnits="userSpaceOnUse" gradientTransform="translate(25.4754 17.0096) rotate(73.7184) scale(27.5504)">
<stop stop-color="#FBEB9D"/>
<stop offset="0.34375" stop-color="#F6E071"/>
<stop offset="0.786458" stop-color="#ECC91A"/>
<stop offset="1" stop-color="#E3BE00"/>
</radialGradient>
</defs>
</svg>
