<svg xmlns="http://www.w3.org/2000/svg" width="199" height="200" fill="none"><g fill="#fff" opacity=".18"><path fill-rule="evenodd" d="m98.061 123.434-16.584 6.392a.418.418 0 0 0 .043.794l40.04 10.729c.534.143 1.1.113 1.615-.085l18.027-6.947a.534.534 0 0 0 .323-.36l7.457-27.83a2.368 2.368 0 0 0-1.675-2.9L108.7 92.882a2.369 2.369 0 0 0-2.901 1.674l-7.738 28.878Zm6.965-29.085a3.17 3.17 0 0 1 3.881-2.24l38.607 10.345a3.168 3.168 0 0 1 2.241 3.88l-7.457 27.83a1.334 1.334 0 0 1-.809.899l-18.026 6.947a3.408 3.408 0 0 1-2.11.112l-40.04-10.729c-1.14-.305-1.224-1.89-.123-2.314l16.204-6.245 7.632-28.485Z" clip-rule="evenodd"/><path fill-rule="evenodd" d="m114.551 106.157.113 1.851c1.223-.181 2.566-.282 4.035.112.623.167 1.241.464 1.656.939.433.496.616 1.154.405 1.94-.195.729-.69 1.223-1.307 1.604-.599.371-1.358.661-2.147.963l-.027.01c-2.39.915-5.344 2.051-6.926 5.998l10.329 2.768.514-1.917-7.137-1.912.285-.458c.447-.719 1.11-1.245 1.849-1.672.732-.423 1.569-.765 2.386-1.099l.015-.006c2.205-.9 4.227-1.755 4.807-3.919.298-1.113.166-2.132-.404-2.976-.574-.851-1.63-1.578-3.279-2.019-1.941-.521-3.751-.417-5.167-.207Zm-.487-.733c1.513-.252 3.596-.44 5.861.167 1.771.474 3.021 1.285 3.736 2.345.719 1.066.86 2.332.513 3.63-.692 2.581-3.105 3.566-5.202 4.422l-.076.031c-.833.34-1.622.663-2.303 1.057-.49.282-.908.593-1.234.957l6.817 1.827-.928 3.461-11.949-3.201.147-.409c1.664-4.631 5.045-5.925 7.536-6.878l.012-.004c.82-.314 1.51-.58 2.038-.906.518-.32.832-.67.955-1.131.144-.535.019-.916-.235-1.207-.271-.311-.72-.548-1.26-.693-1.472-.394-2.817-.24-4.136-.026l-.437.07-.211-3.453.356-.059Zm18.064 3.487 2.85.764-2.371 8.848 2.28.61-.891 3.323-2.279-.611-1.071 3.995-3.867-1.036 1.071-3.995-6.863-1.839.681-2.541 10.46-7.518Zm.16.871-9.921 7.13-.4 1.493 6.863 1.838-1.071 3.996 2.322.622 1.07-3.996 2.28.611.476-1.777-2.28-.611 2.371-8.848-1.71-.458Zm-1.486 3.099-1.493 5.573-4.471-1.198 5.964-4.375Zm-4.146 4.034 2.088.559.697-2.602-2.785 2.043ZM95.341 129.633l24.389 6.535a.532.532 0 0 0 .33-.018l9.273-3.575-24.389-6.535a.532.532 0 0 0-.33.018l-9.273 3.575Zm24.182 7.307c.273.073.562.058.825-.043l9.654-3.723c.603-.232.556-1.098-.067-1.265l-24.784-6.641a1.33 1.33 0 0 0-.825.043l-9.655 3.722c-.602.233-.556 1.099.068 1.266l24.784 6.641ZM121.773 99.987a1.497 1.497 0 0 1 1.833-1.059l7.769 2.082a1.497 1.497 0 0 1-.775 2.891l-7.769-2.081a1.497 1.497 0 0 1-1.058-1.833Zm1.626-.286a.696.696 0 1 0-.361 1.346l7.769 2.082a.696.696 0 0 0 .361-1.346l-7.769-2.082ZM84.203 111.495l3.218-4.378a.954.954 0 0 1 1.015-.359.97.97 0 0 1 .692 1.139l-.002.009-.003.013-.469 1.997h.723c.248 0 .482.091.663.247.418.36.474.978.162 1.408l-.004.007-.008.011-3.292 4.356a.954.954 0 0 1-1.035.341l.23-.766a.153.153 0 0 0 .167-.057l3.291-4.357.003-.004a.25.25 0 0 0-.036-.333.218.218 0 0 0-.141-.053h-1.732l.7-2.979v-.005a.17.17 0 0 0-.116-.201.153.153 0 0 0-.163.06l-3.218 4.378-.003.004a.25.25 0 0 0 .04.332c.04.033.09.051.14.051h1.74l-.781 2.955-.001.004a.171.171 0 0 0 .11.205l-.23.766a.971.971 0 0 1-.658-1.157l.002-.009.003-.014.516-1.95h-.701c-.244 0-.474-.087-.653-.238a1.05 1.05 0 0 1-.18-1.406l.004-.007.007-.01ZM156.203 194.828l3.219-4.378a.951.951 0 0 1 1.014-.358.97.97 0 0 1 .692 1.138l-.002.009-.003.014-.468 1.996h.722c.248 0 .482.092.663.247.418.361.474.978.162 1.409l-.004.006-.008.011-3.292 4.357a.953.953 0 0 1-1.035.34l.23-.766a.154.154 0 0 0 .167-.057l3.291-4.356.003-.004a.252.252 0 0 0-.036-.334.219.219 0 0 0-.141-.053h-1.732l.7-2.979v-.004a.17.17 0 0 0-.116-.202.155.155 0 0 0-.163.06l-3.218 4.378-.003.004a.252.252 0 0 0 .041.333.215.215 0 0 0 .139.051h1.739l-.78 2.954-.001.004c-.021.089.027.18.11.205l-.23.766a.97.97 0 0 1-.658-1.157l.002-.009.003-.013.516-1.95h-.701c-.244 0-.474-.088-.653-.238a1.051 1.051 0 0 1-.181-1.407l.005-.006.007-.011ZM61.886 32.899l-4.88-1.038c-.94-.2-1.864.4-2.063 1.34l-1.378 6.483c-.2.94.4 1.864 1.34 2.063l4.88 1.038c.94.2 1.863-.4 2.063-1.34l1.378-6.483c.2-.94-.4-1.864-1.34-2.063Zm-4.714-1.82a2.54 2.54 0 0 0-3.012 1.956l-1.378 6.483a2.54 2.54 0 0 0 1.956 3.012l4.88 1.037a2.54 2.54 0 0 0 3.012-1.956l1.378-6.483a2.54 2.54 0 0 0-1.956-3.012l-4.88-1.037ZM77.096 31.287l-4.88-1.037c-.94-.2-1.863.4-2.063 1.34L67.79 42.708c-.2.94.4 1.863 1.34 2.063l4.88 1.037c.94.2 1.863-.4 2.063-1.34l2.363-11.117c.2-.94-.4-1.864-1.34-2.064Zm-4.713-1.82a2.54 2.54 0 0 0-3.013 1.957L67.007 42.54a2.54 2.54 0 0 0 1.956 3.013l4.88 1.037a2.54 2.54 0 0 0 3.013-1.956l2.363-11.118a2.54 2.54 0 0 0-1.956-3.012l-4.88-1.037ZM92.77 27.495l-4.88-1.037c-.94-.2-1.863.4-2.063 1.34L82.015 45.73c-.2.94.4 1.864 1.34 2.064l4.88 1.037c.94.2 1.863-.4 2.063-1.34l3.812-17.934c.2-.94-.4-1.863-1.34-2.063Zm-4.713-1.82a2.54 2.54 0 0 0-3.013 1.956l-3.812 17.934a2.54 2.54 0 0 0 1.957 3.012l4.88 1.037a2.54 2.54 0 0 0 3.012-1.956l3.811-17.933a2.54 2.54 0 0 0-1.956-3.013l-4.88-1.037ZM73.89 13.706l9.518 2.023-2.029 9.547-3.172-.674.875-4.116-8.893 5.797-3.457-5.342-9.475 6.176-1.819-2.811 12.28-8.004 3.511 5.427 6.09-3.97-4.104-.873.676-3.18ZM56.544 24.541l.95 1.467 9.475-6.176 3.456 5.342 9.843-6.415-1.11 5.227 1.606.341 1.697-7.982-7.953-1.69-.343 1.615 5.207 1.107-8.378 5.46-3.511-5.427-10.94 7.13Z" clip-rule="evenodd"/><path fill-rule="evenodd" d="m57.33 6.854 42.882 9.114a3.01 3.01 0 0 1 2.318 3.57l-6.877 32.353a3.01 3.01 0 0 1-3.57 2.318l-42.882-9.115a3.01 3.01 0 0 1-2.318-3.57L53.76 9.173a3.01 3.01 0 0 1 3.57-2.318Zm-4.353 2.151a3.81 3.81 0 0 1 4.519-2.934l42.882 9.115a3.81 3.81 0 0 1 2.935 4.518l-6.877 32.354a3.81 3.81 0 0 1-4.519 2.934l-19.462-4.137a.727.727 0 0 1-.007.038l-.318 1.494 4.126 6.214a1.92 1.92 0 0 1-.579 2.725 2 2 0 0 1-1.468.27 2.035 2.035 0 0 1-1.29-.856l-3.51-5.286-5.356 3.4a1.996 1.996 0 0 1-2.758-.585 1.919 1.919 0 0 1 .578-2.724v-.001l6.314-4.053.306-1.439a.763.763 0 0 1 .009-.037l-19.467-4.138a3.81 3.81 0 0 1-2.934-4.519l6.876-32.353Zm15.986 42.686.295-1.392 2.39.508-.308 1.447a.717.717 0 0 0 .104.547l4.146 6.243a1.12 1.12 0 0 1-.341 1.607 1.2 1.2 0 0 1-.874.162 1.236 1.236 0 0 1-.79-.516l-3.554-5.353a.718.718 0 0 0-.982-.209l-5.425 3.445a1.196 1.196 0 0 1-1.663-.354 1.12 1.12 0 0 1 .341-1.607l6.346-4.073a.717.717 0 0 0 .315-.455ZM39.768 79.129c.012-.356.02-.713.022-1.071.042-5.975-.545-11.562-.545-11.562L5.113 70.084s.184 1.746.339 4.288l-.45-4.277 34.243-3.599 2.268 21.574a3.81 3.81 0 0 1-3.391 4.187l-26.665 2.802a3.81 3.81 0 0 1-3.768-2.008l.877-.092a3.009 3.009 0 0 0 2.807 1.305l26.665-2.803a3.01 3.01 0 0 0 2.679-3.308l-.949-9.024Z" clip-rule="evenodd"/><path fill-rule="evenodd" d="M11.249 57.42c-.59.062-.994.567-.939 1.099l.459 4.36c.056.531.556.94 1.146.879.59-.062.994-.567.939-1.099l-.459-4.36c-.056-.532-.556-.94-1.146-.879Zm-1.734 1.182c-.105-1 .65-1.872 1.65-1.977 1.001-.106 1.92.592 2.026 1.591l.158 1.505 15.458-1.625-.158-1.505c-.105-1 .65-1.872 1.65-1.978 1.001-.105 1.921.592 2.026 1.592l.158 1.505 1.986-.21a3.81 3.81 0 0 1 4.187 3.391l.688 6.544-.01.001c.162 1.838.488 6.12.456 10.622a45.45 45.45 0 0 1-.131 3.074h.001l-.007.08c-.034.44-.073.873-.115 1.296l-.005.003-.012.128v.006l-.002.009-.003.029a7.447 7.447 0 0 1-.067.445c-.053.29-.141.693-.286 1.16-.288.93-.81 2.147-1.746 3.222-1.166 1.34-2.643 2.093-3.797 2.511-.58.21-1.091.34-1.46.418a8.42 8.42 0 0 1-.566.1l-.036.004-.012.002h-.006l-.007-.06.007.06-1.533.17.006-.01L5.989 93.23c-.868.09-1.578-.7-1.416-1.558.415-2.192 1.046-6.14 1.085-10.027.045-4.4-.29-8.759-.456-10.621l-.101.01-.688-6.544a3.81 3.81 0 0 1 3.39-4.187l1.87-.196-.158-1.505Zm29.304 22.996-3.333 1.847a8.42 8.42 0 0 0-3.292 3.301l-1.71 3.105-24.579 2.583a.517.517 0 0 1-.545-.613c.417-2.21 1.058-6.212 1.098-10.168.03-2.935-.107-5.848-.252-8.023a121.32 121.32 0 0 0-.202-2.628l-.006-.062 32.54-3.42.001.013c.054.612.126 1.49.196 2.556.14 2.132.276 5.001.255 7.963a45.697 45.697 0 0 1-.17 3.546Zm-7.367 8.152s.198-.021.527-.09c.144-.03.313-.07.502-.12 1.135-.3 2.98-1 4.333-2.555 1-1.148 1.486-2.495 1.716-3.397a8.9 8.9 0 0 0 .13-.59c.05-.272.064-.433.064-.433l-2.85 1.58a7.619 7.619 0 0 0-2.98 2.988l-1.442 2.617Zm6.408-28.775.59 5.605-32.652 3.432-.59-5.605a3.01 3.01 0 0 1 2.68-3.308l1.869-.196.216 2.059c.105 1 1.025 1.697 2.026 1.591 1-.105 1.755-.978 1.65-1.978l-.216-2.059 15.458-1.624.216 2.059c.105 1 1.025 1.696 2.026 1.591 1-.105 1.755-.978 1.65-1.978l-.216-2.059 1.986-.209a3.01 3.01 0 0 1 3.307 2.679Zm-8.415-4.467c-.056-.533.348-1.037.938-1.099.59-.062 1.09.347 1.146.88l.459 4.359c.056.532-.349 1.037-.939 1.099-.59.062-1.09-.348-1.146-.88l-.458-4.36Z" clip-rule="evenodd"/><path fill-rule="evenodd" d="m13.914 72.945 1.873 2.87 3.489.12-2.242 2.595.94 3.257-3.261-1.243-2.932 1.894.242-3.381-2.732-2.073 3.387-.842 1.236-3.197Zm.454-.767a.6.6 0 0 0-1.058.111l-1.228 3.177-3.41.847c-.461.115-.632.727-.219 1.04l2.74 2.08-.24 3.364c-.037.52.536.78.92.533l2.933-1.894 3.263 1.243c.427.162.934-.213.79-.713l-.936-3.241 2.249-2.604c.338-.392.045-.954-.431-.97l-3.511-.121-1.862-2.852Z" clip-rule="evenodd"/><path d="M155.574 85.785a13.864 13.864 0 0 0 10.149 5.84l8.795.77c.507.044 1.009.061 1.507.051l3.062 2.863c1.294 1.21 3.403.127 3.194-1.64l-.319-2.695a13.886 13.886 0 0 0 7.608-11.209c.52-5.948-2.789-11.349-7.885-13.767.106.342.2.69.283 1.04 4.445 2.412 7.274 7.299 6.805 12.657a13.086 13.086 0 0 1-7.171 10.564l-.501.252.386 3.252c.123 1.044-1.117 1.65-1.853.962l-3.3-3.085-.325.006c-.469.01-.943-.006-1.422-.048l-8.794-.77a13.059 13.059 0 0 1-9.152-4.95l-1.067-.093Z"/><path fill-rule="evenodd" d="m145.544 82.13-1.121 3.721c-.281.933.678 1.742 1.53 1.34l5.555-2.622.244.04c.358.056.721.101 1.089.134l12.254 1.072c8.347.73 15.706-5.445 16.436-13.792.731-8.347-5.444-15.705-13.791-16.436l-12.254-1.072c-8.347-.73-15.706 5.444-16.436 13.791-.476 5.433 1.973 10.447 6.045 13.488l.449.336Zm-.928.305c-4.285-3.2-6.864-8.479-6.363-14.198.768-8.787 8.515-15.288 17.302-14.519l12.255 1.072c8.787.77 15.287 8.516 14.518 17.303-.769 8.787-8.515 15.287-17.302 14.519l-12.255-1.073a16.195 16.195 0 0 1-1.145-.141l-5.332 2.517c-1.489.702-3.114-.71-2.637-2.294l.959-3.186Z" clip-rule="evenodd"/><path fill-rule="evenodd" d="M147.202 60.547a1.439 1.439 0 0 1 1.559-1.308l25.034 2.19a1.439 1.439 0 1 1-.251 2.867l-25.034-2.19a1.44 1.44 0 0 1-1.308-1.559Zm1.489-.51a.64.64 0 0 0-.111 1.272l25.034 2.19a.639.639 0 0 0 .112-1.272l-25.035-2.19ZM146.795 65.204a1.439 1.439 0 0 1 1.559-1.308l25.034 2.19a1.44 1.44 0 0 1-.251 2.867l-25.034-2.19a1.439 1.439 0 0 1-1.308-1.559Zm1.489-.51a.639.639 0 0 0-.112 1.272l25.035 2.19a.64.64 0 0 0 .111-1.273l-25.034-2.19ZM146.387 69.86a1.44 1.44 0 0 1 1.559-1.307l14.603 1.278a1.44 1.44 0 0 1-.251 2.866l-14.603-1.277a1.44 1.44 0 0 1-1.308-1.56Zm1.489-.51a.64.64 0 0 0-.111 1.273l14.603 1.277a.64.64 0 0 0 .111-1.273l-14.603-1.277ZM149.587 73.509l4.958.434a3.397 3.397 0 1 1-.592 6.768l-4.958-.434a3.397 3.397 0 1 1 .592-6.768Zm-.07.797a2.597 2.597 0 0 0-.452 5.174l4.958.434a2.596 2.596 0 1 0 .452-5.174l-4.958-.434Z" clip-rule="evenodd"/><path fill-rule="evenodd" d="M151.123 76.094c-.257-.069-.492.024-.573.135l-.366.502-.305-.541c-.093-.165-.328-.294-.564-.282a.432.432 0 0 0-.267.1c-.067.059-.139.161-.172.349-.035.189.033.358.315.664.075.082.169.175.274.28.171.17.371.37.567.595.242-.181.483-.336.688-.468.123-.079.234-.15.324-.213.344-.242.445-.393.451-.583a.543.543 0 0 0-.103-.372.5.5 0 0 0-.269-.166Zm.896-.33c.187.235.286.54.276.892-.019.596-.412.947-.791 1.213-.138.097-.276.186-.415.275-.275.176-.555.355-.854.614l-.323.28-.258-.341a6.926 6.926 0 0 0-.7-.774c-.118-.117-.235-.234-.352-.36-.313-.34-.619-.764-.514-1.349.062-.34.212-.616.435-.81.222-.192.489-.281.749-.295.35-.018.72.099 1 .329a1.465 1.465 0 0 1 1.057-.117 1.3 1.3 0 0 1 .69.442ZM118.706 54.161a.97.97 0 0 1 .102.079l.462.267c.576.332.97.736 1.178 1.223.208.485.21 1.003.092 1.522-.23 1.01-.943 2.144-1.712 3.312l-.284.43c-.707 1.068-1.452 2.193-2.021 3.377-.645 1.34-1.044 2.718-.91 4.117a.4.4 0 1 1-.796.077c-.154-1.602.308-3.132.985-4.54.595-1.238 1.372-2.411 2.076-3.474l.002-.003.28-.424c.789-1.199 1.408-2.207 1.6-3.05.092-.406.076-.742-.047-1.03-.106-.247-.308-.495-.663-.733a127.77 127.77 0 0 1-5.824 11.727.943.943 0 0 1-.789.479l-.554.958a.926.926 0 0 1-.116.657 64.757 64.757 0 0 1-4.856 6.95.924.924 0 0 1-1.12.252l.023 2.036a3.511 3.511 0 0 1-1.684 3.032l-2.926 1.78c-.464.283-1-.24-.728-.711l1.335-2.312.231.018a.738.738 0 0 0 .69-.376c.209-.362.087-.798-.236-.984-.323-.187-.762-.074-.971.288a.736.736 0 0 0 .032.801l.14.193-1.332 2.308c-.272.47-.993.269-.98-.275l.078-3.424a3.511 3.511 0 0 1 1.785-2.974l1.774-.999a.923.923 0 0 1-.342-1.095 64.88 64.88 0 0 1 3.591-7.681.93.93 0 0 1 .511-.429l.553-.958a.945.945 0 0 1 .02-.923 127.958 127.958 0 0 1 7.246-10.91.932.932 0 0 1 1.166-.274l.743-1.288a1.697 1.697 0 0 1 2.939 1.697l-.743 1.287Zm-.692-.401.742-1.286a.896.896 0 1 0-1.553-.897l-.742 1.286 1.553.897Zm-6.342 13.482-3.716-2.145-.318.55 3.715 2.146.319-.551Zm.857-.597a.144.144 0 0 1-.105.07l-4.389-2.533a.145.145 0 0 1 .009-.127c3-5.088 6.036-9.278 7.198-10.838a.13.13 0 0 1 .12-.05l-.015.024 2.939 1.697.011-.02.012.007a.13.13 0 0 1 .008.117 127.072 127.072 0 0 1-5.788 11.653Zm-1.444 1.945-4.003-2.312a.138.138 0 0 0-.111.069 63.987 63.987 0 0 0-3.545 7.582c-.02.05-.005.116.062.155l2.634 1.52c.067.04.133.019.166-.023a64.063 64.063 0 0 0 4.794-6.861.138.138 0 0 0 .003-.13Zm-7.41 6.62a.062.062 0 0 1 .062-.002l1.288.743c.016.01.029.028.029.055l.027 2.372a2.778 2.778 0 0 1-1.332 2.398l-2.231 1.357.708-1.227a1.479 1.479 0 0 0 1.141-.738c.399-.692.19-1.586-.504-1.987-.695-.4-1.574-.135-1.973.557a1.476 1.476 0 0 0-.054 1.387l-.7 1.211.06-2.611a2.782 2.782 0 0 1 1.411-2.352l2.068-1.164ZM138.839 155.691l.774 2.89 6.128-1.642a3.81 3.81 0 0 1 4.666 2.694l2.413 9.006a2.512 2.512 0 0 1-.722 2.505l3.226 12.038a3.81 3.81 0 0 1-2.694 4.666l-32.507 8.71a3.809 3.809 0 0 1-4.666-2.694l-3.225-12.037a2.517 2.517 0 0 1-1.879-1.809l-2.413-9.006a3.81 3.81 0 0 1 2.694-4.666l6.128-1.642-.774-2.89a5.08 5.08 0 0 1 3.592-6.221l13.038-3.494a5.08 5.08 0 0 1 6.221 3.592Zm-22.078 5.916a4.28 4.28 0 0 1 3.026-5.242l13.038-3.493a4.279 4.279 0 0 1 5.241 3.026l.773 2.886-2.897.777-.658-2.453a2.387 2.387 0 0 0-2.923-1.688l-10.898 2.92a2.386 2.386 0 0 0-1.688 2.924l.657 2.453-2.898.776-.773-2.886Zm18.409-1.835-13.964 3.742-.659-2.457a1.587 1.587 0 0 1 1.123-1.944l10.898-2.92a1.587 1.587 0 0 1 1.944 1.122l.658 2.457Zm2.185 18.748c4.833-2.032 10.967-5.256 14.04-6.91l3.156 11.779a3.01 3.01 0 0 1-2.128 3.686l-32.507 8.71a3.009 3.009 0 0 1-3.686-2.128l-3.156-11.779c3.488-.103 10.412-.379 15.614-1.036l.684 2.554a2.002 2.002 0 0 0 2.45 1.415l4.803-1.287a2 2 0 0 0 1.414-2.45l-.684-2.554Zm-.21-.78a111.784 111.784 0 0 0 5.143-2.353 238.205 238.205 0 0 0 8.928-4.59 1.705 1.705 0 0 0 .831-1.951l-2.413-9.006a3.01 3.01 0 0 0-3.686-2.128l-35.107 9.407a3.01 3.01 0 0 0-2.128 3.686l2.413 9.006a1.706 1.706 0 0 0 1.696 1.274c2.252-.065 6.128-.206 10.026-.489a112.01 112.01 0 0 0 5.631-.534l-.509-1.898a2 2 0 0 1 1.414-2.45l4.803-1.287a2.001 2.001 0 0 1 2.45 1.414l.508 1.899Zm-7.554-1.253 4.803-1.287a1.199 1.199 0 0 1 1.47.849l1.402 5.232a1.2 1.2 0 0 1-.848 1.47l-4.803 1.287a1.2 1.2 0 0 1-1.47-.849l-1.402-5.232a1.2 1.2 0 0 1 .848-1.47ZM16.393 20.457c.073 0 .171.01.267.05.92.374 1.61 1.19 2.01 2.202.402 1.014.526 2.25.3 3.525-.387 2.189-1.72 3.965-3.354 4.461a.597.597 0 0 1-.623-.173.629.629 0 0 1-.13-.605c.045-.148.088-.297.13-.446.157-.561.324-1.258.365-1.812.054-.714-.109-1.276-.276-1.845l-.017-.058c-.173-.589-.343-1.192-.25-1.965.076-.643.347-1.422.597-2.034.041-.103.067-.22.102-.38 0-.005.002-.009.003-.013.031-.147.07-.33.14-.509a.567.567 0 0 1 .253-.28.88.88 0 0 1 .245-.093c.078-.017.16-.026.238-.025Zm-.028.8a4.012 4.012 0 0 0-.069.287l-.002.012c-.032.146-.07.328-.141.501-.245.602-.481 1.298-.544 1.828-.071.597.052 1.061.223 1.645l.021.072c.167.565.368 1.25.303 2.116-.048.638-.233 1.398-.392 1.968l-.031.11c1.12-.523 2.13-1.889 2.45-3.7.202-1.143.085-2.228-.257-3.092-.34-.856-.888-1.47-1.544-1.747h-.017Zm-2.042-.21c-1.287.337-2.53 1.8-2.895 3.86-.221 1.251-.01 2.45.428 3.358.446.925 1.088 1.479 1.678 1.582l.035.007c.047-.22.1-.446.162-.667.155-.555.307-1.201.343-1.69.045-.598-.088-1.064-.26-1.646l-.01-.035c-.174-.593-.38-1.304-.271-2.214.087-.731.386-1.575.639-2.197.052-.127.102-.247.15-.358Zm.258-.858c.533-.056.783.495.61.876-.08.175-.178.395-.278.641-.248.61-.512 1.371-.586 1.99-.087.734.072 1.307.245 1.894m0 0 .016.054c.167.57.34 1.16.284 1.912-.043.572-.213 1.283-.37 1.846-.072.252-.13.516-.185.786a.616.616 0 0 1-.714.486l-.13-.024-.078-.015c-.948-.166-1.757-.98-2.26-2.022-.51-1.057-.746-2.425-.495-3.844.43-2.432 2.044-4.382 3.94-4.58" clip-rule="evenodd"/><path fill-rule="evenodd" d="M12.214 11.142c1.587-.28 3.614-.706 5.241-1.06.815-.178 1.53-.339 2.042-.454l.349-.08c.91-.01 1.709.687 1.777 1.627l.11 1.495a1.716 1.716 0 0 1-1.328 1.805c-2.03.461-5.112 1.138-7.41 1.543-2.297.405-5.424.823-7.49 1.084a1.716 1.716 0 0 1-1.864-1.242l-.409-1.442c-.26-.92.27-1.863 1.152-2.15.128-.015.289-.036.475-.06.52-.066 1.246-.16 2.071-.27 1.649-.224 3.697-.517 5.284-.796Zm-8.63.621.026-.46a3.6 3.6 0 0 1 3.08-3.355c1.503-.219 3.376-.503 4.827-.759 1.454-.256 3.314-.63 4.802-.939a3.6 3.6 0 0 1 4.038 2.092l.219.507a2.556 2.556 0 0 1 1.845 2.268l.11 1.495a2.52 2.52 0 0 1-1.462 2.48l1.559 16.073c.15 1.542-.835 2.968-2.341 3.333-1.22.295-2.67.624-3.885.839a62.311 62.311 0 0 1-3.404.479c-1.847.216-3.543-.99-4.007-2.79l-3.9-15.118a2.52 2.52 0 0 1-2.22-1.83l-.408-1.442a2.558 2.558 0 0 1 1.121-2.873Zm16.08-3.007c-.118.01-.237.027-.356.054-2.146.475-5.075 1.102-7.32 1.498-2.243.396-5.21.808-7.39 1.095a2.62 2.62 0 0 0-.194.034l.005-.09A2.8 2.8 0 0 1 6.806 8.74c1.503-.22 3.386-.505 4.85-.763 1.466-.259 3.336-.635 4.825-.943a2.8 2.8 0 0 1 3.141 1.625l.043.097ZM6.58 20.476l3.048 11.817c.248-.002.596-.013 1.05-.041 1.07-.068 2.729-.238 5.065-.65 2.337-.412 3.955-.82 4.984-1.122.435-.128.765-.238 1-.32l-1.178-12.148c-.33.088-.787.206-1.366.345a93.52 93.52 0 0 1-5.572 1.148 93.536 93.536 0 0 1-5.629.827c-.592.067-1.062.113-1.402.143Zm-.203-.786.025-.002c.338-.03.84-.077 1.49-.15 1.3-.148 3.199-.401 5.58-.821a92.672 92.672 0 0 0 5.524-1.138 55.56 55.56 0 0 0 1.475-.374l-.182-1.871c-.5.113-1.178.265-1.949.432-1.618.353-3.652.78-5.288 1.066a144.49 144.49 0 0 1-5.225.786c-.755.102-1.423.188-1.92.252l.47 1.82Zm6.528 15.331c-1.345.157-2.603-.654-3.06-1.932.237-.005.53-.017.883-.039 1.102-.07 2.791-.243 5.154-.66 2.364-.417 4.01-.83 5.07-1.143.346-.101.629-.192.854-.268l.026.263c.112 1.157-.626 2.21-1.733 2.478-1.215.294-2.645.619-3.836.829a61.68 61.68 0 0 1-3.358.472ZM181.192 135.864a.823.823 0 0 1 .247.175c.822.887 1.168 2.149 1.088 3.489-.079 1.344-.585 2.795-1.506 4.109-1.584 2.259-4.005 3.54-6.072 3.246a.65.65 0 0 1-.534-.456.689.689 0 0 1 .151-.659c.13-.144.259-.29.386-.439.476-.554 1.039-1.263 1.385-1.879.449-.8.563-1.541.674-2.275l.012-.075c.115-.759.239-1.515.741-2.325.42-.678 1.132-1.41 1.738-1.973a2.95 2.95 0 0 0 .329-.39l.009-.011c.114-.151.251-.332.42-.492a.603.603 0 0 1 .373-.158c.105-.009.209.004.297.023.091.02.181.051.262.09Zm-.445.689c-.092.097-.178.21-.277.342l-.008.009a3.54 3.54 0 0 1-.415.484c-.598.555-1.242 1.227-1.602 1.808-.409.659-.516 1.27-.631 2.023m0 0-.013.09c-.111.73-.242 1.598-.766 2.532-.387.689-.993 1.447-1.476 2.009l-.233.268c1.632.1 3.643-.948 5.039-2.94.844-1.204 1.293-2.514 1.363-3.697.07-1.178-.237-2.201-.866-2.887l-.016-.009a.422.422 0 0 0-.089-.03l-.01-.002m-1.957-1.263c-.153.134-.326.288-.509.458-.615.57-1.392 1.362-1.871 2.134-.593.957-.734 1.854-.85 2.619l-.007.045c-.114.751-.21 1.367-.588 2.04-.305.545-.825 1.205-1.296 1.753-.207.241-.404.495-.591.745l-.022-.016-.094-.067c-.653-.456-1.093-1.462-1.11-2.765-.017-1.285.384-2.777 1.309-4.097 1.578-2.251 3.918-3.281 5.629-2.849Zm.497-.686c.548.189.547.846.196 1.145-.185.158-.412.357-.657.585-.606.562-1.317 1.293-1.735 1.969-.5.806-.624 1.559-.74 2.318l-.009.065c-.112.737-.225 1.483-.679 2.291-.346.618-.91 1.327-1.386 1.882-.216.251-.423.523-.63.8a.669.669 0 0 1-.928.151l-.134-.095a3.454 3.454 0 0 0-.082-.058c-.95-.665-1.433-1.978-1.452-3.41-.019-1.45.431-3.107 1.455-4.567 1.761-2.513 4.583-3.834 6.781-3.076Z" clip-rule="evenodd"/><path fill-rule="evenodd" d="m171.489 118.926.479-.877a3.595 3.595 0 0 1 4.192-1.714c1.903.573 4.533 1.349 6.54 1.887 2.008.538 4.678 1.181 6.613 1.637a3.595 3.595 0 0 1 2.773 3.572l-.022 1.046a2.557 2.557 0 0 1 1.216 3.184l-1.057 2.754a2.52 2.52 0 0 1-2.784 1.587l-7.019 19.864c-.517 1.461-2.011 2.336-3.532 2.038-1.659-.326-3.803-.777-5.518-1.236-1.538-.413-3.372-1.004-4.888-1.516-1.762-.595-2.791-2.403-2.451-4.231l3.755-20.185a2.52 2.52 0 0 1-1.617-2.766l.462-2.913a2.558 2.558 0 0 1 2.858-2.131Zm9.996 3.831c1.947.522 4.471 1.114 6.504 1.575a436.618 436.618 0 0 0 3.311.733l.241.052a1.758 1.758 0 0 1 .992 2.258l-1.057 2.754a1.72 1.72 0 0 1-1.968 1.072c-2.513-.544-6.735-1.484-9.77-2.297-3.036-.814-7.162-2.111-9.61-2.896a1.72 1.72 0 0 1-1.169-1.913l.462-2.913a1.757 1.757 0 0 1 2.057-1.448l.094.03.267.086.735.236c.625.199 1.499.475 2.495.784 1.989.617 4.469 1.365 6.416 1.887Zm9.784 1.457c-2.72-.603-6.704-1.513-9.657-2.304-2.884-.773-6.675-1.939-9.326-2.773l.384-.705a2.797 2.797 0 0 1 3.259-1.331c1.905.573 4.545 1.353 6.564 1.894 2.021.541 4.7 1.187 6.636 1.643a2.794 2.794 0 0 1 2.157 2.776l-.017.8Zm-21.356 6.215-2.83 15.213.023.011c.288.134.734.331 1.362.577 1.254.491 3.231 1.177 6.105 1.947 2.874.77 4.929 1.165 6.261 1.367.666.1 1.152.153 1.468.181l.025.002 5.156-14.59-.083-.015a67.995 67.995 0 0 1-1.866-.355c-1.624-.33-3.982-.857-6.926-1.646a117.047 117.047 0 0 1-6.822-2.038 74.483 74.483 0 0 1-1.794-.625l-.079-.029Zm.149-.798.205.075c.4.146.995.358 1.773.619a116.91 116.91 0 0 0 6.775 2.024 116.45 116.45 0 0 0 6.878 1.634c.805.163 1.426.278 1.845.351l.215.037.884-2.5-.127-.028a316.37 316.37 0 0 1-2.537-.561c-2.023-.456-4.554-1.048-6.558-1.587-1.964-.528-4.401-1.267-6.34-1.872-.971-.302-1.819-.572-2.425-.767l-.103-.032-.485 2.607Zm-3.244 17.436.114-.614c.298.135.708.312 1.244.522 1.285.503 3.29 1.198 6.19 1.975 2.9.777 4.984 1.178 6.349 1.384.568.087 1.012.139 1.337.171l-.387 1.095a2.315 2.315 0 0 1-2.622 1.519c-1.656-.326-3.778-.772-5.466-1.224-1.513-.406-3.327-.99-4.839-1.501-1.374-.464-2.189-1.879-1.92-3.327ZM35.145 198.592c9.599-2.572 15.293-12.44 12.72-22.039-2.573-9.599-12.439-15.295-22.038-12.723-9.599 2.572-15.295 12.439-12.722 22.038 2.573 9.6 12.44 15.296 22.04 12.724Zm.207.773c10.026-2.687 15.973-12.993 13.286-23.019-2.688-10.026-12.992-15.975-23.018-13.289-10.026 2.687-15.975 12.992-13.288 23.018 2.688 10.026 12.994 15.976 23.02 13.29Z" clip-rule="evenodd"/><path fill-rule="evenodd" d="M34.38 195.357c7.77-2.082 12.383-10.07 10.3-17.842-2.081-7.771-10.069-12.384-17.84-10.301-7.77 2.082-12.382 10.07-10.3 17.841 2.082 7.772 10.07 12.384 17.84 10.302Zm.207.773c8.198-2.197 13.063-10.623 10.866-18.822-2.196-8.198-10.622-13.064-18.82-10.867-8.197 2.196-13.062 10.623-10.866 18.822 2.196 8.198 10.622 13.063 18.82 10.867Z" clip-rule="evenodd"/><path fill-rule="evenodd" d="M17.52 184.523c-.205-.767.331-1.497 1.077-1.697l1.643-.44.223-.042.016-.001c.664-.068 1.344.299 1.526.978.205.767-.33 1.498-1.076 1.697l-1.644.441-.222.041-.016.001c-.665.068-1.345-.299-1.527-.978Zm1.284-.924c-.405.108-.58.459-.51.717.06.228.315.42.657.391l.158-.029 1.613-.432c.405-.109.58-.46.51-.718-.061-.228-.315-.419-.658-.391l-.158.03-1.612.432Zm12.916 7.716c-.067-.664.3-1.344.979-1.526.766-.205 1.497.331 1.697 1.076l.44 1.643.04.223.003.016c.067.665-.3 1.345-.979 1.527-.766.205-1.497-.331-1.697-1.077l-.44-1.643-.041-.223-.002-.016Zm.795-.095.029.158.432 1.612c.108.406.46.58.717.511.228-.061.42-.316.391-.658l-.03-.158-.431-1.613c-.109-.405-.46-.579-.717-.51-.228.061-.42.315-.391.658ZM26.005 176.216a1.608 1.608 0 0 1-.835-1.025 1.634 1.634 0 0 1 .195-1.294l1.476-2.412.004-.006c.07-.11.158-.242.26-.355a1.15 1.15 0 0 1 .524-.343c.253-.077.48-.043.643.003.153.043.299.111.417.17l.006.003 2.474 1.286c.411.208.71.583.825 1.026.116.44.044.912-.204 1.297a1.79 1.79 0 0 1-1.348.823l1.012 3.778 5.681-1.523a1.765 1.765 0 0 1 .004-1.562 1.612 1.612 0 0 1 1.025-.836 1.637 1.637 0 0 1 1.294.196l2.411 1.476.007.004c.11.071.241.158.354.261.119.107.269.276.344.524.076.252.043.479-.003.642a2.453 2.453 0 0 1-.17.417l-.004.006-1.285 2.474a1.626 1.626 0 0 1-2.323.621 1.79 1.79 0 0 1-.823-1.348l-7.167 1.92c-.248.069-.672.166-1.086-.023-.458-.208-.645-.634-.739-.948l-.003-.011-1.404-5.238c-.477.233-1.05.25-1.562-.003Zm1.348-.796a.972.972 0 0 1-.993.079.809.809 0 0 1-.418-.515.834.834 0 0 1 .102-.664l1.475-2.41c.274-.428.366-.462.814-.24l2.472 1.285a.827.827 0 0 1 .312 1.178.981.981 0 0 1-.888.46.947.947 0 0 1-.37-.098l-.564-.294 1.593 5.945 7.877-2.11-.55-.338a1.018 1.018 0 0 1-.28-.268.972.972 0 0 1-.079-.994.809.809 0 0 1 .515-.417.837.837 0 0 1 .663.102l2.41 1.475c.428.274.462.366.24.814l-1.284 2.472a.805.805 0 0 1-.517.416.832.832 0 0 1-.662-.104.983.983 0 0 1-.46-.888.967.967 0 0 1 .099-.369l.293-.565-8.564 2.296-.05.013a.831.831 0 0 1-.064.015c-.393.088-.598-.002-.734-.458l-1.782-6.649-.338.55a1.007 1.007 0 0 1-.268.281Z" clip-rule="evenodd"/><path d="M155.721 25.624c-1.577 8.948-10.119 14.923-19.08 13.343-8.96-1.58-14.943-10.116-13.365-19.064 1.577-8.948 10.119-14.922 19.079-13.342a16.448 16.448 0 0 1 11.392 7.951l.728-.339a17.245 17.245 0 0 0-11.981-8.4c-9.394-1.657-18.352 4.607-20.006 13.991-1.655 9.384 4.62 18.334 14.015 19.99 9.394 1.657 18.351-4.607 20.006-13.99.554-3.14.22-6.232-.822-9.018l-.728.339a16.364 16.364 0 0 1 .762 8.54Z"/><path d="M151.062 18.9c.627 1.864.81 3.908.444 5.98-1.168 6.625-7.491 11.046-14.122 9.877-6.632-1.17-11.061-7.487-9.893-14.11 1.168-6.624 7.491-11.046 14.122-9.877a12.167 12.167 0 0 1 8.234 5.558l-.731.34a11.368 11.368 0 0 0-7.642-5.11c-6.197-1.093-12.104 3.04-13.195 9.227-1.091 6.188 3.046 12.092 9.244 13.184 6.197 1.093 12.104-3.04 13.195-9.227a11.315 11.315 0 0 0-.387-5.503l.731-.34Z"/><path d="M146.406 21.067c.23.932.274 1.926.097 2.932-.681 3.864-4.37 6.443-8.238 5.76a7.108 7.108 0 0 1-5.771-8.23c.681-3.864 4.37-6.444 8.238-5.761a7.092 7.092 0 0 1 4.453 2.73l-.743.347a6.293 6.293 0 0 0-3.849-2.29 6.308 6.308 0 0 0-7.311 5.113 6.309 6.309 0 0 0 5.122 7.304 6.308 6.308 0 0 0 7.261-7.56l.741-.345Z"/><path fill-rule="evenodd" d="m157.475 10.299 4.701-2.19a.2.2 0 0 1 .27.259l-.971 2.336-5.826 2.713.891-2.143c.179-.43.512-.778.935-.975Zm-1.674.668a2.66 2.66 0 0 1 1.335-1.393l4.702-2.19c.827-.384 1.697.448 1.347 1.29l-.743 1.79.994-.463a1.424 1.424 0 0 1 1.891.688 1.42 1.42 0 0 1-.688 1.888l-.994.463 1.85.581c.871.274.951 1.475.124 1.86l-4.702 2.19a2.67 2.67 0 0 1-1.927.126l-3.32-1.043-15.706 7.313a1.424 1.424 0 0 1-1.891-.689 1.42 1.42 0 0 1 .688-1.888l15.705-7.313 1.335-3.21Zm-16.175 12.375 24.675-11.49a.622.622 0 1 0-.526-1.127l-24.676 11.49a.623.623 0 0 0 .527 1.127Zm19.604-6.308-2.217-.697 5.826-2.712 2.417.76a.2.2 0 0 1 .024.371l-4.702 2.19a1.866 1.866 0 0 1-1.348.088ZM160.211 41.569l3.755-5.108a.978.978 0 0 1 1.042-.368c.548.146.812.693.711 1.171l-.002.01-.003.014-.585 2.493h1.01c.258 0 .5.094.687.256.434.374.493 1.016.169 1.464l-.005.006-.008.012-3.841 5.083a.978.978 0 0 1-1.063.35l.231-.767a.178.178 0 0 0 .194-.066l3.84-5.083.004-.004a.293.293 0 0 0-.043-.39.253.253 0 0 0-.165-.061h-2.02l.816-3.476.001-.005c.022-.104-.038-.209-.135-.235a.18.18 0 0 0-.191.07l-3.754 5.107-.003.005a.293.293 0 0 0 .047.388c.046.039.103.06.162.06h2.03l-.911 3.447-.001.005a.199.199 0 0 0 .129.238l-.231.766a.998.998 0 0 1-.676-1.19l.002-.01.004-.014.645-2.442h-.991c-.252 0-.49-.09-.676-.247a1.093 1.093 0 0 1-.187-1.462l.004-.006.008-.011ZM32.22 10.309l4.29-5.837c.237-.322.654-.49 1.07-.379.561.15.834.713.73 1.206l-.002.009-.003.015-.702 2.99h1.3c.265 0 .515.097.71.264.45.388.51 1.055.174 1.52l-.005.006-.008.012-4.39 5.81a1.003 1.003 0 0 1-1.09.359l.23-.766a.204.204 0 0 0 .222-.076l4.39-5.809.003-.005a.335.335 0 0 0-.049-.445.288.288 0 0 0-.188-.07h-2.309l.933-3.973.001-.006a.227.227 0 0 0-.154-.268.204.204 0 0 0-.218.08l-4.291 5.837-.004.005a.335.335 0 0 0 .054.444.288.288 0 0 0 .185.068h2.32l-1.04 3.94-.002.005a.228.228 0 0 0 .148.273l-.231.766c-.555-.168-.812-.735-.695-1.225l.002-.01.004-.014.775-2.935H33.1c-.26 0-.507-.094-.7-.255a1.135 1.135 0 0 1-.194-1.518l.005-.006.008-.012ZM5.174 161.439l3.213-6.494c.177-.358.559-.596.987-.558.579.05.945.556.929 1.06v.009l-.001.016-.172 3.066 1.28-.226c.26-.046.524.006.745.137.51.304.686.95.436 1.467l-.004.007-.007.013-3.313 6.483c-.185.362-.58.595-1.012.543l.094-.794a.204.204 0 0 0 .205-.113l3.314-6.483.003-.006a.335.335 0 0 0-.125-.429.287.287 0 0 0-.198-.037l-2.274.401.229-4.074v-.006a.226.226 0 0 0-.199-.237.203.203 0 0 0-.2.116l-3.212 6.493-.003.006a.335.335 0 0 0 .13.428c.06.034.128.046.194.035l2.285-.403-.341 4.06v.006a.228.228 0 0 0 .192.243l-.094.794c-.575-.068-.927-.582-.897-1.086v-.009l.002-.015.254-3.025-1.262.223a1.092 1.092 0 0 1-.732-.13 1.135 1.135 0 0 1-.455-1.461l.003-.007.006-.013ZM34.549 109.25a2.151 2.151 0 0 0-1.838-2.086 2.151 2.151 0 0 0-2.337 1.393 15.52 15.52 0 0 0-1.122.01 3.224 3.224 0 0 1 3.616-2.465 3.224 3.224 0 0 1 2.74 3.52c-.347-.136-.7-.26-1.059-.372ZM44.25 127.424c4.128.728 8.093-2.078 8.836-6.295.744-4.218-2.023-8.21-6.15-8.938-4.127-.727-8.092 2.078-8.836 6.295-.743 4.218 2.023 8.21 6.15 8.938Zm-.139.788c4.574.806 8.945-2.303 9.763-6.944.818-4.642-2.226-9.058-6.799-9.864-4.573-.807-8.944 2.302-9.762 6.944-.819 4.641 2.225 9.057 6.798 9.864Z" clip-rule="evenodd"/><path d="M45.204 123.913c-.333-.059-.522-.336-.46-.684l1.013-5.75-.026-.005-1.434.668a.561.561 0 0 1-.365.057c-.251-.044-.399-.256-.353-.517.034-.19.129-.311.37-.421l1.732-.822c.352-.165.53-.181.775-.138.406.072.604.355.534.755l-1.124 6.371c-.061.348-.334.544-.662.486Z"/><path fill-rule="evenodd" d="M29.546 126.571c-5.25-.925-10.171-1.11-14.59-.697l.4-2.267.463-2.533c4.53-.327 9.44-.088 14.553.814a62.813 62.813 0 0 1 7.748 1.874c-.16-.312-.3-.634-.422-.965a63.823 63.823 0 0 0-7.187-1.697c-5.09-.898-9.988-1.147-14.523-.839 1.858-7.277 9.056-12.002 16.592-10.673a14.487 14.487 0 0 1 7.513 3.794c.202-.178.412-.346.63-.504a15.28 15.28 0 0 0-8.004-4.078c-8.04-1.418-15.718 3.696-17.57 11.524l-.005.001-.018.093a15.5 15.5 0 0 0-.16.786l-.398 2.262-.608 3.317h.002l-.763 3.576a10.263 10.263 0 0 1-3.121 5.44l-5.41 4.933.005.001-.002.002-.003.003a1.259 1.259 0 0 0-.373.737c-.237 2.309 7.005 5.535 16.932 7.722a7.215 7.215 0 0 1-.814-1.025c-3.88-.923-7.274-2.021-9.89-3.115-1.858-.778-3.29-1.54-4.22-2.215-.466-.34-.77-.633-.942-.865-.12-.164-.143-.253-.148-.282a.617.617 0 0 1 .2-.164c.228-.138.6-.28 1.149-.403 1.089-.243 2.677-.369 4.677-.36 2.407.011 5.351.215 8.631.608.117-.262.25-.515.395-.757a126.113 126.113 0 0 1 6.58.988c-9.198-1.622-17.155-2.061-20.605-1.225l4.377-3.992a11.063 11.063 0 0 0 3.364-5.864l.819-3.834c4.401-.433 9.33-.263 14.607.667 5.277.931 10.032 2.489 14.028 4.406l-.538 3.851a11.064 11.064 0 0 0 1.163 6.676l2.738 5.21c-2.311-1.478-7.248-3.151-13.426-4.574.054.278.092.561.113.848 3.252.758 6.14 1.583 8.453 2.406 1.918.682 3.404 1.35 4.371 1.958.487.306.8.57.974.78a.68.68 0 0 1 .136.218c-.018.029-.075.101-.237.205-.248.161-.646.331-1.215.489-1.132.314-2.774.534-4.823.623-2.885.125-6.504-.013-10.494-.478-.353.264-.73.495-1.126.69 10.183 1.374 18.194.821 18.733-1.456a1.248 1.248 0 0 0-.095-.791l-.012-.025-.005-.012.021.004-3.398-6.468a10.262 10.262 0 0 1-1.079-6.193l.502-3.59.002.002.552-3.268.1-.562a8.44 8.44 0 0 1-.733-.096l-.065-.012-.09.534-.39 2.208c-4.02-1.903-8.77-3.445-14.02-4.371Z" clip-rule="evenodd"/><path fill-rule="evenodd" d="M25.28 150.499c3.442.607 6.721-1.686 7.326-5.117a6.304 6.304 0 0 0 .058-1.795 129.48 129.48 0 0 0-5.955-1.191 126.378 126.378 0 0 0-6.004-.916 6.297 6.297 0 0 0-.558 1.705c-.605 3.432 1.692 6.707 5.134 7.314Zm-5.015-9.88c2.084.255 4.296.585 6.583.989 2.278.401 4.47.847 6.524 1.32a7.08 7.08 0 0 1 .022 2.593c-.682 3.868-4.377 6.45-8.252 5.766-3.876-.683-6.465-4.373-5.783-8.241.156-.884.47-1.701.906-2.427ZM86.39 155.162a1.574 1.574 0 0 1 .576-2.148l1.725-.999a1.568 1.568 0 0 1 2.144.575 1.575 1.575 0 0 1-.576 2.148l-1.725.998c-.751.435-1.711.177-2.144-.574Zm.975-1.455a.772.772 0 0 0-.283 1.054.77.77 0 0 0 1.053.282l1.725-.999a.772.772 0 0 0 .282-1.054.77.77 0 0 0-1.052-.282l-1.725.999ZM94.438 165.868c0-.868-.705-1.572-1.572-1.573l-1.994-.002a1.568 1.568 0 0 0-1.57 1.57c.001.867.705 1.571 1.573 1.572l1.993.002a1.567 1.567 0 0 0 1.57-1.569Zm-1.572-.773c.426 0 .772.346.772.772a.77.77 0 0 1-.77.77l-1.994-.002a.77.77 0 1 1-.001-1.542l1.993.002ZM88.486 160.341a1.572 1.572 0 0 0 1.925 1.111l1.924-.516a1.57 1.57 0 1 0-.814-3.035l-1.924.515a1.572 1.572 0 0 0-1.11 1.925Zm1.718.338a.772.772 0 0 1-.4-1.49l1.924-.516a.771.771 0 0 1 .4 1.49l-1.924.516ZM80.793 150.695a2.501 2.501 0 0 0-1.768 3.063l.035.131-.102.104c-.814.836-2.233 2.239-3.287 2.996-3.08 2.213-5.981 3.236-6.387 3.373L62.2 162.26a3.887 3.887 0 0 0-2.75 4.761l.5 1.863a3.888 3.888 0 0 0 4.547 2.801l1.759 6.563a3.252 3.252 0 0 0 6.28-1.683l-.905-3.377.085-.041a3.819 3.819 0 0 0 2.121-3.712c1.39-.124 3.292-.21 5.161-.024 1.2.12 3.2.662 4.358.996l.14.041.037.137a2.5 2.5 0 0 0 4.83-1.295l-4.508-16.827a2.5 2.5 0 0 0-3.063-1.768Zm6.799 18.802-4.51-16.826a1.7 1.7 0 1 0-3.284.88l4.508 16.826a1.7 1.7 0 1 0 3.286-.88Zm-8.393-14.607c-.13.13-.268.269-.412.411-.79.779-1.812 1.736-2.65 2.338a28.008 28.008 0 0 1-5.94 3.239l2.123 7.921c.409-.055.972-.121 1.638-.177 1.396-.117 3.266-.192 5.12-.007.955.095 2.328.428 3.419.722.216.058.424.115.618.17L79.2 154.89Zm-9.846 6.281-6.945 1.861a3.088 3.088 0 0 0-2.183 3.782l.499 1.863a3.088 3.088 0 0 0 3.782 2.184L71.45 169l-.645-2.407-5.703 1.529a1.506 1.506 0 0 1-.78-2.91l5.704-1.528-.674-2.513Zm3.694 8.454a3.019 3.019 0 0 1-1.542 2.73l-.605-2.257 1.099-.294c.206-.055.629-.122 1.048-.179Zm-3.01.704-4.734 1.269 1.727 6.443a2.451 2.451 0 0 0 4.734-1.269l-1.726-6.443Zm-5.141-2.98 5.696-1.527-.365-1.363-5.697 1.526a.706.706 0 0 0 .366 1.364ZM178.829 186.973c-.937-3.497 1.011-7.037 4.619-8.004 3.574-.957 6.816 1.154 7.762 4.686.424 1.583-.048 3.348-.667 5.148-.077.225-.158.454-.238.682-.226.64-.452 1.28-.612 1.861-.14.51-.252 1.049-.256 1.572l-.655.176-1.392-5.196c1.041-.361 1.601-.939 1.77-1.587.181-.692-.121-1.371-.58-1.669-.519-.335-1.255-.155-1.715.373-.43.494-.636 1.276-.437 2.327l-1.635.438c-.347-1.014-.885-1.591-1.482-1.805-.652-.235-1.33 0-1.614.498-.266.467-.204 1.212.268 1.732.449.496 1.205.736 2.271.537l1.393 5.197-.639.171c-.263-.437-.625-.841-.992-1.208-.427-.428-.942-.88-1.46-1.334-.187-.164-.374-.328-.558-.492-1.455-1.297-2.752-2.616-3.151-4.103Zm5.714 8.087c-.234-.874-1.301-1.81-2.513-2.874-1.595-1.399-3.441-3.019-3.974-5.006-1.048-3.914 1.141-7.9 5.185-8.984 4.045-1.083 7.693 1.339 8.742 5.252.561 2.095-.24 4.366-.933 6.329-.524 1.487-.987 2.797-.749 3.722l.992 3.701a1.199 1.199 0 0 1-.849 1.47l-3.444.923a1.2 1.2 0 0 1-1.47-.849l-.987-3.684Zm.773-.207.444 1.659 4.218-1.13-.445-1.659-4.217 1.13Zm.987 3.684-.335-1.252 4.217-1.13.335 1.252a.4.4 0 0 1-.283.49l-3.444.923a.4.4 0 0 1-.49-.283Zm2.083-12.428c-.077.296-.363.706-1.186 1.008-.142-.835.051-1.327.269-1.577.272-.313.578-.289.676-.226.158.102.338.424.241.795Zm-3.373 2.441 1.608-.431 1.386 5.173-1.608.431-1.386-5.173Zm-1.972-1.823c.283.102.676.424.971 1.243-.833.139-1.256-.084-1.455-.302-.258-.285-.245-.657-.164-.799.063-.111.306-.265.648-.142ZM191.613 178.12a1.447 1.447 0 0 1 0-2.049l1.276-1.274a1.452 1.452 0 0 1 2.052 0 1.446 1.446 0 0 1 0 2.048l-1.276 1.275a1.454 1.454 0 0 1-2.052 0Zm.566-1.484a.65.65 0 0 0 .92.918l1.276-1.274a.65.65 0 0 0-.92-.918l-1.276 1.274ZM198.779 188.966a1.447 1.447 0 0 0-1.025-1.774l-1.742-.466a1.453 1.453 0 0 0-1.777 1.026 1.448 1.448 0 0 0 1.024 1.775l1.742.465a1.453 1.453 0 0 0 1.778-1.026Zm-1.233-1.002a.65.65 0 1 1-.337 1.255l-1.742-.465a.649.649 0 1 1 .337-1.255l1.742.465ZM194.143 182.609a1.449 1.449 0 0 0 1.775 1.025l1.744-.467a1.449 1.449 0 1 0-.75-2.8l-1.744.467a1.45 1.45 0 0 0-1.025 1.775Zm1.568.253a.65.65 0 0 1-.336-1.255l1.744-.468a.65.65 0 0 1 .336 1.255l-1.744.468ZM175.713 182.38a1.447 1.447 0 0 0-1.025-1.774l-1.742-.466a1.454 1.454 0 0 0-1.777 1.026 1.448 1.448 0 0 0 1.024 1.775l1.743.465a1.453 1.453 0 0 0 1.777-1.026Zm-1.232-1.002a.65.65 0 1 1-.338 1.255l-1.742-.465a.649.649 0 1 1 .337-1.255l1.743.465ZM174.93 195.356a1.449 1.449 0 0 1 0-2.049l1.276-1.274a1.452 1.452 0 0 1 2.052 0 1.447 1.447 0 0 1 0 2.049l-1.276 1.274a1.452 1.452 0 0 1-2.052 0Zm.566-1.484a.65.65 0 1 0 .92.919l1.276-1.274a.65.65 0 1 0-.919-.919l-1.277 1.274ZM175.767 187.533a1.45 1.45 0 0 1-1.025 1.775l-1.745.468a1.45 1.45 0 0 1-.75-2.8l1.744-.468a1.45 1.45 0 0 1 1.776 1.025Zm-1.232 1.003a.65.65 0 0 0-.336-1.255l-1.745.467a.65.65 0 0 0 .336 1.255l1.745-.467ZM177.469 35.95a6.952 6.952 0 1 0 13.431-3.598 6.952 6.952 0 0 0-13.431 3.599Zm-.773.208a7.752 7.752 0 1 0 14.977-4.013 7.752 7.752 0 0 0-14.977 4.013Z" clip-rule="evenodd"/><path fill-rule="evenodd" d="m183.253 34.265-1.081-.496a1.681 1.681 0 0 0-1.457 3.03l2.715 1.366a1.308 1.308 0 0 0 1.721-.515l3.136-5.432a1.667 1.667 0 1 0-2.889-1.668l-2.145 3.715Zm-1.414.23 1.743.801 2.509-4.346a.868.868 0 0 1 1.504.868l-3.137 5.432a.508.508 0 0 1-.669.2l-2.714-1.366a.881.881 0 0 1 .764-1.588ZM51.97 64.525a.2.2 0 0 1-.113.113l-2.555 1.007a.2.2 0 0 0 0 .373l2.555 1.007a.2.2 0 0 1 .113.113l1.008 2.555a.2.2 0 0 0 .372 0l1.007-2.555a.2.2 0 0 1 .113-.113l2.555-1.007a.2.2 0 0 0 0-.373l-2.555-1.007a.2.2 0 0 1-.113-.113L53.35 61.97a.2.2 0 0 0-.372 0l-1.008 2.555Zm3.036-.536-.912-2.313c-.333-.844-1.528-.844-1.86 0l-.913 2.313-2.313.912c-.844.333-.844 1.528 0 1.86l2.313.913.912 2.313c.333.844 1.528.844 1.86 0l.913-2.313 2.313-.912c.844-.333.844-1.528 0-1.86l-2.313-.913ZM6.556 194.502a.198.198 0 0 1-.113.113l-1.838.725a.2.2 0 0 0 0 .372l1.838.725c.052.02.092.061.113.113l.725 1.838a.2.2 0 0 0 .372 0l.725-1.838a.198.198 0 0 1 .112-.113l1.838-.725a.2.2 0 0 0 0-.372l-1.838-.725a.198.198 0 0 1-.112-.113l-.725-1.838a.2.2 0 0 0-.372 0l-.725 1.838Zm2.47-.535-.63-1.596c-.332-.844-1.527-.844-1.86 0l-.629 1.596-1.595.629c-.845.333-.845 1.527 0 1.86l1.595.63.63 1.595c.332.844 1.527.844 1.86 0l.63-1.595 1.595-.63c.844-.333.844-1.527 0-1.86l-1.596-.629ZM154.795 126.075a.205.205 0 0 1-.113.113l-2.077.819a.2.2 0 0 0 0 .372l2.077.819a.2.2 0 0 1 .113.113l.819 2.077a.2.2 0 0 0 .372 0l.819-2.077a.2.2 0 0 1 .113-.113l2.077-.819a.2.2 0 0 0 0-.372l-2.077-.819a.205.205 0 0 1-.113-.113l-.819-2.077a.2.2 0 0 0-.372 0l-.819 2.077Zm2.659-.536-.724-1.835c-.333-.844-1.527-.844-1.86 0l-.724 1.835-1.834.723c-.845.333-.845 1.528 0 1.861l1.834.724.724 1.834c.333.844 1.527.844 1.86 0l.724-1.834 1.834-.724c.845-.333.845-1.528 0-1.861l-1.834-.723ZM96.144 179.223a.202.202 0 0 1-.122.102l-2.387.708a.2.2 0 0 0-.033.371l2.228 1.112a.2.2 0 0 1 .102.122l.709 2.387a.2.2 0 0 0 .37.032l1.112-2.228a.202.202 0 0 1 .122-.102l2.387-.708a.2.2 0 0 0 .032-.371l-2.227-1.112a.198.198 0 0 1-.103-.122l-.708-2.387a.2.2 0 0 0-.37-.032l-1.112 2.228Zm2.883-.286-.634-2.137c-.258-.87-1.448-.974-1.853-.162l-.996 1.994-2.137.634c-.87.258-.974 1.449-.162 1.854l1.995.995.634 2.137c.258.87 1.448.974 1.853.162l.995-1.994 2.138-.634c.87-.258.974-1.448.162-1.854l-1.995-.995ZM66.505 142.969l-2.575 1.922a.17.17 0 0 1-.27-.138l.04-3.213-2.623-1.854a.17.17 0 0 1 .048-.301l3.068-.953.953-3.068a.17.17 0 0 1 .3-.047l1.855 2.622 3.212-.041a.17.17 0 0 1 .139.271l-1.922 2.575 1.032 3.042a.17.17 0 0 1-.215.215l-3.042-1.032Zm3.118-2.084.897 2.644a.97.97 0 0 1-1.23 1.23l-2.644-.897-2.237 1.67a.97.97 0 0 1-1.55-.79l.036-2.791-2.28-1.612a.97.97 0 0 1 .273-1.718l2.666-.828.828-2.666a.97.97 0 0 1 1.718-.272l1.612 2.279 2.791-.036a.97.97 0 0 1 .79 1.55l-1.67 2.237ZM187.346 107.536l-1.951 1.207a.12.12 0 0 1-.184-.115l.229-2.283-1.751-1.483a.121.121 0 0 1 .053-.211l2.242-.487.869-2.124a.121.121 0 0 1 .217-.015l1.156 1.982 2.289.171a.12.12 0 0 1 .081.201l-1.527 1.712.544 2.229a.121.121 0 0 1-.166.14l-2.101-.924Zm2.6-1.226.444 1.82a.92.92 0 0 1-1.265 1.062l-1.716-.754-1.593.986a.921.921 0 0 1-1.401-.876l.187-1.864-1.43-1.212a.921.921 0 0 1 .4-1.603l1.831-.398.71-1.734a.921.921 0 0 1 1.648-.115l.944 1.618 1.869.14a.92.92 0 0 1 .619 1.531l-1.247 1.399ZM112.68 11.536l-1.952 1.207a.121.121 0 0 1-.184-.115l.229-2.283-1.751-1.483a.121.121 0 0 1 .053-.21l2.242-.488.869-2.124a.121.121 0 0 1 .217-.015l1.157 1.982 2.288.17c.1.008.148.127.081.202l-1.527 1.712.545 2.23a.122.122 0 0 1-.167.139l-2.1-.924Zm2.599-1.226.445 1.82a.921.921 0 0 1-1.266 1.062l-1.715-.754-1.594.986a.921.921 0 0 1-1.401-.876l.187-1.864-1.43-1.212a.921.921 0 0 1 .4-1.603l1.831-.398.71-1.734a.921.921 0 0 1 1.648-.115l.945 1.618 1.868.14a.921.921 0 0 1 .619 1.531l-1.247 1.399ZM126.122 85.171l-2.342 1.448a.145.145 0 0 1-.221-.138l.275-2.74-2.101-1.78a.145.145 0 0 1 .063-.252l2.691-.585 1.043-2.548a.145.145 0 0 1 .26-.019l1.388 2.379 2.746.204c.12.01.178.152.098.242l-1.833 2.055.654 2.675a.146.146 0 0 1-.2.167l-2.521-1.108Zm2.944-1.516.554 2.267a.946.946 0 0 1-1.299 1.09l-2.136-.94-1.984 1.228a.946.946 0 0 1-1.438-.899l.233-2.321-1.78-1.508a.945.945 0 0 1 .41-1.645l2.28-.496.884-2.159a.945.945 0 0 1 1.691-.118l1.176 2.015 2.327.174a.946.946 0 0 1 .635 1.572l-1.553 1.74ZM11.6 46.193a2.8 2.8 0 1 1-5.6 0 2.8 2.8 0 0 1 5.6 0Zm-2.8 2a2 2 0 1 0 0-4 2 2 0 0 0 0 4ZM33.098 39.453c-.357-.098-.825-.103-1.381.237-.544.334-.757.785-.825 1.204-.071.435.019.828.079.979l.108.273-.228.185c-.289.235-.913.827-.64 1.849.177.66.605.985 1.06 1.186.386.172.856.16 1.338.031l4.727-1.267c.295-.079.534-.184.702-.346.426-.408.699-.97.505-1.694-.245-.913-1.079-1.295-1.639-1.245l-.296.027-.11-.277c-.112-.279-.424-.762-.918-.9-.544-.153-1.021.02-1.216.172l-.245.189-.244-.19a2.23 2.23 0 0 0-.777-.413Zm1.04-.384a2.842 2.842 0 0 0-.83-.388c-.55-.15-1.248-.138-2.009.327-.773.473-1.098 1.146-1.197 1.757-.07.431-.03.834.04 1.126-.415.4-1.042 1.23-.703 2.496.259.967.914 1.447 1.507 1.71.617.274 1.292.228 1.87.073l4.727-1.267c.347-.093.738-.243 1.049-.541.578-.556 1.011-1.405.724-2.48a2.454 2.454 0 0 0-2.197-1.837c-.216-.394-.64-.93-1.323-1.12a2.33 2.33 0 0 0-1.658.144ZM88.159 195.86c-.45-.123-1.038-.127-1.73.296-.68.416-.948.984-1.034 1.508-.088.542.023 1.031.1 1.225l.11.273-.23.185c-.353.288-1.142 1.033-.798 2.315.24.894.853 1.302 1.468 1.545.407.161.882.153 1.358.026l5.967-1.599c.291-.078.535-.186.715-.349.568-.512.952-1.242.698-2.187-.306-1.143-1.352-1.624-2.062-1.561l-.297.027-.11-.277c-.139-.346-.53-.958-1.16-1.135-.683-.191-1.285.025-1.54.222l-.245.189-.245-.189c-.163-.126-.5-.386-.965-.514Zm1.227-.287a3.367 3.367 0 0 0-1.016-.484c-.644-.177-1.463-.164-2.359.385-.908.556-1.289 1.345-1.405 2.062a3.455 3.455 0 0 0 .058 1.371c-.488.459-1.267 1.443-.86 2.962.33 1.233 1.205 1.789 1.946 2.082.614.242 1.274.211 1.86.054l5.967-1.599c.35-.093.731-.245 1.044-.527.723-.652 1.287-1.674.935-2.988a2.874 2.874 0 0 0-2.62-2.157c-.246-.466-.748-1.123-1.567-1.352a2.715 2.715 0 0 0-1.983.191ZM68.267 118.193a2.8 2.8 0 1 1-5.6 0 2.8 2.8 0 0 1 5.6 0Zm-2.8 2a2 2 0 1 0-.001-4 2 2 0 0 0 0 4ZM167.6 106.193a2.8 2.8 0 1 1-5.601-.001 2.8 2.8 0 0 1 5.601.001Zm-2.8 2a2 2 0 1 0 0-4 2 2 0 0 0 0 4ZM189.6 164.193a2.133 2.133 0 1 1-4.266 0 2.133 2.133 0 0 1 4.266 0Zm-2.133 1.333a1.333 1.333 0 1 0 0-2.667 1.333 1.333 0 0 0 0 2.667ZM150.267 145.526a2.133 2.133 0 1 1-4.266 0 2.133 2.133 0 0 1 4.266 0Zm-2.134 1.333a1.333 1.333 0 1 0 .001-2.667 1.333 1.333 0 0 0-.001 2.667ZM112.933 38.193a2.133 2.133 0 1 1-4.266 0 2.133 2.133 0 0 1 4.266 0Zm-2.133 1.333a1.333 1.333 0 1 0 0-2.667 1.333 1.333 0 0 0 0 2.667ZM137.6 49.526a2.8 2.8 0 1 1-5.6 0 2.8 2.8 0 0 1 5.6 0Zm-2.8 2a2 2 0 1 0 0-4 2 2 0 0 0 0 4ZM95.6 94.526a1.8 1.8 0 1 1-3.6 0 1.8 1.8 0 0 1 3.6 0Zm-1.8 1a1 1 0 1 0 0-2 1 1 0 0 0 0 2ZM157.6 97.193a1.8 1.8 0 1 1-3.6 0 1.8 1.8 0 0 1 3.6 0Zm-1.8 1a1 1 0 1 0 0-2 1 1 0 0 0 0 2ZM55.6 83.86a1.8 1.8 0 1 1-3.6 0 1.8 1.8 0 0 1 3.6 0Zm-1.8 1a1 1 0 1 0 0-2 1 1 0 0 0 0 2ZM40.933 27.193a1.8 1.8 0 1 1-3.6 0 1.8 1.8 0 0 1 3.6 0Zm-1.8 1a1 1 0 1 0 0-2 1 1 0 0 0 0 2ZM182.34 9.986a2.133 2.133 0 1 1-4.266 0 2.133 2.133 0 0 1 4.266 0Zm-2.133 1.333a1.333 1.333 0 1 0 0-2.666 1.333 1.333 0 0 0 0 2.666ZM193.552 16.78a1.8 1.8 0 1 1-3.6 0 1.8 1.8 0 0 1 3.6 0Zm-1.8 1a1 1 0 1 0 0-2.001 1 1 0 0 0 0 2ZM12.314 106.851a2.134 2.134 0 1 1-4.268 0 2.134 2.134 0 0 1 4.268 0Zm-2.134 1.334a1.333 1.333 0 1 0 0-2.667 1.333 1.333 0 0 0 0 2.667ZM60.267 196.859a2.133 2.133 0 1 1-4.267.001 2.133 2.133 0 0 1 4.267-.001Zm-2.134 1.334a1.334 1.334 0 1 0 0-2.667 1.334 1.334 0 0 0 0 2.667ZM74.933 190.526a1.8 1.8 0 1 1-3.6 0 1.8 1.8 0 0 1 3.6 0Zm-1.8 1a1 1 0 1 0 0-2 1 1 0 0 0 0 2ZM52.267 160.859a2.133 2.133 0 1 1-4.267.001 2.133 2.133 0 0 1 4.267-.001Zm-2.134 1.334a1.334 1.334 0 1 0 0-2.667 1.334 1.334 0 0 0 0 2.667ZM193.454 52.467c-.73-.128-1.524.161-1.871.654l-.397.564-.293-.624c-.255-.546-.989-.968-1.733-.97-.358 0-.687.099-.942.303-.251.2-.464.528-.549 1.049-.113.697.212 1.304.887 2.075.251.286.534.578.844.897.106.109.215.22.326.337.35.363.719.758 1.083 1.196.435-.368.867-.693 1.274-.99l.379-.275c.361-.26.691-.498.988-.737.799-.642 1.224-1.184 1.233-1.89.007-.527-.145-.887-.357-1.128-.215-.245-.521-.4-.872-.461Zm1.473-.067c.361.41.565.97.556 1.667-.014 1.09-.701 1.835-1.532 2.503-.315.252-.668.508-1.034.772l-.362.262c-.498.363-1.016.755-1.524 1.212l-.13.116-.354-.031-.107-.137a19.152 19.152 0 0 0-1.29-1.458l-.312-.321c-.314-.324-.618-.637-.884-.94-.702-.802-1.249-1.656-1.074-2.73.112-.689.411-1.205.838-1.546.424-.338.94-.478 1.443-.478.793.002 1.637.356 2.151.959.61-.505 1.5-.707 2.28-.571.495.087.978.314 1.335.72ZM169.535 163.247c-.578-.749-1.583-1.209-2.537-1.227-.588-.011-1.188.142-1.684.526-.5.386-.859.981-1.004 1.786-.226 1.248.39 2.259 1.214 3.232.31.368.667.747 1.036 1.141l.368.394a22.643 22.643 0 0 1 1.522 1.781l.258.342.323-.28a22.636 22.636 0 0 1 1.861-1.426l.449-.313c.442-.307.868-.603 1.247-.896 1.01-.78 1.826-1.64 1.865-2.909.025-.819-.205-1.475-.617-1.958-.408-.478-.967-.753-1.548-.864-.943-.181-2.028.058-2.753.671Zm-3.731-.069c-.322.249-.592.657-.707 1.296-.158.872.241 1.632 1.037 2.574.297.35.633.708.998 1.097l.382.409c.426.459.875.957 1.316 1.511.546-.451 1.09-.845 1.603-1.204l.466-.325c.437-.303.838-.582 1.2-.862.978-.755 1.528-1.416 1.555-2.3.02-.649-.161-1.104-.426-1.414-.269-.315-.653-.514-1.091-.599-.902-.173-1.9.163-2.348.777l-.406.557-.282-.629c-.311-.695-1.21-1.229-2.119-1.246-.441-.009-.853.107-1.178.358ZM105.872 148.699c-.543-.827-1.558-1.383-2.554-1.472-.608-.054-1.241.061-1.782.422-.545.364-.96.954-1.17 1.779-.324 1.277.24 2.369 1.027 3.443.297.406.64.827.997 1.264l.355.438c.486.602.988 1.248 1.459 1.97l.233.358.342-.256a23.587 23.587 0 0 1 2.045-1.352c.165-.1.33-.198.492-.294.483-.288.948-.565 1.364-.842 1.109-.74 2.017-1.573 2.149-2.884.085-.848-.106-1.545-.497-2.074-.388-.524-.947-.85-1.541-1.007-.972-.258-2.124-.084-2.919.507Zm-3.892-.384c-.357.238-.67.648-.839 1.31-.229.905.135 1.733.898 2.774.283.387.608.785.961 1.218l.368.454c.414.513.849 1.069 1.271 1.684a27.054 27.054 0 0 1 1.773-1.148l.509-.304c.478-.285.917-.547 1.315-.812 1.076-.717 1.703-1.37 1.797-2.298.068-.679-.088-1.171-.345-1.518-.26-.352-.649-.59-1.103-.71-.933-.248-2.006.03-2.523.644l-.444.527-.237-.647c-.277-.755-1.183-1.381-2.134-1.465-.462-.042-.905.049-1.267.291ZM3.6 120.526a1.8 1.8 0 1 1-3.6 0 1.8 1.8 0 0 1 3.6 0Zm-1.8 1a1 1 0 1 0 0-2 1 1 0 0 0 0 2ZM197.6 150.526a1.8 1.8 0 1 1-3.6 0 1.8 1.8 0 0 1 3.6 0Zm-1.8 1a1 1 0 1 0 0-2 1 1 0 0 0 0 2ZM92.634 62.371c-.73-.127-1.524.161-1.871.654l-.397.565-.293-.625c-.255-.545-.99-.968-1.733-.97-.358 0-.687.1-.943.303-.25.2-.463.528-.548 1.049-.113.696.213 1.304.89 2.075.251.285.534.576.843.893l.33.341c.35.362.718.756 1.081 1.192.434-.366.864-.69 1.27-.986l.38-.275c.36-.26.69-.498.986-.737.8-.641 1.225-1.183 1.234-1.89.007-.527-.145-.887-.357-1.128-.215-.245-.52-.4-.872-.46Zm1.473-.067c.36.41.565.97.556 1.667-.014 1.09-.701 1.836-1.532 2.503-.315.253-.668.508-1.034.772l-.362.263c-.498.363-1.016.755-1.525 1.211l-.318.286-.264-.337a18.875 18.875 0 0 0-1.291-1.457l-.317-.327c-.313-.321-.616-.633-.881-.935-.705-.801-1.255-1.656-1.08-2.732.112-.688.412-1.204.84-1.545.423-.338.938-.478 1.442-.477.793.001 1.637.355 2.15.958.61-.505 1.501-.707 2.28-.57.496.086.979.314 1.336.72ZM88.164-4.128c-.45-.123-1.038-.127-1.73.296-.68.416-.948.984-1.033 1.508-.088.542.022 1.03.1 1.225l.108.273-.228.185c-.354.288-1.142 1.033-.8 2.315.24.894.854 1.302 1.469 1.545.407.161.883.153 1.358.026l5.967-1.6c.291-.077.535-.185.716-.348.567-.512.95-1.242.698-2.187-.307-1.143-1.353-1.624-2.063-1.56l-.297.026-.11-.277c-.139-.346-.529-.958-1.16-1.135-.683-.19-1.285.025-1.54.222l-.245.189-.244-.189c-.164-.126-.5-.386-.966-.514Zm1.228-.287a3.367 3.367 0 0 0-1.017-.484c-.644-.177-1.462-.164-2.359.385-.908.556-1.288 1.345-1.405 2.062a3.458 3.458 0 0 0 .058 1.371c-.488.459-1.267 1.443-.86 2.962.33 1.233 1.205 1.789 1.947 2.082.613.242 1.274.211 1.859.054l5.967-1.599c.35-.094.732-.245 1.044-.527.723-.652 1.287-1.674.935-2.988a2.875 2.875 0 0 0-2.619-2.157c-.247-.466-.748-1.123-1.568-1.352a2.72 2.72 0 0 0-1.982.191ZM68.225 74.855l15.196 4.071c.393.106.627.51.521.903l-.158.59a.737.737 0 0 1-.902.52l-15.197-4.071a.737.737 0 0 1-.521-.903l.158-.59a.737.737 0 0 1 .903-.52Zm-1.676.314a1.537 1.537 0 0 1 1.883-1.087l15.196 4.072a1.537 1.537 0 0 1 1.087 1.882l-.158.59a1.537 1.537 0 0 1-1.638 1.131.919.919 0 0 1-.02.087c-.258.964-.973 3.32-2.177 4.833-.637.801-1.804 1.622-2.933 2.306a37.291 37.291 0 0 1-2.954 1.593.12.12 0 0 0-.046.172c.409.603 1.118 1.686 1.761 2.857.636 1.157 1.236 2.451 1.388 3.464.286 1.912-.273 4.31-.53 5.274a.978.978 0 0 1-.028.086 1.537 1.537 0 0 1 .853 1.799l-.158.589a1.537 1.537 0 0 1-1.883 1.087l-15.196-4.072a1.536 1.536 0 0 1-1.087-1.882l.158-.59a1.537 1.537 0 0 1 1.639-1.131.9.9 0 0 1 .018-.084c.253-.963.957-3.326 2.163-4.841.637-.801 1.81-1.62 2.943-2.303a37.296 37.296 0 0 1 2.97-1.59.12.12 0 0 0 .046-.172 37.36 37.36 0 0 1-1.777-2.861c-.64-1.158-1.246-2.454-1.398-3.466-.287-1.915.285-4.313.548-5.274a.939.939 0 0 1 .026-.08 1.538 1.538 0 0 1-.854-1.8l.158-.59Zm10.123 26.977a.076.076 0 0 1-.065.055l-1.752-.469v-.01c.255-2.693-1.773-5.33-4.142-5.966-2.367-.634-5.361.69-6.47 3.123l-.003.008-1.751-.469a.075.075 0 0 1-.03-.08c.254-.964.925-3.175 2.015-4.544.54-.68 1.602-1.437 2.734-2.119a36.546 36.546 0 0 1 2.906-1.555.92.92 0 0 0 .359-1.337 36.539 36.539 0 0 1-1.74-2.8c-.64-1.157-1.18-2.343-1.308-3.201-.26-1.731.265-3.981.528-4.943a.075.075 0 0 1 .062-.055l14.123 3.784c.026.02.034.053.027.08-.26.964-.94 3.17-2.03 4.54-.542.68-1.6 1.439-2.727 2.122a36.56 36.56 0 0 1-2.89 1.559.92.92 0 0 0-.357 1.333 36.544 36.544 0 0 1 1.724 2.796c.634 1.155 1.17 2.341 1.299 3.201.259 1.731-.254 3.982-.512 4.947Zm-2.602-.635c.058-.97-.23-1.946-.763-2.796-.683-1.088-1.724-1.897-2.802-2.186-1.07-.287-2.35-.094-3.46.516-.867.476-1.588 1.181-2.015 2.044l9.04 2.422Zm2.869 1.607-15.197-4.072a.737.737 0 0 0-.902.521l-.158.59a.738.738 0 0 0 .52.903l15.198 4.071a.737.737 0 0 0 .902-.521l.158-.589a.738.738 0 0 0-.521-.903Zm-5.573-20.475c-.585-.157-1.182-.065-1.573.287-.199.18-.334.42-.372.7-.037.28.024.57.171.855.417.81 1.01 1.673 1.49 2.327a29.558 29.558 0 0 0 .8 1.036l.05.062.014.016.004.006.003.004.305-.26-.305.26h.001l.002.002.004.005.014.016a3.269 3.269 0 0 0 .21.215c.116.106.326.285.56.347.233.063.505.013.658-.02a3.07 3.07 0 0 0 .29-.082l.02-.006.006-.002.002-.001.007-.003.02-.007a21.527 21.527 0 0 0 1.28-.51c.74-.319 1.68-.767 2.44-1.273.268-.18.463-.408.564-.674a1.17 1.17 0 0 0 .008-.8c-.171-.5-.645-.885-1.233-1.042l-5.44-1.458Zm1.198 4.776-.001-.002-.013-.015-.047-.058a28.825 28.825 0 0 1-.775-1.006c-.474-.643-1.037-1.467-1.425-2.22-.087-.168-.1-.295-.09-.38a.34.34 0 0 1 .115-.214c.138-.123.431-.215.83-.108l5.442 1.458c.396.106.617.338.683.528a.37.37 0 0 1 0 .259.634.634 0 0 1-.26.29c-.7.466-1.588.892-2.313 1.205a24.587 24.587 0 0 1-1.164.466l-.07.025-.018.007-.004.001h-.002l-.002.002-.012.004a2.107 2.107 0 0 1-.397.088.541.541 0 0 1-.067.002c-.015 0-.022-.002-.023-.002l-.022-.01a.54.54 0 0 1-.057-.035 1.356 1.356 0 0 1-.145-.118 2.337 2.337 0 0 1-.154-.157l-.008-.01Z" clip-rule="evenodd"/></g></svg>
