<svg width="40" height="40" viewBox="0 0 40 40" fill="none" xmlns="http://www.w3.org/2000/svg">
<g clip-path="url(#clip0_27923_1115)">
<path d="M10 2.5H24.4639L33.5 11.2119V34C33.5 35.933 31.933 37.5 30 37.5H10C8.067 37.5 6.5 35.933 6.5 34V6C6.5 4.067 8.067 2.5 10 2.5Z" fill="url(#paint0_linear_27923_1115)" stroke="url(#paint1_linear_27923_1115)" stroke-linejoin="round"/>
<path d="M28.6499 11C26.4408 11 24.6499 9.20914 24.6499 7L24.6499 2L33.9999 11H28.6499Z" fill="#DAEDF0"/>
<g opacity="0.24">
<circle cx="10" cy="6.5" r="0.5" fill="#28B0C1"/>
<circle cx="10" cy="11.5" r="0.5" fill="#28B0C1"/>
<circle cx="10" cy="28.5" r="0.5" fill="#28B0C1"/>
<circle cx="10" cy="33.5" r="0.5" fill="#28B0C1"/>
<circle cx="15" cy="6.5" r="0.5" fill="#28B0C1"/>
<circle cx="15" cy="11.5" r="0.5" fill="#28B0C1"/>
<circle cx="15" cy="28.5" r="0.5" fill="#28B0C1"/>
<circle cx="15" cy="33.5" r="0.5" fill="#28B0C1"/>
<circle cx="20" cy="6.5" r="0.5" fill="#28B0C1"/>
<circle cx="20" cy="11.5" r="0.5" fill="#28B0C1"/>
<circle cx="20" cy="28.5" r="0.5" fill="#28B0C1"/>
<circle cx="20" cy="33.5" r="0.5" fill="#28B0C1"/>
<circle cx="25" cy="11.5" r="0.5" fill="#28B0C1"/>
<circle cx="25" cy="28.5" r="0.5" fill="#28B0C1"/>
<circle cx="30" cy="28.5" r="0.5" fill="#28B0C1"/>
<circle cx="25" cy="33.5" r="0.5" fill="#28B0C1"/>
<circle cx="30" cy="33.5" r="0.5" fill="#28B0C1"/>
</g>
<g filter="url(#filter0_d_27923_1115)">
<path d="M1 18C1 16.8954 2.11033 16 3.48 16H29.52C30.8897 16 32 16.8954 32 18V24C32 25.1046 30.8897 26 29.52 26H3.48C2.11033 26 1 25.1046 1 24V18Z" fill="#28B0C1"/>
</g>
<path fill-rule="evenodd" clip-rule="evenodd" d="M13.8356 21C13.8356 21.6293 13.7226 22.1683 13.4965 22.6169C13.2722 23.0637 12.9659 23.4059 12.5775 23.6435C12.191 23.8812 11.7524 24 11.262 24C10.7715 24 10.3321 23.8812 9.9437 23.6435C9.55715 23.404 9.25083 23.0608 9.02473 22.6141C8.80046 22.1654 8.68833 21.6274 8.68833 21C8.68833 20.3707 8.80046 19.8327 9.02473 19.3859C9.25083 18.9373 9.55715 18.5941 9.9437 18.3565C10.3321 18.1188 10.7715 18 11.262 18C11.7524 18 12.191 18.1188 12.5775 18.3565C12.9659 18.5941 13.2722 18.9373 13.4965 19.3859C13.7226 19.8327 13.8356 20.3707 13.8356 21ZM12.8154 21C12.8154 20.557 12.7489 20.1835 12.6158 19.8793C12.4845 19.5732 12.3022 19.3422 12.0688 19.1863C11.8354 19.0285 11.5665 18.9496 11.262 18.9496C10.9575 18.9496 10.6885 19.0285 10.4551 19.1863C10.2218 19.3422 10.0385 19.5732 9.90541 19.8793C9.77413 20.1835 9.70849 20.557 9.70849 21C9.70849 21.443 9.77413 21.8175 9.90541 22.1236C10.0385 22.4278 10.2218 22.6587 10.4551 22.8165C10.6885 22.9724 10.9575 23.0504 11.262 23.0504C11.5665 23.0504 11.8354 22.9724 12.0688 22.8165C12.3022 22.6587 12.4845 22.4278 12.6158 22.1236C12.7489 21.8175 12.8154 21.443 12.8154 21Z" fill="white"/>
<path fill-rule="evenodd" clip-rule="evenodd" d="M13.8994 23.9197H14.9824L15.4457 22.4796H17.5515L18.0156 23.9197H19.0986L17.124 18.0794H15.8713L13.8994 23.9197ZM17.2776 21.6298L16.5195 19.2771H16.4758L15.719 21.6298H17.2776Z" fill="white"/>
<path fill-rule="evenodd" clip-rule="evenodd" d="M19.6052 23.9197V18.0794H21.7057C22.136 18.0794 22.497 18.1573 22.7887 18.3132C23.0823 18.4691 23.3038 18.6878 23.4534 18.9691C23.6047 19.2486 23.6804 19.5746 23.6804 19.9473C23.6804 20.3218 23.6038 20.6469 23.4506 20.9226C23.2993 21.1963 23.0759 21.4083 22.7805 21.5585C22.7459 21.5759 22.7104 21.5922 22.674 21.6075L23.8855 23.9197H22.7532L21.6524 21.7809H20.6199V23.9197H19.6052ZM21.5553 20.9026H20.6199V18.9634H21.5498C21.8032 18.9634 22.0102 19.0024 22.1706 19.0804C22.3311 19.1564 22.4505 19.2686 22.5289 19.4169C22.6073 19.5632 22.6465 19.74 22.6465 19.9473C22.6465 20.1545 22.6073 20.3294 22.5289 20.472C22.4523 20.6127 22.3338 20.7201 22.1734 20.7942C22.0129 20.8665 21.8069 20.9026 21.5553 20.9026Z" fill="white"/>
<path fill-rule="evenodd" clip-rule="evenodd" d="M26.2814 23.9197H24.3833V18.0794H26.3197C26.8758 18.0794 27.3535 18.1963 27.7528 18.4302C28.154 18.6621 28.4621 18.9958 28.6773 19.4311C28.8924 19.8665 29 20.3874 29 20.9939C29 21.6022 28.8915 22.125 28.6745 22.5623C28.4594 22.9996 28.1485 23.3351 27.7419 23.5689C27.3371 23.8028 26.8503 23.9197 26.2814 23.9197ZM25.398 23.0043H26.2322C26.6224 23.0043 26.9478 22.9302 27.2086 22.7819C27.4693 22.6317 27.6653 22.4083 27.7966 22.1117C27.9279 21.8132 27.9935 21.4406 27.9935 20.9939C27.9935 20.5471 27.9279 20.1764 27.7966 19.8817C27.6653 19.5851 27.4711 19.3636 27.214 19.2172C26.9588 19.0689 26.6415 18.9948 26.2623 18.9948H25.398V23.0043Z" fill="white"/>
<path fill-rule="evenodd" clip-rule="evenodd" d="M4 18.0794V23.9197H6.26732C6.6958 23.9197 7.05135 23.8503 7.33397 23.7115C7.61659 23.5727 7.82809 23.3836 7.96849 23.144C8.10889 22.9026 8.17908 22.6307 8.17908 22.3285C8.17908 22.0319 8.12074 21.779 8.00404 21.5699C7.88735 21.3608 7.73693 21.1992 7.55277 21.0851C7.37044 20.9691 7.1799 20.9054 6.98115 20.894V20.837C7.16349 20.7914 7.3285 20.7163 7.47619 20.6117C7.62388 20.5072 7.74148 20.3712 7.829 20.2039C7.91652 20.0347 7.96028 19.8313 7.96028 19.5937C7.96028 19.3047 7.89282 19.0461 7.75789 18.818C7.62479 18.5899 7.42331 18.4102 7.15346 18.279C6.88543 18.1459 6.54902 18.0794 6.14424 18.0794H4ZM6.10595 23.0357H5.01469V21.3247H6.1333C6.34299 21.3247 6.5235 21.3655 6.67483 21.4473C6.82617 21.5271 6.94286 21.6374 7.02491 21.7781C7.10696 21.9169 7.14799 22.0727 7.14799 22.2458C7.14799 22.4777 7.06594 22.6678 6.90184 22.8161C6.73956 22.9625 6.47427 23.0357 6.10595 23.0357ZM6.01843 20.5632H5.01469V18.952H6.04031C6.33934 18.952 6.56452 19.0252 6.71586 19.1716C6.86902 19.318 6.9456 19.5043 6.9456 19.7305C6.9456 19.9016 6.90457 20.0499 6.82252 20.1754C6.7423 20.299 6.63198 20.395 6.49159 20.4634C6.35119 20.53 6.19347 20.5632 6.01843 20.5632Z" fill="white"/>
</g>
<defs>
<filter id="filter0_d_27923_1115" x="-1" y="15" width="35" height="14" filterUnits="userSpaceOnUse" color-interpolation-filters="sRGB">
<feFlood flood-opacity="0" result="BackgroundImageFix"/>
<feColorMatrix in="SourceAlpha" type="matrix" values="0 0 0 0 0 0 0 0 0 0 0 0 0 0 0 0 0 0 127 0" result="hardAlpha"/>
<feOffset dy="1"/>
<feGaussianBlur stdDeviation="1"/>
<feComposite in2="hardAlpha" operator="out"/>
<feColorMatrix type="matrix" values="0 0 0 0 0 0 0 0 0 0 0 0 0 0 0 0 0 0 0.12 0"/>
<feBlend mode="normal" in2="BackgroundImageFix" result="effect1_dropShadow_27923_1115"/>
<feBlend mode="normal" in="SourceGraphic" in2="effect1_dropShadow_27923_1115" result="shape"/>
</filter>
<linearGradient id="paint0_linear_27923_1115" x1="6" y1="2" x2="24.3308" y2="50.7302" gradientUnits="userSpaceOnUse">
<stop stop-color="#F7FEFF"/>
<stop offset="0.37" stop-color="#EDF8F9"/>
<stop offset="1" stop-color="#DFF2F4"/>
</linearGradient>
<linearGradient id="paint1_linear_27923_1115" x1="20" y1="2" x2="20" y2="37.5" gradientUnits="userSpaceOnUse">
<stop stop-color="#E4EFF0"/>
<stop offset="1" stop-color="#DEEFF1"/>
</linearGradient>
<clipPath id="clip0_27923_1115">
<rect width="40" height="40" fill="white"/>
</clipPath>
</defs>
</svg>
