<svg width="40" height="40" viewBox="0 0 40 40" fill="none" xmlns="http://www.w3.org/2000/svg">
<path d="M10 2.5H24.4639L33.5 11.2119V34C33.5 35.933 31.933 37.5 30 37.5H10C8.067 37.5 6.5 35.933 6.5 34V6C6.5 4.067 8.067 2.5 10 2.5Z" fill="url(#paint0_linear_32344_22196)" stroke="url(#paint1_linear_32344_22196)" stroke-linejoin="round"/>
<path d="M28.6499 11C26.4408 11 24.6499 9.20914 24.6499 7L24.6499 2L33.9999 11H28.6499Z" fill="#DADEE5"/>
<g filter="url(#filter0_d_32344_22196)">
<path d="M4 18C4 16.8954 4.89543 16 6 16H23C24.1046 16 25 16.8954 25 18V24C25 25.1046 24.1046 26 23 26H6C4.89543 26 4 25.1046 4 24V18Z" fill="#0E85CD"/>
</g>
<path d="M19.243 23.999V19.21H17.5086V18.3623H21.9852V19.21H20.2508V23.999H19.243Z" fill="white"/>
<path d="M12.4297 23.999V18.3623H14.543C15.1029 18.3623 15.5795 18.4717 15.9727 18.6904C16.3685 18.9092 16.6706 19.2269 16.879 19.6436C17.0899 20.0602 17.1954 20.5628 17.1954 21.1514V21.1592C17.1954 21.7607 17.0912 22.2738 16.8829 22.6982C16.6745 23.1201 16.3724 23.443 15.9766 23.667C15.5834 23.8883 15.1055 23.999 14.543 23.999H12.4297ZM13.4375 23.1514H14.4102C14.7826 23.1514 15.1003 23.0745 15.3633 22.9209C15.6264 22.7673 15.8256 22.5433 15.961 22.249C16.099 21.9548 16.168 21.5967 16.168 21.1748V21.167C16.168 20.7555 16.0977 20.404 15.9571 20.1123C15.8191 19.818 15.6185 19.5941 15.3555 19.4404C15.0925 19.2868 14.7774 19.21 14.4102 19.21H13.4375V23.1514Z" fill="white"/>
<path d="M8.90942 24.1396C8.35734 24.1396 7.88208 24.0199 7.48364 23.7803C7.08781 23.5381 6.78182 23.1956 6.56567 22.7529C6.34953 22.3102 6.24146 21.7868 6.24146 21.1826V21.1748C6.24146 20.568 6.34953 20.0446 6.56567 19.6045C6.78442 19.1618 7.09302 18.8206 7.49146 18.5811C7.8925 18.3415 8.36515 18.2217 8.90942 18.2217C9.4563 18.2217 9.92896 18.3415 10.3274 18.5811C10.7258 18.8206 11.0331 19.1618 11.2493 19.6045C11.4654 20.0472 11.5735 20.5706 11.5735 21.1748V21.1826C11.5735 21.7868 11.4654 22.3102 11.2493 22.7529C11.0357 23.1956 10.7297 23.5381 10.3313 23.7803C9.93286 24.0199 9.4589 24.1396 8.90942 24.1396ZM8.90942 23.2686C9.24536 23.2686 9.53573 23.1826 9.78052 23.0107C10.0253 22.8389 10.2141 22.5967 10.3469 22.2842C10.4823 21.9717 10.55 21.6045 10.55 21.1826V21.1748C10.55 20.7503 10.4823 20.3831 10.3469 20.0732C10.2141 19.7607 10.0253 19.5199 9.78052 19.3506C9.53573 19.1787 9.24536 19.0928 8.90942 19.0928C8.57609 19.0928 8.28573 19.1787 8.03833 19.3506C7.79354 19.5199 7.60343 19.7607 7.46802 20.0732C7.33521 20.3831 7.2688 20.7503 7.2688 21.1748V21.1826C7.2688 21.6045 7.3339 21.9717 7.46411 22.2842C7.59692 22.5967 7.78573 22.8389 8.03052 23.0107C8.27791 23.1826 8.57088 23.2686 8.90942 23.2686Z" fill="white"/>
<defs>
<filter id="filter0_d_32344_22196" x="2" y="15" width="25" height="14" filterUnits="userSpaceOnUse" color-interpolation-filters="sRGB">
<feFlood flood-opacity="0" result="BackgroundImageFix"/>
<feColorMatrix in="SourceAlpha" type="matrix" values="0 0 0 0 0 0 0 0 0 0 0 0 0 0 0 0 0 0 127 0" result="hardAlpha"/>
<feOffset dy="1"/>
<feGaussianBlur stdDeviation="1"/>
<feComposite in2="hardAlpha" operator="out"/>
<feColorMatrix type="matrix" values="0 0 0 0 0 0 0 0 0 0 0 0 0 0 0 0 0 0 0.12 0"/>
<feBlend mode="normal" in2="BackgroundImageFix" result="effect1_dropShadow_32344_22196"/>
<feBlend mode="normal" in="SourceGraphic" in2="effect1_dropShadow_32344_22196" result="shape"/>
</filter>
<linearGradient id="paint0_linear_32344_22196" x1="6" y1="2" x2="18.9313" y2="38.3799" gradientUnits="userSpaceOnUse">
<stop stop-color="#F7FAFF"/>
<stop offset="0.37" stop-color="#EDF1F9"/>
<stop offset="1" stop-color="#EDF1F9"/>
</linearGradient>
<linearGradient id="paint1_linear_32344_22196" x1="20" y1="2" x2="20" y2="37.5" gradientUnits="userSpaceOnUse">
<stop stop-color="#E4E8F0"/>
<stop offset="1" stop-color="#E5E9F1"/>
</linearGradient>
</defs>
</svg>
