<svg width="40" height="40" viewBox="0 0 40 40" fill="none" xmlns="http://www.w3.org/2000/svg">
<path d="M10 2.5H24.4639L33.5 11.2119V34C33.5 35.933 31.933 37.5 30 37.5H10C8.067 37.5 6.5 35.933 6.5 34V6C6.5 4.067 8.067 2.5 10 2.5Z" fill="url(#paint0_linear_27375_21251)" stroke="url(#paint1_linear_27375_21251)" stroke-linejoin="round"/>
<path d="M28.6499 11C26.4408 11 24.6499 9.20914 24.6499 7L24.6499 2L33.9999 11H28.6499Z" fill="#DADEE5"/>
<path fill-rule="evenodd" clip-rule="evenodd" d="M19.1194 13.7595C19.7215 13.6972 20.3132 13.6996 20.8882 13.761C21.4965 13.8259 21.9559 14.2692 22.1148 14.8085L22.2626 15.3097C22.2963 15.4241 22.3946 15.5372 22.5517 15.5999C22.6083 15.6225 22.6646 15.6458 22.7205 15.6699C22.8758 15.7368 23.0254 15.7264 23.1302 15.6693L23.5885 15.4197C24.0821 15.1508 24.7202 15.1622 25.1962 15.546C25.6589 15.9189 26.0807 16.3406 26.4537 16.8033C26.8376 17.2793 26.849 17.9175 26.5801 18.4112L26.3306 18.8693C26.2734 18.9742 26.2631 19.1237 26.33 19.2791C26.3541 19.3351 26.3775 19.3914 26.4002 19.4482C26.4629 19.6052 26.5759 19.7035 26.6903 19.7373L27.1919 19.8851C27.7311 20.044 28.1744 20.5033 28.2394 21.1117C28.3008 21.6865 28.3032 22.278 28.2411 22.8799C28.178 23.4905 27.7346 23.955 27.191 24.1152L26.7082 24.2575C26.5926 24.2916 26.4783 24.3917 26.416 24.5517C26.3913 24.6151 26.3657 24.6779 26.3392 24.7403C26.2731 24.8959 26.2838 25.0449 26.3406 25.1492L26.5959 25.6179C26.8643 26.1105 26.8538 26.7477 26.4707 27.2237C26.1011 27.683 25.6828 28.1013 25.2236 28.4709C24.7476 28.8541 24.1103 28.8646 23.6177 28.5962L23.1493 28.3411C23.045 28.2843 22.8959 28.2736 22.7403 28.3397C22.6778 28.3663 22.6148 28.3919 22.5513 28.4167C22.3913 28.479 22.2912 28.5933 22.2571 28.7089L22.1149 29.1914C21.9546 29.735 21.4902 30.1784 20.8796 30.2415C20.2778 30.3037 19.6863 30.3013 19.1115 30.2399C18.5032 30.175 18.0439 29.7316 17.8849 29.1924L17.7373 28.6915C17.7035 28.5771 17.6052 28.464 17.4481 28.4013C17.391 28.3785 17.3343 28.355 17.278 28.3307C17.1226 28.2638 16.9731 28.2742 16.8682 28.3313L16.4106 28.5805C15.9169 28.8495 15.2788 28.838 14.8027 28.4541C14.3401 28.0811 13.9185 27.6594 13.5456 27.1968C13.1618 26.7207 13.1504 26.0827 13.4193 25.589L13.6686 25.1313C13.7257 25.0265 13.7361 24.8769 13.6692 24.7216C13.645 24.6653 13.6215 24.6087 13.5987 24.5517C13.536 24.3946 13.423 24.2963 13.3085 24.2626L12.808 24.115C12.2687 23.9561 11.8254 23.4967 11.7605 22.8883C11.6991 22.3134 11.6967 21.7217 11.759 21.1197C11.8222 20.5092 12.2656 20.0449 12.8091 19.8847L13.3151 19.7355C13.427 19.7025 13.5412 19.606 13.6101 19.4472C13.6299 19.4014 13.6503 19.3559 13.6713 19.3105C13.7458 19.1495 13.7367 18.9938 13.678 18.886L13.4638 18.4927C13.1883 17.9868 13.2101 17.3361 13.607 16.8594C13.9841 16.4063 14.4061 15.9843 14.8592 15.6072C15.3359 15.2104 15.9866 15.1885 16.4925 15.4641L16.886 15.6784C16.9938 15.7372 17.1495 15.7462 17.3105 15.6718C17.3557 15.6509 17.4011 15.6305 17.4467 15.6107C17.6056 15.5418 17.7022 15.4276 17.7352 15.3157L17.8843 14.8096C18.0445 14.266 18.5089 13.8227 19.1194 13.7595ZM20.7674 14.8924C20.2714 14.8394 19.7594 14.8372 19.2365 14.8913C19.131 14.9022 19.019 14.9842 18.9757 15.1312L18.8265 15.6374C18.6828 16.125 18.314 16.4748 17.8994 16.6546C17.8622 16.6707 17.8251 16.6874 17.7879 16.7045C17.3514 16.9064 16.812 16.9337 16.3417 16.6776L15.9482 16.4632C15.8123 16.3892 15.672 16.411 15.5871 16.4817C15.1872 16.8145 14.8143 17.1874 14.4814 17.5873C14.4108 17.6722 14.389 17.8126 14.463 17.9484L14.6772 18.3417C14.9334 18.812 14.9059 19.3515 14.704 19.7881C14.6868 19.8253 14.6701 19.8626 14.6539 19.9C14.4741 20.3145 14.1243 20.6832 13.6367 20.8269L13.1308 20.976C12.9837 21.0194 12.9017 21.1313 12.8908 21.2369C12.8367 21.7597 12.8389 22.2716 12.8918 22.7676C12.9028 22.8701 12.9831 22.9805 13.1297 23.0237L13.6302 23.1712C14.1258 23.3173 14.4825 23.6965 14.6555 24.13C14.6744 24.1775 14.694 24.2247 14.7142 24.2716C14.899 24.7008 14.9151 25.2216 14.6678 25.6756L14.4185 26.1333C14.3454 26.2673 14.3665 26.4023 14.4314 26.4827C14.7534 26.8822 15.1175 27.2463 15.5169 27.5684C15.5973 27.6333 15.7323 27.6544 15.8664 27.5814L16.3239 27.3321C16.778 27.0848 17.2988 27.1009 17.728 27.2857C17.775 27.306 17.8223 27.3256 17.8699 27.3446C18.3034 27.5176 18.6826 27.8743 18.8287 28.3698L18.9763 28.8707C19.0195 29.0172 19.1298 29.0976 19.2323 29.1085C19.7281 29.1615 20.2399 29.1638 20.7626 29.1098C20.8682 29.0988 20.9802 29.0168 21.0235 28.8698L21.1657 28.3872C21.3134 27.8861 21.6992 27.5276 22.1383 27.3565C22.191 27.3359 22.2434 27.3146 22.2954 27.2925C22.7231 27.1108 23.2414 27.0956 23.6936 27.3419L24.1619 27.5971C24.2959 27.67 24.4303 27.6489 24.5101 27.5846C24.9057 27.2662 25.266 26.9059 25.5844 26.5103C25.6486 26.4305 25.6697 26.2961 25.5968 26.1622L25.3415 25.6935C25.0952 25.2413 25.1103 24.7232 25.292 24.2955C25.314 24.2437 25.3353 24.1914 25.3558 24.1387C25.5268 23.6997 25.8853 23.3138 26.3865 23.1661L26.8693 23.0238C27.0163 22.9805 27.0984 22.8685 27.1093 22.7629C27.1633 22.2402 27.161 21.7283 27.108 21.2325C27.0971 21.13 27.0167 21.0196 26.8702 20.9765L26.3687 20.8286C25.8732 20.6826 25.5165 20.3035 25.3435 19.8701C25.3246 19.8228 25.3051 19.7758 25.285 19.7291C25.1002 19.2999 25.0841 18.7791 25.3314 18.325L25.5809 17.8669C25.654 17.7329 25.6329 17.5979 25.568 17.5175C25.2459 17.118 24.8817 16.7538 24.4822 16.4318C24.4017 16.367 24.2668 16.3459 24.1327 16.4189L23.6745 16.6685C23.2205 16.9158 22.6997 16.8997 22.2706 16.715C22.224 16.6949 22.1771 16.6754 22.1298 16.6566C21.6964 16.4835 21.3172 16.1268 21.1712 15.6314L21.0235 15.1302C20.9803 14.9837 20.87 14.9033 20.7674 14.8924ZM19.1768 18.3197C21.8871 17.7428 24.2505 20.1054 23.6738 22.8164C23.3696 24.2465 22.246 25.3702 20.8157 25.6743C18.1049 26.2508 15.7425 23.8878 16.3192 21.1775C16.6049 19.8347 17.834 18.6055 19.1768 18.3197ZM22.5609 22.5796C22.9661 20.6746 21.3182 19.0272 19.4137 19.4326C18.5052 19.6259 17.6253 20.5059 17.432 21.4143C17.0268 23.3188 18.6741 24.9666 20.5791 24.5614C21.5698 24.3507 22.3501 23.5704 22.5609 22.5796Z" fill="#1F86FF"/>
<defs>
<linearGradient id="paint0_linear_27375_21251" x1="6" y1="2" x2="18.9313" y2="38.3799" gradientUnits="userSpaceOnUse">
<stop stop-color="#F7FAFF"/>
<stop offset="0.37" stop-color="#EDF1F9"/>
<stop offset="1" stop-color="#EDF1F9"/>
</linearGradient>
<linearGradient id="paint1_linear_27375_21251" x1="20" y1="2" x2="20" y2="37.5" gradientUnits="userSpaceOnUse">
<stop stop-color="#E4E8F0"/>
<stop offset="1" stop-color="#E5E9F1"/>
</linearGradient>
</defs>
</svg>
