<svg width="40" height="40" viewBox="0 0 40 40" fill="none" xmlns="http://www.w3.org/2000/svg">
<path d="M10 2.5H24.4639L33.5 11.2119V34C33.5 35.933 31.933 37.5 30 37.5H10C8.067 37.5 6.5 35.933 6.5 34V6C6.5 4.067 8.067 2.5 10 2.5Z" fill="url(#paint0_linear_27375_21233)" stroke="url(#paint1_linear_27375_21233)" stroke-linejoin="round"/>
<path d="M28.6499 11C26.4408 11 24.6499 9.20914 24.6499 7L24.6499 2L33.9999 11H28.6499Z" fill="#DADEE5"/>
<path fill-rule="evenodd" clip-rule="evenodd" d="M24.3891 14.7392C23.8034 14.1534 22.8538 14.1533 22.268 14.7389L13.4445 23.5588C13.3692 23.6341 13.3153 23.7281 13.2883 23.8311L12.3304 27.4865C12.1556 28.1533 12.7646 28.761 13.431 28.5848L17.0983 27.6152C17.2007 27.5881 17.2942 27.5344 17.3691 27.4594L26.1793 18.6511C26.7652 18.0653 26.7653 17.1155 26.1795 16.5297L24.3891 14.7392ZM23.1163 15.5876C23.2335 15.4705 23.4234 15.4705 23.5405 15.5877L25.3309 17.3782C25.4481 17.4954 25.448 17.6853 25.3309 17.8025L24.0928 19.0402L21.878 16.8255L23.1163 15.5876ZM21.0293 17.6738L23.2442 19.8887L16.9022 26.2294L14.6866 24.014L21.0293 17.6738ZM14.1712 25.1956L13.6215 27.2932L15.7153 26.7396L14.1712 25.1956Z" fill="#1F86FF"/>
<path d="M27.3739 25.1493C27.1251 24.9304 26.746 24.9547 26.5271 25.2036C26.3083 25.4524 26.3326 25.8315 26.5814 26.0503C26.9457 26.3708 27.175 26.7597 27.2611 27.1152C27.3468 27.4689 27.2862 27.7519 27.136 27.9456C26.9868 28.1378 26.6667 28.348 26.0153 28.3819C25.3595 28.4159 24.4185 28.2648 23.1374 27.7793C21.9877 27.3436 21.1603 27.0952 20.5675 26.9973C20.2712 26.9484 20.0028 26.9316 19.7669 26.9626C19.5268 26.9942 19.2815 27.0812 19.0899 27.2736C18.8962 27.468 18.8247 27.7024 18.8025 27.8959C18.7812 28.0809 18.8007 28.2629 18.8217 28.4044C18.8345 28.4905 18.8539 28.5956 18.8706 28.6863C18.8792 28.7332 18.8871 28.7763 18.893 28.8107C18.8971 28.8346 18.9008 28.8572 18.9042 28.8787C18.6459 28.8544 18.2443 28.7463 17.7183 28.5409C17.4097 28.4204 17.0617 28.5729 16.9412 28.8816C16.8206 29.1902 16.9731 29.5382 17.2818 29.6587C17.8845 29.8941 18.4695 30.0666 18.9345 30.0828C19.1622 30.0907 19.4497 30.0655 19.6977 29.9072C19.9918 29.7195 20.1254 29.4152 20.1254 29.0998C20.1254 28.9223 20.1 28.749 20.0757 28.6077C20.0639 28.5385 20.0534 28.4822 20.0438 28.431C20.0306 28.3602 20.0193 28.2992 20.0087 28.2281C20.0041 28.1971 20.0008 28.1703 19.9984 28.1472C20.0795 28.1454 20.2 28.1529 20.372 28.1813C20.8442 28.2593 21.5818 28.473 22.7122 28.9014C24.0824 29.4207 25.1971 29.626 26.0775 29.5802C26.9626 29.5343 27.6594 29.2286 28.0841 28.6811C28.5078 28.135 28.5779 27.4543 28.4274 26.8328C28.2773 26.213 27.9035 25.6151 27.3739 25.1493Z" fill="#1F86FF"/>
<defs>
<linearGradient id="paint0_linear_27375_21233" x1="6" y1="2" x2="18.9313" y2="38.3799" gradientUnits="userSpaceOnUse">
<stop stop-color="#F7FAFF"/>
<stop offset="0.37" stop-color="#EDF1F9"/>
<stop offset="1" stop-color="#EDF1F9"/>
</linearGradient>
<linearGradient id="paint1_linear_27375_21233" x1="20" y1="2" x2="20" y2="37.5" gradientUnits="userSpaceOnUse">
<stop stop-color="#E4E8F0"/>
<stop offset="1" stop-color="#E5E9F1"/>
</linearGradient>
</defs>
</svg>
