<svg width="24" height="24" viewBox="0 0 24 24" fill="none" xmlns="http://www.w3.org/2000/svg">
<path fill-rule="evenodd" clip-rule="evenodd" d="M17.7215 12.9274C18.0835 12.2854 19.0736 12.3312 19.3456 13.0651L19.6835 13.9772C19.8151 14.3327 20.0955 14.614 20.451 14.7457L21.3641 15.0836C22.1463 15.374 22.1463 16.4807 21.3641 16.7711L20.451 17.109C20.0957 17.2406 19.8152 17.5212 19.6835 17.8766L19.3456 18.7897C19.0555 19.5726 17.9484 19.5724 17.6581 18.7897L17.3202 17.8766C17.1885 17.5212 16.9069 17.2407 16.5516 17.109L15.6395 16.7711C14.8564 16.481 14.8564 15.3737 15.6395 15.0836L16.5516 14.7457C16.9071 14.6139 17.1886 14.3327 17.3202 13.9772L17.6581 13.0651L17.7215 12.9274ZM18.5018 14.7604C18.2443 15.2614 17.8358 15.6698 17.3348 15.9274C17.8355 16.1848 18.2443 16.5927 18.5018 17.0934C18.7593 16.5929 19.1673 16.1848 19.6678 15.9274C19.167 15.6698 18.7593 15.2612 18.5018 14.7604Z" fill="#15C674"/>
<path d="M16.8055 5.07482C16.9628 4.72231 17.3765 4.56281 17.7294 4.71935C18.0817 4.87653 18.241 5.29041 18.0848 5.64318L17.0184 8.04162C17.9672 8.84806 18.8325 9.92056 19.4432 11.2028C19.1389 11.1424 18.8238 11.111 18.5018 11.111C18.2767 11.111 18.0546 11.127 17.8378 11.1569C17.2175 10.1088 16.3981 9.25918 15.5409 8.66369C14.5504 7.97597 13.2879 7.69324 12.0428 7.71154C10.7935 7.73015 9.63579 8.05145 8.89146 8.48303C6.56238 9.83437 5.26032 12.1188 5.20787 15.0123C5.19019 15.9954 5.38729 16.517 5.62682 16.8082C5.85973 17.0907 6.23086 17.2745 6.84264 17.359C7.46481 17.4448 8.23357 17.4156 9.161 17.3561C10.0656 17.298 11.1065 17.2133 12.1815 17.2174C12.7654 17.2196 13.3379 17.2514 13.8817 17.2906C14.038 17.8215 14.2825 18.3142 14.5995 18.7516C13.8187 18.687 13.0121 18.62 12.1766 18.6168C11.1628 18.613 10.1877 18.6934 9.25084 18.7535C8.33736 18.8122 7.43332 18.8545 6.65123 18.7467C5.85916 18.6373 5.09069 18.3602 4.54576 17.6988C4.00782 17.0454 3.78777 16.1364 3.80846 14.9869C3.8609 12.0942 5.01594 9.64582 7.12584 7.99182L5.93639 5.82287C5.751 5.48414 5.87431 5.05861 6.21275 4.87267C6.55126 4.6876 6.97691 4.81109 7.16295 5.14904L8.29478 7.21252C9.2741 6.67468 10.6271 6.33198 12.0213 6.31115C13.2947 6.29237 14.6641 6.54145 15.8553 7.21154L16.8055 5.07482Z" fill="#15C674"/>
<path d="M12.0721 9.27892C13.5679 9.27912 14.9576 9.65315 15.995 10.2936C16.4421 10.5698 16.8428 10.9095 17.1522 11.3033C16.6764 11.4419 16.2305 11.6515 15.828 11.9205C15.6727 11.7702 15.484 11.6236 15.2596 11.485C14.4767 11.0016 13.3503 10.6795 12.0721 10.6793C10.7941 10.6794 9.66886 11.0017 8.88658 11.485C8.0938 11.9751 7.74651 12.5609 7.74596 13.0856C7.74602 13.3392 7.81752 13.4172 7.87584 13.4635C7.9776 13.5439 8.18995 13.6317 8.60142 13.6813C9.00223 13.7294 9.50127 13.7328 10.1014 13.7203C10.6845 13.7082 11.3699 13.6813 12.0721 13.6813C12.7754 13.6813 13.4612 13.7081 14.0448 13.7203C14.1039 13.7216 14.1624 13.7214 14.2196 13.7223C13.9977 14.1522 13.8379 14.6197 13.7538 15.1129C13.2162 15.0994 12.6612 15.0817 12.0721 15.0817C11.3879 15.0817 10.7494 15.1068 10.1307 15.1197C9.52935 15.1323 8.94275 15.133 8.43443 15.0719C7.93793 15.0121 7.41277 14.8828 7.00572 14.5602C6.5557 14.203 6.34565 13.6882 6.34557 13.0856C6.34611 11.8964 7.12475 10.9286 8.15025 10.2945C9.18704 9.65382 10.576 9.27896 12.0721 9.27892Z" fill="#15C674"/>
<path d="M9.82994 11.4664C10.3043 11.4666 10.6898 11.8515 10.6903 12.3258C10.6903 12.8005 10.3046 13.186 9.82994 13.1862C9.35532 13.1859 8.97057 12.8005 8.97057 12.3258C8.97109 11.8516 9.35564 11.4666 9.82994 11.4664Z" fill="#15C674"/>
<path d="M14.1151 11.4664C14.5895 11.4666 14.9749 11.8515 14.9754 12.3258C14.9754 12.8005 14.5898 13.186 14.1151 13.1862C13.6405 13.1859 13.2557 12.8005 13.2557 12.3258C13.2562 11.8516 13.6408 11.4666 14.1151 11.4664Z" fill="#15C674"/>
</svg>
