<svg width="24" height="24" viewBox="0 0 24 24" fill="none" xmlns="http://www.w3.org/2000/svg">
<path d="M15.877 3.87891C17.3679 3.87917 18.5762 5.0881 18.5762 6.5791V6.82715C18.5903 6.88265 18.6006 6.9401 18.6006 7V8C18.6006 8.05957 18.5902 8.11665 18.5762 8.17188V9.55371C18.5759 9.93996 18.2632 10.2527 17.877 10.2529C17.4905 10.2529 17.177 9.94012 17.1768 9.55371V6.5791C17.1768 5.86129 16.5947 5.27956 15.877 5.2793H8.11133C7.39336 5.2793 6.81152 5.86113 6.81152 6.5791V17.3945C6.81152 18.1122 7.394 18.6943 8.1123 18.6943H16.8057C17.1922 18.6944 17.5059 19.0079 17.5059 19.3945C17.5059 19.7811 17.1922 20.0947 16.8057 20.0947H12.0566C12.0379 20.0962 12.0192 20.1006 12 20.1006H10C9.98083 20.1006 9.96214 20.0962 9.94336 20.0947H8.1123C6.62147 20.0947 5.41113 18.886 5.41113 17.3945V6.5791C5.41113 5.08793 6.62016 3.87891 8.11133 3.87891H15.877ZM19 11.5752C19.2733 11.3022 19.717 11.3021 19.9902 11.5752C20.2633 11.8485 20.2632 12.2921 19.9902 12.5654L18.1328 14.4219L19.9902 16.2793C20.2633 16.5526 20.2632 16.9962 19.9902 17.2695C19.7169 17.5428 19.2734 17.5427 19 17.2695L17.1426 15.4121L15.2861 17.2695C15.0128 17.5428 14.5693 17.5427 14.2959 17.2695C14.0227 16.9962 14.0227 16.5526 14.2959 16.2793L16.1523 14.4219L14.2959 12.5654C14.0227 12.2921 14.0227 11.8485 14.2959 11.5752C14.5692 11.3022 15.0129 11.3021 15.2861 11.5752L17.1426 13.4316L19 11.5752ZM12 13.1953C12.3866 13.1953 12.7002 13.5089 12.7002 13.8955C12.7002 14.2821 12.3866 14.5957 12 14.5957H9C8.6134 14.5957 8.2998 14.2821 8.2998 13.8955C8.2998 13.5089 8.6134 13.1953 9 13.1953H12ZM12 10.2354C12.3866 10.2354 12.7002 10.5489 12.7002 10.9355C12.7002 11.3221 12.3866 11.6357 12 11.6357H9C8.6134 11.6357 8.2998 11.3221 8.2998 10.9355C8.2998 10.5489 8.6134 10.2354 9 10.2354H12ZM15 7.36914C15.3866 7.36914 15.7002 7.68274 15.7002 8.06934C15.7002 8.45594 15.3866 8.76953 15 8.76953H9C8.6134 8.76953 8.2998 8.45594 8.2998 8.06934C8.2998 7.68274 8.6134 7.36914 9 7.36914H15Z" fill="#333333"/>
</svg>
