<svg width="24" height="24" viewBox="0 0 24 24" fill="none" xmlns="http://www.w3.org/2000/svg">
<path fill-rule="evenodd" clip-rule="evenodd" d="M19.5118 12.4824C20.7266 12.4827 21.711 13.4678 21.711 14.6826V18.3301C21.711 19.5451 20.7258 20.5303 19.5108 20.5303H14.2266C13.0116 20.5302 12.0264 19.5451 12.0264 18.3301V14.6826C12.0264 13.4676 13.0116 12.4825 14.2266 12.4824H19.5118ZM17.7432 17.2168C17.1563 17.6128 16.3849 17.6032 15.8077 17.1934L13.4268 15.502V18.3301C13.4268 18.7719 13.7848 19.1298 14.2266 19.1299H19.5108C19.9526 19.1299 20.3116 18.7719 20.3116 18.3301V15.4824L17.7432 17.2168ZM14.2266 13.8828C14.0561 13.8828 13.8984 13.9365 13.7686 14.0273L16.6192 16.0518C16.7209 16.1238 16.8566 16.1262 16.96 16.0566L19.9678 14.0264C19.8384 13.9363 19.6814 13.8829 19.5118 13.8828H14.2266Z" fill="#15C674"/>
<path d="M9.51372 12.9775C9.88896 12.8851 10.2687 13.1141 10.3614 13.4893C10.4539 13.8646 10.2241 14.2444 9.84868 14.3369C8.53684 14.6602 7.67642 15.2789 7.1231 15.998C6.61942 16.6528 6.34658 17.4241 6.24614 18.1992H9.68169C10.0681 18.1994 10.3809 18.5129 10.3809 18.8994C10.3808 19.2858 10.068 19.5994 9.68169 19.5996H6.00005C5.3543 19.5996 4.76425 19.0643 4.82232 18.3438L4.86724 17.9375C5.0027 16.9853 5.35328 16.003 6.01372 15.1445C6.7746 14.1556 7.91704 13.371 9.51372 12.9775Z" fill="#15C674"/>
<path fill-rule="evenodd" clip-rule="evenodd" d="M12.2295 3.40527C17.1234 3.66424 16.6543 11.9372 11.9922 11.9375L11.8096 11.9336C8.07891 11.7599 7.19119 6.26457 9.78521 4.16113L9.91314 4.0625C10.3769 3.7211 11.2687 3.39945 11.9922 3.39941L12.2295 3.40527ZM11.9922 4.7998C11.8193 4.79982 11.5675 4.84165 11.2959 4.93164C11.0197 5.02323 10.824 5.13095 10.7432 5.19043C9.91941 5.797 9.498 7.12612 9.79302 8.4707C10.0769 9.76405 10.882 10.538 11.9922 10.5381C12.7033 10.538 13.2243 10.237 13.6094 9.74316C14.0198 9.21669 14.2783 8.45243 14.2979 7.63477C14.3175 6.81598 14.0951 6.07964 13.7159 5.58301C13.3695 5.12953 12.8418 4.79986 11.9922 4.7998Z" fill="#15C674"/>
</svg>
