<svg width="24" height="24" viewBox="0 0 24 24" fill="none" xmlns="http://www.w3.org/2000/svg">
<path d="M19.6621 12C19.6621 9.99632 18.0379 8.37207 16.0342 8.37207H14.2314C13.8448 8.37207 13.5312 8.05847 13.5312 7.67188C13.5312 7.28528 13.8448 6.97168 14.2314 6.97168H16.0342C18.8111 6.97168 21.0625 9.22312 21.0625 12C21.0624 14.7768 18.811 17.0283 16.0342 17.0283H14.2314C13.8449 17.0283 13.5314 16.7146 13.5312 16.3281C13.5312 15.9415 13.8448 15.6279 14.2314 15.6279H16.0342C18.0378 15.6279 19.662 14.0036 19.6621 12Z" fill="#15C674"/>
<path d="M15.8936 11.2998C16.2802 11.2998 16.5938 11.6134 16.5938 12C16.5938 12.3866 16.2802 12.7002 15.8936 12.7002H8.18359C7.79699 12.7002 7.4834 12.3866 7.4834 12C7.4834 11.6134 7.79699 11.2998 8.18359 11.2998H15.8936Z" fill="#15C674"/>
<path d="M4.3374 12C4.3374 14.0037 5.96165 15.6279 7.96533 15.6279H9.76807C10.1547 15.6279 10.4683 15.9415 10.4683 16.3281C10.4683 16.7147 10.1547 17.0283 9.76807 17.0283H7.96533C5.18845 17.0283 2.93701 14.7769 2.93701 12C2.93708 9.22318 5.18849 6.97168 7.96533 6.97168H9.76807C10.1546 6.97168 10.4681 7.2854 10.4683 7.67188C10.4683 8.05847 10.1547 8.37207 9.76807 8.37207H7.96533C5.96169 8.37207 4.33747 9.99638 4.3374 12Z" fill="#15C674"/>
</svg>
