<svg width="24" height="24" viewBox="0 0 24 24" fill="none" xmlns="http://www.w3.org/2000/svg">
<path d="M12.3525 11.5273C12.6136 11.2425 13.0568 11.2236 13.3418 11.4844C13.6266 11.7456 13.6458 12.1877 13.3848 12.4727L10.374 15.7578C10.119 16.0361 9.68898 16.062 9.40234 15.8164L7.48633 14.1738C7.19323 13.9222 7.1587 13.4799 7.41016 13.1865C7.66164 12.8935 8.10307 12.8604 8.39648 13.1113L9.79883 14.3125L12.3525 11.5273Z" fill="#15C674"/>
<path fill-rule="evenodd" clip-rule="evenodd" d="M14.0352 7.27344C14.3147 7.27346 14.5843 7.31567 14.8379 7.39453C14.9224 7.42084 15.0052 7.45118 15.0859 7.48535C16.0551 7.89521 16.7354 8.85522 16.7354 9.97363V17.292C16.7353 17.758 16.617 18.1965 16.4092 18.5791C16.3063 18.7685 16.1786 18.942 16.0352 19.1006C15.9771 19.1647 15.9154 19.2249 15.8516 19.2832C15.7295 19.3947 15.5981 19.4952 15.457 19.583C15.3766 19.6331 15.2938 19.6792 15.208 19.7207C14.8565 19.8909 14.464 19.9891 14.0479 19.9912C14.0436 19.9912 14.0394 19.9922 14.0352 19.9922H6.71582C5.22465 19.9922 4.01562 18.7832 4.01562 17.292V9.97363C4.01562 8.48246 5.22465 7.27344 6.71582 7.27344H14.0352ZM6.70996 8.67383C6.62957 8.67418 6.55092 8.68197 6.47461 8.69629C6.45716 8.69957 6.44004 8.70403 6.42285 8.70801C6.28146 8.74059 6.14887 8.79558 6.0293 8.87012C5.96356 8.91116 5.90191 8.958 5.84473 9.00977C5.81396 9.03759 5.78482 9.06704 5.75684 9.09766C5.71402 9.14455 5.67432 9.19427 5.63867 9.24707C5.61523 9.28176 5.59331 9.31752 5.57324 9.35449C5.4734 9.53854 5.41699 9.74954 5.41699 9.97363V17.292C5.4171 18.0099 5.99889 18.5918 6.7168 18.5918H14.0342C14.7521 18.5918 15.334 18.01 15.334 17.292V9.97363C15.334 9.25566 14.7521 8.67383 14.0342 8.67383H6.70996Z" fill="#15C674"/>
<path d="M17.2861 3.91211C17.7169 3.91215 18.123 4.01585 18.4844 4.19531C18.7484 4.32643 18.9891 4.49686 19.1953 4.70312C19.6841 5.19179 19.9863 5.86667 19.9863 6.6123V13.9307C19.9863 14.2162 19.9406 14.4908 19.8584 14.749C19.8339 14.826 19.8074 14.9018 19.7764 14.9756C19.7087 15.1364 19.6264 15.2895 19.5303 15.4326C19.3063 15.7666 19.0097 16.0481 18.6631 16.2539C18.3376 16.4472 17.991 16.2667 17.8525 15.9482C17.8127 15.8568 17.7891 15.7542 17.7891 15.6455C17.7891 15.3328 17.9947 15.0638 18.2139 14.8408C18.4442 14.6065 18.5859 14.2852 18.5859 13.9307V6.6123C18.5859 6.51738 18.575 6.42507 18.5557 6.33594C18.5294 6.21458 18.4873 6.0993 18.4297 5.99316C18.3481 5.84278 18.2373 5.71067 18.1055 5.60352C18.0633 5.56922 18.019 5.53766 17.9727 5.50879C17.8514 5.43322 17.7169 5.3771 17.5732 5.34473C17.559 5.34152 17.5447 5.33868 17.5303 5.33594C17.4513 5.32093 17.3695 5.31252 17.2861 5.3125H9.96777C9.6123 5.31259 9.29024 5.4553 9.05566 5.68652C8.83266 5.90634 8.56408 6.11218 8.25098 6.1123C7.76482 6.1123 7.39457 5.65981 7.6416 5.24121C7.90584 4.7939 8.29513 4.42863 8.76172 4.19531C8.91735 4.11739 9.08191 4.05471 9.25293 4.00781C9.36665 3.97666 9.48335 3.95265 9.60254 3.93652C9.72196 3.92035 9.8439 3.91212 9.96777 3.91211H17.2861Z" fill="#15C674"/>
</svg>
