<svg width="24" height="24" viewBox="0 0 24 24" fill="none" xmlns="http://www.w3.org/2000/svg">
<path fill-rule="evenodd" clip-rule="evenodd" d="M15.7451 10.292C16.5182 10.292 17.1453 10.9193 17.1455 11.6924V12.1621H18.2998C19.0728 12.1622 19.7 12.7895 19.7002 13.5625V18.6377C19.7002 18.7343 19.6809 18.8264 19.6455 18.9102C19.61 18.9939 19.5585 19.0695 19.4951 19.1328C19.3684 19.2595 19.1933 19.3379 19 19.3379H11.3086C11.1635 19.3379 11.0288 19.2934 10.917 19.2178C10.8426 19.1675 10.7778 19.1037 10.7275 19.0293C10.6521 18.9176 10.6084 18.7826 10.6084 18.6377V15.3896C10.6086 14.6166 11.2357 13.9893 12.0088 13.9893H13.1768V11.6924C13.1769 10.9194 13.8042 10.2921 14.5771 10.292H15.7451ZM12.0088 17.9375H13.1768V15.3896H12.0088V17.9375ZM14.5771 17.9375H15.7314V13.5625C15.7315 13.4989 15.7369 13.4364 15.7451 13.375V11.6924H14.5771V17.9375ZM17.1455 17.9375H18.2998V13.5625H17.1455V17.9375Z" fill="#15C674"/>
<path d="M8.69727 14.4385C9.08387 14.4385 9.39746 14.7521 9.39746 15.1387C9.39728 15.5251 9.08376 15.8389 8.69727 15.8389H8.49512C8.15653 15.839 7.88184 16.1135 7.88184 16.4521C7.88212 16.7905 8.15671 17.0653 8.49512 17.0654H8.65918C9.04578 17.0654 9.35938 17.379 9.35938 17.7656C9.35897 18.1519 9.04553 18.4648 8.65918 18.4648H8.49512C7.38351 18.4647 6.48173 17.5637 6.48145 16.4521C6.48145 15.3403 7.38333 14.4386 8.49512 14.4385H8.69727Z" fill="#15C674"/>
<path d="M10.1367 9.6123C10.5232 9.61244 10.8369 9.92598 10.8369 10.3125C10.8367 10.6989 10.5231 11.0126 10.1367 11.0127H6.80078C6.46208 11.0127 6.1875 11.2873 6.1875 11.626C6.18779 11.9644 6.46226 12.2393 6.80078 12.2393H10.0215C10.4078 12.2396 10.7207 12.553 10.7207 12.9395C10.7203 13.3255 10.4076 13.6384 10.0215 13.6387H6.80078C5.68906 13.6387 4.7874 12.7376 4.78711 11.626C4.78711 10.5141 5.68888 9.6123 6.80078 9.6123H10.1367Z" fill="#15C674"/>
<path fill-rule="evenodd" clip-rule="evenodd" d="M16.6641 4.6582C17.8122 4.6582 18.7314 5.60042 18.7314 6.73535C18.7312 7.87012 17.8121 8.8125 16.6641 8.8125H5.4375C4.2896 8.81237 3.37032 7.87004 3.37012 6.73535C3.37012 5.6005 4.28948 4.65834 5.4375 4.6582H16.6641ZM5.4375 6.05859C5.07584 6.05873 4.77051 6.36046 4.77051 6.73535C4.77071 7.11007 5.07596 7.41197 5.4375 7.41211H16.6641C17.0257 7.41211 17.3309 7.11015 17.3311 6.73535C17.3311 6.36038 17.0258 6.05859 16.6641 6.05859H5.4375Z" fill="#15C674"/>
</svg>
