<svg width="24" height="24" viewBox="0 0 24 24" fill="none" xmlns="http://www.w3.org/2000/svg">
<path d="M15.8301 9.97266C16.2756 9.97279 16.7174 10.13 17.0547 10.4297C17.3944 10.7319 17.6045 11.1609 17.6045 11.6279V12.1445L17.9014 12.1484H17.9004C18.0237 12.1493 18.1465 12.1699 18.2637 12.209L18.3818 12.2549L18.4932 12.3145C18.6015 12.3793 18.6995 12.4622 18.7822 12.5605H18.7832L20.3652 14.4434L20.4248 14.5205C20.5557 14.7064 20.6294 14.9302 20.6299 15.1631V16.7441C20.6297 17.0557 20.4991 17.3473 20.2793 17.5566C20.1109 17.717 19.8996 17.8183 19.6768 17.8574C19.4156 18.5504 18.7687 19.0633 17.9717 19.0635C17.1818 19.0635 16.5375 18.5604 16.2715 17.877H15.1738C14.9081 18.5602 14.2642 19.0631 13.4746 19.0635C12.6832 19.0635 12.0375 18.5585 11.7725 17.873C11.5602 17.8621 11.2382 17.8061 10.9814 17.5781C10.7509 17.3732 10.5715 17.0385 10.5713 16.6875V11.6279C10.5713 11.1607 10.7811 10.7319 11.1211 10.4297C11.4584 10.1299 11.9001 9.9727 12.3457 9.97266H15.8301ZM8.69727 14.4385C9.08387 14.4385 9.39746 14.7521 9.39746 15.1387C9.39728 15.5251 9.08376 15.8389 8.69727 15.8389H8.49512C8.15653 15.839 7.88184 16.1135 7.88184 16.4521C7.88212 16.7905 8.15671 17.0653 8.49512 17.0654H8.65918C9.04578 17.0654 9.35938 17.379 9.35938 17.7656C9.35897 18.1519 9.04553 18.4648 8.65918 18.4648H8.49512C7.38351 18.4647 6.48173 17.5637 6.48145 16.4521C6.48145 15.3403 7.38333 14.4386 8.49512 14.4385H8.69727ZM12.3457 11.373C12.2216 11.3731 12.1163 11.4173 12.0508 11.4756C11.988 11.5315 11.9717 11.5888 11.9717 11.6279V16.4775H12.333C12.3361 16.4775 12.3397 16.4766 12.3428 16.4766C12.729 16.4768 13.0427 16.7905 13.043 17.1768C13.043 17.477 13.2672 17.6631 13.4746 17.6631C13.6817 17.6626 13.9053 17.4766 13.9053 17.1768C13.9055 16.7904 14.2191 16.4767 14.6055 16.4766H16.8398C17.2263 16.4766 17.5398 16.7904 17.54 17.1768C17.54 17.477 17.7643 17.6631 17.9717 17.6631C18.1789 17.6629 18.4023 17.4769 18.4023 17.1768C18.4026 16.7904 18.7162 16.4767 19.1025 16.4766C19.1055 16.4766 19.1084 16.4775 19.1113 16.4775C19.1148 16.4775 19.1186 16.4766 19.1221 16.4766H19.2295V15.2676L17.7822 13.5469L16.8955 13.5361C16.5124 13.5313 16.2042 13.219 16.2041 12.8359V11.6279C16.2041 11.5888 16.1867 11.5314 16.124 11.4756C16.0585 11.4175 15.9538 11.3732 15.8301 11.373H12.3457ZM8.69727 9.6123C9.08375 9.61244 9.39746 9.92598 9.39746 10.3125C9.39728 10.6989 9.08364 11.0126 8.69727 11.0127H6.80078C6.46208 11.0127 6.1875 11.2873 6.1875 11.626C6.18779 11.9644 6.46226 12.2393 6.80078 12.2393H8.61816C9.00457 12.2395 9.31836 12.553 9.31836 12.9395C9.31796 13.3256 9.00432 13.6384 8.61816 13.6387H6.80078C5.68906 13.6387 4.7874 12.7376 4.78711 11.626C4.78711 10.5141 5.68888 9.6123 6.80078 9.6123H8.69727ZM16.6641 4.6582C17.8122 4.6582 18.7314 5.60042 18.7314 6.73535C18.7312 7.87012 17.8121 8.8125 16.6641 8.8125H5.4375C4.2896 8.81237 3.37032 7.87004 3.37012 6.73535C3.37012 5.6005 4.28948 4.65834 5.4375 4.6582H16.6641ZM5.4375 6.05859C5.07584 6.05873 4.77051 6.36046 4.77051 6.73535C4.77071 7.11007 5.07596 7.41197 5.4375 7.41211H16.6641C17.0257 7.41211 17.3309 7.11015 17.3311 6.73535C17.3311 6.36038 17.0258 6.05859 16.6641 6.05859H5.4375Z" fill="#15C674"/>
</svg>
