<svg width="24" height="24" viewBox="0 0 24 24" fill="none" xmlns="http://www.w3.org/2000/svg">
<path d="M13.8379 18.3369C14.3888 18.3369 14.8359 18.784 14.8359 19.335C14.8358 19.8858 14.3887 20.332 13.8379 20.332C13.287 20.332 12.841 19.8858 12.8408 19.335C12.8408 18.784 13.287 18.3369 13.8379 18.3369Z" fill="#15C674"/>
<path d="M17.7305 18.3369C18.2814 18.3369 18.7285 18.784 18.7285 19.335C18.7285 19.8859 18.2814 20.332 17.7305 20.332C17.1796 20.332 16.7334 19.8859 16.7334 19.335C16.7334 18.784 17.1795 18.3369 17.7305 18.3369Z" fill="#15C674"/>
<path d="M8.69727 14.4385C9.08387 14.4385 9.39746 14.7521 9.39746 15.1387C9.39728 15.5251 9.08376 15.8389 8.69727 15.8389H8.49512C8.15653 15.839 7.88184 16.1135 7.88184 16.4521C7.88212 16.7905 8.15671 17.0653 8.49512 17.0654H8.65918C9.04578 17.0654 9.35938 17.379 9.35938 17.7656C9.35897 18.1519 9.04553 18.4648 8.65918 18.4648H8.49512C7.38351 18.4647 6.48173 17.5637 6.48145 16.4521C6.48145 15.3403 7.38333 14.4386 8.49512 14.4385H8.69727Z" fill="#15C674"/>
<path fill-rule="evenodd" clip-rule="evenodd" d="M11.3428 9.58789C11.622 9.63715 11.8495 9.85278 11.9072 10.1387L12.0371 10.7822H19.6963C19.9022 10.7822 20.0984 10.8731 20.2314 11.0303C20.3642 11.1874 20.4207 11.3948 20.3867 11.5977L19.6025 16.2695L19.6016 16.2754C19.5335 16.6616 19.3578 17.0328 19.0771 17.3154C18.7933 17.6012 18.4113 17.7833 17.9893 17.7842H13.3545C12.9301 17.7904 12.5428 17.6127 12.2539 17.3271C11.9691 17.0457 11.791 16.6738 11.7207 16.2861L10.6475 10.9775H10.2402C9.85363 10.9775 9.54004 10.6639 9.54004 10.2773C9.54004 9.89074 9.85363 9.57715 10.2402 9.57715H11.2207L11.3428 9.58789ZM13.0928 16.0088C13.0941 16.0155 13.0955 16.0225 13.0967 16.0293C13.1214 16.1736 13.1821 16.2755 13.2383 16.3311C13.2909 16.383 13.3262 16.385 13.335 16.3848C13.3414 16.3846 13.348 16.3838 13.3545 16.3838H17.9863C17.9955 16.3838 18.032 16.3815 18.084 16.3291C18.1392 16.2735 18.1979 16.1729 18.2227 16.0322L18.8701 12.1816H12.3203L13.0928 16.0088Z" fill="#15C674"/>
<path d="M7.83691 9.6123C8.2234 9.61244 8.53711 9.92598 8.53711 10.3125C8.53693 10.6989 8.22329 11.0126 7.83691 11.0127H6.80078C6.46208 11.0127 6.1875 11.2873 6.1875 11.626C6.18779 11.9644 6.46226 12.2393 6.80078 12.2393H8.61816C9.00457 12.2395 9.31836 12.553 9.31836 12.9395C9.31796 13.3256 9.00432 13.6384 8.61816 13.6387H6.80078C5.68906 13.6387 4.7874 12.7376 4.78711 11.626C4.78711 10.5141 5.68888 9.6123 6.80078 9.6123H7.83691Z" fill="#15C674"/>
<path fill-rule="evenodd" clip-rule="evenodd" d="M16.6641 4.6582C17.8122 4.6582 18.7314 5.60042 18.7314 6.73535C18.7312 7.87012 17.8121 8.8125 16.6641 8.8125H5.4375C4.2896 8.81237 3.37032 7.87004 3.37012 6.73535C3.37012 5.6005 4.28948 4.65834 5.4375 4.6582H16.6641ZM5.4375 6.05859C5.07584 6.05873 4.77051 6.36046 4.77051 6.73535C4.77071 7.11007 5.07596 7.41197 5.4375 7.41211H16.6641C17.0257 7.41211 17.3309 7.11015 17.3311 6.73535C17.3311 6.36038 17.0258 6.05859 16.6641 6.05859H5.4375Z" fill="#15C674"/>
</svg>
