<svg width="24" height="24" viewBox="0 0 24 24" fill="none" xmlns="http://www.w3.org/2000/svg">
<path fill-rule="evenodd" clip-rule="evenodd" d="M8.46422 5.4H12.6948V7.71028C12.6948 8.2643 12.9158 8.79511 13.3082 9.18606C13.7006 9.57692 14.2323 9.796 14.7859 9.796H17.0989L17.099 10.0593C17.099 10.4459 17.4124 10.7593 17.799 10.7593C18.1856 10.7593 18.499 10.4459 18.499 10.0593C18.499 9.97097 18.4987 9.88258 18.4984 9.79419C18.4977 9.58864 18.497 9.38286 18.5001 9.17737C18.5042 8.90843 18.5106 8.48798 18.3458 8.08359C18.1896 7.70044 17.9671 7.36728 17.6812 7.07701L15.5805 4.89071L15.5742 4.88435C15.3392 4.64594 15.0329 4.43191 14.7103 4.2757C14.3922 4.12168 14.0073 3.99923 13.6157 4H8.46422C8.09983 4 7.72166 4.00832 7.34812 4.11847C6.95201 4.23528 6.61227 4.44899 6.26744 4.77448C5.57125 5.43164 5.48828 6.29488 5.48828 7.10762L5.48829 16.9099C5.48829 17.571 5.54551 18.4575 6.21062 19.1315C6.47559 19.4 6.76355 19.6291 7.13102 19.7812C7.49578 19.9322 7.88634 19.9857 8.3263 19.9857H9.52289C9.90949 19.9857 10.2229 19.6723 10.2229 19.2857C10.2229 18.8991 9.90949 18.5857 9.52289 18.5857H8.3263C7.99757 18.5857 7.80535 18.5451 7.66654 18.4877C7.53044 18.4313 7.39401 18.3375 7.20707 18.1481C6.96834 17.9062 6.88829 17.5439 6.88829 16.9099L6.88828 7.10762C6.88828 6.34024 6.9889 6.01867 7.22844 5.79257C7.45392 5.57973 7.60721 5.50167 7.74411 5.4613C7.90358 5.41428 8.09839 5.4 8.46422 5.4ZM14.1001 5.53574L14.0948 5.53319V7.71028C14.0948 7.89129 14.167 8.06541 14.2963 8.1942C14.4256 8.32307 14.6018 8.396 14.7859 8.396H16.9431C16.8718 8.27398 16.7853 8.16222 16.6817 8.0573L14.5744 5.86439C14.4632 5.75236 14.293 5.62915 14.1001 5.53574Z" fill="#333333"/>
<path d="M9.4998 11.2754C9.11321 11.2754 8.7998 11.5888 8.7998 11.9754C8.7998 12.362 9.11321 12.6754 9.4998 12.6754H13.8376C14.2242 12.6754 14.5376 12.362 14.5376 11.9754C14.5376 11.5888 14.2242 11.2754 13.8376 11.2754H9.4998Z" fill="#333333"/>
<path d="M8.7998 14.9754C8.7998 14.5888 9.11321 14.2754 9.4998 14.2754H11.1406C11.5272 14.2754 11.8406 14.5888 11.8406 14.9754C11.8406 15.362 11.5272 15.6754 11.1406 15.6754H9.4998C9.11321 15.6754 8.7998 15.362 8.7998 14.9754Z" fill="#333333"/>
<path fill-rule="evenodd" clip-rule="evenodd" d="M18.9452 12.1288C18.3205 11.504 17.3076 11.5039 16.6827 12.1286L12.1066 16.7028C12.0187 16.7906 11.9558 16.9002 11.9243 17.0204L11.4551 18.8112C11.2609 19.552 11.9376 20.2272 12.678 20.0315L14.4754 19.5562C14.595 19.5246 14.704 19.4619 14.7914 19.3745L19.3601 14.8068C19.9851 14.182 19.9851 13.1688 19.3603 12.544L18.9452 12.1288ZM17.6724 13.1187C17.7505 13.0406 17.8771 13.0406 17.9552 13.1187L18.3703 13.5339C18.4484 13.612 18.4484 13.7386 18.3703 13.8167L13.9351 18.251L12.9832 18.5027L13.2305 17.5588L17.6724 13.1187Z" fill="#333333"/>
</svg>
