<svg width="24" height="24" viewBox="0 0 24 24" fill="none" xmlns="http://www.w3.org/2000/svg">
<path d="M18.71 7.71387C18.7098 6.94098 18.0834 6.31466 17.3105 6.31445H6.69336C5.92047 6.31466 5.29416 6.94098 5.29395 7.71387V16.2988C5.29416 17.0717 5.92047 17.698 6.69336 17.6982H17.3105C18.0834 17.698 18.7097 17.0717 18.71 16.2988V7.71387ZM8.45508 13.9189V9.4707H7.57715C7.19055 9.4707 6.87696 9.1571 6.87695 8.77051C6.87695 8.38391 7.19055 8.07031 7.57715 8.07031H10.7344C11.1208 8.07051 11.4336 8.38403 11.4336 8.77051C11.4336 9.15697 11.1208 9.4705 10.7344 9.4707H9.85547V13.9189C9.85547 14.3055 9.54187 14.6191 9.15527 14.6191C8.76867 14.6191 8.45508 14.3055 8.45508 13.9189ZM14.251 12.7188C14.6375 12.7188 14.9511 13.0324 14.9512 13.4189C14.9512 13.8055 14.6376 14.1191 14.251 14.1191H11.8535C11.4671 14.119 11.1543 13.8054 11.1543 13.4189C11.1543 13.0325 11.4671 12.7189 11.8535 12.7188H14.251ZM14.251 10.5605C14.6375 10.5605 14.9511 10.8742 14.9512 11.2607C14.9512 11.6473 14.6376 11.9609 14.251 11.9609H11.8535C11.4671 11.9608 11.1543 11.6472 11.1543 11.2607C11.1543 10.8743 11.4671 10.5607 11.8535 10.5605H14.251ZM20.1104 16.2988C20.1101 17.8449 18.8566 19.0984 17.3105 19.0986H6.69336C5.14727 19.0984 3.89377 17.8449 3.89355 16.2988V7.71387C3.89377 6.16778 5.14727 4.91427 6.69336 4.91406H17.3105C18.8566 4.91427 20.1101 6.16778 20.1104 7.71387V16.2988Z" fill="#15C674"/>
</svg>
