<svg width="24" height="24" viewBox="0 0 24 24" fill="none" xmlns="http://www.w3.org/2000/svg">
<path d="M17.0156 5.38965C17.402 5.38991 17.7158 5.70341 17.7158 6.08984C17.7158 6.47628 17.402 6.78978 17.0156 6.79004H12.7002V18.6484H14.6885C15.0751 18.6484 15.3887 18.962 15.3887 19.3486C15.3887 19.7352 15.0751 20.0488 14.6885 20.0488H9.31152C8.92492 20.0488 8.61133 19.7352 8.61133 19.3486C8.61133 18.962 8.92492 18.6484 9.31152 18.6484H11.2998V6.79004H6.98535C6.59875 6.79004 6.28516 6.47644 6.28516 6.08984C6.28516 5.70324 6.59875 5.38965 6.98535 5.38965H17.0156Z" fill="#15C674"/>
<path fill-rule="evenodd" clip-rule="evenodd" d="M6.68457 7.41504C6.95034 7.4152 7.19341 7.56658 7.31152 7.80469L9.53906 12.2969H9.99707C10.1825 12.2971 10.3611 12.3708 10.4922 12.502C10.6232 12.6332 10.6973 12.8116 10.6973 12.9971C10.6973 14.0611 10.2738 15.0815 9.52148 15.834C8.76916 16.5863 7.74851 17.0096 6.68457 17.0098C5.62056 17.0098 4.6001 16.5863 3.84766 15.834C3.09519 15.0815 2.6709 14.0612 2.6709 12.9971C2.6709 12.6105 2.98547 12.2969 3.37207 12.2969H3.8291L6.05664 7.80469C6.17479 7.56646 6.41866 7.41508 6.68457 7.41504ZM4.16992 13.6973C4.28959 14.1269 4.516 14.5238 4.83691 14.8447C5.3268 15.3345 5.99186 15.6094 6.68457 15.6094C7.377 15.6092 8.04151 15.3342 8.53125 14.8447C8.85201 14.5239 9.0786 14.1267 9.19824 13.6973H4.16992ZM5.39062 12.2969H7.97754L6.68359 9.69043L5.39062 12.2969Z" fill="#15C674"/>
<path fill-rule="evenodd" clip-rule="evenodd" d="M17.3164 7.41504C17.5822 7.4152 17.8252 7.56658 17.9434 7.80469L20.1709 12.2969H20.6289C20.8143 12.2971 20.9929 12.3708 21.124 12.502C21.2551 12.6332 21.3291 12.8116 21.3291 12.9971C21.3291 14.0611 20.9056 15.0815 20.1533 15.834C19.401 16.5863 18.3803 17.0096 17.3164 17.0098C16.2524 17.0098 15.2319 16.5863 14.4795 15.834C13.727 15.0815 13.3037 14.0612 13.3037 12.9971C13.3037 12.6105 13.6173 12.2969 14.0039 12.2969H14.4609L16.6885 7.80469C16.8066 7.56646 17.0505 7.41508 17.3164 7.41504ZM14.8018 13.6973C14.9214 14.1269 15.1478 14.5238 15.4688 14.8447C15.9586 15.3345 16.6237 15.6094 17.3164 15.6094C18.0088 15.6092 18.6734 15.3342 19.1631 14.8447C19.4838 14.5239 19.7104 14.1267 19.8301 13.6973H14.8018ZM16.0225 12.2969H18.6094L17.3154 9.69043L16.0225 12.2969Z" fill="#15C674"/>
</svg>
