<svg width="24" height="24" viewBox="0 0 24 24" fill="none" xmlns="http://www.w3.org/2000/svg">
<path d="M9.58577 4.83412C10.9829 3.43675 13.2487 3.43686 14.646 4.83412C15.4742 5.66255 15.8112 6.79659 15.6563 7.87454C16.7263 7.72418 17.8516 8.06052 18.6746 8.88341C20.0657 10.2748 20.0656 12.5301 18.6746 13.9215L13.7172 18.8789C13.6051 18.9911 13.6058 19.1734 13.7179 19.2856L14.695 20.2627C14.9683 20.5361 14.9684 20.9796 14.695 21.2529C14.4217 21.5262 13.9782 21.5262 13.7048 21.2529L12.7277 20.2758C12.0688 19.6169 12.0688 18.5483 12.7277 17.8893L17.685 12.932C18.5294 12.0873 18.5288 10.7183 17.6843 9.87363C16.9022 9.09153 15.6715 9.03473 14.8228 9.701C14.7741 9.75721 14.7243 9.8136 14.6715 9.86742L10.9302 13.6875C10.6598 13.9632 10.2161 13.9673 9.94001 13.6971C9.6699 13.4322 9.661 13.0025 9.91446 12.7255C9.94659 12.6179 10.0028 12.5157 10.0878 12.4307L13.6357 8.88272C13.6996 8.81885 13.7659 8.75842 13.8332 8.70041C14.5006 7.84513 14.4407 6.60954 13.6558 5.82434C12.8053 4.97385 11.4264 4.97377 10.576 5.82434L5.02272 11.379C4.74943 11.6519 4.30579 11.652 4.03249 11.379C3.75923 11.1058 3.75947 10.6622 4.03249 10.3888L9.58577 4.83412Z" fill="#15C674"/>
<path d="M11.5945 6.87464C11.8678 6.60146 12.3107 6.60099 12.5841 6.87395C12.8574 7.1473 12.8574 7.59081 12.5841 7.86418L8.72674 11.7215C7.88276 12.5662 7.88315 13.9354 8.72743 14.7799C9.57193 15.6244 10.941 15.6246 11.7858 14.7806L15.6431 10.9232C15.9165 10.6499 16.36 10.6499 16.6334 10.9232C16.9067 11.1966 16.9067 11.6401 16.6334 11.9135L12.776 15.7708C11.3845 17.1616 9.12844 17.1613 7.73721 15.7701C6.34619 14.3789 6.34649 12.1234 7.73721 10.732L11.5945 6.87464Z" fill="#15C674"/>
</svg>
