<svg width="24" height="24" viewBox="0 0 24 24" fill="none" xmlns="http://www.w3.org/2000/svg">
<path d="M13.552 13.3239C13.7726 13.0067 14.2083 12.9287 14.5256 13.1491L17.7981 15.4215C17.9534 15.5294 18.0582 15.6959 18.0891 15.8825C18.0901 15.8882 18.0893 15.8942 18.0901 15.9L18.0989 16.0416C18.0914 16.2191 18.0146 16.382 17.8938 16.5035L15.1907 20.1715C14.9612 20.4826 14.5233 20.5484 14.2122 20.319C13.901 20.0896 13.8343 19.6516 14.0637 19.3405L15.8049 16.9772L5.77173 18.5973C5.39029 18.6587 5.03169 18.3996 4.96997 18.0182C4.90836 17.6365 5.16742 17.2771 5.54908 17.2155L15.5911 15.5934L13.7278 14.2985C13.4103 14.0779 13.3314 13.6414 13.552 13.3239ZM14.2131 4.96839C14.5243 4.73919 14.9623 4.80574 15.1917 5.11683L17.9006 8.79066C18.0191 8.91334 18.0924 9.07654 18.0979 9.25355C18.1097 9.47679 18.0151 9.70159 17.8245 9.8473L14.5793 12.3278C14.2723 12.5622 13.8337 12.5037 13.5989 12.1969C13.3641 11.8898 13.4226 11.4502 13.7297 11.2155L15.6975 9.71058L5.54908 8.07191C5.16742 8.01029 4.90738 7.65083 4.969 7.26917C5.03064 6.88762 5.39017 6.62858 5.77173 6.69007L15.8059 8.30921L14.0647 5.94691C13.8355 5.63576 13.9021 5.19774 14.2131 4.96839Z" fill="#15C674"/>
</svg>
