<svg width="24" height="24" viewBox="0 0 24 24" fill="none" xmlns="http://www.w3.org/2000/svg">
<path d="M9.9248 9.00391C10.3666 9.00391 10.7246 9.36188 10.7246 9.80371V10.4326C10.7245 10.8744 10.3666 11.2324 9.9248 11.2324C9.48304 11.2324 9.1251 10.8744 9.125 10.4326V9.80371C9.125 9.36188 9.48298 9.00391 9.9248 9.00391Z" fill="#15C674"/>
<path d="M14.0947 9.00391C14.5366 9.00391 14.8945 9.36188 14.8945 9.80371V10.4326C14.8944 10.8744 14.5365 11.2324 14.0947 11.2324C13.653 11.2324 13.295 10.8744 13.2949 10.4326V9.80371C13.2949 9.36188 13.6529 9.00391 14.0947 9.00391Z" fill="#15C674"/>
<path fill-rule="evenodd" clip-rule="evenodd" d="M15.7354 4.61035C17.8491 4.71724 19.5303 6.4652 19.5303 8.60547V13.8994L19.5234 14.123C19.4609 15.2404 18.9325 16.2848 18.0605 16.9971L16.2236 18.4971L15.9482 18.7031C15.3807 19.0903 14.7226 19.3247 14.0381 19.3838L13.6943 19.3984H8.7334L8.52734 19.3936C6.41396 19.2863 4.7334 17.5385 4.7334 15.3984V8.60547C4.7334 6.46543 6.41396 4.71758 8.52734 4.61035L8.7334 4.60547H15.5303L15.7354 4.61035ZM8.7334 6.00586C7.29746 6.00586 6.13379 7.16953 6.13379 8.60547V15.3984C6.13379 16.8344 7.29746 17.998 8.7334 17.998H13.2021V16.6846C13.2021 16.363 13.2611 16.0556 13.3643 15.7695C12.9674 15.8811 12.5135 15.956 12.0098 15.9561C11.002 15.956 10.1944 15.6582 9.64062 15.3604C9.36373 15.2114 9.14717 15.0612 8.99707 14.9453C8.92191 14.8873 8.86264 14.8371 8.82031 14.7998C8.79933 14.7813 8.78228 14.7658 8.76953 14.7539L8.74512 14.7295C8.74495 14.7292 8.74847 14.7242 9.23535 14.2305L8.74414 14.7285C8.4691 14.4572 8.46625 14.0145 8.7373 13.7393C9.00858 13.4642 9.45029 13.4615 9.72559 13.7324L9.72656 13.7314L9.72559 13.7305C9.72888 13.7335 9.73579 13.7399 9.74609 13.749C9.76739 13.7678 9.8032 13.7988 9.85254 13.8369C9.9516 13.9134 10.1041 14.0196 10.3037 14.127C10.7035 14.342 11.2841 14.5566 12.0098 14.5566C12.7354 14.5566 13.316 14.3419 13.7158 14.127C13.9153 14.0197 14.0679 13.9134 14.167 13.8369C14.2161 13.799 14.2521 13.7678 14.2734 13.749C14.2834 13.7402 14.2905 13.7336 14.2939 13.7305L14.293 13.7314C14.5683 13.4605 15.0109 13.4642 15.2822 13.7393C15.3639 13.822 15.4182 13.9206 15.4502 14.0244C15.5973 13.9996 15.7481 13.9844 15.9023 13.9844H18.1279C18.1289 13.9561 18.1299 13.9278 18.1299 13.8994V8.60547C18.1299 7.16963 16.9661 6.00602 15.5303 6.00586H8.7334ZM15.9023 15.3848C15.1844 15.3848 14.6025 15.9666 14.6025 16.6846V17.833C14.8674 17.7343 15.1167 17.5935 15.3389 17.4121L17.1748 15.9131C17.3636 15.7589 17.5277 15.5807 17.6641 15.3848H15.9023Z" fill="#15C674"/>
</svg>
