<svg width="24" height="24" viewBox="0 0 24 24" fill="none" xmlns="http://www.w3.org/2000/svg">
<path fill-rule="evenodd" clip-rule="evenodd" d="M15.9414 12.6875H16.9053V13.7666H15.9414V15.3066H14.6318V13.7666H11.7285V12.9131L14.9766 8.79395H15.9414V12.6875ZM13.2246 12.7168C13.3427 12.707 13.8156 12.6875 14.042 12.6875H14.6318V10.8623L13.2246 12.7168Z" fill="#15C674"/>
<path d="M9.73145 8.77344C11.178 8.77352 11.8769 9.49963 11.877 10.5195C11.877 11.5299 11.0883 12.1285 10.3291 12.7051C9.74717 13.1471 9.1824 13.5765 9.00293 14.168H11.9658V15.3057H7.25098C7.41187 13.377 8.55672 12.5473 9.43555 11.9102C10.0089 11.4945 10.4696 11.1605 10.4697 10.6572C10.4697 10.0981 10.0068 9.90137 9.51465 9.90137C8.85527 9.90137 8.31345 10.1171 7.81152 10.3428L7.46777 9.31348C8.02879 9.05845 8.80642 8.77344 9.73145 8.77344Z" fill="#15C674"/>
<path fill-rule="evenodd" clip-rule="evenodd" d="M11.9648 3.86914C16.4458 3.86934 20.082 7.50631 20.082 11.9873C20.0818 16.4681 16.4457 20.1043 11.9648 20.1045C10.581 20.1045 9.27838 19.7574 8.1416 19.1465C8.1348 19.1464 8.12639 19.1461 8.11621 19.1465C8.04457 19.149 7.93534 19.1646 7.78418 19.2002C7.48031 19.2717 7.11197 19.3968 6.70996 19.5371C6.32896 19.6701 5.90535 19.8208 5.55371 19.9082C5.37909 19.9516 5.18156 19.9907 4.99219 19.9941C4.83441 19.997 4.4995 19.9807 4.24023 19.7217C4.08322 19.5647 4.02873 19.3815 4.00781 19.2715C3.9858 19.1556 3.98603 19.0459 3.99121 18.9609C4.0016 18.7907 4.03954 18.6055 4.08105 18.4355C4.16506 18.0918 4.30291 17.6642 4.42676 17.2705C4.5561 16.8594 4.67419 16.474 4.74219 16.1602C4.77619 16.0032 4.7917 15.8878 4.79492 15.8115C4.79524 15.8038 4.79486 15.797 4.79492 15.791C4.19055 14.6592 3.84672 13.364 3.84668 11.9971C3.84668 7.50667 7.48312 3.86914 11.9648 3.86914ZM11.9648 5.26953C8.25753 5.26953 5.24707 8.27866 5.24707 11.9971C5.24711 13.1524 5.54205 14.2437 6.06055 15.1914L6.0625 15.1943C6.19457 15.4382 6.20141 15.7034 6.19434 15.8711C6.18631 16.0612 6.15217 16.264 6.11035 16.457C6.02661 16.8435 5.88921 17.2892 5.7627 17.6914C5.674 17.9733 5.59336 18.2331 5.52734 18.46C5.73915 18.3933 5.9811 18.309 6.24805 18.2158C6.63586 18.0805 7.07486 17.9283 7.46289 17.8369C7.65749 17.7911 7.86595 17.7541 8.06641 17.7471C8.25354 17.7405 8.5156 17.7566 8.75977 17.8906L9.12207 18.0742C9.98153 18.478 10.9448 18.7041 11.9648 18.7041C15.6725 18.7039 18.6814 15.6949 18.6816 11.9873C18.6816 8.27951 15.6726 5.26973 11.9648 5.26953Z" fill="#15C674"/>
</svg>
