<svg width="156" height="155" viewBox="0 0 156 155" fill="none" xmlns="http://www.w3.org/2000/svg">
	<path opacity="0.15" fill-rule="evenodd" clip-rule="evenodd" d="M59.0888 131.607H-105.184C-106.567 131.607 -107.938 131.551 -109.295 131.443C-145.826 130.543 -175.182 98.2087 -175.184 58.455C-175.173 39.0789 -168.052 20.5009 -155.386 6.80807C-148.894 -0.210709 -141.218 -5.65125 -132.866 -9.28581C-133.006 -11.2575 -133.077 -13.2499 -133.077 -15.2603C-133.065 -35.7049 -125.551 -55.3072 -112.187 -69.7549C-98.8226 -84.2026 -80.7034 -92.3123 -61.8151 -92.2998C-37.6198 -92.2679 -10.9904 -79.1717 1.84755 -59.1828C7.94403 -61.5208 14.5067 -62.7915 21.3437 -62.7876C51.5463 -62.7483 76.3527 -37.8279 79.2284 -5.95882C108.168 0.870056 124.556 28.7757 124.531 62.1404C124.501 100.59 98.3222 131.738 62.7995 131.722C61.554 131.722 60.3168 131.683 59.0888 131.607Z" fill="#8CEF73"/>
	<g filter="url(#filter0_d_1104_25804)">
		<path d="M22.4136 66.7492C22.4136 63.2234 25.2718 60.3652 28.7975 60.3652H121.261C124.787 60.3652 127.645 63.2234 127.645 66.7492V109.843C127.645 113.37 124.786 116.229 121.26 116.229H28.7991C25.2725 116.229 22.4136 113.37 22.4136 109.843V66.7492Z" fill="white"/>
		<path fill-rule="evenodd" clip-rule="evenodd" d="M38.0253 97.3678L42.018 99.6645C42.8252 100.129 43.3114 100.979 43.3114 101.887V106.48C43.3114 107.388 42.8252 108.238 42.018 108.702L38.0253 110.999C37.2159 111.464 36.216 111.464 35.4067 110.999L31.4139 108.702C30.6068 108.238 30.1206 107.388 30.1206 106.48V101.887C30.1206 100.979 30.6068 100.129 31.4139 99.6645L35.4067 97.3678C36.216 96.9023 37.2159 96.9023 38.0253 97.3678ZM35.0024 96.6332C36.0628 96.0233 37.3692 96.0233 38.4295 96.6332L42.4223 98.9298C43.4826 99.5397 44.1358 100.667 44.1358 101.887V106.48C44.1358 107.7 43.4826 108.827 42.4223 109.437L38.4295 111.733C37.3692 112.343 36.0628 112.343 35.0024 111.733L31.0097 109.437C29.9493 108.827 29.2961 107.7 29.2961 106.48V101.887C29.2961 100.667 29.9493 99.5397 31.0097 98.9298L35.0024 96.6332ZM37.6859 98.3308C37.131 98.0052 36.4473 98.0052 35.8924 98.3308L32.2496 100.468C31.6946 100.794 31.3528 101.395 31.3528 102.047V106.321C31.3528 106.973 31.6946 107.574 32.2496 107.9L35.8924 110.037C36.4473 110.363 37.131 110.363 37.6859 110.037L41.3287 107.9C41.8836 107.574 42.2254 106.973 42.2254 106.321V102.047C42.2254 101.395 41.8836 100.794 41.3287 100.468L37.6859 98.3308Z" fill="#8CEF73"/>
		<g opacity="0.6" filter="url(#filter1_d_1104_25804)">
			<path d="M39.6 107.682C39.9448 107.566 40.1338 107.195 40.0639 106.829L39.9656 106.314C39.9162 105.992 39.5526 105.631 38.7395 105.419C38.464 105.341 38.2021 105.221 37.9632 105.062C37.9109 105.032 37.9188 104.754 37.9188 104.754L37.657 104.713C37.657 104.691 37.6346 104.357 37.6346 104.357C37.9479 104.251 37.9157 103.623 37.9157 103.623C38.1147 103.735 38.2443 103.239 38.2443 103.239C38.4796 102.549 38.1271 102.591 38.1271 102.591C38.1887 102.17 38.1887 101.742 38.1271 101.322C37.9703 99.9254 35.6102 100.304 35.8901 100.76C35.2003 100.632 35.3577 102.216 35.3577 102.216L35.5073 102.627C35.3 102.763 35.3407 102.918 35.3862 103.092C35.4051 103.165 35.4249 103.241 35.4279 103.32C35.4424 103.715 35.682 103.633 35.682 103.633C35.6968 104.285 36.0155 104.37 36.0155 104.37C36.0754 104.78 36.0381 104.711 36.0381 104.711L35.7544 104.745C35.7583 104.838 35.7508 104.932 35.7321 105.023C35.5672 105.097 35.4664 105.156 35.3665 105.215C35.2642 105.274 35.163 105.334 34.9953 105.408C34.3549 105.691 33.7127 105.85 33.589 106.346C33.5605 106.46 33.5194 106.656 33.4799 106.863C33.4131 107.214 33.6013 107.561 33.9311 107.674C34.7353 107.949 35.6284 108.111 36.571 108.132H36.9853C37.9181 108.111 38.8024 107.952 39.6 107.682Z" fill="white"/>
		</g>
		<path fill-rule="evenodd" clip-rule="evenodd" d="M56.7631 97.3678L60.7558 99.6645C61.563 100.129 62.0492 100.979 62.0492 101.887V106.48C62.0492 107.388 61.563 108.238 60.7558 108.702L56.7631 110.999C55.9537 111.464 54.9538 111.464 54.1445 110.999L50.1517 108.702C49.3446 108.238 48.8584 107.388 48.8584 106.48V101.887C48.8584 100.979 49.3446 100.129 50.1517 99.6645L54.1445 97.3678C54.9538 96.9023 55.9537 96.9023 56.7631 97.3678ZM53.7402 96.6332C54.8006 96.0233 56.107 96.0233 57.1673 96.6332L61.1601 98.9298C62.2204 99.5397 62.8736 100.667 62.8736 101.887V106.48C62.8736 107.7 62.2204 108.827 61.1601 109.437L57.1673 111.733C56.107 112.343 54.8006 112.343 53.7402 111.733L49.7475 109.437C48.6871 108.827 48.0339 107.7 48.0339 106.48V101.887C48.0339 100.667 48.6871 99.5397 49.7475 98.9298L53.7402 96.6332ZM56.4235 98.3309C55.8686 98.0053 55.1849 98.0053 54.63 98.3309L50.9872 100.468C50.4323 100.794 50.0905 101.396 50.0905 102.047V106.322C50.0905 106.973 50.4323 107.574 50.9872 107.9L54.63 110.037C55.1849 110.363 55.8686 110.363 56.4235 110.037L60.0663 107.9C60.6213 107.574 60.9631 106.973 60.9631 106.322V102.047C60.9631 101.396 60.6213 100.794 60.0663 100.468L56.4235 98.3309Z" fill="#19CC45"/>
		<g opacity="0.6" filter="url(#filter2_d_1104_25804)">
			<path d="M58.3373 107.682C58.6821 107.566 58.8711 107.195 58.8012 106.829L58.7029 106.314C58.6535 105.992 58.2899 105.631 57.4768 105.419C57.2013 105.341 56.9394 105.221 56.7005 105.062C56.6482 105.032 56.6562 104.754 56.6562 104.754L56.3943 104.713C56.3943 104.691 56.3719 104.357 56.3719 104.357C56.6852 104.251 56.653 103.623 56.653 103.623C56.852 103.735 56.9816 103.239 56.9816 103.239C57.2169 102.549 56.8644 102.591 56.8644 102.591C56.926 102.17 56.926 101.742 56.8644 101.322C56.7076 99.9254 54.3475 100.304 54.6274 100.76C53.9376 100.632 54.095 102.216 54.095 102.216L54.2446 102.627C54.0373 102.763 54.078 102.918 54.1235 103.092C54.1424 103.165 54.1622 103.241 54.1652 103.32C54.1797 103.715 54.4193 103.633 54.4193 103.633C54.4341 104.285 54.7529 104.37 54.7529 104.37C54.8127 104.78 54.7754 104.711 54.7754 104.711L54.4918 104.745C54.4956 104.838 54.4881 104.932 54.4694 105.023C54.3046 105.097 54.2037 105.156 54.1038 105.215C54.0015 105.274 53.9003 105.334 53.7326 105.408C53.0922 105.691 52.45 105.85 52.3263 106.346C52.2978 106.46 52.2567 106.656 52.2173 106.863C52.1504 107.214 52.3386 107.561 52.6684 107.674C53.4726 107.949 54.3657 108.111 55.3083 108.132H55.7226C56.6554 108.111 57.5397 107.952 58.3373 107.682Z" fill="white"/>
		</g>
		<path fill-rule="evenodd" clip-rule="evenodd" d="M75.4987 97.3678L79.4914 99.6645C80.2986 100.129 80.7848 100.979 80.7848 101.887V106.48C80.7848 107.388 80.2986 108.238 79.4914 108.702L75.4987 110.999C74.6893 111.464 73.6894 111.464 72.8801 110.999L68.8873 108.702C68.0802 108.238 67.594 107.388 67.594 106.48V101.887C67.594 100.979 68.0802 100.129 68.8873 99.6645L72.8801 97.3678C73.6894 96.9023 74.6893 96.9023 75.4987 97.3678ZM72.4758 96.6332C73.5362 96.0233 74.8426 96.0233 75.9029 96.6332L79.8957 98.9298C80.956 99.5397 81.6092 100.667 81.6092 101.887V106.48C81.6092 107.7 80.956 108.827 79.8957 109.437L75.9029 111.733C74.8426 112.343 73.5362 112.343 72.4758 111.733L68.4831 109.437C67.4227 108.827 66.7695 107.7 66.7695 106.48V101.887C66.7695 100.667 67.4227 99.5397 68.4831 98.9298L72.4758 96.6332ZM75.1592 98.3307C74.6043 98.0051 73.9206 98.0051 73.3657 98.3307L69.7229 100.468C69.168 100.794 68.8261 101.395 68.8261 102.047V106.321C68.8261 106.973 69.168 107.574 69.7229 107.9L73.3657 110.037C73.9206 110.363 74.6043 110.363 75.1592 110.037L78.802 107.9C79.3569 107.574 79.6988 106.973 79.6988 106.321V102.047C79.6988 101.395 79.3569 100.794 78.802 100.468L75.1592 98.3307Z" fill="#00A94E"/>
		<g opacity="0.6" filter="url(#filter3_d_1104_25804)">
			<path d="M77.0729 107.682C77.4177 107.566 77.6067 107.195 77.5368 106.829L77.4385 106.314C77.3891 105.992 77.0255 105.631 76.2124 105.419C75.9369 105.341 75.675 105.221 75.4361 105.062C75.3838 105.032 75.3917 104.754 75.3917 104.754L75.1299 104.713C75.1299 104.691 75.1075 104.357 75.1075 104.357C75.4208 104.251 75.3886 103.623 75.3886 103.623C75.5876 103.735 75.7172 103.239 75.7172 103.239C75.9525 102.549 75.6 102.591 75.6 102.591C75.6616 102.17 75.6616 101.742 75.6 101.322C75.4432 99.9254 73.0831 100.304 73.363 100.76C72.6732 100.632 72.8306 102.216 72.8306 102.216L72.9802 102.627C72.7729 102.763 72.8136 102.918 72.8591 103.092C72.878 103.165 72.8978 103.241 72.9008 103.32C72.9153 103.715 73.1549 103.633 73.1549 103.633C73.1697 104.285 73.4884 104.37 73.4884 104.37C73.5483 104.78 73.511 104.711 73.511 104.711L73.2273 104.745C73.2312 104.838 73.2237 104.932 73.205 105.023C73.0401 105.097 72.9393 105.156 72.8394 105.215C72.7371 105.274 72.6359 105.334 72.4682 105.408C71.8278 105.691 71.1856 105.85 71.0619 106.346C71.0334 106.46 70.9923 106.656 70.9528 106.863C70.886 107.214 71.0742 107.561 71.404 107.674C72.2082 107.949 73.1013 108.111 74.0439 108.132H74.4582C75.391 108.111 76.2753 107.952 77.0729 107.682Z" fill="white"/>
		</g>
		<rect x="97.1558" y="101.938" width="23.3848" height="3.89747" rx="1.94873" fill="#00A94E"/>
		<rect x="22.4133" y="90.2471" width="105.232" height="1.29916" fill="black" fill-opacity="0.05"/>
		<rect opacity="0.5" x="30.2085" y="68.1602" width="24.684" height="3.53799" rx="1.769" fill="#A8ADB4"/>
		<rect opacity="0.4" x="30.2085" y="75.2373" width="46.7696" height="3.53799" rx="1.769" fill="#C9CCD0"/>
	</g>
	<g filter="url(#filter4_d_1104_25804)">
		<path d="M22.4155 34.2721C22.4155 31.2493 24.866 28.7988 27.8888 28.7988H120.351C124.38 28.7988 127.647 32.0653 127.647 36.0948V50.0842C127.647 54.1137 124.38 57.3802 120.351 57.3802H27.8888C24.866 57.3802 22.4155 54.9297 22.4155 51.9069V34.2721Z" fill="white"/>
		<path fill-rule="evenodd" clip-rule="evenodd" d="M121.18 48.72C120.755 49.3279 118.576 52.2462 115.953 52.2462C113.329 52.2462 111.15 49.3279 110.725 48.72C110.678 48.6525 110.678 48.5674 110.725 48.4998C111.15 47.892 113.329 44.9736 115.953 44.9736C118.576 44.9736 120.755 47.892 121.18 48.4998C121.227 48.5674 121.227 48.6525 121.18 48.72ZM117.808 48.61C117.808 49.6344 116.977 50.4648 115.953 50.4648C114.928 50.4648 114.098 49.6344 114.098 48.61C114.098 47.5855 114.928 46.7551 115.953 46.7551C116.977 46.7551 117.808 47.5855 117.808 48.61Z" fill="#00A94E"/>
		<rect opacity="0.5" x="30.2102" y="33.1191" width="24.6839" height="3.53799" rx="1.76899" fill="#A8ADB4"/>
		<rect opacity="0.4" x="30.2102" y="41.375" width="63.6585" height="3.53799" rx="1.76899" fill="#C9CCD0"/>
	</g>
	<defs>
		<filter id="filter0_d_1104_25804" x="12.0047" y="53.4261" width="126.049" height="76.6806" filterUnits="userSpaceOnUse" color-interpolation-filters="sRGB">
			<feFlood flood-opacity="0" result="BackgroundImageFix"/>
			<feColorMatrix in="SourceAlpha" type="matrix" values="0 0 0 0 0 0 0 0 0 0 0 0 0 0 0 0 0 0 127 0" result="hardAlpha"/>
			<feOffset dy="3.46955"/>
			<feGaussianBlur stdDeviation="5.20433"/>
			<feComposite in2="hardAlpha" operator="out"/>
			<feColorMatrix type="matrix" values="0 0 0 0 0.423529 0 0 0 0 0.423529 0 0 0 0 0.423529 0 0 0 0.12 0"/>
			<feBlend mode="normal" in2="BackgroundImageFix" result="effect1_dropShadow_1104_25804"/>
			<feBlend mode="normal" in="SourceGraphic" in2="effect1_dropShadow_1104_25804" result="shape"/>
		</filter>
		<filter id="filter1_d_1104_25804" x="32.4528" y="100.345" width="8.05171" height="9.24169" filterUnits="userSpaceOnUse" color-interpolation-filters="sRGB">
			<feFlood flood-opacity="0" result="BackgroundImageFix"/>
			<feColorMatrix in="SourceAlpha" type="matrix" values="0 0 0 0 0 0 0 0 0 0 0 0 0 0 0 0 0 0 127 0" result="hardAlpha"/>
			<feOffset dx="-0.293855" dy="0.734637"/>
			<feGaussianBlur stdDeviation="0.359972"/>
			<feComposite in2="hardAlpha" operator="out"/>
			<feColorMatrix type="matrix" values="0 0 0 0 0 0 0 0 0 0 0 0 0 0 0 0 0 0 0.06 0"/>
			<feBlend mode="normal" in2="BackgroundImageFix" result="effect1_dropShadow_1104_25804"/>
			<feBlend mode="normal" in="SourceGraphic" in2="effect1_dropShadow_1104_25804" result="shape"/>
		</filter>
		<filter id="filter2_d_1104_25804" x="51.1901" y="100.345" width="8.05171" height="9.24169" filterUnits="userSpaceOnUse" color-interpolation-filters="sRGB">
			<feFlood flood-opacity="0" result="BackgroundImageFix"/>
			<feColorMatrix in="SourceAlpha" type="matrix" values="0 0 0 0 0 0 0 0 0 0 0 0 0 0 0 0 0 0 127 0" result="hardAlpha"/>
			<feOffset dx="-0.293855" dy="0.734637"/>
			<feGaussianBlur stdDeviation="0.359972"/>
			<feComposite in2="hardAlpha" operator="out"/>
			<feColorMatrix type="matrix" values="0 0 0 0 0 0 0 0 0 0 0 0 0 0 0 0 0 0 0.06 0"/>
			<feBlend mode="normal" in2="BackgroundImageFix" result="effect1_dropShadow_1104_25804"/>
			<feBlend mode="normal" in="SourceGraphic" in2="effect1_dropShadow_1104_25804" result="shape"/>
		</filter>
		<filter id="filter3_d_1104_25804" x="69.9257" y="100.345" width="8.05171" height="9.24169" filterUnits="userSpaceOnUse" color-interpolation-filters="sRGB">
			<feFlood flood-opacity="0" result="BackgroundImageFix"/>
			<feColorMatrix in="SourceAlpha" type="matrix" values="0 0 0 0 0 0 0 0 0 0 0 0 0 0 0 0 0 0 127 0" result="hardAlpha"/>
			<feOffset dx="-0.293855" dy="0.734637"/>
			<feGaussianBlur stdDeviation="0.359972"/>
			<feComposite in2="hardAlpha" operator="out"/>
			<feColorMatrix type="matrix" values="0 0 0 0 0 0 0 0 0 0 0 0 0 0 0 0 0 0 0.06 0"/>
			<feBlend mode="normal" in2="BackgroundImageFix" result="effect1_dropShadow_1104_25804"/>
			<feBlend mode="normal" in="SourceGraphic" in2="effect1_dropShadow_1104_25804" result="shape"/>
		</filter>
		<filter id="filter4_d_1104_25804" x="16.5303" y="25.1206" width="117.002" height="40.3515" filterUnits="userSpaceOnUse" color-interpolation-filters="sRGB">
			<feFlood flood-opacity="0" result="BackgroundImageFix"/>
			<feColorMatrix in="SourceAlpha" type="matrix" values="0 0 0 0 0 0 0 0 0 0 0 0 0 0 0 0 0 0 127 0" result="hardAlpha"/>
			<feOffset dy="2.20696"/>
			<feGaussianBlur stdDeviation="2.94262"/>
			<feComposite in2="hardAlpha" operator="out"/>
			<feColorMatrix type="matrix" values="0 0 0 0 0.423529 0 0 0 0 0.423529 0 0 0 0 0.423529 0 0 0 0.1 0"/>
			<feBlend mode="normal" in2="BackgroundImageFix" result="effect1_dropShadow_1104_25804"/>
			<feBlend mode="normal" in="SourceGraphic" in2="effect1_dropShadow_1104_25804" result="shape"/>
		</filter>
	</defs>
</svg>
