<svg width="24" height="25" viewBox="0 0 24 25" fill="none" xmlns="http://www.w3.org/2000/svg">
	<path d="M14.2549 6.51465C15.3595 6.51465 16.2549 7.41008 16.2549 8.51465V9.70508L18.3369 8.24219C19.5959 7.35761 21.3291 8.25821 21.3291 9.79688V15.1982C21.3291 16.7392 19.5915 17.6392 18.333 16.75L16.2549 15.2812V16.4854C16.2548 17.5899 15.3594 18.4854 14.2549 18.4854H5.9541C4.84957 18.4854 3.95416 17.5899 3.9541 16.4854V8.51465C3.9541 7.41008 4.84953 6.51465 5.9541 6.51465H14.2549ZM5.9541 7.91504C5.62273 7.91504 5.35449 8.18328 5.35449 8.51465V16.4854C5.35455 16.8167 5.62276 17.085 5.9541 17.085H14.2549C14.5862 17.085 14.8554 16.8167 14.8555 16.4854V8.51465C14.8555 8.18328 14.5863 7.91504 14.2549 7.91504H5.9541ZM19.9297 9.79688C19.9297 9.39196 19.4729 9.15491 19.1416 9.3877L16.2627 11.4111V13.5723L19.1406 15.6064C19.4718 15.8405 19.9297 15.6038 19.9297 15.1982V9.79688Z" fill="#0075FF"/>
</svg>
