<svg width="24" height="25" viewBox="0 0 24 25" fill="none" xmlns="http://www.w3.org/2000/svg">
	<path d="M16.7803 5.42383C18.0681 5.4239 19.1123 6.46803 19.1123 7.75586C19.1122 9.04363 18.068 10.0878 16.7803 10.0879C15.7362 10.0879 14.8519 9.40104 14.5547 8.45508L14.54 8.45605H7.84082C7.48133 8.45605 7.12055 8.61292 6.84277 8.91992C6.56297 9.2292 6.3956 9.66238 6.39551 10.127C6.39551 10.5917 6.56289 11.0256 6.84277 11.335C7.12054 11.6419 7.48137 11.7988 7.84082 11.7988H16.251C17.0294 11.7989 17.7601 12.1413 18.2871 12.7236C18.812 13.3038 19.0967 14.0778 19.0967 14.8711C19.0966 15.6643 18.8119 16.4375 18.2871 17.0176C17.7601 17.6 17.0295 17.9423 16.251 17.9424H9.44531C9.14804 18.8886 8.26401 19.5752 7.21973 19.5752C5.93175 19.575 4.8877 18.5302 4.8877 17.2422C4.8879 15.9543 5.93187 14.9104 7.21973 14.9102C8.26377 14.9102 9.14783 15.5962 9.44531 16.542H16.251C16.6105 16.542 16.9713 16.3851 17.249 16.0781C17.5288 15.7688 17.6962 15.3357 17.6963 14.8711C17.6963 14.4064 17.5289 13.9724 17.249 13.6631C16.9713 13.3562 16.6104 13.1993 16.251 13.1992H7.84082C7.06233 13.1992 6.33167 12.8567 5.80469 12.2744C5.27978 11.6942 4.99512 10.9202 4.99512 10.127C4.99521 9.3338 5.27987 8.56056 5.80469 7.98047C6.33168 7.39809 7.06228 7.05566 7.84082 7.05566H14.5547C14.8519 6.10977 15.7363 5.42383 16.7803 5.42383ZM7.21973 16.3105C6.70507 16.3107 6.28829 16.7275 6.28809 17.2422C6.28809 17.757 6.70495 18.1746 7.21973 18.1748C7.73468 18.1748 8.15234 17.7571 8.15234 17.2422C8.15214 16.7274 7.73455 16.3105 7.21973 16.3105ZM16.7803 6.82422C16.2656 6.82422 15.8486 7.24118 15.8486 7.75586C15.8487 8.27048 16.2656 8.6875 16.7803 8.6875C17.2948 8.68743 17.7118 8.27043 17.7119 7.75586C17.7119 7.24123 17.2949 6.82429 16.7803 6.82422Z" fill="#0075FF"/>
</svg>
