<svg width="24" height="25" viewBox="0 0 24 25" fill="none" xmlns="http://www.w3.org/2000/svg">
	<path d="M16.5 5C18.1569 5 19.5 6.34315 19.5 8V17C19.5 18.6569 18.1569 20 16.5 20H7.5C5.84315 20 4.5 18.6569 4.5 17V8C4.5 6.34315 5.84315 5 7.5 5H16.5ZM7.5 6.40039C6.61634 6.40039 5.90039 7.11634 5.90039 8V17C5.90039 17.8837 6.61634 18.5996 7.5 18.5996H16.5C17.3837 18.5996 18.0996 17.8837 18.0996 17V8C18.0996 7.11634 17.3837 6.40039 16.5 6.40039H7.5ZM11.25 8.2998C11.8728 8.2998 12.3838 8.53415 12.7549 8.7041C12.767 8.70967 12.7792 8.71528 12.791 8.7207C13.1985 8.90697 13.4558 9.01465 13.75 9.01465C14.1654 9.01465 14.3812 8.92773 14.4629 8.88574C14.762 8.73206 15.0621 8.80084 15.2402 8.8916C15.4144 8.98041 15.7001 9.21433 15.7002 9.62305V13.6426C15.7002 13.8121 15.638 13.9759 15.5264 14.1035L15 13.6426C15.5268 14.1035 15.5254 14.1055 15.5254 14.1055L15.5244 14.1074L15.5146 14.1172L15.501 14.1318C15.4907 14.1426 15.4785 14.1551 15.4648 14.168C15.4373 14.1939 15.4022 14.2239 15.3604 14.2559C15.2764 14.3198 15.1636 14.3913 15.0176 14.458C14.7228 14.5927 14.3099 14.7002 13.75 14.7002C13.1272 14.7002 12.6162 14.4659 12.2451 14.2959C12.233 14.2903 12.2208 14.2847 12.209 14.2793C11.8015 14.093 11.5442 13.9854 11.25 13.9854C10.8651 13.9854 10.4934 14.0599 10.2109 14.1387C10.2073 14.1397 10.2038 14.1406 10.2002 14.1416V16C10.2002 16.3866 9.8866 16.7002 9.5 16.7002C9.1134 16.7002 8.7998 16.3866 8.7998 16V9C8.7998 8.6134 9.1134 8.2998 9.5 8.2998C9.75853 8.2998 9.98131 8.44191 10.1025 8.65039L10.1299 8.43066C10.4486 8.35916 10.8355 8.2998 11.25 8.2998ZM11.25 9.7002C10.8651 9.7002 10.4934 9.77381 10.2109 9.85254C10.2073 9.85354 10.2038 9.85447 10.2002 9.85547V12.7021C10.5048 12.6377 10.8654 12.5859 11.25 12.5859C11.8727 12.5859 12.3838 12.8193 12.7549 12.9893C12.767 12.9948 12.7792 13.0005 12.791 13.0059C13.1985 13.1921 13.4558 13.2998 13.75 13.2998C14.0022 13.2998 14.1806 13.2686 14.2998 13.2344V10.376C14.1348 10.4001 13.9521 10.4141 13.75 10.4141C13.1273 10.4141 12.6162 10.1807 12.2451 10.0107C12.233 10.0052 12.2208 9.99954 12.209 9.99414C11.8015 9.80786 11.5442 9.7002 11.25 9.7002Z" fill="#0075FF"/>
</svg>
