<svg width="32" height="32" viewBox="0 0 32 32" fill="none" xmlns="http://www.w3.org/2000/svg">
<g clip-path="url(#clip0_19480_16372)">
<rect width="32" height="32" fill="#EEF2F4"/>
<path d="M17.3219 11.1749C17.0819 11.4149 17.0819 11.8041 17.3219 12.0441L20.6629 15.3851L9.8534 15.3851C9.51395 15.3851 9.23877 15.6603 9.23877 15.9998C9.23877 16.3392 9.51395 16.6144 9.8534 16.6144L20.6626 16.6144L17.3219 19.9551C17.0819 20.1951 17.0819 20.5843 17.3219 20.8243C17.5619 21.0643 17.9511 21.0643 18.1911 20.8243L22.581 16.4344C22.7011 16.3143 22.7611 16.1569 22.7611 15.9996C22.7611 15.8422 22.7011 15.6849 22.581 15.5648L18.1911 11.1749C17.9511 10.9349 17.5619 10.9349 17.3219 11.1749Z" fill="#1F86FF"/>
</g>
<defs>
<clipPath id="clip0_19480_16372">
<path d="M0 16C0 7.16344 7.16344 0 16 0C24.8366 0 32 7.16344 32 16C32 24.8366 24.8366 32 16 32C7.16344 32 0 24.8366 0 16Z" fill="white"/>
</clipPath>
</defs>
</svg>
