<svg width="24" height="25" viewBox="0 0 24 25" fill="none" xmlns="http://www.w3.org/2000/svg">
<g clip-path="url(#clip0_19460_14951)">
<rect width="24" height="24" transform="translate(0 0.145508)" fill="#0075FF"/>
<path d="M11.9997 6.85242C12.2919 6.85242 12.5288 7.0896 12.529 7.38171V11.6161H16.7634C17.0557 11.6161 17.2927 11.8531 17.2927 12.1454C17.2927 12.4377 17.0557 12.6747 16.7634 12.6747H12.529V16.9091C12.5289 17.2013 12.292 17.4384 11.9997 17.4384C11.7075 17.4383 11.4704 17.2013 11.4704 16.9091V12.6747H7.237C6.94469 12.6747 6.7077 12.4377 6.7077 12.1454C6.70771 11.8531 6.9447 11.6161 7.237 11.6161H11.4704V7.38171C11.4706 7.08966 11.7076 6.85251 11.9997 6.85242Z" fill="white"/>
</g>
<defs>
<clipPath id="clip0_19460_14951">
<path d="M0 12.1455C0 5.51809 5.37258 0.145508 12 0.145508C18.6274 0.145508 24 5.51809 24 12.1455C24 18.7729 18.6274 24.1455 12 24.1455C5.37258 24.1455 0 18.7729 0 12.1455Z" fill="white"/>
</clipPath>
</defs>
</svg>
