<svg width="1185" height="755" viewBox="0 0 1185 755" fill="none" xmlns="http://www.w3.org/2000/svg">
	<g opacity="0.7" clip-path="url(#clip0_4206_281748)">
		<path d="M0 6C0 2.68629 2.68629 0 6 0H1185V83H0V6Z" fill="white"/>
		<mask id="path-2-inside-1_4206_281748" fill="white">
			<path d="M0 0H260V83H0V0Z"/>
		</mask>
		<path d="M260 0H259V83H260H261V0H260Z" fill="#F5F7F8" mask="url(#path-2-inside-1_4206_281748)"/>
		<rect x="16" y="11" width="87" height="23" rx="4" fill="#F0F0F0"/>
		<path d="M13 61C13 54.3726 18.3726 49 25 49H91C97.6274 49 103 54.3726 103 61C103 67.6274 97.6274 73 91 73H25C18.3726 73 13 67.6274 13 61Z" fill="#F0F0F0"/>
		<rect x="196" y="49" width="24" height="24" rx="4" fill="#F0F0F0"/>
		<rect x="224" y="49" width="24" height="24" rx="4" fill="#F0F0F0"/>
		<mask id="path-8-inside-2_4206_281748" fill="white">
			<path d="M260 0H465V83H260V0Z"/>
		</mask>
		<path d="M260 0H465V83H260V0Z" fill="white"/>
		<path d="M465 0H464V83H465H466V0H465Z" fill="#F7F7F7" mask="url(#path-8-inside-2_4206_281748)"/>
		<rect x="291" y="15" width="141" height="23" rx="4" fill="#F0F0F0"/>
		<circle cx="325.5" cy="58" r="10" fill="#F0F0F0"/>
		<circle cx="343.5" cy="58" r="10" fill="#F0F0F0"/>
		<circle cx="361.5" cy="58" r="10" fill="#F0F0F0"/>
		<circle cx="379.5" cy="58" r="10" fill="#F0F0F0"/>
		<circle cx="397.5" cy="58" r="10" fill="#F0F0F0"/>
		<mask id="path-16-inside-3_4206_281748" fill="white">
			<path d="M465 0H670V83H465V0Z"/>
		</mask>
		<path d="M465 0H670V83H465V0Z" fill="white"/>
		<path d="M670 0H669V83H670H671V0H670Z" fill="#F7F7F7" mask="url(#path-16-inside-3_4206_281748)"/>
		<rect x="496" y="15" width="141" height="23" rx="4" fill="#F0F0F0"/>
		<circle cx="530.5" cy="58" r="10" fill="#F0F0F0"/>
		<circle cx="548.5" cy="58" r="10" fill="#F0F0F0"/>
		<circle cx="566.5" cy="58" r="10" fill="#F0F0F0"/>
		<circle cx="584.5" cy="58" r="10" fill="#F0F0F0"/>
		<circle cx="602.5" cy="58" r="10" fill="#F0F0F0"/>
		<mask id="path-24-inside-4_4206_281748" fill="white">
			<path d="M670 0H875V83H670V0Z"/>
		</mask>
		<path d="M670 0H875V83H670V0Z" fill="white"/>
		<path d="M875 0H874V83H875H876V0H875Z" fill="#F7F7F7" mask="url(#path-24-inside-4_4206_281748)"/>
		<rect x="701" y="15" width="141" height="23" rx="4" fill="#F0F0F0"/>
		<circle cx="735.5" cy="58" r="10" fill="#F0F0F0"/>
		<circle cx="753.5" cy="58" r="10" fill="#F0F0F0"/>
		<circle cx="771.5" cy="58" r="10" fill="#F0F0F0"/>
		<circle cx="789.5" cy="58" r="10" fill="#F0F0F0"/>
		<circle cx="807.5" cy="58" r="10" fill="#F0F0F0"/>
		<mask id="path-32-inside-5_4206_281748" fill="white">
			<path d="M875 0H1080V83H875V0Z"/>
		</mask>
		<path d="M875 0H1080V83H875V0Z" fill="white"/>
		<path d="M1080 0H1079V83H1080H1081V0H1080Z" fill="#F7F7F7" mask="url(#path-32-inside-5_4206_281748)"/>
		<rect x="906" y="15" width="141" height="23" rx="4" fill="#F0F0F0"/>
		<circle cx="940.5" cy="58" r="10" fill="#F0F0F0"/>
		<circle cx="958.5" cy="58" r="10" fill="#F0F0F0"/>
		<circle cx="976.5" cy="58" r="10" fill="#F0F0F0"/>
		<circle cx="994.5" cy="58" r="10" fill="#F0F0F0"/>
		<circle cx="1012.5" cy="58" r="10" fill="#F0F0F0"/>
		<rect x="1121.5" y="98.5" width="29" height="29" rx="14.5" stroke="#525C69" stroke-opacity="0.16"/>
		<path d="M1136.75 112.25H1140.5V113.75H1136.75V117.5H1135.25V113.75H1131.5V112.25H1135.25V108.5H1136.75V112.25Z" fill="#A8ADB4"/>
		<mask id="path-44-inside-6_4206_281748" fill="white">
			<path d="M0 83H1185V128H0V83Z"/>
		</mask>
		<path d="M0 83H1185V128H0V83Z" fill="#FBFBFB"/>
		<path d="M1185 128V127H0V128V129H1185V128Z" fill="#F7F7F7" mask="url(#path-44-inside-6_4206_281748)"/>
		<mask id="path-46-inside-7_4206_281748" fill="white">
			<path d="M0 83H205V128H0V83Z"/>
		</mask>
		<path d="M205 128V127H0V128V129H205V128Z" fill="#F7F7F7" mask="url(#path-46-inside-7_4206_281748)"/>
		<circle cx="28" cy="105.5" r="10" fill="#F0F0F0"/>
		<circle cx="59" cy="105.5" r="12" fill="#F0F0F0"/>
		<rect x="77" y="94" width="87" height="23" rx="4" fill="#F0F0F0"/>
		<mask id="path-51-inside-8_4206_281748" fill="white">
			<path d="M0 128H1185V146H0V128Z"/>
		</mask>
		<path d="M0 128H1185V146H0V128Z" fill="white"/>
		<path d="M1185 146V145H0V146V147H1185V146Z" fill="#F8FAFB" mask="url(#path-51-inside-8_4206_281748)"/>
		<path d="M359.666 135.232C360.642 135.232 361.433 136.023 361.433 136.999C361.433 137.975 360.642 138.766 359.666 138.766C358.691 138.766 357.9 137.975 357.9 136.999C357.9 136.024 358.691 135.232 359.666 135.232ZM363.999 135.232C364.975 135.232 365.766 136.024 365.766 136.999C365.766 137.975 364.975 138.766 363.999 138.766C363.024 138.765 362.233 137.975 362.233 136.999C362.233 136.024 363.024 135.233 363.999 135.232ZM368.333 135.232C369.309 135.233 370.1 136.024 370.1 136.999C370.1 137.975 369.309 138.765 368.333 138.766C367.358 138.766 366.567 137.975 366.567 136.999C366.567 136.024 367.358 135.232 368.333 135.232ZM359.666 136.166C359.206 136.166 358.833 136.539 358.833 136.999C358.833 137.459 359.206 137.833 359.666 137.833C360.126 137.833 360.499 137.459 360.499 136.999C360.499 136.539 360.126 136.166 359.666 136.166ZM363.999 136.166C363.539 136.166 363.166 136.539 363.166 136.999C363.166 137.459 363.539 137.833 363.999 137.833C364.46 137.833 364.833 137.459 364.833 136.999C364.833 136.539 364.459 136.166 363.999 136.166ZM368.333 136.166C367.873 136.166 367.499 136.539 367.499 136.999C367.499 137.459 367.873 137.833 368.333 137.833C368.793 137.833 369.166 137.459 369.166 136.999C369.166 136.539 368.793 136.166 368.333 136.166Z" fill="#C9CCD0"/>
		<rect x="356" y="129" width="16" height="16" rx="3" fill="white" fill-opacity="0.01"/>
		<path d="M554.666 135.232C555.642 135.232 556.433 136.023 556.433 136.999C556.433 137.975 555.642 138.766 554.666 138.766C553.691 138.766 552.9 137.975 552.9 136.999C552.9 136.024 553.691 135.232 554.666 135.232ZM558.999 135.232C559.975 135.232 560.766 136.024 560.766 136.999C560.766 137.975 559.975 138.766 558.999 138.766C558.024 138.765 557.233 137.975 557.233 136.999C557.233 136.024 558.024 135.233 558.999 135.232ZM563.333 135.232C564.309 135.233 565.1 136.024 565.1 136.999C565.1 137.975 564.309 138.765 563.333 138.766C562.358 138.766 561.567 137.975 561.567 136.999C561.567 136.024 562.358 135.232 563.333 135.232ZM554.666 136.166C554.206 136.166 553.833 136.539 553.833 136.999C553.833 137.459 554.206 137.833 554.666 137.833C555.126 137.833 555.499 137.459 555.499 136.999C555.499 136.539 555.126 136.166 554.666 136.166ZM558.999 136.166C558.539 136.166 558.166 136.539 558.166 136.999C558.166 137.459 558.539 137.833 558.999 137.833C559.46 137.833 559.833 137.459 559.833 136.999C559.833 136.539 559.459 136.166 558.999 136.166ZM563.333 136.166C562.873 136.166 562.499 136.539 562.499 136.999C562.499 137.459 562.873 137.833 563.333 137.833C563.793 137.833 564.166 137.459 564.166 136.999C564.166 136.539 563.793 136.166 563.333 136.166Z" fill="#C9CCD0"/>
		<rect x="551" y="129" width="16" height="16" rx="3" fill="white" fill-opacity="0.01"/>
		<path d="M764.666 135.232C765.642 135.232 766.433 136.023 766.433 136.999C766.433 137.975 765.642 138.766 764.666 138.766C763.691 138.766 762.9 137.975 762.9 136.999C762.9 136.024 763.691 135.232 764.666 135.232ZM768.999 135.232C769.975 135.232 770.766 136.024 770.766 136.999C770.766 137.975 769.975 138.766 768.999 138.766C768.024 138.765 767.233 137.975 767.233 136.999C767.233 136.024 768.024 135.233 768.999 135.232ZM773.333 135.232C774.309 135.233 775.1 136.024 775.1 136.999C775.1 137.975 774.309 138.765 773.333 138.766C772.358 138.766 771.567 137.975 771.567 136.999C771.567 136.024 772.358 135.232 773.333 135.232ZM764.666 136.166C764.206 136.166 763.833 136.539 763.833 136.999C763.833 137.459 764.206 137.833 764.666 137.833C765.126 137.833 765.499 137.459 765.499 136.999C765.499 136.539 765.126 136.166 764.666 136.166ZM768.999 136.166C768.539 136.166 768.166 136.539 768.166 136.999C768.166 137.459 768.539 137.833 768.999 137.833C769.46 137.833 769.833 137.459 769.833 136.999C769.833 136.539 769.459 136.166 768.999 136.166ZM773.333 136.166C772.873 136.166 772.499 136.539 772.499 136.999C772.499 137.459 772.873 137.833 773.333 137.833C773.793 137.833 774.166 137.459 774.166 136.999C774.166 136.539 773.793 136.166 773.333 136.166Z" fill="#C9CCD0"/>
		<rect x="761" y="129" width="16" height="16" rx="3" fill="white" fill-opacity="0.01"/>
		<path d="M970.666 135.232C971.642 135.232 972.433 136.023 972.433 136.999C972.433 137.975 971.642 138.766 970.666 138.766C969.691 138.766 968.9 137.975 968.9 136.999C968.9 136.024 969.691 135.232 970.666 135.232ZM974.999 135.232C975.975 135.232 976.766 136.024 976.766 136.999C976.766 137.975 975.975 138.766 974.999 138.766C974.024 138.765 973.233 137.975 973.233 136.999C973.233 136.024 974.024 135.233 974.999 135.232ZM979.333 135.232C980.309 135.233 981.1 136.024 981.1 136.999C981.1 137.975 980.309 138.765 979.333 138.766C978.358 138.766 977.567 137.975 977.567 136.999C977.567 136.024 978.358 135.232 979.333 135.232ZM970.666 136.166C970.206 136.166 969.833 136.539 969.833 136.999C969.833 137.459 970.206 137.833 970.666 137.833C971.126 137.833 971.499 137.459 971.499 136.999C971.499 136.539 971.126 136.166 970.666 136.166ZM974.999 136.166C974.539 136.166 974.166 136.539 974.166 136.999C974.166 137.459 974.539 137.833 974.999 137.833C975.46 137.833 975.833 137.459 975.833 136.999C975.833 136.539 975.459 136.166 974.999 136.166ZM979.333 136.166C978.873 136.166 978.499 136.539 978.499 136.999C978.499 137.459 978.873 137.833 979.333 137.833C979.793 137.833 980.166 137.459 980.166 136.999C980.166 136.539 979.793 136.166 979.333 136.166Z" fill="#C9CCD0"/>
		<rect x="967" y="129" width="16" height="16" rx="3" fill="white" fill-opacity="0.01"/>
		<rect width="1185" height="50" transform="translate(0 146)" fill="white"/>
		<mask id="path-61-inside-9_4206_281748" fill="white">
			<path d="M0 146H260V196H0V146Z"/>
		</mask>
		<path d="M260 196V197H261V196H260ZM260 146H259V196H260H261V146H260ZM260 196V195H0V196V197H260V196Z" fill="#F7F7F7" mask="url(#path-61-inside-9_4206_281748)"/>
		<rect x="32" y="159.5" width="134" height="23" rx="4" fill="#F0F0F0"/>
		<path d="M171 171C171 164.373 176.373 159 183 159H197C203.627 159 209 164.373 209 171C209 177.627 203.627 183 197 183H183C176.373 183 171 177.627 171 171Z" fill="white" fill-opacity="0.1"/>
		<mask id="path-65-inside-10_4206_281748" fill="white">
			<path d="M260 146H465V196H260V146Z"/>
		</mask>
		<path d="M465 146H464V196H465H466V146H465Z" fill="#F7F7F7" mask="url(#path-65-inside-10_4206_281748)"/>
		<rect x="292" y="162" width="141" height="18" rx="4" fill="#F0F0F0"/>
		<mask id="path-68-inside-11_4206_281748" fill="white">
			<path d="M465 146H670V196H465V146Z"/>
		</mask>
		<path d="M670 146H669V196H670H671V146H670Z" fill="#F7F7F7" mask="url(#path-68-inside-11_4206_281748)"/>
		<rect x="497" y="162" width="141" height="18" rx="4" fill="#F0F0F0"/>
		<mask id="path-71-inside-12_4206_281748" fill="white">
			<path d="M670 146H875V196H670V146Z"/>
		</mask>
		<path d="M875 146H874V196H875H876V146H875Z" fill="#F7F7F7" mask="url(#path-71-inside-12_4206_281748)"/>
		<rect x="702" y="162" width="141" height="18" rx="4" fill="#F0F0F0"/>
		<mask id="path-74-inside-13_4206_281748" fill="white">
			<path d="M875 146H1080V196H875V146Z"/>
		</mask>
		<path d="M1080 146H1079V196H1080H1081V146H1080Z" fill="#F7F7F7" mask="url(#path-74-inside-13_4206_281748)"/>
		<rect x="907" y="162" width="141" height="18" rx="4" fill="#F0F0F0"/>
		<rect width="1185" height="50" transform="translate(0 196)" fill="white"/>
		<mask id="path-77-inside-14_4206_281748" fill="white">
			<path d="M0 196H260V246H0V196Z"/>
		</mask>
		<path d="M260 246V247H261V246H260ZM260 196H259V246H260H261V196H260ZM260 246V245H0V246V247H260V246Z" fill="#F7F7F7" mask="url(#path-77-inside-14_4206_281748)"/>
		<rect x="32" y="209.5" width="134" height="23" rx="4" fill="#F0F0F0"/>
		<path d="M171 221C171 214.373 176.373 209 183 209H197C203.627 209 209 214.373 209 221C209 227.627 203.627 233 197 233H183C176.373 233 171 227.627 171 221Z" fill="white" fill-opacity="0.1"/>
		<mask id="path-81-inside-15_4206_281748" fill="white">
			<path d="M260 196H465V246H260V196Z"/>
		</mask>
		<path d="M465 196H464V246H465H466V196H465Z" fill="#F7F7F7" mask="url(#path-81-inside-15_4206_281748)"/>
		<rect x="292" y="212" width="141" height="18" rx="4" fill="#F0F0F0"/>
		<mask id="path-84-inside-16_4206_281748" fill="white">
			<path d="M465 196H670V246H465V196Z"/>
		</mask>
		<path d="M670 196H669V246H670H671V196H670Z" fill="#F7F7F7" mask="url(#path-84-inside-16_4206_281748)"/>
		<rect x="497" y="212" width="141" height="18" rx="4" fill="#F0F0F0"/>
		<mask id="path-87-inside-17_4206_281748" fill="white">
			<path d="M670 196H875V246H670V196Z"/>
		</mask>
		<path d="M875 196H874V246H875H876V196H875Z" fill="#F7F7F7" mask="url(#path-87-inside-17_4206_281748)"/>
		<rect x="702" y="212" width="141" height="18" rx="4" fill="#F0F0F0"/>
		<mask id="path-90-inside-18_4206_281748" fill="white">
			<path d="M875 196H1080V246H875V196Z"/>
		</mask>
		<path d="M1080 196H1079V246H1080H1081V196H1080Z" fill="#F7F7F7" mask="url(#path-90-inside-18_4206_281748)"/>
		<rect x="907" y="212" width="141" height="18" rx="4" fill="#F0F0F0"/>
		<rect width="1185" height="45" transform="translate(0 246)" fill="white"/>
		<mask id="path-93-inside-19_4206_281748" fill="white">
			<path d="M0 246H260V291H0V246Z"/>
		</mask>
		<path d="M260 291V292H261V291H260ZM260 246H259V291H260H261V246H260ZM260 291V290H0V291V292H260V291Z" fill="#F7F7F7" mask="url(#path-93-inside-19_4206_281748)"/>
		<rect x="32" y="257" width="134" height="23" rx="4" fill="#F0F0F0"/>
		<path d="M171 268.5C171 261.873 176.373 256.5 183 256.5H197C203.627 256.5 209 261.873 209 268.5C209 275.127 203.627 280.5 197 280.5H183C176.373 280.5 171 275.127 171 268.5Z" fill="white" fill-opacity="0.1"/>
		<mask id="path-97-inside-20_4206_281748" fill="white">
			<path d="M260 246H465V291H260V246Z"/>
		</mask>
		<path d="M465 246H464V291H465H466V246H465Z" fill="#F7F7F7" mask="url(#path-97-inside-20_4206_281748)"/>
		<rect x="292" y="259.5" width="141" height="18" rx="4" fill="#F0F0F0"/>
		<mask id="path-100-inside-21_4206_281748" fill="white">
			<path d="M465 246H670V291H465V246Z"/>
		</mask>
		<path d="M670 246H669V291H670H671V246H670Z" fill="#F7F7F7" mask="url(#path-100-inside-21_4206_281748)"/>
		<rect x="497" y="259.5" width="141" height="18" rx="4" fill="#F0F0F0"/>
		<mask id="path-103-inside-22_4206_281748" fill="white">
			<path d="M670 246H875V291H670V246Z"/>
		</mask>
		<path d="M875 246H874V291H875H876V246H875Z" fill="#F7F7F7" mask="url(#path-103-inside-22_4206_281748)"/>
		<rect x="702" y="259.5" width="141" height="18" rx="4" fill="#F0F0F0"/>
		<mask id="path-106-inside-23_4206_281748" fill="white">
			<path d="M875 246H1080V291H875V246Z"/>
		</mask>
		<path d="M1080 246H1079V291H1080H1081V246H1080Z" fill="#F7F7F7" mask="url(#path-106-inside-23_4206_281748)"/>
		<rect x="907" y="259.5" width="141" height="18" rx="4" fill="#F0F0F0"/>
		<rect width="1185" height="45" transform="translate(0 291)" fill="white"/>
		<mask id="path-109-inside-24_4206_281748" fill="white">
			<path d="M0 291H260V336H0V291Z"/>
		</mask>
		<path d="M260 336V337H261V336H260ZM260 291H259V336H260H261V291H260ZM260 336V335H0V336V337H260V336Z" fill="#F7F7F7" mask="url(#path-109-inside-24_4206_281748)"/>
		<rect x="32" y="302" width="134" height="23" rx="4" fill="#F0F0F0"/>
		<path d="M171 313.5C171 306.873 176.373 301.5 183 301.5H197C203.627 301.5 209 306.873 209 313.5C209 320.127 203.627 325.5 197 325.5H183C176.373 325.5 171 320.127 171 313.5Z" fill="white" fill-opacity="0.1"/>
		<mask id="path-113-inside-25_4206_281748" fill="white">
			<path d="M260 291H465V336H260V291Z"/>
		</mask>
		<path d="M465 291H464V336H465H466V291H465Z" fill="#F7F7F7" mask="url(#path-113-inside-25_4206_281748)"/>
		<rect x="292" y="304.5" width="141" height="18" rx="4" fill="#F0F0F0"/>
		<mask id="path-116-inside-26_4206_281748" fill="white">
			<path d="M465 291H670V336H465V291Z"/>
		</mask>
		<path d="M670 291H669V336H670H671V291H670Z" fill="#F7F7F7" mask="url(#path-116-inside-26_4206_281748)"/>
		<rect x="497" y="304.5" width="141" height="18" rx="4" fill="#F0F0F0"/>
		<mask id="path-119-inside-27_4206_281748" fill="white">
			<path d="M670 291H875V336H670V291Z"/>
		</mask>
		<path d="M875 291H874V336H875H876V291H875Z" fill="#F7F7F7" mask="url(#path-119-inside-27_4206_281748)"/>
		<rect x="702" y="304.5" width="141" height="18" rx="4" fill="#F0F0F0"/>
		<mask id="path-122-inside-28_4206_281748" fill="white">
			<path d="M875 291H1080V336H875V291Z"/>
		</mask>
		<path d="M1080 291H1079V336H1080H1081V291H1080Z" fill="#F7F7F7" mask="url(#path-122-inside-28_4206_281748)"/>
		<rect x="907" y="304.5" width="141" height="18" rx="4" fill="#F0F0F0"/>
		<rect width="1185" height="45" transform="translate(0 336)" fill="white"/>
		<mask id="path-125-inside-29_4206_281748" fill="white">
			<path d="M0 336H260V381H0V336Z"/>
		</mask>
		<path d="M260 381V382H261V381H260ZM260 336H259V381H260H261V336H260ZM260 381V380H0V381V382H260V381Z" fill="#F7F7F7" mask="url(#path-125-inside-29_4206_281748)"/>
		<rect x="32" y="347" width="134" height="23" rx="4" fill="#F0F0F0"/>
		<path d="M171 358.5C171 351.873 176.373 346.5 183 346.5H197C203.627 346.5 209 351.873 209 358.5C209 365.127 203.627 370.5 197 370.5H183C176.373 370.5 171 365.127 171 358.5Z" fill="white" fill-opacity="0.1"/>
		<mask id="path-129-inside-30_4206_281748" fill="white">
			<path d="M260 336H465V381H260V336Z"/>
		</mask>
		<path d="M465 336H464V381H465H466V336H465Z" fill="#F7F7F7" mask="url(#path-129-inside-30_4206_281748)"/>
		<rect x="292" y="349.5" width="141" height="18" rx="4" fill="#F0F0F0"/>
		<mask id="path-132-inside-31_4206_281748" fill="white">
			<path d="M465 336H670V381H465V336Z"/>
		</mask>
		<path d="M670 336H669V381H670H671V336H670Z" fill="#F7F7F7" mask="url(#path-132-inside-31_4206_281748)"/>
		<rect x="497" y="349.5" width="141" height="18" rx="4" fill="#F0F0F0"/>
		<mask id="path-135-inside-32_4206_281748" fill="white">
			<path d="M670 336H875V381H670V336Z"/>
		</mask>
		<path d="M875 336H874V381H875H876V336H875Z" fill="#F7F7F7" mask="url(#path-135-inside-32_4206_281748)"/>
		<rect x="702" y="349.5" width="141" height="18" rx="4" fill="#F0F0F0"/>
		<mask id="path-138-inside-33_4206_281748" fill="white">
			<path d="M875 336H1080V381H875V336Z"/>
		</mask>
		<path d="M1080 336H1079V381H1080H1081V336H1080Z" fill="#F7F7F7" mask="url(#path-138-inside-33_4206_281748)"/>
		<rect x="907" y="349.5" width="141" height="18" rx="4" fill="#F0F0F0"/>
		<rect width="1185" height="45" transform="translate(0 381)" fill="white"/>
		<mask id="path-141-inside-34_4206_281748" fill="white">
			<path d="M0 381H260V426H0V381Z"/>
		</mask>
		<path d="M260 426V427H261V426H260ZM260 381H259V426H260H261V381H260ZM260 426V425H0V426V427H260V426Z" fill="#F7F7F7" mask="url(#path-141-inside-34_4206_281748)"/>
		<rect x="32" y="392" width="134" height="23" rx="4" fill="#F0F0F0"/>
		<path d="M171 403.5C171 396.873 176.373 391.5 183 391.5H197C203.627 391.5 209 396.873 209 403.5C209 410.127 203.627 415.5 197 415.5H183C176.373 415.5 171 410.127 171 403.5Z" fill="white" fill-opacity="0.1"/>
		<mask id="path-145-inside-35_4206_281748" fill="white">
			<path d="M260 381H465V426H260V381Z"/>
		</mask>
		<path d="M465 381H464V426H465H466V381H465Z" fill="#F7F7F7" mask="url(#path-145-inside-35_4206_281748)"/>
		<rect x="292" y="394.5" width="141" height="18" rx="4" fill="#F0F0F0"/>
		<mask id="path-148-inside-36_4206_281748" fill="white">
			<path d="M465 381H670V426H465V381Z"/>
		</mask>
		<path d="M670 381H669V426H670H671V381H670Z" fill="#F7F7F7" mask="url(#path-148-inside-36_4206_281748)"/>
		<rect x="497" y="394.5" width="141" height="18" rx="4" fill="#F0F0F0"/>
		<mask id="path-151-inside-37_4206_281748" fill="white">
			<path d="M670 381H875V426H670V381Z"/>
		</mask>
		<path d="M875 381H874V426H875H876V381H875Z" fill="#F7F7F7" mask="url(#path-151-inside-37_4206_281748)"/>
		<rect x="702" y="394.5" width="141" height="18" rx="4" fill="#F0F0F0"/>
		<mask id="path-154-inside-38_4206_281748" fill="white">
			<path d="M875 381H1080V426H875V381Z"/>
		</mask>
		<path d="M1080 381H1079V426H1080H1081V381H1080Z" fill="#F7F7F7" mask="url(#path-154-inside-38_4206_281748)"/>
		<rect x="907" y="394.5" width="141" height="18" rx="4" fill="#F0F0F0"/>
		<mask id="path-158-inside-39_4206_281748" fill="white">
			<path d="M0 426H1185V471H0V426Z"/>
		</mask>
		<path d="M0 426H1185V471H0V426Z" fill="#FBFBFB"/>
		<path d="M1185 471V470H0V471V472H1185V471Z" fill="#F7F7F7" mask="url(#path-158-inside-39_4206_281748)"/>
		<mask id="path-160-inside-40_4206_281748" fill="white">
			<path d="M0 426H205V471H0V426Z"/>
		</mask>
		<path d="M205 471V470H0V471V472H205V471Z" fill="#F7F7F7" mask="url(#path-160-inside-40_4206_281748)"/>
		<circle cx="28" cy="448.5" r="10" fill="#F0F0F0"/>
		<circle cx="59" cy="448.5" r="12" fill="#F0F0F0"/>
		<rect x="77" y="437" width="87" height="23" rx="4" fill="#F0F0F0"/>
		<mask id="path-165-inside-41_4206_281748" fill="white">
			<path d="M0 471H1185V489H0V471Z"/>
		</mask>
		<path d="M0 471H1185V489H0V471Z" fill="white"/>
		<path d="M1185 489V488H0V489V490H1185V489Z" fill="#F8FAFB" mask="url(#path-165-inside-41_4206_281748)"/>
		<path d="M359.666 478.232C360.642 478.232 361.433 479.023 361.433 479.999C361.433 480.975 360.642 481.766 359.666 481.766C358.691 481.766 357.9 480.975 357.9 479.999C357.9 479.024 358.691 478.232 359.666 478.232ZM363.999 478.232C364.975 478.232 365.766 479.024 365.766 479.999C365.766 480.975 364.975 481.766 363.999 481.766C363.024 481.765 362.233 480.975 362.233 479.999C362.233 479.024 363.024 478.233 363.999 478.232ZM368.333 478.232C369.309 478.233 370.1 479.024 370.1 479.999C370.1 480.975 369.309 481.765 368.333 481.766C367.358 481.766 366.567 480.975 366.567 479.999C366.567 479.024 367.358 478.232 368.333 478.232ZM359.666 479.166C359.206 479.166 358.833 479.539 358.833 479.999C358.833 480.459 359.206 480.833 359.666 480.833C360.126 480.833 360.499 480.459 360.499 479.999C360.499 479.539 360.126 479.166 359.666 479.166ZM363.999 479.166C363.539 479.166 363.166 479.539 363.166 479.999C363.166 480.459 363.539 480.833 363.999 480.833C364.46 480.833 364.833 480.459 364.833 479.999C364.833 479.539 364.459 479.166 363.999 479.166ZM368.333 479.166C367.873 479.166 367.499 479.539 367.499 479.999C367.499 480.459 367.873 480.833 368.333 480.833C368.793 480.833 369.166 480.459 369.166 479.999C369.166 479.539 368.793 479.166 368.333 479.166Z" fill="#C9CCD0"/>
		<rect x="356" y="472" width="16" height="16" rx="3" fill="white" fill-opacity="0.01"/>
		<path d="M554.666 478.232C555.642 478.232 556.433 479.023 556.433 479.999C556.433 480.975 555.642 481.766 554.666 481.766C553.691 481.766 552.9 480.975 552.9 479.999C552.9 479.024 553.691 478.232 554.666 478.232ZM558.999 478.232C559.975 478.232 560.766 479.024 560.766 479.999C560.766 480.975 559.975 481.766 558.999 481.766C558.024 481.765 557.233 480.975 557.233 479.999C557.233 479.024 558.024 478.233 558.999 478.232ZM563.333 478.232C564.309 478.233 565.1 479.024 565.1 479.999C565.1 480.975 564.309 481.765 563.333 481.766C562.358 481.766 561.567 480.975 561.567 479.999C561.567 479.024 562.358 478.232 563.333 478.232ZM554.666 479.166C554.206 479.166 553.833 479.539 553.833 479.999C553.833 480.459 554.206 480.833 554.666 480.833C555.126 480.833 555.499 480.459 555.499 479.999C555.499 479.539 555.126 479.166 554.666 479.166ZM558.999 479.166C558.539 479.166 558.166 479.539 558.166 479.999C558.166 480.459 558.539 480.833 558.999 480.833C559.46 480.833 559.833 480.459 559.833 479.999C559.833 479.539 559.459 479.166 558.999 479.166ZM563.333 479.166C562.873 479.166 562.499 479.539 562.499 479.999C562.499 480.459 562.873 480.833 563.333 480.833C563.793 480.833 564.166 480.459 564.166 479.999C564.166 479.539 563.793 479.166 563.333 479.166Z" fill="#C9CCD0"/>
		<rect x="551" y="472" width="16" height="16" rx="3" fill="white" fill-opacity="0.01"/>
		<path d="M764.666 478.232C765.642 478.232 766.433 479.023 766.433 479.999C766.433 480.975 765.642 481.766 764.666 481.766C763.691 481.766 762.9 480.975 762.9 479.999C762.9 479.024 763.691 478.232 764.666 478.232ZM768.999 478.232C769.975 478.232 770.766 479.024 770.766 479.999C770.766 480.975 769.975 481.766 768.999 481.766C768.024 481.765 767.233 480.975 767.233 479.999C767.233 479.024 768.024 478.233 768.999 478.232ZM773.333 478.232C774.309 478.233 775.1 479.024 775.1 479.999C775.1 480.975 774.309 481.765 773.333 481.766C772.358 481.766 771.567 480.975 771.567 479.999C771.567 479.024 772.358 478.232 773.333 478.232ZM764.666 479.166C764.206 479.166 763.833 479.539 763.833 479.999C763.833 480.459 764.206 480.833 764.666 480.833C765.126 480.833 765.499 480.459 765.499 479.999C765.499 479.539 765.126 479.166 764.666 479.166ZM768.999 479.166C768.539 479.166 768.166 479.539 768.166 479.999C768.166 480.459 768.539 480.833 768.999 480.833C769.46 480.833 769.833 480.459 769.833 479.999C769.833 479.539 769.459 479.166 768.999 479.166ZM773.333 479.166C772.873 479.166 772.499 479.539 772.499 479.999C772.499 480.459 772.873 480.833 773.333 480.833C773.793 480.833 774.166 480.459 774.166 479.999C774.166 479.539 773.793 479.166 773.333 479.166Z" fill="#C9CCD0"/>
		<rect x="761" y="472" width="16" height="16" rx="3" fill="white" fill-opacity="0.01"/>
		<path d="M970.666 478.232C971.642 478.232 972.433 479.023 972.433 479.999C972.433 480.975 971.642 481.766 970.666 481.766C969.691 481.766 968.9 480.975 968.9 479.999C968.9 479.024 969.691 478.232 970.666 478.232ZM974.999 478.232C975.975 478.232 976.766 479.024 976.766 479.999C976.766 480.975 975.975 481.766 974.999 481.766C974.024 481.765 973.233 480.975 973.233 479.999C973.233 479.024 974.024 478.233 974.999 478.232ZM979.333 478.232C980.309 478.233 981.1 479.024 981.1 479.999C981.1 480.975 980.309 481.765 979.333 481.766C978.358 481.766 977.567 480.975 977.567 479.999C977.567 479.024 978.358 478.232 979.333 478.232ZM970.666 479.166C970.206 479.166 969.833 479.539 969.833 479.999C969.833 480.459 970.206 480.833 970.666 480.833C971.126 480.833 971.499 480.459 971.499 479.999C971.499 479.539 971.126 479.166 970.666 479.166ZM974.999 479.166C974.539 479.166 974.166 479.539 974.166 479.999C974.166 480.459 974.539 480.833 974.999 480.833C975.46 480.833 975.833 480.459 975.833 479.999C975.833 479.539 975.459 479.166 974.999 479.166ZM979.333 479.166C978.873 479.166 978.499 479.539 978.499 479.999C978.499 480.459 978.873 480.833 979.333 480.833C979.793 480.833 980.166 480.459 980.166 479.999C980.166 479.539 979.793 479.166 979.333 479.166Z" fill="#C9CCD0"/>
		<rect x="967" y="472" width="16" height="16" rx="3" fill="white" fill-opacity="0.01"/>
		<rect width="1185" height="50" transform="translate(0 489)" fill="white"/>
		<mask id="path-175-inside-42_4206_281748" fill="white">
			<path d="M0 489H260V539H0V489Z"/>
		</mask>
		<path d="M260 539V540H261V539H260ZM260 489H259V539H260H261V489H260ZM260 539V538H0V539V540H260V539Z" fill="#F7F7F7" mask="url(#path-175-inside-42_4206_281748)"/>
		<rect x="32" y="502.5" width="134" height="23" rx="4" fill="#F0F0F0"/>
		<path d="M171 514C171 507.373 176.373 502 183 502H197C203.627 502 209 507.373 209 514C209 520.627 203.627 526 197 526H183C176.373 526 171 520.627 171 514Z" fill="white" fill-opacity="0.1"/>
		<mask id="path-179-inside-43_4206_281748" fill="white">
			<path d="M260 489H465V539H260V489Z"/>
		</mask>
		<path d="M465 489H464V539H465H466V489H465Z" fill="#F7F7F7" mask="url(#path-179-inside-43_4206_281748)"/>
		<rect x="292" y="505" width="141" height="18" rx="4" fill="#F0F0F0"/>
		<mask id="path-182-inside-44_4206_281748" fill="white">
			<path d="M465 489H670V539H465V489Z"/>
		</mask>
		<path d="M670 489H669V539H670H671V489H670Z" fill="#F7F7F7" mask="url(#path-182-inside-44_4206_281748)"/>
		<rect x="497" y="505" width="141" height="18" rx="4" fill="#F0F0F0"/>
		<mask id="path-185-inside-45_4206_281748" fill="white">
			<path d="M670 489H875V539H670V489Z"/>
		</mask>
		<path d="M875 489H874V539H875H876V489H875Z" fill="#F7F7F7" mask="url(#path-185-inside-45_4206_281748)"/>
		<rect x="702" y="505" width="141" height="18" rx="4" fill="#F0F0F0"/>
		<mask id="path-188-inside-46_4206_281748" fill="white">
			<path d="M875 489H1080V539H875V489Z"/>
		</mask>
		<path d="M1080 489H1079V539H1080H1081V489H1080Z" fill="#F7F7F7" mask="url(#path-188-inside-46_4206_281748)"/>
		<rect x="907" y="505" width="141" height="18" rx="4" fill="#F0F0F0"/>
		<rect width="1185" height="50" transform="translate(0 539)" fill="white"/>
		<mask id="path-191-inside-47_4206_281748" fill="white">
			<path d="M0 539H260V589H0V539Z"/>
		</mask>
		<path d="M260 589V590H261V589H260ZM260 539H259V589H260H261V539H260ZM260 589V588H0V589V590H260V589Z" fill="#F7F7F7" mask="url(#path-191-inside-47_4206_281748)"/>
		<rect x="32" y="552.5" width="134" height="23" rx="4" fill="#F0F0F0"/>
		<path d="M171 564C171 557.373 176.373 552 183 552H197C203.627 552 209 557.373 209 564C209 570.627 203.627 576 197 576H183C176.373 576 171 570.627 171 564Z" fill="white" fill-opacity="0.1"/>
		<mask id="path-195-inside-48_4206_281748" fill="white">
			<path d="M260 539H465V589H260V539Z"/>
		</mask>
		<path d="M465 539H464V589H465H466V539H465Z" fill="#F7F7F7" mask="url(#path-195-inside-48_4206_281748)"/>
		<rect x="292" y="555" width="141" height="18" rx="4" fill="#F0F0F0"/>
		<mask id="path-198-inside-49_4206_281748" fill="white">
			<path d="M465 539H670V589H465V539Z"/>
		</mask>
		<path d="M670 539H669V589H670H671V539H670Z" fill="#F7F7F7" mask="url(#path-198-inside-49_4206_281748)"/>
		<rect x="497" y="555" width="141" height="18" rx="4" fill="#F0F0F0"/>
		<mask id="path-201-inside-50_4206_281748" fill="white">
			<path d="M670 539H875V589H670V539Z"/>
		</mask>
		<path d="M875 539H874V589H875H876V539H875Z" fill="#F7F7F7" mask="url(#path-201-inside-50_4206_281748)"/>
		<rect x="702" y="555" width="141" height="18" rx="4" fill="#F0F0F0"/>
		<mask id="path-204-inside-51_4206_281748" fill="white">
			<path d="M875 539H1080V589H875V539Z"/>
		</mask>
		<path d="M1080 539H1079V589H1080H1081V539H1080Z" fill="#F7F7F7" mask="url(#path-204-inside-51_4206_281748)"/>
		<rect x="907" y="555" width="141" height="18" rx="4" fill="#F0F0F0"/>
		<rect width="1185" height="45" transform="translate(0 589)" fill="white"/>
		<mask id="path-207-inside-52_4206_281748" fill="white">
			<path d="M0 589H260V634H0V589Z"/>
		</mask>
		<path d="M260 634V635H261V634H260ZM260 589H259V634H260H261V589H260ZM260 634V633H0V634V635H260V634Z" fill="#F7F7F7" mask="url(#path-207-inside-52_4206_281748)"/>
		<rect x="32" y="600" width="134" height="23" rx="4" fill="#F0F0F0"/>
		<path d="M171 611.5C171 604.873 176.373 599.5 183 599.5H197C203.627 599.5 209 604.873 209 611.5C209 618.127 203.627 623.5 197 623.5H183C176.373 623.5 171 618.127 171 611.5Z" fill="white" fill-opacity="0.1"/>
		<mask id="path-211-inside-53_4206_281748" fill="white">
			<path d="M260 589H465V634H260V589Z"/>
		</mask>
		<path d="M465 589H464V634H465H466V589H465Z" fill="#F7F7F7" mask="url(#path-211-inside-53_4206_281748)"/>
		<rect x="292" y="602.5" width="141" height="18" rx="4" fill="#F0F0F0"/>
		<mask id="path-214-inside-54_4206_281748" fill="white">
			<path d="M465 589H670V634H465V589Z"/>
		</mask>
		<path d="M670 589H669V634H670H671V589H670Z" fill="#F7F7F7" mask="url(#path-214-inside-54_4206_281748)"/>
		<rect x="497" y="602.5" width="141" height="18" rx="4" fill="#F0F0F0"/>
		<mask id="path-217-inside-55_4206_281748" fill="white">
			<path d="M670 589H875V634H670V589Z"/>
		</mask>
		<path d="M875 589H874V634H875H876V589H875Z" fill="#F7F7F7" mask="url(#path-217-inside-55_4206_281748)"/>
		<rect x="702" y="602.5" width="141" height="18" rx="4" fill="#F0F0F0"/>
		<mask id="path-220-inside-56_4206_281748" fill="white">
			<path d="M875 589H1080V634H875V589Z"/>
		</mask>
		<path d="M1080 589H1079V634H1080H1081V589H1080Z" fill="#F7F7F7" mask="url(#path-220-inside-56_4206_281748)"/>
		<rect x="907" y="602.5" width="141" height="18" rx="4" fill="#F0F0F0"/>
		<rect width="1185" height="45" transform="translate(0 634)" fill="white"/>
		<mask id="path-223-inside-57_4206_281748" fill="white">
			<path d="M0 634H260V679H0V634Z"/>
		</mask>
		<path d="M260 679V680H261V679H260ZM260 634H259V679H260H261V634H260ZM260 679V678H0V679V680H260V679Z" fill="#F7F7F7" mask="url(#path-223-inside-57_4206_281748)"/>
		<rect x="32" y="645" width="134" height="23" rx="4" fill="#F0F0F0"/>
		<path d="M171 656.5C171 649.873 176.373 644.5 183 644.5H197C203.627 644.5 209 649.873 209 656.5C209 663.127 203.627 668.5 197 668.5H183C176.373 668.5 171 663.127 171 656.5Z" fill="white" fill-opacity="0.1"/>
		<mask id="path-227-inside-58_4206_281748" fill="white">
			<path d="M260 634H465V679H260V634Z"/>
		</mask>
		<path d="M465 634H464V679H465H466V634H465Z" fill="#F7F7F7" mask="url(#path-227-inside-58_4206_281748)"/>
		<rect x="292" y="647.5" width="141" height="18" rx="4" fill="#F0F0F0"/>
		<mask id="path-230-inside-59_4206_281748" fill="white">
			<path d="M465 634H670V679H465V634Z"/>
		</mask>
		<path d="M670 634H669V679H670H671V634H670Z" fill="#F7F7F7" mask="url(#path-230-inside-59_4206_281748)"/>
		<rect x="497" y="647.5" width="141" height="18" rx="4" fill="#F0F0F0"/>
		<mask id="path-233-inside-60_4206_281748" fill="white">
			<path d="M670 634H875V679H670V634Z"/>
		</mask>
		<path d="M875 634H874V679H875H876V634H875Z" fill="#F7F7F7" mask="url(#path-233-inside-60_4206_281748)"/>
		<rect x="702" y="647.5" width="141" height="18" rx="4" fill="#F0F0F0"/>
		<mask id="path-236-inside-61_4206_281748" fill="white">
			<path d="M875 634H1080V679H875V634Z"/>
		</mask>
		<path d="M1080 634H1079V679H1080H1081V634H1080Z" fill="#F7F7F7" mask="url(#path-236-inside-61_4206_281748)"/>
		<rect x="907" y="647.5" width="141" height="18" rx="4" fill="#F0F0F0"/>
		<rect width="1185" height="45" transform="translate(0 679)" fill="white"/>
		<mask id="path-239-inside-62_4206_281748" fill="white">
			<path d="M0 679H260V724H0V679Z"/>
		</mask>
		<path d="M260 724V725H261V724H260ZM260 679H259V724H260H261V679H260ZM260 724V723H0V724V725H260V724Z" fill="#F7F7F7" mask="url(#path-239-inside-62_4206_281748)"/>
		<rect x="32" y="690" width="134" height="23" rx="4" fill="#F0F0F0"/>
		<path d="M171 701.5C171 694.873 176.373 689.5 183 689.5H197C203.627 689.5 209 694.873 209 701.5C209 708.127 203.627 713.5 197 713.5H183C176.373 713.5 171 708.127 171 701.5Z" fill="white" fill-opacity="0.1"/>
		<mask id="path-243-inside-63_4206_281748" fill="white">
			<path d="M260 679H465V724H260V679Z"/>
		</mask>
		<path d="M465 679H464V724H465H466V679H465Z" fill="#F7F7F7" mask="url(#path-243-inside-63_4206_281748)"/>
		<rect x="292" y="692.5" width="141" height="18" rx="4" fill="#F0F0F0"/>
		<mask id="path-246-inside-64_4206_281748" fill="white">
			<path d="M465 679H670V724H465V679Z"/>
		</mask>
		<path d="M670 679H669V724H670H671V679H670Z" fill="#F7F7F7" mask="url(#path-246-inside-64_4206_281748)"/>
		<rect x="497" y="692.5" width="141" height="18" rx="4" fill="#F0F0F0"/>
		<mask id="path-249-inside-65_4206_281748" fill="white">
			<path d="M670 679H875V724H670V679Z"/>
		</mask>
		<path d="M875 679H874V724H875H876V679H875Z" fill="#F7F7F7" mask="url(#path-249-inside-65_4206_281748)"/>
		<rect x="702" y="692.5" width="141" height="18" rx="4" fill="#F0F0F0"/>
		<mask id="path-252-inside-66_4206_281748" fill="white">
			<path d="M875 679H1080V724H875V679Z"/>
		</mask>
		<path d="M1080 679H1079V724H1080H1081V679H1080Z" fill="#F7F7F7" mask="url(#path-252-inside-66_4206_281748)"/>
		<rect x="907" y="692.5" width="141" height="18" rx="4" fill="#F0F0F0"/>
		<mask id="path-256-inside-67_4206_281748" fill="white">
			<path d="M0 724H1185V769H0V724Z"/>
		</mask>
		<path d="M0 724H1185V769H0V724Z" fill="#FBFBFB"/>
		<path d="M1185 769V768H0V769V770H1185V769Z" fill="#F7F7F7" mask="url(#path-256-inside-67_4206_281748)"/>
		<mask id="path-258-inside-68_4206_281748" fill="white">
			<path d="M0 724H205V769H0V724Z"/>
		</mask>
		<path d="M205 769V768H0V769V770H205V769Z" fill="#F7F7F7" mask="url(#path-258-inside-68_4206_281748)"/>
		<circle cx="28" cy="746.5" r="10" fill="#F0F0F0"/>
		<circle cx="59" cy="746.5" r="12" fill="#F0F0F0"/>
		<rect x="77" y="735" width="87" height="23" rx="4" fill="#F0F0F0"/>
	</g>
	<defs>
		<clipPath id="clip0_4206_281748">
			<rect width="1185" height="837" fill="white"/>
		</clipPath>
	</defs>
</svg>