<svg width="34" height="36" viewBox="0 0 34 36" fill="none" xmlns="http://www.w3.org/2000/svg">
	<g filter="url(#filter0_d_12692_13318)">
		<path d="M13.2139 20.1641C13.8727 20.1641 14.4072 20.6986 14.4072 21.3574C14.4071 22.0161 13.8726 22.5498 13.2139 22.5498C12.5553 22.5496 12.0216 22.016 12.0215 21.3574C12.0215 20.6988 12.5553 20.1643 13.2139 20.1641ZM18.7861 20.1641C19.4447 20.1643 19.9785 20.6988 19.9785 21.3574C19.9784 22.016 19.4446 22.5496 18.7861 22.5498C18.1274 22.5498 17.5929 22.0161 17.5928 21.3574C17.5928 20.6986 18.1273 20.1641 18.7861 20.1641ZM13.2139 21.2646C13.1628 21.2649 13.1211 21.3063 13.1211 21.3574C13.1212 21.4084 13.1629 21.45 13.2139 21.4502C13.2651 21.4502 13.3075 21.4086 13.3076 21.3574C13.3076 21.3061 13.2652 21.2646 13.2139 21.2646ZM18.7861 21.2646C18.7348 21.2646 18.6924 21.3061 18.6924 21.3574C18.6925 21.4086 18.7349 21.4502 18.7861 21.4502C18.8371 21.45 18.8788 21.4084 18.8789 21.3574C18.8789 21.3063 18.8372 21.2649 18.7861 21.2646ZM13.2139 14.8076C13.8727 14.8076 14.4072 15.3412 14.4072 16C14.4072 16.6588 13.8727 17.1924 13.2139 17.1924C12.5553 17.1922 12.0215 16.6587 12.0215 16C12.0215 15.3413 12.5553 14.8078 13.2139 14.8076ZM18.7861 14.8076C19.4447 14.8079 19.9785 15.3414 19.9785 16C19.9785 16.6586 19.4447 17.1921 18.7861 17.1924C18.1273 17.1924 17.5928 16.6588 17.5928 16C17.5928 15.3412 18.1273 14.8076 18.7861 14.8076ZM13.2139 15.9072C13.1628 15.9074 13.1211 15.9489 13.1211 16C13.1211 16.0511 13.1628 16.0926 13.2139 16.0928C13.2651 16.0928 13.3076 16.0513 13.3076 16C13.3076 15.9487 13.2652 15.9072 13.2139 15.9072ZM18.7861 15.9072C18.7348 15.9072 18.6924 15.9487 18.6924 16C18.6924 16.0513 18.7349 16.0928 18.7861 16.0928C18.8372 16.0925 18.8789 16.0511 18.8789 16C18.8789 15.9489 18.8372 15.9075 18.7861 15.9072ZM13.2139 9.4502C13.8726 9.4502 14.4071 9.98392 14.4072 10.6426C14.4072 11.3014 13.8727 11.8359 13.2139 11.8359C12.5553 11.8357 12.0215 11.3012 12.0215 10.6426C12.0216 9.98405 12.5554 9.45042 13.2139 9.4502ZM18.7861 9.4502C19.4446 9.45043 19.9784 9.98406 19.9785 10.6426C19.9785 11.3012 19.4447 11.8357 18.7861 11.8359C18.1273 11.8359 17.5928 11.3014 17.5928 10.6426C17.5929 9.98392 18.1274 9.4502 18.7861 9.4502ZM13.2139 10.5498C13.1629 10.55 13.1212 10.5916 13.1211 10.6426C13.1211 10.6937 13.1628 10.7351 13.2139 10.7354C13.2652 10.7354 13.3076 10.6939 13.3076 10.6426C13.3075 10.5914 13.2651 10.5498 13.2139 10.5498ZM18.7861 10.5498C18.7349 10.5498 18.6925 10.5914 18.6924 10.6426C18.6924 10.6939 18.7348 10.7354 18.7861 10.7354C18.8372 10.7351 18.8789 10.6937 18.8789 10.6426C18.8788 10.5916 18.8371 10.55 18.7861 10.5498Z" fill="white"/>
	</g>
	<defs>
		<filter id="filter0_d_12692_13318" x="-2" y="0" width="36" height="36" filterUnits="userSpaceOnUse" color-interpolation-filters="sRGB">
			<feFlood flood-opacity="0" result="BackgroundImageFix"/>
			<feColorMatrix in="SourceAlpha" type="matrix" values="0 0 0 0 0 0 0 0 0 0 0 0 0 0 0 0 0 0 127 0" result="hardAlpha"/>
			<feOffset dy="2"/>
			<feGaussianBlur stdDeviation="3"/>
			<feComposite in2="hardAlpha" operator="out"/>
			<feColorMatrix type="matrix" values="0 0 0 0 0 0 0 0 0 0 0 0 0 0 0 0 0 0 1 0"/>
			<feBlend mode="normal" in2="BackgroundImageFix" result="effect1_dropShadow_12692_13318"/>
			<feBlend mode="normal" in="SourceGraphic" in2="effect1_dropShadow_12692_13318" result="shape"/>
		</filter>
	</defs>
</svg>
