<svg width="41" height="41" viewBox="0 0 41 41" fill="none" xmlns="http://www.w3.org/2000/svg">
<path fill-rule="evenodd" clip-rule="evenodd" d="M11.8481 8.56409H29.6913C31.2073 8.56409 32.4364 9.79311 32.4364 11.3092V29.1523C32.4364 30.6684 31.2073 31.8974 29.6913 31.8974H11.8481C10.332 31.8974 9.10303 30.6684 9.10303 29.1523V11.3092C9.10303 9.79311 10.332 8.56409 11.8481 8.56409ZM11.9192 29.0818H29.7008V27.7141L24.9594 22.2425L22.588 24.9787L16.6606 18.1393L11.9192 23.6102V29.0818ZM25.6646 17.6186C26.9316 17.6186 27.9588 16.5915 27.9588 15.3244C27.9588 14.0574 26.9316 13.0302 25.6646 13.0302C24.3975 13.0302 23.3704 14.0574 23.3704 15.3244C23.3704 16.5915 24.3975 17.6186 25.6646 17.6186Z" fill="#525C69"/>
</svg>
