<svg width="20" height="20" fill="none" xmlns="http://www.w3.org/2000/svg">
	<path d="M10 11.1914C11.2856 11.1914 12.7103 11.3992 13.8613 12.0713C15.0483 12.7644 15.9016 13.9295 16.0234 15.71L16.0244 15.75C16.0244 16.3022 15.5767 16.75 15.0244 16.75H4.9668C4.41455 16.75 3.96685 16.3022 3.9668 15.75L3.96777 15.71C4.08966 13.929 4.94527 12.7641 6.13379 12.0713C7.28679 11.3994 8.71426 11.1914 10 11.1914ZM10 12.3584C8.81074 12.3584 7.62076 12.5552 6.72168 13.0791C5.90224 13.5566 5.29138 14.3216 5.15039 15.583H14.8408C14.7 14.3211 14.0906 13.5563 13.2734 13.0791C12.3767 12.5555 11.1892 12.3584 10 12.3584ZM9.99121 3.25C11.092 3.25 11.8957 3.71085 12.4209 4.39355L12.4229 4.39648C12.9433 5.08038 13.1848 5.9925 13.166 6.89551C13.1471 7.7982 12.8667 8.71031 12.3252 9.39355C11.7902 10.0814 11.0005 10.5332 9.99121 10.5332C8.3012 10.533 7.26077 9.28404 6.93848 7.82422C6.62786 6.40753 7.00132 4.76657 8.1377 3.87012C8.16082 3.84705 8.18651 3.82595 8.21387 3.80664C8.41017 3.6681 8.68868 3.5276 9.01758 3.4209C9.33904 3.314 9.68438 3.25005 9.99121 3.25ZM9.99121 4.41602C9.83234 4.41607 9.61221 4.45254 9.38477 4.52832L9.37988 4.5293C9.18422 4.5926 9.03351 4.6673 8.93848 4.72559C8.92781 4.73474 8.9167 4.74349 8.90527 4.75195C8.18297 5.28583 7.82907 6.43816 8.07812 7.57422C8.32251 8.68061 9.01506 9.36604 9.99121 9.36621C10.6136 9.36621 11.0737 9.10273 11.4053 8.67578L11.4102 8.66992C11.7671 8.22027 11.9855 7.56687 12 6.87109C12.0145 6.17501 11.8238 5.53721 11.4951 5.10449C11.187 4.70456 10.723 4.41602 9.99121 4.41602Z" fill="#535C69"/>
</svg>