<svg width="40" height="40" viewBox="0 0 40 40" fill="none" xmlns="http://www.w3.org/2000/svg">
<path d="M10 2.5H24.4639L33.5 11.2119V34C33.5 35.933 31.933 37.5 30 37.5H10C8.067 37.5 6.5 35.933 6.5 34V6C6.5 4.067 8.067 2.5 10 2.5Z" fill="url(#paint0_linear_33197_19692)" stroke="url(#paint1_linear_33197_19692)" stroke-linejoin="round"/>
<path d="M28.6499 11C26.4408 11 24.6499 9.20914 24.6499 7L24.6499 2L33.9999 11H28.6499Z" fill="#DADEE5"/>
<rect x="18" y="12" width="5.47681" height="2.13965" fill="#D9D9D9"/>
<rect x="18" y="15" width="5.47681" height="2.13965" fill="#D9D9D9"/>
<rect x="18" y="18" width="5.47681" height="2.13965" fill="#D9D9D9"/>
<rect x="18" y="21" width="5.47681" height="2.13965" fill="#D9D9D9"/>
<rect x="18" y="24" width="5.47681" height="2.13965" fill="#D9D9D9"/>
<rect x="18" y="27" width="5.47681" height="2.13965" fill="#D9D9D9"/>
<rect x="18" y="30" width="5.47681" height="2.13965" fill="#D9D9D9"/>
<rect x="11.386" y="11.1172" width="5.47681" height="2.13965" fill="#D9D9D9"/>
<rect x="11.386" y="14.1172" width="5.47681" height="2.13965" fill="#D9D9D9"/>
<rect x="11.386" y="17.1172" width="5.47681" height="2.13965" fill="#D9D9D9"/>
<rect x="11.386" y="20.1172" width="5.47681" height="2.13965" fill="#D9D9D9"/>
<rect x="11.386" y="23.1172" width="5.47681" height="2.13965" fill="#D9D9D9"/>
<rect x="11.386" y="26.1172" width="5.47681" height="2.13965" fill="#D9D9D9"/>
<rect x="11.386" y="29.1172" width="5.47681" height="2.13965" fill="#D9D9D9"/>
<rect x="11.386" y="32" width="5.47681" height="2.13965" fill="#D9D9D9"/>
<defs>
<linearGradient id="paint0_linear_33197_19692" x1="6" y1="2" x2="18.9313" y2="38.3799" gradientUnits="userSpaceOnUse">
<stop stop-color="#F7FAFF"/>
<stop offset="0.37" stop-color="#EDF1F9"/>
<stop offset="1" stop-color="#EDF1F9"/>
</linearGradient>
<linearGradient id="paint1_linear_33197_19692" x1="20" y1="2" x2="20" y2="37.5" gradientUnits="userSpaceOnUse">
<stop stop-color="#E4E8F0"/>
<stop offset="1" stop-color="#E5E9F1"/>
</linearGradient>
</defs>
</svg>
