<svg width="40" height="40" viewBox="0 0 40 40" fill="none" xmlns="http://www.w3.org/2000/svg">
<path d="M10 2.5H24.4639L33.5 11.2119V34C33.5 35.933 31.933 37.5 30 37.5H10C8.067 37.5 6.5 35.933 6.5 34V6C6.5 4.067 8.067 2.5 10 2.5Z" fill="url(#paint0_linear_32344_22012)" stroke="url(#paint1_linear_32344_22012)" stroke-linejoin="round"/>
<path d="M28.6499 11C26.4408 11 24.6499 9.20914 24.6499 7L24.6499 2L33.9999 11H28.6499Z" fill="#DADEE5"/>
<g filter="url(#filter0_d_32344_22012)">
<path d="M4 18C4 16.8954 4.89543 16 6 16H23C24.1046 16 25 16.8954 25 18V24C25 25.1046 24.1046 26 23 26H6C4.89543 26 4 25.1046 4 24V18Z" fill="#0E85CD"/>
</g>
<path d="M18.1922 23.999V18.3623H21.786V19.21H19.2V20.8779H21.5633V21.6982H19.2V23.999H18.1922Z" fill="white"/>
<path d="M12.5704 23.999V18.3623H14.6836C15.2435 18.3623 15.7201 18.4717 16.1133 18.6904C16.5092 18.9092 16.8112 19.2269 17.0196 19.6436C17.2305 20.0602 17.336 20.5628 17.336 21.1514V21.1592C17.336 21.7607 17.2318 22.2738 17.0235 22.6982C16.8152 23.1201 16.5131 23.443 16.1172 23.667C15.724 23.8883 15.2461 23.999 14.6836 23.999H12.5704ZM13.5782 23.1514H14.5508C14.9232 23.1514 15.2409 23.0745 15.504 22.9209C15.767 22.7673 15.9662 22.5433 16.1016 22.249C16.2396 21.9548 16.3086 21.5967 16.3086 21.1748V21.167C16.3086 20.7555 16.2383 20.404 16.0977 20.1123C15.9597 19.818 15.7592 19.5941 15.4961 19.4404C15.2331 19.2868 14.918 19.21 14.5508 19.21H13.5782V23.1514Z" fill="white"/>
<path d="M9.05005 24.1396C8.49797 24.1396 8.02271 24.0199 7.62427 23.7803C7.22843 23.5381 6.92244 23.1956 6.7063 22.7529C6.49015 22.3102 6.38208 21.7868 6.38208 21.1826V21.1748C6.38208 20.568 6.49015 20.0446 6.7063 19.6045C6.92505 19.1618 7.23364 18.8206 7.63208 18.5811C8.03312 18.3415 8.50578 18.2217 9.05005 18.2217C9.59692 18.2217 10.0696 18.3415 10.468 18.5811C10.8665 18.8206 11.1737 19.1618 11.3899 19.6045C11.606 20.0472 11.7141 20.5706 11.7141 21.1748V21.1826C11.7141 21.7868 11.606 22.3102 11.3899 22.7529C11.1764 23.1956 10.8704 23.5381 10.4719 23.7803C10.0735 24.0199 9.59953 24.1396 9.05005 24.1396ZM9.05005 23.2686C9.38599 23.2686 9.67635 23.1826 9.92114 23.0107C10.1659 22.8389 10.3547 22.5967 10.4875 22.2842C10.623 21.9717 10.6907 21.6045 10.6907 21.1826V21.1748C10.6907 20.7503 10.623 20.3831 10.4875 20.0732C10.3547 19.7607 10.1659 19.5199 9.92114 19.3506C9.67635 19.1787 9.38599 19.0928 9.05005 19.0928C8.71672 19.0928 8.42635 19.1787 8.17896 19.3506C7.93416 19.5199 7.74406 19.7607 7.60864 20.0732C7.47583 20.3831 7.40942 20.7503 7.40942 21.1748V21.1826C7.40942 21.6045 7.47453 21.9717 7.60474 22.2842C7.73755 22.5967 7.92635 22.8389 8.17114 23.0107C8.41854 23.1826 8.71151 23.2686 9.05005 23.2686Z" fill="white"/>
<defs>
<filter id="filter0_d_32344_22012" x="2" y="15" width="25" height="14" filterUnits="userSpaceOnUse" color-interpolation-filters="sRGB">
<feFlood flood-opacity="0" result="BackgroundImageFix"/>
<feColorMatrix in="SourceAlpha" type="matrix" values="0 0 0 0 0 0 0 0 0 0 0 0 0 0 0 0 0 0 127 0" result="hardAlpha"/>
<feOffset dy="1"/>
<feGaussianBlur stdDeviation="1"/>
<feComposite in2="hardAlpha" operator="out"/>
<feColorMatrix type="matrix" values="0 0 0 0 0 0 0 0 0 0 0 0 0 0 0 0 0 0 0.12 0"/>
<feBlend mode="normal" in2="BackgroundImageFix" result="effect1_dropShadow_32344_22012"/>
<feBlend mode="normal" in="SourceGraphic" in2="effect1_dropShadow_32344_22012" result="shape"/>
</filter>
<linearGradient id="paint0_linear_32344_22012" x1="6" y1="2" x2="18.9313" y2="38.3799" gradientUnits="userSpaceOnUse">
<stop stop-color="#F7FAFF"/>
<stop offset="0.37" stop-color="#EDF1F9"/>
<stop offset="1" stop-color="#EDF1F9"/>
</linearGradient>
<linearGradient id="paint1_linear_32344_22012" x1="20" y1="2" x2="20" y2="37.5" gradientUnits="userSpaceOnUse">
<stop stop-color="#E4E8F0"/>
<stop offset="1" stop-color="#E5E9F1"/>
</linearGradient>
</defs>
</svg>
