<svg width="40" height="40" viewBox="0 0 40 40" fill="none" xmlns="http://www.w3.org/2000/svg">
<path d="M10 2.5H24.4639L33.5 11.2119V34C33.5 35.933 31.933 37.5 30 37.5H10C8.067 37.5 6.5 35.933 6.5 34V6C6.5 4.067 8.067 2.5 10 2.5Z" fill="url(#paint0_linear_32344_22276)" stroke="url(#paint1_linear_32344_22276)" stroke-linejoin="round"/>
<path d="M28.6499 11C26.4408 11 24.6499 9.20914 24.6499 7L24.6499 2L33.9999 11H28.6499Z" fill="#DADEE5"/>
<g filter="url(#filter0_d_32344_22276)">
<path d="M4 18C4 16.8954 4.89543 16 6 16H23C24.1046 16 25 16.8954 25 18V24C25 25.1046 24.1046 26 23 26H6C4.89543 26 4 25.1046 4 24V18Z" fill="#0E85CD"/>
</g>
<path d="M18.411 22.1357V21.3232H19.911C20.273 21.3232 20.5542 21.2308 20.7547 21.0459C20.9553 20.8584 21.0555 20.5954 21.0555 20.2568V20.249C21.0555 19.9079 20.9553 19.6449 20.7547 19.46C20.5542 19.2751 20.273 19.1826 19.911 19.1826H18.411V18.3623H20.1571C20.5399 18.3623 20.8745 18.4404 21.161 18.5967C21.4474 18.7529 21.6714 18.973 21.8329 19.2568C21.9943 19.5381 22.0751 19.8675 22.0751 20.2451V20.2529C22.0751 20.6279 21.9943 20.9574 21.8329 21.2412C21.6714 21.5225 21.4474 21.7425 21.161 21.9014C20.8745 22.0576 20.5399 22.1357 20.1571 22.1357H18.411ZM17.9071 23.999V18.3623H18.9149V23.999H17.9071Z" fill="white"/>
<path d="M12.2852 23.999V18.3623H14.3985C14.9584 18.3623 15.4349 18.4717 15.8282 18.6904C16.224 18.9092 16.5261 19.2269 16.7344 19.6436C16.9454 20.0602 17.0508 20.5628 17.0508 21.1514V21.1592C17.0508 21.7607 16.9467 22.2738 16.7383 22.6982C16.53 23.1201 16.2279 23.443 15.8321 23.667C15.4389 23.8883 14.961 23.999 14.3985 23.999H12.2852ZM13.293 23.1514H14.2657C14.6381 23.1514 14.9558 23.0745 15.2188 22.9209C15.4818 22.7673 15.681 22.5433 15.8165 22.249C15.9545 21.9548 16.0235 21.5967 16.0235 21.1748V21.167C16.0235 20.7555 15.9532 20.404 15.8125 20.1123C15.6745 19.818 15.474 19.5941 15.211 19.4404C14.948 19.2868 14.6329 19.21 14.2657 19.21H13.293V23.1514Z" fill="white"/>
<path d="M8.76489 24.1396C8.21281 24.1396 7.73755 24.0199 7.33911 23.7803C6.94328 23.5381 6.63729 23.1956 6.42114 22.7529C6.205 22.3102 6.09692 21.7868 6.09692 21.1826V21.1748C6.09692 20.568 6.205 20.0446 6.42114 19.6045C6.63989 19.1618 6.94849 18.8206 7.34692 18.5811C7.74797 18.3415 8.22062 18.2217 8.76489 18.2217C9.31177 18.2217 9.78442 18.3415 10.1829 18.5811C10.5813 18.8206 10.8886 19.1618 11.1047 19.6045C11.3209 20.0472 11.429 20.5706 11.429 21.1748V21.1826C11.429 21.7868 11.3209 22.3102 11.1047 22.7529C10.8912 23.1956 10.5852 23.5381 10.1868 23.7803C9.78833 24.0199 9.31437 24.1396 8.76489 24.1396ZM8.76489 23.2686C9.10083 23.2686 9.39119 23.1826 9.63599 23.0107C9.88078 22.8389 10.0696 22.5967 10.2024 22.2842C10.3378 21.9717 10.4055 21.6045 10.4055 21.1826V21.1748C10.4055 20.7503 10.3378 20.3831 10.2024 20.0732C10.0696 19.7607 9.88078 19.5199 9.63599 19.3506C9.39119 19.1787 9.10083 19.0928 8.76489 19.0928C8.43156 19.0928 8.14119 19.1787 7.8938 19.3506C7.64901 19.5199 7.4589 19.7607 7.32349 20.0732C7.19067 20.3831 7.12427 20.7503 7.12427 21.1748V21.1826C7.12427 21.6045 7.18937 21.9717 7.31958 22.2842C7.45239 22.5967 7.64119 22.8389 7.88599 23.0107C8.13338 23.1826 8.42635 23.2686 8.76489 23.2686Z" fill="white"/>
<defs>
<filter id="filter0_d_32344_22276" x="2" y="15" width="25" height="14" filterUnits="userSpaceOnUse" color-interpolation-filters="sRGB">
<feFlood flood-opacity="0" result="BackgroundImageFix"/>
<feColorMatrix in="SourceAlpha" type="matrix" values="0 0 0 0 0 0 0 0 0 0 0 0 0 0 0 0 0 0 127 0" result="hardAlpha"/>
<feOffset dy="1"/>
<feGaussianBlur stdDeviation="1"/>
<feComposite in2="hardAlpha" operator="out"/>
<feColorMatrix type="matrix" values="0 0 0 0 0 0 0 0 0 0 0 0 0 0 0 0 0 0 0.12 0"/>
<feBlend mode="normal" in2="BackgroundImageFix" result="effect1_dropShadow_32344_22276"/>
<feBlend mode="normal" in="SourceGraphic" in2="effect1_dropShadow_32344_22276" result="shape"/>
</filter>
<linearGradient id="paint0_linear_32344_22276" x1="6" y1="2" x2="18.9313" y2="38.3799" gradientUnits="userSpaceOnUse">
<stop stop-color="#F7FAFF"/>
<stop offset="0.37" stop-color="#EDF1F9"/>
<stop offset="1" stop-color="#EDF1F9"/>
</linearGradient>
<linearGradient id="paint1_linear_32344_22276" x1="20" y1="2" x2="20" y2="37.5" gradientUnits="userSpaceOnUse">
<stop stop-color="#E4E8F0"/>
<stop offset="1" stop-color="#E5E9F1"/>
</linearGradient>
</defs>
</svg>
