<svg width="40" height="40" viewBox="0 0 40 40" fill="none" xmlns="http://www.w3.org/2000/svg">
<path d="M10 2.5H24.4639L33.5 11.2119V34C33.5 35.933 31.933 37.5 30 37.5H10C8.067 37.5 6.5 35.933 6.5 34V6C6.5 4.067 8.067 2.5 10 2.5Z" fill="url(#paint0_linear_32344_22244)" stroke="url(#paint1_linear_32344_22244)" stroke-linejoin="round"/>
<path d="M28.6499 11C26.4408 11 24.6499 9.20914 24.6499 7L24.6499 2L33.9999 11H28.6499Z" fill="#DADEE5"/>
<g filter="url(#filter0_d_32344_22244)">
<path d="M4 18C4 16.8954 4.89543 16 6 16H23C24.1046 16 25 16.8954 25 18V24C25 25.1046 24.1046 26 23 26H6C4.89543 26 4 25.1046 4 24V18Z" fill="#0E85CD"/>
</g>
<path d="M19.8602 24.1396C19.4227 24.1396 19.0425 24.0719 18.7196 23.9365C18.3993 23.8011 18.1467 23.6123 17.9618 23.3701C17.7769 23.1279 17.6727 22.8454 17.6493 22.5225L17.6454 22.4678H18.6219L18.6258 22.5068C18.6415 22.6657 18.704 22.8037 18.8133 22.9209C18.9253 23.0381 19.0737 23.1305 19.2586 23.1982C19.4435 23.2633 19.6545 23.2959 19.8915 23.2959C20.118 23.2959 20.3185 23.2607 20.493 23.1904C20.6675 23.1201 20.8042 23.0238 20.9032 22.9014C21.0021 22.7764 21.0516 22.6331 21.0516 22.4717V22.4678C21.0516 22.2646 20.9722 22.0993 20.8133 21.9717C20.6545 21.8415 20.3928 21.7373 20.0282 21.6592L19.4227 21.5342C18.8446 21.4118 18.424 21.2165 18.161 20.9482C17.9006 20.6774 17.7704 20.3324 17.7704 19.9131V19.9092C17.7704 19.5732 17.8589 19.279 18.036 19.0264C18.2157 18.7738 18.4618 18.5771 18.7743 18.4365C19.0894 18.2933 19.45 18.2217 19.8563 18.2217C20.273 18.2217 20.6336 18.292 20.9383 18.4326C21.243 18.5706 21.4826 18.7594 21.6571 18.999C21.8316 19.2386 21.9292 19.5094 21.9501 19.8115L21.954 19.8623H20.993L20.9852 19.8154C20.9618 19.667 20.9006 19.5381 20.8016 19.4287C20.7053 19.3167 20.5764 19.2282 20.4149 19.1631C20.2534 19.098 20.0646 19.0654 19.8485 19.0654C19.6428 19.0654 19.4592 19.098 19.2977 19.1631C19.1362 19.2256 19.0086 19.3141 18.9149 19.4287C18.8237 19.5433 18.7782 19.6813 18.7782 19.8428V19.8467C18.7782 20.0446 18.855 20.2087 19.0086 20.3389C19.1649 20.4691 19.4188 20.5706 19.7704 20.6436L20.3758 20.7725C20.9696 20.8975 21.398 21.0863 21.661 21.3389C21.9266 21.5889 22.0594 21.9274 22.0594 22.3545V22.3584C22.0594 22.723 21.9696 23.0381 21.7899 23.3037C21.6128 23.5693 21.3589 23.7751 21.0282 23.9209C20.7 24.0667 20.3107 24.1396 19.8602 24.1396Z" fill="white"/>
<path d="M12.2813 23.999V18.3623H14.3946C14.9545 18.3623 15.431 18.4717 15.8243 18.6904C16.2201 18.9092 16.5222 19.2269 16.7305 19.6436C16.9415 20.0602 17.0469 20.5628 17.0469 21.1514V21.1592C17.0469 21.7607 16.9428 22.2738 16.7344 22.6982C16.5261 23.1201 16.224 23.443 15.8282 23.667C15.4349 23.8883 14.9571 23.999 14.3946 23.999H12.2813ZM13.2891 23.1514H14.2618C14.6342 23.1514 14.9519 23.0745 15.2149 22.9209C15.4779 22.7673 15.6771 22.5433 15.8125 22.249C15.9506 21.9548 16.0196 21.5967 16.0196 21.1748V21.167C16.0196 20.7555 15.9493 20.404 15.8086 20.1123C15.6706 19.818 15.4701 19.5941 15.2071 19.4404C14.9441 19.2868 14.629 19.21 14.2618 19.21H13.2891V23.1514Z" fill="white"/>
<path d="M8.76099 24.1396C8.2089 24.1396 7.73364 24.0199 7.33521 23.7803C6.93937 23.5381 6.63338 23.1956 6.41724 22.7529C6.20109 22.3102 6.09302 21.7868 6.09302 21.1826V21.1748C6.09302 20.568 6.20109 20.0446 6.41724 19.6045C6.63599 19.1618 6.94458 18.8206 7.34302 18.5811C7.74406 18.3415 8.21672 18.2217 8.76099 18.2217C9.30786 18.2217 9.78052 18.3415 10.179 18.5811C10.5774 18.8206 10.8847 19.1618 11.1008 19.6045C11.317 20.0472 11.425 20.5706 11.425 21.1748V21.1826C11.425 21.7868 11.317 22.3102 11.1008 22.7529C10.8873 23.1956 10.5813 23.5381 10.1829 23.7803C9.78442 24.0199 9.31047 24.1396 8.76099 24.1396ZM8.76099 23.2686C9.09692 23.2686 9.38729 23.1826 9.63208 23.0107C9.87687 22.8389 10.0657 22.5967 10.1985 22.2842C10.3339 21.9717 10.4016 21.6045 10.4016 21.1826V21.1748C10.4016 20.7503 10.3339 20.3831 10.1985 20.0732C10.0657 19.7607 9.87687 19.5199 9.63208 19.3506C9.38729 19.1787 9.09692 19.0928 8.76099 19.0928C8.42765 19.0928 8.13729 19.1787 7.88989 19.3506C7.6451 19.5199 7.455 19.7607 7.31958 20.0732C7.18677 20.3831 7.12036 20.7503 7.12036 21.1748V21.1826C7.12036 21.6045 7.18547 21.9717 7.31567 22.2842C7.44849 22.5967 7.63729 22.8389 7.88208 23.0107C8.12948 23.1826 8.42244 23.2686 8.76099 23.2686Z" fill="white"/>
<defs>
<filter id="filter0_d_32344_22244" x="2" y="15" width="25" height="14" filterUnits="userSpaceOnUse" color-interpolation-filters="sRGB">
<feFlood flood-opacity="0" result="BackgroundImageFix"/>
<feColorMatrix in="SourceAlpha" type="matrix" values="0 0 0 0 0 0 0 0 0 0 0 0 0 0 0 0 0 0 127 0" result="hardAlpha"/>
<feOffset dy="1"/>
<feGaussianBlur stdDeviation="1"/>
<feComposite in2="hardAlpha" operator="out"/>
<feColorMatrix type="matrix" values="0 0 0 0 0 0 0 0 0 0 0 0 0 0 0 0 0 0 0.12 0"/>
<feBlend mode="normal" in2="BackgroundImageFix" result="effect1_dropShadow_32344_22244"/>
<feBlend mode="normal" in="SourceGraphic" in2="effect1_dropShadow_32344_22244" result="shape"/>
</filter>
<linearGradient id="paint0_linear_32344_22244" x1="6" y1="2" x2="18.9313" y2="38.3799" gradientUnits="userSpaceOnUse">
<stop stop-color="#F7FAFF"/>
<stop offset="0.37" stop-color="#EDF1F9"/>
<stop offset="1" stop-color="#EDF1F9"/>
</linearGradient>
<linearGradient id="paint1_linear_32344_22244" x1="20" y1="2" x2="20" y2="37.5" gradientUnits="userSpaceOnUse">
<stop stop-color="#E4E8F0"/>
<stop offset="1" stop-color="#E5E9F1"/>
</linearGradient>
</defs>
</svg>
