<svg width="40" height="40" viewBox="0 0 40 40" fill="none" xmlns="http://www.w3.org/2000/svg">
<path d="M10 2.5H24.4639L33.5 11.2119V34C33.5 35.933 31.933 37.5 30 37.5H10C8.067 37.5 6.5 35.933 6.5 34V6C6.5 4.067 8.067 2.5 10 2.5Z" fill="url(#paint0_linear_27375_21277)" stroke="url(#paint1_linear_27375_21277)" stroke-linejoin="round"/>
<path d="M28.6499 11C26.4408 11 24.6499 9.20914 24.6499 7L24.6499 2L33.9999 11H28.6499Z" fill="#DADEE5"/>
<path fill-rule="evenodd" clip-rule="evenodd" d="M16.4302 22.4831C16.4302 20.5131 18.0302 18.9131 20.0002 18.9131C21.9702 18.9131 23.5702 20.5131 23.5702 22.4831C23.5702 24.4531 21.9702 26.0531 20.0002 26.0531C18.0302 26.0531 16.4302 24.4531 16.4302 22.4831ZM17.6302 22.4831C17.6302 23.7931 18.6902 24.8531 20.0002 24.8531C21.3102 24.8531 22.3702 23.7931 22.3702 22.4831C22.3702 21.1731 21.3102 20.1131 20.0002 20.1131C18.6902 20.1131 17.6302 21.1731 17.6302 22.4831Z" fill="#1F86FF"/>
<path fill-rule="evenodd" clip-rule="evenodd" d="M24.12 16.9227H26C27.1 16.9227 28 17.8227 28 18.9227V26.5227C28 27.6227 27.1 28.5227 26 28.5227H14C12.9 28.5227 12 27.6227 12 26.5227V18.9227C12 17.8227 12.9 16.9227 14 16.9227H15.82L16.84 15.4027C17.21 14.8427 17.83 14.5127 18.5 14.5127H21.4C22.06 14.5127 22.68 14.8327 23.05 15.3727L24.12 16.9227ZM26 27.3127C26.44 27.3127 26.8 26.9527 26.8 26.5127V18.9127C26.8 18.4727 26.44 18.1127 26 18.1127H24.12C23.72 18.1127 23.35 17.9127 23.13 17.5927L22.06 16.0427C21.91 15.8327 21.66 15.7027 21.4 15.7027H18.5C18.24 15.7027 17.99 15.8427 17.84 16.0627L16.82 17.5827C16.59 17.9127 16.22 18.1127 15.82 18.1127H14C13.56 18.1127 13.2 18.4727 13.2 18.9127V26.5127C13.2 26.9527 13.56 27.3127 14 27.3127H26Z" fill="#1F86FF"/>
<defs>
<linearGradient id="paint0_linear_27375_21277" x1="6" y1="2" x2="18.9313" y2="38.3799" gradientUnits="userSpaceOnUse">
<stop stop-color="#F7FAFF"/>
<stop offset="0.37" stop-color="#EDF1F9"/>
<stop offset="1" stop-color="#EDF1F9"/>
</linearGradient>
<linearGradient id="paint1_linear_27375_21277" x1="20" y1="2" x2="20" y2="37.5" gradientUnits="userSpaceOnUse">
<stop stop-color="#E4E8F0"/>
<stop offset="1" stop-color="#E5E9F1"/>
</linearGradient>
</defs>
</svg>
