<svg width="40" height="40" viewBox="0 0 40 40" fill="none" xmlns="http://www.w3.org/2000/svg">
<path d="M10 2.5H24.4639L33.5 11.2119V34C33.5 35.933 31.933 37.5 30 37.5H10C8.067 37.5 6.5 35.933 6.5 34V6C6.5 4.067 8.067 2.5 10 2.5Z" fill="url(#paint0_linear_27375_21269)" stroke="url(#paint1_linear_27375_21269)" stroke-linejoin="round"/>
<path d="M28.6499 11C26.4408 11 24.6499 9.20914 24.6499 7L24.6499 2L33.9999 11H28.6499Z" fill="#DADEE5"/>
<path d="M13.6137 15.0146C13.2823 15.0146 13.0137 15.2833 13.0137 15.6146V16.7219C13.0137 17.0533 13.2823 17.3219 13.6137 17.3219C13.945 17.3219 14.2137 17.0533 14.2137 16.7219V16.2146H18.3877V27.8008H17.038C16.7066 27.8008 16.438 28.0694 16.438 28.4008C16.438 28.7322 16.7066 29.0008 17.038 29.0008H20.937C21.2684 29.0008 21.537 28.7322 21.537 28.4008C21.537 28.0694 21.2684 27.8008 20.937 27.8008H19.5877V16.2146H23.8994V16.7219C23.8994 17.0533 24.168 17.3219 24.4994 17.3219C24.8308 17.3219 25.0994 17.0533 25.0994 16.7219V15.6146C25.0994 15.2833 24.8308 15.0146 24.4994 15.0146H13.6137Z" fill="#1F86FF"/>
<path d="M22.2612 20.2943C22.2612 19.963 22.5299 19.6943 22.8612 19.6943H27.852C28.1833 19.6943 28.452 19.963 28.452 20.2943C28.452 20.6257 28.1833 20.8943 27.852 20.8943H22.8612C22.5299 20.8943 22.2612 20.6257 22.2612 20.2943Z" fill="#1F86FF"/>
<path d="M22.8612 22.416C22.5299 22.416 22.2612 22.6846 22.2612 23.016C22.2612 23.3474 22.5299 23.616 22.8612 23.616H27.852C28.1833 23.616 28.452 23.3474 28.452 23.016C28.452 22.6846 28.1833 22.416 27.852 22.416H22.8612Z" fill="#1F86FF"/>
<path d="M22.2612 25.8021C22.2612 25.4708 22.5299 25.2021 22.8612 25.2021H25.7101C26.0415 25.2021 26.3101 25.4708 26.3101 25.8021C26.3101 26.1335 26.0415 26.4021 25.7101 26.4021H22.8612C22.5299 26.4021 22.2612 26.1335 22.2612 25.8021Z" fill="#1F86FF"/>
<defs>
<linearGradient id="paint0_linear_27375_21269" x1="6" y1="2" x2="18.9313" y2="38.3799" gradientUnits="userSpaceOnUse">
<stop stop-color="#F7FAFF"/>
<stop offset="0.37" stop-color="#EDF1F9"/>
<stop offset="1" stop-color="#EDF1F9"/>
</linearGradient>
<linearGradient id="paint1_linear_27375_21269" x1="20" y1="2" x2="20" y2="37.5" gradientUnits="userSpaceOnUse">
<stop stop-color="#E4E8F0"/>
<stop offset="1" stop-color="#E5E9F1"/>
</linearGradient>
</defs>
</svg>
