<svg width="24" height="24" viewBox="0 0 24 24" fill="none" xmlns="http://www.w3.org/2000/svg">
	<path d="M9.21387 16.1641C9.87266 16.1641 10.4072 16.6986 10.4072 17.3574C10.4071 18.0161 9.87258 18.5498 9.21387 18.5498C8.55535 18.5496 8.02162 18.016 8.02148 17.3574C8.02148 16.6988 8.55526 16.1643 9.21387 16.1641ZM14.7861 16.1641C15.4447 16.1643 15.9785 16.6988 15.9785 17.3574C15.9784 18.016 15.4446 18.5496 14.7861 18.5498C14.1274 18.5498 13.5929 18.0161 13.5928 17.3574C13.5928 16.6986 14.1273 16.1641 14.7861 16.1641ZM9.21387 17.2646C9.16277 17.2649 9.12109 17.3063 9.12109 17.3574C9.12123 17.4084 9.16286 17.45 9.21387 17.4502C9.26507 17.4502 9.30748 17.4086 9.30762 17.3574C9.30762 17.3061 9.26515 17.2646 9.21387 17.2646ZM14.7861 17.2646C14.7348 17.2646 14.6924 17.3061 14.6924 17.3574C14.6925 17.4086 14.7349 17.4502 14.7861 17.4502C14.8371 17.45 14.8788 17.4084 14.8789 17.3574C14.8789 17.3063 14.8372 17.2649 14.7861 17.2646ZM9.21387 10.8076C9.87266 10.8076 10.4072 11.3412 10.4072 12C10.4072 12.6588 9.87266 13.1924 9.21387 13.1924C8.55527 13.1922 8.02149 12.6587 8.02148 12C8.02148 11.3413 8.55526 10.8078 9.21387 10.8076ZM14.7861 10.8076C15.4447 10.8079 15.9785 11.3414 15.9785 12C15.9785 12.6586 15.4447 13.1921 14.7861 13.1924C14.1273 13.1924 13.5928 12.6588 13.5928 12C13.5928 11.3412 14.1273 10.8076 14.7861 10.8076ZM9.21387 11.9072C9.16277 11.9074 9.12109 11.9489 9.12109 12C9.1211 12.0511 9.16278 12.0926 9.21387 12.0928C9.26515 12.0928 9.30761 12.0513 9.30762 12C9.30762 11.9487 9.26515 11.9072 9.21387 11.9072ZM14.7861 11.9072C14.7348 11.9072 14.6924 11.9487 14.6924 12C14.6924 12.0513 14.7349 12.0928 14.7861 12.0928C14.8372 12.0925 14.8789 12.0511 14.8789 12C14.8789 11.9489 14.8372 11.9075 14.7861 11.9072ZM9.21387 5.4502C9.87257 5.4502 10.4071 5.98392 10.4072 6.64258C10.4072 7.30138 9.87266 7.83594 9.21387 7.83594C8.55526 7.83571 8.02148 7.30124 8.02148 6.64258C8.02164 5.98405 8.55536 5.45042 9.21387 5.4502ZM14.7861 5.4502C15.4446 5.45043 15.9784 5.98406 15.9785 6.64258C15.9785 7.30123 15.4447 7.8357 14.7861 7.83594C14.1273 7.83594 13.5928 7.30138 13.5928 6.64258C13.5929 5.98392 14.1274 5.4502 14.7861 5.4502ZM9.21387 6.5498C9.16287 6.55003 9.12125 6.59157 9.12109 6.64258C9.12109 6.69372 9.16277 6.73513 9.21387 6.73535C9.26515 6.73535 9.30762 6.69386 9.30762 6.64258C9.30746 6.59143 9.26505 6.5498 9.21387 6.5498ZM14.7861 6.5498C14.7349 6.5498 14.6925 6.59143 14.6924 6.64258C14.6924 6.69386 14.7348 6.73535 14.7861 6.73535C14.8372 6.73511 14.8789 6.69371 14.8789 6.64258C14.8788 6.59157 14.8371 6.55004 14.7861 6.5498Z" fill="#C9CCD0"/>
</svg>
