<svg width="20" height="20" viewBox="0 0 20 20" fill="none" xmlns="http://www.w3.org/2000/svg">
<path d="M4.41549 8.9541C4.77407 8.96221 5.05894 9.25954 5.05124 9.61816L5.05221 9.77539C5.10245 11.4171 6.4653 13.5312 8.97897 13.5312C9.35038 13.5312 9.69696 13.4827 10.019 13.3984L9.62448 14.5635C9.29156 15.5451 9.76495 16.6053 10.6889 17.0254H7.16647C6.80749 17.0254 6.51608 16.734 6.51608 16.375C6.5162 16.0161 6.80756 15.7246 7.16647 15.7246H8.33249V14.7939C5.27062 14.4472 3.70644 11.6623 3.75143 9.58887L3.76803 9.45898C3.83505 9.16427 4.10159 8.94742 4.41549 8.9541Z" fill="#A8ADB4"/>
<path fill-rule="evenodd" clip-rule="evenodd" d="M13.4829 8.38477C13.8782 7.68958 14.9058 7.68987 15.3003 8.38574L15.3745 8.54492L17.7202 14.8076C17.8458 15.1437 17.6754 15.5187 17.3393 15.6445C17.0033 15.7702 16.6284 15.5995 16.5024 15.2637L15.9809 13.8711H12.7964L12.2739 15.2637C12.1476 15.5995 11.7729 15.7706 11.437 15.6445C11.101 15.5184 10.9312 15.1426 11.0571 14.8066L13.4077 8.54492L13.4829 8.38477ZM13.2846 12.5703H15.4936L14.3901 9.62598L13.2846 12.5703Z" fill="#A8ADB4"/>
<path fill-rule="evenodd" clip-rule="evenodd" d="M8.98092 2.75977C10.5814 2.75986 11.8792 4.0578 11.8794 5.6582V7.91406L10.6069 11.6631C10.143 11.9784 9.584 12.164 8.98092 12.1641C7.38054 12.1638 6.08249 10.8661 6.08249 9.26562V5.6582C6.08269 4.05792 7.38067 2.76006 8.98092 2.75977ZM8.98092 4.06055C8.09863 4.06084 7.38347 4.77589 7.38327 5.6582V9.26562C7.38327 10.1481 8.09851 10.864 8.98092 10.8643C9.86351 10.8642 10.5796 10.1482 10.5796 9.26562V5.6582C10.5794 4.77577 9.86338 4.06064 8.98092 4.06055Z" fill="#A8ADB4"/>
</svg>
