<svg width="20" height="20" viewBox="0 0 20 20" fill="none" xmlns="http://www.w3.org/2000/svg">
<path fill-rule="evenodd" clip-rule="evenodd" d="M10.0002 15.3673C12.9641 15.3673 15.3668 12.9646 15.3668 10.0007C15.3668 7.03672 12.9641 4.63398 10.0002 4.63398C7.03623 4.63398 4.6335 7.03672 4.6335 10.0007C4.6335 12.9646 7.03623 15.3673 10.0002 15.3673ZM10.0002 16.6673C13.6821 16.6673 16.6668 13.6825 16.6668 10.0007C16.6668 6.31875 13.6821 3.33398 10.0002 3.33398C6.31826 3.33398 3.3335 6.31875 3.3335 10.0007C3.3335 13.6825 6.31826 16.6673 10.0002 16.6673Z" fill="#A7A7A7"/>
<path fill-rule="evenodd" clip-rule="evenodd" d="M13.1941 7.71226C13.4587 7.95483 13.4766 8.366 13.234 8.63063L9.90632 12.2608C9.66944 12.5192 9.27032 12.5432 9.00416 12.3151L6.88656 10.5C6.61399 10.2664 6.58243 9.85604 6.81605 9.58348C7.04968 9.31092 7.46002 9.27935 7.73258 9.51298L9.37285 10.9189L12.2757 7.75219C12.5183 7.48756 12.9294 7.46968 13.1941 7.71226Z" fill="#A7A7A7"/>
</svg>
