<svg width="20" height="20" viewBox="0 0 20 20" fill="none" xmlns="http://www.w3.org/2000/svg">
<path d="M14.6798 6.23853C14.9336 5.98468 14.9336 5.57313 14.6798 5.31929C14.426 5.06545 14.0144 5.06545 13.7606 5.31929L9.99958 9.08027L6.2395 5.3202C5.98566 5.06635 5.5741 5.06635 5.32026 5.3202C5.06642 5.57404 5.06642 5.98559 5.32026 6.23943L9.08034 9.99951L5.32026 13.7596C5.06642 14.0134 5.06642 14.425 5.32026 14.6788C5.5741 14.9327 5.98566 14.9327 6.2395 14.6788L9.99958 10.9188L13.7606 14.6797C14.0144 14.9336 14.426 14.9336 14.6798 14.6797C14.9336 14.4259 14.9336 14.0143 14.6798 13.7605L10.9188 9.99951L14.6798 6.23853Z" fill="#A7A7A7"/>
</svg>
