<svg width="20" height="20" viewBox="0 0 20 20" fill="none" xmlns="http://www.w3.org/2000/svg">
<path d="M7.16512 4.78182C8.29929 5.13551 9.18167 6.1435 9.18167 7.44017C9.18167 8.4045 8.78022 9.08657 8.22557 9.61274C7.81683 10.0005 7.29223 10.328 6.81656 10.625C6.69791 10.6991 6.5822 10.7714 6.4722 10.8421C5.88398 11.2204 5.36814 11.6038 4.99068 12.1286C4.70801 12.5215 4.48552 13.019 4.39886 13.6982H8.53167C8.89065 13.6982 9.18167 13.9892 9.18167 14.3482C9.18167 14.7071 8.89065 14.9982 8.53167 14.9982H3.70957C3.35059 14.9982 3.05957 14.7071 3.05957 14.3482C3.05957 13.0722 3.39723 12.1175 3.93536 11.3694C4.46205 10.6373 5.15173 10.1457 5.76904 9.74869C5.91705 9.65351 6.05786 9.56528 6.19172 9.48141C6.64981 9.1944 7.02641 8.95843 7.33086 8.66961C7.68035 8.33807 7.88167 7.98015 7.88167 7.44017C7.88167 6.78265 7.43938 6.22909 6.7781 6.02287C6.13865 5.82346 5.26264 5.95389 4.47814 6.80889C4.23544 7.0734 3.82426 7.09108 3.55975 6.84838C3.29524 6.60568 3.27755 6.1945 3.52026 5.92999C4.61889 4.73262 6.00911 4.42132 7.16512 4.78182Z" fill="#A7A7A7"/>
<path d="M11.6944 4.7832C12.0534 4.7832 12.3444 5.07422 12.3444 5.4332V9.24H15.2012V5.4332C15.2012 5.07422 15.4922 4.7832 15.8512 4.7832C16.2102 4.7832 16.5012 5.07422 16.5012 5.4332C16.5012 8.40443 16.5012 11.3756 16.5012 14.3468C16.5012 14.7058 16.2102 14.9968 15.8512 14.9968C15.4922 14.9968 15.2012 14.7058 15.2012 14.3468V10.54H11.6944C11.3354 10.54 11.0444 10.249 11.0444 9.89V5.4332C11.0444 5.07422 11.3354 4.7832 11.6944 4.7832Z" fill="#A7A7A7"/>
</svg>
