<svg width="20" height="20" viewBox="0 0 20 20" fill="none" xmlns="http://www.w3.org/2000/svg">
<path fill-rule="evenodd" clip-rule="evenodd" d="M10.1503 15.4395C10.1501 15.4395 10.1505 15.4395 10.1503 15.4395L10.1509 11.8026H11.7601C11.7861 11.5732 11.8162 11.2931 11.8441 10.9968H10.1599V8.74885C10.1599 8.40633 10.3537 8.13437 10.5139 7.97988C10.6847 7.81511 10.9617 7.64248 11.3053 7.64248H11.9004V7.00073H10.8573C10.3444 7.00073 10.0114 7.10238 9.79434 7.22227C9.58047 7.34041 9.4458 7.49455 9.35543 7.65673C9.16562 7.9974 9.16592 8.37647 9.16605 8.53261L9.16605 11.0036H7.78672V11.8019H9.16605V15.1905H9.16425V16.6902C5.83526 16.2786 3.2583 13.4401 3.2583 9.99968C3.2583 6.27625 6.27674 3.25781 10.0002 3.25781C13.7236 3.25781 16.742 6.27625 16.742 9.99968C16.742 13.6729 13.8044 16.6601 10.1503 16.7399V15.4395ZM10.0002 4.55781C6.99471 4.55781 4.5583 6.99422 4.5583 9.99968C4.5583 12.2477 5.92135 14.1773 7.86605 15.0071V13.1019H7.55339C6.96428 13.1019 6.48672 12.6244 6.48672 12.0353V10.7703C6.48672 10.1812 6.96428 9.7036 7.55339 9.7036H7.86605V8.54371L7.86595 8.52129C7.86478 8.34226 7.86039 7.66906 8.21981 7.02399C8.41507 6.67354 8.71586 6.33287 9.16573 6.08435C9.61245 5.83758 10.1714 5.70073 10.8573 5.70073H12.1337C12.7228 5.70073 13.2004 6.17829 13.2004 6.7674V7.87582C13.2004 8.46492 12.7228 8.94248 12.1337 8.94248H11.4599V9.69684H12.1035C12.7195 9.69684 13.2172 10.2214 13.1629 10.8484C13.1187 11.3579 13.0643 11.8475 13.0267 12.1658C12.963 12.7055 12.505 13.1026 11.9707 13.1026H11.4509V15.246C13.7521 14.6111 15.442 12.5028 15.442 9.99968C15.442 6.99422 13.0056 4.55781 10.0002 4.55781Z" fill="#A8ADB4"/>
</svg>
