<svg width="20" height="20" viewBox="0 0 20 20" fill="none" xmlns="http://www.w3.org/2000/svg">
<path fill-rule="evenodd" clip-rule="evenodd" d="M9.9998 4.73348C10.3913 4.10038 11.0716 3.38867 12.152 3.38867C12.6453 3.38867 13.116 3.58831 13.4612 3.93978C13.806 4.29085 13.9976 4.76455 13.9976 5.25607C13.9976 5.45109 13.9675 5.64331 13.9095 5.82617H14.7492C15.6605 5.82617 16.3992 6.5649 16.3992 7.47617V8.7616C16.3992 9.37049 16.0694 9.90235 15.5787 10.1883V14.856C15.5787 15.9882 14.6608 16.906 13.5287 16.906H6.47236C5.34018 16.906 4.42236 15.9882 4.42236 14.856V10.189C3.93095 9.90325 3.60059 9.37101 3.60059 8.76161V7.47617C3.60059 6.5649 4.33932 5.82617 5.25059 5.82617H6.09006C6.03213 5.64331 6.00195 5.45109 6.00195 5.25607C6.00195 4.76455 6.19361 4.29085 6.53841 3.93978C6.8836 3.58831 7.3543 3.38867 7.84761 3.38867C8.92804 3.38867 9.60835 4.10038 9.9998 4.73348ZM7.84761 4.68867C7.70671 4.68867 7.56917 4.74555 7.4659 4.8507C7.36223 4.95625 7.30195 5.10185 7.30195 5.25607C7.30195 5.4103 7.36223 5.5559 7.4659 5.66144C7.56917 5.76659 7.70671 5.82347 7.84761 5.82347H9.10566C9.06811 5.73831 9.02616 5.65131 8.97953 5.565C8.68603 5.02165 8.31712 4.68867 7.84761 4.68867ZM10.8939 5.82347H12.152C12.2929 5.82347 12.4304 5.76659 12.5337 5.66144C12.6374 5.5559 12.6976 5.4103 12.6976 5.25607C12.6976 5.10185 12.6374 4.95625 12.5337 4.8507C12.4304 4.74555 12.2929 4.68867 12.152 4.68867C11.6825 4.68867 11.3136 5.02165 11.0201 5.565C10.9734 5.65131 10.9315 5.73831 10.8939 5.82347ZM5.72236 10.4116V14.856C5.72236 15.2702 6.05815 15.606 6.47236 15.606H9.34961L9.34961 10.4116H5.72236ZM10.6496 15.606H13.5287C13.9429 15.606 14.2787 15.2702 14.2787 14.856V10.4116H10.6496L10.6496 15.606ZM10.6496 9.11161H14.7492C14.9425 9.11161 15.0992 8.95491 15.0992 8.7616V7.47617C15.0992 7.28287 14.9425 7.12617 14.7492 7.12617H10.6496V9.11161ZM9.34961 7.12617H5.25059C5.05729 7.12617 4.90059 7.28287 4.90059 7.47617V8.76161C4.90059 8.95491 5.05729 9.11161 5.25059 9.11161H9.34961V7.12617Z" fill="#A7A7A7"/>
</svg>
