<svg width="20" height="20" viewBox="0 0 20 20" fill="none" xmlns="http://www.w3.org/2000/svg">
<path fill-rule="evenodd" clip-rule="evenodd" d="M3.2124 9.99863C3.2124 6.25004 6.25151 3.21094 10.0001 3.21094C13.7492 3.21094 16.7878 6.25008 16.7878 9.99863C16.7878 13.7477 13.7492 16.7863 10.0001 16.7863C6.25151 16.7863 3.2124 13.7472 3.2124 9.99863ZM10.0001 4.51094C6.96948 4.51094 4.5124 6.96801 4.5124 9.99863C4.5124 13.0293 6.96948 15.4863 10.0001 15.4863C13.0312 15.4863 15.4878 13.0297 15.4878 9.99863C15.4878 6.96798 13.0312 4.51094 10.0001 4.51094Z" fill="#A7A7A7"/>
<path fill-rule="evenodd" clip-rule="evenodd" d="M3.85238 8.17758C4.09303 8.12071 4.34511 8.20532 4.50272 8.39586C4.77668 8.72707 5.01541 9.10935 5.20928 9.43861C5.29007 9.57583 5.35982 9.69776 5.42178 9.80605C5.52084 9.97922 5.59995 10.1175 5.67227 10.2275C5.77494 10.3838 5.90132 10.5373 6.05514 10.7214C6.0624 10.73 6.06973 10.7388 6.07712 10.7477C6.21799 10.9161 6.38251 11.1128 6.52612 11.3242C7.02465 12.0581 7.48569 12.904 7.16476 13.9984L7.16433 13.9999C7.06865 14.3234 6.84863 14.8601 6.40397 15.1695C6.15958 15.3395 5.83092 15.3217 5.60626 15.1264C4.77445 14.4031 4.1672 13.5836 3.84245 12.7517C3.45295 11.754 3.27357 11.1434 3.27357 10.0041C3.27357 9.95975 3.27303 9.91156 3.27246 9.86005C3.26898 9.54866 3.26415 9.11581 3.36853 8.66388C3.42418 8.42294 3.61172 8.23445 3.85238 8.17758ZM4.66031 11.0506C4.73415 11.4246 4.85963 11.7825 5.05344 12.279C5.22109 12.7084 5.50868 13.1674 5.92078 13.6205C6.05991 13.1312 5.90903 12.7293 5.45076 12.0547C5.34442 11.8981 5.21715 11.7459 5.06338 11.5619L5.05769 11.5551C4.93362 11.4066 4.79136 11.2362 4.66031 11.0506Z" fill="#A7A7A7"/>
<path fill-rule="evenodd" clip-rule="evenodd" d="M11.9274 4.90903C11.6865 5.05017 11.4185 5.13963 11.1819 5.2072C11.052 5.2443 10.9185 5.27824 10.7921 5.31016C10.7832 5.31241 10.7744 5.31465 10.7655 5.31688C10.646 5.34706 10.5321 5.37583 10.4187 5.40702C10.2465 5.45439 10.0934 5.50324 9.95798 5.55703C10.4314 5.55891 10.9569 5.70947 11.3705 5.90017C11.5858 5.99947 11.7986 6.12226 11.975 6.2653C12.1291 6.3903 12.3536 6.60853 12.4267 6.92147C12.4922 7.20219 12.4041 7.46833 12.3293 7.63026C12.2425 7.81828 12.1087 8.0071 11.9349 8.16451C11.5716 8.49339 10.9799 8.71608 10.3253 8.40301C10.3249 8.40285 10.3132 8.3975 10.2861 8.38789C10.2602 8.37868 10.2268 8.3679 10.1864 8.35609C10.1055 8.33242 10.0075 8.30774 9.90402 8.28551C9.68125 8.23764 9.49644 8.21465 9.41851 8.21569C9.41438 8.21574 9.40994 8.2158 9.40521 8.21585C9.28155 8.21725 8.95892 8.2209 8.66869 8.37456C8.53028 8.44783 8.40682 8.55215 8.31497 8.70994C8.22252 8.86878 8.13892 9.12173 8.1445 9.52779C8.14722 9.72561 8.15771 9.90118 8.18213 10.0497C8.20725 10.2026 8.2413 10.2888 8.26678 10.3306C8.27097 10.3375 8.27433 10.3422 8.27669 10.3452C8.29611 10.3493 8.37434 10.3593 8.54604 10.3096C9.31568 10.0871 9.92305 10.2591 10.3497 10.5963C10.7388 10.9039 10.9175 11.3021 10.9764 11.4397C11.0315 11.5683 11.0447 11.6936 11.0497 11.7651C11.0555 11.847 11.0545 11.9311 11.0518 12.0055C11.0487 12.0938 11.0414 12.2057 11.0342 12.3158C11.0301 12.3777 11.0261 12.439 11.0229 12.4953C11.0027 12.8489 10.999 13.2151 11.0724 13.5455C11.0789 13.5751 11.0919 13.6178 11.1121 13.6644C11.1308 13.7078 11.1516 13.7448 11.1711 13.7725C11.4542 13.7465 11.7052 13.5806 11.9878 13.219C12.0642 13.1213 12.1387 12.9842 12.2324 12.7897C12.2489 12.7553 12.2666 12.718 12.2852 12.6786C12.3592 12.522 12.4483 12.3334 12.5446 12.1695C12.6886 11.9241 12.7549 11.7525 12.8342 11.5473C12.8373 11.5391 12.8405 11.531 12.8437 11.5227C12.9336 11.2902 13.0381 11.0281 13.2598 10.6745C13.3237 10.5727 13.3942 10.4445 13.4561 10.3153C12.9304 10.2239 12.5472 9.96765 12.3015 9.61575C12.1456 9.39254 12.0679 9.1616 12.0312 8.97554C11.9987 8.8108 11.9865 8.61923 12.0213 8.46203C12.0555 8.30708 12.1345 8.20072 12.1843 8.14419C12.237 8.08422 12.2915 8.04116 12.3312 8.01292C12.41 7.95682 12.4947 7.91401 12.5636 7.8826C12.7057 7.81774 12.8825 7.75586 13.0644 7.69908C13.4341 7.58368 13.905 7.46487 14.3531 7.36421C14.5015 7.33088 14.6395 7.30885 14.7679 7.29578C14.2348 6.37901 13.2854 5.38868 12.0358 4.9403C11.9912 4.92428 11.9579 4.91528 11.9344 4.9104C11.9319 4.90989 11.9296 4.90944 11.9274 4.90903ZM15.1606 8.1765C15.1604 8.17625 15.1593 8.17218 15.1576 8.16503C15.16 8.17317 15.1608 8.17675 15.1606 8.1765ZM13.6174 9.87506C13.6174 9.87498 13.6174 9.87588 13.6171 9.87782L13.6174 9.87506ZM11.2865 3.77752C11.6909 3.52461 12.1271 3.59191 12.4749 3.71668C14.5806 4.47225 15.9675 6.37944 16.3961 7.7692C16.3965 7.77051 16.397 7.7722 16.3977 7.77423C16.4075 7.80538 16.4432 7.91829 16.4449 8.03806C16.4458 8.10363 16.4412 8.30696 16.2819 8.49117C16.1022 8.69902 15.8701 8.72303 15.7646 8.72142C15.6654 8.71989 15.5867 8.69653 15.5618 8.68909C15.5283 8.67909 15.4975 8.6677 15.4819 8.66188C15.4725 8.6584 15.4642 8.65529 15.4566 8.65242C15.4314 8.64298 15.4135 8.63625 15.3887 8.62815C15.2961 8.59786 15.0698 8.5356 14.6381 8.63259C14.2067 8.72951 13.7739 8.83948 13.4518 8.94003C13.4473 8.94141 13.443 8.94279 13.4386 8.94415C13.4612 8.96068 13.4888 8.97665 13.523 8.99113C13.6114 9.02847 13.7715 9.06715 14.0434 9.04631C14.2087 9.03365 14.4307 9.06279 14.6244 9.22246C14.8125 9.3775 14.8802 9.57904 14.9035 9.71811C14.9451 9.96686 14.8801 10.2175 14.832 10.3717C14.7229 10.721 14.5199 11.1121 14.3612 11.3652C14.2044 11.6152 14.1349 11.788 14.0562 11.9916C14.0522 12.0019 14.0482 12.0123 14.0442 12.0227C13.9618 12.2362 13.8638 12.4902 13.6657 12.8276C13.6017 12.9367 13.5459 13.0544 13.476 13.2019C13.4536 13.2492 13.4298 13.2995 13.4037 13.3535C13.3076 13.5533 13.1821 13.802 13.0121 14.0195C12.587 14.5633 11.9789 15.0773 11.087 15.0761C10.6095 15.0755 10.2933 14.7737 10.1274 14.5477C9.95559 14.3136 9.85097 14.0419 9.80332 13.8275C9.68885 13.3124 9.70368 12.7955 9.72503 12.4212C9.72996 12.3348 9.73481 12.262 9.7391 12.1973C9.74514 12.1066 9.75009 12.0321 9.75266 11.9595C9.75368 11.9308 9.754 11.9085 9.75394 11.8917C9.71178 11.8061 9.64419 11.6958 9.54352 11.6162C9.45463 11.5459 9.28394 11.4495 8.9071 11.5585C8.56375 11.6577 8.21695 11.6866 7.89204 11.5873C7.55133 11.4832 7.31179 11.2618 7.15652 11.0069C6.88092 10.5544 6.85026 9.95626 6.84462 9.54564C6.83643 8.94881 6.95959 8.45428 7.19145 8.05596C7.42392 7.65658 7.74235 7.39403 8.06043 7.22564C8.64074 6.91841 9.2422 6.91639 9.38252 6.91592C9.3901 6.91589 9.39633 6.91587 9.40114 6.91581C9.63163 6.91273 9.9343 6.96234 10.1771 7.01452C10.4149 7.06563 10.7016 7.14196 10.8861 7.23022C10.9443 7.25803 10.9699 7.25271 10.9772 7.2512C10.9917 7.24821 11.0206 7.23736 11.0575 7.20508C10.9952 7.16549 10.9175 7.12287 10.8261 7.08069C10.5198 6.93946 10.1743 6.85497 9.94083 6.85704C9.92495 6.85719 9.90252 6.85778 9.87465 6.85851C9.67984 6.86364 9.21897 6.87577 8.86764 6.79036C8.69984 6.74957 8.28607 6.62791 8.11239 6.21538C7.91916 5.75644 8.17601 5.34666 8.36053 5.1229C8.84496 4.53544 9.54103 4.30019 10.0738 4.1536C10.2011 4.11858 10.3279 4.08658 10.4449 4.05704C10.4546 4.05459 10.4642 4.05217 10.4737 4.04976C10.6016 4.01746 10.7168 3.98805 10.8249 3.95717C11.0484 3.89336 11.193 3.83601 11.2865 3.77752Z" fill="#A7A7A7"/>
</svg>
