<svg width="20" height="20" viewBox="0 0 20 20" fill="none" xmlns="http://www.w3.org/2000/svg">
<path fill-rule="evenodd" clip-rule="evenodd" d="M13.4014 4.64375C14.4231 4.64375 15.2514 5.47202 15.2514 6.49375V13.2751C15.2514 14.2968 14.4231 15.1251 13.4014 15.1251H10.9022L9.98785 16.6527C9.98674 16.6546 9.9851 16.6568 9.9851 16.6568L9.98357 16.6586C9.98357 16.6586 9.979 16.6608 9.97353 16.6608C9.96807 16.6608 9.96409 16.659 9.96409 16.659C9.96409 16.659 9.96172 16.6569 9.95923 16.6527L9.04988 15.1251H6.59873C5.577 15.1251 4.74873 14.2968 4.74873 13.2751V6.49375C4.74873 5.47202 5.577 4.64375 6.59873 4.64375H13.4014ZM16.5514 6.49375C16.5514 4.75405 15.1411 3.34375 13.4014 3.34375H6.59873C4.85903 3.34375 3.44873 4.75405 3.44873 6.49375V13.2751C3.44873 15.0148 4.85903 16.4251 6.59873 16.4251H8.31084L8.84217 17.3177C9.35196 18.174 10.5915 18.1755 11.1033 17.3204L11.6391 16.4251H13.4014C15.1411 16.4251 16.5514 15.0148 16.5514 13.2751V6.49375Z" fill="#A8ADB4"/>
<path fill-rule="evenodd" clip-rule="evenodd" d="M13.9124 10.7159C14.1921 10.941 14.2363 11.3501 14.0113 11.6298C12.8789 13.0368 11.3948 13.7055 9.90112 13.6675C8.41738 13.6298 6.99247 12.8969 5.95409 11.6354C5.72595 11.3582 5.7657 10.9485 6.04286 10.7204C6.32003 10.4923 6.72967 10.532 6.95781 10.8092C7.7831 11.8118 8.86713 12.3408 9.93418 12.3679C10.9913 12.3948 12.0998 11.9315 12.9985 10.8147C13.2236 10.5351 13.6327 10.4908 13.9124 10.7159Z" fill="#A8ADB4"/>
<path fill-rule="evenodd" clip-rule="evenodd" d="M9.59001 6.5957C9.59001 6.26433 9.32139 5.9957 8.99002 5.9957C8.65864 5.9957 8.39002 6.26433 8.39002 6.5957V6.76169H8.22451C7.89314 6.76169 7.62451 7.03032 7.62451 7.36169C7.62451 7.69307 7.89314 7.96169 8.22451 7.96169H8.39002V8.7316H8.22451C7.89314 8.7316 7.62451 9.00023 7.62451 9.3316C7.62451 9.66297 7.89314 9.9316 8.22451 9.9316H8.39002V10.0975C8.39002 10.4289 8.65864 10.6975 8.99002 10.6975C9.32139 10.6975 9.59002 10.4289 9.59002 10.0975V9.9316H10.3599V10.0975C10.3599 10.4289 10.6286 10.6975 10.9599 10.6975C11.2913 10.6975 11.5599 10.4289 11.5599 10.0975V9.9316H11.7255C12.0569 9.9316 12.3255 9.66297 12.3255 9.3316C12.3255 9.00023 12.0569 8.7316 11.7255 8.7316H11.5599V7.96169H11.7254C12.0568 7.96169 12.3254 7.69307 12.3254 7.36169C12.3254 7.03032 12.0568 6.76169 11.7254 6.76169H11.5599V6.5957C11.5599 6.26433 11.2913 5.9957 10.9599 5.9957C10.6286 5.9957 10.3599 6.26433 10.3599 6.5957V6.76169L9.59001 6.76169V6.5957ZM9.59002 7.96169V8.7316L10.3599 8.7316V7.96169H9.59002Z" fill="#A8ADB4"/>
</svg>
