<svg width="20" height="20" viewBox="0 0 20 20" fill="none" xmlns="http://www.w3.org/2000/svg">
<path d="M6.15469 7.31934C6.48606 7.31934 6.75469 7.58797 6.75469 7.91934V9.91196L7.88699 8.79624C8.12303 8.56366 8.50292 8.56646 8.7355 8.8025C8.96808 9.03853 8.96528 9.41842 8.72924 9.651L7.91774 10.4506L8.84169 11.7275C9.03595 11.9959 8.9758 12.371 8.70734 12.5653C8.43888 12.7595 8.06378 12.6994 7.86951 12.4309L7.04929 11.2974L6.75469 11.5824V12.0792C6.75469 12.4106 6.48606 12.6792 6.15469 12.6792C5.82332 12.6792 5.55469 12.4106 5.55469 12.0792L5.55469 7.91934C5.55469 7.58797 5.82332 7.31934 6.15469 7.31934Z" fill="#A8ADB4"/>
<path d="M14.6049 10.1318C14.3062 10.1318 14.064 10.374 14.064 10.6728C14.064 10.9716 14.3062 11.2138 14.6049 11.2138C14.9037 11.2138 15.1459 10.9716 15.1459 10.6728C15.1459 10.374 14.9037 10.1318 14.6049 10.1318Z" fill="#A8ADB4"/>
<path d="M12.1209 7.91934C12.1209 7.58797 11.8523 7.31934 11.5209 7.31934C11.1895 7.31934 10.9209 7.58797 10.9209 7.91934V12.0792C10.9209 12.4106 11.1895 12.6792 11.5209 12.6792C11.8523 12.6792 12.1209 12.4106 12.1209 12.0792V11.5824L12.4155 11.2974L13.2357 12.4309C13.43 12.6994 13.8051 12.7595 14.0736 12.5653C14.342 12.371 14.4022 11.9959 14.2079 11.7275L13.284 10.4506L14.0955 9.651C14.3315 9.41842 14.3343 9.03853 14.1017 8.8025C13.8691 8.56646 13.4892 8.56366 13.2532 8.79624L12.1209 9.91196V7.91934Z" fill="#A8ADB4"/>
<path d="M9.87002 8.62109C10.2014 8.62109 10.47 8.88972 10.47 9.22109V12.0787C10.47 12.4101 10.2014 12.6787 9.87002 12.6787C9.53865 12.6787 9.27002 12.4101 9.27002 12.0787V9.22109C9.27002 8.88972 9.53865 8.62109 9.87002 8.62109Z" fill="#A8ADB4"/>
<path fill-rule="evenodd" clip-rule="evenodd" d="M10.0002 3.08984C6.18479 3.08984 3.0918 6.18284 3.0918 9.99825C3.0918 13.8137 6.18479 16.9066 10.0002 16.9066C13.8156 16.9066 16.9086 13.8137 16.9086 9.99825C16.9086 6.18284 13.8156 3.08984 10.0002 3.08984ZM4.3918 9.99825C4.3918 6.90081 6.90276 4.38984 10.0002 4.38984C13.0976 4.38984 15.6086 6.90081 15.6086 9.99825C15.6086 13.0957 13.0976 15.6066 10.0002 15.6066C6.90276 15.6066 4.3918 13.0957 4.3918 9.99825Z" fill="#A8ADB4"/>
</svg>
