<svg width="20" height="20" viewBox="0 0 20 20" fill="none" xmlns="http://www.w3.org/2000/svg">
<path fill-rule="evenodd" clip-rule="evenodd" d="M3.3335 6.66667C3.3335 5.74619 4.07969 5 5.00016 5H15.0002C15.9206 5 16.6668 5.74619 16.6668 6.66667V13.3333C16.6668 14.2538 15.9206 15 15.0002 15H5.00016C4.07969 15 3.3335 14.2538 3.3335 13.3333V6.66667ZM14.4918 6.3H5.58399L9.81453 9.83846C9.91263 9.92051 10.0552 9.92137 10.1542 9.8405L14.4918 6.3ZM4.6335 7.19978V13.3333C4.6335 13.5358 4.79766 13.7 5.00016 13.7H15.0002C15.2027 13.7 15.3668 13.5358 15.3668 13.3333V7.26384L10.9763 10.8476C10.3942 11.3227 9.55681 11.3177 8.98048 10.8356L4.6335 7.19978Z" fill="#A8ADB4"/>
</svg>
