<svg width="20" height="20" viewBox="0 0 20 20" fill="none" xmlns="http://www.w3.org/2000/svg">
<path fill-rule="evenodd" clip-rule="evenodd" d="M7.09322 3.78706C8.48997 3.13349 10.0661 2.96974 11.5673 3.32212C13.0788 3.63877 14.5481 4.43559 15.5246 5.66935C16.5138 6.91934 16.8583 8.51212 16.8583 9.99896V10.6198C16.8583 12.1413 15.6457 13.1282 14.2545 13.1282C13.428 13.1282 12.6144 12.7635 12.1093 12.1254C11.5609 12.7513 10.7707 13.1496 9.8762 13.1496C8.17419 13.1496 6.8501 11.7078 6.8501 9.99961C6.8501 8.29144 8.17419 6.84961 9.8762 6.84961C10.5244 6.84961 11.1179 7.05877 11.6042 7.41213C11.6538 7.10234 11.9222 6.86563 12.246 6.86563C12.605 6.86563 12.896 7.15664 12.896 7.51563L12.896 9.79601C12.9002 9.8634 12.9023 9.93129 12.9023 9.99961C12.9023 10.0679 12.9002 10.1358 12.896 10.2032V10.6198C12.896 11.296 13.4704 11.8282 14.2545 11.8282C15.0296 11.8282 15.5583 11.3256 15.5583 10.6198V9.99896C15.5583 8.6887 15.2517 7.41944 14.5052 6.47611C13.7476 5.51884 12.5639 4.85761 11.2938 4.59305L11.277 4.58932C10.0584 4.30164 8.77829 4.43385 7.64419 4.96453C6.51009 5.49521 5.58838 6.39327 5.02842 7.5132C4.46845 8.63313 4.30303 9.90933 4.55895 11.135C4.81487 12.3607 5.47713 13.4641 6.43845 14.2664C7.39977 15.0687 8.60382 15.5229 9.85552 15.5554C11.1072 15.5879 12.3332 15.1969 13.3349 14.4456C13.6221 14.2302 14.0295 14.2884 14.2449 14.5756C14.4603 14.8628 14.4021 15.2702 14.1149 15.4856C12.879 16.4126 11.3662 16.8951 9.82174 16.855C8.27729 16.8148 6.79164 16.2544 5.60548 15.2645C4.41933 14.2745 3.60216 12.9131 3.28639 11.4007C2.97062 9.88836 3.17473 8.31369 3.86566 6.93182C4.5566 5.54996 5.69387 4.44186 7.09322 3.78706ZM11.596 9.83908C11.5193 8.86644 10.7513 8.14961 9.8762 8.14961C8.95364 8.14961 8.1501 8.94635 8.1501 9.99961C8.1501 11.0529 8.95364 11.8496 9.8762 11.8496C10.7513 11.8496 11.5193 11.1328 11.596 10.1601V9.83908Z" fill="#A7A7A7"/>
</svg>
