<svg width="20" height="20" viewBox="0 0 20 20" fill="none" xmlns="http://www.w3.org/2000/svg">
<path fill-rule="evenodd" clip-rule="evenodd" d="M8.80986 4.00936C8.86845 3.4034 9.37914 2.92969 10.0005 2.92969C10.627 2.92969 11.141 3.41132 11.1924 4.02452C11.6524 4.13872 12.0659 4.31716 12.4332 4.54216L13.7068 3.26851C13.9607 3.01466 14.3722 3.01466 14.6261 3.26851C14.8799 3.52235 14.8799 3.9339 14.6261 4.18774L4.01831 14.7955C3.76447 15.0494 3.35291 15.0494 3.09907 14.7955C2.84523 14.5417 2.84523 14.1301 3.09907 13.8763L5.32684 11.6485C5.32666 11.3714 5.32425 11.0355 5.32138 10.6347L5.31918 10.324C5.31534 9.76741 5.31148 9.10546 5.31148 8.33224C5.31148 6.74657 6.4725 4.55347 8.80986 4.00936ZM6.61944 10.3559L11.4739 5.50145C11.2224 5.38041 10.9457 5.28911 10.6439 5.23671L10.6265 5.23345L10.617 5.23162C10.6085 5.23002 10.595 5.22752 10.577 5.22441C10.5409 5.21817 10.4879 5.20959 10.4235 5.20096C10.2921 5.18334 10.1257 5.16717 9.96556 5.16719C9.80612 5.16721 9.6403 5.18365 9.50917 5.20158C9.44496 5.21035 9.39204 5.21908 9.3561 5.22542C9.33818 5.22858 9.32466 5.23112 9.31625 5.23274L9.3076 5.23443L9.28797 5.23817C7.51903 5.54794 6.61148 7.1958 6.61148 8.33224C6.61148 9.10111 6.61531 9.75967 6.61915 10.315L6.61944 10.3559Z" fill="#A7A7A7"/>
<path d="M8.87864 15.3895C8.68294 15.0885 8.28033 15.0032 7.97938 15.1989C7.67843 15.3946 7.59311 15.7972 7.78881 16.0982C8.02149 16.456 8.35444 16.7411 8.74156 16.9346C9.12856 17.1281 9.56295 17.2272 10.0004 17.2272C10.4378 17.2272 10.8722 17.1281 11.2592 16.9346C11.6463 16.7411 11.9793 16.456 12.212 16.0982C12.4077 15.7972 12.3224 15.3946 12.0214 15.1989C11.7205 15.0032 11.3178 15.0885 11.1221 15.3895C11.0266 15.5364 10.8771 15.6722 10.6778 15.7719C10.4785 15.8715 10.2442 15.9272 10.0004 15.9272C9.75662 15.9272 9.52229 15.8715 9.32294 15.7719C9.1237 15.6722 8.97416 15.5364 8.87864 15.3895Z" fill="#A7A7A7"/>
<path d="M13.9863 6.13863L13.0271 7.09787C13.2258 7.52055 13.326 7.9546 13.326 8.33224C13.326 9.10122 13.3223 9.75987 13.3187 10.3152L13.3166 10.6233C13.3138 11.0403 13.3114 11.3927 13.3114 11.6808C13.3114 11.9917 13.4412 12.2594 13.5649 12.4514C13.6941 12.6521 13.8601 12.8365 14.0224 12.9945C14.2659 13.2316 14.5396 13.4462 14.7637 13.6088H6.51616L5.21616 14.9088H15.0406C15.7075 14.9088 16.2481 14.3682 16.2481 13.7013C16.2481 13.2787 16.0294 12.9039 15.7039 12.6811C15.4847 12.5311 15.1762 12.3035 14.9293 12.0631C14.8055 11.9426 14.7142 11.8351 14.6578 11.7475C14.6269 11.6996 14.6153 11.6713 14.6114 11.6608C14.6115 11.3817 14.6138 11.0423 14.6166 10.6365L14.6187 10.3237C14.6223 9.76721 14.626 9.10534 14.626 8.33224C14.626 7.65331 14.4131 6.86311 13.9863 6.13863Z" fill="#A7A7A7"/>
</svg>
