<svg width="20" height="20" viewBox="0 0 20 20" fill="none" xmlns="http://www.w3.org/2000/svg">
<path fill-rule="evenodd" clip-rule="evenodd" d="M15.8298 9.56478C16.5826 8.81145 16.7012 7.51785 15.8643 6.67678L13.3189 4.12603C13.3104 4.11751 13.3018 4.10911 13.293 4.10083C12.4476 3.29946 11.1836 3.42898 10.4435 4.17058C9.86245 4.75279 9.65863 5.65745 9.98549 6.42862L7.54677 8.2934C6.72427 7.76915 5.65832 7.94595 5.00305 8.60254C4.26435 9.34273 4.13536 10.6041 4.93145 11.4498C4.94011 11.459 4.9489 11.468 4.95783 11.477L6.27943 12.8026L3.70698 15.375C3.45314 15.6289 3.45314 16.0404 3.70698 16.2943C3.96082 16.5481 4.37238 16.5481 4.62622 16.2943L7.19727 13.7232L7.26738 13.7936L8.51779 15.045C8.52983 15.0571 8.5421 15.0689 8.55461 15.0804C9.40214 15.8645 10.6529 15.7299 11.3871 14.9937C12.0398 14.3393 12.2167 13.2776 11.697 12.4547L13.5526 10.0153C14.3258 10.3538 15.2422 10.1528 15.8298 9.56478ZM11.135 5.72817C11.1093 5.50459 11.1866 5.26625 11.3636 5.08889C11.6564 4.79553 12.1154 4.77576 12.3987 5.04431L14.9428 7.59373C15.2235 7.87588 15.209 8.34693 14.9103 8.64585C14.7377 8.81856 14.508 8.89602 14.2906 8.87621C14.1318 8.86174 13.9796 8.79533 13.861 8.67621L13.3373 8.15108L10.0056 12.5311L10.5169 13.0437C10.7792 13.3288 10.757 13.7846 10.4666 14.0757C10.1763 14.3669 9.72168 14.3891 9.43741 14.1261L8.18851 12.8762L7.10201 11.7852L5.87801 10.5587C5.6104 10.2744 5.63045 9.81421 5.92322 9.52085C6.21599 9.22749 6.67496 9.20772 6.95826 9.47626L7.46956 9.98894L11.8385 6.64821L11.3184 6.12674C11.2126 6.01433 11.1518 5.87441 11.135 5.72817Z" fill="#A7A7A7"/>
</svg>
