<svg width="20" height="20" viewBox="0 0 20 20" fill="none" xmlns="http://www.w3.org/2000/svg">
<path d="M11.5665 13.2039C12.0065 13.0203 12.3432 12.765 12.5725 12.4383C12.8023 12.1122 12.9176 11.7437 12.917 11.3339C12.917 10.9937 12.8506 10.7045 12.7173 10.4677C12.585 10.2314 12.3996 10.0357 12.1624 9.88217C11.927 9.72822 11.6421 9.599 11.3083 9.49185C10.9739 9.38523 10.6017 9.28741 10.1913 9.19986C9.8641 9.12365 9.6287 9.06609 9.48682 9.02628C9.34659 8.98746 9.20705 8.93351 9.06986 8.86375C8.93273 8.79507 8.82604 8.71359 8.74936 8.61956C8.67384 8.52638 8.63632 8.41743 8.63594 8.28821C8.63645 8.082 8.74608 7.906 8.97539 7.75431C9.2033 7.60501 9.50526 7.52866 9.88265 7.52866C10.2905 7.5278 10.5837 7.5988 10.7613 7.73517C10.9438 7.87412 11.1007 8.0684 11.2318 8.31775C11.3354 8.49646 11.4312 8.62469 11.5225 8.70523C11.6162 8.78848 11.7512 8.82781 11.9235 8.82781C12.1145 8.82843 12.2781 8.76042 12.4059 8.627C12.5338 8.49378 12.5995 8.34176 12.5995 8.17415C12.5995 7.99388 12.5485 7.80915 12.4474 7.62001C12.3461 7.43143 12.1863 7.25172 11.9691 7.08135C11.7505 6.91059 11.4771 6.77452 11.1492 6.6714C10.8203 6.56903 10.4318 6.51758 9.9826 6.51758C9.42094 6.51758 8.93067 6.595 8.51423 6.74976C8.09633 6.90457 7.77582 7.12683 7.5543 7.41721C7.33267 7.70678 7.22196 8.0395 7.22196 8.41154C7.22196 8.80171 7.32683 9.13112 7.53714 9.39615C7.74701 9.6586 8.03018 9.86637 8.38574 10.0184C8.74083 10.1698 9.17932 10.3016 9.70362 10.4149C10.0941 10.4963 10.4056 10.5736 10.6377 10.6465C10.8689 10.7186 11.0551 10.822 11.1994 10.9578C11.3423 11.0918 11.412 11.2637 11.412 11.4801C11.412 11.7514 11.2828 11.976 11.0136 12.1606C10.7458 12.3435 10.3959 12.4362 9.96291 12.4362C9.64654 12.4362 9.39371 12.3907 9.20373 12.2996C9.01164 12.2088 8.86333 12.0927 8.75794 11.9537C8.6519 11.8129 8.55225 11.6365 8.46049 11.4255C8.38394 11.2434 8.29034 11.1053 8.17877 11.0104C8.06635 10.9154 7.92827 10.8675 7.76751 10.8675C7.57127 10.8675 7.405 10.9285 7.27591 11.0502C7.14815 11.171 7.08252 11.3191 7.08252 11.4895C7.08252 11.7783 7.18867 12.0746 7.39803 12.377C7.60695 12.6793 7.87871 12.9216 8.21285 13.1023C8.68422 13.3546 9.2814 13.4796 10.0027 13.4796C10.6045 13.4796 11.1256 13.388 11.5665 13.2039Z" fill="#A8ADB4"/>
<path fill-rule="evenodd" clip-rule="evenodd" d="M16.0609 10.9823C16.1117 10.6614 16.1384 10.3332 16.1384 9.9981C16.1384 6.51562 13.3153 3.69272 9.83269 3.69272C9.49851 3.69272 9.16929 3.72024 8.8487 3.77039C8.26796 3.41107 7.58254 3.20312 6.84798 3.20312C4.7436 3.20312 3.0376 4.90887 3.0376 7.01343C3.0376 7.74781 3.24567 8.43265 3.60484 9.01455C3.55514 9.33595 3.52778 9.66317 3.52778 9.99823C3.52778 13.481 6.35073 16.303 9.83256 16.303C10.167 16.303 10.4963 16.2772 10.8169 16.2266C11.3982 16.5853 12.0831 16.7938 12.8175 16.7938C14.9224 16.7938 16.6282 15.0876 16.6282 12.9831C16.6284 12.2484 16.4205 11.5637 16.0609 10.9823ZM14.7769 10.7793L14.7016 11.2557L14.9552 11.666C15.1918 12.0485 15.3284 12.4974 15.3282 12.9828C15.3282 14.3694 14.2044 15.4938 12.8175 15.4938C12.3327 15.4938 11.883 15.3569 11.4994 15.1202L11.0897 14.8675L10.6143 14.9425C10.3618 14.9824 10.1003 15.003 9.83256 15.003C7.06857 15.003 4.82778 12.7629 4.82778 9.99823C4.82778 9.73444 4.84928 9.47375 4.88957 9.21322L4.96282 8.73957L4.71108 8.33172C4.47427 7.94808 4.3376 7.49857 4.3376 7.01343C4.3376 5.62691 5.46149 4.50312 6.84798 4.50312C7.33387 4.50312 7.78339 4.63997 8.16468 4.87589L8.57402 5.12916L9.04959 5.05477C9.30782 5.01438 9.5698 4.99272 9.83269 4.99272C12.5974 4.99272 14.8384 7.23364 14.8384 9.9981C14.8384 10.2638 14.8172 10.5242 14.7769 10.7793Z" fill="#A8ADB4"/>
</svg>
