<svg width="20" height="20" viewBox="0 0 20 20" fill="none" xmlns="http://www.w3.org/2000/svg">
<path fill-rule="evenodd" clip-rule="evenodd" d="M11.3332 7.37795C11.1866 7.05027 10.8022 6.90342 10.4745 7.04994L7.41008 8.42007C7.2527 8.49043 7.12972 8.62043 7.0682 8.78147C7.00667 8.94251 7.01164 9.12139 7.082 9.27877L8.45254 12.344C8.52291 12.5014 8.65294 12.6244 8.81401 12.6859C8.97507 12.7474 9.15398 12.7424 9.31136 12.672L12.3758 11.3011C12.7034 11.1545 12.8503 10.7701 12.7037 10.4424L11.3332 7.37795ZM9.37394 11.2199L8.5341 9.34153L10.4118 8.502L11.2516 10.3798L9.37394 11.2199Z" fill="#A8ADB4"/>
<path fill-rule="evenodd" clip-rule="evenodd" d="M9.91044 2.66596C10.82 2.28091 11.8637 2.65594 12.2863 3.55745C13.1888 3.17347 14.2642 3.57 14.6613 4.49875C15.0497 5.40747 14.6703 6.4539 13.7708 6.8765L14.6808 8.9106C15.5856 8.52602 16.6543 8.9281 17.0545 9.84853C17.4555 10.771 17.0597 11.81 16.1647 12.2295C16.552 13.1393 16.1409 14.1963 15.2334 14.6011C14.3271 15.0059 13.2674 14.6093 12.847 13.7147L10.8111 14.6249C11.1981 15.5344 10.7866 16.59 9.88066 16.9951C8.97456 17.4005 7.91314 17.0042 7.49286 16.1088C6.57856 16.4973 5.52555 16.0706 5.12303 15.1791C4.71322 14.2714 5.11523 13.2088 6.0084 12.7893L5.09891 10.7549C4.17455 11.1465 3.1433 10.7603 2.72728 9.82157C2.33259 8.931 2.67759 7.86909 3.61461 7.43603C3.22794 6.52663 3.63949 5.47042 4.54609 5.0648C5.45107 4.66122 6.51249 5.05529 6.93312 5.95172L8.96751 5.04186C8.58565 4.14207 8.97581 3.06161 9.91044 2.66596ZM13.4659 5.00977C13.5879 5.29501 13.4648 5.58921 13.2087 5.70414L12.6469 5.95517C12.4894 6.02552 12.3664 6.15554 12.3048 6.31663C12.2433 6.47772 12.2483 6.65666 12.3187 6.81407L13.7596 10.0349C13.8301 10.1924 13.9602 10.3154 14.1213 10.3768C14.2825 10.4383 14.4615 10.4332 14.6189 10.3626L15.1804 10.1109C15.447 9.99189 15.7526 10.1147 15.8622 10.3668C15.9854 10.6501 15.8655 10.9397 15.603 11.057L15.0406 11.3095C14.7134 11.4564 14.567 11.8404 14.7134 12.1678L14.9646 12.7296C15.0818 12.9917 14.9635 13.298 14.7033 13.414C14.442 13.5309 14.1358 13.4135 14.0186 13.151L13.7674 12.5905C13.6207 12.2631 13.2365 12.1165 12.9089 12.2629L9.68807 13.703C9.36062 13.8494 9.21365 14.2334 9.35968 14.561L9.61082 15.1245C9.72772 15.3858 9.61032 15.692 9.34975 15.8085C9.0884 15.9254 8.78218 15.8083 8.66531 15.5469L8.4137 14.9847C8.34327 14.8273 8.21319 14.7044 8.05209 14.6429C7.89099 14.5815 7.71208 14.5865 7.55472 14.657L6.99353 14.9083C6.73701 15.0229 6.42536 14.9044 6.30786 14.6442C6.19186 14.3872 6.30718 14.0795 6.57026 13.9618L7.13215 13.7107C7.28957 13.6404 7.4126 13.5104 7.47416 13.3493C7.53572 13.1883 7.53077 13.0094 7.4604 12.852L6.02032 9.63067C5.94992 9.47318 5.8198 9.35014 5.65862 9.28865C5.49745 9.22716 5.31844 9.23226 5.16102 9.30282L4.60052 9.5541C4.31192 9.68108 4.03916 9.57321 3.91579 9.29484C3.79225 9.01608 3.90256 8.72885 4.1719 8.61076L4.73873 8.35646C5.06597 8.20964 5.21245 7.82551 5.06605 7.49809L4.81486 6.93631C4.69821 6.67483 4.81522 6.36882 5.07592 6.25194C5.33824 6.13517 5.64401 6.25249 5.76056 6.51338L6.01175 7.07558C6.08209 7.23301 6.2121 7.35605 6.37317 7.4176C6.53425 7.47915 6.71318 7.47418 6.87058 7.40379L10.0915 5.96328C10.2489 5.89289 10.3718 5.76284 10.4333 5.60176C10.4948 5.44068 10.4898 5.26177 10.4194 5.10439L10.1679 4.54257C10.0461 4.26886 10.1746 3.96581 10.4172 3.86311C10.7089 3.73961 10.9999 3.86468 11.1137 4.11892L11.3653 4.68145C11.4357 4.83888 11.5657 4.96188 11.7269 5.02337C11.888 5.08486 12.0669 5.0798 12.2243 5.00931L12.7861 4.75771C13.056 4.63686 13.3602 4.76248 13.4659 5.00977Z" fill="#A8ADB4"/>
</svg>
