<svg width="20" height="20" viewBox="0 0 20 20" fill="none" xmlns="http://www.w3.org/2000/svg">
<path fill-rule="evenodd" clip-rule="evenodd" d="M8.95658 3.90807C9.3881 3.05207 10.5956 3.05128 11.0281 3.90688L13.2345 8.27137L15.623 7.03656C16.5829 6.54029 17.5128 7.47431 17.279 8.37964C17.275 8.39511 17.271 8.41007 17.268 8.42113L17.2675 8.42306L17.26 8.4511C17.2582 8.45801 17.2573 8.46186 17.257 8.46339L16.3683 14.2865C16.3536 14.383 16.3223 14.5461 16.2274 14.7109C15.9876 15.1273 15.5431 15.399 15.0459 15.399H5.0129C4.51114 15.399 4.06316 15.1223 3.82496 14.6995C3.73642 14.5424 3.70558 14.3881 3.69072 14.2965L2.74413 8.46437C2.7438 8.46292 2.74294 8.45927 2.74123 8.45274L2.73404 8.42619L2.73353 8.42432C2.73065 8.41386 2.72676 8.3997 2.72291 8.38509C2.48393 7.47685 3.41712 6.5387 4.37869 7.03719L6.75749 8.27038L8.95658 3.90807ZM9.99283 4.74041L7.856 8.97922C7.56842 9.54969 6.87153 9.7938 6.28987 9.49226L4.03854 8.32516L4.97281 14.0814C4.98663 14.0946 5.00193 14.099 5.0129 14.099H15.0459C15.0565 14.099 15.071 14.0949 15.0844 14.0829L15.9632 8.32413L13.701 9.49363C13.12 9.79403 12.4244 9.55044 12.1366 8.98119L9.99283 4.74041Z" fill="#A7A7A7"/>
</svg>
