<svg width="20" height="20" viewBox="0 0 20 20" fill="none" xmlns="http://www.w3.org/2000/svg">
<path fill-rule="evenodd" clip-rule="evenodd" d="M7.02666 13.263L6.89784 13.1342C6.88857 13.1249 6.87964 13.1154 6.87104 13.1057C4.47609 10.66 3.6158 8.5674 3.62337 6.84618C3.63113 5.08388 4.54755 3.86407 5.33051 3.20504C5.87493 2.74679 6.60913 2.83331 7.0844 3.21224C8.31356 4.19227 9.04277 5.05286 9.40116 5.53277C9.70172 5.93524 9.77088 6.50013 9.4778 6.9746C9.24838 7.34601 8.83657 7.87708 8.15299 8.36675C8.15042 8.36859 8.14797 8.37037 8.14565 8.37207C8.14022 8.43891 8.14599 8.54268 8.18243 8.69045C8.23085 8.8868 8.32262 9.11684 8.45138 9.36356C8.71026 9.85962 9.08032 10.3506 9.40076 10.671L9.48979 10.7601C9.81023 11.0805 10.3012 11.4506 10.7973 11.7094C11.044 11.8382 11.274 11.93 11.4704 11.9784C11.6181 12.0148 11.7219 12.0206 11.7888 12.0152C11.7905 12.0129 11.7922 12.0104 11.7941 12.0078C12.2837 11.3243 12.8148 10.9124 13.1862 10.683C13.6607 10.3899 14.2256 10.4591 14.6281 10.7597C15.108 11.1181 15.9686 11.8473 16.9486 13.0764C17.3275 13.5517 17.414 14.2859 16.9558 14.8303C16.2968 15.6133 15.0769 16.5297 13.3146 16.5375C11.5934 16.545 9.50084 15.6847 7.05509 13.2898C7.04541 13.2812 7.03593 13.2723 7.02666 13.263ZM7.88163 12.2792C10.2266 14.603 12.037 15.2431 13.3089 15.2375C14.5881 15.2318 15.474 14.572 15.9612 13.9932C15.9639 13.99 15.9646 13.9882 15.9651 13.9866C15.9658 13.9846 15.9671 13.9794 15.9668 13.9704C15.9662 13.9508 15.9578 13.9191 15.9321 13.8869C15.0277 12.7525 14.2494 12.0994 13.8502 11.8013L13.8506 11.8008L13.8502 11.8013C13.8501 11.8012 13.8501 11.8012 13.85 11.8011C13.5981 11.9596 13.2143 12.2575 12.8509 12.7649C12.7559 12.8975 12.5502 13.1601 12.1957 13.2582C11.844 13.3556 11.4784 13.3193 11.1591 13.2406C10.8329 13.1601 10.5036 13.0226 10.1958 12.8619C9.58294 12.5421 8.98474 12.0935 8.57055 11.6793L8.48153 11.5903C8.06734 11.1761 7.61872 10.5779 7.29888 9.96501C7.13827 9.65726 7.00068 9.32788 6.92025 9.00173C6.8415 8.68243 6.80525 8.31684 6.90262 7.96517C7.00077 7.61066 7.26337 7.40489 7.39596 7.30991C7.9033 6.94649 8.20119 6.56271 8.35969 6.31082C8.35964 6.31076 8.3596 6.31069 8.35955 6.31063C8.06142 5.9114 7.40834 5.13315 6.27397 4.2287C6.24176 4.20303 6.20999 4.19463 6.19044 4.19399C6.18138 4.19369 6.17622 4.19501 6.17419 4.19569C6.17267 4.19619 6.17085 4.19693 6.16766 4.19961C5.58883 4.68683 4.92899 5.57268 4.92336 6.8519C4.91776 8.12379 5.55781 9.93424 7.88163 12.2792Z" fill="#A7A7A7"/>
</svg>
