<svg width="20" height="20" viewBox="0 0 20 20" fill="none" xmlns="http://www.w3.org/2000/svg">
<path fill-rule="evenodd" clip-rule="evenodd" d="M13.541 5.80501C12.2443 5.73029 10.9801 6.45044 10.6201 7.42933C10.5255 7.68646 10.2799 7.86186 10.0002 7.86186C9.72827 7.86186 9.48714 7.69579 9.3874 7.44775C8.98522 6.44754 7.70375 5.73193 6.42609 5.80582C5.81236 5.84131 5.24889 6.06017 4.82461 6.47809C4.40376 6.89263 4.06696 7.55525 3.99869 8.57728C3.9081 9.93357 4.53488 11.2611 5.64033 12.535C6.74326 13.8061 8.26525 14.9553 9.81256 15.932C9.91919 15.9993 10.0583 15.9979 10.1677 15.923C11.6196 14.9288 13.1474 13.7792 14.283 12.507C15.4241 11.2286 16.0913 9.91438 16.002 8.57728C15.9339 7.55816 15.5932 6.89608 15.1663 6.48063C14.735 6.06099 14.162 5.8408 13.541 5.80501ZM16.0728 5.54891C16.7684 6.22566 17.2135 7.20928 17.2991 8.49064C17.4223 10.336 16.4923 11.9841 15.2529 13.3727C14.0079 14.7675 12.3717 15.9894 10.9022 16.9957C10.37 17.3601 9.66951 17.379 9.11863 17.0313C7.52323 16.0242 5.88087 14.7958 4.65845 13.387C3.43853 11.9812 2.57894 10.3267 2.70158 8.49064C2.78698 7.21211 3.22472 6.22926 3.91233 5.55194C4.59652 4.87801 5.47543 4.55862 6.35104 4.50798C7.6733 4.43151 9.10676 4.97076 9.9879 5.98152C10.8521 4.96507 12.2936 4.43097 13.6158 4.50717C14.4954 4.55785 15.3816 4.87635 16.0728 5.54891Z" fill="#A7A7A7"/>
</svg>
