<svg width="20" height="20" viewBox="0 0 20 20" fill="none" xmlns="http://www.w3.org/2000/svg">
<path fill-rule="evenodd" clip-rule="evenodd" d="M15.841 5.63714C16.0015 4.80267 15.1694 4.12475 14.3846 4.45056L3.63255 8.9143C2.89677 9.21976 2.89143 10.2601 3.62403 10.5731L6.18882 11.669L6.94055 15.5504C7.05967 16.1655 7.79847 16.4229 8.27402 16.015L10.2911 14.2848L12.2674 15.8952C12.893 16.4051 13.8363 16.0623 13.9887 15.2698L15.841 5.63714ZM5.00811 9.75081L14.4825 5.81747L12.7858 14.6407L10.745 12.9777C10.4699 12.7535 10.0737 12.7585 9.80434 12.9896L9.25054 13.4646L9.49148 12.7757L12.2747 9.15374C12.7512 8.53361 12.0557 7.69796 11.3594 8.05397L6.65991 10.4566L5.00811 9.75081ZM7.47976 11.4975L7.86522 13.4878L8.29444 12.2606C8.32021 12.1869 8.35759 12.1178 8.40517 12.0559L9.71068 10.3569L7.47976 11.4975Z" fill="#A8ADB4"/>
</svg>
