<svg width="20" height="20" viewBox="0 0 20 20" fill="none" xmlns="http://www.w3.org/2000/svg">
<path d="M9.53463 8.23826C9.53463 8.95558 8.95313 9.53707 8.23582 9.53707C7.51851 9.53707 6.93701 8.95558 6.93701 8.23826C6.93701 7.52095 7.51851 6.93945 8.23582 6.93945C8.95313 6.93945 9.53463 7.52095 9.53463 8.23826Z" fill="#A8ADB4"/>
<path d="M8.23582 13.0595C8.95313 13.0595 9.53463 12.478 9.53463 11.7607C9.53463 11.0434 8.95313 10.4619 8.23582 10.4619C7.51851 10.4619 6.93701 11.0434 6.93701 11.7607C6.93701 12.478 7.51851 13.0595 8.23582 13.0595Z" fill="#A8ADB4"/>
<path d="M13.063 8.23826C13.063 8.95558 12.4815 9.53707 11.7641 9.53707C11.0468 9.53707 10.4653 8.95558 10.4653 8.23826C10.4653 7.52095 11.0468 6.93945 11.7641 6.93945C12.4815 6.93945 13.063 7.52095 13.063 8.23826Z" fill="#A8ADB4"/>
<path d="M11.7641 13.0595C12.4815 13.0595 13.063 12.478 13.063 11.7607C13.063 11.0434 12.4815 10.4619 11.7641 10.4619C11.0468 10.4619 10.4653 11.0434 10.4653 11.7607C10.4653 12.478 11.0468 13.0595 11.7641 13.0595Z" fill="#A8ADB4"/>
<path fill-rule="evenodd" clip-rule="evenodd" d="M10.0002 16.6654C13.6821 16.6654 16.6668 13.6806 16.6668 9.9987C16.6668 6.3168 13.6821 3.33203 10.0002 3.33203C6.31826 3.33203 3.3335 6.3168 3.3335 9.9987C3.3335 13.6806 6.31826 16.6654 10.0002 16.6654ZM10.0002 15.3654C12.9641 15.3654 15.3668 12.9626 15.3668 9.9987C15.3668 7.03477 12.9641 4.63203 10.0002 4.63203C7.03623 4.63203 4.6335 7.03477 4.6335 9.9987C4.6335 12.9626 7.03623 15.3654 10.0002 15.3654Z" fill="#A8ADB4"/>
</svg>
