<svg width="20" height="20" viewBox="0 0 20 20" fill="none" xmlns="http://www.w3.org/2000/svg">
<path fill-rule="evenodd" clip-rule="evenodd" d="M8.47986 3.82927C9.31801 3.90023 10.1734 4.271 10.7304 5.00517C10.9097 5.24149 11.052 5.47236 11.163 5.70682C11.205 5.69049 11.2464 5.67502 11.2873 5.65979C11.3501 5.63636 11.4114 5.61346 11.4711 5.58873C13.1075 4.89596 15.0462 5.51208 15.7292 7.13874C15.7961 7.29792 15.7968 7.47714 15.7314 7.63688C15.6659 7.79662 15.5396 7.92375 15.3803 7.99024L14.9461 8.17146C16.0675 9.10267 16.6108 10.6276 15.9744 12.0045C15.9598 12.0361 15.9429 12.066 15.9242 12.094C15.7535 12.3493 15.4203 12.4548 15.1281 12.3296L13.2014 11.5039L13.0043 11.4182L11.9955 10.9855L11.3419 10.7065C11.1596 11.8783 10.9828 13.4833 11.5039 16.004C11.5434 16.1954 11.4947 16.3945 11.3713 16.546C11.2479 16.6976 11.0628 16.7856 10.8673 16.7856H7.46854C7.13477 16.7856 6.85525 16.5328 6.82181 16.2007C6.56971 13.6964 6.89669 11.8248 7.79444 10.2482L4.10595 10.2531C3.93312 10.2534 3.76732 10.1848 3.64518 10.0625C3.52304 9.94018 3.45464 9.77429 3.45508 9.60146C3.45643 9.07516 3.59777 8.57895 3.84277 8.13922C4.25244 7.37594 4.97083 6.79289 5.82895 6.51008C6.09635 6.41837 6.37594 6.35651 6.66191 6.32872L5.96824 5.42194C5.75383 5.14166 5.80221 4.74151 6.07724 4.52041C6.75148 3.97837 7.64397 3.75851 8.47986 3.82927ZM12.5067 9.79017L11.1025 9.18787C11.065 9.17177 11.0268 9.15948 10.9883 9.15082C10.8278 9.11034 10.6564 9.13238 10.5101 9.21495C10.3339 9.3143 10.2141 9.48996 10.1858 9.69019C10.1648 9.83869 10.1388 9.99868 10.1107 10.1716C9.93007 11.284 9.66267 12.9304 10.0852 15.4856H8.0669C7.90994 13.0264 8.42317 11.4189 9.48017 10.065C9.60333 9.94657 9.67988 9.78002 9.67964 9.59563C9.67919 9.26206 9.42755 8.98751 9.10391 8.9507C9.07716 8.94733 9.05003 8.94561 9.02262 8.94561H4.90344C4.92805 8.88414 4.956 8.82383 4.98714 8.76491C5.24013 8.31489 5.6824 7.9359 6.22608 7.74493C6.46684 7.66537 6.73004 7.62133 7.00976 7.62133C7.2814 7.62133 7.54118 7.6656 7.7825 7.7441C7.79138 7.74828 7.79999 7.75249 7.80835 7.75674C7.95894 7.83321 8.08141 7.9458 8.2363 8.13683C8.46239 8.41568 8.87172 8.45845 9.15056 8.23237C9.42941 8.00628 9.47218 7.59695 9.24609 7.31811C9.07518 7.1073 8.86944 6.88672 8.58786 6.70674L7.45847 5.23039C7.74003 5.13622 8.0542 5.09789 8.37019 5.12464C8.92153 5.17132 9.40463 5.40856 9.69469 5.7909C9.9789 6.16552 10.1031 6.47361 10.1604 6.8283C10.2011 7.07948 10.3845 7.28385 10.6299 7.35127C10.8752 7.41869 11.1373 7.33676 11.3006 7.14162C11.3876 7.03768 11.4359 7.00841 11.4888 6.98223C11.5285 6.96256 11.578 6.94223 11.6626 6.90979L11.7074 6.8927C11.7804 6.86485 11.8712 6.83025 11.9718 6.78846L11.9763 6.78654C12.7975 6.43818 13.6338 6.61559 14.1477 7.09599L13.3912 7.41172C12.5558 7.25623 11.8358 7.49355 11.4669 7.67077C11.1434 7.82623 11.0071 8.21457 11.1626 8.53815C11.318 8.86172 11.7064 8.998 12.0299 8.84254C12.3054 8.71017 12.8801 8.54028 13.489 8.78942C13.9728 9.00577 14.4 9.37849 14.6623 9.82466C14.8467 10.1383 14.9465 10.4798 14.935 10.8318L13.5209 10.2252L13.2457 10.1055L12.5067 9.79017Z" fill="#A7A7A7"/>
</svg>
