<svg width="20" height="20" viewBox="0 0 20 20" fill="none" xmlns="http://www.w3.org/2000/svg">
<path fill-rule="evenodd" clip-rule="evenodd" d="M2.53922 5.56229C2.66148 5.43751 2.82882 5.36719 3.00352 5.36719H5.39806C5.75232 5.36719 6.04135 5.65087 6.04795 6.00507C6.10228 8.91936 7.1119 10.4031 8.04088 11.0539V6.01719C8.04088 5.6582 8.33189 5.36719 8.69088 5.36719H10.9865C11.3454 5.36719 11.6365 5.6582 11.6365 6.01719V8.56833C11.9055 8.41247 12.183 8.18843 12.4513 7.89778C12.9627 7.3438 13.3812 6.60914 13.5903 5.84552C13.6676 5.56305 13.9243 5.36719 14.2172 5.36719H16.4742C16.6656 5.36719 16.8472 5.45153 16.9707 5.59772C17.0942 5.74392 17.147 5.93711 17.1151 6.1258C16.8019 7.97359 15.7068 9.42558 14.6683 10.3157C15.7782 11.0994 17.0552 12.4757 17.6257 14.578C17.6787 14.7734 17.6377 14.9823 17.5147 15.1431C17.3917 15.3039 17.2008 15.3983 16.9984 15.3983H14.5166C14.2331 15.3983 13.9823 15.2145 13.8968 14.9441C13.5141 13.7329 12.6975 12.8047 11.6365 12.4349V14.7483C11.6365 15.1073 11.3454 15.3983 10.9865 15.3983H10.7122C8.18798 15.3983 6.10103 14.5166 4.63893 12.8564C3.18729 11.208 2.41158 8.86119 2.35365 6.03049C2.35008 5.85583 2.41696 5.68708 2.53922 5.56229ZM3.68181 6.66719C3.8336 8.96669 4.52439 10.7593 5.61454 11.9972C6.72885 13.2625 8.3132 14.009 10.3365 14.0908V11.6299C10.3365 11.4461 10.4143 11.2709 10.5506 11.1477C10.687 11.0244 10.8691 10.9647 11.052 10.9832C12.9186 11.1724 14.3049 12.4622 14.9724 14.0983H16.0901C15.3604 12.3537 14.0459 11.3589 13.2107 10.9554C12.9954 10.8515 12.8546 10.6377 12.844 10.3989C12.8334 10.1601 12.9548 9.93473 13.16 9.81213C13.9928 9.31466 15.137 8.18607 15.6432 6.66719H14.691C14.4012 7.45792 13.9474 8.19362 13.4066 8.77954C12.7671 9.47233 11.9441 10.0197 11.0581 10.1179C10.8743 10.1383 10.6906 10.0795 10.5529 9.95615C10.4152 9.83285 10.3365 9.65673 10.3365 9.47188V6.66719H9.34088V12.0669C9.34088 12.2668 9.24885 12.4556 9.09137 12.5788C8.93388 12.702 8.72846 12.7459 8.53439 12.6978C6.85516 12.2812 5.02764 10.4315 4.77523 6.66719H3.68181Z" fill="#A8ADB4"/>
</svg>
