<svg width="20" height="20" viewBox="0 0 20 20" fill="none" xmlns="http://www.w3.org/2000/svg">
<path d="M14.6123 6.67344C14.6123 7.00481 14.3437 7.27344 14.0123 7.27344H13.6809C13.3495 7.27344 13.0809 7.00481 13.0809 6.67344C13.0809 6.34207 13.3495 6.07344 13.6809 6.07344H14.0123C14.3437 6.07344 14.6123 6.34207 14.6123 6.67344Z" fill="#A8ADB4"/>
<path d="M12.0167 7.27344C12.3481 7.27344 12.6167 7.00481 12.6167 6.67344C12.6167 6.34207 12.3481 6.07344 12.0167 6.07344H11.6815C11.3502 6.07344 11.0815 6.34207 11.0815 6.67344C11.0815 7.00481 11.3502 7.27344 11.6815 7.27344H12.0167Z" fill="#A8ADB4"/>
<path d="M10.1031 6.67344C10.1031 7.00481 9.83443 7.27344 9.50306 7.27344H5.99684C5.66547 7.27344 5.39684 7.00481 5.39684 6.67344C5.39684 6.34207 5.66547 6.07344 5.99684 6.07344H9.50306C9.83443 6.07344 10.1031 6.34207 10.1031 6.67344Z" fill="#A8ADB4"/>
<path d="M13.9616 11.8758C13.9616 12.4517 13.4947 12.9186 12.9188 12.9186C12.3429 12.9186 11.876 12.4517 11.876 11.8758C11.876 11.2999 12.3429 10.833 12.9188 10.833C13.4947 10.833 13.9616 11.2999 13.9616 11.8758Z" fill="#A8ADB4"/>
<path d="M9.99987 12.9186C10.5758 12.9186 11.0427 12.4517 11.0427 11.8758C11.0427 11.2999 10.5758 10.833 9.99987 10.833C9.42394 10.833 8.95706 11.2999 8.95706 11.8758C8.95706 12.4517 9.42394 12.9186 9.99987 12.9186Z" fill="#A8ADB4"/>
<path d="M8.12373 11.8758C8.12373 12.4517 7.65685 12.9186 7.08092 12.9186C6.505 12.9186 6.03812 12.4517 6.03812 11.8758C6.03812 11.2999 6.505 10.833 7.08092 10.833C7.65685 10.833 8.12373 11.2999 8.12373 11.8758Z" fill="#A8ADB4"/>
<path fill-rule="evenodd" clip-rule="evenodd" d="M14.4252 4.02734C15.7507 4.02734 16.8252 5.10186 16.8252 6.42735V13.5808C16.8252 14.9063 15.7507 15.9808 14.4252 15.9808H5.57822C4.25274 15.9808 3.17822 14.9063 3.17822 13.5808V6.42734C3.17822 5.10186 4.25274 4.02734 5.57822 4.02734H14.4252ZM15.5252 6.42735C15.5252 5.81983 15.0327 5.32734 14.4252 5.32734H5.57822C4.97071 5.32734 4.47822 5.81983 4.47822 6.42734V7.92676H15.5252V6.42735ZM15.5252 9.22676H4.47822V13.5808C4.47822 14.1883 4.97071 14.6808 5.57822 14.6808H14.4252C15.0327 14.6808 15.5252 14.1883 15.5252 13.5808V9.22676Z" fill="#A8ADB4"/>
</svg>
