<svg width="16" height="16" viewBox="0 0 16 16" fill="none" xmlns="http://www.w3.org/2000/svg">
<path d="M0.557708 8C0.249694 8 -0.00202419 8.25001 0.0194294 8.55728C0.116209 9.94339 0.572727 11.2839 1.34824 12.4446C2.22729 13.7602 3.47672 14.7855 4.93853 15.391C6.40034 15.9965 8.00887 16.155 9.56072 15.8463C11.1126 15.5376 12.538 14.7757 13.6569 13.6569C14.7757 12.538 15.5376 11.1126 15.8463 9.56072C16.155 8.00887 15.9965 6.40034 15.391 4.93853C14.7855 3.47672 13.7602 2.22729 12.4446 1.34824C11.2839 0.572727 9.94339 0.116209 8.55728 0.0194294C8.25001 -0.00202419 8 0.249694 8 0.557708C8 0.865722 8.25012 1.11307 8.55712 1.13799C9.72239 1.23259 10.8477 1.62276 11.8249 2.27568C12.957 3.03216 13.8394 4.10739 14.3605 5.36538C14.8816 6.62338 15.0179 8.00764 14.7523 9.34311C14.4867 10.6786 13.831 11.9053 12.8681 12.8681C11.9053 13.831 10.6786 14.4867 9.34311 14.7523C8.00764 15.0179 6.62338 14.8816 5.36538 14.3605C4.10739 13.8394 3.03217 12.957 2.27568 11.8249C1.62276 10.8477 1.23259 9.72239 1.13799 8.55712C1.11307 8.25012 0.865722 8 0.557708 8Z" fill="white"/>
<path fill-rule="evenodd" clip-rule="evenodd" d="M7.91494 3.40649C8.24631 3.40649 8.51494 3.67512 8.51494 4.00649V7.50991L11.3679 7.50989C11.6993 7.50989 11.9679 7.77852 11.9679 8.10989C11.9679 8.44126 11.6993 8.70989 11.3679 8.70989L7.91494 8.70991C7.75581 8.70992 7.6032 8.6467 7.49068 8.53418C7.37815 8.42166 7.31494 8.26904 7.31494 8.10991V4.00649C7.31494 3.67512 7.58357 3.40649 7.91494 3.40649Z" fill="white"/>
</svg>
