<svg width="54" height="54" viewBox="0 0 54 54" fill="none" xmlns="http://www.w3.org/2000/svg">
<path fill-rule="evenodd" clip-rule="evenodd" d="M15.2397 18.4633C14.556 17.805 14.3923 16.7187 14.9047 15.8312L14.9345 15.7797C15.3807 15.0068 16.2138 14.6026 17.0238 14.6847L20.9704 16.9633L21.009 16.8964C21.009 16.8964 21.4596 16.8612 21.6068 16.6061C21.674 16.4897 21.6745 16.3336 21.6552 16.1982L19.7137 15.0794C19.03 14.4212 18.8663 13.3348 19.3787 12.4473L19.4084 12.3958C20.0081 11.3573 21.4987 11.4465 22.5007 12.025L37.7341 20.4596L37.7049 20.4112C36.9408 19.1378 36.1279 17.734 36.1339 16.719C36.1422 15.3005 36.4732 14.8053 37.0237 14.1011L37.1722 13.912C37.4607 13.5445 37.8596 13.2629 38.3691 13.0672C38.8036 12.9003 39.2802 13.1031 39.4562 13.5298L45.8272 25.761L45.8745 26.63C45.952 26.8338 45.5327 27.5552 45.3841 27.8108C45.3748 27.8268 45.3666 27.8409 45.3596 27.853L39.4004 38.1747L39.3897 38.1926C39.2557 38.4114 39.0253 38.5521 38.7746 38.567C33.9093 38.8551 29.5439 37.1535 27.9359 36.4477C26.3279 35.7419 23.1399 33.9281 23.1399 33.9281L17.2631 30.3236C16.4259 29.8402 15.7694 28.6672 16.2704 27.7994C16.7715 26.9316 17.8564 26.6199 18.6936 27.1033L19.8542 27.8158C19.8714 27.7465 19.8716 27.6579 19.8475 27.5448C19.7553 27.1128 19.3702 26.6153 19.0996 26.3081L14.6582 23.6918C13.9973 23.0511 13.8402 21.9976 14.3373 21.1366C14.7691 20.3887 15.5734 19.9957 16.3575 20.0704L18.4527 21.3241L18.5317 21.1872C18.5317 21.1872 18.8778 21.2189 18.9986 21.0098C19.0598 20.9038 19.0483 20.7616 19.0222 20.647L15.2397 18.4633Z" fill="#D9B606"/>
<path fill-rule="evenodd" clip-rule="evenodd" d="M16.2866 20.4659L16.2228 20.3602C15.5188 19.1926 15.7231 17.6938 16.6871 16.7298L16.7263 16.6906C17.5686 15.8483 18.8102 15.5893 19.8892 15.9989L20.091 16.0755L20.6609 16.6455C20.7169 15.9526 21.0156 15.2798 21.5339 14.7616L21.5731 14.7223C22.2453 14.0501 23.1265 13.9378 23.8829 14.0915C24.6171 14.2406 25.3079 14.6459 25.8127 15.1481L35.2494 24.2522C35.229 23.848 35.2526 23.4418 35.3554 23.0671C35.5493 22.3601 35.7816 21.8324 36.103 21.3967C36.4213 20.9651 36.7889 20.6793 37.1267 20.4249L37.1283 20.4237L37.3076 20.2893C37.8114 19.9114 38.4068 19.7031 39.0564 19.6347C39.9899 19.5363 40.8574 20.1824 41.0083 21.1299L43.8329 33.8564L43.6379 34.783C43.6221 34.9336 43.5792 35.0503 43.5531 35.1143C43.5077 35.2256 43.4514 35.3214 43.405 35.3931C43.3116 35.5374 43.1973 35.6768 43.0994 35.7888C42.9231 35.9906 42.728 36.1843 42.6387 36.2729C42.6275 36.2841 42.6179 36.2936 42.6103 36.3012L34.7426 44.1689L34.72 44.1908C34.3357 44.5557 33.7833 44.7306 33.2288 44.6167C28.5438 43.6541 24.8712 40.9482 23.5524 39.8918C22.8761 39.35 21.9199 38.4658 21.1533 37.7385C20.7654 37.3705 20.4181 37.0351 20.1678 36.7917C20.0426 36.67 19.9415 36.5711 19.8716 36.5025L19.7909 36.4232L19.7626 36.3954C19.7626 36.3953 19.762 36.3948 20.4332 35.7146C20.4332 35.7146 22.867 38.1179 24.1451 39.1418C25.4232 40.1657 28.9447 42.752 33.3968 43.6667C33.6262 43.7138 33.8676 43.6427 34.0412 43.4779L34.0551 43.4644L41.9143 35.6052C41.9235 35.596 41.9343 35.5852 41.9465 35.5731C42.1421 35.3787 42.6939 34.8301 42.6733 34.6278L42.8404 33.8337L40.0538 21.2784C39.9982 20.8516 39.6179 20.554 39.1863 20.5994C38.6801 20.6527 38.2527 20.8101 37.9042 21.0715L37.7248 21.206C37.059 21.7074 36.6413 22.0737 36.2914 23.3493C36.1476 23.8736 36.2162 24.5786 36.3728 25.3361C36.4888 25.8974 36.6532 26.4876 36.8154 27.0543L36.83 27.105L36.7856 27.0621L25.144 15.8307C24.3811 15.0678 23.0599 14.6276 22.2691 15.4184L22.2299 15.4576C21.5738 16.1137 21.4465 17.0924 21.8579 17.8425C21.8703 17.865 21.8831 17.8873 21.8964 17.9094L28.5589 24.5612C28.7022 24.7044 28.701 24.939 28.5585 25.0911L28.4316 25.2184C28.2831 25.3669 28.0484 25.3741 27.9013 25.237L27.8926 25.2286L19.5687 16.9046C18.8589 16.6351 18.0108 16.7982 17.4224 17.3866L17.3831 17.4258C16.7074 18.1016 16.5926 19.1197 17.0496 19.8776L25.7516 28.5795C25.7553 28.5832 25.7589 28.587 25.7624 28.5908C25.8948 28.7348 25.8901 28.9613 25.7513 29.1094L25.742 29.119L25.6243 29.2367C25.4758 29.3852 25.2411 29.3925 25.094 29.2553L25.0848 29.2464L17.6686 21.5951C17.5565 21.5533 17.4409 21.5226 17.3235 21.5028C16.7201 21.4015 16.0682 21.5911 15.5915 22.0678C14.9359 22.7234 14.8232 23.7103 15.2638 24.447L22.97 32.2892C22.9764 32.2956 22.9826 32.3022 22.9884 32.3089C23.1129 32.4533 23.1058 32.6738 22.9696 32.8191L22.9604 32.8287L22.8427 32.9464C22.6942 33.0949 22.4595 33.1021 22.3124 32.965L22.3032 32.9561L18.0754 28.4939C17.9248 28.3433 17.751 28.2294 17.5648 28.1518C16.9625 27.9012 16.2293 28.0314 15.7246 28.5361C15.0638 29.1969 15.3721 30.4119 16.0096 31.0494L20.4332 35.7146L19.7626 36.3954L19.7502 36.3831L15.3234 31.7145C14.8552 31.2415 14.5277 30.5879 14.4224 29.926C14.3153 29.2534 14.4252 28.4434 15.0286 27.84C15.4398 27.4289 15.9671 27.172 16.5194 27.088L14.4972 25.0301L14.4352 24.9266C13.7499 23.7809 13.9523 22.315 14.8955 21.3718C15.3154 20.9518 15.8367 20.6796 16.3869 20.5662L16.2866 20.4659Z" fill="#CD942F"/>
<path fill-rule="evenodd" clip-rule="evenodd" d="M17.3832 17.426C16.7074 18.1017 16.5926 19.1198 17.0496 19.8777L25.7517 28.5796C25.8949 28.7229 25.8938 28.9575 25.7513 29.1095L25.742 29.1191L25.6243 29.2368C25.4758 29.3853 25.2411 29.3926 25.0941 29.2554L25.0848 29.2465L17.6686 21.5952C16.9803 21.3386 16.161 21.4985 15.5915 22.0679C14.9359 22.7236 14.8232 23.7105 15.2638 24.4471L22.97 32.2893C23.1133 32.4326 23.1121 32.6671 22.9697 32.8192L22.9604 32.8288L22.8427 32.9465C22.6942 33.095 22.4595 33.1022 22.3124 32.9651L22.3032 32.9562L18.0754 28.494C17.4379 27.8565 16.3854 27.8754 15.7246 28.5362C15.0639 29.197 15.3721 30.412 16.0096 31.0495L20.4332 35.7147C20.4332 35.7147 22.867 38.118 24.1451 39.1419C25.4232 40.1658 28.9448 42.7521 33.3968 43.6668C33.6262 43.714 33.8676 43.6428 34.0412 43.4781L34.0551 43.4645L41.9143 35.6053C42.0709 35.4487 42.6952 34.8429 42.6733 34.6279L42.8405 33.8338L40.0539 21.2786C39.9982 20.8517 39.6179 20.5541 39.1863 20.5995C38.6801 20.6528 38.2528 20.8102 37.9043 21.0716L37.7248 21.2061C37.059 21.7076 36.6413 22.0738 36.2914 23.3495C36.0411 24.2623 36.4344 25.723 36.8154 27.0545L36.83 27.1051L25.144 15.8308C24.3811 15.0679 23.0599 14.6277 22.2692 15.4185L22.2299 15.4577C21.5542 16.1335 21.4394 17.1515 21.8964 17.9095L28.5589 24.5613C28.7022 24.7045 28.701 24.9391 28.5586 25.0912L28.4316 25.2185C28.2831 25.367 28.0484 25.3742 27.9013 25.2371L27.8921 25.2281L19.5687 16.9047C18.8589 16.6352 18.0108 16.7983 17.4224 17.3867L17.3832 17.426Z" fill="url(#paint0_radial_37963_15616)"/>
<g opacity="0.5">
<path d="M9.17084 6.94153C8.76981 6.51147 8.79333 5.83774 9.22339 5.4367C9.65346 5.03566 10.3272 5.05919 10.7282 5.48925L14.1169 9.12315C14.5179 9.55321 14.4944 10.2269 14.0643 10.628C13.6343 11.029 12.9605 11.0055 12.5595 10.5754L9.17084 6.94153Z" fill="#333333"/>
<path fill-rule="evenodd" clip-rule="evenodd" d="M11.4596 4.80705L14.8483 8.44095C15.626 9.27492 15.5803 10.5814 14.7464 11.3591C13.9124 12.1368 12.6059 12.0912 11.8282 11.2572L8.43951 7.62333C7.66182 6.78935 7.70744 5.48283 8.54142 4.70514C9.37539 3.92745 10.6819 3.97307 11.4596 4.80705ZM9.22342 5.43649C8.79336 5.83753 8.76983 6.51127 9.17087 6.94133L12.5595 10.5752C12.9606 11.0053 13.6343 11.0288 14.0644 10.6278C14.4944 10.2267 14.518 9.553 14.1169 9.12294L10.7283 5.48904C10.3272 5.05898 9.65348 5.03546 9.22342 5.43649Z" fill="white" fill-opacity="0.51049"/>
<path fill-rule="evenodd" clip-rule="evenodd" d="M16.889 3.14071C16.7567 2.56774 17.1139 1.99603 17.6869 1.86376C18.2599 1.73148 18.8316 2.08872 18.9638 2.66168L20.0816 7.50307C20.2138 8.07603 19.8566 8.64774 19.2836 8.78002C18.7107 8.91229 18.139 8.55505 18.0067 7.98209L16.889 3.14071Z" fill="#333333"/>
<path fill-rule="evenodd" clip-rule="evenodd" d="M19.9382 2.43678L21.056 7.27816C21.3125 8.38925 20.6197 9.49792 19.5086 9.75443C18.3975 10.0109 17.2888 9.31818 17.0323 8.20709L15.9146 3.3657C15.6581 2.25461 16.3509 1.14595 17.462 0.889433C18.573 0.632917 19.6817 1.32569 19.9382 2.43678ZM17.6869 1.8638C17.1139 1.99608 16.7567 2.56779 16.889 3.14075L18.0067 7.98214C18.139 8.5551 18.7107 8.91234 19.2837 8.78006C19.8566 8.64778 20.2139 8.07607 20.0816 7.50311L18.9639 2.66173C18.8316 2.08877 18.2599 1.73152 17.6869 1.8638Z" fill="white" fill-opacity="0.51049"/>
<path fill-rule="evenodd" clip-rule="evenodd" d="M6.85581 12.4968C6.29347 12.3248 5.69824 12.6413 5.52631 13.2037C5.35439 13.766 5.67088 14.3612 6.23322 14.5332L10.9848 15.9859C11.5472 16.1578 12.1424 15.8413 12.3143 15.279C12.4863 14.7166 12.1698 14.1214 11.6074 13.9495L6.85581 12.4968Z" fill="#333333"/>
<path fill-rule="evenodd" clip-rule="evenodd" d="M10.6925 16.9422L5.94086 15.4895C4.85037 15.1561 4.23662 14.0018 4.57002 12.9113C4.90342 11.8208 6.0577 11.2071 7.1482 11.5405L11.8998 12.9932C12.9903 13.3266 13.6041 14.4809 13.2707 15.5714C12.9373 16.6619 11.783 17.2756 10.6925 16.9422ZM5.52633 13.2037C5.69825 12.6414 6.29349 12.3249 6.85583 12.4968L11.6074 13.9495C12.1698 14.1214 12.4863 14.7167 12.3144 15.279C12.1424 15.8414 11.5472 16.1579 10.9849 15.9859L6.23323 14.5332C5.67089 14.3613 5.3544 13.7661 5.52633 13.2037Z" fill="white" fill-opacity="0.51049"/>
</g>
<g opacity="0.5">
<path fill-rule="evenodd" clip-rule="evenodd" d="M45.3995 11.0495C45.9038 10.743 46.5612 10.9051 46.8651 11.411C47.1669 11.9132 47.0062 12.5648 46.5055 12.8692L43.6296 14.6174C43.1253 14.9239 42.4678 14.7618 42.1639 14.2559C41.8621 13.7537 42.0228 13.1021 42.5235 12.7978L45.3995 11.0495Z" fill="#333333"/>
<path fill-rule="evenodd" clip-rule="evenodd" d="M47.025 13.7237L44.149 15.4719C43.171 16.0664 41.8961 15.752 41.3067 14.771C40.7215 13.7971 41.0332 12.5334 42.004 11.9433L44.88 10.1951C45.858 9.60062 47.1329 9.91501 47.7223 10.896C48.3075 11.8699 47.9958 13.1336 47.025 13.7237ZM46.8651 11.411C46.5612 10.9052 45.9037 10.743 45.3994 11.0496L42.5235 12.7978C42.0228 13.1021 41.8621 13.7538 42.1639 14.256C42.4678 14.7618 43.1252 14.924 43.6295 14.6174L46.5055 12.8692C47.0062 12.5649 47.1669 11.9132 46.8651 11.411Z" fill="white" fill-opacity="0.51049"/>
<path d="M39.3608 6.10799C39.6459 5.59368 40.2939 5.40786 40.8082 5.69295C41.3226 5.97803 41.5084 6.62607 41.2233 7.14037L39.4572 10.3265C39.1721 10.8408 38.5241 11.0266 38.0098 10.7415C37.4955 10.4564 37.3097 9.80839 37.5947 9.29409L39.3608 6.10799Z" fill="#333333"/>
<path fill-rule="evenodd" clip-rule="evenodd" d="M42.0979 7.62523L40.3318 10.8113C39.779 11.8087 38.5223 12.169 37.525 11.6162C36.5276 11.0633 36.1673 9.80668 36.7201 8.80933L38.4862 5.62323C39.039 4.62589 40.2957 4.26555 41.293 4.81838C42.2904 5.37122 42.6507 6.62789 42.0979 7.62523ZM40.8082 5.693C40.2939 5.40792 39.6459 5.59374 39.3608 6.10804L37.5947 9.29414C37.3096 9.80845 37.4955 10.4565 38.0098 10.7416C38.5241 11.0266 39.1721 10.8408 39.4572 10.3265L41.2233 7.14042C41.5084 6.62612 41.3225 5.97809 40.8082 5.693Z" fill="white" fill-opacity="0.51049"/>
</g>
<defs>
<radialGradient id="paint0_radial_37963_15616" cx="0" cy="0" r="1" gradientTransform="matrix(10.2262 19.0649 -17.8036 8.84017 23.8639 24.1566)" gradientUnits="userSpaceOnUse">
<stop stop-color="#FBEB9D"/>
<stop offset="0.34375" stop-color="#F6E071"/>
<stop offset="1" stop-color="#ECC91A"/>
</radialGradient>
</defs>
</svg>
