<svg width="54" height="54" viewBox="0 0 54 54" fill="none" xmlns="http://www.w3.org/2000/svg">
<circle opacity="0.01" cx="27" cy="27" r="19" fill="white"/>
<circle cx="27" cy="27" r="17" fill="url(#paint0_radial_37963_15602)"/>
<g opacity="0.5">
<path fill-rule="evenodd" clip-rule="evenodd" d="M27 44C36.3888 44 44 36.3888 44 27C44 17.6112 36.3888 10 27 10C17.6112 10 10 17.6112 10 27C10 36.3888 17.6112 44 27 44ZM27.0001 42.5141C35.5683 42.5141 42.5141 35.5683 42.5141 27.0001C42.5141 18.4319 35.5683 11.4861 27.0001 11.4861C18.4319 11.4861 11.4861 18.4319 11.4861 27.0001C11.4861 35.5683 18.4319 42.5141 27.0001 42.5141Z" fill="url(#paint1_radial_37963_15602)"/>
<path fill-rule="evenodd" clip-rule="evenodd" d="M27 44C36.3888 44 44 36.3888 44 27C44 17.6112 36.3888 10 27 10C17.6112 10 10 17.6112 10 27C10 36.3888 17.6112 44 27 44ZM27.0001 42.5141C35.5683 42.5141 42.5141 35.5683 42.5141 27.0001C42.5141 18.4319 35.5683 11.4861 27.0001 11.4861C18.4319 11.4861 11.4861 18.4319 11.4861 27.0001C11.4861 35.5683 18.4319 42.5141 27.0001 42.5141Z" fill="#C08200" fill-opacity="0.28"/>
</g>
<ellipse cx="21.6107" cy="23.4271" rx="1.65651" ry="2.42712" fill="#222222"/>
<ellipse cx="32.4083" cy="23.4271" rx="1.65651" ry="2.42712" fill="#222222"/>
<path opacity="0.5" fill-rule="evenodd" clip-rule="evenodd" d="M18.0156 19.6755C17.9908 19.4924 18.0938 19.2996 18.2711 19.1792C19.2519 18.5125 20.3584 18.14 21.4233 18.2015C21.9739 18.2331 22.4629 18.3808 22.8841 18.6178C22.9907 18.6782 23.0557 18.7835 23.0717 18.9025L23.0765 18.9382C23.1251 19.3036 22.6932 19.6393 22.3323 19.5075C22.0277 19.3966 21.6953 19.3276 21.3375 19.3071C20.4623 19.2569 19.5592 19.4998 18.7207 19.9572C18.4113 20.126 18.0557 19.9771 18.0156 19.6755Z" fill="#783E11"/>
<path opacity="0.5" fill-rule="evenodd" clip-rule="evenodd" d="M36.0035 19.6755C36.0282 19.4924 35.9253 19.2996 35.748 19.1792C34.7672 18.5125 33.6606 18.14 32.5957 18.2015C32.0451 18.2331 31.5562 18.3808 31.135 18.6178C31.0284 18.6782 30.9633 18.7835 30.9473 18.9025L30.9426 18.9382C30.894 19.3036 31.3259 19.6393 31.6867 19.5075C31.9914 19.3966 32.3237 19.3276 32.6815 19.3071C33.5567 19.2569 34.4598 19.4998 35.2984 19.9572C35.6078 20.126 35.9634 19.9771 36.0035 19.6755Z" fill="#783E11"/>
<path fill-rule="evenodd" clip-rule="evenodd" d="M36.388 32.1243C36.514 31.3719 36.2316 30.8073 35.74 30.3967C35.1959 29.9421 34.2137 29.8074 33.4803 30.3967C31.0286 32.1789 30.0325 33.1919 26.9315 33.1913C23.83 33.1907 23.0634 32.142 20.4934 30.3967C19.5659 29.7669 18.6933 29.9638 18.1266 30.4536C17.5599 30.9433 17.535 31.5716 17.6163 32.1724C18.0622 35.4667 22.4301 39 26.9315 39C31.433 39 35.8318 35.4458 36.388 32.1243Z" fill="url(#paint2_radial_37963_15602)"/>
<path fill-rule="evenodd" clip-rule="evenodd" d="M34.9904 31.9378C35.0729 31.4264 34.6058 31.4318 34.3495 31.638C32.2516 33.3243 29.6695 34.8795 26.9457 34.879C24.2213 34.8784 21.7451 33.3216 19.6482 31.6347C19.392 31.4285 18.9365 31.4097 19.0074 31.9339C19.307 34.148 22.9916 37.5 26.9457 37.5C30.8997 37.5 34.652 34.0349 34.9904 31.9378Z" fill="white"/>
<path d="M29.6227 28.2131C29.6227 29.6616 28.4484 30.8358 26.9999 30.8358C25.5514 30.8358 24.3772 29.6616 24.3772 28.2131C24.3772 26.7646 25.5514 25.5903 26.9999 25.5903C28.4484 25.5903 29.6227 26.7646 29.6227 28.2131Z" fill="url(#paint3_radial_37963_15602)"/>
<path d="M29.6227 28.2131C29.6227 29.6616 28.4484 30.8358 26.9999 30.8358C25.5514 30.8358 24.3772 29.6616 24.3772 28.2131C24.3772 26.7646 25.5514 25.5903 26.9999 25.5903C28.4484 25.5903 29.6227 26.7646 29.6227 28.2131Z" fill="#E31F37" fill-opacity="0.48"/>
<path d="M16.7965 16.632C16.9752 17.5594 16.7055 18.5561 15.9874 19.2742C14.8374 20.4242 12.9728 20.4242 11.8227 19.2742C10.6727 18.1241 10.6727 16.2595 11.8227 15.1095C12.5408 14.3914 13.5375 14.1217 14.4649 14.3004C14.2862 13.373 14.5559 12.3764 15.274 11.6583C16.424 10.5082 18.2886 10.5082 19.4386 11.6583C20.5887 12.8083 20.5887 14.6729 19.4386 15.8229C18.7206 16.541 17.7239 16.8107 16.7965 16.632Z" fill="#FF5752"/>
<path d="M16.0715 13.84C16.9353 12.9762 16.9353 11.5757 16.0715 10.7119C15.2077 9.84813 13.8072 9.84813 12.9434 10.7119C12.5462 11.1091 12.3317 11.6198 12.2997 12.1396C11.7842 12.1735 11.2783 12.3875 10.8843 12.7815C10.022 13.6439 10.022 15.042 10.8843 15.9043C11.7467 16.7667 13.1448 16.7667 14.0071 15.9043C14.4026 15.5089 14.6167 15.0008 14.6494 14.4833C15.1673 14.4502 15.6757 14.2358 16.0715 13.84Z" fill="#FF5752"/>
<path d="M12.8117 10.465C13.4142 11.0676 13.4142 12.0446 12.8117 12.6472C12.2091 13.2498 11.2321 13.2498 10.6295 12.6472C10.0269 12.0446 10.0269 11.0676 10.6295 10.465C11.2321 9.86241 12.2091 9.86241 12.8117 10.465Z" fill="#FF5752"/>
<path d="M17.8884 15.3635C18.5402 16.0153 18.5402 17.0721 17.8884 17.7239C17.2366 18.3757 16.1798 18.3757 15.528 17.7239C14.8761 17.0721 14.8761 16.0153 15.528 15.3635C16.1798 14.7117 17.2366 14.7117 17.8884 15.3635Z" fill="#FF5752"/>
<path d="M37.2035 16.7964C37.0248 17.7237 37.2945 18.7204 38.0126 19.4385C39.1626 20.5885 41.0272 20.5885 42.1773 19.4385C43.3273 18.2884 43.3273 16.4239 42.1773 15.2738C41.4592 14.5557 40.4625 14.286 39.5351 14.4647C39.7138 13.5373 39.4441 12.5407 38.726 11.8226C37.576 10.6725 35.7114 10.6725 34.5614 11.8226C33.4113 12.9726 33.4113 14.8372 34.5614 15.9872C35.2794 16.7053 36.2761 16.975 37.2035 16.7964Z" fill="#FF5752"/>
<path d="M37.9285 14.0043C37.0647 13.1405 37.0647 11.74 37.9285 10.8762C38.7923 10.0124 40.1928 10.0124 41.0566 10.8762C41.4538 11.2734 41.6683 11.7841 41.7003 12.3039C42.2158 12.3378 42.7217 12.5518 43.1157 12.9458C43.978 13.8082 43.978 15.2063 43.1157 16.0686C42.2533 16.931 40.8552 16.931 39.9929 16.0686C39.5974 15.6732 39.3833 15.1651 39.3506 14.6476C38.8327 14.6145 38.3243 14.4001 37.9285 14.0043Z" fill="#FF5752"/>
<path d="M41.1883 10.6293C40.5858 11.2319 40.5858 12.2089 41.1883 12.8115C41.7909 13.4141 42.7679 13.4141 43.3705 12.8115C43.9731 12.2089 43.9731 11.2319 43.3705 10.6293C42.7679 10.0267 41.7909 10.0267 41.1883 10.6293Z" fill="#FF5752"/>
<path d="M36.1116 15.5278C35.4598 16.1796 35.4598 17.2364 36.1116 17.8882C36.7634 18.54 37.8202 18.54 38.472 17.8882C39.1239 17.2364 39.1239 16.1796 38.472 15.5278C37.8202 14.876 36.7634 14.876 36.1116 15.5278Z" fill="#FF5752"/>
<defs>
<radialGradient id="paint0_radial_37963_15602" cx="0" cy="0" r="1" gradientUnits="userSpaceOnUse" gradientTransform="translate(25.4754 17.0096) rotate(73.7184) scale(27.5504)">
<stop stop-color="#FEFDF8"/>
<stop offset="0.500403" stop-color="#EAE4C1"/>
<stop offset="0.836391" stop-color="#EADBAC"/>
<stop offset="1" stop-color="#CFC79A"/>
</radialGradient>
<radialGradient id="paint1_radial_37963_15602" cx="0" cy="0" r="1" gradientUnits="userSpaceOnUse" gradientTransform="translate(25.4754 17.0096) rotate(73.7184) scale(27.5504)">
<stop stop-color="#FEFDF8"/>
<stop offset="0.34375" stop-color="#EAE4C1"/>
<stop offset="0.786458" stop-color="#EADBAC"/>
<stop offset="1" stop-color="#CFC79A"/>
</radialGradient>
<radialGradient id="paint2_radial_37963_15602" cx="0" cy="0" r="1" gradientTransform="matrix(11.1872 -0.11494 0.0978151 16.7174 26.937 33.2279)" gradientUnits="userSpaceOnUse">
<stop stop-color="#FF5F5A"/>
<stop offset="1" stop-color="#F03D37"/>
</radialGradient>
<radialGradient id="paint3_radial_37963_15602" cx="0" cy="0" r="1" gradientTransform="matrix(0.274068 4.20495 -4.19982 0.27689 26.9999 26.6309)" gradientUnits="userSpaceOnUse">
<stop stop-color="#FFADAB"/>
<stop offset="0.34375" stop-color="#FF8885"/>
<stop offset="1" stop-color="#DC2621"/>
</radialGradient>
</defs>
</svg>
