<svg width="54" height="54" viewBox="0 0 54 54" fill="none" xmlns="http://www.w3.org/2000/svg">
<circle cx="27" cy="27" r="17" fill="url(#paint0_radial_37963_15633)"/>
<g opacity="0.5">
<path fill-rule="evenodd" clip-rule="evenodd" d="M27 44C36.3888 44 44 36.3888 44 27C44 17.6112 36.3888 10 27 10C17.6112 10 10 17.6112 10 27C10 36.3888 17.6112 44 27 44ZM27.0001 42.5141C35.5683 42.5141 42.5141 35.5683 42.5141 27.0001C42.5141 18.4319 35.5683 11.4861 27.0001 11.4861C18.4319 11.4861 11.4861 18.4319 11.4861 27.0001C11.4861 35.5683 18.4319 42.5141 27.0001 42.5141Z" fill="url(#paint1_radial_37963_15633)"/>
<path fill-rule="evenodd" clip-rule="evenodd" d="M27 44C36.3888 44 44 36.3888 44 27C44 17.6112 36.3888 10 27 10C17.6112 10 10 17.6112 10 27C10 36.3888 17.6112 44 27 44ZM27.0001 42.5141C35.5683 42.5141 42.5141 35.5683 42.5141 27.0001C42.5141 18.4319 35.5683 11.4861 27.0001 11.4861C18.4319 11.4861 11.4861 18.4319 11.4861 27.0001C11.4861 35.5683 18.4319 42.5141 27.0001 42.5141Z" fill="#C08200" fill-opacity="0.28"/>
</g>
<path opacity="0.5" fill-rule="evenodd" clip-rule="evenodd" d="M36.3233 21.7537C36.3732 21.5759 36.2981 21.3706 36.1393 21.2267C35.2608 20.43 34.2169 19.9072 33.1538 19.8198C32.6042 19.7745 32.0994 19.8527 31.6493 20.0287C31.5354 20.0738 31.4563 20.169 31.4239 20.2846L31.4142 20.3193C31.3152 20.6744 31.6962 21.0669 32.0719 20.9866C32.389 20.9192 32.7277 20.8971 33.0849 20.9266C33.9586 20.9987 34.8191 21.3649 35.5858 21.9346C35.8687 22.1448 36.2416 22.0469 36.3233 21.7537Z" fill="#783E11"/>
<path opacity="0.5" fill-rule="evenodd" clip-rule="evenodd" d="M17.7274 21.7537C17.6774 21.5759 17.7525 21.3706 17.9113 21.2267C18.7898 20.43 19.8337 19.9072 20.8968 19.8198C21.4465 19.7745 21.9512 19.8527 22.4013 20.0287C22.5153 20.0738 22.5943 20.169 22.6268 20.2846L22.6364 20.3193C22.7354 20.6744 22.3544 21.0669 21.9788 20.9866C21.6617 20.9192 21.3229 20.8971 20.9657 20.9266C20.0921 20.9987 19.2316 21.3649 18.4648 21.9346C18.182 22.1448 17.8091 22.0469 17.7274 21.7537Z" fill="#783E11"/>
<ellipse cx="20.7738" cy="25.2137" rx="1.65651" ry="2.42712" fill="#783E11"/>
<ellipse cx="33.357" cy="25.2137" rx="1.65651" ry="2.42712" fill="#783E11"/>
<path fill-rule="evenodd" clip-rule="evenodd" d="M19.5552 35.5478C19.5552 35.8556 19.9135 36.0255 20.1522 35.8308C22.1066 34.2386 24.4632 33.3079 27.0007 33.3084C29.5387 33.309 31.8943 34.2411 33.8478 35.8339C34.0865 36.0286 34.4448 35.8587 34.4448 35.5514V34.5576C34.4448 34.4527 34.4005 34.351 34.3227 34.2813C32.2811 32.4417 29.748 31.3494 27.0012 31.3489C24.2544 31.3484 21.7204 32.4391 19.6778 34.2777C19.6 34.3479 19.5557 34.4491 19.5557 34.554L19.5552 35.5478Z" fill="#783E11"/>
<ellipse cx="37.2341" cy="29.0652" rx="2.09849" ry="3.77728" transform="rotate(-10 37.2341 29.0652)" fill="#29B5E2"/>
<defs>
<radialGradient id="paint0_radial_37963_15633" cx="0" cy="0" r="1" gradientUnits="userSpaceOnUse" gradientTransform="translate(25.4754 17.0096) rotate(73.7184) scale(27.5504)">
<stop stop-color="#FFF1AA"/>
<stop offset="0.34375" stop-color="#FFE564"/>
<stop offset="0.760417" stop-color="#F4CC00"/>
<stop offset="1" stop-color="#F29E0B"/>
</radialGradient>
<radialGradient id="paint1_radial_37963_15633" cx="0" cy="0" r="1" gradientUnits="userSpaceOnUse" gradientTransform="translate(25.4754 17.0096) rotate(73.7184) scale(27.5504)">
<stop stop-color="#FBEB9D"/>
<stop offset="0.34375" stop-color="#F6E071"/>
<stop offset="0.786458" stop-color="#ECC91A"/>
<stop offset="1" stop-color="#E3BE00"/>
</radialGradient>
</defs>
</svg>
