<svg width="54" height="54" viewBox="0 0 54 54" fill="none" xmlns="http://www.w3.org/2000/svg">
<circle cx="27" cy="27" r="17" fill="url(#paint0_radial_37963_15622)"/>
<g opacity="0.5">
<path fill-rule="evenodd" clip-rule="evenodd" d="M27 44C36.3888 44 44 36.3888 44 27C44 17.6112 36.3888 10 27 10C17.6112 10 10 17.6112 10 27C10 36.3888 17.6112 44 27 44ZM27.0001 42.5141C35.5683 42.5141 42.5141 35.5683 42.5141 27.0001C42.5141 18.4319 35.5683 11.4861 27.0001 11.4861C18.4319 11.4861 11.4861 18.4319 11.4861 27.0001C11.4861 35.5683 18.4319 42.5141 27.0001 42.5141Z" fill="url(#paint1_radial_37963_15622)"/>
<path fill-rule="evenodd" clip-rule="evenodd" d="M27 44C36.3888 44 44 36.3888 44 27C44 17.6112 36.3888 10 27 10C17.6112 10 10 17.6112 10 27C10 36.3888 17.6112 44 27 44ZM27.0001 42.5141C35.5683 42.5141 42.5141 35.5683 42.5141 27.0001C42.5141 18.4319 35.5683 11.4861 27.0001 11.4861C18.4319 11.4861 11.4861 18.4319 11.4861 27.0001C11.4861 35.5683 18.4319 42.5141 27.0001 42.5141Z" fill="#C08200" fill-opacity="0.28"/>
</g>
<path fill-rule="evenodd" clip-rule="evenodd" d="M36.2102 20.4909C36.2425 20.5924 36.2166 20.7113 36.1363 20.8095C35.2607 21.8763 34.1043 22.7361 32.7265 23.2395C31.3507 23.7431 29.9429 23.8248 28.6371 23.5573C28.517 23.5328 28.4274 23.4558 28.3956 23.3541L28.0747 22.356C27.9893 22.0886 28.3182 21.805 28.6349 21.8669C29.9149 22.1144 31.2893 22.0273 32.6341 21.5359C33.6713 21.1563 34.583 20.5752 35.3455 19.8556C35.5742 19.6395 35.948 19.6733 36.027 19.919L36.2102 20.4909Z" fill="#783E11"/>
<path fill-rule="evenodd" clip-rule="evenodd" d="M19.4749 17.7699C20.3436 17.3142 21.2835 17.6454 21.9828 18.2812L32.3113 28.0588C32.8261 28.5443 33.5252 28.9789 34.2 28.9581C34.8229 28.9389 35.1159 28.5933 35.3783 28.1651L35.8379 27.3921C37.1123 25.266 37.9955 24.01 38.9875 23.1036C40.9447 21.3152 41.7835 22.9845 41.8352 23.3814L41.2107 25.02C39.1756 30.406 38.1515 33.6159 38.1386 34.6497C38.1279 35.5032 38.2982 37.0531 38.6496 39.2996C35.6595 42.1182 31.6622 43.8707 27.3467 43.8707C25.5115 43.8707 23.7529 43.6029 22.1065 43.1085C22.027 42.9098 21.9417 42.7069 21.8491 42.4942L21.7046 42.1673C20.8764 40.3165 20.2188 39.2766 18.8861 37.8L18.6281 37.5178C17.1189 35.8857 14.6095 32.5107 14.0985 31.6228C13.5875 30.7349 13.5317 29.5144 14.0835 29.0685C14.3887 28.8219 15.2671 29.9319 15.8599 30.5246L20.4245 35.362C20.5414 35.4826 20.9422 35.3848 21.1313 35.216C21.3205 35.0472 21.2484 34.6347 21.1152 34.5015L17.5347 30.6885C15.1803 28.1608 13.9071 26.7366 13.7154 26.416C13.3056 25.7311 13.1271 24.703 13.7367 24.0934C14.2662 23.5639 14.8446 23.4954 15.1751 23.796L15.4801 24.0936C16.9285 25.5252 22.8645 31.4834 23.0815 31.6723C23.3233 31.8826 23.7597 31.7554 23.8922 31.614C24.0247 31.4726 24.1067 31.0873 23.8669 30.8156L23.403 30.3467C21.6122 28.5596 15.2854 22.3249 14.8347 21.8204C14.3169 21.2407 14.3072 20.0717 14.9355 19.4434C15.5638 18.8151 16.1849 18.8242 16.808 19.2206L16.9067 19.2938C17.5677 19.8257 20.3889 22.623 25.3702 27.6857C25.6789 27.991 25.9777 28.0287 26.2666 27.7988C26.6691 27.4787 26.5156 27.1028 26.3849 26.9441L26.3555 26.9114L19.1836 19.5885C18.4813 18.8332 18.5551 18.2525 19.4749 17.7699Z" fill="white"/>
<path fill-rule="evenodd" clip-rule="evenodd" d="M39.7984 36.2641L40.0944 37.9519L39.8022 38.2914C38.9835 39.2183 38.0655 40.0568 37.067 40.7881L36.7602 41.0077C36.6047 41.1164 36.4474 41.2226 36.2882 41.3261L36.0652 41.4687C35.7306 41.6791 35.3887 41.8778 35.0398 42.0644C34.8621 42.1594 34.6822 42.2515 34.5006 42.3404C34.0079 42.5814 33.502 42.7988 32.9849 42.9907C32.1826 43.2885 31.3531 43.5249 30.5029 43.6938L30.1231 43.7645L29.7403 43.8263L29.3549 43.8789C28.8397 43.9427 28.318 43.9819 27.7913 43.995L27.3953 43.9999C27.183 43.9999 26.9716 43.9963 26.7613 43.9892C26.3859 43.9765 26.0137 43.9526 25.6452 43.9178L25.3978 43.8927L24.8709 43.8279L24.4373 43.7629C24.1499 43.7162 23.8655 43.6629 23.5838 43.6031L23.1549 43.5066L22.6988 43.3916L22.2569 43.268L21.9079 43.1615L21.523 43.0349L21.3387 42.9708L20.9085 42.8123L20.5643 42.6761L20.5599 42.6498L20.2034 42.4999C19.5155 41.0196 18.9377 40.1504 17.8179 38.9101L17.2326 38.2642L16.8784 37.8542L16.517 37.423L16.1408 36.9632C14.8053 35.3136 13.311 33.2899 12.841 32.4731C12.0215 31.0491 11.9554 29.152 13.0468 28.1232L13.0909 28.0838L12.8187 27.7564L12.6583 27.5542L12.5395 27.3932L12.4707 27.2882C11.6758 25.9595 11.596 24.2575 12.7186 23.1349C12.8773 22.9762 13.047 22.8358 13.2243 22.7154L13.4039 22.6018L13.4849 22.5558L13.4231 22.4573C12.7868 21.3571 12.8631 19.8336 13.6517 18.7903L13.7822 18.6297L13.9174 18.4849C14.8666 17.5357 16.0285 17.3157 17.1294 17.7797L17.3123 17.8634L17.4319 17.9258L17.4646 17.8535C17.6574 17.4484 17.9839 17.0781 18.4415 16.7693L18.6457 16.6408L18.8206 16.5438C20.264 15.7865 21.8555 16.1881 23.0279 17.2658L23.1784 17.4102L33.3829 27.0697C33.6092 27.2831 33.8358 27.4321 34.0014 27.5065L34.0788 27.5375L34.1039 27.5438L34.5827 26.742C36.0268 24.3328 36.9403 23.0833 38.0182 22.0984C39.3132 20.9152 40.6828 20.5723 41.869 21.1988C42.6461 21.6093 43.1845 22.4027 43.337 23.1246L43.3652 23.2898L43.4143 23.6667L42.6774 25.5976L42.103 27.1333L41.6999 28.2317C40.4162 31.7634 39.7307 33.9902 39.6836 34.7086L39.681 34.7706C39.6767 35.1177 39.7091 35.6185 39.7784 36.2688L39.7984 36.2641ZM19.5174 17.8721C18.6436 18.3305 18.5334 18.8776 19.1266 19.5786L19.2261 19.6906L26.398 27.0136L26.4275 27.0462C26.5581 27.2049 26.7116 27.5808 26.3092 27.901C26.0202 28.1309 25.7214 28.0931 25.4127 27.7878L21.078 23.4066L18.6191 20.9646L17.9545 20.3197C17.4633 19.848 17.1285 19.5403 16.9501 19.3966L16.8506 19.3227C16.2274 18.9263 15.6064 18.9172 14.9781 19.5456C14.3497 20.1739 14.3594 21.3429 14.8772 21.9225L15.2737 22.3325L16.4028 23.4641L23.1931 30.1973L23.9095 30.9177C24.1493 31.1894 24.0673 31.5747 23.9348 31.7162C23.8156 31.8434 23.4501 31.9592 23.202 31.8277L23.1241 31.7744L15.2177 23.8982C14.8872 23.5976 14.3088 23.666 13.7793 24.1955C13.1697 24.8051 13.3482 25.8333 13.7579 26.5182L13.8116 26.5982L13.8988 26.7135L14.1691 27.0421C14.6986 27.6657 15.7094 28.7807 17.2017 30.3869L18.9688 32.2789L21.1578 34.6037C21.291 34.7369 21.363 35.1493 21.1739 35.3181C21.0058 35.4681 20.6704 35.5622 20.5159 35.4965L20.467 35.4642L15.9025 30.6268L15.7068 30.4246L15.1739 29.8547L14.9754 29.6516C14.616 29.2945 14.2892 29.0389 14.1261 29.1707C13.5743 29.6165 13.6301 30.8371 14.1411 31.725L14.2743 31.9428C14.9668 33.0283 17.0994 35.8786 18.5111 37.445L18.9287 37.9022C19.9445 39.0276 20.568 39.8994 21.1739 41.0698L20.9845 40.9939C22.9193 41.8186 25.0715 42.28 27.3553 42.28C31.672 42.28 35.6344 40.3292 38.39 37.2801L38.3553 37.0189L38.289 36.4426C38.2209 35.8054 38.185 35.2915 38.181 34.9005L38.1839 34.6723C38.2365 33.709 39.0112 31.1917 40.5079 27.1204L40.9627 25.8948L41.8778 23.4836C41.8261 23.0867 40.9872 21.4174 39.0301 23.2057C38.1985 23.9655 37.4435 24.971 36.4704 26.5286L36.0688 27.1818L35.486 28.1586C35.2051 28.6356 34.9174 29.0394 34.2426 29.0602C33.624 29.0793 32.985 28.7157 32.4862 28.281L32.3538 28.161L22.0254 18.3834C21.326 17.7476 20.3861 17.4163 19.5174 17.8721Z" fill="#D29B3C"/>
<defs>
<radialGradient id="paint0_radial_37963_15622" cx="0" cy="0" r="1" gradientUnits="userSpaceOnUse" gradientTransform="translate(25.4754 17.0096) rotate(73.7184) scale(27.5504)">
<stop stop-color="#FFF1AA"/>
<stop offset="0.34375" stop-color="#FFE564"/>
<stop offset="0.760417" stop-color="#F4CC00"/>
<stop offset="1" stop-color="#F29E0B"/>
</radialGradient>
<radialGradient id="paint1_radial_37963_15622" cx="0" cy="0" r="1" gradientUnits="userSpaceOnUse" gradientTransform="translate(25.4754 17.0096) rotate(73.7184) scale(27.5504)">
<stop stop-color="#FBEB9D"/>
<stop offset="0.34375" stop-color="#F6E071"/>
<stop offset="0.786458" stop-color="#ECC91A"/>
<stop offset="1" stop-color="#E3BE00"/>
</radialGradient>
</defs>
</svg>
