<svg width="54" height="54" viewBox="0 0 54 54" fill="none" xmlns="http://www.w3.org/2000/svg">
<circle cx="27" cy="27" r="17" fill="url(#paint0_radial_37963_15637)"/>
<g opacity="0.5">
<path fill-rule="evenodd" clip-rule="evenodd" d="M27 44C36.3888 44 44 36.3888 44 27C44 17.6112 36.3888 10 27 10C17.6112 10 10 17.6112 10 27C10 36.3888 17.6112 44 27 44ZM27.0001 42.5141C35.5683 42.5141 42.5141 35.5683 42.5141 27.0001C42.5141 18.4319 35.5683 11.4861 27.0001 11.4861C18.4319 11.4861 11.4861 18.4319 11.4861 27.0001C11.4861 35.5683 18.4319 42.5141 27.0001 42.5141Z" fill="url(#paint1_radial_37963_15637)"/>
<path fill-rule="evenodd" clip-rule="evenodd" d="M27 44C36.3888 44 44 36.3888 44 27C44 17.6112 36.3888 10 27 10C17.6112 10 10 17.6112 10 27C10 36.3888 17.6112 44 27 44ZM27.0001 42.5141C35.5683 42.5141 42.5141 35.5683 42.5141 27.0001C42.5141 18.4319 35.5683 11.4861 27.0001 11.4861C18.4319 11.4861 11.4861 18.4319 11.4861 27.0001C11.4861 35.5683 18.4319 42.5141 27.0001 42.5141Z" fill="#C08200" fill-opacity="0.28"/>
</g>
<path fill-rule="evenodd" clip-rule="evenodd" d="M37.6446 29.4726C37.6446 33.3138 34.0897 38.7952 26.8884 38.7952C19.6871 38.7952 16.1318 33.3138 16.1318 29.4734C16.1318 27.2585 20.8033 29.0475 26.8884 29.0475C32.9744 29.0475 37.6446 27.2903 37.6446 29.4726Z" fill="#B26423"/>
<path fill-rule="evenodd" clip-rule="evenodd" d="M36.1615 30.2614C36.1615 32.5854 31.2969 34.1539 26.8884 34.1539C22.4798 34.1539 17.6147 32.5854 17.6147 30.2622C17.6147 28.6822 21.7665 30.1864 26.8884 30.1864C32.0102 30.1864 36.1615 28.714 36.1615 30.2614Z" fill="white"/>
<path fill-rule="evenodd" clip-rule="evenodd" d="M20.69 23.4462C19.5991 23.4409 18.5868 23.8488 17.7304 24.5491C17.6702 24.5987 17.6353 24.6771 17.6356 24.7586L17.6403 25.5108C17.6416 25.7081 17.8426 25.8363 18.0035 25.7383C18.7234 25.2956 19.5284 25.0468 20.3813 25.0511C21.4822 25.056 22.5084 25.4796 23.3788 26.2002C23.539 26.3335 23.7701 26.2134 23.7686 25.9982L23.7615 24.7814C23.7612 24.6994 23.7252 24.6205 23.6637 24.5708C22.7986 23.8647 21.7801 23.4506 20.69 23.4462Z" fill="#783E11"/>
<path d="M17.4563 32.5291C15.9792 35.5 13.4192 37.1813 11.2269 35.8745C9.03458 34.5678 8.47931 31.5 11.2268 28.7222C13.9743 25.9443 18.0675 24.6737 18.0675 24.6737C18.0675 24.6737 18.9335 29.5582 17.4563 32.5291Z" fill="#29B5E2"/>
<path opacity="0.2" d="M13.0581 30.1448C11.7133 31.7824 10.3606 32.9455 9.83921 32.498C9.31782 32.0504 10.322 30.1979 11.5996 28.8249C12.8773 27.4518 14.6067 26.7295 14.6067 26.7295C14.6067 26.7295 14.4029 28.5072 13.0581 30.1448Z" fill="white"/>
<path fill-rule="evenodd" clip-rule="evenodd" d="M14.9853 24.1348C15.6869 22.8276 16.7497 21.8422 17.9147 21.2253C19.0797 20.6083 19.7525 20.4109 20.3568 20.4298C20.51 20.4351 20.643 20.5142 20.7297 20.6369L20.7556 20.6738C21.0211 21.0508 20.8169 21.5824 20.2601 21.736C19.7033 21.8895 18.8684 22.3165 18.4597 22.501C17.4602 22.9521 16.5994 23.7444 15.9344 24.7373C15.6891 25.1036 15.2085 25.1444 14.9893 24.8331C14.8559 24.6444 14.8584 24.371 14.9853 24.1348Z" fill="#783E11"/>
<path fill-rule="evenodd" clip-rule="evenodd" d="M33.1984 23.4462C34.2894 23.4409 35.3016 23.8488 36.158 24.5491C36.2182 24.5987 36.2532 24.6771 36.2529 24.7586L36.2481 25.5108C36.2468 25.7081 36.0458 25.8363 35.8849 25.7383C35.165 25.2956 34.3601 25.0468 33.5072 25.0511C32.4062 25.056 31.38 25.4796 30.5096 26.2002C30.3495 26.3335 30.1183 26.2134 30.1198 25.9982L30.1269 24.7814C30.1273 24.6994 30.1632 24.6205 30.2248 24.5708C31.0898 23.8647 32.1084 23.4506 33.1984 23.4462Z" fill="#783E11"/>
<path d="M36.4321 32.5291C37.9092 35.5 40.4692 37.1813 42.6615 35.8745C44.8539 34.5678 45.4091 31.5 42.6616 28.7222C39.9141 25.9443 35.8209 24.6737 35.8209 24.6737C35.8209 24.6737 34.955 29.5582 36.4321 32.5291Z" fill="#29B5E2"/>
<path opacity="0.2" d="M40.8303 30.1448C42.1751 31.7824 43.5278 32.9455 44.0492 32.498C44.5706 32.0504 43.5664 30.1979 42.2888 28.8249C41.0111 27.4518 39.2817 26.7295 39.2817 26.7295C39.2817 26.7295 39.4855 28.5072 40.8303 30.1448Z" fill="white"/>
<path fill-rule="evenodd" clip-rule="evenodd" d="M38.9031 24.1348C38.2016 22.8276 37.1387 21.8422 35.9737 21.2253C34.8088 20.6083 34.136 20.4109 33.5317 20.4298C33.3785 20.4351 33.2454 20.5142 33.1587 20.6369L33.1328 20.6738C32.8673 21.0508 33.0715 21.5824 33.6283 21.736C34.1851 21.8895 35.02 22.3165 35.4287 22.501C36.4282 22.9521 37.2891 23.7444 37.954 24.7373C38.1993 25.1036 38.6799 25.1444 38.8991 24.8331C39.0325 24.6444 39.03 24.371 38.9031 24.1348Z" fill="#783E11"/>
<defs>
<radialGradient id="paint0_radial_37963_15637" cx="0" cy="0" r="1" gradientUnits="userSpaceOnUse" gradientTransform="translate(25.4754 17.0096) rotate(73.7184) scale(27.5504)">
<stop stop-color="#FFF1AA"/>
<stop offset="0.34375" stop-color="#FFE564"/>
<stop offset="0.760417" stop-color="#F4CC00"/>
<stop offset="1" stop-color="#F29E0B"/>
</radialGradient>
<radialGradient id="paint1_radial_37963_15637" cx="0" cy="0" r="1" gradientUnits="userSpaceOnUse" gradientTransform="translate(25.4754 17.0096) rotate(73.7184) scale(27.5504)">
<stop stop-color="#FBEB9D"/>
<stop offset="0.34375" stop-color="#F6E071"/>
<stop offset="0.786458" stop-color="#ECC91A"/>
<stop offset="1" stop-color="#E3BE00"/>
</radialGradient>
</defs>
</svg>
