<svg width="54" height="54" viewBox="0 0 54 54" fill="none" xmlns="http://www.w3.org/2000/svg">
<ellipse cx="27.0621" cy="35.1233" rx="12.1228" ry="8.87694" fill="white"/>
<path fill-rule="evenodd" clip-rule="evenodd" d="M32.9329 28.7367C32.8474 30.6069 32.5952 31.7026 31.4025 32.7153C31.7427 31.079 31.644 24.6134 26.0689 19.8945C26.4827 29.1845 12.8153 30.7289 21.1081 42.8239C21.6843 43.6643 23.3774 43.7391 24.0728 43.8622C24.2175 43.8878 24.3101 43.7398 24.274 43.6542C21.4749 37.0062 26.5189 38.0105 26.7936 32.1415C26.7965 32.0781 26.9294 32.0636 26.992 32.1202C29.4823 34.3713 30.1823 35.9358 29.3116 38.5957C29.2845 38.6784 29.4056 38.7829 29.4918 38.7505C30.4521 38.3899 31.1139 37.9776 31.7392 36.7616C32.8849 39.4561 31.8813 41.329 30.6079 43.5052C30.5557 43.5944 30.6467 43.7626 30.744 43.755C37.7949 43.204 39.0978 35.1124 32.9329 28.7367Z" fill="url(#paint0_radial_37963_15618)"/>
<path d="M35.7402 20.0529C35.5567 19.8502 35.2288 19.9751 35.2101 20.2535C35.0652 22.4078 34.699 23.8679 33.5345 25.1608C33.3352 25.382 33.0129 25.187 33.0653 24.8881C33.6011 21.8266 33.9679 16.8686 23.6907 10.0505C23.4654 9.90097 23.1709 10.1051 23.2098 10.381C24.4107 18.8895 17.133 20.9243 14.3045 26.7865C11.8784 31.8146 13.1418 39.7618 21.8753 43.3929C21.9006 43.4034 22.5555 43.6148 22.9003 43.5529C23.2451 43.4911 23.2423 43.2862 23.1373 43.0826C15.7542 28.763 25.2185 32.134 27.1465 21.7102C27.1978 21.4324 27.5416 21.336 27.6956 21.5687C30.4542 25.7349 30.972 30.9504 29.761 34.7898C29.6788 35.0503 29.9171 35.3076 30.162 35.2089C31.37 34.7216 32.2666 34.1347 33.0922 32.7432C33.2278 32.5147 33.5585 32.531 33.6476 32.7832C35.0195 36.6621 33.8482 39.8204 32.0856 43.0442C31.9452 43.301 32.1794 43.6066 32.4462 43.5079C42.4567 39.8052 44.5893 29.8336 35.7402 20.0529Z" fill="url(#paint1_radial_37963_15618)"/>
<defs>
<radialGradient id="paint0_radial_37963_15618" cx="0" cy="0" r="1" gradientUnits="userSpaceOnUse" gradientTransform="translate(31.5 35.5) rotate(-120.069) scale(10.9772 8.44832)">
<stop stop-color="#F7CC00"/>
<stop offset="1" stop-color="#F9E900"/>
</radialGradient>
<radialGradient id="paint1_radial_37963_15618" cx="0" cy="0" r="1" gradientTransform="matrix(-9.5 -14 17.172 -8.97716 26.5 27.5)" gradientUnits="userSpaceOnUse">
<stop stop-color="#FF736F"/>
<stop offset="1" stop-color="#F83630"/>
</radialGradient>
</defs>
</svg>
