<svg width="54" height="54" viewBox="0 0 54 54" fill="none" xmlns="http://www.w3.org/2000/svg">
<path d="M15.5256 17.706L12.5842 21.4027C11.5962 22.6445 11.5099 24.378 12.3698 25.7117C13.0988 26.8424 14.0151 27.8405 15.0795 28.6633L26.9497 37.8399C27.5372 38.0646 28.9196 38.4516 29.749 38.2028C30.7858 37.8918 31.3561 36.6476 31.8745 36.9586C32.3929 37.2697 33.5852 36.9586 34.3628 36.6476C34.9848 36.3988 35.486 35.1615 35.6588 34.574C36.0044 34.4531 36.8511 34.0452 37.4732 33.3817C38.0952 32.7181 38.1471 31.8611 38.0952 31.5155C38.3026 31.4636 38.9039 31.1215 39.6504 30.1676C40.3968 29.214 40.1118 27.1381 39.9908 26.2565L39.9907 26.2559L27.8051 17.5847L20.5409 15.9422C18.6692 15.519 16.7203 16.2043 15.5256 17.706Z" fill="url(#paint0_radial_37963_15603)"/>
<path fill-rule="evenodd" clip-rule="evenodd" d="M14.0654 28.5964C14.0654 28.5964 12.0899 25.8033 11.0392 24.3953C10.7361 23.9344 10.6186 23.349 10.997 22.7886C11.1684 22.5347 12.7805 20.2703 12.7805 20.2703C12.7805 20.2703 15.0091 17.2065 15.5446 16.5087C16.5237 15.2332 17.8834 15.0796 19.0346 15.5003C20.8524 16.1644 22.8617 16.1553 24.7684 16.3094L23.7571 17.2503C22.0033 17.1144 20.1975 17.0441 18.5469 16.371C17.4591 15.9275 16.8241 16.5354 16.3899 17.0159C16.109 17.3267 14.6035 19.3177 13.4652 20.9042C12.8442 21.7697 12.346 22.555 12.1843 22.7885C11.7264 23.4501 11.6857 23.5015 12.1543 24.2285C12.9455 25.4563 14.7163 27.7088 14.7163 27.7088L14.0654 28.5964Z" fill="#CD942F"/>
<path fill-rule="evenodd" clip-rule="evenodd" d="M39.9498 27.1852C40.3371 27.6832 40.4722 28.4884 40.366 29.0765C40.1721 30.1503 39.5969 30.9668 38.6434 31.5032C38.5028 31.5823 38.4574 31.6671 38.4392 31.8238C38.2745 33.2458 37.5212 34.2365 36.1886 34.7483C35.895 34.861 35.7543 34.9952 35.6504 35.2857C35.3012 36.2627 34.6377 36.8606 33.6711 37.2279C32.9227 37.5123 32.1553 37.394 31.3994 37.1083C31.2886 37.0664 31.2101 37.2744 31.137 37.38C30.572 38.1963 29.8202 38.6452 28.791 38.6452C28.1716 38.6452 27.5729 38.3916 26.914 37.9458C26.3814 37.5854 26.3832 37.5655 26.3832 37.5655L26.914 36.7144C26.914 36.7144 27.3522 37.009 27.8822 37.3829C28.8463 38.063 30.2757 37.4625 30.6214 36.4045C30.5724 36.3698 30.5213 36.3317 30.4686 36.2961C29.2206 35.4541 28.8837 35.1938 27.6343 34.3539C27.4288 34.2158 27.305 34.0407 27.3218 33.7841C27.3218 33.592 27.3727 33.4851 27.5292 33.381C27.7438 33.2969 27.9417 33.3604 28.1262 33.4851C29.1829 34.199 29.3298 34.3293 30.387 35.0425C30.9695 35.4354 31.5591 35.8182 32.1317 36.2247C32.4867 36.4768 32.9698 36.4259 33.3526 36.3177C34.0895 36.1094 34.5486 35.6097 34.7313 34.8596C34.7681 34.7084 34.7646 34.4929 34.6275 34.4009C32.3139 32.8477 30.9151 31.8706 28.6049 30.3123C28.3181 30.1189 28.202 29.8759 28.2638 29.6027C28.3377 29.2767 28.7772 29.2353 29.0673 29.4046C29.1233 29.4373 29.1764 29.4751 29.2302 29.5114C31.5748 31.0927 33.0123 32.0863 35.3482 33.6803C35.6127 33.8609 35.9053 33.8006 36.165 33.6803C36.9024 33.3391 37.2988 32.761 37.3494 31.9487C37.3573 31.823 37.3116 31.5688 37.1981 31.4926C34.5136 29.6868 32.7425 28.4594 30.0607 26.6496C29.7876 26.4653 29.682 25.9765 30.0607 25.7931C30.2676 25.6928 30.4708 25.717 30.6622 25.8467C31.0923 26.1381 31.5233 26.4282 31.9542 26.7185C34.1819 28.2196 35.5007 29.1356 37.7236 30.6439C37.8904 30.757 38.0549 30.6815 38.2238 30.6025C39.2287 30.1321 39.5884 28.6128 39.2557 28.0415L38.9498 27.4386C38.9498 27.4386 39.7914 26.9815 39.9498 27.1852Z" fill="#CD942F"/>
<path fill-rule="evenodd" clip-rule="evenodd" d="M24.817 33.474C25.998 33.6189 26.7518 34.8563 26.2796 35.903C26.157 36.1748 25.9798 36.4226 25.8218 36.6778C25.4993 37.1985 25.2026 37.7387 24.8405 38.2306C23.5822 39.7785 20.0064 37.21 18.1933 35.6487C16.3802 34.0874 14.9803 33.043 14.2791 31.1705C14.1119 30.724 14.1228 30.2863 14.3886 29.8719C14.7102 29.3706 15.0325 28.8697 15.3477 28.3645C15.7762 27.6772 16.7669 27.3921 17.564 27.733C17.9959 27.9178 18.2819 28.1858 18.573 28.691C18.9656 28.3404 19.4236 28.2018 19.9265 28.2269C20.3035 28.2456 20.6518 28.3764 20.9504 28.608C21.5524 29.0751 21.9239 29.8724 21.5229 30.8279C22.3818 30.5288 23.1477 30.6572 23.741 31.354C24.3406 32.0583 24.3326 32.8219 23.7931 33.629C24.1551 33.4764 24.4793 33.4327 24.817 33.474Z" fill="url(#paint1_radial_37963_15603)"/>
<path fill-rule="evenodd" clip-rule="evenodd" d="M27.1912 36.3144L27.1912 36.3144C27.0653 36.5933 26.8818 36.8778 26.7562 37.0725C26.7235 37.1231 26.6948 37.1677 26.672 37.2045L26.672 37.2045C26.5966 37.3262 26.5169 37.4594 26.4331 37.5993C26.1999 37.9887 25.9352 38.4305 25.646 38.8236L25.6317 38.8429L25.6165 38.8616C25.0265 39.5874 24.1895 39.7622 23.4385 39.6961C22.7142 39.6324 21.9605 39.3442 21.2751 38.9989C19.891 38.3015 18.4722 37.2087 17.5408 36.4067C17.3544 36.2462 17.1688 36.0887 16.985 35.9327C15.4655 34.6433 14.0674 33.4569 13.3426 31.5214L13.3426 31.5214C13.0848 30.8328 13.0824 30.0563 13.547 29.3321C13.6031 29.2447 13.6664 29.1409 13.7364 29.0262C14.0292 28.5465 14.439 27.875 14.9286 27.3992C15.2578 27.0792 15.6853 26.7763 16.2285 26.6406C16.7873 26.5011 17.3711 26.563 17.9573 26.8138C18.3061 26.963 18.5916 27.1536 18.8381 27.394C19.7386 27.0732 20.7792 27.2097 21.5634 27.8181L21.5635 27.8182C22.1247 28.2536 22.5662 28.9104 22.669 29.6949C22.7612 29.7054 22.8535 29.7206 22.9458 29.7409C23.5559 29.8747 24.0807 30.2106 24.5024 30.7059L24.5024 30.7059C24.925 31.2023 25.1847 31.7865 25.1942 32.4386C25.1948 32.4814 25.1943 32.5239 25.1928 32.5662C25.6663 32.6774 26.1044 32.8985 26.4596 33.1944C27.283 33.8802 27.7569 35.0605 27.1912 36.3144ZM24.9727 33.5415C25.9826 33.7811 26.789 34.7742 26.2796 35.9032C26.1882 36.1059 26.0664 36.2953 25.9448 36.4843C25.9034 36.5487 25.862 36.6131 25.8219 36.6779C25.73 36.8263 25.6402 36.9762 25.5503 37.1262C25.3249 37.5026 25.0995 37.8791 24.8406 38.2308C23.5822 39.7787 20.0064 37.2102 18.1933 35.6489C18.005 35.4867 17.821 35.33 17.6419 35.1775C16.0969 33.8616 14.9074 32.8487 14.2791 31.1707C14.1119 30.7242 14.1228 30.2865 14.3887 29.8721C14.4676 29.749 14.5476 29.6186 14.6295 29.485C15.2943 28.4008 16.0903 27.1028 17.564 27.7332C17.6961 27.7897 17.8146 27.854 17.9237 27.9305C18.1714 28.1041 18.371 28.3405 18.573 28.6912C18.7615 28.5229 18.9801 28.3999 19.2124 28.3228C19.7906 28.1308 20.454 28.2231 20.9505 28.6082C21.3073 28.8851 21.5831 29.2779 21.6651 29.751C21.7214 30.076 21.6863 30.4389 21.523 30.8281C21.908 30.694 22.2743 30.6458 22.6147 30.6963C23.0338 30.7583 23.4137 30.9697 23.741 31.3542C24.0539 31.7217 24.2014 32.1054 24.1942 32.503C24.1875 32.8673 24.0511 33.2433 23.7931 33.6292C24.1749 33.4683 24.5886 33.4504 24.9727 33.5415Z" fill="#CD942F"/>
<path fill-rule="evenodd" clip-rule="evenodd" d="M43.3033 23.5093C43.4422 23.8047 43.6119 23.9994 43.1776 24.6741C42.4345 25.8287 40.3847 27.5538 39.355 27.1007C37.4221 26.25 28.7179 20.2025 28.0149 20.5316C26.9896 21.0116 25.9838 21.5368 24.9414 21.9751C23.1165 22.7423 21.0638 22.4717 19.8356 20.8371C19.4738 20.3555 19.7629 19.6723 20.1047 19.5308C22.0728 18.5275 26.2392 15.5297 27.6827 15.6957C29.9878 15.9608 33.6743 16.8199 34.4681 16.6561C35.2619 16.4922 36.9883 15.1802 37.9017 15.6957C39.299 16.4843 42.2064 21.177 43.3033 23.5093Z" fill="url(#paint2_linear_37963_15603)"/>
<mask id="mask0_37963_15603" style="mask-type:alpha" maskUnits="userSpaceOnUse" x="18" y="14" width="27" height="14">
<path fill-rule="evenodd" clip-rule="evenodd" d="M43.2556 23.4679C43.3946 23.7634 43.6366 23.9803 43.2024 24.6551C42.7681 25.3298 41.0682 26.7928 40.5566 26.9758C40.045 27.1587 40.0659 27.1668 39.4518 27.0918C38.8377 27.0168 37.2555 25.8615 36.5995 25.4678C35.7304 24.9463 34.8602 24.4266 33.991 23.9052C33.2381 23.4535 32.4865 22.9997 31.7333 22.5485C30.8587 22.0245 29.9828 21.5027 29.1078 20.9792C28.8548 20.8279 28.6068 20.6676 28.3481 20.5267C28.2857 20.4927 28.1772 20.4921 28.1117 20.5227C27.0864 21.0027 26.0806 21.5279 25.0381 21.9662C23.8504 22.4656 22.6213 22.5821 21.3909 22.0747C20.7596 21.8144 20.2658 21.3778 19.8597 20.8373C19.4979 20.3557 19.7934 19.7299 20.2015 19.5219C21.6346 18.7914 22.997 17.9408 24.371 17.1093C24.8707 16.8069 25.3621 16.4899 25.8707 16.2034C26.3757 15.919 26.9264 15.7522 27.5009 15.6731C27.5916 15.6606 27.6881 15.6718 27.7795 15.6868C29.913 16.0378 33.5461 16.6516 33.8354 16.6762C34.1247 16.7009 34.4524 16.6704 34.5649 16.6472C34.6774 16.6239 35.7582 16.143 36.1173 15.9635C36.4763 15.784 37.4099 15.316 38.0514 15.7915C38.693 16.2669 38.9807 16.6791 39.6284 17.4999C41.2775 19.5895 43.1167 23.1725 43.2556 23.4679Z" fill="url(#paint3_linear_37963_15603)" stroke="#CD942F" stroke-width="1.5"/>
</mask>
<g mask="url(#mask0_37963_15603)">
<path opacity="0.8" d="M26.3603 19.5438L22.162 21.8423L22.7905 22.4516L28.3868 20.7515L39.9335 27.4103L41.5037 26.4161L30.3605 19.6353C29.1392 18.8922 27.6142 18.8573 26.3603 19.5438Z" fill="url(#paint4_radial_37963_15603)"/>
</g>
<path fill-rule="evenodd" clip-rule="evenodd" d="M35.4272 16.8152C35.1472 16.9495 34.8369 17.0904 34.5692 17.1457C34.4063 17.1793 34.2105 17.1809 34.0202 17.1721C33.8207 17.163 33.5882 17.1401 33.3352 17.1085C32.8289 17.0452 32.2112 16.9431 31.5565 16.8293C31.3065 16.7859 31.051 16.7408 30.7934 16.6953C29.6888 16.5001 28.5449 16.2981 27.6256 16.1924C27.5342 16.1819 27.3806 16.194 27.1518 16.2549C26.9291 16.3141 26.6656 16.411 26.3669 16.5418C25.7692 16.8035 25.0713 17.1825 24.3418 17.6069C23.7886 17.9288 23.211 18.2811 22.6529 18.6215C21.7729 19.1583 20.9416 19.6653 20.3318 19.9762L20.3142 19.9852L20.3027 19.9899C20.2993 19.9925 20.2855 20.0032 20.2657 20.0293C20.236 20.0684 20.2064 20.1248 20.1877 20.1914C20.1497 20.3267 20.1686 20.4479 20.2354 20.5367C21.292 21.943 23.077 22.2165 24.7475 21.5142C25.4206 21.2311 26.0669 20.9167 26.7273 20.5953C27.0797 20.4238 27.4362 20.2504 27.8029 20.0787C27.9294 20.0195 28.0521 20.0159 28.1282 20.0196C28.2108 20.0237 28.2909 20.0394 28.3613 20.0575C28.5021 20.0937 28.6608 20.1543 28.8255 20.2265C29.1581 20.3724 29.5808 20.5949 30.0575 20.8642C31.0141 21.4047 32.2376 22.1622 33.4901 22.9506C33.945 23.2369 34.4036 23.5273 34.8557 23.8134C35.6529 24.3181 36.4297 24.8099 37.13 25.2442C38.2388 25.9318 39.1123 26.4476 39.5564 26.643C39.6506 26.6845 39.8291 26.6989 40.1242 26.6006C40.4102 26.5054 40.7416 26.3248 41.0851 26.082C41.7755 25.5939 42.4256 24.9186 42.7572 24.4035C42.9536 24.0983 42.9563 23.9854 42.9556 23.9656C42.9548 23.9391 42.9527 23.9347 42.9148 23.8562C42.8998 23.8251 42.8792 23.7824 42.8508 23.722C42.3151 22.5831 41.3272 20.8483 40.2987 19.3002C39.785 18.5271 39.267 17.8092 38.7958 17.2401C38.3112 16.6548 37.9178 16.2789 37.6559 16.1311C37.5692 16.0821 37.4234 16.0546 37.1778 16.0977C36.9346 16.1403 36.6519 16.242 36.3415 16.3787C36.1266 16.4733 35.9194 16.5749 35.7121 16.6765C35.6174 16.723 35.5227 16.7694 35.4272 16.8152ZM37.0051 15.1127C37.3649 15.0496 37.7775 15.0514 38.1474 15.2602C38.5842 15.5067 39.0782 16.0131 39.5661 16.6024C40.0673 17.2078 40.6067 17.9567 41.1316 18.7469C42.1803 20.3253 43.1945 22.1031 43.7557 23.2965C43.7609 23.3075 43.768 23.3214 43.7765 23.3381C43.8322 23.4469 43.9466 23.6706 43.9551 23.9332C43.9655 24.2534 43.8359 24.5752 43.5981 24.9447C43.1865 25.5841 42.4402 26.3487 41.6624 26.8985C41.2719 27.1746 40.8512 27.4126 40.4401 27.5494C40.0381 27.6833 39.5742 27.7434 39.1536 27.5583C38.6312 27.3284 37.6919 26.7693 36.603 26.094C35.8992 25.6576 35.1149 25.1611 34.3144 24.6543C33.8634 24.3688 33.4072 24.08 32.9574 23.7969C31.7042 23.0081 30.4991 22.2623 29.5656 21.7348C29.0972 21.4702 28.7095 21.2676 28.4239 21.1424C28.2912 21.0842 28.1941 21.0487 28.1288 21.0305C27.8232 21.1746 27.5135 21.3252 27.2006 21.4774C26.5234 21.8067 25.8315 22.1432 25.1351 22.436L25.1351 22.436C23.1558 23.2681 20.8356 23.0003 19.4359 21.1374L19.4359 21.1374C19.1408 20.7446 19.1233 20.2834 19.2249 19.9213C19.3178 19.5903 19.5434 19.2329 19.8916 19.0781C20.4728 18.7806 21.2331 18.3164 22.072 17.8041C22.6357 17.4599 23.2349 17.094 23.839 16.7426C24.5776 16.3128 25.3149 15.9108 25.9658 15.6258C26.2915 15.4832 26.6057 15.3653 26.8949 15.2884C27.1779 15.2132 27.4703 15.1679 27.7398 15.1989C28.6924 15.3085 29.876 15.5176 30.9819 15.713C31.2358 15.7579 31.4857 15.802 31.7277 15.8441C32.382 15.9578 32.9789 16.0562 33.4592 16.1162C33.6993 16.1462 33.9032 16.1657 34.0661 16.1732C34.2384 16.1811 34.3314 16.1737 34.367 16.1663C34.4962 16.1397 34.6994 16.0552 34.9948 15.9135C35.0746 15.8753 35.1603 15.8332 35.2501 15.7892C35.4656 15.6836 35.7043 15.5666 35.9385 15.4635C36.2731 15.3161 36.6429 15.1762 37.0051 15.1127Z" fill="#CD942F"/>
<defs>
<radialGradient id="paint0_radial_37963_15603" cx="0" cy="0" r="1" gradientTransform="matrix(10.7849 15.3189 -18.7762 7.10322 20.2793 22.5951)" gradientUnits="userSpaceOnUse">
<stop stop-color="#FBEB9D"/>
<stop offset="0.34375" stop-color="#F6E071"/>
<stop offset="1" stop-color="#ECC91A"/>
</radialGradient>
<radialGradient id="paint1_radial_37963_15603" cx="0" cy="0" r="1" gradientUnits="userSpaceOnUse" gradientTransform="translate(22.2229 29.2815) rotate(124.38) scale(11.5109 15.1721)">
<stop stop-color="#FBEB9D"/>
<stop offset="0.34375" stop-color="#F6E071"/>
<stop offset="1" stop-color="#ECC91A"/>
</radialGradient>
<linearGradient id="paint2_linear_37963_15603" x1="33.1262" y1="15.7904" x2="31.6262" y2="24.7904" gradientUnits="userSpaceOnUse">
<stop stop-color="#FBEB9D"/>
<stop offset="0.34375" stop-color="#F6E071"/>
<stop offset="1" stop-color="#ECC91A"/>
</linearGradient>
<linearGradient id="paint3_linear_37963_15603" x1="34.9574" y1="6.14228" x2="32.5858" y2="23.3659" gradientUnits="userSpaceOnUse">
<stop stop-color="#FBEB9D"/>
<stop offset="0.34375" stop-color="#F6E071"/>
<stop offset="1" stop-color="#ECC91A"/>
</linearGradient>
<radialGradient id="paint4_radial_37963_15603" cx="0" cy="0" r="1" gradientUnits="userSpaceOnUse" gradientTransform="translate(28.6491 19.1518) rotate(115.747) scale(4.67968 12.4479)">
<stop stop-color="#783E11" stop-opacity="0.22"/>
<stop offset="1" stop-color="#783E11" stop-opacity="0.06"/>
</radialGradient>
</defs>
</svg>
