<svg width="54" height="54" viewBox="0 0 54 54" fill="none" xmlns="http://www.w3.org/2000/svg">
<circle cx="27" cy="27" r="17" fill="url(#paint0_radial_37963_15635)"/>
<g opacity="0.5">
<path fill-rule="evenodd" clip-rule="evenodd" d="M27 44C36.3888 44 44 36.3888 44 27C44 17.6112 36.3888 10 27 10C17.6112 10 10 17.6112 10 27C10 36.3888 17.6112 44 27 44ZM27.0001 42.5141C35.5683 42.5141 42.5141 35.5683 42.5141 27.0001C42.5141 18.4319 35.5683 11.4861 27.0001 11.4861C18.4319 11.4861 11.4861 18.4319 11.4861 27.0001C11.4861 35.5683 18.4319 42.5141 27.0001 42.5141Z" fill="url(#paint1_radial_37963_15635)"/>
<path fill-rule="evenodd" clip-rule="evenodd" d="M27 44C36.3888 44 44 36.3888 44 27C44 17.6112 36.3888 10 27 10C17.6112 10 10 17.6112 10 27C10 36.3888 17.6112 44 27 44ZM27.0001 42.5141C35.5683 42.5141 42.5141 35.5683 42.5141 27.0001C42.5141 18.4319 35.5683 11.4861 27.0001 11.4861C18.4319 11.4861 11.4861 18.4319 11.4861 27.0001C11.4861 35.5683 18.4319 42.5141 27.0001 42.5141Z" fill="#C08200" fill-opacity="0.28"/>
</g>
<path fill-rule="evenodd" clip-rule="evenodd" d="M20.5284 27.599C19.029 28.2156 18.1618 29.3758 18.1349 30.6422C18.129 30.9277 18.1509 31.2122 18.1737 31.4976C18.2001 31.8343 18.2763 32.1659 18.3821 32.4934C18.6052 33.1792 19.0153 33.7967 19.5759 34.3584C19.9846 34.7666 20.4467 35.1375 20.933 35.4932C21.6756 36.0358 22.4579 36.5453 23.2375 37.0575C23.9007 37.4935 27.2188 38.838 27.2188 38.838C27.2188 38.838 30.9498 37.1762 31.5866 36.7568C32.2676 36.3079 32.9468 35.8571 33.5905 35.3772C34.1041 34.9916 34.589 34.587 35.0023 34.1362C35.6145 33.4656 35.9821 32.7243 36.1336 31.9183C36.1874 31.6301 36.2166 31.341 36.2303 31.0505C36.2513 30.6256 36.2271 30.2021 36.0816 29.7887C35.7613 28.8825 35.0849 28.175 34.0307 27.6835C33.4427 27.4092 32.8013 27.2522 32.1162 27.1949C31.6856 27.1589 31.2549 27.1616 30.8266 27.2134C29.9982 27.3136 29.2579 27.5681 28.5978 27.9607C28.0404 28.29 27.5874 28.6904 27.2179 29.1467C27.207 29.1592 27.197 29.1717 27.186 29.1837C27.1235 29.1162 27.0724 29.053 27.0177 28.9911C26.4826 28.386 25.8075 27.8974 24.9495 27.5621C24.4317 27.3598 23.882 27.2351 23.3032 27.1893C23.1385 27.1764 22.9743 27.1704 22.8101 27.1704C22.5929 27.1704 22.3763 27.181 22.1596 27.2027C21.5835 27.2595 21.0383 27.3893 20.5284 27.599Z" fill="#F03D37"/>
<path fill-rule="evenodd" clip-rule="evenodd" d="M34.9579 20.2013C34.9499 20.109 34.9008 20.0236 34.8236 19.9739C33.9828 19.435 33.0245 19.1604 32.0272 19.248C31.0311 19.3347 30.132 19.7686 29.3932 20.4444C29.3252 20.5064 29.2908 20.5995 29.2992 20.6917L29.376 21.5999C29.397 21.843 29.6804 21.9523 29.8604 21.7908C30.5887 21.1401 31.4685 20.7223 32.4419 20.6369C33.1928 20.5714 33.9215 20.7108 34.5957 21.0134C34.798 21.1044 35.0213 20.945 35.0024 20.7215L34.9579 20.2013Z" fill="#783E11"/>
<path fill-rule="evenodd" clip-rule="evenodd" d="M21.455 19.248C20.4472 19.1596 19.4788 19.4409 18.6309 19.9917C18.5713 20.0308 18.5327 20.0971 18.5264 20.1689L18.4702 20.8315C18.4555 21.0053 18.6309 21.1337 18.7875 21.0597C19.4885 20.7253 20.2524 20.568 21.0403 20.6373C22.0574 20.7261 22.9716 21.1779 23.7179 21.8791C23.8552 22.0088 24.0785 21.9208 24.0944 21.7312L24.1859 20.6594C24.1922 20.5871 24.1654 20.5149 24.1125 20.4664C23.3699 19.7784 22.462 19.3355 21.455 19.248Z" fill="#783E11"/>
<defs>
<radialGradient id="paint0_radial_37963_15635" cx="0" cy="0" r="1" gradientUnits="userSpaceOnUse" gradientTransform="translate(25.4754 17.0096) rotate(73.7184) scale(27.5504)">
<stop stop-color="#FFF1AA"/>
<stop offset="0.34375" stop-color="#FFE564"/>
<stop offset="0.760417" stop-color="#F4CC00"/>
<stop offset="1" stop-color="#F29E0B"/>
</radialGradient>
<radialGradient id="paint1_radial_37963_15635" cx="0" cy="0" r="1" gradientUnits="userSpaceOnUse" gradientTransform="translate(25.4754 17.0096) rotate(73.7184) scale(27.5504)">
<stop stop-color="#FBEB9D"/>
<stop offset="0.34375" stop-color="#F6E071"/>
<stop offset="0.786458" stop-color="#ECC91A"/>
<stop offset="1" stop-color="#E3BE00"/>
</radialGradient>
</defs>
</svg>
