<svg width="54" height="54" viewBox="0 0 54 54" fill="none" xmlns="http://www.w3.org/2000/svg">
<circle cx="27" cy="27" r="17" fill="url(#paint0_radial_37963_15614)"/>
<path fill-rule="evenodd" clip-rule="evenodd" d="M27 44C36.3888 44 44 36.3888 44 27C44 17.6112 36.3888 10 27 10C17.6112 10 10 17.6112 10 27C10 36.3888 17.6112 44 27 44ZM27.0001 42.5141C35.5683 42.5141 42.5141 35.5683 42.5141 27.0001C42.5141 18.4319 35.5683 11.4861 27.0001 11.4861C18.4319 11.4861 11.4861 18.4319 11.4861 27.0001C11.4861 35.5683 18.4319 42.5141 27.0001 42.5141Z" fill="url(#paint1_radial_37963_15614)"/>
<path fill-rule="evenodd" clip-rule="evenodd" d="M27 44C36.3888 44 44 36.3888 44 27C44 17.6112 36.3888 10 27 10C17.6112 10 10 17.6112 10 27C10 36.3888 17.6112 44 27 44ZM27.0001 42.5141C35.5683 42.5141 42.5141 35.5683 42.5141 27.0001C42.5141 18.4319 35.5683 11.4861 27.0001 11.4861C18.4319 11.4861 11.4861 18.4319 11.4861 27.0001C11.4861 35.5683 18.4319 42.5141 27.0001 42.5141Z" fill="#3287E1" fill-opacity="0.4"/>
<path fill-rule="evenodd" clip-rule="evenodd" d="M34.7633 24.0304L30.5021 24.0312C30.3794 24.0312 30.2609 23.9603 30.215 23.8476C30.0231 23.3677 30.0306 22.8269 30.2409 22.3504C30.5939 21.3231 30.634 20.2132 30.3569 19.1625C30.0673 18.4398 29.9905 17.1195 28.6544 17.0586C28.2363 17.1203 27.8716 17.3715 27.6613 17.7379C27.6238 17.803 27.6079 17.8798 27.6079 17.9541C27.6079 17.9541 27.6693 19.236 27.6079 20.1272C27.5465 21.0184 25.8412 23.2884 24.7571 24.7297C24.6887 24.8215 24.5927 24.8816 24.4792 24.8991C24.0728 24.96 23.2975 25.063 23.0181 25.0999C22.9527 25.1086 22.9144 25.1907 22.9144 25.2293C22.9144 27.0309 22.9144 29.726 22.9144 33.3144C22.9144 33.3442 22.9503 33.409 23.0141 33.4195C23.233 33.4557 23.7806 33.5558 24.3332 33.7336C25.0275 33.9564 25.6058 34.4838 26.7634 34.8744C26.8243 34.8952 26.8919 34.9061 26.9561 34.9061H32.3915C33.0933 34.7809 33.6158 34.1809 33.6517 33.4607C33.6617 33.0593 33.5816 32.662 33.4171 32.2973C33.3938 32.2447 33.4247 32.1897 33.4814 32.1788C34.1782 32.052 35.0495 30.7292 33.9763 29.6635C33.9479 29.636 33.9529 29.5984 33.9913 29.5884C34.583 29.4373 35.0362 28.965 35.1747 28.3758C35.2281 28.1505 35.2089 27.9176 35.1421 27.6965C35.0637 27.4328 34.9385 27.1858 34.7724 26.9654C34.7307 26.9104 34.7541 26.8386 34.8208 26.8169C35.41 26.6174 35.8156 26.0541 35.8114 25.4132C35.879 24.7848 35.3741 24.0312 34.7633 24.0304ZM21.2462 24.3708H18.1659C18.0057 24.3708 17.8838 24.5127 17.9114 24.6671L19.7006 34.7192C19.7282 34.8735 19.8642 34.9862 20.0236 34.9862H21.1627C21.3388 34.9862 21.4815 34.8468 21.4815 34.6749L21.5066 24.6262C21.5066 24.4852 21.3906 24.3708 21.2462 24.3708Z" fill="white"/>
<defs>
<radialGradient id="paint0_radial_37963_15614" cx="0" cy="0" r="1" gradientUnits="userSpaceOnUse" gradientTransform="translate(25.4754 17.0096) rotate(73.7184) scale(27.5504)">
<stop stop-color="#70B6FF"/>
<stop offset="0.34375" stop-color="#62A9F3"/>
<stop offset="0.96875" stop-color="#3D93EC"/>
</radialGradient>
<radialGradient id="paint1_radial_37963_15614" cx="0" cy="0" r="1" gradientUnits="userSpaceOnUse" gradientTransform="translate(25.4754 17.0096) rotate(73.7184) scale(27.5504)">
<stop stop-color="#84C0FF"/>
<stop offset="0.34375" stop-color="#62A9F3"/>
<stop offset="0.96875" stop-color="#3D93EC"/>
</radialGradient>
</defs>
</svg>
