<svg width="54" height="54" viewBox="0 0 54 54" fill="none" xmlns="http://www.w3.org/2000/svg">
<path fill-rule="evenodd" clip-rule="evenodd" d="M24.2314 25.6185L24.2317 25.632C24.239 25.8423 24.4181 26.0106 24.6378 26.0106L24.812 26.0106L24.826 26.0104C25.0439 26.0033 25.2183 25.8307 25.2184 25.6188V24.7957C25.2184 24.7445 25.2215 24.6937 25.2275 24.6442C25.3327 23.7748 26.3333 23.1721 27.2794 23.1721H27.3375C28.1584 23.1721 29.16 23.8325 29.2721 24.6454C29.2724 24.6478 29.2727 24.6502 29.2731 24.6526C29.2757 24.6728 29.2778 24.6932 29.2794 24.7136C29.2796 24.7165 29.2798 24.7194 29.28 24.7223C29.2803 24.7268 29.2806 24.7313 29.2808 24.7358C29.2819 24.7554 29.2824 24.7751 29.2824 24.7948V24.7223V24.7358C29.2831 24.7561 29.2857 24.776 29.2895 24.7954C29.325 24.9769 29.4903 25.1144 29.6888 25.1144L29.877 25.1142C30.0692 25.1079 30.2275 24.9729 30.2623 24.7957C30.2669 24.772 30.2694 24.7473 30.2694 24.7223L30.2711 24.705L30.2772 24.6452C30.2769 24.6416 30.2766 24.638 30.2764 24.6344C30.2767 24.6371 30.2771 24.6398 30.2774 24.6425L31.135 13.1269C31.2473 12.0916 32.0706 11.1435 33.2066 11.2315L33.2647 11.2315C34.5405 11.3431 35.1892 12.5905 35.087 13.6641L34.5099 31.6636L34.5076 31.7254L34.5342 31.6771C34.8635 31.0838 35.2118 30.4675 35.5774 29.9296C35.9927 29.3184 36.4304 28.8083 36.8882 28.5476C38.0911 27.8625 38.6712 27.9006 39.5349 28.0223L39.7673 28.0555C40.2186 28.1199 40.6513 28.3197 41.0653 28.6549C41.4184 28.9406 41.4796 29.4423 41.2049 29.7993L33.976 41.1523L33.2647 41.6163C33.1303 41.7812 32.316 41.7788 32.0274 41.778C32.0094 41.7779 31.9934 41.7779 31.9798 41.7779L20.3482 41.7779L20.3278 41.7776C20.0775 41.7711 19.8462 41.6451 19.7113 41.4404C17.0937 37.469 16.4016 32.9492 16.2135 31.2457C16.0254 29.5423 15.9614 26.8716 15.9614 26.8716L15.6445 17.0401C15.6445 16.0966 16.3155 14.9694 17.2935 14.9694C18.2714 14.9694 19.0642 15.7342 19.0642 16.6777L19.5802 26.2774L19.5804 26.2909C19.5807 26.2995 19.5813 26.3081 19.5822 26.3165C19.6025 26.5147 19.7758 26.6695 19.9866 26.6695L20.1607 26.6695L20.1747 26.6692C20.3927 26.6621 20.5671 26.4894 20.5671 26.2774L20.5082 24.7954C20.5082 23.8555 21.5482 23.2813 22.5186 23.2813C23.3142 23.2813 24.1342 23.7857 24.2236 24.6399C24.2289 24.6905 24.2317 24.7424 24.2317 24.7954L24.2314 25.6185ZM24.7464 23.3326C24.9054 23.1343 25.0891 22.9634 25.2813 22.822C25.8468 22.406 26.5706 22.1721 27.2794 22.1721H27.3375C28.0311 22.1721 28.7293 22.4558 29.2536 22.8667C29.3146 22.9146 29.3756 22.9661 29.4357 23.0211L30.1408 13.0191C30.2927 11.6185 31.443 10.1168 33.2416 10.2315L33.3084 10.2315L33.3518 10.2353C35.3502 10.4101 36.2055 12.3085 36.0853 13.7278L35.6415 28.2637C35.8714 28.036 36.1218 27.8333 36.3933 27.6787C37.0603 27.2988 37.625 27.0788 38.1894 26.9936C38.7489 26.9091 39.236 26.9703 39.6744 27.032L39.6765 27.0323L39.9087 27.0655C40.567 27.1595 41.164 27.4482 41.6945 27.8776C42.4499 28.489 42.6024 29.5769 42.029 30.3669L34.7035 41.8718L33.8751 42.4121C33.7526 42.5114 33.634 42.5666 33.5654 42.5955C33.448 42.6448 33.334 42.6744 33.2458 42.6933C33.068 42.7314 32.8787 42.75 32.7228 42.7605C32.4419 42.7795 32.153 42.7784 32.0216 42.778C32.005 42.7779 31.991 42.7779 31.9798 42.7779H20.3352L20.3019 42.7774C19.7351 42.7627 19.1969 42.4771 18.8763 41.9908C16.127 37.8196 15.4132 33.1089 15.2195 31.3555C15.1217 30.4698 15.0576 29.3494 15.0179 28.4647C14.9979 28.0193 14.9839 27.6279 14.9748 27.3477C14.9703 27.2076 14.967 27.0951 14.9649 27.0174L14.9625 26.9277L14.962 26.9071L14.6445 17.0632V17.0401C14.6445 16.353 14.8816 15.6306 15.2928 15.0637C15.7059 14.4944 16.3874 13.9694 17.2935 13.9694C18.7754 13.9694 20.04 15.1262 20.0639 16.6343L20.3314 23.0562C20.4131 22.9852 20.498 22.92 20.5846 22.8607C21.1494 22.4741 21.8536 22.2813 22.5186 22.2813C23.2855 22.2813 24.1991 22.6274 24.7464 23.3326Z" fill="#CD942F"/>
<path fill-rule="evenodd" clip-rule="evenodd" d="M27.2795 23.1721C26.2793 23.1721 25.2184 23.8456 25.2184 24.7954L25.2184 25.6185C25.2184 25.8306 25.044 26.0033 24.826 26.0104L24.812 26.0106L24.6379 26.0106C24.4181 26.0106 24.2391 25.8423 24.2317 25.632L24.2315 25.6185L24.2317 24.7954C24.2315 23.8472 23.3614 23.2813 22.5186 23.2813C21.5483 23.2813 20.5082 23.8555 20.5082 24.7954L20.5672 26.2774C20.5672 26.4894 20.3927 26.6622 20.1747 26.6693L20.1608 26.6695L19.9866 26.6695C19.7668 26.6695 19.5878 26.5012 19.5804 26.2909L19.5802 26.2774L19.0643 16.6778C19.0643 15.7343 18.2715 14.9694 17.2935 14.9694C16.3156 14.9694 15.6446 16.0966 15.6446 17.0401L15.9614 26.8716C15.9614 26.8716 16.0254 29.5423 16.2135 31.2458C16.4016 32.9492 17.0937 37.4691 19.7113 41.4405C19.8462 41.6451 20.0775 41.7711 20.3278 41.7776L20.3482 41.7779L31.9798 41.7779C32.2116 41.7779 33.1219 41.7916 33.2647 41.6163L33.9761 41.1523L41.2049 29.7994C41.4796 29.4424 41.4184 28.9407 41.0654 28.6549C40.6513 28.3198 40.2186 28.12 39.7673 28.0555L39.535 28.0223C38.6712 27.9006 38.0911 27.8625 36.8882 28.5476C36.0274 29.0379 35.2376 30.4099 34.5343 31.6771L34.5076 31.7254L35.087 13.6641C35.1892 12.5906 34.5405 11.3431 33.2647 11.2316L33.2067 11.2316C32.0706 11.1435 31.2473 12.0916 31.135 13.127L30.2694 24.7223C30.2694 24.9344 30.095 25.1071 29.877 25.1142L29.6888 25.1144C29.4691 25.1144 29.29 24.9461 29.2827 24.7358L29.2824 24.7223V24.7954C29.2827 23.9155 28.2084 23.1721 27.3375 23.1721H27.2795Z" fill="url(#paint0_radial_37963_15605)"/>
<path fill-rule="evenodd" clip-rule="evenodd" d="M27.2795 23.1721C26.2793 23.1721 25.2184 23.8456 25.2184 24.7954L25.2184 25.6185C25.2184 25.8306 25.044 26.0033 24.826 26.0104L24.812 26.0106L24.6379 26.0106C24.4181 26.0106 24.2391 25.8423 24.2317 25.632L24.2315 25.6185L24.2317 24.7954C24.2315 23.8472 23.3614 23.2813 22.5186 23.2813C21.5483 23.2813 20.5082 23.8555 20.5082 24.7954L20.5672 26.2774C20.5672 26.4894 20.3927 26.6622 20.1747 26.6693L20.1608 26.6695L19.9866 26.6695C19.7668 26.6695 19.5878 26.5012 19.5804 26.2909L19.5802 26.2774L19.0643 16.6778C19.0643 15.7343 18.2715 14.9694 17.2935 14.9694C16.3156 14.9694 15.6446 16.0966 15.6446 17.0401L15.9614 26.8716C15.9614 26.8716 16.0254 29.5423 16.2135 31.2458C16.4016 32.9492 17.0937 37.4691 19.7113 41.4405C19.8462 41.6451 20.0775 41.7711 20.3278 41.7776L20.3482 41.7779L31.9798 41.7779C32.2116 41.7779 33.1219 41.7916 33.2647 41.6163L33.9761 41.1523L41.2049 29.7994C41.4796 29.4424 41.4184 28.9407 41.0654 28.6549C40.6513 28.3198 40.2186 28.12 39.7673 28.0555L39.535 28.0223C38.6712 27.9006 38.0911 27.8625 36.8882 28.5476C36.0274 29.0379 35.2376 30.4099 34.5343 31.6771L34.5076 31.7254L35.087 13.6641C35.1892 12.5906 34.5405 11.3431 33.2647 11.2316L33.2067 11.2316C32.0706 11.1435 31.2473 12.0916 31.135 13.127L30.2694 24.7223C30.2694 24.9344 30.095 25.1071 29.877 25.1142L29.6888 25.1144C29.4691 25.1144 29.29 24.9461 29.2827 24.7358L29.2824 24.7223V24.7954C29.2827 23.9155 28.2084 23.1721 27.3375 23.1721H27.2795Z" fill="#FFE45C" fill-opacity="0.23"/>
<path opacity="0.8" d="M20.3097 31.6404C19.7745 30.7901 19.6433 29.0984 19.6433 29.0984L30.441 29.0984C30.441 29.0984 30.5174 30.5455 29.8184 31.6404C29.0419 32.8567 28.0669 33.7381 26.0846 33.7381C24.1124 33.7381 21.5566 33.6216 20.3097 31.6404Z" fill="url(#paint1_linear_37963_15605)"/>
<path d="M24.3815 23.6602C24.3295 22.0822 25.4954 20.7584 26.9856 20.7033L27.4957 20.6844C28.9859 20.6293 30.2362 21.8638 30.2882 23.4418L30.4586 28.6059C30.5106 30.1839 29.3447 31.5078 27.8544 31.5629L27.3444 31.5818C25.8541 31.6369 24.6038 30.4023 24.5518 28.8243L24.3815 23.6602Z" fill="url(#paint2_radial_37963_15605)"/>
<path d="M24.3815 23.6602C24.3295 22.0822 25.4954 20.7584 26.9856 20.7033L27.4957 20.6844C28.9859 20.6293 30.2362 21.8638 30.2882 23.4418L30.4586 28.6059C30.5106 30.1839 29.3447 31.5078 27.8544 31.5629L27.3444 31.5818C25.8541 31.6369 24.6038 30.4023 24.5518 28.8243L24.3815 23.6602Z" fill="#FFE45C" fill-opacity="0.23"/>
<path d="M19.4799 23.7881C19.4279 22.2102 20.5938 20.8863 22.0841 20.8312L22.5938 20.8123C24.084 20.7572 25.3343 21.9918 25.3863 23.5697L25.5557 28.7051C25.6078 30.2831 24.4418 31.607 22.9516 31.6621L22.4419 31.681C20.9516 31.7361 19.7014 30.5015 19.6493 28.9235L19.4799 23.7881Z" fill="url(#paint3_radial_37963_15605)"/>
<path d="M19.4799 23.7881C19.4279 22.2102 20.5938 20.8863 22.0841 20.8312L22.5938 20.8123C24.084 20.7572 25.3343 21.9918 25.3863 23.5697L25.5557 28.7051C25.6078 30.2831 24.4418 31.607 22.9516 31.6621L22.4419 31.681C20.9516 31.7361 19.7014 30.5015 19.6493 28.9235L19.4799 23.7881Z" fill="#FFE45C" fill-opacity="0.23"/>
<path fill-rule="evenodd" clip-rule="evenodd" d="M27.5306 21.7426L27.0205 21.7615C26.0822 21.7962 25.3481 22.6297 25.3809 23.6233L25.5512 28.7874C25.584 29.7809 26.3712 30.5582 27.3095 30.5235L27.8195 30.5047C28.7578 30.47 29.4919 29.6364 29.4592 28.6429L29.2889 23.4788C29.2561 22.4852 28.4689 21.7079 27.5306 21.7426ZM26.9856 20.7033C25.4954 20.7584 24.3295 22.0822 24.3815 23.6602L24.5518 28.8243C24.6038 30.4023 25.8541 31.6369 27.3444 31.5818L27.8544 31.5629C29.3447 31.5078 30.5106 30.1839 30.4586 28.6059L30.2882 23.4418C30.2362 21.8638 28.9859 20.6293 27.4957 20.6844L26.9856 20.7033Z" fill="#CD942F"/>
<path fill-rule="evenodd" clip-rule="evenodd" d="M22.6287 21.8705L22.119 21.8894C21.1807 21.9241 20.4466 22.7576 20.4793 23.7512L20.6487 28.8866C20.6815 29.8801 21.4687 30.6574 22.407 30.6227L22.9167 30.6039C23.855 30.5692 24.5891 29.7356 24.5563 28.7421L24.387 23.6067C24.3542 22.6131 23.567 21.8358 22.6287 21.8705ZM22.0841 20.8312C20.5938 20.8863 19.4279 22.2102 19.4799 23.7881L19.6493 28.9235C19.7014 30.5015 20.9516 31.7361 22.4419 31.681L22.9516 31.6621C24.4418 31.607 25.6078 30.2831 25.5557 28.7051L25.3863 23.5697C25.3343 21.9918 24.084 20.7572 22.5938 20.8123L22.0841 20.8312Z" fill="#CD942F"/>
<defs>
<radialGradient id="paint0_radial_37963_15605" cx="0" cy="0" r="1" gradientTransform="matrix(-6.30837 21.2193 -19.3619 -6.59761 26.9498 20.5089)" gradientUnits="userSpaceOnUse">
<stop stop-color="#FBEB9D"/>
<stop offset="0.34375" stop-color="#F6E071"/>
<stop offset="1" stop-color="#ECC91A"/>
</radialGradient>
<linearGradient id="paint1_linear_37963_15605" x1="32.4715" y1="33.9414" x2="24.4507" y2="33.9414" gradientUnits="userSpaceOnUse">
<stop stop-color="#783E11" stop-opacity="0.22"/>
<stop offset="1" stop-color="#783E11" stop-opacity="0.1"/>
</linearGradient>
<radialGradient id="paint2_radial_37963_15605" cx="0" cy="0" r="1" gradientTransform="matrix(2.4362 7.14995 -3.71559 3.49451 26.2303 24.2084)" gradientUnits="userSpaceOnUse">
<stop stop-color="#FBEB9D"/>
<stop offset="0.34375" stop-color="#F6E071"/>
<stop offset="1" stop-color="#ECC91A"/>
</radialGradient>
<radialGradient id="paint3_radial_37963_15605" cx="0" cy="0" r="1" gradientTransform="matrix(2.43544 7.13086 -3.71565 3.48565 21.3283 24.3271)" gradientUnits="userSpaceOnUse">
<stop stop-color="#FBEB9D"/>
<stop offset="0.34375" stop-color="#F6E071"/>
<stop offset="1" stop-color="#ECC91A"/>
</radialGradient>
</defs>
</svg>
