<svg width="54" height="54" viewBox="0 0 54 54" fill="none" xmlns="http://www.w3.org/2000/svg">
<path d="M35.327 25.7478L28.2315 24.4774C27.6663 23.3883 26.4617 21.2817 25.8257 20.2156C25.1898 19.1495 23.3528 17.4883 22.9321 16.8564C22.5113 16.2245 21.9171 15.2461 22.6339 14.2082C23.3507 13.1703 24.1956 12.9578 25.0747 13.1239C25.9537 13.2899 29.4856 16.6481 30.3714 17.6599C31.2573 18.6718 34.4566 23.7765 35.327 25.7478Z" fill="#FFE560"/>
<path d="M35.327 25.7478L28.2315 24.4774C27.6663 23.3883 26.4617 21.2817 25.8257 20.2156C25.1898 19.1495 23.3528 17.4883 22.9321 16.8564C22.5113 16.2245 21.9171 15.2461 22.6339 14.2082C23.3507 13.1703 24.1956 12.9578 25.0747 13.1239C25.9537 13.2899 29.4856 16.6481 30.3714 17.6599C31.2573 18.6718 34.4566 23.7765 35.327 25.7478Z" fill="url(#paint0_linear_37963_15607)"/>
<path fill-rule="evenodd" clip-rule="evenodd" d="M23.5947 12.7111C24.1234 12.5025 24.6626 12.4952 25.1752 12.592C25.3861 12.6319 25.6076 12.747 25.7973 12.8611C26.0024 12.9844 26.2327 13.1456 26.4749 13.3286C26.9603 13.6953 27.5243 14.1732 28.0814 14.6713C29.1918 15.6642 30.3148 16.7735 30.7788 17.3035C31.2569 17.8496 32.3019 19.4198 33.3155 21.0596C34.3342 22.7075 35.3702 24.5054 35.8223 25.5293L36.2333 26.4601L27.8738 24.9634L27.7511 24.7269C27.1929 23.6514 25.9944 21.5552 25.3608 20.493C25.0788 20.0203 24.5049 19.382 23.9042 18.7445C23.7992 18.6331 23.6933 18.5216 23.5893 18.412C23.4065 18.2195 23.2296 18.0332 23.0746 17.8654C22.8368 17.6079 22.614 17.3556 22.4815 17.1565C22.2708 16.8401 21.9671 16.3682 21.8307 15.814C21.6875 15.2318 21.7301 14.5643 22.1885 13.9007C22.5948 13.3123 23.0647 12.9203 23.5947 12.7111ZM23.9922 13.7182C23.7008 13.8332 23.3899 14.0664 23.0794 14.516C22.8208 14.8903 22.8022 15.2309 22.8821 15.5553C22.9688 15.9078 23.1726 16.241 23.3827 16.5565C23.4605 16.6734 23.6251 16.8657 23.8699 17.1307C24.0206 17.2939 24.1878 17.4699 24.3663 17.6579C24.4713 17.7685 24.5803 17.8833 24.6922 18.002C25.2742 18.6197 25.9367 19.345 26.2906 19.9384C26.8858 20.9361 27.9787 22.844 28.5876 23.9913L34.3681 25.0263C33.8639 24.0713 33.1348 22.8264 32.3946 21.6289C31.3694 19.9704 30.3719 18.4824 29.9641 18.0167C29.5422 17.5348 28.4564 16.459 27.3597 15.4784C26.8132 14.9897 26.274 14.5337 25.8223 14.1924C25.5959 14.0214 25.3992 13.8851 25.2394 13.789C25.1597 13.7411 25.0948 13.7066 25.0444 13.6836C25.0005 13.6635 24.9784 13.6572 24.9743 13.656C24.9734 13.6558 24.9735 13.6559 24.9743 13.656C24.6079 13.5868 24.2849 13.6027 23.9922 13.7182Z" fill="url(#paint1_linear_37963_15607)"/>
<path d="M23.3198 21.9215C21.6298 22.1328 18.5545 23.7443 16.5696 25.1879C15.7053 25.8165 15.7489 27.1776 16.5696 28.1807C17.5202 29.3426 18.7619 28.7902 19.5357 28.5735C20.416 28.3271 21.6758 27.8746 23.6801 27.4835C24.7071 27.2831 26.607 27.9486 27.5424 28.3852C28.7144 28.9322 29.3473 29.4191 29.3473 30.9283C29.3473 31.6789 29.3473 33.0654 28.8093 33.5806C28.1884 34.1751 27.2243 35.0083 25.58 35.7591C24.228 36.3764 21.7421 35.6566 20.712 34.8003C19.682 33.944 18.969 32.9669 18.35 32.1836C17.8627 31.5671 17.2537 30.4603 15.4322 30.6533C13.4255 30.8659 13.4812 32.7295 13.5788 33.7231C13.7079 35.0375 14.7391 36.9206 15.9964 38.6928C17.9278 41.4152 19.4452 42.8257 21.5577 43.6707C23.6703 44.5157 25.3243 44.8071 27.5424 44.8775C29.7606 44.9479 33.2678 43.4399 34.7818 41.9611C36.2958 40.4824 38.3423 37.0713 39.3265 33.8194C40.3107 30.5675 40.0659 27.9752 39.3265 25.6157C38.5872 23.2562 36.1257 16.8016 35.2455 15.534C34.3652 14.2665 30.7691 9.98388 29.7881 9.68172C28.807 9.37955 27.8164 9.51332 26.8657 10.6048C25.9151 11.6963 26.4671 12.8882 26.8657 13.6627C27.2644 14.4373 29.1457 16.5673 29.734 17.8646C30.3223 19.1618 30.8413 21.9508 31.346 23.2653C29.0794 21.8933 25.0098 21.7103 23.3198 21.9215Z" fill="url(#paint2_radial_37963_15607)"/>
<mask id="mask0_37963_15607" style="mask-type:alpha" maskUnits="userSpaceOnUse" x="13" y="9" width="27" height="36">
<path d="M23.3198 21.9215C21.6298 22.1328 18.5545 23.7443 16.5696 25.1879C15.7053 25.8165 15.7489 27.1776 16.5696 28.1807C17.5202 29.3426 18.7619 28.7902 19.5357 28.5735C20.416 28.3271 21.6758 27.8746 23.6801 27.4835C24.7071 27.2831 26.607 27.9486 27.5424 28.3852C28.7144 28.9322 29.3473 29.4191 29.3473 30.9283C29.3473 31.6789 29.3473 33.0654 28.8093 33.5806C28.1884 34.1751 27.2243 35.0083 25.58 35.7591C24.228 36.3764 21.7421 35.6566 20.712 34.8003C19.682 33.944 18.969 32.9669 18.35 32.1836C17.8627 31.5671 17.2537 30.4603 15.4322 30.6533C13.4255 30.8659 13.4812 32.7295 13.5788 33.7231C13.7079 35.0375 14.7391 36.9206 15.9964 38.6928C17.9278 41.4152 19.4452 42.8257 21.5577 43.6707C23.6703 44.5157 25.3243 44.8071 27.5424 44.8775C29.7606 44.9479 33.2678 43.4399 34.7818 41.9611C36.2958 40.4824 38.3423 37.0713 39.3265 33.8194C40.3107 30.5675 40.0659 27.9752 39.3265 25.6157C38.5872 23.2562 36.1257 16.8016 35.2455 15.534C34.3652 14.2665 30.7691 9.98388 29.7881 9.68172C28.807 9.37955 27.8164 9.51332 26.8657 10.6048C25.9151 11.6963 26.4671 12.8882 26.8657 13.6627C27.2644 14.4373 29.1457 16.5673 29.734 17.8646C30.3223 19.1618 30.8413 21.9508 31.346 23.2653C29.0794 21.8933 25.0098 21.7103 23.3198 21.9215Z" fill="#FFE560"/>
</mask>
<g mask="url(#mask0_37963_15607)">
<path d="M23.4838 42.4316C21.0428 42.1323 17.2539 39.5034 17.2539 39.5034V45.3906L39.1327 45.3906V32.4382C39.1327 32.4382 34.6767 39.8325 31.7673 41.187C28.9735 42.4876 26.1162 42.7544 23.4838 42.4316Z" fill="url(#paint3_linear_37963_15607)"/>
<path opacity="0.8" d="M21.5635 37.1812C20.4844 36.7224 18.6909 33.449 18.6909 33.449L19.8163 27.939C19.8163 27.939 23.53 26.1809 24.2144 26.138C26.2495 26.0104 29.1339 27.2953 29.8943 27.6808C31.904 28.6996 32.4792 31.2446 32.1726 32.8628C31.782 34.9246 30.2583 36.6793 28.6883 37.3201C26.0547 38.3951 22.9901 37.7877 21.5635 37.1812Z" fill="url(#paint4_linear_37963_15607)"/>
</g>
<path fill-rule="evenodd" clip-rule="evenodd" d="M28.1744 9.09788C28.786 8.9327 29.3859 8.99125 29.9474 9.16422C30.1684 9.23227 30.3966 9.38432 30.5973 9.538C30.8122 9.70255 31.0519 9.91378 31.3035 10.1525C31.8076 10.6308 32.3878 11.2464 32.9583 11.8851C34.0962 13.1589 35.2318 14.5651 35.6901 15.2251C35.9436 15.5901 36.2815 16.2773 36.6449 17.0915C37.0152 17.9213 37.4317 18.9285 37.8422 19.9661C38.6622 22.0385 39.4678 24.2559 39.8431 25.4537C40.6109 27.9037 40.8641 30.6077 39.8447 33.9761C38.8402 37.2951 36.753 40.7924 35.1601 42.3483C34.3352 43.1539 33.0109 43.9331 31.6323 44.5007C30.2556 45.0674 28.7429 45.4571 27.5253 45.4184C25.2535 45.3463 23.536 45.0449 21.3567 44.1732C19.106 43.2729 17.5141 41.7675 15.5549 39.0059C14.9156 38.1049 14.3277 37.1673 13.881 36.2795C13.4389 35.4011 13.1143 34.5314 13.0401 33.7759C12.9908 33.2744 12.9376 32.4514 13.2078 31.7098C13.347 31.3279 13.5764 30.954 13.9443 30.6599C14.3132 30.3651 14.7883 30.177 15.3752 30.1148C16.4173 30.0044 17.162 30.2672 17.7156 30.6812C18.1375 30.9966 18.443 31.406 18.6506 31.6842C18.6967 31.7461 18.738 31.8014 18.7747 31.8478C18.8529 31.9467 18.9317 32.0475 19.0116 32.1496C19.5795 32.876 20.2024 33.6725 21.0581 34.3839C21.4874 34.7407 22.279 35.1066 23.1458 35.3044C24.0233 35.5047 24.8405 35.5015 25.3552 35.2665C26.9279 34.5484 27.8426 33.7567 28.4349 33.1895C28.4854 33.1411 28.5496 33.0446 28.6099 32.8739C28.6688 32.7073 28.7127 32.502 28.7434 32.2711C28.8052 31.8073 28.806 31.308 28.806 30.9281C28.806 30.2515 28.6655 29.8874 28.4626 29.6351C28.2426 29.3617 27.8939 29.1466 27.3135 28.8757C26.8713 28.6693 26.1915 28.4048 25.5035 28.2177C24.7919 28.0242 24.1654 27.9402 23.7838 28.0147C22.2889 28.3063 21.2321 28.6281 20.4098 28.8785C20.1451 28.9591 19.9046 29.0323 19.6817 29.0947C19.6205 29.1118 19.5489 29.1339 19.4687 29.1586C19.128 29.2637 18.6339 29.4161 18.1395 29.4349C17.4708 29.4602 16.7492 29.2549 16.1506 28.5233C15.6702 27.9361 15.4032 27.2283 15.3964 26.5492C15.3896 25.8651 15.6511 25.1864 16.2512 24.75C17.27 24.0091 18.5612 23.2298 19.8146 22.6076C21.0532 21.9927 22.3126 21.5018 23.2527 21.3842C24.1514 21.2719 25.6376 21.2672 27.1845 21.4625C28.2757 21.6002 29.434 21.8418 30.454 22.2359C30.3466 21.8493 30.2396 21.436 30.1332 21.0253C30.1046 20.9147 30.076 20.8043 30.0475 20.6947C29.7775 19.6569 29.512 18.6855 29.241 18.088C28.9759 17.5033 28.3976 16.6947 27.7957 15.8923C27.6899 15.7512 27.5832 15.6101 27.4786 15.4718C27.2951 15.2291 27.1181 14.9949 26.9631 14.784C26.7245 14.4593 26.5067 14.1479 26.3844 13.9103C26.1848 13.5225 25.9053 12.9564 25.823 12.3222C25.7369 11.6593 25.8668 10.9274 26.4575 10.2491C26.9882 9.63979 27.5614 9.26342 28.1744 9.09788ZM31.7902 22.9044C32.5704 23.4064 33.4985 24.2 34.2311 24.8651C34.6284 25.2258 34.9772 25.5571 35.2267 25.7981C35.3515 25.9187 35.4516 26.017 35.5208 26.0852L35.6006 26.1643L35.6216 26.1853L35.6271 26.1909L35.6286 26.1924C35.8395 26.4043 35.8393 26.7477 35.6273 26.9586C35.4154 27.1695 35.0726 27.1686 34.8617 26.9567M34.8617 26.9567L34.8557 26.9506L34.8363 26.9312L34.7601 26.8557C34.6934 26.7898 34.596 26.6943 34.4743 26.5767C34.2307 26.3413 33.8904 26.0181 33.5033 25.6667C32.7193 24.9549 31.7784 24.1597 31.0657 23.7283C30.0287 23.1006 28.5336 22.7241 27.0489 22.5367C25.5719 22.3502 24.1783 22.3597 23.387 22.4586C22.637 22.5523 21.5137 22.9728 20.296 23.5774C19.093 24.1746 17.8542 24.9229 16.888 25.6256C16.6238 25.8177 16.475 26.1339 16.4791 26.5383C16.4832 26.9476 16.6484 27.4219 16.9886 27.8377C17.3407 28.2681 17.7152 28.3675 18.0985 28.353C18.4357 28.3402 18.7474 28.2452 19.0776 28.1446C19.1795 28.1135 19.2831 28.0819 19.3898 28.0521C19.5877 27.9967 19.8111 27.9286 20.0633 27.8518C20.8878 27.6006 22.02 27.2557 23.5764 26.952C24.2218 26.8261 25.0587 26.9747 25.7877 27.173C26.5403 27.3777 27.2781 27.6643 27.7714 27.8946C28.3629 28.1706 28.9167 28.4724 29.3061 28.9564C29.7126 29.4617 29.8887 30.0956 29.8887 30.9281V30.939C29.8887 31.3099 29.8887 31.8735 29.8167 32.4141C29.7802 32.688 29.7232 32.9729 29.6308 33.2346C29.5397 33.4923 29.4022 33.7622 29.1837 33.9715C28.5343 34.5933 27.5208 35.4679 25.8049 36.2514C24.9675 36.6337 23.8658 36.5793 22.9048 36.3599C21.9331 36.1381 20.9668 35.7159 20.366 35.2165C19.4145 34.4255 18.7182 33.5336 18.1538 32.8107C18.0752 32.71 17.9991 32.6126 17.9253 32.5192C17.861 32.4378 17.8007 32.3577 17.7417 32.2793C17.5387 32.0097 17.3509 31.7604 17.0673 31.5483C16.7392 31.303 16.2686 31.1089 15.4892 31.1915C15.0728 31.2356 14.8023 31.3602 14.6203 31.5057C14.4374 31.6519 14.3106 31.8458 14.225 32.0805C14.0459 32.5723 14.0692 33.1779 14.1176 33.67C14.1725 34.2289 14.428 34.958 14.8481 35.7928C15.2635 36.6183 15.8199 37.5083 16.4379 38.3795C18.3416 41.0627 19.7845 42.3782 21.7588 43.1679C23.8046 43.9862 25.3951 44.2675 27.5596 44.3363C28.5601 44.368 29.9101 44.0388 31.2201 43.4995C32.5282 42.961 33.7145 42.2468 34.4036 41.5737C35.8386 40.1721 37.8445 36.8473 38.8084 33.6625C39.7574 30.527 39.521 28.0465 38.81 25.7775C38.4459 24.6158 37.6511 22.4261 36.8354 20.3644C36.4281 19.335 36.018 18.3433 35.6562 17.5327C35.2874 16.7064 34.9874 16.1114 34.8008 15.8427C34.3789 15.2352 33.2764 13.8664 32.1509 12.6064C31.5897 11.9782 31.0319 11.3872 30.5583 10.938C30.3211 10.7129 30.112 10.5301 29.939 10.3976C29.8527 10.3315 29.7807 10.2821 29.7228 10.2474C29.6942 10.2302 29.6715 10.2181 29.6543 10.2099C29.6374 10.2018 29.6288 10.1989 29.6288 10.1989C29.2093 10.0698 28.8233 10.0441 28.4567 10.1431C28.0914 10.2418 27.6939 10.478 27.274 10.9602C26.9141 11.3734 26.8447 11.7831 26.8966 12.1827C26.9523 12.611 27.1481 13.0281 27.3471 13.4149C27.4242 13.5646 27.591 13.8099 27.8356 14.1429C27.9868 14.3487 28.1554 14.5717 28.3351 14.8093C28.4406 14.9489 28.55 15.0935 28.6618 15.2426C29.2474 16.0232 29.9039 16.9283 30.2271 17.6409C30.5444 18.3407 30.8326 19.4123 31.0953 20.422C31.1236 20.5309 31.1517 20.6391 31.1795 20.7463C31.3954 21.5793 31.5959 22.3528 31.7902 22.9044" fill="url(#paint5_linear_37963_15607)"/>
<defs>
<linearGradient id="paint0_linear_37963_15607" x1="31.5906" y1="23.1046" x2="22.841" y2="14.2756" gradientUnits="userSpaceOnUse">
<stop stop-color="#783E11" stop-opacity="0.22"/>
<stop offset="1" stop-color="#783E11" stop-opacity="0.1"/>
</linearGradient>
<linearGradient id="paint1_linear_37963_15607" x1="22.5075" y1="14.8214" x2="26.1513" y2="16.2687" gradientUnits="userSpaceOnUse">
<stop stop-color="#CD942F"/>
<stop offset="1" stop-color="#C18B2C"/>
</linearGradient>
<radialGradient id="paint2_radial_37963_15607" cx="0" cy="0" r="1" gradientTransform="matrix(-13.9828 23.754 -23.5374 -7.38276 36.9931 21.8931)" gradientUnits="userSpaceOnUse">
<stop stop-color="#FBEB9D"/>
<stop offset="0.3596" stop-color="#F6E071"/>
<stop offset="1" stop-color="#ECC91A"/>
</radialGradient>
<linearGradient id="paint3_linear_37963_15607" x1="27.3331" y1="44.4162" x2="27.5799" y2="37.1094" gradientUnits="userSpaceOnUse">
<stop stop-color="#783E11" stop-opacity="0.22"/>
<stop offset="1" stop-color="#783E11" stop-opacity="0.1"/>
</linearGradient>
<linearGradient id="paint4_linear_37963_15607" x1="31.8538" y1="33.5605" x2="26.3211" y2="33.4307" gradientUnits="userSpaceOnUse">
<stop stop-color="#783E11" stop-opacity="0.22"/>
<stop offset="1" stop-color="#783E11" stop-opacity="0.1"/>
</linearGradient>
<linearGradient id="paint5_linear_37963_15607" x1="38.7652" y1="21.6508" x2="38.8551" y2="45.4211" gradientUnits="userSpaceOnUse">
<stop stop-color="#CD942F"/>
<stop offset="1" stop-color="#C18B2C"/>
</linearGradient>
</defs>
</svg>
