<svg width="54" height="54" viewBox="0 0 54 54" fill="none" xmlns="http://www.w3.org/2000/svg">
<rect x="37.744" y="39.4204" width="2.5" height="2.5" transform="rotate(15 37.744 39.4204)" fill="#F8D701"/>
<circle cx="27" cy="27" r="17" fill="url(#paint0_radial_37963_15598)"/>
<g opacity="0.5">
<path fill-rule="evenodd" clip-rule="evenodd" d="M27 44C36.3888 44 44 36.3888 44 27C44 17.6112 36.3888 10 27 10C17.6112 10 10 17.6112 10 27C10 36.3888 17.6112 44 27 44ZM27.0001 42.5141C35.5683 42.5141 42.5141 35.5683 42.5141 27.0001C42.5141 18.4319 35.5683 11.4861 27.0001 11.4861C18.4319 11.4861 11.4861 18.4319 11.4861 27.0001C11.4861 35.5683 18.4319 42.5141 27.0001 42.5141Z" fill="url(#paint1_radial_37963_15598)"/>
<path fill-rule="evenodd" clip-rule="evenodd" d="M27 44C36.3888 44 44 36.3888 44 27C44 17.6112 36.3888 10 27 10C17.6112 10 10 17.6112 10 27C10 36.3888 17.6112 44 27 44ZM27.0001 42.5141C35.5683 42.5141 42.5141 35.5683 42.5141 27.0001C42.5141 18.4319 35.5683 11.4861 27.0001 11.4861C18.4319 11.4861 11.4861 18.4319 11.4861 27.0001C11.4861 35.5683 18.4319 42.5141 27.0001 42.5141Z" fill="#C08200" fill-opacity="0.28"/>
</g>
<ellipse opacity="0.3" cx="17.2795" cy="27.396" rx="7.03968" ry="12.6714" fill="url(#paint2_radial_37963_15598)"/>
<ellipse opacity="0.3" cx="7.03968" cy="12.6714" rx="7.03968" ry="12.6714" transform="matrix(-1 0 0 1 44.1367 14.7246)" fill="url(#paint3_radial_37963_15598)"/>
<path fill-rule="evenodd" clip-rule="evenodd" d="M20.69 23.9464C19.5991 23.9412 18.5868 24.349 17.7304 25.0493C17.6702 25.099 17.6353 25.1773 17.6356 25.2589L17.6403 26.011C17.6416 26.2083 17.8426 26.3366 18.0035 26.2386C18.7234 25.7959 19.5284 25.5471 20.3813 25.5514C21.4822 25.5563 22.5084 25.9799 23.3788 26.7005C23.539 26.8337 23.7701 26.7136 23.7686 26.4985L23.7615 25.2817C23.7612 25.1996 23.7252 25.1207 23.6637 25.0711C22.7986 24.365 21.7801 23.9508 20.69 23.9464Z" fill="#783E11"/>
<path opacity="0.5" fill-rule="evenodd" clip-rule="evenodd" d="M16.4056 20.8241C17.3749 19.7009 18.6268 18.9706 19.8981 18.622C21.1695 18.2735 21.8691 18.2273 22.4548 18.3773C22.6031 18.4158 22.7158 18.5219 22.7737 18.6606L22.791 18.7022C22.968 19.128 22.653 19.6024 22.0761 19.6311C21.4992 19.6597 20.5914 19.8947 20.1524 19.9858C19.0786 20.2085 18.0659 20.7944 17.2008 21.6187C16.8816 21.9228 16.4036 21.858 16.2575 21.5065C16.1684 21.2933 16.2303 21.027 16.4056 20.8241Z" fill="#783E11"/>
<path opacity="0.5" fill-rule="evenodd" clip-rule="evenodd" d="M37.4828 20.8241C36.5135 19.7009 35.2617 18.9706 33.9903 18.622C32.719 18.2735 32.0194 18.2273 31.4337 18.3773C31.2853 18.4158 31.1726 18.5219 31.1147 18.6606L31.0974 18.7022C30.9204 19.128 31.2354 19.6024 31.8123 19.6311C32.3892 19.6597 33.297 19.8947 33.7361 19.9858C34.8098 20.2085 35.8225 20.7944 36.6877 21.6187C37.0068 21.9228 37.4848 21.858 37.6309 21.5065C37.72 21.2933 37.6581 21.027 37.4828 20.8241Z" fill="#783E11"/>
<path fill-rule="evenodd" clip-rule="evenodd" d="M33.1984 23.9464C34.2894 23.9412 35.3016 24.349 36.158 25.0493C36.2182 25.099 36.2532 25.1773 36.2529 25.2589L36.2481 26.011C36.2468 26.2083 36.0458 26.3366 35.8849 26.2386C35.165 25.7959 34.3601 25.5471 33.5072 25.5514C32.4062 25.5563 31.38 25.9799 30.5096 26.7005C30.3495 26.8337 30.1183 26.7136 30.1198 26.4985L30.1269 25.2817C30.1273 25.1996 30.1632 25.1207 30.2248 25.0711C31.0898 24.365 32.1084 23.9508 33.1984 23.9464Z" fill="#783E11"/>
<g filter="url(#filter0_d_37963_15598)">
<path d="M30.0112 32.3709C31.37 32.222 32.6088 31.9444 33.8756 31.6353C37.3084 30.7978 41.4121 28.1567 41.4121 28.1567V39.8821C41.4121 39.8821 37.5057 37.1534 33.8756 36.3479C32.6545 36.0769 31.4136 35.7376 30.0112 35.5486L29.1453 33.9203L30.0112 32.3709Z" fill="url(#paint4_linear_37963_15598)"/>
<path d="M41.4121 28.1121C41.4121 27.7166 41.7676 27.396 42.2061 27.396C42.6445 27.396 43 27.7166 43 28.112V39.9269C43 40.3224 42.6445 40.643 42.2061 40.643C41.7676 40.643 41.4121 40.3224 41.4121 39.9269V28.1121Z" fill="#7FDEFC"/>
<mask id="mask0_37963_15598" style="mask-type:alpha" maskUnits="userSpaceOnUse" x="28" y="28" width="14" height="12">
<path d="M30.0158 32.3704C31.3727 32.2214 32.6102 31.9441 33.8756 31.6353C37.3084 30.7978 41.4121 28.1567 41.4121 28.1567V39.8821C41.4121 39.8821 37.5057 37.1534 33.8756 36.3479C32.6558 36.0772 31.4163 35.7384 30.0158 35.5492L28.9228 33.9658L30.0158 32.3704Z" fill="url(#paint5_linear_37963_15598)"/>
</mask>
<g mask="url(#mask0_37963_15598)">
<path opacity="0.3" d="M38.9393 27.6765C39.0417 27.2945 39.468 27.0769 39.8915 27.1904C40.3151 27.3038 40.5755 27.7055 40.4731 28.0875L37.4152 39.4998C37.3128 39.8818 36.8865 40.0995 36.463 39.986C36.0394 39.8725 35.779 39.4708 35.8814 39.0888L38.9393 27.6765Z" fill="white"/>
<path opacity="0.3" d="M35.05 27.6765C35.1523 27.2945 35.5786 27.0769 36.0022 27.1904C36.4257 27.3038 36.6861 27.7055 36.5838 28.0875L33.5258 39.4998C33.4235 39.8818 32.9972 40.0995 32.5736 39.986C32.1501 39.8725 31.8897 39.4708 31.992 39.0888L35.05 27.6765Z" fill="white"/>
<path opacity="0.3" d="M31.1606 27.6765C31.2629 27.2945 31.6892 27.0769 32.1128 27.1904C32.5363 27.3038 32.7967 27.7055 32.6944 28.0875L29.6364 39.4998C29.5341 39.8818 29.1078 40.0995 28.6842 39.986C28.2607 39.8725 28.0003 39.4708 28.1026 39.0888L31.1606 27.6765Z" fill="white"/>
</g>
</g>
<path fill-rule="evenodd" clip-rule="evenodd" d="M26.3003 30.4318C26.3515 30.1301 26.7473 30.1484 27.0096 30.1994C28.2382 30.4379 30.7831 30.6397 30.7831 32.3099C30.7831 32.7903 30.5426 33.1683 30.2603 33.4421C30.0142 33.6808 29.6715 33.867 29.3829 34.0099C29.6714 34.1521 30.014 34.3377 30.2601 34.5763C30.543 34.8505 30.7831 35.2288 30.7831 35.7099C30.7831 37.144 28.507 37.5632 27.4361 37.8028C27.0621 37.8864 26.3798 37.9527 26.3214 37.5978C26.2677 37.2715 26.8756 37.1546 27.2501 37.0528C27.7315 36.922 29.7831 36.4428 29.7831 35.7099C29.7831 34.8728 28.7416 34.5321 28.2669 34.3937C27.9499 34.3013 27.6358 34.2557 27.6358 34.0099C27.6358 33.7361 27.95 33.6967 28.2669 33.6034C28.7393 33.4642 29.7831 33.1635 29.7831 32.3099C29.7831 31.3909 27.5889 31.0331 26.8479 30.8892C26.588 30.8387 26.2453 30.7564 26.3003 30.4318Z" fill="#783E11" stroke="#783E11" stroke-width="0.2" stroke-linecap="square" stroke-linejoin="round"/>
<rect x="37.0969" y="8.646" width="2.5" height="2.5" transform="rotate(5 37.0969 8.646)" fill="#F8D701"/>
<rect x="41.4688" y="13.1938" width="2.5" height="2.5" transform="rotate(15 41.4688 13.1938)" fill="#FF5F5A"/>
<rect x="13.5356" y="40.6448" width="2.5" height="2.5" transform="rotate(15 13.5356 40.6448)" fill="#FF4A45"/>
<rect x="32.088" y="41.2917" width="2.5" height="2.5" transform="rotate(5 32.088 41.2917)" fill="#3D93EC"/>
<rect x="10.6159" y="34.7195" width="2.5" height="2.5" transform="rotate(5 10.6159 34.7195)" fill="#3D93EC"/>
<path d="M11.7075 19.5706L8.52556 8.61042L19.4857 11.7924C19.4857 11.7924 19.4857 14.1017 16.7513 16.8361C14.0169 19.5706 11.7075 19.5706 11.7075 19.5706Z" fill="#D9D9D9"/>
<path d="M11.7075 19.5706L8.52556 8.61042L19.4857 11.7924C19.4857 11.7924 19.4857 14.1017 16.7513 16.8361C14.0169 19.5706 11.7075 19.5706 11.7075 19.5706Z" fill="url(#paint6_linear_37963_15598)"/>
<mask id="mask1_37963_15598" style="mask-type:alpha" maskUnits="userSpaceOnUse" x="8" y="8" width="12" height="12">
<path d="M11.7075 19.5706L8.52556 8.61042L19.4857 11.7924C19.4857 11.7924 19.4857 14.1017 16.7513 16.8361C14.0169 19.5706 11.7075 19.5706 11.7075 19.5706Z" fill="#D9D9D9"/>
<path d="M11.7075 19.5706L8.52556 8.61042L19.4857 11.7924C19.4857 11.7924 19.4857 14.1017 16.7513 16.8361C14.0169 19.5706 11.7075 19.5706 11.7075 19.5706Z" fill="url(#paint7_linear_37963_15598)"/>
</mask>
<g mask="url(#mask1_37963_15598)">
<path opacity="0.3" d="M17.6693 9.22315C17.867 8.88067 18.2794 8.74853 18.5903 8.92803C18.9012 9.10752 18.9929 9.53066 18.7952 9.87315L12.8877 20.1051C12.69 20.4476 12.2777 20.5798 11.9668 20.4003C11.6559 20.2208 11.5641 19.7976 11.7619 19.4551L17.6693 9.22315Z" fill="white"/>
<path opacity="0.3" d="M14.2342 8.53833C14.4319 8.19585 14.8443 8.06372 15.1551 8.24321C15.466 8.42271 15.5578 8.84585 15.36 9.18833L9.45259 19.4203C9.25485 19.7628 8.84253 19.8949 8.53164 19.7154C8.22075 19.536 8.12902 19.1128 8.32675 18.7703L14.2342 8.53833Z" fill="white"/>
<path opacity="0.3" d="M10.799 7.85328C10.9967 7.51079 11.4091 7.37866 11.72 7.55815C12.0309 7.73765 12.1226 8.16079 11.9248 8.50327L6.01741 18.7353C5.81967 19.0777 5.40735 19.2099 5.09646 19.0304C4.78557 18.8509 4.69384 18.4277 4.89157 18.0853L10.799 7.85328Z" fill="white"/>
</g>
<rect x="10" y="21.9753" width="2.5" height="2.5" transform="rotate(-30 10 21.9753)" fill="#FF4A45"/>
<rect x="20.9991" y="8.46924" width="2.5" height="2.5" transform="rotate(15 20.9991 8.46924)" fill="#3D93EC"/>
<defs>
<filter id="filter0_d_37963_15598" x="26.9229" y="25.396" width="18.0771" height="17.2471" filterUnits="userSpaceOnUse" color-interpolation-filters="sRGB">
<feFlood flood-opacity="0" result="BackgroundImageFix"/>
<feColorMatrix in="SourceAlpha" type="matrix" values="0 0 0 0 0 0 0 0 0 0 0 0 0 0 0 0 0 0 127 0" result="hardAlpha"/>
<feOffset/>
<feGaussianBlur stdDeviation="1"/>
<feComposite in2="hardAlpha" operator="out"/>
<feColorMatrix type="matrix" values="0 0 0 0 0.807843 0 0 0 0 0.588235 0 0 0 0 0.207843 0 0 0 0.5 0"/>
<feBlend mode="normal" in2="BackgroundImageFix" result="effect1_dropShadow_37963_15598"/>
<feBlend mode="normal" in="SourceGraphic" in2="effect1_dropShadow_37963_15598" result="shape"/>
</filter>
<radialGradient id="paint0_radial_37963_15598" cx="0" cy="0" r="1" gradientUnits="userSpaceOnUse" gradientTransform="translate(25.4754 17.0096) rotate(73.7184) scale(27.5504)">
<stop stop-color="#FFF1AA"/>
<stop offset="0.34375" stop-color="#FFE564"/>
<stop offset="0.760417" stop-color="#F4CC00"/>
<stop offset="1" stop-color="#F29E0B"/>
</radialGradient>
<radialGradient id="paint1_radial_37963_15598" cx="0" cy="0" r="1" gradientUnits="userSpaceOnUse" gradientTransform="translate(25.4754 17.0096) rotate(73.7184) scale(27.5504)">
<stop stop-color="#FBEB9D"/>
<stop offset="0.34375" stop-color="#F6E071"/>
<stop offset="0.786458" stop-color="#ECC91A"/>
<stop offset="1" stop-color="#E3BE00"/>
</radialGradient>
<radialGradient id="paint2_radial_37963_15598" cx="0" cy="0" r="1" gradientUnits="userSpaceOnUse" gradientTransform="translate(15.2748 26.7494) rotate(90) scale(9.12425 5.48291)">
<stop stop-color="#FF2727"/>
<stop offset="1" stop-color="#F6E071" stop-opacity="0.07"/>
</radialGradient>
<radialGradient id="paint3_radial_37963_15598" cx="0" cy="0" r="1" gradientUnits="userSpaceOnUse" gradientTransform="translate(5.03498 12.0772) rotate(90) scale(9.07188 5.45144)">
<stop stop-color="#FF2727"/>
<stop offset="1" stop-color="#F6E071" stop-opacity="0.07"/>
</radialGradient>
<linearGradient id="paint4_linear_37963_15598" x1="34.6647" y1="27.9025" x2="34.6647" y2="39.8821" gradientUnits="userSpaceOnUse">
<stop stop-color="#B389F4"/>
<stop offset="1" stop-color="#8F53ED"/>
</linearGradient>
<linearGradient id="paint5_linear_37963_15598" x1="34.6648" y1="27.9025" x2="34.6648" y2="39.8821" gradientUnits="userSpaceOnUse">
<stop stop-color="#B389F4"/>
<stop offset="1" stop-color="#8F53ED"/>
</linearGradient>
<linearGradient id="paint6_linear_37963_15598" x1="8.03413" y1="8.74519" x2="16.4382" y2="17.1492" gradientUnits="userSpaceOnUse">
<stop stop-color="#B389F4"/>
<stop offset="1" stop-color="#8F53ED"/>
</linearGradient>
<linearGradient id="paint7_linear_37963_15598" x1="8.03413" y1="8.74519" x2="16.4382" y2="17.1492" gradientUnits="userSpaceOnUse">
<stop stop-color="#B389F4"/>
<stop offset="1" stop-color="#8F53ED"/>
</linearGradient>
</defs>
</svg>
