<svg width="54" height="54" viewBox="0 0 54 54" fill="none" xmlns="http://www.w3.org/2000/svg">
<circle cx="27" cy="27" r="17" fill="url(#paint0_radial_37963_15601)"/>
<circle cx="27" cy="27" r="17" fill="#E35753" fill-opacity="0.3"/>
<path fill-rule="evenodd" clip-rule="evenodd" d="M27 44C36.3888 44 44 36.3888 44 27C44 17.6112 36.3888 10 27 10C17.6112 10 10 17.6112 10 27C10 36.3888 17.6112 44 27 44ZM27.0001 42.5141C35.5683 42.5141 42.5141 35.5683 42.5141 27.0001C42.5141 18.4319 35.5683 11.4861 27.0001 11.4861C18.4319 11.4861 11.4861 18.4319 11.4861 27.0001C11.4861 35.5683 18.4319 42.5141 27.0001 42.5141Z" fill="url(#paint1_radial_37963_15601)"/>
<path fill-rule="evenodd" clip-rule="evenodd" d="M27 44C36.3888 44 44 36.3888 44 27C44 17.6112 36.3888 10 27 10C17.6112 10 10 17.6112 10 27C10 36.3888 17.6112 44 27 44ZM27.0001 42.5141C35.5683 42.5141 42.5141 35.5683 42.5141 27.0001C42.5141 18.4319 35.5683 11.4861 27.0001 11.4861C18.4319 11.4861 11.4861 18.4319 11.4861 27.0001C11.4861 35.5683 18.4319 42.5141 27.0001 42.5141Z" fill="#B04441" fill-opacity="0.3"/>
<path d="M25.3293 30.6488C25.0532 30.6488 24.8283 30.425 24.8322 30.1489C24.8429 29.3816 24.8918 28.6077 25.1046 27.8701C25.288 27.2545 25.5544 26.7574 25.9036 26.3786C26.2528 25.9998 26.673 25.6565 27.1642 25.3488C27.5312 25.112 27.8596 24.8664 28.1497 24.6119C28.4397 24.3574 28.6705 24.0763 28.8421 23.7685C29.0138 23.4548 29.0996 23.1056 29.0996 22.7209C29.0996 22.3125 29.0019 21.9545 28.8066 21.6467C28.6113 21.3389 28.3479 21.1022 28.0165 20.9365C27.691 20.7708 27.3299 20.6879 26.9334 20.6879C26.5487 20.6879 26.1847 20.7737 25.8414 20.9454C25.4981 21.1111 25.217 21.3597 24.998 21.6911C24.8554 21.9032 24.7554 22.1491 24.6981 22.429C24.6442 22.6926 24.4299 22.9074 24.1609 22.9074H21.5334C21.2524 22.9074 21.0244 22.6754 21.0506 22.3956C21.14 21.4392 21.4141 20.6332 21.873 19.9777C22.4116 19.2023 23.1248 18.6253 24.0126 18.2465C24.9004 17.8618 25.8799 17.6694 26.9511 17.6694C28.1289 17.6694 29.1706 17.8647 30.0761 18.2554C30.9817 18.6401 31.6919 19.1994 32.2068 19.9333C32.7217 20.6672 32.9792 21.552 32.9792 22.5878C32.9792 23.2802 32.8638 23.8958 32.633 24.4343C32.4081 24.967 32.0914 25.4405 31.683 25.8548C31.2747 26.2632 30.7923 26.6331 30.236 26.9645C29.7684 27.2427 29.3837 27.5327 29.0818 27.8346C28.7859 28.1364 28.564 28.4856 28.416 28.8821C28.2695 29.2911 28.2189 29.7188 28.202 30.1489C28.1912 30.4249 27.9702 30.6488 27.694 30.6488H25.3293ZM26.5872 36.3307C25.9953 36.3307 25.4893 36.1235 25.069 35.7092C24.6547 35.289 24.4506 34.7859 24.4565 34.2C24.4506 33.62 24.6547 33.1228 25.069 32.7085C25.4893 32.2942 25.9953 32.087 26.5872 32.087C27.1494 32.087 27.6436 32.2942 28.0698 32.7085C28.4959 33.1228 28.7119 33.62 28.7178 34.2C28.7119 34.5906 28.6083 34.9487 28.4071 35.2742C28.2118 35.5938 27.9543 35.8513 27.6347 36.0466C27.3151 36.236 26.9659 36.3307 26.5872 36.3307Z" fill="white"/>
<path d="M26.5872 31.5874C27.2876 31.5874 27.9046 31.8508 28.4182 32.3501C28.9373 32.8547 29.2107 33.4779 29.218 34.1948V34.2075C29.2108 34.6853 29.0818 35.1304 28.8333 35.5337L28.8342 35.5347C28.5976 35.9219 28.2829 36.2365 27.8958 36.4731L27.8899 36.4771C27.4916 36.7131 27.0538 36.8306 26.5872 36.8306C25.8644 36.8306 25.2321 36.5718 24.718 36.0649L24.7131 36.0601C24.2061 35.5458 23.949 34.9149 23.9563 34.1948C23.9516 33.4833 24.2094 32.8607 24.7151 32.355L24.718 32.3521C25.2321 31.8453 25.8645 31.5874 26.5872 31.5874ZM26.9514 17.1694C28.1842 17.1695 29.2957 17.3741 30.2747 17.7964H30.2737C31.2556 18.2139 32.0431 18.8288 32.6165 19.646C33.1991 20.4765 33.4787 21.4655 33.4788 22.5874C33.4788 23.3354 33.3549 24.0203 33.093 24.6313C32.8434 25.2217 32.4912 25.7471 32.0393 26.2056L32.0364 26.2085C31.5955 26.6494 31.0791 27.044 30.4915 27.394C30.0505 27.6564 29.7015 27.9223 29.4358 28.188C29.1922 28.4373 29.0099 28.7234 28.887 29.0503L28.8088 29.312C28.7434 29.5789 28.7134 29.8633 28.7014 30.1685C28.6807 30.6978 28.253 31.1489 27.6936 31.1489H25.3293C24.7798 31.1489 24.3246 30.7023 24.3323 30.1421L24.3499 29.5493C24.3792 28.9505 24.4505 28.3343 24.6243 27.7319L24.6252 27.7271C24.8252 27.0562 25.1244 26.4864 25.5364 26.0396C25.9178 25.6259 26.3711 25.2557 26.8928 24.9282C27.2418 24.7031 27.5503 24.4722 27.8196 24.2358C28.0707 24.0154 28.2642 23.7783 28.4055 23.5249C28.5325 23.2913 28.5998 23.0269 28.5999 22.7212C28.5999 22.3959 28.5225 22.1328 28.384 21.9146C28.2383 21.685 28.0447 21.5091 27.7932 21.3833L27.7893 21.3823C27.5401 21.2555 27.2582 21.188 26.9338 21.188C26.6266 21.188 26.3384 21.2553 26.0647 21.3921L26.0588 21.396C25.8003 21.5208 25.5867 21.7069 25.4153 21.9663L25.4133 21.9702C25.3112 22.122 25.2335 22.3055 25.1877 22.5288C25.097 22.9723 24.717 23.4077 24.1604 23.4077H21.5334C20.9818 23.4077 20.4973 22.9454 20.553 22.3491L20.5979 21.9712C20.726 21.103 21.0101 20.3382 21.4631 19.6909C22.056 18.838 22.8432 18.2022 23.8137 17.7876C24.7707 17.3729 25.8191 17.1694 26.9514 17.1694Z" stroke="black" stroke-opacity="0.1"/>
<defs>
<radialGradient id="paint0_radial_37963_15601" cx="0" cy="0" r="1" gradientUnits="userSpaceOnUse" gradientTransform="translate(25.4754 17.0096) rotate(73.7184) scale(27.5504)">
<stop stop-color="#FFCAC9"/>
<stop offset="0.34375" stop-color="#FFB9B7"/>
<stop offset="0.96875" stop-color="#FF6D69"/>
</radialGradient>
<radialGradient id="paint1_radial_37963_15601" cx="0" cy="0" r="1" gradientUnits="userSpaceOnUse" gradientTransform="translate(25.4754 17.0096) rotate(73.7184) scale(27.5504)">
<stop stop-color="#FFCAC9"/>
<stop offset="0.34375" stop-color="#FFB9B7"/>
<stop offset="0.96875" stop-color="#FF635F"/>
</radialGradient>
</defs>
</svg>
