<svg width="54" height="54" viewBox="0 0 54 54" fill="none" xmlns="http://www.w3.org/2000/svg">
<path fill-rule="evenodd" clip-rule="evenodd" d="M24.2183 12.5221L24.2494 12.4004C24.5924 11.0559 25.8528 10.126 27.2794 10.126L27.3375 10.126C28.584 10.126 29.6945 10.8318 30.1898 11.9012L30.2824 12.1012L30.2824 12.9201C30.8366 12.4626 31.5555 12.1938 32.3226 12.1938L32.3806 12.1938C33.3755 12.1938 34.1107 12.7461 34.5567 13.3999C34.9896 14.0344 35.201 14.8218 35.2029 15.5452L35.4489 28.8642C35.733 28.5593 36.051 28.2844 36.4043 28.0891C37.0711 27.7204 37.6335 27.5082 38.1937 27.4261C38.7487 27.3447 39.2321 27.4035 39.6704 27.4634L39.6724 27.4637L39.9046 27.4959C39.9046 27.4959 39.9047 27.496 39.9046 27.4959C40.557 27.5864 41.1519 27.8646 41.6832 28.282C42.4467 28.8819 42.6106 29.9693 42.021 30.7583L34.6936 41.9296L33.8636 42.4552C33.7405 42.552 33.6224 42.6051 33.5557 42.6323C33.4398 42.6796 33.3272 42.7079 33.2399 42.7261C33.0639 42.7627 32.8762 42.7807 32.7209 42.7909C32.4411 42.8092 32.1533 42.8082 32.0217 42.8077C32.0051 42.8077 31.991 42.8076 31.9797 42.8076H20.3356L20.3026 42.8071C19.7482 42.7932 19.21 42.522 18.8839 42.0418C16.1294 37.9848 15.414 33.4027 15.2199 31.6965C15.1203 30.8214 15.067 29.4993 15.0379 28.4262C15.0232 27.8832 15.0144 27.3928 15.0093 27.0381C15.0068 26.8607 15.0052 26.7171 15.0042 26.6175L15.0031 26.5026L15.0028 26.4623L16.0028 26.455C16.0028 26.455 16.0254 29.9298 16.2135 31.5835C16.4016 33.2371 17.0936 37.6248 19.7113 41.4801C19.8461 41.6787 20.0774 41.8011 20.3278 41.8074L20.3481 41.8076H31.9797C31.9934 41.8076 32.0093 41.8077 32.0274 41.8077C32.316 41.8085 33.1302 41.8109 33.2647 41.6508L33.976 41.2004L41.2048 30.1793C41.4795 29.8328 41.4184 29.3457 41.0653 29.0683C40.6513 28.743 40.2186 28.549 39.7673 28.4865L39.5349 28.4542C38.6712 28.3361 38.0911 28.2991 36.8882 28.9642C36.3938 29.2376 35.9228 29.7932 35.4782 30.4499C35.1487 30.9365 34.8336 31.4785 34.5342 32.0022L34.5075 32.0491L34.5064 31.9863L34.2029 15.5552C34.2029 14.4591 33.5509 13.1938 32.3806 13.1938L32.3226 13.1938C31.3515 13.1938 30.5331 13.8055 30.2824 14.6398C30.2749 14.6649 30.2679 14.6901 30.2614 14.7155L30.2694 24.28C30.2694 24.4858 30.0949 24.6535 29.8769 24.6604L29.6888 24.6606C29.469 24.6606 29.29 24.4972 29.2826 24.2931L29.2824 24.2808L29.2824 12.3215C28.9566 11.618 28.2084 11.126 27.3375 11.126H27.2794C26.2793 11.126 25.441 11.7749 25.2183 12.6477L25.2184 25.15C25.2184 25.1553 25.2183 25.1606 25.218 25.1658C25.2094 25.3644 25.0383 25.5237 24.826 25.5304L24.812 25.5306H24.6378C24.4181 25.5306 24.239 25.3672 24.2317 25.1631L24.2314 25.15L24.4054 14.326C24.3534 14.2155 24.2906 14.1104 24.2183 14.0119C23.8468 13.5056 23.2241 13.1736 22.5185 13.1736C21.5482 13.1736 20.7345 13.8015 20.5155 14.6472L20.4148 25.8167C20.4148 25.8259 20.4145 25.835 20.4138 25.8441C20.3992 26.0372 20.2306 26.1905 20.0224 26.1971L20.0084 26.1973H19.8343C19.6145 26.1973 19.4355 26.0339 19.4281 25.8298L19.4279 25.8167L19.6013 19.5742C19.6013 19.3578 19.557 19.1511 19.4766 18.9616C19.2164 18.3489 18.5775 17.9157 17.8305 17.9157C16.8526 17.9157 16.1816 19.01 16.1816 19.9259L16.0028 26.455L15.0028 26.4623L15.0027 26.4445L15.1816 19.9108C15.1852 19.2347 15.4264 18.5299 15.8383 17.9787C16.2568 17.4187 16.9376 16.9157 17.8305 16.9157C18.4391 16.9157 19.0194 17.11 19.4902 17.4464L19.5167 14.5154L19.5474 14.3965C19.8881 13.0812 21.1226 12.1736 22.5185 12.1736C23.1401 12.1736 23.7273 12.3524 24.2183 12.6663L24.2183 12.5221Z" fill="#CD942F"/>
<path fill-rule="evenodd" clip-rule="evenodd" d="M27.2795 11.1259C26.2794 11.1259 25.4411 11.7748 25.2184 12.6476L25.2185 25.1499C25.2185 25.3557 25.044 25.5234 24.826 25.5303L24.8121 25.5305H24.6379C24.4181 25.5305 24.2391 25.3671 24.2317 25.163L24.2315 25.1499L24.4055 14.326C24.086 13.6473 23.3614 13.1735 22.5186 13.1735C21.5483 13.1735 20.7346 13.8015 20.5156 14.6472L20.4149 25.8166C20.4149 26.0224 20.2405 26.1901 20.0225 26.197L20.0085 26.1972L19.8343 26.1972C19.6146 26.1972 19.4355 26.0338 19.4282 25.8297L19.4279 25.8166L19.6013 19.5741C19.6013 18.6582 18.8086 17.9157 17.8306 17.9157C16.8526 17.9157 16.1816 19.0099 16.1816 19.9258L16.0028 26.4549C16.0028 26.4549 16.0254 29.9297 16.2135 31.5834C16.4016 33.237 17.0937 37.6247 19.7113 41.48C19.8462 41.6786 20.0775 41.801 20.3279 41.8073L20.3482 41.8075L31.9798 41.8075C32.2116 41.8075 33.1219 41.8208 33.2647 41.6507L33.9761 41.2003L41.2049 30.1793C41.4796 29.8327 41.4184 29.3457 41.0654 29.0682C40.6513 28.7429 40.2187 28.549 39.7673 28.4864L39.535 28.4541C38.6712 28.336 38.0912 28.2991 36.8882 28.9641C36.0275 29.44 35.2376 30.7719 34.5343 32.0021L34.5076 32.049L34.203 15.5551C34.203 14.459 33.551 13.1937 32.3807 13.1937L32.3226 13.1937C31.3225 13.1937 30.4842 13.8426 30.2615 14.7154L30.2694 24.2799C30.2694 24.4857 30.095 24.6534 29.877 24.6603L29.6889 24.6605C29.4691 24.6605 29.2901 24.4971 29.2827 24.293L29.2825 24.2799L29.2825 12.3214C28.9567 11.618 28.2085 11.1259 27.3375 11.1259H27.2795Z" fill="url(#paint0_radial_37963_15615)"/>
<path fill-rule="evenodd" clip-rule="evenodd" d="M27.2795 11.1259C26.2794 11.1259 25.4411 11.7748 25.2184 12.6476L25.2185 25.1499C25.2185 25.3557 25.044 25.5234 24.826 25.5303L24.8121 25.5305H24.6379C24.4181 25.5305 24.2391 25.3671 24.2317 25.163L24.2315 25.1499L24.4055 14.326C24.086 13.6473 23.3614 13.1735 22.5186 13.1735C21.5483 13.1735 20.7346 13.8015 20.5156 14.6472L20.4149 25.8166C20.4149 26.0224 20.2405 26.1901 20.0225 26.197L20.0085 26.1972L19.8343 26.1972C19.6146 26.1972 19.4355 26.0338 19.4282 25.8297L19.4279 25.8166L19.6013 19.5741C19.6013 18.6582 18.8086 17.9157 17.8306 17.9157C16.8526 17.9157 16.1816 19.0099 16.1816 19.9258L16.0028 26.4549C16.0028 26.4549 16.0254 29.9297 16.2135 31.5834C16.4016 33.237 17.0937 37.6247 19.7113 41.48C19.8462 41.6786 20.0775 41.801 20.3279 41.8073L20.3482 41.8075L31.9798 41.8075C32.2116 41.8075 33.1219 41.8208 33.2647 41.6507L33.9761 41.2003L41.2049 30.1793C41.4796 29.8327 41.4184 29.3457 41.0654 29.0682C40.6513 28.7429 40.2187 28.549 39.7673 28.4864L39.535 28.4541C38.6712 28.336 38.0912 28.2991 36.8882 28.9641C36.0275 29.44 35.2376 30.7719 34.5343 32.0021L34.5076 32.049L34.203 15.5551C34.203 14.459 33.551 13.1937 32.3807 13.1937L32.3226 13.1937C31.3225 13.1937 30.4842 13.8426 30.2615 14.7154L30.2694 24.2799C30.2694 24.4857 30.095 24.6534 29.877 24.6603L29.6889 24.6605C29.4691 24.6605 29.2901 24.4971 29.2827 24.293L29.2825 24.2799L29.2825 12.3214C28.9567 11.618 28.2085 11.1259 27.3375 11.1259H27.2795Z" fill="#FFE45C" fill-opacity="0.23"/>
<defs>
<radialGradient id="paint0_radial_37963_15615" cx="0" cy="0" r="1" gradientTransform="matrix(-6.54063 21.0416 -19.7164 -6.43897 27.0946 20.6165)" gradientUnits="userSpaceOnUse">
<stop stop-color="#FBEB9D"/>
<stop offset="0.34375" stop-color="#F6E071"/>
<stop offset="1" stop-color="#ECC91A"/>
</radialGradient>
</defs>
</svg>
