<svg width="54" height="54" viewBox="0 0 54 54" fill="none" xmlns="http://www.w3.org/2000/svg">
<path fill-rule="evenodd" clip-rule="evenodd" d="M15.6254 13.447C13.0635 14.9318 11.0663 17.7258 11.0203 20.7756C10.9978 22.3036 11.0939 23.8784 11.65 25.3181C12.092 26.4624 13.0401 28.3724 13.998 29.7249C14.6963 30.7081 15.4859 31.6013 16.3167 32.4577C17.2946 33.4648 23.1436 38.3402 25.7754 40.5237C26.5191 41.1408 27.5914 41.1345 28.3291 40.5102C31.0155 38.2364 37.0911 33.0746 37.9439 32.1785C38.8215 31.2498 39.65 30.2755 40.3562 29.1899C41.4021 27.5749 42.3245 26.0505 42.8046 23.8488C43.095 22.5172 43.1285 20.3725 42.7158 18.7202C42.1686 16.5379 40.4972 14.834 38.696 13.6505C37.6913 12.9898 36.5955 12.6117 35.4248 12.4737C34.689 12.387 33.9533 12.3937 33.2214 12.5182C31.806 12.7596 30.541 13.3725 29.4132 14.3179C28.4608 15.1109 27.6868 16.0752 27.0555 17.1742C27.0368 17.2042 27.0196 17.2342 27.0009 17.2631C26.8941 17.1007 26.8069 16.9484 26.7133 16.7993C25.7991 15.3423 24.6455 14.1655 23.1795 13.358C22.2948 12.8708 21.3556 12.5705 20.3666 12.4604C20.0852 12.4293 19.8046 12.4148 19.524 12.4148C19.153 12.4148 18.7828 12.4404 18.4126 12.4927C17.4282 12.6295 16.4968 12.942 15.6254 13.447Z" fill="url(#paint0_radial_37963_15617)"/>
<path fill-rule="evenodd" clip-rule="evenodd" d="M15.6254 13.447C13.0635 14.9318 11.0663 17.7258 11.0203 20.7756C10.9978 22.3036 11.0939 23.8784 11.65 25.3181C12.092 26.4624 13.0401 28.3724 13.998 29.7249C14.6963 30.7081 15.4859 31.6013 16.3167 32.4577C17.2946 33.4648 23.1436 38.3402 25.7754 40.5237C26.5191 41.1408 27.5914 41.1345 28.3291 40.5102C31.0155 38.2364 37.0911 33.0746 37.9439 32.1785C38.8215 31.2498 39.65 30.2755 40.3562 29.1899C41.4021 27.5749 42.3245 26.0505 42.8046 23.8488C43.095 22.5172 43.1285 20.3725 42.7158 18.7202C42.1686 16.5379 40.4972 14.834 38.696 13.6505C37.6913 12.9898 36.5955 12.6117 35.4248 12.4737C34.689 12.387 33.9533 12.3937 33.2214 12.5182C31.806 12.7596 30.541 13.3725 29.4132 14.3179C28.4608 15.1109 27.6868 16.0752 27.0555 17.1742C27.0368 17.2042 27.0196 17.2342 27.0009 17.2631C26.8941 17.1007 26.8069 16.9484 26.7133 16.7993C25.7991 15.3423 24.6455 14.1655 23.1795 13.358C22.2948 12.8708 21.3556 12.5705 20.3666 12.4604C20.0852 12.4293 19.8046 12.4148 19.524 12.4148C19.153 12.4148 18.7828 12.4404 18.4126 12.4927C17.4282 12.6295 16.4968 12.942 15.6254 13.447Z" fill="#E31F37" fill-opacity="0.4"/>
<defs>
<radialGradient id="paint0_radial_37963_15617" cx="0" cy="0" r="1" gradientTransform="matrix(7.26112 22.689 -24.8607 6.62682 25.5666 18.4287)" gradientUnits="userSpaceOnUse">
<stop stop-color="#FFC9C8"/>
<stop offset="0.34375" stop-color="#FF9B98"/>
<stop offset="1" stop-color="#FA342E"/>
</radialGradient>
</defs>
</svg>
