<svg width="54" height="54" viewBox="0 0 54 54" fill="none" xmlns="http://www.w3.org/2000/svg">
<circle cx="27" cy="27" r="17" fill="url(#paint0_radial_37963_15612)"/>
<g opacity="0.5">
<path fill-rule="evenodd" clip-rule="evenodd" d="M27 44C36.3888 44 44 36.3888 44 27C44 17.6112 36.3888 10 27 10C17.6112 10 10 17.6112 10 27C10 36.3888 17.6112 44 27 44ZM27.0001 42.5141C35.5683 42.5141 42.5141 35.5683 42.5141 27.0001C42.5141 18.4319 35.5683 11.4861 27.0001 11.4861C18.4319 11.4861 11.4861 18.4319 11.4861 27.0001C11.4861 35.5683 18.4319 42.5141 27.0001 42.5141Z" fill="url(#paint1_radial_37963_15612)"/>
<path fill-rule="evenodd" clip-rule="evenodd" d="M27 44C36.3888 44 44 36.3888 44 27C44 17.6112 36.3888 10 27 10C17.6112 10 10 17.6112 10 27C10 36.3888 17.6112 44 27 44ZM27.0001 42.5141C35.5683 42.5141 42.5141 35.5683 42.5141 27.0001C42.5141 18.4319 35.5683 11.4861 27.0001 11.4861C18.4319 11.4861 11.4861 18.4319 11.4861 27.0001C11.4861 35.5683 18.4319 42.5141 27.0001 42.5141Z" fill="#C08200" fill-opacity="0.28"/>
</g>
<path fill-rule="evenodd" clip-rule="evenodd" d="M15.4856 21.1039C14.6855 21.7872 14.3587 22.8224 14.5569 23.8345C14.6016 24.0626 14.663 24.2864 14.7251 24.5108C14.798 24.7755 14.9001 25.0299 15.0194 25.2771C16.1022 27.513 19.1088 28.5267 21.4245 29.197C22.9245 27.8246 24.542 26.3169 25.3241 24.4543C25.5799 23.8417 25.6762 23.2042 25.6311 22.5429C25.6148 22.3064 25.5835 22.0724 25.5425 21.8393C25.4833 21.4982 25.397 21.164 25.2392 20.8534C24.8926 20.1728 24.3648 19.696 23.6456 19.4398C23.2444 19.2967 22.8309 19.2539 22.4079 19.2961C22.142 19.3226 21.8827 19.3801 21.6331 19.4762C21.1503 19.6622 20.7467 19.9599 20.415 20.3572C20.1345 20.6909 19.929 21.0679 19.7833 21.4787C19.7788 21.4901 19.7749 21.5013 19.7703 21.5122C19.7212 21.4666 19.6797 21.4227 19.6362 21.3804C19.2109 20.9672 18.7209 20.6646 18.1465 20.5075C17.7999 20.4128 17.4472 20.384 17.0903 20.4218C16.9887 20.4326 16.8887 20.4489 16.7896 20.47C16.6586 20.4978 16.5297 20.534 16.4026 20.5791C16.0647 20.6982 15.7578 20.8715 15.4856 21.1039Z" fill="url(#paint2_radial_37963_15612)"/>
<path fill-rule="evenodd" clip-rule="evenodd" d="M38.5143 21.1039C39.3145 21.7872 39.6412 22.8224 39.443 23.8345C39.3983 24.0626 39.3369 24.2864 39.2749 24.5108C39.2019 24.7755 39.0998 25.0299 38.9805 25.2771C37.8956 27.5175 34.8956 28.5254 32.5755 29.197C31.0607 27.8111 29.4674 26.3392 28.6758 24.4543C28.4201 23.8417 28.3237 23.2042 28.3688 22.5429C28.3851 22.3064 28.4165 22.0724 28.4574 21.8393C28.5167 21.4982 28.6029 21.164 28.7607 20.8534C29.1073 20.1728 29.6352 19.696 30.3543 19.4398C30.7555 19.2967 31.169 19.2539 31.592 19.2961C31.8579 19.3226 32.1172 19.3801 32.3669 19.4762C32.8497 19.6622 33.2532 19.9599 33.585 20.3572C33.8655 20.6909 34.071 21.0679 34.2166 21.4787C34.2211 21.4901 34.2251 21.5013 34.2296 21.5122C34.2787 21.4666 34.3203 21.4227 34.3638 21.3804C34.789 20.9672 35.279 20.6646 35.8534 20.5075C36.2 20.4128 36.5527 20.384 36.9097 20.4218C37.0112 20.4326 37.1113 20.4489 37.2103 20.47C37.3413 20.4978 37.4703 20.534 37.5973 20.5791C37.9352 20.6982 38.2421 20.8715 38.5143 21.1039Z" fill="url(#paint3_radial_37963_15612)"/>
<path fill-rule="evenodd" clip-rule="evenodd" d="M34.9914 33.1348C34.9914 35.2112 31.6808 38.2571 27.0001 38.2571C22.3194 38.2571 19.0085 35.2112 19.0085 33.1352C19.0085 31.938 23.0449 33.1348 27.0001 33.1348C30.9559 33.1348 34.9914 31.9552 34.9914 33.1348Z" fill="#783E11"/>
<defs>
<radialGradient id="paint0_radial_37963_15612" cx="0" cy="0" r="1" gradientUnits="userSpaceOnUse" gradientTransform="translate(25.4754 17.0096) rotate(73.7184) scale(27.5504)">
<stop stop-color="#FFF1AA"/>
<stop offset="0.34375" stop-color="#FFE564"/>
<stop offset="0.760417" stop-color="#F4CC00"/>
<stop offset="1" stop-color="#F29E0B"/>
</radialGradient>
<radialGradient id="paint1_radial_37963_15612" cx="0" cy="0" r="1" gradientUnits="userSpaceOnUse" gradientTransform="translate(25.4754 17.0096) rotate(73.7184) scale(27.5504)">
<stop stop-color="#FBEB9D"/>
<stop offset="0.34375" stop-color="#F6E071"/>
<stop offset="0.786458" stop-color="#ECC91A"/>
<stop offset="1" stop-color="#E3BE00"/>
</radialGradient>
<radialGradient id="paint2_radial_37963_15612" cx="0" cy="0" r="1" gradientUnits="userSpaceOnUse" gradientTransform="translate(16.8457 22.1025) rotate(57.2929) scale(8.4364 9.91506)">
<stop stop-color="#FF5F5A"/>
<stop offset="0.253494" stop-color="#FF4A45"/>
<stop offset="1" stop-color="#F03D37"/>
</radialGradient>
<radialGradient id="paint3_radial_37963_15612" cx="0" cy="0" r="1" gradientUnits="userSpaceOnUse" gradientTransform="translate(37.1542 22.1025) rotate(122.707) scale(8.4364 9.91506)">
<stop stop-color="#FF5F5A"/>
<stop offset="0.253494" stop-color="#FF4A45"/>
<stop offset="1" stop-color="#F03D37"/>
</radialGradient>
</defs>
</svg>
