<svg width="54" height="54" viewBox="0 0 54 54" fill="none" xmlns="http://www.w3.org/2000/svg">
<circle cx="27" cy="27" r="17" fill="url(#paint0_radial_37963_15640)"/>
<g opacity="0.5">
<path fill-rule="evenodd" clip-rule="evenodd" d="M27 44C36.3888 44 44 36.3888 44 27C44 17.6112 36.3888 10 27 10C17.6112 10 10 17.6112 10 27C10 36.3888 17.6112 44 27 44ZM27.0001 42.5141C35.5683 42.5141 42.5141 35.5683 42.5141 27.0001C42.5141 18.4319 35.5683 11.4861 27.0001 11.4861C18.4319 11.4861 11.4861 18.4319 11.4861 27.0001C11.4861 35.5683 18.4319 42.5141 27.0001 42.5141Z" fill="url(#paint1_radial_37963_15640)"/>
<path fill-rule="evenodd" clip-rule="evenodd" d="M27 44C36.3888 44 44 36.3888 44 27C44 17.6112 36.3888 10 27 10C17.6112 10 10 17.6112 10 27C10 36.3888 17.6112 44 27 44ZM27.0001 42.5141C35.5683 42.5141 42.5141 35.5683 42.5141 27.0001C42.5141 18.4319 35.5683 11.4861 27.0001 11.4861C18.4319 11.4861 11.4861 18.4319 11.4861 27.0001C11.4861 35.5683 18.4319 42.5141 27.0001 42.5141Z" fill="#C08200" fill-opacity="0.28"/>
</g>
<ellipse cx="21.6107" cy="22.8773" rx="1.65651" ry="2.42712" fill="#783E11"/>
<ellipse cx="31.6151" cy="22.8773" rx="1.65651" ry="2.42712" fill="#783E11"/>
<path opacity="0.6" fill-rule="evenodd" clip-rule="evenodd" d="M35.2166 18.3761C35.2091 18.1915 35.0743 18.0195 34.8788 17.9317C33.7971 17.4455 32.6427 17.2708 31.6046 17.5163C31.0679 17.643 30.612 17.8733 30.2383 18.1799C30.1439 18.2579 30.0981 18.3728 30.103 18.4928L30.1045 18.5288C30.1201 18.8971 30.6037 19.1527 30.9362 18.9603C31.217 18.7982 31.5323 18.6725 31.8811 18.5901C32.7343 18.3887 33.6659 18.4711 34.5711 18.776C34.9051 18.8885 35.2295 18.6801 35.2166 18.3761Z" fill="#783E11"/>
<path opacity="0.6" fill-rule="evenodd" clip-rule="evenodd" d="M18.4224 18.2734C18.3512 18.103 18.4007 17.8901 18.5408 17.7279C19.3156 16.8301 20.288 16.1839 21.3326 15.9677C21.8726 15.8557 22.3831 15.8718 22.8513 15.9916C22.9699 16.0225 23.06 16.1073 23.1063 16.2181L23.1201 16.2514C23.2616 16.5917 22.9313 17.0278 22.5486 16.9939C22.2257 16.9656 21.8868 16.985 21.5358 17.0578C20.6775 17.2358 19.868 17.7042 19.1764 18.3631C18.9213 18.6062 18.5392 18.5544 18.4224 18.2734Z" fill="#783E11"/>
<path fill-rule="evenodd" clip-rule="evenodd" d="M22.0796 32.6912C22.0796 32.9594 22.316 33.1075 22.4735 32.9378C23.7632 31.5504 25.3264 31.0804 27.0008 31.0808C28.6755 31.0813 30.222 31.5524 31.511 32.9402C31.6685 33.1099 31.9049 32.9618 31.9049 32.694V31.6365C31.9049 31.5452 31.8757 31.4565 31.8244 31.3958C30.4772 29.7928 28.8133 29.1059 27.0008 29.1055C25.1883 29.105 23.5087 29.7906 22.1608 31.3926C22.1095 31.4538 22.0802 31.542 22.0802 31.6334L22.0796 32.6912Z" fill="#783E11"/>
<path fill-rule="evenodd" clip-rule="evenodd" d="M17.2758 30.1726L17.2623 30.1566C16.8796 29.7043 16.3573 28.8831 16.5875 27.8478C16.8099 26.8471 17.5957 26.3061 18.1171 26.0326C19.769 25.166 21.3634 25.9171 22.2543 26.7271L22.2672 26.7388L31.2139 35.2083L31.3005 35.2868C31.335 35.3165 31.3687 35.3436 31.4011 35.3681L31.7804 34.7324L32.1408 34.1461C33.0091 32.7563 33.7623 31.7262 34.6581 30.9076C35.2129 30.4007 35.8236 30.0117 36.4983 29.8428C37.2164 29.663 37.9045 29.7604 38.4827 30.0658C39.0216 30.3505 39.3728 30.7648 39.5848 31.1003C39.779 31.4077 39.9512 31.7998 40.0034 32.2004L40.0595 32.6308L39.115 35.1193L38.7198 36.1842L38.7164 36.1932C38.2756 37.3416 37.389 39.4905 36.8 40.6687L36.6013 41.0328L36.1756 41.4151C33.4667 43.0787 30.2937 43.9935 27.3024 43.9935C24.3649 44.0809 21.4463 43.2496 19.2623 42.1327C18.1602 41.5692 17.1103 41.0406 16.4674 40.0345C16.1605 39.4826 15.9958 38.823 16.1033 38.1203C16.2101 37.4224 16.561 36.8405 17.0093 36.3922C17.2968 36.1048 17.6276 35.8823 17.9805 35.7307C17.9299 35.4716 17.9109 35.2153 17.9171 34.9746C17.9357 34.2506 18.1875 33.4031 18.8385 32.752C18.9967 32.5938 19.1715 32.446 19.3626 32.3166L17.4038 30.3165L17.2758 30.1726ZM31.1662 35.7527L31.1669 35.7518L31.1662 35.7527Z" fill="#CE9635"/>
<path fill-rule="evenodd" clip-rule="evenodd" d="M18.8251 27.3165C18.0602 27.7178 17.9637 28.1967 18.483 28.8103L18.5701 28.9083L24.8478 35.3183L24.8736 35.3469C24.9879 35.4858 25.1223 35.8148 24.77 36.095C24.5171 36.2962 24.2556 36.2632 23.9854 35.996L23.0975 35.043L22.5402 34.4789C22.1025 34.0446 21.8597 33.7898 21.7035 33.6641L21.6164 33.5994C21.071 33.2525 20.5273 33.2445 19.9774 33.7945C19.4274 34.3445 19.4359 35.3677 19.8891 35.8751L20.2361 36.2339L21.0294 37.0278L21.7034 37.7179C21.9133 37.9557 21.8193 38.3202 21.7034 38.444C21.599 38.5554 21.2791 38.6567 21.0619 38.5416L20.9938 38.495L19.5056 37.2436C19.2163 36.9805 18.5926 37.0091 18.1291 37.4726C17.1578 38.444 17.8304 39.7331 19.8891 40.5583C23.7171 42.5509 30.5172 43.0142 35.3304 39.7787C35.8872 38.665 36.7591 36.5564 37.1984 35.4118L37.5965 34.339L38.3975 32.2284C38.3523 31.881 37.618 30.4198 35.9048 31.9852C35.177 32.6503 34.5161 33.5303 33.6643 34.8937L33.3128 35.4655L32.8026 36.3206C32.5568 36.7381 32.3049 37.0915 31.7143 37.1097C31.1728 37.1264 30.6135 36.8082 30.1769 36.4277L30.061 36.3226L21.0203 27.7641C20.4082 27.2076 19.5855 26.9176 18.8251 27.3165Z" fill="white"/>
<defs>
<radialGradient id="paint0_radial_37963_15640" cx="0" cy="0" r="1" gradientUnits="userSpaceOnUse" gradientTransform="translate(25.4754 17.0096) rotate(73.7184) scale(27.5504)">
<stop stop-color="#FFF1AA"/>
<stop offset="0.34375" stop-color="#FFE564"/>
<stop offset="0.760417" stop-color="#F4CC00"/>
<stop offset="1" stop-color="#F29E0B"/>
</radialGradient>
<radialGradient id="paint1_radial_37963_15640" cx="0" cy="0" r="1" gradientUnits="userSpaceOnUse" gradientTransform="translate(25.4754 17.0096) rotate(73.7184) scale(27.5504)">
<stop stop-color="#FBEB9D"/>
<stop offset="0.34375" stop-color="#F6E071"/>
<stop offset="0.786458" stop-color="#ECC91A"/>
<stop offset="1" stop-color="#E3BE00"/>
</radialGradient>
</defs>
</svg>
