<svg width="54" height="54" viewBox="0 0 54 54" fill="none" xmlns="http://www.w3.org/2000/svg">
<path d="M11 17C11 13.6863 13.6863 11 17 11H37C40.3137 11 43 13.6863 43 17V37C43 40.3137 40.3137 43 37 43H17C13.6863 43 11 40.3137 11 37V17Z" fill="url(#paint0_linear_37963_15577)"/>
<path fill-rule="evenodd" clip-rule="evenodd" d="M37 12.5H17C14.5147 12.5 12.5 14.5147 12.5 17V37C12.5 39.4853 14.5147 41.5 17 41.5H37C39.4853 41.5 41.5 39.4853 41.5 37V17C41.5 14.5147 39.4853 12.5 37 12.5ZM17 11C13.6863 11 11 13.6863 11 17V37C11 40.3137 13.6863 43 17 43H37C40.3137 43 43 40.3137 43 37V17C43 13.6863 40.3137 11 37 11H17Z" fill="url(#paint1_linear_37963_15577)"/>
<path fill-rule="evenodd" clip-rule="evenodd" d="M37 12.5H17C14.5147 12.5 12.5 14.5147 12.5 17V37C12.5 39.4853 14.5147 41.5 17 41.5H37C39.4853 41.5 41.5 39.4853 41.5 37V17C41.5 14.5147 39.4853 12.5 37 12.5ZM17 11C13.6863 11 11 13.6863 11 17V37C11 40.3137 13.6863 43 17 43H37C40.3137 43 43 40.3137 43 37V17C43 13.6863 40.3137 11 37 11H17Z" fill="#57C137" fill-opacity="0.5"/>
<g filter="url(#filter0_i_37963_15577)">
<path fill-rule="evenodd" clip-rule="evenodd" d="M25.4127 31.5312L21.0929 25.7387H17.3L25.6803 37L37.3 18H33.7038L25.4127 31.5312Z" fill="white"/>
</g>
<path fill-rule="evenodd" clip-rule="evenodd" d="M21.0929 25.7388L25.4127 31.5313L33.7038 18H37.3L25.6803 37L17.3 25.7388H21.0929ZM25.3153 29.3934L33.0318 16.8H39.4405L25.7777 39.1409L14.9112 24.5388H21.6949L25.3153 29.3934Z" fill="#57C137" fill-opacity="0.5"/>
<defs>
<filter id="filter0_i_37963_15577" x="17.3" y="18" width="20" height="20" filterUnits="userSpaceOnUse" color-interpolation-filters="sRGB">
<feFlood flood-opacity="0" result="BackgroundImageFix"/>
<feBlend mode="normal" in="SourceGraphic" in2="BackgroundImageFix" result="shape"/>
<feColorMatrix in="SourceAlpha" type="matrix" values="0 0 0 0 0 0 0 0 0 0 0 0 0 0 0 0 0 0 127 0" result="hardAlpha"/>
<feOffset dy="2"/>
<feGaussianBlur stdDeviation="0.5"/>
<feComposite in2="hardAlpha" operator="arithmetic" k2="-1" k3="1"/>
<feColorMatrix type="matrix" values="0 0 0 0 0 0 0 0 0 0 0 0 0 0 0 0 0 0 0.04 0"/>
<feBlend mode="normal" in2="shape" result="effect1_innerShadow_37963_15577"/>
</filter>
<linearGradient id="paint0_linear_37963_15577" x1="27" y1="12.5" x2="27" y2="43" gradientUnits="userSpaceOnUse">
<stop stop-color="#A5EF99"/>
<stop offset="0.278531" stop-color="#5FCF40"/>
<stop offset="0.96875" stop-color="#57C137"/>
</linearGradient>
<linearGradient id="paint1_linear_37963_15577" x1="27" y1="12.5" x2="27" y2="43" gradientUnits="userSpaceOnUse">
<stop stop-color="#A5EF99"/>
<stop offset="0.298675" stop-color="#5FCF40"/>
<stop offset="0.96875" stop-color="#57C137"/>
</linearGradient>
</defs>
</svg>
