<svg width="54" height="54" viewBox="0 0 54 54" fill="none" xmlns="http://www.w3.org/2000/svg">
<circle cx="27" cy="27" r="17" fill="url(#paint0_radial_37963_15638)"/>
<g opacity="0.5">
<path fill-rule="evenodd" clip-rule="evenodd" d="M27 44C36.3888 44 44 36.3888 44 27C44 17.6112 36.3888 10 27 10C17.6112 10 10 17.6112 10 27C10 36.3888 17.6112 44 27 44ZM27.0001 42.5141C35.5683 42.5141 42.5141 35.5683 42.5141 27.0001C42.5141 18.4319 35.5683 11.4861 27.0001 11.4861C18.4319 11.4861 11.4861 18.4319 11.4861 27.0001C11.4861 35.5683 18.4319 42.5141 27.0001 42.5141Z" fill="url(#paint1_radial_37963_15638)"/>
<path fill-rule="evenodd" clip-rule="evenodd" d="M27 44C36.3888 44 44 36.3888 44 27C44 17.6112 36.3888 10 27 10C17.6112 10 10 17.6112 10 27C10 36.3888 17.6112 44 27 44ZM27.0001 42.5141C35.5683 42.5141 42.5141 35.5683 42.5141 27.0001C42.5141 18.4319 35.5683 11.4861 27.0001 11.4861C18.4319 11.4861 11.4861 18.4319 11.4861 27.0001C11.4861 35.5683 18.4319 42.5141 27.0001 42.5141Z" fill="#C08200" fill-opacity="0.28"/>
</g>
<path opacity="0.5" fill-rule="evenodd" clip-rule="evenodd" d="M35.4585 16.4244C35.4511 16.2399 35.3162 16.0679 35.1207 15.9801C34.039 15.4938 32.8846 15.3191 31.8466 15.5646C31.3098 15.6914 30.8539 15.9217 30.4803 16.2282C30.3858 16.3062 30.34 16.4212 30.3449 16.5412L30.3465 16.5772C30.362 16.9455 30.8457 17.201 31.1782 17.0086C31.4589 16.8465 31.7742 16.7208 32.1231 16.6385C32.9762 16.4371 33.9078 16.5195 34.8131 16.8244C35.147 16.9369 35.4714 16.7285 35.4585 16.4244Z" fill="#783E11"/>
<path opacity="0.5" fill-rule="evenodd" clip-rule="evenodd" d="M17.687 16.4244C17.6945 16.2399 17.8293 16.0679 18.0248 15.9801C19.1065 15.4938 20.2609 15.3191 21.2989 15.5646C21.8357 15.6914 22.2916 15.9217 22.6652 16.2282C22.7597 16.3062 22.8055 16.4212 22.8006 16.5412L22.799 16.5772C22.7835 16.9455 22.2998 17.201 21.9673 17.0086C21.6866 16.8465 21.3713 16.7208 21.0224 16.6385C20.1693 16.4371 19.2377 16.5195 18.3325 16.8244C17.9985 16.9369 17.6741 16.7285 17.687 16.4244Z" fill="#783E11"/>
<ellipse cx="20.3784" cy="22.0712" rx="1.65651" ry="2.42712" fill="#783E11"/>
<ellipse cx="32.9617" cy="22.0712" rx="1.65651" ry="2.42712" fill="#783E11"/>
<ellipse opacity="0.825408" cx="27.6193" cy="34.0414" rx="4.34884" ry="6.131" fill="#783E11"/>
<defs>
<radialGradient id="paint0_radial_37963_15638" cx="0" cy="0" r="1" gradientUnits="userSpaceOnUse" gradientTransform="translate(25.4754 17.0096) rotate(73.7184) scale(27.5504)">
<stop stop-color="#FFF1AA"/>
<stop offset="0.34375" stop-color="#FFE564"/>
<stop offset="0.760417" stop-color="#F4CC00"/>
<stop offset="1" stop-color="#F29E0B"/>
</radialGradient>
<radialGradient id="paint1_radial_37963_15638" cx="0" cy="0" r="1" gradientUnits="userSpaceOnUse" gradientTransform="translate(25.4754 17.0096) rotate(73.7184) scale(27.5504)">
<stop stop-color="#FBEB9D"/>
<stop offset="0.34375" stop-color="#F6E071"/>
<stop offset="0.786458" stop-color="#ECC91A"/>
<stop offset="1" stop-color="#E3BE00"/>
</radialGradient>
</defs>
</svg>
