<svg width="24" height="24" viewBox="0 0 24 24" fill="none" xmlns="http://www.w3.org/2000/svg">
<path d="M6.59961 1.34961H14.5186L19.6504 6.64062V20.4004C19.6502 21.6427 18.6427 22.6502 17.4004 22.6504H6.59961C5.35728 22.6502 4.34982 21.6427 4.34961 20.4004V3.59961C4.34982 2.35728 5.35728 1.34982 6.59961 1.34961Z" fill="url(#paint0_linear_27375_21377)" stroke="url(#paint1_linear_27375_21377)" stroke-width="0.7" stroke-linejoin="round"/>
<path d="M16.6699 6.5C15.5654 6.5 14.6699 5.60457 14.6699 4.5L14.6699 1L19.9999 6.5H16.6699Z" fill="#DADEE5"/>
<path d="M11.6497 16.6746C11.6497 16.8679 11.8064 17.0246 11.9997 17.0246C12.193 17.0246 12.3497 16.8679 12.3497 16.6746V13.3497H15.6749C15.8682 13.3497 16.0249 13.193 16.0249 12.9997C16.0249 12.8064 15.8682 12.6497 15.6749 12.6497H12.3497V9.32461C12.3497 9.13131 12.193 8.97461 11.9997 8.97461C11.8064 8.97461 11.6497 9.13131 11.6497 9.32461V12.6497H8.32485C8.13155 12.6497 7.97485 12.8064 7.97485 12.9997C7.97485 13.193 8.13155 13.3497 8.32485 13.3497H11.6497V16.6746Z" fill="#1F86FF"/>
<defs>
<linearGradient id="paint0_linear_27375_21377" x1="4" y1="1" x2="12.3172" y2="22.8794" gradientUnits="userSpaceOnUse">
<stop stop-color="#F7FAFF"/>
<stop offset="0.37" stop-color="#EDF1F9"/>
<stop offset="1" stop-color="#EDF1F9"/>
</linearGradient>
<linearGradient id="paint1_linear_27375_21377" x1="12" y1="1" x2="12" y2="22.6944" gradientUnits="userSpaceOnUse">
<stop stop-color="#E4E8F0"/>
<stop offset="1" stop-color="#E5E9F1"/>
</linearGradient>
</defs>
</svg>
