<svg width="24" height="24" viewBox="0 0 24 24" fill="none" xmlns="http://www.w3.org/2000/svg">
<path d="M6.59961 1.34961H14.5186L19.6504 6.64062V20.4004C19.6502 21.6427 18.6427 22.6502 17.4004 22.6504H6.59961C5.35728 22.6502 4.34982 21.6427 4.34961 20.4004V3.59961C4.34982 2.35728 5.35728 1.34982 6.59961 1.34961Z" fill="url(#paint0_linear_27375_21319)" stroke="url(#paint1_linear_27375_21319)" stroke-width="0.7" stroke-linejoin="round"/>
<path d="M16.6699 6.5C15.5654 6.5 14.6699 5.60457 14.6699 4.5L14.6699 1L19.9999 6.5H16.6699Z" fill="#DADEE5"/>
<path fill-rule="evenodd" clip-rule="evenodd" d="M15.275 8.45198C15.6732 8.3697 16.0466 8.67378 16.0466 9.08037V14.6308C16.0497 14.6512 16.0524 14.6719 16.0546 14.6927C16.1023 15.1469 15.8958 15.5571 15.5771 15.8523C15.2585 16.1473 14.8125 16.3455 14.3175 16.3974C13.8224 16.4494 13.345 16.3481 12.9721 16.1256C12.5991 15.903 12.312 15.5445 12.2643 15.0904C12.2167 14.6362 12.4231 14.226 12.7418 13.9308C13.0605 13.6358 13.5064 13.4376 14.0015 13.3857C14.4964 13.3337 14.9737 13.435 15.3466 13.6574V9.15199L11.1395 10.0213C11.0312 10.0437 10.9535 10.139 10.9534 10.2496L10.9469 15.7877C10.9469 15.8194 10.9427 15.8501 10.9347 15.8793C10.9256 16.2698 10.7318 16.6196 10.4507 16.8799C10.1321 17.175 9.68614 17.3731 9.19107 17.4251C8.69601 17.477 8.21864 17.3757 7.84571 17.1532C7.47269 16.9307 7.18558 16.5722 7.13793 16.1181C7.09028 15.6639 7.29674 15.2536 7.61544 14.9585C7.93408 14.6635 8.38002 14.4653 8.87509 14.4133C9.37015 14.3614 9.84752 14.4627 10.2204 14.6852C10.2298 14.6908 10.239 14.6964 10.2482 14.7021L10.2534 10.2487C10.2539 9.80649 10.5648 9.42531 10.9979 9.33581L15.275 8.45198ZM15.3598 14.781C15.3523 14.7544 15.3478 14.7266 15.3468 14.6979C15.308 14.5362 15.1908 14.3796 14.9882 14.2587C14.7572 14.1209 14.4339 14.0442 14.0745 14.0819C13.7152 14.1196 13.4148 14.2617 13.2174 14.4445C13.0202 14.6271 12.9411 14.8321 12.9605 15.0173C12.9799 15.2026 13.0999 15.3867 13.3307 15.5244C13.5617 15.6622 13.8851 15.7389 14.2444 15.7012C14.6038 15.6635 14.9042 15.5214 15.1015 15.3386C15.2934 15.161 15.3735 14.9622 15.3598 14.781ZM7.83411 16.045C7.81467 15.8598 7.89379 15.6548 8.09105 15.4721C8.28838 15.2894 8.58878 15.1472 8.94813 15.1095C9.30748 15.0718 9.63084 15.1485 9.8618 15.2863C10.0927 15.4241 10.2126 15.6082 10.2321 15.7934C10.2515 15.9787 10.1724 16.1837 9.97511 16.3663C9.77778 16.549 9.47738 16.6912 9.11803 16.7289C8.75868 16.7666 8.43532 16.6899 8.20436 16.5521C7.97349 16.4144 7.85354 16.2303 7.83411 16.045Z" fill="#1F86FF"/>
<defs>
<linearGradient id="paint0_linear_27375_21319" x1="4" y1="1" x2="12.3172" y2="22.8794" gradientUnits="userSpaceOnUse">
<stop stop-color="#F7FAFF"/>
<stop offset="0.37" stop-color="#EDF1F9"/>
<stop offset="1" stop-color="#EDF1F9"/>
</linearGradient>
<linearGradient id="paint1_linear_27375_21319" x1="12" y1="1" x2="12" y2="22.6944" gradientUnits="userSpaceOnUse">
<stop stop-color="#E4E8F0"/>
<stop offset="1" stop-color="#E5E9F1"/>
</linearGradient>
</defs>
</svg>
