<svg width="24" height="24" viewBox="0 0 24 24" fill="none" xmlns="http://www.w3.org/2000/svg">
<g clip-path="url(#clip0_27923_1120)">
<path d="M6.59961 1.34961H14.5186L19.6504 6.64062V20.4004C19.6502 21.6427 18.6427 22.6502 17.4004 22.6504H6.59961C5.35728 22.6502 4.34982 21.6427 4.34961 20.4004V3.59961C4.34982 2.35728 5.35728 1.34982 6.59961 1.34961Z" fill="url(#paint0_linear_27923_1120)" stroke="url(#paint1_linear_27923_1120)" stroke-width="0.7" stroke-linejoin="round"/>
<path d="M16.6699 6.5C15.5654 6.5 14.6699 5.60457 14.6699 4.5L14.6699 1L19.9999 6.5H16.6699Z" fill="#DAEDF0"/>
<g opacity="0.2">
<circle cx="6.78571" cy="4.28571" r="0.285714" fill="#28B0C1"/>
<circle cx="6.78571" cy="7.607" r="0.285714" fill="#28B0C1"/>
<circle cx="9.35725" cy="4.28571" r="0.285714" fill="#28B0C1"/>
<circle cx="9.35725" cy="7.607" r="0.285714" fill="#28B0C1"/>
<circle cx="11.9288" cy="4.28571" r="0.285714" fill="#28B0C1"/>
<circle cx="11.9288" cy="7.607" r="0.285714" fill="#28B0C1"/>
<circle cx="14.5003" cy="7.607" r="0.285714" fill="#28B0C1"/>
<circle cx="6.78571" cy="17.5709" r="0.285714" fill="#28B0C1"/>
<circle cx="9.35725" cy="17.5709" r="0.285714" fill="#28B0C1"/>
<circle cx="11.9288" cy="17.5709" r="0.285714" fill="#28B0C1"/>
<circle cx="14.5003" cy="17.5709" r="0.285714" fill="#28B0C1"/>
<circle cx="17.0718" cy="17.5709" r="0.285714" fill="#28B0C1"/>
<circle cx="6.78571" cy="20.8922" r="0.285714" fill="#28B0C1"/>
<circle cx="9.35725" cy="20.8922" r="0.285714" fill="#28B0C1"/>
<circle cx="11.9288" cy="20.8922" r="0.285714" fill="#28B0C1"/>
<circle cx="14.5003" cy="20.8922" r="0.285714" fill="#28B0C1"/>
<circle cx="17.0718" cy="20.8922" r="0.285714" fill="#28B0C1"/>
</g>
<g filter="url(#filter0_d_27923_1120)">
<path d="M1 11C1 10.4477 1.57563 10 2.28571 10H17.7143C18.4244 10 19 10.4477 19 11V15C19 15.5523 18.4244 16 17.7143 16H2.28571C1.57563 16 1 15.5523 1 15V11Z" fill="#28B0C1"/>
</g>
<path fill-rule="evenodd" clip-rule="evenodd" d="M8.36986 13.0202C8.36986 13.4066 8.29792 13.7353 8.15406 14.0063C8.01133 14.2774 7.81649 14.4844 7.56954 14.6274C7.32373 14.7693 7.04733 14.8402 6.74035 14.8402C6.43109 14.8402 6.15356 14.7687 5.90775 14.6257C5.66193 14.4827 5.46766 14.2756 5.32493 14.0046C5.1822 13.7335 5.11083 13.4054 5.11083 13.0202C5.11083 12.6338 5.1822 12.3051 5.32493 12.0341C5.46766 11.763 5.66193 11.5566 5.90775 11.4147C6.15356 11.2717 6.43109 11.2002 6.74035 11.2002C7.04733 11.2002 7.32373 11.2717 7.56954 11.4147C7.81649 11.5566 8.01133 11.763 8.15406 12.0341C8.29792 12.3051 8.36986 12.6338 8.36986 13.0202ZM7.62392 13.0202C7.62392 12.7699 7.5871 12.5589 7.51347 12.387C7.44097 12.2152 7.33846 12.0848 7.20592 11.996C7.07338 11.9072 6.91819 11.8628 6.74035 11.8628C6.5625 11.8628 6.40731 11.9072 6.27477 11.996C6.14223 12.0848 6.03915 12.2152 5.96552 12.387C5.89302 12.5589 5.85677 12.7699 5.85677 13.0202C5.85677 13.2705 5.89302 13.4815 5.96552 13.6534C6.03915 13.8252 6.14223 13.9556 6.27477 14.0444C6.40731 14.1332 6.5625 14.1776 6.74035 14.1776C6.91819 14.1776 7.07338 14.1332 7.20592 14.0444C7.33846 13.9556 7.44097 13.8252 7.51347 13.6534C7.5871 13.4815 7.62392 13.2705 7.62392 13.0202Z" fill="white"/>
<path fill-rule="evenodd" clip-rule="evenodd" d="M8.33853 14.7918H9.12695L9.38509 13.9839H10.6415L10.8992 14.7918H11.6876L10.488 11.2487H9.53985L8.33853 14.7918ZM10.4551 13.3992L10.0275 12.0584H10.0003L9.57193 13.3992H10.4551Z" fill="white"/>
<path fill-rule="evenodd" clip-rule="evenodd" d="M11.915 14.7918V11.2487H13.288C13.5508 11.2487 13.7751 11.2966 13.9609 11.3923C14.1478 11.4869 14.2899 11.6213 14.3873 11.7954C14.4859 11.9684 14.5352 12.172 14.5352 12.4061C14.5352 12.6414 14.4853 12.8438 14.3856 13.0134C14.286 13.1818 14.1415 13.3109 13.9524 13.4009C13.942 13.4059 13.9315 13.4107 13.9209 13.4154L14.6592 14.7918H13.847L13.1878 13.5358H12.6508V14.7918H11.915ZM13.1503 12.9338H12.6508V11.8612H13.1469C13.2885 11.8612 13.4058 11.8825 13.4987 11.9252C13.5927 11.9667 13.6624 12.0278 13.7077 12.1086C13.7541 12.1893 13.7773 12.2885 13.7773 12.4061C13.7773 12.5226 13.7541 12.6201 13.7077 12.6985C13.6624 12.7769 13.5933 12.8357 13.5004 12.875C13.4075 12.9142 13.2908 12.9338 13.1503 12.9338Z" fill="white"/>
<path fill-rule="evenodd" clip-rule="evenodd" d="M16.0974 14.7918H14.8638V11.2487H16.1076C16.4576 11.2487 16.7589 11.3197 17.0115 11.4615C17.2641 11.6022 17.4584 11.8046 17.5944 12.0688C17.7314 12.3329 17.8 12.6489 17.8 13.0168C17.8 13.3859 17.7314 13.7031 17.5944 13.9683C17.4584 14.2336 17.263 14.4372 17.0081 14.579C16.7544 14.7209 16.4508 14.7918 16.0974 14.7918ZM15.5995 14.15H16.0668C16.2843 14.15 16.4672 14.1108 16.6156 14.0324C16.7652 13.9528 16.8773 13.8299 16.9521 13.6639C17.028 13.4966 17.0659 13.2809 17.0659 13.0168C17.0659 12.755 17.028 12.5411 16.9521 12.375C16.8773 12.2089 16.7657 12.0866 16.6173 12.0082C16.4689 11.9298 16.286 11.8906 16.0685 11.8906H15.5995V14.15Z" fill="white"/>
<path fill-rule="evenodd" clip-rule="evenodd" d="M2.19995 11.2487V14.7918H3.68673C3.94727 14.7918 4.16647 14.7492 4.34431 14.6638C4.52216 14.5785 4.6564 14.4626 4.74702 14.3161C4.83877 14.1685 4.88465 14.0006 4.88465 13.8126C4.88465 13.6385 4.8484 13.4885 4.7759 13.3628C4.70341 13.236 4.60882 13.1373 4.49214 13.067C4.3766 12.9966 4.25256 12.9586 4.12002 12.9528V12.9182C4.24123 12.8905 4.34884 12.8438 4.44287 12.7781C4.53802 12.7112 4.61278 12.6258 4.66716 12.522C4.72153 12.4171 4.74872 12.2954 4.74872 12.157C4.74872 11.9794 4.70567 11.8225 4.61958 11.6864C4.53349 11.5492 4.40492 11.4419 4.23387 11.3646C4.06282 11.2874 3.84929 11.2487 3.59328 11.2487H2.19995ZM3.5355 14.1794H2.9357V13.2383H3.5525C3.67031 13.2383 3.77169 13.2596 3.85665 13.3023C3.94274 13.345 4.00901 13.4038 4.05545 13.4787C4.1019 13.5537 4.12512 13.6402 4.12512 13.7382C4.12512 13.872 4.07811 13.9793 3.98409 14.06C3.89007 14.1396 3.74054 14.1794 3.5355 14.1794ZM3.48113 12.7314H2.9357V11.8542H3.49472C3.65785 11.8542 3.78358 11.8935 3.87194 11.9719C3.96143 12.0503 4.00618 12.1535 4.00618 12.2816C4.00618 12.375 3.98296 12.4551 3.93651 12.522C3.8912 12.5889 3.8289 12.6408 3.7496 12.6777C3.67144 12.7135 3.58195 12.7314 3.48113 12.7314Z" fill="white"/>
</g>
<defs>
<filter id="filter0_d_27923_1120" x="-0.2" y="9.4" width="20.4" height="8.4" filterUnits="userSpaceOnUse" color-interpolation-filters="sRGB">
<feFlood flood-opacity="0" result="BackgroundImageFix"/>
<feColorMatrix in="SourceAlpha" type="matrix" values="0 0 0 0 0 0 0 0 0 0 0 0 0 0 0 0 0 0 127 0" result="hardAlpha"/>
<feOffset dy="0.6"/>
<feGaussianBlur stdDeviation="0.6"/>
<feComposite in2="hardAlpha" operator="out"/>
<feColorMatrix type="matrix" values="0 0 0 0 0 0 0 0 0 0 0 0 0 0 0 0 0 0 0.12 0"/>
<feBlend mode="normal" in2="BackgroundImageFix" result="effect1_dropShadow_27923_1120"/>
<feBlend mode="normal" in="SourceGraphic" in2="effect1_dropShadow_27923_1120" result="shape"/>
</filter>
<linearGradient id="paint0_linear_27923_1120" x1="4" y1="1" x2="15.7704" y2="30.2583" gradientUnits="userSpaceOnUse">
<stop stop-color="#F7FEFF"/>
<stop offset="0.37" stop-color="#EDF8F9"/>
<stop offset="1" stop-color="#DFF2F4"/>
</linearGradient>
<linearGradient id="paint1_linear_27923_1120" x1="12" y1="1" x2="12" y2="22.6944" gradientUnits="userSpaceOnUse">
<stop stop-color="#E4EFF0"/>
<stop offset="1" stop-color="#DEEFF1"/>
</linearGradient>
<clipPath id="clip0_27923_1120">
<rect width="24" height="24" fill="white"/>
</clipPath>
</defs>
</svg>
