<svg width="24" height="24" viewBox="0 0 24 24" fill="none" xmlns="http://www.w3.org/2000/svg">
<path d="M6.59961 1.34961H14.5186L19.6504 6.64062V20.4004C19.6502 21.6427 18.6427 22.6502 17.4004 22.6504H6.59961C5.35728 22.6502 4.34982 21.6427 4.34961 20.4004V3.59961C4.34982 2.35728 5.35728 1.34982 6.59961 1.34961Z" fill="url(#paint0_linear_27375_21369)" stroke="url(#paint1_linear_27375_21369)" stroke-width="0.7" stroke-linejoin="round"/>
<path d="M16.6699 6.5C15.5654 6.5 14.6699 5.60457 14.6699 4.5L14.6699 1L19.9999 6.5H16.6699Z" fill="#DADEE5"/>
<path fill-rule="evenodd" clip-rule="evenodd" d="M13.7667 8.84214C14.2225 8.38737 14.9605 8.3878 15.4158 8.84309L16.0467 9.47408C16.5016 9.92898 16.5024 10.6662 16.0485 11.1221L10.5808 16.6145C10.458 16.7379 10.3031 16.8244 10.1336 16.8644L7.88796 17.394C7.58249 17.4661 7.31333 17.1809 7.40286 16.8801L8.04992 14.7061C8.09428 14.557 8.17516 14.4214 8.28523 14.3116L13.7667 8.84214ZM14.9208 9.33804C14.7387 9.15592 14.4435 9.15576 14.2612 9.33766L13.5634 10.0339L14.8567 11.3271L15.5525 10.6282C15.734 10.4459 15.7337 10.151 15.5517 9.96904L14.9208 9.33804ZM14.3628 11.8232L13.0679 10.5283L8.99514 14.5921L10.3037 15.9007L14.3628 11.8232ZM8.21743 16.5971L8.62863 15.2156L9.66805 16.255L8.21743 16.5971Z" fill="#1F86FF"/>
<path d="M7.59392 11.2822C7.22943 10.9177 7.22943 10.3267 7.59392 9.96223L8.96735 8.5888C9.33184 8.22431 9.9228 8.22431 10.2873 8.5888L11.4503 9.75177C11.4568 9.75744 11.4632 9.76339 11.4695 9.76962C11.6062 9.9063 11.6062 10.1279 11.4695 10.2646L10.6726 11.0615C10.536 11.1982 10.3144 11.1982 10.1777 11.0615C10.041 10.9248 10.041 10.7032 10.1777 10.5665L10.7263 10.0178L10.4496 9.74101L9.5982 10.5922C9.4615 10.7288 9.2399 10.7288 9.10323 10.5921C8.96656 10.4554 8.96658 10.2338 9.10328 10.0972L9.95458 9.24604L9.79231 9.08377C9.70119 8.99265 9.55345 8.99265 9.46233 9.08377L8.0889 10.4572C7.99778 10.5483 7.99778 10.6961 8.0889 10.7872L9.26788 11.9662C9.40457 12.1029 9.40457 12.3245 9.26788 12.4611C9.1312 12.5978 8.90959 12.5978 8.77291 12.4611L7.59392 11.2822Z" fill="#1F86FF"/>
<path d="M13.7123 17.398C14.0768 17.7625 14.6678 17.7625 15.0323 17.398L16.4065 16.0238C16.771 15.6593 16.771 15.0684 16.4065 14.7039L15.2267 13.5242C15.1983 13.4958 15.1663 13.4733 15.1321 13.4567C15.1184 13.4349 15.1021 13.4144 15.0831 13.3954C14.9465 13.2587 14.7249 13.2588 14.5882 13.3954L13.7935 14.1902C13.6568 14.3269 13.6568 14.5485 13.7935 14.6852C13.9302 14.8219 14.1518 14.8219 14.2884 14.6852L14.8431 14.1305L15.2131 14.5005L14.3609 15.3525C14.2242 15.4891 14.2242 15.7107 14.3608 15.8474C14.4975 15.9841 14.7191 15.9842 14.8558 15.8475L15.7081 14.9954L15.9115 15.1989C16.0026 15.29 16.0026 15.4377 15.9115 15.5288L14.5373 16.903C14.4462 16.9942 14.2984 16.9942 14.2073 16.903L13.0283 15.7241C12.8917 15.5874 12.67 15.5874 12.5334 15.7241C12.3967 15.8607 12.3967 16.0823 12.5334 16.219L13.7123 17.398Z" fill="#1F86FF"/>
<defs>
<linearGradient id="paint0_linear_27375_21369" x1="4" y1="1" x2="12.3172" y2="22.8794" gradientUnits="userSpaceOnUse">
<stop stop-color="#F7FAFF"/>
<stop offset="0.37" stop-color="#EDF1F9"/>
<stop offset="1" stop-color="#EDF1F9"/>
</linearGradient>
<linearGradient id="paint1_linear_27375_21369" x1="12" y1="1" x2="12" y2="22.6944" gradientUnits="userSpaceOnUse">
<stop stop-color="#E4E8F0"/>
<stop offset="1" stop-color="#E5E9F1"/>
</linearGradient>
</defs>
</svg>
