<svg width="24" height="24" viewBox="0 0 24 24" fill="none" xmlns="http://www.w3.org/2000/svg">
<g clip-path="url(#clip0_27375_21289)">
<path d="M6.59961 1.34961H14.5186L19.6504 6.64062V20.4004C19.6502 21.6427 18.6427 22.6502 17.4004 22.6504H6.59961C5.35728 22.6502 4.34982 21.6427 4.34961 20.4004V3.59961C4.34982 2.35728 5.35728 1.34982 6.59961 1.34961Z" fill="url(#paint0_linear_27375_21289)" stroke="url(#paint1_linear_27375_21289)" stroke-width="0.7" stroke-linejoin="round"/>
<path d="M16.6699 6.5C15.5654 6.5 14.6699 5.60457 14.6699 4.5L14.6699 1L19.9999 6.5H16.6699Z" fill="#DADEE5"/>
<g filter="url(#filter0_d_27375_21289)">
<path d="M1.10327 10.152C1.10327 9.50769 1.6308 8.98535 2.28155 8.98535H16.4208C17.0716 8.98535 17.5991 9.50769 17.5991 10.152V14.8187C17.5991 15.463 17.0716 15.9854 16.4208 15.9854H2.28155C1.6308 15.9854 1.10327 15.463 1.10327 14.8187V10.152Z" fill="#1F86FF"/>
</g>
<path d="M3.98717 14.9754H2.29639V10.2058H4.00114C4.48089 10.2058 4.89388 10.3013 5.24011 10.4923C5.58634 10.6817 5.85261 10.9542 6.03893 11.3097C6.22679 11.6653 6.32072 12.0907 6.32072 12.586C6.32072 13.0828 6.22679 13.5098 6.03893 13.8669C5.85261 14.224 5.58479 14.498 5.23546 14.689C4.88767 14.8799 4.47158 14.9754 3.98717 14.9754ZM3.3048 14.1114H3.94525C4.24334 14.1114 4.49409 14.0586 4.69748 13.953C4.90242 13.8459 5.05613 13.6805 5.1586 13.457C5.26263 13.2318 5.31464 12.9415 5.31464 12.586C5.31464 12.2335 5.26263 11.9455 5.1586 11.7219C5.05613 11.4984 4.9032 11.3338 4.69981 11.2282C4.49642 11.1226 4.24567 11.0699 3.94757 11.0699H3.3048V14.1114Z" fill="white"/>
<path d="M11.4507 12.5906C11.4507 13.1107 11.3521 13.5532 11.1549 13.9181C10.9593 14.283 10.6923 14.5616 10.3538 14.7542C10.0169 14.9451 9.63804 15.0406 9.21729 15.0406C8.79343 15.0406 8.41304 14.9444 8.07613 14.7518C7.73921 14.5593 7.47294 14.2806 7.27732 13.9158C7.08169 13.5509 6.98387 13.1092 6.98387 12.5906C6.98387 12.0705 7.08169 11.628 7.27732 11.2632C7.47294 10.8983 7.73921 10.6204 8.07613 10.4294C8.41304 10.2369 8.79343 10.1406 9.21729 10.1406C9.63804 10.1406 10.0169 10.2369 10.3538 10.4294C10.6923 10.6204 10.9593 10.8983 11.1549 11.2632C11.3521 11.628 11.4507 12.0705 11.4507 12.5906ZM10.4283 12.5906C10.4283 12.2537 10.3779 11.9696 10.2769 11.7382C10.1776 11.5069 10.0371 11.3315 9.85541 11.2119C9.67375 11.0924 9.46105 11.0326 9.21729 11.0326C8.97353 11.0326 8.76082 11.0924 8.57917 11.2119C8.39752 11.3315 8.25623 11.5069 8.15531 11.7382C8.05594 11.9696 8.00626 12.2537 8.00626 12.5906C8.00626 12.9275 8.05594 13.2117 8.15531 13.443C8.25623 13.6743 8.39752 13.8498 8.57917 13.9693C8.76082 14.0889 8.97353 14.1487 9.21729 14.1487C9.46105 14.1487 9.67375 14.0889 9.85541 13.9693C10.0371 13.8498 10.1776 13.6743 10.2769 13.443C10.3779 13.2117 10.4283 12.9275 10.4283 12.5906Z" fill="white"/>
<path d="M16.406 11.8757H15.386C15.3673 11.7437 15.3293 11.6265 15.2718 11.524C15.2144 11.42 15.1406 11.3315 15.0506 11.2585C14.9605 11.1855 14.8565 11.1296 14.7385 11.0908C14.6221 11.052 14.4955 11.0326 14.3589 11.0326C14.112 11.0326 13.897 11.0939 13.7138 11.2166C13.5306 11.3377 13.3885 11.5147 13.2876 11.7476C13.1867 11.9789 13.1362 12.2599 13.1362 12.5906C13.1362 12.9306 13.1867 13.2163 13.2876 13.4477C13.3901 13.679 13.5329 13.8537 13.7161 13.9717C13.8993 14.0897 14.1113 14.1487 14.3519 14.1487C14.487 14.1487 14.612 14.1308 14.7269 14.0951C14.8433 14.0594 14.9466 14.0074 15.0366 13.9391C15.1267 13.8692 15.2012 13.7846 15.2602 13.6852C15.3207 13.5858 15.3627 13.4725 15.386 13.3452L16.406 13.3498C16.3796 13.5688 16.3136 13.7799 16.2081 13.9833C16.104 14.1851 15.9635 14.366 15.7865 14.5259C15.6111 14.6843 15.4015 14.8101 15.1577 14.9032C14.9155 14.9948 14.6415 15.0406 14.3356 15.0406C13.9102 15.0406 13.5298 14.9444 13.1945 14.7518C12.8607 14.5593 12.5967 14.2806 12.4026 13.9158C12.2101 13.5509 12.1139 13.1092 12.1139 12.5906C12.1139 12.0705 12.2117 11.628 12.4073 11.2632C12.6029 10.8983 12.8684 10.6204 13.2038 10.4294C13.5391 10.2369 13.9164 10.1406 14.3356 10.1406C14.612 10.1406 14.8682 10.1794 15.1042 10.2571C15.3417 10.3347 15.5521 10.448 15.7353 10.5971C15.9185 10.7446 16.0675 10.9255 16.1824 11.1397C16.2989 11.354 16.3734 11.5993 16.406 11.8757Z" fill="white"/>
</g>
<defs>
<filter id="filter0_d_27375_21289" x="-0.0967284" y="8.38535" width="18.8958" height="9.4" filterUnits="userSpaceOnUse" color-interpolation-filters="sRGB">
<feFlood flood-opacity="0" result="BackgroundImageFix"/>
<feColorMatrix in="SourceAlpha" type="matrix" values="0 0 0 0 0 0 0 0 0 0 0 0 0 0 0 0 0 0 127 0" result="hardAlpha"/>
<feOffset dy="0.6"/>
<feGaussianBlur stdDeviation="0.6"/>
<feComposite in2="hardAlpha" operator="out"/>
<feColorMatrix type="matrix" values="0 0 0 0 0 0 0 0 0 0 0 0 0 0 0 0 0 0 0.12 0"/>
<feBlend mode="normal" in2="BackgroundImageFix" result="effect1_dropShadow_27375_21289"/>
<feBlend mode="normal" in="SourceGraphic" in2="effect1_dropShadow_27375_21289" result="shape"/>
</filter>
<linearGradient id="paint0_linear_27375_21289" x1="4" y1="1" x2="12.3172" y2="22.8794" gradientUnits="userSpaceOnUse">
<stop stop-color="#F7FAFF"/>
<stop offset="0.37" stop-color="#EDF1F9"/>
<stop offset="1" stop-color="#EDF1F9"/>
</linearGradient>
<linearGradient id="paint1_linear_27375_21289" x1="12" y1="1" x2="12" y2="22.6944" gradientUnits="userSpaceOnUse">
<stop stop-color="#E4E8F0"/>
<stop offset="1" stop-color="#E5E9F1"/>
</linearGradient>
<clipPath id="clip0_27375_21289">
<rect width="24" height="24" fill="white"/>
</clipPath>
</defs>
</svg>
