<svg width="24" height="24" viewBox="0 0 24 24" fill="none" xmlns="http://www.w3.org/2000/svg">
<g clip-path="url(#clip0_27375_21294)">
<path d="M6.59961 1.34961H14.5186L19.6504 6.64062V20.4004C19.6502 21.6427 18.6427 22.6502 17.4004 22.6504H6.59961C5.35728 22.6502 4.34982 21.6427 4.34961 20.4004V3.59961C4.34982 2.35728 5.35728 1.34982 6.59961 1.34961Z" fill="url(#paint0_linear_27375_21294)" stroke="url(#paint1_linear_27375_21294)" stroke-width="0.7" stroke-linejoin="round"/>
<path d="M16.6699 6.5C15.5654 6.5 14.6699 5.60457 14.6699 4.5L14.6699 1L19.9999 6.5H16.6699Z" fill="#DADEE5"/>
<g filter="url(#filter0_d_27375_21294)">
<path d="M0.0402832 10.0514C0.0402832 9.4071 0.549557 8.88477 1.17778 8.88477H18.2402C18.8684 8.88477 19.3777 9.4071 19.3777 10.0514V14.7181C19.3777 15.3624 18.8684 15.8848 18.2402 15.8848H1.17778C0.549557 15.8848 0.0402832 15.3624 0.0402832 14.7181V10.0514Z" fill="#1F83F8"/>
</g>
<path d="M2.68617 14.7141H1.14722V10.3728H2.69889C3.13556 10.3728 3.51147 10.4597 3.82661 10.6336C4.14175 10.806 4.38411 11.054 4.55369 11.3776C4.72468 11.7012 4.81018 12.0884 4.81018 12.5392C4.81018 12.9915 4.72468 13.3801 4.55369 13.7051C4.38411 14.0301 4.14033 14.2796 3.82237 14.4534C3.50582 14.6272 3.12708 14.7141 2.68617 14.7141ZM2.06508 13.9277H2.64802C2.91935 13.9277 3.14757 13.8796 3.3327 13.7835C3.51924 13.686 3.65915 13.5355 3.75242 13.332C3.8471 13.1271 3.89444 12.8629 3.89444 12.5392C3.89444 12.2184 3.8471 11.9563 3.75242 11.7528C3.65915 11.5493 3.51995 11.3995 3.33482 11.3034C3.14969 11.2073 2.92147 11.1593 2.65013 11.1593H2.06508V13.9277Z" fill="white"/>
<path d="M9.47951 12.5435C9.47951 13.0169 9.38977 13.4196 9.2103 13.7517C9.03224 14.0838 8.78917 14.3375 8.4811 14.5127C8.17444 14.6866 7.82962 14.7735 7.44665 14.7735C7.06085 14.7735 6.71462 14.6859 6.40796 14.5106C6.1013 14.3354 5.85894 14.0817 5.68088 13.7496C5.50282 13.4175 5.41379 13.0155 5.41379 12.5435C5.41379 12.0701 5.50282 11.6673 5.68088 11.3352C5.85894 11.0031 6.1013 10.7501 6.40796 10.5763C6.71462 10.4011 7.06085 10.3135 7.44665 10.3135C7.82962 10.3135 8.17444 10.4011 8.4811 10.5763C8.78917 10.7501 9.03224 11.0031 9.2103 11.3352C9.38977 11.6673 9.47951 12.0701 9.47951 12.5435ZM8.54893 12.5435C8.54893 12.2368 8.503 11.9782 8.41114 11.7676C8.3207 11.5571 8.19281 11.3974 8.02747 11.2886C7.86212 11.1798 7.66852 11.1253 7.44665 11.1253C7.22478 11.1253 7.03117 11.1798 6.86583 11.2886C6.70049 11.3974 6.57189 11.5571 6.48003 11.7676C6.38959 11.9782 6.34437 12.2368 6.34437 12.5435C6.34437 12.8501 6.38959 13.1087 6.48003 13.3193C6.57189 13.5299 6.70049 13.6896 6.86583 13.7984C7.03117 13.9072 7.22478 13.9616 7.44665 13.9616C7.66852 13.9616 7.86212 13.9072 8.02747 13.7984C8.19281 13.6896 8.3207 13.5299 8.41114 13.3193C8.503 13.1087 8.54893 12.8501 8.54893 12.5435Z" fill="white"/>
<path d="M13.9899 11.8927H13.0614C13.0444 11.7726 13.0098 11.6659 12.9575 11.5726C12.9052 11.4779 12.8381 11.3974 12.7561 11.331C12.6742 11.2645 12.5795 11.2137 12.4721 11.1783C12.3661 11.143 12.2509 11.1253 12.1266 11.1253C11.9019 11.1253 11.7062 11.1812 11.5394 11.2928C11.3726 11.403 11.2433 11.5641 11.1515 11.7761C11.0596 11.9867 11.0137 12.2425 11.0137 12.5435C11.0137 12.853 11.0596 13.113 11.1515 13.3236C11.2447 13.5341 11.3748 13.6931 11.5415 13.8005C11.7083 13.9079 11.9012 13.9616 12.1202 13.9616C12.2432 13.9616 12.3569 13.9454 12.4615 13.9128C12.5675 13.8803 12.6615 13.833 12.7434 13.7708C12.8254 13.7072 12.8932 13.6302 12.9469 13.5398C13.002 13.4493 13.0402 13.3462 13.0614 13.2303L13.9899 13.2345C13.9658 13.4338 13.9058 13.626 13.8097 13.8111C13.715 13.9948 13.5871 14.1594 13.426 14.305C13.2663 14.4492 13.0755 14.5636 12.8537 14.6484C12.6332 14.7318 12.3838 14.7735 12.1054 14.7735C11.7182 14.7735 11.3719 14.6859 11.0667 14.5106C10.7629 14.3354 10.5226 14.0817 10.346 13.7496C10.1707 13.4175 10.0831 13.0155 10.0831 12.5435C10.0831 12.0701 10.1721 11.6673 10.3502 11.3352C10.5283 11.0031 10.7699 10.7501 11.0752 10.5763C11.3804 10.4011 11.7238 10.3135 12.1054 10.3135C12.3569 10.3135 12.5901 10.3488 12.8049 10.4195C13.0211 10.4901 13.2126 10.5933 13.3794 10.729C13.5461 10.8632 13.6818 11.0278 13.7864 11.2229C13.8923 11.4179 13.9602 11.6412 13.9899 11.8927Z" fill="white"/>
<path d="M15.4154 10.3728L16.2909 11.8524H16.3248L17.2045 10.3728H18.2411L16.9162 12.5435L18.2707 14.7141H17.2151L16.3248 13.2324H16.2909L15.4006 14.7141H14.3492L15.7079 12.5435L14.3746 10.3728H15.4154Z" fill="white"/>
</g>
<defs>
<filter id="filter0_d_27375_21294" x="-1.31353" y="8.20786" width="22.045" height="9.70762" filterUnits="userSpaceOnUse" color-interpolation-filters="sRGB">
<feFlood flood-opacity="0" result="BackgroundImageFix"/>
<feColorMatrix in="SourceAlpha" type="matrix" values="0 0 0 0 0 0 0 0 0 0 0 0 0 0 0 0 0 0 127 0" result="hardAlpha"/>
<feOffset dy="0.676904"/>
<feGaussianBlur stdDeviation="0.676904"/>
<feComposite in2="hardAlpha" operator="out"/>
<feColorMatrix type="matrix" values="0 0 0 0 0 0 0 0 0 0 0 0 0 0 0 0 0 0 0.12 0"/>
<feBlend mode="normal" in2="BackgroundImageFix" result="effect1_dropShadow_27375_21294"/>
<feBlend mode="normal" in="SourceGraphic" in2="effect1_dropShadow_27375_21294" result="shape"/>
</filter>
<linearGradient id="paint0_linear_27375_21294" x1="4" y1="1" x2="12.3172" y2="22.8794" gradientUnits="userSpaceOnUse">
<stop stop-color="#F7FAFF"/>
<stop offset="0.37" stop-color="#EDF1F9"/>
<stop offset="1" stop-color="#EDF1F9"/>
</linearGradient>
<linearGradient id="paint1_linear_27375_21294" x1="12" y1="1" x2="12" y2="22.6944" gradientUnits="userSpaceOnUse">
<stop stop-color="#E4E8F0"/>
<stop offset="1" stop-color="#E5E9F1"/>
</linearGradient>
<clipPath id="clip0_27375_21294">
<rect width="24" height="24" fill="white"/>
</clipPath>
</defs>
</svg>
