<svg width="24" height="24" viewBox="0 0 24 24" fill="none" xmlns="http://www.w3.org/2000/svg">
<path d="M1 5C1 3.89543 1.89543 3 3 3H8.39445C8.7893 3 9.17531 3.11688 9.50385 3.3359L11.4962 4.6641C11.8247 4.88312 12.2107 5 12.6056 5H21C22.1046 5 23 5.89543 23 7V8H1V5Z" fill="url(#paint0_linear_33402_1305)"/>
<path d="M1 9H23L23 19.4C23 20.8359 21.8359 22 20.4 22H3.60004C2.1641 22 1.00004 20.8359 1.00004 19.4L1 9Z" fill="url(#paint1_linear_33402_1305)"/>
<path d="M20.5176 11.9141C20.6971 11.9141 20.8426 12.0596 20.8426 12.2391V15.8109C20.8428 15.816 20.843 15.8212 20.843 15.8263C20.843 15.8315 20.8428 15.8366 20.8426 15.8417V19.0554C20.8426 19.2349 20.6971 19.3804 20.5176 19.3804C20.3381 19.3804 20.1926 19.2349 20.1926 19.0554V16.1513H17.5921C17.4126 16.1513 17.2671 16.0058 17.2671 15.8263V12.2539C17.2671 12.0744 17.4126 11.9289 17.5921 11.9289C17.7716 11.9289 17.9171 12.0744 17.9171 12.2539V15.5013H20.1926V12.2391C20.1926 12.0596 20.3381 11.9141 20.5176 11.9141Z" fill="white"/>
<path d="M16.191 14.037C16.191 13.4583 15.9989 12.9858 15.6817 12.6365C15.3679 12.291 14.947 12.0827 14.5108 11.9979C13.6556 11.8317 12.6435 12.1307 12.1737 12.9595C12.0852 13.1157 12.14 13.314 12.2961 13.4025C12.4523 13.491 12.6506 13.4362 12.7391 13.2801C13.0362 12.756 13.729 12.5081 14.3868 12.636C14.7072 12.6982 14.9949 12.8472 15.2006 13.0736C15.4028 13.2962 15.541 13.6102 15.541 14.037C15.541 14.3839 15.4135 14.7094 15.1817 15.0506C14.9466 15.3968 14.6196 15.7376 14.2432 16.1174C14.2036 16.1573 14.1636 16.1975 14.1232 16.2382C13.4113 16.9541 12.5735 17.7966 12.1514 18.9434C12.1147 19.0431 12.1291 19.1544 12.1898 19.2416C12.2506 19.3287 12.3502 19.3806 12.4564 19.3806L15.866 19.3806C16.0455 19.3806 16.191 19.2351 16.191 19.0556C16.191 18.8761 16.0455 18.7306 15.866 18.7306L12.9523 18.7306C13.3559 17.9338 13.9871 17.298 14.6084 16.6721L14.7048 16.5749C15.0766 16.1998 15.4456 15.819 15.7194 15.4159C15.9966 15.0078 16.191 14.5562 16.191 14.037Z" fill="white"/>
<defs>
<linearGradient id="paint0_linear_33402_1305" x1="12" y1="2.50925" x2="12" y2="11.5525" gradientUnits="userSpaceOnUse">
<stop stop-color="#58BCF4"/>
<stop offset="1" stop-color="#3F81EC"/>
</linearGradient>
<linearGradient id="paint1_linear_33402_1305" x1="12" y1="7.72405" x2="12" y2="31.2366" gradientUnits="userSpaceOnUse">
<stop stop-color="#58BCF4"/>
<stop offset="1" stop-color="#3F81EC"/>
</linearGradient>
</defs>
</svg>
