<svg width="24" height="24" viewBox="0 0 24 24" fill="none" xmlns="http://www.w3.org/2000/svg">
<path d="M1 5C1 3.89543 1.89543 3 3 3H8.39445C8.7893 3 9.17531 3.11688 9.50385 3.3359L11.4962 4.6641C11.8247 4.88312 12.2107 5 12.6056 5H21C22.1046 5 23 5.89543 23 7V8H1V5Z" fill="url(#paint0_linear_33402_1317)"/>
<path d="M1 9H23L23 19.4C23 20.8359 21.8359 22 20.4 22H3.60004C2.1641 22 1.00004 20.8359 1.00004 19.4L1 9Z" fill="url(#paint1_linear_33402_1317)"/>
<g opacity="0.9">
<path fill-rule="evenodd" clip-rule="evenodd" d="M19.4349 12.9302L17.2583 11.6735C16.7891 11.4026 16.2109 11.4026 15.7417 11.6735L13.5651 12.9302C13.0958 13.2011 12.8067 13.7018 12.8067 14.2436V16.757C12.8067 17.2988 13.0958 17.7995 13.5651 18.0704L15.7417 19.3271C16.2109 19.598 16.7891 19.598 17.2583 19.3271L19.4349 18.0704C19.9042 17.7995 20.1933 17.2988 20.1933 16.757V14.2436C20.1933 13.7018 19.9042 13.2011 19.4349 12.9302ZM17.5833 11.1106C16.913 10.7236 16.087 10.7236 15.4167 11.1106L13.2401 12.3673C12.5697 12.7543 12.1567 13.4696 12.1567 14.2436V16.757C12.1567 17.531 12.5697 18.2463 13.2401 18.6334L15.4167 19.89C16.087 20.2771 16.913 20.2771 17.5833 19.89L19.7599 18.6334C20.4303 18.2463 20.8433 17.531 20.8433 16.757V14.2436C20.8433 13.4696 20.4303 12.7543 19.7599 12.3673L17.5833 11.1106Z" fill="white"/>
<path fill-rule="evenodd" clip-rule="evenodd" d="M18.2404 14.2463L16.7157 13.366C16.5823 13.289 16.4179 13.289 16.2845 13.366L14.7597 14.2463C14.6263 14.3234 14.5441 14.4657 14.5441 14.6198V16.3804C14.5441 16.5345 14.6263 16.6768 14.7597 16.7538L16.2845 17.6342C16.4179 17.7112 16.5822 17.7112 16.7157 17.6342L18.2404 16.7538C18.3738 16.6768 18.456 16.5345 18.456 16.3804V14.6198C18.456 14.4657 18.3738 14.3234 18.2404 14.2463ZM17.0407 12.8031C16.7061 12.61 16.294 12.61 15.9595 12.8031L14.4347 13.6834C14.1002 13.8766 13.8941 14.2335 13.8941 14.6198V16.3804C13.8941 16.7667 14.1002 17.1236 14.4347 17.3168L15.9595 18.1971C16.294 18.3902 16.7061 18.3902 17.0407 18.1971L18.5654 17.3168C18.8999 17.1236 19.106 16.7667 19.106 16.3804V14.6198C19.106 14.2335 18.8999 13.8766 18.5654 13.6834L17.0407 12.8031Z" fill="white"/>
</g>
<defs>
<linearGradient id="paint0_linear_33402_1317" x1="12" y1="3" x2="12" y2="8" gradientUnits="userSpaceOnUse">
<stop stop-color="#19CC45"/>
<stop offset="1" stop-color="#1CB14E"/>
</linearGradient>
<linearGradient id="paint1_linear_33402_1317" x1="12" y1="9" x2="12" y2="22" gradientUnits="userSpaceOnUse">
<stop stop-color="#19CC45"/>
<stop offset="1" stop-color="#1CB14E"/>
</linearGradient>
</defs>
</svg>
