<svg width="24" height="24" viewBox="0 0 24 24" fill="none" xmlns="http://www.w3.org/2000/svg">
<path d="M1 5C1 3.89543 1.89543 3 3 3H8.39445C8.7893 3 9.17531 3.11688 9.50385 3.3359L11.4962 4.6641C11.8247 4.88312 12.2107 5 12.6056 5H21C22.1046 5 23 5.89543 23 7V8H1V5Z" fill="url(#paint0_linear_33402_1313)"/>
<path d="M1 9H23L23 19.4C23 20.8359 21.8359 22 20.4 22H3.60004C2.1641 22 1.00004 20.8359 1.00004 19.4L1 9Z" fill="url(#paint1_linear_33402_1313)"/>
<path fill-rule="evenodd" clip-rule="evenodd" d="M17.0428 12.3283C17.8334 11.5377 19.0499 11.3607 19.9001 12.2109C20.316 12.6269 20.4807 13.1346 20.4256 13.6445C20.3717 14.1441 20.1107 14.6199 19.724 15.007L18.5989 16.1561C18.1515 16.6035 17.6755 16.8575 17.1725 16.8574C16.6696 16.8572 16.2186 16.603 15.8211 16.2055C15.7282 16.1127 15.6457 16.0131 15.5736 15.9083C15.472 15.7604 15.5094 15.558 15.6574 15.4563C15.8053 15.3547 16.0076 15.3921 16.1093 15.5401C16.159 15.6123 16.2161 15.6813 16.2807 15.7459C16.6085 16.0737 16.9041 16.2073 17.1727 16.2074C17.441 16.2074 17.7611 16.0743 18.1381 15.6976L19.2631 14.5486C19.5703 14.2414 19.7447 13.8961 19.7794 13.5747C19.813 13.263 19.7191 12.9491 19.4405 12.6706C18.9021 12.1322 18.1023 12.1894 17.504 12.7864L16.6831 13.6313C16.558 13.76 16.3523 13.763 16.2235 13.6379C16.0948 13.5128 16.0918 13.3071 16.2169 13.1783L17.0428 12.3283ZM15.8354 14.2106C16.346 14.1683 16.8128 14.3793 17.224 14.7667L17.2275 14.77L17.4654 15.0079C17.5923 15.1348 17.5923 15.3406 17.4654 15.4675C17.3385 15.5944 17.1327 15.5945 17.0058 15.4675L16.7748 15.2366C16.4589 14.9401 16.1662 14.8354 15.8891 14.8584C15.6007 14.8823 15.2602 15.0499 14.869 15.441L13.7693 16.5436C13.1716 17.1413 13.1146 17.945 13.654 18.4844C13.9326 18.7629 14.246 18.8566 14.5573 18.8227C14.8783 18.7878 15.2234 18.6132 15.5306 18.306L16.336 17.4978C16.4627 17.3707 16.6685 17.3703 16.7956 17.497C16.9228 17.6238 16.9231 17.8295 16.7964 17.9567L15.9909 18.765L15.9905 18.7654C15.6033 19.1526 15.1275 19.4145 14.6276 19.4689C14.118 19.5243 13.6104 19.36 13.1944 18.944C12.3449 18.0945 12.518 16.8758 13.3092 16.0844L14.4088 14.9819C14.8587 14.532 15.3353 14.2521 15.8354 14.2106Z" fill="white"/>
<defs>
<linearGradient id="paint0_linear_33402_1313" x1="12" y1="2.50925" x2="12" y2="11.5525" gradientUnits="userSpaceOnUse">
<stop stop-color="#58BCF4"/>
<stop offset="1" stop-color="#3F81EC"/>
</linearGradient>
<linearGradient id="paint1_linear_33402_1313" x1="12" y1="7.72405" x2="12" y2="31.2366" gradientUnits="userSpaceOnUse">
<stop stop-color="#58BCF4"/>
<stop offset="1" stop-color="#3F81EC"/>
</linearGradient>
</defs>
</svg>
