<svg width="24" height="24" viewBox="0 0 24 24" fill="none" xmlns="http://www.w3.org/2000/svg">
<path d="M1 5C1 3.89543 1.89543 3 3 3H8.39445C8.7893 3 9.17531 3.11688 9.50385 3.3359L11.4962 4.6641C11.8247 4.88312 12.2107 5 12.6056 5H21C22.1046 5 23 5.89543 23 7V8H1V5Z" fill="url(#paint0_linear_33402_1301)"/>
<path d="M1 9H23L23 19.4C23 20.8359 21.8359 22 20.4 22H3.60004C2.1641 22 1.00004 20.8359 1.00004 19.4L1 9Z" fill="url(#paint1_linear_33402_1301)"/>
<path fill-rule="evenodd" clip-rule="evenodd" d="M13.1743 16.5578C13.848 16.1673 14.6811 16.0459 15.4359 16.0459C16.1908 16.0459 17.0239 16.1673 17.6976 16.5578C18.3909 16.9597 18.8926 17.6352 18.9724 18.6703C18.9996 19.0236 18.7108 19.2919 18.3877 19.2919H12.4842C12.161 19.2919 11.8723 19.0236 11.8995 18.6703C11.9792 17.6352 12.481 16.9597 13.1743 16.5578ZM12.5547 18.6419H18.3172C18.2369 17.8731 17.8683 17.4081 17.3716 17.1202C16.8388 16.8113 16.137 16.6959 15.4359 16.6959C14.7348 16.6959 14.0331 16.8113 13.5002 17.1202C13.0036 17.4081 12.635 17.8731 12.5547 18.6419Z" fill="white"/>
<path fill-rule="evenodd" clip-rule="evenodd" d="M15.0772 12.1009C14.9386 12.1468 14.8384 12.2011 14.7945 12.2335C14.3732 12.5436 14.1647 13.2156 14.3122 13.8874C14.4544 14.5353 14.8618 14.9347 15.432 14.9347C15.7951 14.9347 16.0624 14.7802 16.2585 14.5287C16.4664 14.262 16.5956 13.8779 16.6054 13.4687C16.6152 13.0589 16.5042 12.6875 16.3111 12.4347C16.1333 12.2018 15.8623 12.0338 15.432 12.0338C15.3416 12.0338 15.2136 12.0557 15.0772 12.1009ZM14.4091 11.71C13.0348 12.7217 13.4909 15.5847 15.432 15.5847C17.7624 15.5847 17.9636 11.3838 15.432 11.3838C15.076 11.3838 14.6373 11.542 14.4091 11.71Z" fill="white"/>
<path fill-rule="evenodd" clip-rule="evenodd" d="M17.6176 12.0348C18.0148 12.0491 18.2697 12.2124 18.4394 12.4347C18.6324 12.6875 18.7435 13.0589 18.7337 13.4687C18.7239 13.8779 18.5946 14.262 18.3868 14.5287C18.1907 14.7802 17.9234 14.9347 17.5603 14.9347C17.5341 14.9347 17.5083 14.9339 17.4829 14.9322L17.0558 15.5137C17.2108 15.5597 17.3791 15.5847 17.5603 15.5847C19.8907 15.5847 20.0919 11.3838 17.5603 11.3838C17.4106 11.3838 17.2464 11.4118 17.0893 11.4567L17.6176 12.0348ZM19.5166 19.2921H20.516C20.8391 19.2921 21.1279 19.0238 21.1007 18.6706C21.0209 17.6354 20.5192 16.96 19.8259 16.5581C19.3223 16.2661 18.7296 16.1246 18.1471 16.0718L18.9731 16.8906C19.1611 16.9508 19.3383 17.0267 19.4999 17.1204C19.9965 17.4083 20.3652 17.8733 20.4455 18.6421H19.5166V19.2921Z" fill="white"/>
<path fill-rule="evenodd" clip-rule="evenodd" d="M13.1743 16.5578C13.848 16.1673 14.6811 16.0459 15.4359 16.0459C16.1908 16.0459 17.0239 16.1673 17.6976 16.5578C18.3909 16.9597 18.8926 17.6352 18.9724 18.6703C18.9996 19.0236 18.7108 19.2919 18.3877 19.2919H12.4842C12.161 19.2919 11.8723 19.0236 11.8995 18.6703C11.9792 17.6352 12.481 16.9597 13.1743 16.5578ZM12.5547 18.6419H18.3172C18.2369 17.8731 17.8683 17.4081 17.3716 17.1202C16.8388 16.8113 16.137 16.6959 15.4359 16.6959C14.7348 16.6959 14.0331 16.8113 13.5002 17.1202C13.0036 17.4081 12.635 17.8731 12.5547 18.6419Z" fill="white"/>
<path fill-rule="evenodd" clip-rule="evenodd" d="M15.0772 12.1009C14.9386 12.1468 14.8384 12.2011 14.7945 12.2335C14.3732 12.5436 14.1647 13.2156 14.3122 13.8874C14.4544 14.5353 14.8618 14.9347 15.432 14.9347C15.7951 14.9347 16.0624 14.7802 16.2585 14.5287C16.4664 14.262 16.5956 13.8779 16.6054 13.4687C16.6152 13.0589 16.5042 12.6875 16.3111 12.4347C16.1333 12.2018 15.8623 12.0338 15.432 12.0338C15.3416 12.0338 15.2136 12.0557 15.0772 12.1009ZM14.4091 11.71C13.0348 12.7217 13.4909 15.5847 15.432 15.5847C17.7624 15.5847 17.9636 11.3838 15.432 11.3838C15.076 11.3838 14.6373 11.542 14.4091 11.71Z" fill="white"/>
<path fill-rule="evenodd" clip-rule="evenodd" d="M17.6176 12.0348C18.0148 12.0491 18.2697 12.2124 18.4394 12.4347C18.6324 12.6875 18.7435 13.0589 18.7337 13.4687C18.7239 13.8779 18.5946 14.262 18.3868 14.5287C18.1907 14.7802 17.9234 14.9347 17.5603 14.9347C17.5341 14.9347 17.5083 14.9339 17.4829 14.9322L17.0558 15.5137C17.2108 15.5597 17.3791 15.5847 17.5603 15.5847C19.8907 15.5847 20.0919 11.3838 17.5603 11.3838C17.4106 11.3838 17.2464 11.4118 17.0893 11.4567L17.6176 12.0348ZM19.5166 19.2921H20.516C20.8391 19.2921 21.1279 19.0238 21.1007 18.6706C21.0209 17.6354 20.5192 16.96 19.8259 16.5581C19.3223 16.2661 18.7296 16.1246 18.1471 16.0718L18.9731 16.8906C19.1611 16.9508 19.3383 17.0267 19.4999 17.1204C19.9965 17.4083 20.3652 17.8733 20.4455 18.6421H19.5166V19.2921Z" fill="white"/>
<defs>
<linearGradient id="paint0_linear_33402_1301" x1="12" y1="2.50925" x2="12" y2="11.5525" gradientUnits="userSpaceOnUse">
<stop stop-color="#58BCF4"/>
<stop offset="1" stop-color="#3F81EC"/>
</linearGradient>
<linearGradient id="paint1_linear_33402_1301" x1="12" y1="7.72405" x2="12" y2="31.2366" gradientUnits="userSpaceOnUse">
<stop stop-color="#58BCF4"/>
<stop offset="1" stop-color="#3F81EC"/>
</linearGradient>
</defs>
</svg>
