<svg width="24" height="24" viewBox="0 0 24 24" fill="none" xmlns="http://www.w3.org/2000/svg">
<g clip-path="url(#clip0_32344_22036)">
<path d="M6.59961 1.34961H14.5186L19.6504 6.64062V20.4004C19.6502 21.6427 18.6427 22.6502 17.4004 22.6504H6.59961C5.35728 22.6502 4.34982 21.6427 4.34961 20.4004V3.59961C4.34982 2.35728 5.35728 1.34982 6.59961 1.34961Z" fill="url(#paint0_linear_32344_22036)" stroke="url(#paint1_linear_32344_22036)" stroke-width="0.7" stroke-linejoin="round"/>
<path d="M16.6699 6.5C15.5654 6.5 14.6699 5.60457 14.6699 4.5L14.6699 1L19.9999 6.5H16.6699Z" fill="#DADEE5"/>
<g filter="url(#filter0_d_32344_22036)">
<path d="M1.10327 10.0495C1.10327 9.40515 1.60834 8.88281 2.23138 8.88281H15.7686C16.3917 8.88281 16.8967 9.40515 16.8967 10.0495V14.7161C16.8967 15.3605 16.3917 15.8828 15.7686 15.8828H2.23138C1.60834 15.8828 1.10327 15.3605 1.10327 14.7161V10.0495Z" fill="#0E85CD"/>
</g>
<path d="M12.5226 14.8295V10.1623H15.4982V10.8642H13.3571V12.2452H15.3139V12.9244H13.3571V14.8295H12.5226Z" fill="white"/>
<path d="M7.74678 14.8295V10.1623H9.49655C9.96014 10.1623 10.3547 10.2529 10.6803 10.434C11.0081 10.6151 11.2582 10.8782 11.4307 11.2232C11.6053 11.5682 11.6927 11.9843 11.6927 12.4716V12.4781C11.6927 12.9762 11.6064 13.401 11.4339 13.7524C11.2614 14.1017 11.0113 14.3691 10.6835 14.5545C10.358 14.7378 9.96229 14.8295 9.49655 14.8295H7.74678ZM8.58124 14.1276H9.38659C9.69492 14.1276 9.95798 14.064 10.1758 13.9368C10.3935 13.8096 10.5585 13.6241 10.6706 13.3805C10.7849 13.1368 10.842 12.8404 10.842 12.491V12.4846C10.842 12.1439 10.7838 11.8528 10.6674 11.6113C10.5531 11.3677 10.3871 11.1822 10.1693 11.055C9.95151 10.9278 9.69061 10.8642 9.38659 10.8642H8.58124V14.1276Z" fill="white"/>
<path d="M4.711 14.9459C4.25388 14.9459 3.86037 14.8467 3.53047 14.6483C3.20272 14.4478 2.94937 14.1643 2.7704 13.7977C2.59144 13.4312 2.50195 12.9978 2.50195 12.4975V12.491C2.50195 11.9886 2.59144 11.5552 2.7704 11.1908C2.95152 10.8243 3.20704 10.5418 3.53694 10.3435C3.86899 10.1451 4.26035 10.0459 4.711 10.0459C5.1638 10.0459 5.55515 10.1451 5.88506 10.3435C6.21496 10.5418 6.46939 10.8243 6.64836 11.1908C6.82732 11.5574 6.91681 11.9908 6.91681 12.491V12.4975C6.91681 12.9978 6.82732 13.4312 6.64836 13.7977C6.47155 14.1643 6.21819 14.4478 5.88829 14.6483C5.55839 14.8467 5.16596 14.9459 4.711 14.9459ZM4.711 14.2246C4.98915 14.2246 5.22957 14.1535 5.43225 14.0112C5.63493 13.8689 5.79126 13.6683 5.90123 13.4096C6.01335 13.1508 6.06941 12.8468 6.06941 12.4975V12.491C6.06941 12.1396 6.01335 11.8356 5.90123 11.579C5.79126 11.3202 5.63493 11.1208 5.43225 10.9806C5.22957 10.8383 4.98915 10.7672 4.711 10.7672C4.435 10.7672 4.19458 10.8383 3.98974 10.9806C3.78706 11.1208 3.62965 11.3202 3.51753 11.579C3.40756 11.8356 3.35258 12.1396 3.35258 12.491V12.4975C3.35258 12.8468 3.40649 13.1508 3.5143 13.4096C3.62426 13.6683 3.78059 13.8689 3.98327 14.0112C4.18811 14.1535 4.43069 14.2246 4.711 14.2246Z" fill="white"/>
</g>
<defs>
<filter id="filter0_d_32344_22036" x="-0.0967284" y="8.28281" width="18.1935" height="9.4" filterUnits="userSpaceOnUse" color-interpolation-filters="sRGB">
<feFlood flood-opacity="0" result="BackgroundImageFix"/>
<feColorMatrix in="SourceAlpha" type="matrix" values="0 0 0 0 0 0 0 0 0 0 0 0 0 0 0 0 0 0 127 0" result="hardAlpha"/>
<feOffset dy="0.6"/>
<feGaussianBlur stdDeviation="0.6"/>
<feComposite in2="hardAlpha" operator="out"/>
<feColorMatrix type="matrix" values="0 0 0 0 0 0 0 0 0 0 0 0 0 0 0 0 0 0 0.12 0"/>
<feBlend mode="normal" in2="BackgroundImageFix" result="effect1_dropShadow_32344_22036"/>
<feBlend mode="normal" in="SourceGraphic" in2="effect1_dropShadow_32344_22036" result="shape"/>
</filter>
<linearGradient id="paint0_linear_32344_22036" x1="4" y1="1" x2="12.3172" y2="22.8794" gradientUnits="userSpaceOnUse">
<stop stop-color="#F7FAFF"/>
<stop offset="0.37" stop-color="#EDF1F9"/>
<stop offset="1" stop-color="#EDF1F9"/>
</linearGradient>
<linearGradient id="paint1_linear_32344_22036" x1="12" y1="1" x2="12" y2="22.6944" gradientUnits="userSpaceOnUse">
<stop stop-color="#E4E8F0"/>
<stop offset="1" stop-color="#E5E9F1"/>
</linearGradient>
<clipPath id="clip0_32344_22036">
<rect width="24" height="24" fill="white"/>
</clipPath>
</defs>
</svg>
