<svg width="24" height="24" viewBox="0 0 24 24" fill="none" xmlns="http://www.w3.org/2000/svg">
<g clip-path="url(#clip0_32344_22282)">
<path d="M6.59961 1.34961H14.5186L19.6504 6.64062V20.4004C19.6502 21.6427 18.6427 22.6502 17.4004 22.6504H6.59961C5.35728 22.6502 4.34982 21.6427 4.34961 20.4004V3.59961C4.34982 2.35728 5.35728 1.34982 6.59961 1.34961Z" fill="url(#paint0_linear_32344_22282)" stroke="url(#paint1_linear_32344_22282)" stroke-width="0.7" stroke-linejoin="round"/>
<path d="M16.6699 6.5C15.5654 6.5 14.6699 5.60457 14.6699 4.5L14.6699 1L19.9999 6.5H16.6699Z" fill="#DADEE5"/>
<g filter="url(#filter0_d_32344_22282)">
<path d="M1.10327 10.0495C1.10327 9.40515 1.60834 8.88281 2.23138 8.88281H15.7686C16.3917 8.88281 16.8967 9.40515 16.8967 10.0495V14.7161C16.8967 15.3605 16.3917 15.8828 15.7686 15.8828H2.23138C1.60834 15.8828 1.10327 15.3605 1.10327 14.7161V10.0495Z" fill="#0E85CD"/>
</g>
<path d="M12.7021 13.2867V12.614H13.944C14.2438 12.614 14.4766 12.5374 14.6427 12.3843C14.8087 12.2291 14.8917 12.0113 14.8917 11.731V11.7245C14.8917 11.442 14.8087 11.2243 14.6427 11.0712C14.4766 10.9181 14.2438 10.8415 13.944 10.8415H12.7021V10.1623H14.1478C14.4648 10.1623 14.7418 10.227 14.979 10.3564C15.2162 10.4858 15.4016 10.668 15.5353 10.903C15.669 11.1359 15.7359 11.4086 15.7359 11.7213V11.7277C15.7359 12.0382 15.669 12.311 15.5353 12.546C15.4016 12.7789 15.2162 12.9611 14.979 13.0926C14.7418 13.222 14.4648 13.2867 14.1478 13.2867H12.7021ZM12.2848 14.8295V10.1623H13.1193V14.8295H12.2848Z" fill="white"/>
<path d="M7.50899 14.8295V10.1623H9.25876C9.72234 10.1623 10.1169 10.2529 10.4425 10.434C10.7703 10.6151 11.0204 10.8782 11.1929 11.2232C11.3675 11.5682 11.4549 11.9843 11.4549 12.4716V12.4781C11.4549 12.9762 11.3686 13.401 11.1961 13.7524C11.0236 14.1017 10.7735 14.3691 10.4458 14.5545C10.1202 14.7378 9.7245 14.8295 9.25876 14.8295H7.50899ZM8.34344 14.1276H9.14879C9.45713 14.1276 9.72019 14.064 9.93797 13.9368C10.1557 13.8096 10.3207 13.6241 10.4328 13.3805C10.5471 13.1368 10.6042 12.8404 10.6042 12.491V12.4846C10.6042 12.1439 10.546 11.8528 10.4296 11.6113C10.3153 11.3677 10.1493 11.1822 9.9315 11.055C9.71372 10.9278 9.45282 10.8642 9.14879 10.8642H8.34344V14.1276Z" fill="white"/>
<path d="M4.4732 14.9459C4.01609 14.9459 3.62258 14.8467 3.29268 14.6483C2.96493 14.4478 2.71157 14.1643 2.53261 13.7977C2.35364 13.4312 2.26416 12.9978 2.26416 12.4975V12.491C2.26416 11.9886 2.35364 11.5552 2.53261 11.1908C2.71373 10.8243 2.96924 10.5418 3.29914 10.3435C3.6312 10.1451 4.02255 10.0459 4.4732 10.0459C4.92601 10.0459 5.31736 10.1451 5.64726 10.3435C5.97716 10.5418 6.2316 10.8243 6.41056 11.1908C6.58953 11.5574 6.67901 11.9908 6.67901 12.491V12.4975C6.67901 12.9978 6.58953 13.4312 6.41056 13.7977C6.23375 14.1643 5.9804 14.4478 5.6505 14.6483C5.3206 14.8467 4.92816 14.9459 4.4732 14.9459ZM4.4732 14.2246C4.75135 14.2246 4.99177 14.1535 5.19446 14.0112C5.39714 13.8689 5.55347 13.6683 5.66343 13.4096C5.77556 13.1508 5.83162 12.8468 5.83162 12.4975V12.491C5.83162 12.1396 5.77556 11.8356 5.66343 11.579C5.55347 11.3202 5.39714 11.1208 5.19446 10.9806C4.99177 10.8383 4.75135 10.7672 4.4732 10.7672C4.19721 10.7672 3.95679 10.8383 3.75195 10.9806C3.54926 11.1208 3.39186 11.3202 3.27974 11.579C3.16977 11.8356 3.11479 12.1396 3.11479 12.491V12.4975C3.11479 12.8468 3.16869 13.1508 3.2765 13.4096C3.38647 13.6683 3.5428 13.8689 3.74548 14.0112C3.95032 14.1535 4.1929 14.2246 4.4732 14.2246Z" fill="white"/>
</g>
<defs>
<filter id="filter0_d_32344_22282" x="-0.0967284" y="8.28281" width="18.1935" height="9.4" filterUnits="userSpaceOnUse" color-interpolation-filters="sRGB">
<feFlood flood-opacity="0" result="BackgroundImageFix"/>
<feColorMatrix in="SourceAlpha" type="matrix" values="0 0 0 0 0 0 0 0 0 0 0 0 0 0 0 0 0 0 127 0" result="hardAlpha"/>
<feOffset dy="0.6"/>
<feGaussianBlur stdDeviation="0.6"/>
<feComposite in2="hardAlpha" operator="out"/>
<feColorMatrix type="matrix" values="0 0 0 0 0 0 0 0 0 0 0 0 0 0 0 0 0 0 0.12 0"/>
<feBlend mode="normal" in2="BackgroundImageFix" result="effect1_dropShadow_32344_22282"/>
<feBlend mode="normal" in="SourceGraphic" in2="effect1_dropShadow_32344_22282" result="shape"/>
</filter>
<linearGradient id="paint0_linear_32344_22282" x1="4" y1="1" x2="12.3172" y2="22.8794" gradientUnits="userSpaceOnUse">
<stop stop-color="#F7FAFF"/>
<stop offset="0.37" stop-color="#EDF1F9"/>
<stop offset="1" stop-color="#EDF1F9"/>
</linearGradient>
<linearGradient id="paint1_linear_32344_22282" x1="12" y1="1" x2="12" y2="22.6944" gradientUnits="userSpaceOnUse">
<stop stop-color="#E4E8F0"/>
<stop offset="1" stop-color="#E5E9F1"/>
</linearGradient>
<clipPath id="clip0_32344_22282">
<rect width="24" height="24" fill="white"/>
</clipPath>
</defs>
</svg>
