<svg width="24" height="24" viewBox="0 0 24 24" fill="none" xmlns="http://www.w3.org/2000/svg">
<g clip-path="url(#clip0_32344_22202)">
<path d="M6.59961 1.34961H14.5186L19.6504 6.64062V20.4004C19.6502 21.6427 18.6427 22.6502 17.4004 22.6504H6.59961C5.35728 22.6502 4.34982 21.6427 4.34961 20.4004V3.59961C4.34982 2.35728 5.35728 1.34982 6.59961 1.34961Z" fill="url(#paint0_linear_32344_22202)" stroke="url(#paint1_linear_32344_22202)" stroke-width="0.7" stroke-linejoin="round"/>
<path d="M16.6699 6.5C15.5654 6.5 14.6699 5.60457 14.6699 4.5L14.6699 1L19.9999 6.5H16.6699Z" fill="#DADEE5"/>
<g filter="url(#filter0_d_32344_22202)">
<path d="M1.10327 10.0495C1.10327 9.40515 1.60834 8.88281 2.23138 8.88281H15.7686C16.3917 8.88281 16.8967 9.40515 16.8967 10.0495V14.7161C16.8967 15.3605 16.3917 15.8828 15.7686 15.8828H2.23138C1.60834 15.8828 1.10327 15.3605 1.10327 14.7161V10.0495Z" fill="#0E85CD"/>
</g>
<path d="M13.3682 14.8295V10.8642H11.9322V10.1623H15.6387V10.8642H14.2027V14.8295H13.3682Z" fill="white"/>
<path d="M7.60591 14.8295V10.1623H9.35568C9.81927 10.1623 10.2139 10.2529 10.5394 10.434C10.8672 10.6151 11.1173 10.8782 11.2898 11.2232C11.4645 11.5682 11.5518 11.9843 11.5518 12.4716V12.4781C11.5518 12.9762 11.4655 13.401 11.293 13.7524C11.1205 14.1017 10.8704 14.3691 10.5427 14.5545C10.2171 14.7378 9.82142 14.8295 9.35568 14.8295H7.60591ZM8.44037 14.1276H9.24572C9.55405 14.1276 9.81711 14.064 10.0349 13.9368C10.2527 13.8096 10.4176 13.6241 10.5297 13.3805C10.644 13.1368 10.7012 12.8404 10.7012 12.491V12.4846C10.7012 12.1439 10.6429 11.8528 10.5265 11.6113C10.4122 11.3677 10.2462 11.1822 10.0284 11.055C9.81064 10.9278 9.54974 10.8642 9.24572 10.8642H8.44037V14.1276Z" fill="white"/>
<path d="M4.57013 14.9459C4.11301 14.9459 3.7195 14.8467 3.3896 14.6483C3.06185 14.4478 2.8085 14.1643 2.62953 13.7977C2.45057 13.4312 2.36108 12.9978 2.36108 12.4975V12.491C2.36108 11.9886 2.45057 11.5552 2.62953 11.1908C2.81065 10.8243 3.06617 10.5418 3.39607 10.3435C3.72812 10.1451 4.11948 10.0459 4.57013 10.0459C5.02293 10.0459 5.41429 10.1451 5.74419 10.3435C6.07409 10.5418 6.32852 10.8243 6.50749 11.1908C6.68645 11.5574 6.77594 11.9908 6.77594 12.491V12.4975C6.77594 12.9978 6.68645 13.4312 6.50749 13.7977C6.33068 14.1643 6.07732 14.4478 5.74742 14.6483C5.41752 14.8467 5.02509 14.9459 4.57013 14.9459ZM4.57013 14.2246C4.84828 14.2246 5.0887 14.1535 5.29138 14.0112C5.49407 13.8689 5.65039 13.6683 5.76036 13.4096C5.87248 13.1508 5.92854 12.8468 5.92854 12.4975V12.491C5.92854 12.1396 5.87248 11.8356 5.76036 11.579C5.65039 11.3202 5.49407 11.1208 5.29138 10.9806C5.0887 10.8383 4.84828 10.7672 4.57013 10.7672C4.29413 10.7672 4.05371 10.8383 3.84887 10.9806C3.64619 11.1208 3.48878 11.3202 3.37666 11.579C3.26669 11.8356 3.21171 12.1396 3.21171 12.491V12.4975C3.21171 12.8468 3.26562 13.1508 3.37343 13.4096C3.48339 13.6683 3.63972 13.8689 3.8424 14.0112C4.04724 14.1535 4.28982 14.2246 4.57013 14.2246Z" fill="white"/>
</g>
<defs>
<filter id="filter0_d_32344_22202" x="-0.0967284" y="8.28281" width="18.1935" height="9.4" filterUnits="userSpaceOnUse" color-interpolation-filters="sRGB">
<feFlood flood-opacity="0" result="BackgroundImageFix"/>
<feColorMatrix in="SourceAlpha" type="matrix" values="0 0 0 0 0 0 0 0 0 0 0 0 0 0 0 0 0 0 127 0" result="hardAlpha"/>
<feOffset dy="0.6"/>
<feGaussianBlur stdDeviation="0.6"/>
<feComposite in2="hardAlpha" operator="out"/>
<feColorMatrix type="matrix" values="0 0 0 0 0 0 0 0 0 0 0 0 0 0 0 0 0 0 0.12 0"/>
<feBlend mode="normal" in2="BackgroundImageFix" result="effect1_dropShadow_32344_22202"/>
<feBlend mode="normal" in="SourceGraphic" in2="effect1_dropShadow_32344_22202" result="shape"/>
</filter>
<linearGradient id="paint0_linear_32344_22202" x1="4" y1="1" x2="12.3172" y2="22.8794" gradientUnits="userSpaceOnUse">
<stop stop-color="#F7FAFF"/>
<stop offset="0.37" stop-color="#EDF1F9"/>
<stop offset="1" stop-color="#EDF1F9"/>
</linearGradient>
<linearGradient id="paint1_linear_32344_22202" x1="12" y1="1" x2="12" y2="22.6944" gradientUnits="userSpaceOnUse">
<stop stop-color="#E4E8F0"/>
<stop offset="1" stop-color="#E5E9F1"/>
</linearGradient>
<clipPath id="clip0_32344_22202">
<rect width="24" height="24" fill="white"/>
</clipPath>
</defs>
</svg>
