<svg width="24" height="24" viewBox="0 0 24 24" fill="none" xmlns="http://www.w3.org/2000/svg">
<g clip-path="url(#clip0_27375_21359)">
<path d="M6.59961 1.34961H14.5186L19.6504 6.64062V20.4004C19.6502 21.6427 18.6427 22.6502 17.4004 22.6504H6.59961C5.35728 22.6502 4.34982 21.6427 4.34961 20.4004V3.59961C4.34982 2.35728 5.35728 1.34982 6.59961 1.34961Z" fill="url(#paint0_linear_27375_21359)" stroke="url(#paint1_linear_27375_21359)" stroke-width="0.7" stroke-linejoin="round"/>
<path d="M16.6699 6.5C15.5654 6.5 14.6699 5.60457 14.6699 4.5L14.6699 1L19.9999 6.5H16.6699Z" fill="#DADEE5"/>
<g filter="url(#filter0_d_27375_21359)">
<path d="M0.665039 10.0485C0.665039 9.40417 1.17011 8.88184 1.79314 8.88184H15.3304C15.9534 8.88184 16.4585 9.40417 16.4585 10.0485V14.7152C16.4585 15.3595 15.9534 15.8818 15.3304 15.8818H1.79314C1.17011 15.8818 0.665039 15.3595 0.665039 14.7152V10.0485Z" fill="#FAA72C"/>
</g>
<path d="M2.62402 14.8643V10.1143H4.49805C4.85832 10.1143 5.16524 10.1831 5.41882 10.3207C5.6724 10.4567 5.86568 10.6462 5.99866 10.8889C6.13318 11.1301 6.20044 11.4084 6.20044 11.7239C6.20044 12.0393 6.13241 12.3176 5.99634 12.5588C5.86027 12.8 5.66313 12.9879 5.40491 13.1224C5.14823 13.257 4.83744 13.3242 4.47253 13.3242H3.27808V12.5194H4.31018C4.50346 12.5194 4.66272 12.4862 4.78796 12.4197C4.91475 12.3516 5.00907 12.2581 5.07092 12.139C5.13432 12.0184 5.16602 11.88 5.16602 11.7239C5.16602 11.5662 5.13432 11.4285 5.07092 11.311C5.00907 11.192 4.91475 11.1 4.78796 11.035C4.66117 10.9685 4.50037 10.9353 4.30554 10.9353H3.6283V14.8643H2.62402Z" fill="white"/>
<path d="M6.85275 14.8643V10.1143H8.72678C9.08705 10.1143 9.39397 10.1831 9.64755 10.3207C9.90113 10.4567 10.0944 10.6462 10.2274 10.8889C10.3619 11.1301 10.4292 11.4084 10.4292 11.7239C10.4292 12.0393 10.3611 12.3176 10.2251 12.5588C10.089 12.8 9.89186 12.9879 9.63364 13.1224C9.37696 13.257 9.06617 13.3242 8.70126 13.3242H7.50681V12.5194H8.53891C8.73219 12.5194 8.89145 12.4862 9.01669 12.4197C9.14348 12.3516 9.2378 12.2581 9.29965 12.139C9.36305 12.0184 9.39474 11.88 9.39474 11.7239C9.39474 11.5662 9.36305 11.4285 9.29965 11.311C9.2378 11.192 9.14348 11.1 9.01669 11.035C8.8899 10.9685 8.72909 10.9353 8.53427 10.9353H7.85703V14.8643H6.85275Z" fill="white"/>
<path d="M10.9006 10.9423V10.1143H14.8017V10.9423H13.3475V14.8643H12.3548V10.9423H10.9006Z" fill="white"/>
</g>
<defs>
<filter id="filter0_d_27375_21359" x="-0.534961" y="8.28184" width="18.1935" height="9.4" filterUnits="userSpaceOnUse" color-interpolation-filters="sRGB">
<feFlood flood-opacity="0" result="BackgroundImageFix"/>
<feColorMatrix in="SourceAlpha" type="matrix" values="0 0 0 0 0 0 0 0 0 0 0 0 0 0 0 0 0 0 127 0" result="hardAlpha"/>
<feOffset dy="0.6"/>
<feGaussianBlur stdDeviation="0.6"/>
<feComposite in2="hardAlpha" operator="out"/>
<feColorMatrix type="matrix" values="0 0 0 0 0 0 0 0 0 0 0 0 0 0 0 0 0 0 0.12 0"/>
<feBlend mode="normal" in2="BackgroundImageFix" result="effect1_dropShadow_27375_21359"/>
<feBlend mode="normal" in="SourceGraphic" in2="effect1_dropShadow_27375_21359" result="shape"/>
</filter>
<linearGradient id="paint0_linear_27375_21359" x1="4" y1="1" x2="12.3172" y2="22.8794" gradientUnits="userSpaceOnUse">
<stop stop-color="#F7FAFF"/>
<stop offset="0.37" stop-color="#EDF1F9"/>
<stop offset="1" stop-color="#EDF1F9"/>
</linearGradient>
<linearGradient id="paint1_linear_27375_21359" x1="12" y1="1" x2="12" y2="22.6944" gradientUnits="userSpaceOnUse">
<stop stop-color="#E4E8F0"/>
<stop offset="1" stop-color="#E5E9F1"/>
</linearGradient>
<clipPath id="clip0_27375_21359">
<rect width="24" height="24" fill="white"/>
</clipPath>
</defs>
</svg>
