<svg width="24" height="24" viewBox="0 0 24 24" fill="none" xmlns="http://www.w3.org/2000/svg">
<path d="M6.59961 1.34961H14.5186L19.6504 6.64062V20.4004C19.6502 21.6427 18.6427 22.6502 17.4004 22.6504H6.59961C5.35728 22.6502 4.34982 21.6427 4.34961 20.4004V3.59961C4.34982 2.35728 5.35728 1.34982 6.59961 1.34961Z" fill="url(#paint0_linear_33178_19661)" stroke="url(#paint1_linear_33178_19661)" stroke-width="0.7" stroke-linejoin="round"/>
<path d="M16.6699 6.5C15.5654 6.5 14.6699 5.60457 14.6699 4.5L14.6699 1L19.9999 6.5H16.6699Z" fill="#DADEE5"/>
<path d="M1.10327 10.152C1.10327 9.50769 1.60834 8.98535 2.23138 8.98535H15.7686C16.3917 8.98535 16.8967 9.50769 16.8967 10.152V14.8187C16.8967 15.463 16.3917 15.9854 15.7686 15.9854H2.23138C1.60834 15.9854 1.10327 15.463 1.10327 14.8187V10.152Z" fill="#3A6DCF"/>
<path d="M2.98389 14.9736V10.2097H4.86339C5.22472 10.2097 5.53254 10.2787 5.78686 10.4167C6.04118 10.5532 6.23503 10.7431 6.36839 10.9866C6.50331 11.2285 6.57077 11.5076 6.57077 11.824C6.57077 12.1403 6.50253 12.4195 6.36607 12.6614C6.2296 12.9033 6.03188 13.0917 5.77291 13.2266C5.51548 13.3616 5.20378 13.429 4.83781 13.429H3.63985V12.6219H4.67498C4.86882 12.6219 5.02855 12.5885 5.15416 12.5218C5.28132 12.4536 5.37591 12.3598 5.43794 12.2404C5.50152 12.1194 5.53332 11.9806 5.53332 11.824C5.53332 11.6658 5.50152 11.5278 5.43794 11.4099C5.37591 11.2905 5.28132 11.1983 5.15416 11.1331C5.027 11.0665 4.86572 11.0331 4.67032 11.0331H3.9911V14.9736H2.98389Z" fill="white"/>
<path d="M9.80931 11.5797C9.7907 11.3921 9.71083 11.2463 9.56972 11.1424C9.4286 11.0385 9.23708 10.9866 8.99516 10.9866C8.83078 10.9866 8.69199 11.0098 8.57879 11.0564C8.46558 11.1013 8.37874 11.1641 8.31826 11.2448C8.25933 11.3254 8.22987 11.4169 8.22987 11.5193C8.22677 11.6046 8.2446 11.679 8.28337 11.7426C8.32369 11.8062 8.37874 11.8612 8.44853 11.9077C8.51831 11.9527 8.59895 11.9922 8.69044 12.0264C8.78194 12.0589 8.87963 12.0868 8.98353 12.1101L9.41154 12.2125C9.61934 12.259 9.81008 12.321 9.98377 12.3985C10.1574 12.4761 10.3079 12.5715 10.435 12.6847C10.5622 12.7979 10.6607 12.9312 10.7305 13.0847C10.8018 13.2383 10.8382 13.4143 10.8398 13.6128C10.8382 13.9043 10.7638 14.1571 10.6165 14.3711C10.4707 14.5835 10.2598 14.7487 9.98377 14.8666C9.70928 14.9829 9.3782 15.041 8.99051 15.041C8.60593 15.041 8.27097 14.9821 7.98563 14.8642C7.70184 14.7464 7.48008 14.5719 7.32036 14.3409C7.16218 14.1082 7.07922 13.8206 7.07146 13.4779H8.04611C8.05696 13.6376 8.10271 13.771 8.18335 13.878C8.26554 13.9834 8.37487 14.0633 8.51133 14.1175C8.64935 14.1703 8.8052 14.1966 8.97888 14.1966C9.14946 14.1966 9.29756 14.1718 9.42317 14.1222C9.55033 14.0726 9.6488 14.0036 9.71859 13.9152C9.78837 13.8268 9.82326 13.7252 9.82326 13.6105C9.82326 13.5034 9.79147 13.4135 9.72789 13.3406C9.66586 13.2677 9.57437 13.2057 9.45341 13.1545C9.334 13.1034 9.18746 13.0568 9.01377 13.015L8.49505 12.8847C8.09341 12.787 7.77628 12.6343 7.54366 12.4265C7.31105 12.2187 7.19552 11.9387 7.19707 11.5867C7.19552 11.2983 7.27228 11.0463 7.42736 10.8307C7.58398 10.6152 7.79876 10.4469 8.07169 10.326C8.34463 10.205 8.65478 10.1445 9.00214 10.1445C9.35571 10.1445 9.66431 10.205 9.92794 10.326C10.1931 10.4469 10.3994 10.6152 10.5467 10.8307C10.694 11.0463 10.77 11.296 10.7746 11.5797H9.80931Z" fill="white"/>
<path d="M13.206 14.9736H11.5173V10.2097H13.22C13.6992 10.2097 14.1117 10.305 14.4575 10.4958C14.8033 10.685 15.0692 10.9571 15.2553 11.3122C15.443 11.6674 15.5368 12.0923 15.5368 12.587C15.5368 13.0832 15.443 13.5097 15.2553 13.8663C15.0692 14.223 14.8017 14.4967 14.4528 14.6874C14.1055 14.8782 13.6899 14.9736 13.206 14.9736ZM12.5245 14.1106H13.1642C13.4619 14.1106 13.7123 14.0578 13.9155 13.9524C14.1202 13.8454 14.2737 13.6802 14.3761 13.4569C14.48 13.2321 14.5319 12.9421 14.5319 12.587C14.5319 12.2349 14.48 11.9473 14.3761 11.724C14.2737 11.5007 14.121 11.3363 13.9178 11.2308C13.7147 11.1254 13.4642 11.0727 13.1665 11.0727H12.5245V14.1106Z" fill="white"/>
<defs>
<linearGradient id="paint0_linear_33178_19661" x1="4" y1="1" x2="12.3172" y2="22.8794" gradientUnits="userSpaceOnUse">
<stop stop-color="#F7FAFF"/>
<stop offset="0.37" stop-color="#EDF1F9"/>
<stop offset="1" stop-color="#EDF1F9"/>
</linearGradient>
<linearGradient id="paint1_linear_33178_19661" x1="12" y1="1" x2="12" y2="22.6944" gradientUnits="userSpaceOnUse">
<stop stop-color="#E4E8F0"/>
<stop offset="1" stop-color="#E5E9F1"/>
</linearGradient>
</defs>
</svg>
