<svg width="24" height="24" viewBox="0 0 24 24" fill="none" xmlns="http://www.w3.org/2000/svg">
<g clip-path="url(#clip0_27375_21328)">
<path d="M6.59961 1.34961H14.5186L19.6504 6.64062V20.4004C19.6502 21.6427 18.6427 22.6502 17.4004 22.6504H6.59961C5.35728 22.6502 4.34982 21.6427 4.34961 20.4004V3.59961C4.34982 2.35728 5.35728 1.34982 6.59961 1.34961Z" fill="url(#paint0_linear_27375_21328)" stroke="url(#paint1_linear_27375_21328)" stroke-width="0.7" stroke-linejoin="round"/>
<path d="M16.6699 6.5C15.5654 6.5 14.6699 5.60457 14.6699 4.5L14.6699 1L19.9999 6.5H16.6699Z" fill="#DADEE5"/>
<g filter="url(#filter0_d_27375_21328)">
<path d="M0.665039 10.0485C0.665039 9.40417 1.17011 8.88184 1.79314 8.88184H15.3304C15.9534 8.88184 16.4585 9.40417 16.4585 10.0485V14.7152C16.4585 15.3595 15.9534 15.8818 15.3304 15.8818H1.79314C1.17011 15.8818 0.665039 15.3595 0.665039 14.7152V10.0485Z" fill="#DA6FEB"/>
</g>
<path d="M2.10303 14.8604V10.1104H3.97705C4.33577 10.1104 4.64193 10.1745 4.89551 10.3029C5.15064 10.4296 5.34469 10.6098 5.47766 10.8433C5.61218 11.0752 5.67944 11.3481 5.67944 11.662C5.67944 11.9774 5.61141 12.2488 5.47534 12.4761C5.33927 12.7018 5.14213 12.875 4.88391 12.9956C4.62724 13.1162 4.31645 13.1765 3.95154 13.1765H2.69678V12.3694H3.78918C3.98092 12.3694 4.14018 12.3431 4.26697 12.2905C4.39376 12.238 4.48808 12.1591 4.54993 12.054C4.61332 11.9488 4.64502 11.8182 4.64502 11.662C4.64502 11.5043 4.61332 11.3713 4.54993 11.2631C4.48808 11.1548 4.39299 11.0729 4.26465 11.0172C4.13786 10.96 3.97782 10.9314 3.78455 10.9314H3.1073V14.8604H2.10303ZM4.66821 12.6987L5.84875 14.8604H4.74011L3.58508 12.6987H4.66821Z" fill="white"/>
<path d="M7.20789 14.8604H6.13171L7.77148 10.1104H9.06567L10.7031 14.8604H9.62695L8.43713 11.1958H8.40002L7.20789 14.8604ZM7.14062 12.9933H9.68262V13.7772H7.14062V12.9933Z" fill="white"/>
<path d="M11.2748 14.8604V10.1104H13.1489C13.5076 10.1104 13.8137 10.1745 14.0673 10.3029C14.3224 10.4296 14.5165 10.6098 14.6495 10.8433C14.784 11.0752 14.8513 11.3481 14.8513 11.662C14.8513 11.9774 14.7832 12.2488 14.6472 12.4761C14.5111 12.7018 14.3139 12.875 14.0557 12.9956C13.7991 13.1162 13.4883 13.1765 13.1234 13.1765H11.8686V12.3694H12.961C13.1527 12.3694 13.312 12.3431 13.4388 12.2905C13.5656 12.238 13.6599 12.1591 13.7217 12.054C13.7851 11.9488 13.8168 11.8182 13.8168 11.662C13.8168 11.5043 13.7851 11.3713 13.7217 11.2631C13.6599 11.1548 13.5648 11.0729 13.4365 11.0172C13.3097 10.96 13.1496 10.9314 12.9564 10.9314H12.2791V14.8604H11.2748ZM13.84 12.6987L15.0206 14.8604H13.9119L12.7569 12.6987H13.84Z" fill="white"/>
</g>
<defs>
<filter id="filter0_d_27375_21328" x="-0.534961" y="8.28184" width="18.1935" height="9.4" filterUnits="userSpaceOnUse" color-interpolation-filters="sRGB">
<feFlood flood-opacity="0" result="BackgroundImageFix"/>
<feColorMatrix in="SourceAlpha" type="matrix" values="0 0 0 0 0 0 0 0 0 0 0 0 0 0 0 0 0 0 127 0" result="hardAlpha"/>
<feOffset dy="0.6"/>
<feGaussianBlur stdDeviation="0.6"/>
<feComposite in2="hardAlpha" operator="out"/>
<feColorMatrix type="matrix" values="0 0 0 0 0 0 0 0 0 0 0 0 0 0 0 0 0 0 0.12 0"/>
<feBlend mode="normal" in2="BackgroundImageFix" result="effect1_dropShadow_27375_21328"/>
<feBlend mode="normal" in="SourceGraphic" in2="effect1_dropShadow_27375_21328" result="shape"/>
</filter>
<linearGradient id="paint0_linear_27375_21328" x1="4" y1="1" x2="12.3172" y2="22.8794" gradientUnits="userSpaceOnUse">
<stop stop-color="#F7FAFF"/>
<stop offset="0.37" stop-color="#EDF1F9"/>
<stop offset="1" stop-color="#EDF1F9"/>
</linearGradient>
<linearGradient id="paint1_linear_27375_21328" x1="12" y1="1" x2="12" y2="22.6944" gradientUnits="userSpaceOnUse">
<stop stop-color="#E4E8F0"/>
<stop offset="1" stop-color="#E5E9F1"/>
</linearGradient>
<clipPath id="clip0_27375_21328">
<rect width="24" height="24" fill="white"/>
</clipPath>
</defs>
</svg>
