<svg width="24" height="24" viewBox="0 0 24 24" fill="none" xmlns="http://www.w3.org/2000/svg">
<path d="M6.59961 1.34961H14.5186L19.6504 6.64062V20.4004C19.6502 21.6427 18.6427 22.6502 17.4004 22.6504H6.59961C5.35728 22.6502 4.34982 21.6427 4.34961 20.4004V3.59961C4.34982 2.35728 5.35728 1.34982 6.59961 1.34961Z" fill="url(#paint0_linear_27375_21355)" stroke="url(#paint1_linear_27375_21355)" stroke-width="0.7" stroke-linejoin="round"/>
<path d="M16.6699 6.5C15.5654 6.5 14.6699 5.60457 14.6699 4.5L14.6699 1L19.9999 6.5H16.6699Z" fill="#DADEE5"/>
<path fill-rule="evenodd" clip-rule="evenodd" d="M11.4864 8.19265C11.8376 8.1563 12.1828 8.15771 12.5182 8.19351C12.8731 8.23138 13.1411 8.48999 13.2338 8.80454L13.32 9.09691C13.3396 9.16367 13.397 9.22961 13.4886 9.26619C13.5216 9.27938 13.5545 9.293 13.5871 9.30703C13.6777 9.34605 13.7649 9.34001 13.8261 9.30669L14.0934 9.16109C14.3814 9.00424 14.7536 9.01088 15.0313 9.23474C15.3012 9.45231 15.5472 9.69829 15.7648 9.96817C15.9887 10.2459 15.9954 10.6181 15.8385 10.9061L15.693 11.1733C15.6596 11.2345 15.6536 11.3218 15.6926 11.4124C15.7067 11.445 15.7203 11.4779 15.7335 11.511C15.7701 11.6026 15.8361 11.66 15.9028 11.6797L16.1954 11.7659C16.5099 11.8586 16.7685 12.1265 16.8064 12.4814C16.8422 12.8167 16.8437 13.1618 16.8074 13.5129C16.7706 13.869 16.512 14.14 16.1949 14.2335L15.9132 14.3165C15.8458 14.3363 15.7791 14.3947 15.7428 14.4881C15.7284 14.525 15.7135 14.5617 15.698 14.5981C15.6595 14.6889 15.6657 14.7758 15.6988 14.8366L15.8478 15.11C16.0043 15.3974 15.9982 15.7691 15.7747 16.0468C15.5591 16.3147 15.3151 16.5587 15.0472 16.7743C14.7695 16.9978 14.3978 17.0039 14.1104 16.8474L13.8372 16.6986C13.7764 16.6654 13.6894 16.6592 13.5987 16.6978C13.5622 16.7133 13.5254 16.7282 13.4884 16.7427C13.395 16.779 13.3366 16.8457 13.3168 16.9131L13.2338 17.1946C13.1403 17.5117 12.8694 17.7703 12.5132 17.8071C12.1622 17.8434 11.8171 17.842 11.4819 17.8062C11.127 17.7683 10.859 17.5097 10.7663 17.1952L10.6802 16.903C10.6605 16.8362 10.6032 16.7703 10.5115 16.7337C10.4782 16.7204 10.4451 16.7067 10.4123 16.6925C10.3217 16.6535 10.2344 16.6595 10.1732 16.6928L9.90632 16.8382C9.61832 16.9951 9.24607 16.9884 8.96836 16.7645C8.69853 16.5469 8.45257 16.3009 8.23503 16.0311C8.01117 15.7534 8.00452 15.3812 8.16138 15.0932L8.3068 14.8262C8.34012 14.765 8.34616 14.6778 8.30714 14.5872C8.29302 14.5544 8.27932 14.5214 8.26605 14.4881C8.22948 14.3965 8.16353 14.3391 8.09677 14.3194L7.80477 14.2334C7.49021 14.1406 7.2316 13.8727 7.19373 13.5178C7.15795 13.1824 7.15655 12.8373 7.19289 12.4861C7.22975 12.13 7.48836 11.8591 7.80542 11.7657L8.10058 11.6787C8.16586 11.6594 8.23247 11.6031 8.27266 11.5104C8.28423 11.4838 8.29615 11.4572 8.30839 11.4307C8.35181 11.3368 8.34656 11.246 8.3123 11.1831L8.18734 10.9537C8.0266 10.6586 8.03937 10.279 8.27086 10.0009C8.49086 9.7366 8.73701 9.49046 9.0013 9.27047C9.27939 9.039 9.65898 9.02624 9.95406 9.18697L10.1836 9.31201C10.2465 9.34627 10.3374 9.35153 10.4312 9.30813C10.4576 9.29593 10.4841 9.28405 10.5107 9.27252C10.6034 9.23233 10.6597 9.16571 10.679 9.10042L10.766 8.80518C10.8594 8.48812 11.1303 8.2295 11.4864 8.19265ZM12.4478 8.85347C12.1584 8.82259 11.8598 8.82126 11.5548 8.85283C11.4932 8.8592 11.4279 8.90706 11.4026 8.99282L11.3156 9.28806C11.2318 9.5725 11.0166 9.77655 10.7748 9.88143C10.7531 9.89084 10.7314 9.90056 10.7097 9.91057C10.4551 10.0283 10.1405 10.0443 9.86614 9.89486L9.63658 9.76982C9.55733 9.72665 9.47543 9.73937 9.42591 9.78059C9.19266 9.97474 8.97513 10.1923 8.78097 10.4255C8.73974 10.475 8.72702 10.5569 8.77019 10.6362L8.89515 10.8656C9.04459 11.1399 9.02859 11.4546 8.9108 11.7093C8.90074 11.731 8.89099 11.7528 8.88155 11.7746C8.77666 12.0164 8.57262 12.2315 8.28822 12.3153L7.99307 12.4023C7.9073 12.4276 7.85945 12.4928 7.85307 12.5544C7.82151 12.8594 7.82283 13.1581 7.8537 13.4474C7.86008 13.5072 7.90696 13.5715 7.99242 13.5967L8.28441 13.6828C8.57348 13.768 8.78155 13.9892 8.88248 14.2421C8.89355 14.2698 8.90497 14.2974 8.91675 14.3247C9.02453 14.5751 9.03391 14.8789 8.88965 15.1437L8.74423 15.4107C8.70163 15.4889 8.71393 15.5676 8.75175 15.6145C8.93959 15.8475 9.15199 16.06 9.38498 16.2478C9.43189 16.2857 9.51063 16.298 9.58884 16.2554L9.85575 16.11C10.1206 15.9657 10.4244 15.9751 10.6748 16.0829C10.7022 16.0947 10.7298 16.1062 10.7576 16.1173C11.0105 16.2182 11.2316 16.4263 11.3168 16.7153L11.403 17.0075C11.4281 17.093 11.4925 17.1399 11.5523 17.1462C11.8415 17.1771 12.1401 17.1785 12.445 17.147C12.5066 17.1406 12.5719 17.0927 12.5972 17.007L12.6801 16.7255C12.7663 16.4331 12.9913 16.224 13.2474 16.1242C13.2782 16.1122 13.3088 16.0998 13.3391 16.0869C13.5886 15.9809 13.8909 15.972 14.1547 16.1157L14.4279 16.2645C14.5061 16.3071 14.5845 16.2948 14.631 16.2573C14.8618 16.0716 15.072 15.8614 15.2577 15.6306C15.2951 15.5841 15.3075 15.5057 15.2649 15.4275L15.116 15.1541C14.9723 14.8904 14.9812 14.5881 15.0871 14.3387C15.1 14.3084 15.1124 14.2779 15.1243 14.2472C15.2241 13.9911 15.4332 13.766 15.7256 13.6798L16.0072 13.5968C16.093 13.5715 16.1408 13.5062 16.1472 13.4446C16.1787 13.1397 16.1774 12.8411 16.1465 12.5519C16.1401 12.4921 16.0932 12.4277 16.0077 12.4025L15.7152 12.3163C15.4262 12.2311 15.2181 12.01 15.1172 11.7571C15.1061 11.7295 15.0948 11.7021 15.083 11.6749C14.9752 11.4245 14.9658 11.1207 15.1101 10.8559L15.2557 10.5886C15.2983 10.5104 15.286 10.4317 15.2481 10.3848C15.0602 10.1518 14.8478 9.93933 14.6147 9.75147C14.5678 9.71365 14.4891 9.70135 14.4109 9.74394L14.1436 9.88954C13.8788 10.0338 13.575 10.0244 13.3246 9.91665C13.2974 9.90495 13.2701 9.89359 13.2425 9.88259C12.9897 9.78164 12.7685 9.57358 12.6833 9.28456L12.5971 8.99219C12.572 8.90673 12.5076 8.85985 12.4478 8.85347ZM11.5199 10.8528C13.101 10.5162 14.4796 11.8944 14.1432 13.4758C13.9657 14.3101 13.3103 14.9655 12.476 15.1429C10.8947 15.4792 9.5166 14.1008 9.85297 12.5198C10.0196 11.7365 10.7366 11.0195 11.5199 10.8528ZM13.494 13.3377C13.7304 12.2264 12.7691 11.2655 11.6581 11.5019C11.1282 11.6147 10.6149 12.128 10.5021 12.6579C10.2658 13.7689 11.2267 14.7301 12.3379 14.4938C12.9158 14.3708 13.371 13.9157 13.494 13.3377Z" fill="#1F86FF"/>
<defs>
<linearGradient id="paint0_linear_27375_21355" x1="4" y1="1" x2="12.3172" y2="22.8794" gradientUnits="userSpaceOnUse">
<stop stop-color="#F7FAFF"/>
<stop offset="0.37" stop-color="#EDF1F9"/>
<stop offset="1" stop-color="#EDF1F9"/>
</linearGradient>
<linearGradient id="paint1_linear_27375_21355" x1="12" y1="1" x2="12" y2="22.6944" gradientUnits="userSpaceOnUse">
<stop stop-color="#E4E8F0"/>
<stop offset="1" stop-color="#E5E9F1"/>
</linearGradient>
</defs>
</svg>
