<svg width="24" height="24" viewBox="0 0 24 24" fill="none" xmlns="http://www.w3.org/2000/svg">
<path d="M6.59961 1.34961H14.5186L19.6504 6.64062V20.4004C19.6502 21.6427 18.6427 22.6502 17.4004 22.6504H6.59961C5.35728 22.6502 4.34982 21.6427 4.34961 20.4004V3.59961C4.34982 2.35728 5.35728 1.34982 6.59961 1.34961Z" fill="url(#paint0_linear_27375_21351)" stroke="url(#paint1_linear_27375_21351)" stroke-width="0.7" stroke-linejoin="round"/>
<path d="M16.6699 6.5C15.5654 6.5 14.6699 5.60457 14.6699 4.5L14.6699 1L19.9999 6.5H16.6699Z" fill="#DADEE5"/>
<path fill-rule="evenodd" clip-rule="evenodd" d="M15.7628 10.6083L14.4794 11.5067V10.6667C14.4794 10.025 13.9544 9.5 13.3128 9.5H8.47111C7.82944 9.50583 7.30444 10.0308 7.30444 10.6725V15.3217C7.30444 15.9633 7.82944 16.4883 8.47111 16.4883H13.3128C13.9544 16.4883 14.4794 15.9633 14.4794 15.3217V14.4758L15.7569 15.38C16.4161 15.8467 17.3203 15.38 17.3203 14.5692V11.4192C17.3203 10.6142 16.4161 10.1475 15.7569 10.6083H15.7628ZM13.7794 15.3217C13.7794 15.5783 13.5694 15.7883 13.3128 15.7883H8.47111C8.21444 15.7883 8.00444 15.5783 8.00444 15.3217V10.6725C8.00444 10.4158 8.21444 10.2058 8.47111 10.2058H13.3128C13.5694 10.2058 13.7794 10.4158 13.7794 10.6725V15.3217ZM16.6261 14.5692C16.6261 14.8083 16.3578 14.9425 16.1653 14.8083L14.4853 13.6242V12.3642L16.1653 11.1858C16.3578 11.0517 16.6261 11.1858 16.6261 11.425V14.575V14.5692Z" fill="#1F86FF"/>
<defs>
<linearGradient id="paint0_linear_27375_21351" x1="4" y1="1" x2="12.3172" y2="22.8794" gradientUnits="userSpaceOnUse">
<stop stop-color="#F7FAFF"/>
<stop offset="0.37" stop-color="#EDF1F9"/>
<stop offset="1" stop-color="#EDF1F9"/>
</linearGradient>
<linearGradient id="paint1_linear_27375_21351" x1="12" y1="1" x2="12" y2="22.6944" gradientUnits="userSpaceOnUse">
<stop stop-color="#E4E8F0"/>
<stop offset="1" stop-color="#E5E9F1"/>
</linearGradient>
</defs>
</svg>
