<svg width="24" height="24" viewBox="0 0 24 24" fill="none" xmlns="http://www.w3.org/2000/svg">
<g clip-path="url(#clip0_27375_21323)">
<path d="M6.59961 1.34961H14.5186L19.6504 6.64062V20.4004C19.6502 21.6427 18.6427 22.6502 17.4004 22.6504H6.59961C5.35728 22.6502 4.34982 21.6427 4.34961 20.4004V3.59961C4.34982 2.35728 5.35728 1.34982 6.59961 1.34961Z" fill="url(#paint0_linear_27375_21323)" stroke="url(#paint1_linear_27375_21323)" stroke-width="0.7" stroke-linejoin="round"/>
<path d="M16.6699 6.5C15.5654 6.5 14.6699 5.60457 14.6699 4.5L14.6699 1L19.9999 6.5H16.6699Z" fill="#DADEE5"/>
<g filter="url(#filter0_d_27375_21323)">
<path d="M1.10327 10.152C1.10327 9.50769 1.60834 8.98535 2.23138 8.98535H15.7686C16.3917 8.98535 16.8967 9.50769 16.8967 10.152V14.8187C16.8967 15.463 16.3917 15.9854 15.7686 15.9854H2.23138C1.60834 15.9854 1.10327 15.463 1.10327 14.8187V10.152Z" fill="#5CC94A"/>
</g>
<path d="M4.04686 10.2058L5.00823 11.8306H5.04548L6.01151 10.2058H7.1498L5.69493 12.5895L7.18239 14.9731H6.02315L5.04548 13.346H5.00823L4.03056 14.9731H2.87598L4.36809 12.5895L2.90391 10.2058H4.04686Z" fill="white"/>
<path d="M7.78761 14.9731V10.2058H8.79555V14.1421H10.8393V14.9731H7.78761Z" fill="white"/>
<path d="M14.093 11.5769C14.0744 11.3891 13.9945 11.2432 13.8533 11.1392C13.712 11.0353 13.5204 10.9833 13.2783 10.9833C13.1138 10.9833 12.9749 11.0066 12.8616 11.0531C12.7483 11.0981 12.6614 11.161 12.6009 11.2417C12.5419 11.3224 12.5124 11.4139 12.5124 11.5163C12.5093 11.6017 12.5272 11.6762 12.566 11.7398C12.6063 11.8034 12.6614 11.8585 12.7313 11.9051C12.8011 11.9501 12.8818 11.9897 12.9734 12.0238C13.0649 12.0564 13.1627 12.0843 13.2667 12.1076L13.695 12.21C13.9029 12.2566 14.0938 12.3187 14.2676 12.3963C14.4414 12.4738 14.5919 12.5693 14.7192 12.6826C14.8464 12.7959 14.945 12.9293 15.0148 13.083C15.0862 13.2366 15.1227 13.4127 15.1242 13.6114C15.1227 13.9031 15.0482 14.1561 14.9008 14.3702C14.7549 14.5828 14.5438 14.7481 14.2676 14.866C13.9929 14.9824 13.6616 15.0406 13.2736 15.0406C12.8888 15.0406 12.5536 14.9817 12.268 14.8637C11.984 14.7458 11.7621 14.5712 11.6023 14.34C11.444 14.1072 11.361 13.8193 11.3532 13.4763H12.3286C12.3394 13.6362 12.3852 13.7697 12.4659 13.8767C12.5481 13.9823 12.6575 14.0622 12.7941 14.1165C12.9322 14.1693 13.0882 14.1956 13.262 14.1956C13.4327 14.1956 13.5809 14.1708 13.7066 14.1211C13.8339 14.0715 13.9324 14.0024 14.0022 13.914C14.0721 13.8255 14.107 13.7239 14.107 13.609C14.107 13.502 14.0752 13.4119 14.0115 13.339C13.9495 13.2661 13.8579 13.204 13.7369 13.1528C13.6174 13.1016 13.4707 13.055 13.2969 13.0131L12.7778 12.8828C12.3759 12.785 12.0585 12.6321 11.8258 12.4242C11.593 12.2162 11.4774 11.9361 11.4789 11.5839C11.4774 11.2952 11.5542 11.043 11.7094 10.8273C11.8661 10.6116 12.081 10.4432 12.3542 10.3222C12.6273 10.2011 12.9377 10.1406 13.2853 10.1406C13.6391 10.1406 13.9479 10.2011 14.2117 10.3222C14.4771 10.4432 14.6835 10.6116 14.8309 10.8273C14.9784 11.043 15.0544 11.2929 15.0591 11.5769H14.093Z" fill="white"/>
</g>
<defs>
<filter id="filter0_d_27375_21323" x="-0.0967284" y="8.38535" width="18.1935" height="9.4" filterUnits="userSpaceOnUse" color-interpolation-filters="sRGB">
<feFlood flood-opacity="0" result="BackgroundImageFix"/>
<feColorMatrix in="SourceAlpha" type="matrix" values="0 0 0 0 0 0 0 0 0 0 0 0 0 0 0 0 0 0 127 0" result="hardAlpha"/>
<feOffset dy="0.6"/>
<feGaussianBlur stdDeviation="0.6"/>
<feComposite in2="hardAlpha" operator="out"/>
<feColorMatrix type="matrix" values="0 0 0 0 0 0 0 0 0 0 0 0 0 0 0 0 0 0 0.12 0"/>
<feBlend mode="normal" in2="BackgroundImageFix" result="effect1_dropShadow_27375_21323"/>
<feBlend mode="normal" in="SourceGraphic" in2="effect1_dropShadow_27375_21323" result="shape"/>
</filter>
<linearGradient id="paint0_linear_27375_21323" x1="4" y1="1" x2="12.3172" y2="22.8794" gradientUnits="userSpaceOnUse">
<stop stop-color="#F7FAFF"/>
<stop offset="0.37" stop-color="#EDF1F9"/>
<stop offset="1" stop-color="#EDF1F9"/>
</linearGradient>
<linearGradient id="paint1_linear_27375_21323" x1="12" y1="1" x2="12" y2="22.6944" gradientUnits="userSpaceOnUse">
<stop stop-color="#E4E8F0"/>
<stop offset="1" stop-color="#E5E9F1"/>
</linearGradient>
<clipPath id="clip0_27375_21323">
<rect width="24" height="24" fill="white"/>
</clipPath>
</defs>
</svg>
