<svg width="24" height="24" viewBox="0 0 24 24" fill="none" xmlns="http://www.w3.org/2000/svg">
<g clip-path="url(#clip0_27375_21341)">
<path d="M6.59961 1.34961H14.5186L19.6504 6.64062V20.4004C19.6502 21.6427 18.6427 22.6502 17.4004 22.6504H6.59961C5.35728 22.6502 4.34982 21.6427 4.34961 20.4004V3.59961C4.34982 2.35728 5.35728 1.34982 6.59961 1.34961Z" fill="url(#paint0_linear_27375_21341)" stroke="url(#paint1_linear_27375_21341)" stroke-width="0.7" stroke-linejoin="round"/>
<path d="M16.6699 6.5C15.5654 6.5 14.6699 5.60457 14.6699 4.5L14.6699 1L19.9999 6.5H16.6699Z" fill="#DADEE5"/>
<g filter="url(#filter0_d_27375_21341)">
<path d="M0.0402832 10.0514C0.0402832 9.4071 0.525043 8.88477 1.12303 8.88477H17.3642C17.9621 8.88477 18.4469 9.4071 18.4469 10.0514V14.7181C18.4469 15.3624 17.9621 15.8848 17.3642 15.8848H1.12303C0.525043 15.8848 0.0402832 15.3624 0.0402832 14.7181V10.0514Z" fill="#5CC94A"/>
</g>
<path d="M2.37994 10.3875L3.27983 11.8663H3.3147L4.21895 10.3875H5.28445L3.92262 12.5571L5.31495 14.7267H4.22985L3.3147 13.2457H3.27983L2.36468 14.7267H1.28394L2.68063 12.5571L1.31008 10.3875H2.37994Z" fill="white"/>
<path d="M5.88148 14.7267V10.3875H6.82495V13.9703H8.73805V14.7267H5.88148Z" fill="white"/>
<path d="M11.7836 11.6354C11.7662 11.4645 11.6914 11.3317 11.5592 11.2371C11.427 11.1424 11.2476 11.0951 11.021 11.0951C10.867 11.0951 10.737 11.1163 10.631 11.1587C10.525 11.1996 10.4436 11.2569 10.387 11.3303C10.3318 11.4038 10.3042 11.4871 10.3042 11.5803C10.3013 11.658 10.318 11.7258 10.3543 11.7837C10.392 11.8416 10.4436 11.8918 10.509 11.9341C10.5743 11.9751 10.6499 12.0111 10.7356 12.0422C10.8213 12.0719 10.9128 12.0973 11.0101 12.1185L11.4111 12.2117C11.6057 12.2541 11.7844 12.3106 11.9471 12.3812C12.1098 12.4518 12.2507 12.5387 12.3698 12.6418C12.4889 12.7449 12.5811 12.8664 12.6465 13.0062C12.7133 13.1461 12.7475 13.3064 12.7489 13.4872C12.7475 13.7528 12.6777 13.983 12.5397 14.1779C12.4032 14.3714 12.2056 14.5219 11.9471 14.6292C11.69 14.7352 11.3798 14.7881 11.0167 14.7881C10.6564 14.7881 10.3427 14.7344 10.0754 14.6271C9.80954 14.5197 9.60182 14.3608 9.4522 14.1504C9.30403 13.9385 9.22631 13.6765 9.21905 13.3643H10.132C10.1422 13.5098 10.185 13.6313 10.2606 13.7287C10.3376 13.8248 10.44 13.8975 10.5678 13.947C10.6971 13.995 10.8431 14.019 11.0058 14.019C11.1656 14.019 11.3043 13.9964 11.4219 13.9512C11.5411 13.906 11.6333 13.8432 11.6987 13.7626C11.764 13.6821 11.7967 13.5896 11.7967 13.4851C11.7967 13.3876 11.7669 13.3057 11.7074 13.2393C11.6493 13.1729 11.5636 13.1164 11.4503 13.0698C11.3384 13.0232 11.2011 12.9808 11.0385 12.9427L10.5526 12.824C10.1763 12.735 9.87926 12.5959 9.66137 12.4066C9.44348 12.2174 9.33526 11.9624 9.33671 11.6418C9.33526 11.379 9.40716 11.1495 9.55243 10.9532C9.69914 10.7568 9.90033 10.6036 10.156 10.4934C10.4116 10.3832 10.7022 10.3281 11.0276 10.3281C11.3588 10.3281 11.6478 10.3832 11.8948 10.4934C12.1432 10.6036 12.3364 10.7568 12.4744 10.9532C12.6124 11.1495 12.6835 11.3769 12.6879 11.6354H11.7836Z" fill="white"/>
<path d="M14.2682 10.3875L15.1681 11.8663H15.2029L16.1072 10.3875H17.1727L15.8109 12.5571L17.2032 14.7267H16.1181L15.2029 13.2457H15.1681L14.2529 14.7267H13.1722L14.5689 12.5571L13.1983 10.3875H14.2682Z" fill="white"/>
</g>
<defs>
<filter id="filter0_d_27375_21341" x="-1.31353" y="8.20786" width="21.1141" height="9.70762" filterUnits="userSpaceOnUse" color-interpolation-filters="sRGB">
<feFlood flood-opacity="0" result="BackgroundImageFix"/>
<feColorMatrix in="SourceAlpha" type="matrix" values="0 0 0 0 0 0 0 0 0 0 0 0 0 0 0 0 0 0 127 0" result="hardAlpha"/>
<feOffset dy="0.676904"/>
<feGaussianBlur stdDeviation="0.676904"/>
<feComposite in2="hardAlpha" operator="out"/>
<feColorMatrix type="matrix" values="0 0 0 0 0 0 0 0 0 0 0 0 0 0 0 0 0 0 0.12 0"/>
<feBlend mode="normal" in2="BackgroundImageFix" result="effect1_dropShadow_27375_21341"/>
<feBlend mode="normal" in="SourceGraphic" in2="effect1_dropShadow_27375_21341" result="shape"/>
</filter>
<linearGradient id="paint0_linear_27375_21341" x1="4" y1="1" x2="12.3172" y2="22.8794" gradientUnits="userSpaceOnUse">
<stop stop-color="#F7FAFF"/>
<stop offset="0.37" stop-color="#EDF1F9"/>
<stop offset="1" stop-color="#EDF1F9"/>
</linearGradient>
<linearGradient id="paint1_linear_27375_21341" x1="12" y1="1" x2="12" y2="22.6944" gradientUnits="userSpaceOnUse">
<stop stop-color="#E4E8F0"/>
<stop offset="1" stop-color="#E5E9F1"/>
</linearGradient>
<clipPath id="clip0_27375_21341">
<rect width="24" height="24" fill="white"/>
</clipPath>
</defs>
</svg>
