<svg width="24" height="24" viewBox="0 0 24 24" fill="none" xmlns="http://www.w3.org/2000/svg">
<path d="M1 5C1 3.89543 1.89543 3 3 3H8.39445C8.7893 3 9.17531 3.11688 9.50385 3.3359L11.4962 4.6641C11.8247 4.88312 12.2107 5 12.6056 5H21C22.1046 5 23 5.89543 23 7V8H1V5Z" fill="url(#paint0_linear_33402_1309)"/>
<path d="M1 9H23L23 19.4C23 20.8359 21.8359 22 20.4 22H3.60004C2.1641 22 1.00004 20.8359 1.00004 19.4L1 9Z" fill="url(#paint1_linear_33402_1309)"/>
<path fill-rule="evenodd" clip-rule="evenodd" d="M14.0166 16.8976C14.753 16.4672 15.6681 16.3327 16.5 16.3327C17.3319 16.3327 18.247 16.4672 18.9834 16.8976C19.7398 17.3397 20.2837 18.0818 20.3629 19.2215C20.3872 19.5724 20.1009 19.8406 19.777 19.8406H13.223C12.8991 19.8406 12.6128 19.5724 12.6372 19.2215C12.7164 18.0818 13.2603 17.3397 14.0166 16.8976ZM13.2918 19.1906H19.7083C19.627 18.3153 19.2141 17.7854 18.6554 17.4588C18.0608 17.1112 17.2782 16.9827 16.5 16.9827C15.7219 16.9827 14.9393 17.1112 14.3447 17.4588C13.7859 17.7854 13.3731 18.3153 13.2918 19.1906Z" fill="white"/>
<path fill-rule="evenodd" clip-rule="evenodd" d="M16.0844 11.8942C15.9274 11.9463 15.8104 12.0088 15.7549 12.0496C15.2643 12.4108 15.0326 13.1805 15.1988 13.9373C15.3597 14.6703 15.8275 15.1419 16.4957 15.1419C16.9176 15.1419 17.2302 14.9609 17.4573 14.6696C17.6962 14.3632 17.8421 13.9261 17.8531 13.4639C17.8642 13.0011 17.7391 12.5767 17.5157 12.2841C17.3075 12.0115 16.9898 11.817 16.4957 11.817C16.3874 11.817 16.2393 11.8429 16.0844 11.8942ZM15.3696 11.5262C13.8566 12.6399 14.3587 15.7919 16.4957 15.7919C19.0613 15.7919 19.2828 11.167 16.4957 11.167C16.1037 11.167 15.6208 11.3412 15.3696 11.5262Z" fill="white"/>
<defs>
<linearGradient id="paint0_linear_33402_1309" x1="12" y1="2.50925" x2="12" y2="11.5525" gradientUnits="userSpaceOnUse">
<stop stop-color="#58BCF4"/>
<stop offset="1" stop-color="#3F81EC"/>
</linearGradient>
<linearGradient id="paint1_linear_33402_1309" x1="12" y1="7.72405" x2="12" y2="31.2366" gradientUnits="userSpaceOnUse">
<stop stop-color="#58BCF4"/>
<stop offset="1" stop-color="#3F81EC"/>
</linearGradient>
</defs>
</svg>
