<svg width="24" height="24" viewBox="0 0 24 24" fill="none" xmlns="http://www.w3.org/2000/svg">
<path d="M6.59961 1.34961H14.5186L19.6504 6.64062V20.4004C19.6502 21.6427 18.6427 22.6502 17.4004 22.6504H6.59961C5.35728 22.6502 4.34982 21.6427 4.34961 20.4004V3.59961C4.34982 2.35728 5.35728 1.34982 6.59961 1.34961Z" fill="url(#paint0_linear_27375_21333)" stroke="url(#paint1_linear_27375_21333)" stroke-width="0.7" stroke-linejoin="round"/>
<path d="M16.6699 6.5C15.5654 6.5 14.6699 5.60457 14.6699 4.5L14.6699 1L19.9999 6.5H16.6699Z" fill="#DADEE5"/>
<path fill-rule="evenodd" clip-rule="evenodd" d="M9.46639 11.6358C9.46639 10.9902 9.98971 10.4669 10.6353 10.4669C11.2808 10.4669 11.8041 10.9902 11.8041 11.6358C11.8041 12.2813 11.2808 12.8046 10.6353 12.8046C9.98971 12.8046 9.46639 12.2813 9.46639 11.6358ZM10.6353 11.1669C10.3763 11.1669 10.1664 11.3768 10.1664 11.6358C10.1664 11.8947 10.3763 12.1046 10.6353 12.1046C10.8942 12.1046 11.1041 11.8947 11.1041 11.6358C11.1041 11.3768 10.8942 11.1669 10.6353 11.1669Z" fill="#1F86FF"/>
<path fill-rule="evenodd" clip-rule="evenodd" d="M7.82861 10.6374C7.82861 9.63872 8.63823 8.8291 9.63695 8.8291H14.3631C15.3619 8.8291 16.1715 9.63872 16.1715 10.6374V15.3636C16.1715 16.3623 15.3619 17.172 14.3631 17.172H9.63695C8.63823 17.172 7.82861 16.3623 7.82861 15.3636V10.6374ZM9.63695 9.5291C9.02483 9.5291 8.52861 10.0253 8.52861 10.6374V15.3636C8.52861 15.8047 8.78625 16.1856 9.15923 16.364C9.17126 16.3447 9.18537 16.3262 9.20157 16.309L12.4536 12.8475C12.9144 12.3571 13.6845 12.3301 14.1784 12.7871L15.4715 13.9836V10.6374C15.4715 10.0253 14.9753 9.5291 14.3631 9.5291H9.63695ZM15.4715 14.9373L13.703 13.3009C13.4913 13.1051 13.1613 13.1166 12.9638 13.3268L10.0089 16.472H14.3631C14.9753 16.472 15.4715 15.9757 15.4715 15.3636V14.9373Z" fill="#1F86FF"/>
<defs>
<linearGradient id="paint0_linear_27375_21333" x1="4" y1="1" x2="12.3172" y2="22.8794" gradientUnits="userSpaceOnUse">
<stop stop-color="#F7FAFF"/>
<stop offset="0.37" stop-color="#EDF1F9"/>
<stop offset="1" stop-color="#EDF1F9"/>
</linearGradient>
<linearGradient id="paint1_linear_27375_21333" x1="12" y1="1" x2="12" y2="22.6944" gradientUnits="userSpaceOnUse">
<stop stop-color="#E4E8F0"/>
<stop offset="1" stop-color="#E5E9F1"/>
</linearGradient>
</defs>
</svg>
