<svg width="24" height="24" viewBox="0 0 24 24" fill="none" xmlns="http://www.w3.org/2000/svg">
<g clip-path="url(#clip0_32344_22250)">
<path d="M6.59961 1.34961H14.5186L19.6504 6.64062V20.4004C19.6502 21.6427 18.6427 22.6502 17.4004 22.6504H6.59961C5.35728 22.6502 4.34982 21.6427 4.34961 20.4004V3.59961C4.34982 2.35728 5.35728 1.34982 6.59961 1.34961Z" fill="url(#paint0_linear_32344_22250)" stroke="url(#paint1_linear_32344_22250)" stroke-width="0.7" stroke-linejoin="round"/>
<path d="M16.6699 6.5C15.5654 6.5 14.6699 5.60457 14.6699 4.5L14.6699 1L19.9999 6.5H16.6699Z" fill="#DADEE5"/>
<g filter="url(#filter0_d_32344_22250)">
<path d="M1.10327 10.0495C1.10327 9.40515 1.60834 8.88281 2.23138 8.88281H15.7686C16.3917 8.88281 16.8967 9.40515 16.8967 10.0495V14.7161C16.8967 15.3605 16.3917 15.8828 15.7686 15.8828H2.23138C1.60834 15.8828 1.10327 15.3605 1.10327 14.7161V10.0495Z" fill="#0E85CD"/>
</g>
<path d="M13.9101 14.9459C13.5479 14.9459 13.2331 14.8898 12.9657 14.7777C12.7005 14.6656 12.4913 14.5093 12.3382 14.3087C12.1851 14.1082 12.0989 13.8743 12.0795 13.6069L12.0763 13.5616H12.8848L12.8881 13.594C12.901 13.7255 12.9528 13.8398 13.0433 13.9368C13.136 14.0338 13.2589 14.1104 13.412 14.1664C13.5651 14.2203 13.7398 14.2473 13.936 14.2473C14.1236 14.2473 14.2896 14.2182 14.4341 14.16C14.5785 14.1017 14.6917 14.022 14.7737 13.9206C14.8556 13.8171 14.8966 13.6985 14.8966 13.5648V13.5616C14.8966 13.3934 14.8308 13.2565 14.6993 13.1508C14.5678 13.043 14.3511 12.9568 14.0492 12.8921L13.5479 12.7886C13.0692 12.6873 12.721 12.5255 12.5032 12.3035C12.2876 12.0792 12.1798 11.7935 12.1798 11.4464V11.4431C12.1798 11.165 12.2531 10.9213 12.3997 10.7122C12.5485 10.503 12.7522 10.3402 13.011 10.2238C13.2719 10.1052 13.5705 10.0459 13.9069 10.0459C14.2519 10.0459 14.5505 10.1041 14.8028 10.2206C15.0551 10.3348 15.2534 10.4912 15.3979 10.6895C15.5424 10.8879 15.6232 11.1121 15.6405 11.3623L15.6437 11.4043H14.8481L14.8416 11.3655C14.8222 11.2426 14.7715 11.1359 14.6896 11.0453C14.6098 10.9526 14.5031 10.8793 14.3694 10.8254C14.2357 10.7715 14.0794 10.7445 13.9004 10.7445C13.7301 10.7445 13.5781 10.7715 13.4444 10.8254C13.3107 10.8771 13.205 10.9504 13.1274 11.0453C13.0519 11.1402 13.0142 11.2545 13.0142 11.3881V11.3914C13.0142 11.5552 13.0778 11.6911 13.205 11.7989C13.3344 11.9067 13.5446 11.9908 13.8357 12.0512L14.337 12.1579C14.8287 12.2614 15.1834 12.4177 15.4011 12.6269C15.6211 12.8339 15.731 13.1142 15.731 13.4678V13.471C15.731 13.7729 15.6567 14.0338 15.5079 14.2538C15.3613 14.4737 15.151 14.644 14.8772 14.7648C14.6055 14.8855 14.2831 14.9459 13.9101 14.9459Z" fill="white"/>
<path d="M7.51387 14.8295V10.1623H9.26364C9.72723 10.1623 10.1218 10.2529 10.4474 10.434C10.7751 10.6151 11.0253 10.8782 11.1978 11.2232C11.3724 11.5682 11.4597 11.9843 11.4597 12.4716V12.4781C11.4597 12.9762 11.3735 13.401 11.201 13.7524C11.0285 14.1017 10.7784 14.3691 10.4506 14.5545C10.125 14.7378 9.72938 14.8295 9.26364 14.8295H7.51387ZM8.34833 14.1276H9.15367C9.46201 14.1276 9.72507 14.064 9.94285 13.9368C10.1606 13.8096 10.3256 13.6241 10.4377 13.3805C10.552 13.1368 10.6091 12.8404 10.6091 12.491V12.4846C10.6091 12.1439 10.5509 11.8528 10.4345 11.6113C10.3202 11.3677 10.1542 11.1822 9.93638 11.055C9.7186 10.9278 9.4577 10.8642 9.15367 10.8642H8.34833V14.1276Z" fill="white"/>
<path d="M4.47809 14.9459C4.02097 14.9459 3.62746 14.8467 3.29756 14.6483C2.96981 14.4478 2.71646 14.1643 2.53749 13.7977C2.35853 13.4312 2.26904 12.9978 2.26904 12.4975V12.491C2.26904 11.9886 2.35853 11.5552 2.53749 11.1908C2.71861 10.8243 2.97413 10.5418 3.30403 10.3435C3.63608 10.1451 4.02744 10.0459 4.47809 10.0459C4.93089 10.0459 5.32224 10.1451 5.65215 10.3435C5.98205 10.5418 6.23648 10.8243 6.41545 11.1908C6.59441 11.5574 6.68389 11.9908 6.68389 12.491V12.4975C6.68389 12.9978 6.59441 13.4312 6.41545 13.7977C6.23864 14.1643 5.98528 14.4478 5.65538 14.6483C5.32548 14.8467 4.93305 14.9459 4.47809 14.9459ZM4.47809 14.2246C4.75624 14.2246 4.99666 14.1535 5.19934 14.0112C5.40202 13.8689 5.55835 13.6683 5.66832 13.4096C5.78044 13.1508 5.8365 12.8468 5.8365 12.4975V12.491C5.8365 12.1396 5.78044 11.8356 5.66832 11.579C5.55835 11.3202 5.40202 11.1208 5.19934 10.9806C4.99666 10.8383 4.75624 10.7672 4.47809 10.7672C4.20209 10.7672 3.96167 10.8383 3.75683 10.9806C3.55415 11.1208 3.39674 11.3202 3.28462 11.579C3.17465 11.8356 3.11967 12.1396 3.11967 12.491V12.4975C3.11967 12.8468 3.17358 13.1508 3.28139 13.4096C3.39135 13.6683 3.54768 13.8689 3.75036 14.0112C3.9552 14.1535 4.19778 14.2246 4.47809 14.2246Z" fill="white"/>
</g>
<defs>
<filter id="filter0_d_32344_22250" x="-0.0967284" y="8.28281" width="18.1935" height="9.4" filterUnits="userSpaceOnUse" color-interpolation-filters="sRGB">
<feFlood flood-opacity="0" result="BackgroundImageFix"/>
<feColorMatrix in="SourceAlpha" type="matrix" values="0 0 0 0 0 0 0 0 0 0 0 0 0 0 0 0 0 0 127 0" result="hardAlpha"/>
<feOffset dy="0.6"/>
<feGaussianBlur stdDeviation="0.6"/>
<feComposite in2="hardAlpha" operator="out"/>
<feColorMatrix type="matrix" values="0 0 0 0 0 0 0 0 0 0 0 0 0 0 0 0 0 0 0.12 0"/>
<feBlend mode="normal" in2="BackgroundImageFix" result="effect1_dropShadow_32344_22250"/>
<feBlend mode="normal" in="SourceGraphic" in2="effect1_dropShadow_32344_22250" result="shape"/>
</filter>
<linearGradient id="paint0_linear_32344_22250" x1="4" y1="1" x2="12.3172" y2="22.8794" gradientUnits="userSpaceOnUse">
<stop stop-color="#F7FAFF"/>
<stop offset="0.37" stop-color="#EDF1F9"/>
<stop offset="1" stop-color="#EDF1F9"/>
</linearGradient>
<linearGradient id="paint1_linear_32344_22250" x1="12" y1="1" x2="12" y2="22.6944" gradientUnits="userSpaceOnUse">
<stop stop-color="#E4E8F0"/>
<stop offset="1" stop-color="#E5E9F1"/>
</linearGradient>
<clipPath id="clip0_32344_22250">
<rect width="24" height="24" fill="white"/>
</clipPath>
</defs>
</svg>
