<svg width="24" height="24" viewBox="0 0 24 24" fill="none" xmlns="http://www.w3.org/2000/svg">
<g clip-path="url(#clip0_27375_21309)">
<path d="M6.59961 1.34961H14.5186L19.6504 6.64062V20.4004C19.6502 21.6427 18.6427 22.6502 17.4004 22.6504H6.59961C5.35728 22.6502 4.34982 21.6427 4.34961 20.4004V3.59961C4.34982 2.35728 5.35728 1.34982 6.59961 1.34961Z" fill="url(#paint0_linear_27375_21309)" stroke="url(#paint1_linear_27375_21309)" stroke-width="0.7" stroke-linejoin="round"/>
<path d="M16.6699 6.5C15.5654 6.5 14.6699 5.60457 14.6699 4.5L14.6699 1L19.9999 6.5H16.6699Z" fill="#DADEE5"/>
<g filter="url(#filter0_d_27375_21309)">
<path d="M1.10327 10.152C1.10327 9.50769 1.60834 8.98535 2.23138 8.98535H15.7686C16.3917 8.98535 16.8967 9.50769 16.8967 10.152V14.8187C16.8967 15.463 16.3917 15.9854 15.7686 15.9854H2.23138C1.60834 15.9854 1.10327 15.463 1.10327 14.8187V10.152Z" fill="#FF5D53"/>
</g>
<path d="M2.93726 14.9678V10.2178H4.81128C5.17155 10.2178 5.47847 10.2866 5.73206 10.4242C5.98564 10.5603 6.17891 10.7497 6.31189 10.9924C6.44641 11.2336 6.51367 11.512 6.51367 11.8274C6.51367 12.1428 6.44564 12.4211 6.30957 12.6624C6.1735 12.9036 5.97636 13.0914 5.71814 13.226C5.46147 13.3605 5.15068 13.4277 4.78577 13.4277H3.59131V12.6229H4.62341C4.81669 12.6229 4.97595 12.5897 5.1012 12.5232C5.22799 12.4552 5.32231 12.3616 5.38416 12.2426C5.44755 12.1219 5.47925 11.9836 5.47925 11.8274C5.47925 11.6697 5.44755 11.5321 5.38416 11.4146C5.32231 11.2955 5.22799 11.2035 5.1012 11.1385C4.97441 11.0721 4.8136 11.0388 4.61877 11.0388H3.94153V14.9678H2.93726Z" fill="white"/>
<path d="M8.84982 14.9678H7.16599V10.2178H8.86374C9.34152 10.2178 9.75282 10.3129 10.0976 10.5031C10.4424 10.6917 10.7076 10.9631 10.8932 11.3171C11.0803 11.6712 11.1738 12.0949 11.1738 12.5881C11.1738 13.0829 11.0803 13.5081 10.8932 13.8638C10.7076 14.2194 10.4409 14.4923 10.093 14.6825C9.74663 14.8727 9.33224 14.9678 8.84982 14.9678ZM8.17026 14.1073H8.80807C9.10495 14.1073 9.35466 14.0547 9.55722 13.9496C9.76132 13.8429 9.9144 13.6782 10.0164 13.4556C10.12 13.2314 10.1718 12.9422 10.1718 12.5881C10.1718 12.2371 10.12 11.9503 10.0164 11.7277C9.9144 11.505 9.7621 11.3411 9.55954 11.236C9.35698 11.1308 9.10727 11.0782 8.81039 11.0782H8.17026V14.1073Z" fill="white"/>
<path d="M11.9177 14.9678V10.2178H15.0627V11.0458H12.922V12.1776H14.854V13.0056H12.922V14.9678H11.9177Z" fill="white"/>
</g>
<defs>
<filter id="filter0_d_27375_21309" x="-0.0967284" y="8.38535" width="18.1935" height="9.4" filterUnits="userSpaceOnUse" color-interpolation-filters="sRGB">
<feFlood flood-opacity="0" result="BackgroundImageFix"/>
<feColorMatrix in="SourceAlpha" type="matrix" values="0 0 0 0 0 0 0 0 0 0 0 0 0 0 0 0 0 0 127 0" result="hardAlpha"/>
<feOffset dy="0.6"/>
<feGaussianBlur stdDeviation="0.6"/>
<feComposite in2="hardAlpha" operator="out"/>
<feColorMatrix type="matrix" values="0 0 0 0 0 0 0 0 0 0 0 0 0 0 0 0 0 0 0.12 0"/>
<feBlend mode="normal" in2="BackgroundImageFix" result="effect1_dropShadow_27375_21309"/>
<feBlend mode="normal" in="SourceGraphic" in2="effect1_dropShadow_27375_21309" result="shape"/>
</filter>
<linearGradient id="paint0_linear_27375_21309" x1="4" y1="1" x2="12.3172" y2="22.8794" gradientUnits="userSpaceOnUse">
<stop stop-color="#F7FAFF"/>
<stop offset="0.37" stop-color="#EDF1F9"/>
<stop offset="1" stop-color="#EDF1F9"/>
</linearGradient>
<linearGradient id="paint1_linear_27375_21309" x1="12" y1="1" x2="12" y2="22.6944" gradientUnits="userSpaceOnUse">
<stop stop-color="#E4E8F0"/>
<stop offset="1" stop-color="#E5E9F1"/>
</linearGradient>
<clipPath id="clip0_27375_21309">
<rect width="24" height="24" fill="white"/>
</clipPath>
</defs>
</svg>
