<svg width="24" height="24" viewBox="0 0 24 24" fill="none" xmlns="http://www.w3.org/2000/svg">
<path d="M6.59961 1.34961H14.5186L19.6504 6.64062V20.4004C19.6502 21.6427 18.6427 22.6502 17.4004 22.6504H6.59961C5.35728 22.6502 4.34982 21.6427 4.34961 20.4004V3.59961C4.34982 2.35728 5.35728 1.34982 6.59961 1.34961Z" fill="url(#paint0_linear_27375_21381)" stroke="url(#paint1_linear_27375_21381)" stroke-width="0.7" stroke-linejoin="round"/>
<path d="M16.6699 6.5C15.5654 6.5 14.6699 5.60457 14.6699 4.5L14.6699 1L19.9999 6.5H16.6699Z" fill="#DADEE5"/>
<path fill-rule="evenodd" clip-rule="evenodd" d="M9.91752 13.2822C9.91752 12.133 10.8509 11.1997 12 11.1997C13.1492 11.1997 14.0825 12.133 14.0825 13.2822C14.0825 14.4314 13.1492 15.3647 12 15.3647C10.8509 15.3647 9.91752 14.4314 9.91752 13.2822ZM10.6175 13.2822C10.6175 14.0464 11.2359 14.6647 12 14.6647C12.7642 14.6647 13.3825 14.0464 13.3825 13.2822C13.3825 12.518 12.7642 11.8997 12 11.8997C11.2359 11.8997 10.6175 12.518 10.6175 13.2822Z" fill="#1F86FF"/>
<path fill-rule="evenodd" clip-rule="evenodd" d="M14.4033 10.0386H15.4999C16.1416 10.0386 16.6666 10.5636 16.6666 11.2053V15.6386C16.6666 16.2803 16.1416 16.8053 15.4999 16.8053H8.49992C7.85825 16.8053 7.33325 16.2803 7.33325 15.6386V11.2053C7.33325 10.5636 7.85825 10.0386 8.49992 10.0386H9.56158L10.1566 9.15198C10.3724 8.82531 10.7341 8.63281 11.1249 8.63281H12.8166C13.2016 8.63281 13.5633 8.81948 13.7791 9.13448L14.4033 10.0386ZM15.4999 16.0995C15.7566 16.0995 15.9666 15.8895 15.9666 15.6328V11.1995C15.9666 10.9428 15.7566 10.7328 15.4999 10.7328H14.4033C14.1699 10.7328 13.9541 10.6161 13.8258 10.4295L13.2016 9.52531C13.1141 9.40281 12.9683 9.32698 12.8166 9.32698H11.1249C10.9733 9.32698 10.8274 9.40865 10.7399 9.53698L10.1449 10.4236C10.0108 10.6161 9.79492 10.7328 9.56158 10.7328H8.49992C8.24325 10.7328 8.03325 10.9428 8.03325 11.1995V15.6328C8.03325 15.8895 8.24325 16.0995 8.49992 16.0995H15.4999Z" fill="#1F86FF"/>
<defs>
<linearGradient id="paint0_linear_27375_21381" x1="4" y1="1" x2="12.3172" y2="22.8794" gradientUnits="userSpaceOnUse">
<stop stop-color="#F7FAFF"/>
<stop offset="0.37" stop-color="#EDF1F9"/>
<stop offset="1" stop-color="#EDF1F9"/>
</linearGradient>
<linearGradient id="paint1_linear_27375_21381" x1="12" y1="1" x2="12" y2="22.6944" gradientUnits="userSpaceOnUse">
<stop stop-color="#E4E8F0"/>
<stop offset="1" stop-color="#E5E9F1"/>
</linearGradient>
</defs>
</svg>
