<svg width="24" height="24" viewBox="0 0 24 24" fill="none" xmlns="http://www.w3.org/2000/svg">
<g clip-path="url(#clip0_27375_21304)">
<path d="M6.59961 1.34961H14.5186L19.6504 6.64062V20.4004C19.6502 21.6427 18.6427 22.6502 17.4004 22.6504H6.59961C5.35728 22.6502 4.34982 21.6427 4.34961 20.4004V3.59961C4.34982 2.35728 5.35728 1.34982 6.59961 1.34961Z" fill="url(#paint0_linear_27375_21304)" stroke="url(#paint1_linear_27375_21304)" stroke-width="0.7" stroke-linejoin="round"/>
<path d="M16.6699 6.5C15.5654 6.5 14.6699 5.60457 14.6699 4.5L14.6699 1L19.9999 6.5H16.6699Z" fill="#DADEE5"/>
<g filter="url(#filter0_d_27375_21304)">
<path d="M1.10327 10.0495C1.10327 9.40515 1.60834 8.88281 2.23138 8.88281H15.7686C16.3917 8.88281 16.8967 9.40515 16.8967 10.0495V14.7161C16.8967 15.3605 16.3917 15.8828 15.7686 15.8828H2.23138C1.60834 15.8828 1.10327 15.3605 1.10327 14.7161V10.0495Z" fill="#7D7D7D"/>
</g>
<path d="M2.66089 14.8604V10.1104H4.53491C4.89518 10.1104 5.20211 10.1792 5.45569 10.3168C5.70927 10.4528 5.90255 10.6423 6.03552 10.885C6.17004 11.1262 6.2373 11.4045 6.2373 11.72C6.2373 12.0354 6.16927 12.3137 6.0332 12.5549C5.89714 12.7961 5.69999 12.984 5.44177 13.1185C5.1851 13.2531 4.87431 13.3203 4.5094 13.3203H3.31494V12.5155H4.34705C4.54032 12.5155 4.69958 12.4823 4.82483 12.4158C4.95162 12.3477 5.04594 12.2542 5.10779 12.1351C5.17118 12.0145 5.20288 11.8761 5.20288 11.72C5.20288 11.5623 5.17118 11.4246 5.10779 11.3071C5.04594 11.1881 4.95162 11.0961 4.82483 11.0311C4.69804 10.9646 4.53723 10.9314 4.34241 10.9314H3.66516V14.8604H2.66089Z" fill="white"/>
<path d="M6.88962 14.8604V10.1104H7.89389V12.0702H9.93259V10.1104H10.9345V14.8604H9.93259V12.8982H7.89389V14.8604H6.88962Z" fill="white"/>
<path d="M11.7625 14.8604V10.1104H13.6366C13.9968 10.1104 14.3038 10.1792 14.5573 10.3168C14.8109 10.4528 15.0042 10.6423 15.1372 10.885C15.2717 11.1262 15.339 11.4045 15.339 11.72C15.339 12.0354 15.2709 12.3137 15.1349 12.5549C14.9988 12.7961 14.8016 12.984 14.5434 13.1185C14.2868 13.2531 13.976 13.3203 13.6111 13.3203H12.4166V12.5155H13.4487C13.642 12.5155 13.8012 12.4823 13.9265 12.4158C14.0533 12.3477 14.1476 12.2542 14.2094 12.1351C14.2728 12.0145 14.3045 11.8761 14.3045 11.72C14.3045 11.5623 14.2728 11.4246 14.2094 11.3071C14.1476 11.1881 14.0533 11.0961 13.9265 11.0311C13.7997 10.9646 13.6389 10.9314 13.4441 10.9314H12.7668V14.8604H11.7625Z" fill="white"/>
</g>
<defs>
<filter id="filter0_d_27375_21304" x="-0.0967284" y="8.28281" width="18.1935" height="9.4" filterUnits="userSpaceOnUse" color-interpolation-filters="sRGB">
<feFlood flood-opacity="0" result="BackgroundImageFix"/>
<feColorMatrix in="SourceAlpha" type="matrix" values="0 0 0 0 0 0 0 0 0 0 0 0 0 0 0 0 0 0 127 0" result="hardAlpha"/>
<feOffset dy="0.6"/>
<feGaussianBlur stdDeviation="0.6"/>
<feComposite in2="hardAlpha" operator="out"/>
<feColorMatrix type="matrix" values="0 0 0 0 0 0 0 0 0 0 0 0 0 0 0 0 0 0 0.12 0"/>
<feBlend mode="normal" in2="BackgroundImageFix" result="effect1_dropShadow_27375_21304"/>
<feBlend mode="normal" in="SourceGraphic" in2="effect1_dropShadow_27375_21304" result="shape"/>
</filter>
<linearGradient id="paint0_linear_27375_21304" x1="4" y1="1" x2="12.3172" y2="22.8794" gradientUnits="userSpaceOnUse">
<stop stop-color="#F7FAFF"/>
<stop offset="0.37" stop-color="#EDF1F9"/>
<stop offset="1" stop-color="#EDF1F9"/>
</linearGradient>
<linearGradient id="paint1_linear_27375_21304" x1="12" y1="1" x2="12" y2="22.6944" gradientUnits="userSpaceOnUse">
<stop stop-color="#E4E8F0"/>
<stop offset="1" stop-color="#E5E9F1"/>
</linearGradient>
<clipPath id="clip0_27375_21304">
<rect width="24" height="24" fill="white"/>
</clipPath>
</defs>
</svg>
