<svg width="24" height="24" viewBox="0 0 24 24" fill="none" xmlns="http://www.w3.org/2000/svg">
<g clip-path="url(#clip0_33178_19646)">
<path d="M6.59961 1.34961H14.5186L19.6504 6.64062V20.4004C19.6502 21.6427 18.6427 22.6502 17.4004 22.6504H6.59961C5.35728 22.6502 4.34982 21.6427 4.34961 20.4004V3.59961C4.34982 2.35728 5.35728 1.34982 6.59961 1.34961Z" fill="url(#paint0_linear_33178_19646)" stroke="url(#paint1_linear_33178_19646)" stroke-width="0.7" stroke-linejoin="round"/>
<path d="M16.6699 6.5C15.5654 6.5 14.6699 5.60457 14.6699 4.5L14.6699 1L19.9999 6.5H16.6699Z" fill="#DADEE5"/>
<g filter="url(#filter0_d_33178_19646)">
<path d="M0.0402832 10.0514C0.0402832 9.4071 0.549557 8.88477 1.17778 8.88477H18.2402C18.8684 8.88477 19.3777 9.4071 19.3777 10.0514V14.7181C19.3777 15.3624 18.8684 15.8848 18.2402 15.8848H1.17778C0.549557 15.8848 0.0402832 15.3624 0.0402832 14.7181V10.0514Z" fill="#FAA72C"/>
</g>
<path d="M1.58862 14.7874V10.3281H3.34794C3.68616 10.3281 3.9743 10.3927 4.21235 10.5219C4.45041 10.6497 4.63186 10.8275 4.7567 11.0554C4.88298 11.2818 4.94613 11.5431 4.94613 11.8392C4.94613 12.1353 4.88226 12.3966 4.75452 12.6231C4.62678 12.8495 4.4417 13.0259 4.19929 13.1522C3.95833 13.2785 3.66656 13.3416 3.32399 13.3416H2.20264V12.5861H3.17157C3.35302 12.5861 3.50253 12.5548 3.62011 12.4924C3.73914 12.4286 3.82769 12.3407 3.88575 12.229C3.94526 12.1157 3.97502 11.9858 3.97502 11.8392C3.97502 11.6912 3.94526 11.562 3.88575 11.4516C3.82769 11.3399 3.73914 11.2535 3.62011 11.1925C3.50108 11.1301 3.35012 11.0989 3.16722 11.0989H2.53142V14.7874H1.58862Z" fill="white"/>
<path d="M5.55851 14.7874V10.3281H7.31783C7.65605 10.3281 7.94419 10.3927 8.18224 10.5219C8.4203 10.6497 8.60175 10.8275 8.72659 11.0554C8.85288 11.2818 8.91602 11.5431 8.91602 11.8392C8.91602 12.1353 8.85215 12.3966 8.72441 12.6231C8.59667 12.8495 8.41159 13.0259 8.16918 13.1522C7.92822 13.2785 7.63645 13.3416 7.29388 13.3416H6.17253V12.5861H7.14146C7.32291 12.5861 7.47242 12.5548 7.59 12.4924C7.70903 12.4286 7.79758 12.3407 7.85564 12.229C7.91515 12.1157 7.94491 11.9858 7.94491 11.8392C7.94491 11.6912 7.91515 11.562 7.85564 11.4516C7.79758 11.3399 7.70903 11.2535 7.59 11.1925C7.47097 11.1301 7.32001 11.0989 7.13711 11.0989H6.50132V14.7874H5.55851Z" fill="white"/>
<path d="M9.35857 11.1054V10.3281H13.0209V11.1054H11.6557V14.7874H10.7238V11.1054H9.35857Z" fill="white"/>
<path d="M14.508 10.3281L15.4073 11.8479H15.4421L16.3458 10.3281H17.4105L16.0496 12.5578L17.441 14.7874H16.3566L15.4421 13.2654H15.4073L14.4928 14.7874H13.4128L14.8085 12.5578L13.439 10.3281H14.508Z" fill="white"/>
</g>
<defs>
<filter id="filter0_d_33178_19646" x="-1.31353" y="8.20786" width="22.045" height="9.70762" filterUnits="userSpaceOnUse" color-interpolation-filters="sRGB">
<feFlood flood-opacity="0" result="BackgroundImageFix"/>
<feColorMatrix in="SourceAlpha" type="matrix" values="0 0 0 0 0 0 0 0 0 0 0 0 0 0 0 0 0 0 127 0" result="hardAlpha"/>
<feOffset dy="0.676904"/>
<feGaussianBlur stdDeviation="0.676904"/>
<feComposite in2="hardAlpha" operator="out"/>
<feColorMatrix type="matrix" values="0 0 0 0 0 0 0 0 0 0 0 0 0 0 0 0 0 0 0.12 0"/>
<feBlend mode="normal" in2="BackgroundImageFix" result="effect1_dropShadow_33178_19646"/>
<feBlend mode="normal" in="SourceGraphic" in2="effect1_dropShadow_33178_19646" result="shape"/>
</filter>
<linearGradient id="paint0_linear_33178_19646" x1="4" y1="1" x2="12.3172" y2="22.8794" gradientUnits="userSpaceOnUse">
<stop stop-color="#F7FAFF"/>
<stop offset="0.37" stop-color="#EDF1F9"/>
<stop offset="1" stop-color="#EDF1F9"/>
</linearGradient>
<linearGradient id="paint1_linear_33178_19646" x1="12" y1="1" x2="12" y2="22.6944" gradientUnits="userSpaceOnUse">
<stop stop-color="#E4E8F0"/>
<stop offset="1" stop-color="#E5E9F1"/>
</linearGradient>
<clipPath id="clip0_33178_19646">
<rect width="24" height="24" fill="white"/>
</clipPath>
</defs>
</svg>
