<svg width="24" height="24" viewBox="0 0 24 24" fill="none" xmlns="http://www.w3.org/2000/svg">
<path d="M6.59961 1.34961H14.5186L19.6504 6.64062V20.4004C19.6502 21.6427 18.6427 22.6502 17.4004 22.6504H6.59961C5.35728 22.6502 4.34982 21.6427 4.34961 20.4004V3.59961C4.34982 2.35728 5.35728 1.34982 6.59961 1.34961Z" fill="url(#paint0_linear_27375_21337)" stroke="url(#paint1_linear_27375_21337)" stroke-width="0.7" stroke-linejoin="round"/>
<path d="M16.6699 6.5C15.5654 6.5 14.6699 5.60457 14.6699 4.5L14.6699 1L19.9999 6.5H16.6699Z" fill="#DADEE5"/>
<path fill-rule="evenodd" clip-rule="evenodd" d="M14.5602 8.7651C14.2186 8.42341 13.6646 8.42335 13.3229 8.76495L8.17589 13.9099C8.13196 13.9538 8.10051 14.0086 8.08476 14.0687L7.52598 16.201C7.42406 16.59 7.7793 16.9445 8.16803 16.8417L10.3073 16.2761C10.367 16.2603 10.4215 16.2289 10.4653 16.1852L15.6045 11.047C15.9463 10.7053 15.9463 10.1513 15.6046 9.80956L14.5602 8.7651ZM13.8178 9.26002C13.8861 9.1917 13.9969 9.19171 14.0653 9.26005L15.1096 10.3045C15.178 10.3729 15.178 10.4837 15.1096 10.552L14.3874 11.274L13.0954 9.98209L13.8178 9.26002ZM12.6003 10.477L13.8924 11.769L10.1929 15.4677L8.90045 14.1754L12.6003 10.477ZM8.59981 14.8647L8.27918 16.0883L9.50051 15.7653L8.59981 14.8647Z" fill="#1F86FF"/>
<path d="M16.3014 14.8377C16.1563 14.71 15.9351 14.7242 15.8074 14.8693C15.6798 15.0145 15.6939 15.2356 15.8391 15.3633C16.0516 15.5502 16.1854 15.7771 16.2356 15.9845C16.2856 16.1908 16.2502 16.3559 16.1626 16.4688C16.0756 16.581 15.8888 16.7036 15.5089 16.7233C15.1263 16.7432 14.5774 16.655 13.8301 16.3718C13.1594 16.1177 12.6768 15.9728 12.331 15.9157C12.1581 15.8871 12.0016 15.8773 11.8639 15.8954C11.7239 15.9139 11.5808 15.9646 11.4691 16.0768C11.3561 16.1902 11.3144 16.327 11.3014 16.4398C11.289 16.5477 11.3004 16.6539 11.3126 16.7364C11.3201 16.7867 11.3314 16.848 11.3411 16.9009C11.3461 16.9283 11.3508 16.9534 11.3542 16.9735C11.3566 16.9874 11.3588 17.0006 11.3607 17.0132C11.21 16.9989 10.9758 16.9359 10.669 16.8161C10.4889 16.7458 10.2859 16.8348 10.2156 17.0148C10.1453 17.1949 10.2343 17.3978 10.4143 17.4682C10.7659 17.6055 11.1071 17.7061 11.3784 17.7155C11.5112 17.7202 11.6789 17.7054 11.8236 17.6131C11.9951 17.5036 12.0731 17.3261 12.0731 17.1421C12.0731 17.0386 12.0583 16.9375 12.0441 16.855C12.0372 16.8147 12.0311 16.7818 12.0255 16.752C12.0178 16.7107 12.0112 16.6751 12.005 16.6337C12.0023 16.6156 12.0004 16.5999 11.999 16.5864C12.0463 16.5854 12.1166 16.5897 12.2169 16.6063C12.4924 16.6518 12.9226 16.7765 13.582 17.0264C14.3813 17.3293 15.0316 17.449 15.5452 17.4224C16.0614 17.3956 16.4679 17.2173 16.7157 16.8979C16.9628 16.5793 17.0037 16.1822 16.9159 15.8197C16.8284 15.4581 16.6103 15.1094 16.3014 14.8377Z" fill="#1F86FF"/>
<defs>
<linearGradient id="paint0_linear_27375_21337" x1="4" y1="1" x2="12.3172" y2="22.8794" gradientUnits="userSpaceOnUse">
<stop stop-color="#F7FAFF"/>
<stop offset="0.37" stop-color="#EDF1F9"/>
<stop offset="1" stop-color="#EDF1F9"/>
</linearGradient>
<linearGradient id="paint1_linear_27375_21337" x1="12" y1="1" x2="12" y2="22.6944" gradientUnits="userSpaceOnUse">
<stop stop-color="#E4E8F0"/>
<stop offset="1" stop-color="#E5E9F1"/>
</linearGradient>
</defs>
</svg>
