<svg width="24" height="24" viewBox="0 0 24 24" fill="none" xmlns="http://www.w3.org/2000/svg">
<path d="M6.59961 1.34961H14.5186L19.6504 6.64062V20.4004C19.6502 21.6427 18.6427 22.6502 17.4004 22.6504H6.59961C5.35728 22.6502 4.34982 21.6427 4.34961 20.4004V3.59961C4.34982 2.35728 5.35728 1.34982 6.59961 1.34961Z" fill="url(#paint0_linear_27375_21373)" stroke="url(#paint1_linear_27375_21373)" stroke-width="0.7" stroke-linejoin="round"/>
<path d="M16.6699 6.5C15.5654 6.5 14.6699 5.60457 14.6699 4.5L14.6699 1L19.9999 6.5H16.6699Z" fill="#DADEE5"/>
<path d="M8.2748 8.9248C8.08151 8.9248 7.9248 9.08151 7.9248 9.2748V9.92071C7.9248 10.114 8.08151 10.2707 8.2748 10.2707C8.4681 10.2707 8.6248 10.114 8.6248 9.92071V9.6248H11.0597V16.3834H10.2723C10.079 16.3834 9.92232 16.5401 9.92232 16.7334C9.92232 16.9267 10.079 17.0834 10.2723 17.0834H12.5468C12.7401 17.0834 12.8968 16.9267 12.8968 16.7334C12.8968 16.5401 12.7401 16.3834 12.5468 16.3834H11.7597V9.6248H14.2748V9.92071C14.2748 10.114 14.4315 10.2707 14.6248 10.2707C14.8181 10.2707 14.9748 10.114 14.9748 9.92071V9.2748C14.9748 9.08151 14.8181 8.9248 14.6248 8.9248H8.2748Z" fill="#1F86FF"/>
<path d="M13.3192 12.0046C13.3192 11.8113 13.4759 11.6546 13.6692 11.6546H16.5805C16.7738 11.6546 16.9305 11.8113 16.9305 12.0046C16.9305 12.1979 16.7738 12.3546 16.5805 12.3546H13.6692C13.4759 12.3546 13.3192 12.1979 13.3192 12.0046Z" fill="#1F86FF"/>
<path d="M13.6692 13.2423C13.4759 13.2423 13.3192 13.399 13.3192 13.5923C13.3192 13.7856 13.4759 13.9423 13.6692 13.9423H16.5805C16.7738 13.9423 16.9305 13.7856 16.9305 13.5923C16.9305 13.399 16.7738 13.2423 16.5805 13.2423H13.6692Z" fill="#1F86FF"/>
<path d="M13.3192 15.2175C13.3192 15.0242 13.4759 14.8675 13.6692 14.8675H15.3311C15.5244 14.8675 15.6811 15.0242 15.6811 15.2175C15.6811 15.4108 15.5244 15.5675 15.3311 15.5675H13.6692C13.4759 15.5675 13.3192 15.4108 13.3192 15.2175Z" fill="#1F86FF"/>
<defs>
<linearGradient id="paint0_linear_27375_21373" x1="4" y1="1" x2="12.3172" y2="22.8794" gradientUnits="userSpaceOnUse">
<stop stop-color="#F7FAFF"/>
<stop offset="0.37" stop-color="#EDF1F9"/>
<stop offset="1" stop-color="#EDF1F9"/>
</linearGradient>
<linearGradient id="paint1_linear_27375_21373" x1="12" y1="1" x2="12" y2="22.6944" gradientUnits="userSpaceOnUse">
<stop stop-color="#E4E8F0"/>
<stop offset="1" stop-color="#E5E9F1"/>
</linearGradient>
</defs>
</svg>
